<?xml version="1.0" encoding="UTF-8"?>
<svg width="140px" height="140px" viewBox="0 0 140 140" version="1.1" xmlns="http://www.w3.org/2000/svg" xmlns:xlink="http://www.w3.org/1999/xlink">
    <!-- Generator: Sketch 43.2 (39069) - http://www.bohemiancoding.com/sketch -->
    <title>uberflip-on</title>
    <desc>Created with Sketch.</desc>
    <defs></defs>
    <g id="Uberflip" stroke="none" stroke-width="1" fill="none" fill-rule="evenodd">
        <g id="uberflip">
            <rect id="Background" fill="#BB2252" fill-rule="nonzero" x="0" y="0" width="140" height="140"></rect>
            <g id="uberflip-mainlogo-white" transform="translate(13.000000, 56.000000)" fill="#FFFFFF">
                <path d="M105.779359,18.1814263 C104.494087,18.2149679 102.462788,17.2009776 101.533574,16.5905929 L101.533574,14.4770994 C101.533574,10.8837179 103.438077,9.14360577 105.724808,9.14360577 C108.285032,9.14360577 110.078221,11.0237821 110.078221,13.6927404 C110.078221,16.3863942 108.362067,18.1139744 105.779359,18.1814263 Z M105.724808,6.85834936 C101.888894,6.85834936 99.1358974,9.74588141 99.1358974,14.0447436 L99.1358974,26.1665545 L99.1425321,26.1665545 C99.1823397,26.7404487 99.6054808,27.275641 100.336394,27.275641 C101.073942,27.275641 101.491923,26.7323397 101.527308,26.1470192 L101.533574,26.1470192 L101.533574,19.0796795 C102.698686,19.728766 104.710449,20.5628846 106.187388,20.4681571 C109.528654,20.2510577 112.475897,17.6384936 112.475897,13.9916667 C112.475897,10.1222115 109.972067,6.85834936 105.724808,6.85834936 L105.724808,6.85834936 Z" id="Fill-1"></path>
                <path d="M95.809375,1.8975 C94.8853205,1.8975 94.3681891,2.60777244 94.3681891,3.34200321 C94.3681891,4.07660256 94.8853205,4.78355769 95.809375,4.78355769 C96.7367468,4.78355769 97.2542468,4.07660256 97.2542468,3.34200321 C97.2542468,2.60777244 96.7367468,1.8975 95.809375,1.8975" id="Fill-2"></path>
                <path d="M91.2230128,0.303349359 C90.4567147,0.303349359 90.0258333,0.889775641 90.0258333,1.50200321 C90.0258333,1.50863782 90.030625,1.51490385 90.030625,1.52448718 L90.0258333,1.52448718 L90.0258333,18.960625 L90.0612179,18.960625 C90.0372596,19.0490865 90.0258333,19.1390224 90.0258333,19.2355929 C90.0258333,19.8430288 90.4567147,20.4312981 91.2230128,20.4312981 C91.9911538,20.4312981 92.4172436,19.8430288 92.4172436,19.2355929 C92.4172436,19.1390224 92.4076603,19.0490865 92.3899679,18.960625 L92.4172436,18.960625 L92.4172436,1.50200321 C92.4172436,0.889775641 91.9911538,0.303349359 91.2230128,0.303349359" id="Fill-3"></path>
                <path d="M97.0098718,8.07948718 L97.0098718,8.07469551 C97.0098718,7.46394231 96.579359,6.87419872 95.809375,6.87419872 C95.0430769,6.87419872 94.6107212,7.46394231 94.6107212,8.07469551 L94.6107212,18.960625 L94.6442628,18.960625 C94.6232532,19.0490865 94.6107212,19.1390224 94.6107212,19.2355929 C94.6107212,19.8430288 95.0430769,20.4312981 95.809375,20.4312981 C96.579359,20.4312981 97.0098718,19.8430288 97.0098718,19.2355929 C97.0098718,19.1390224 96.9954968,19.0490865 96.9744872,18.960625 L97.0098718,18.960625 L97.0098718,8.07948718" id="Fill-4"></path>
                <path d="M87.0177724,0.345 L87.0177724,0.333573718 L85.0023237,0.333573718 C82.3071955,0.333573718 80.3757853,2.12860577 80.3757853,5.09685897 L80.3757853,19.2514423 L80.3824199,19.2514423 C80.4207532,19.8286538 80.8446314,20.3572115 81.5729647,20.3572115 C82.3027724,20.3572115 82.720016,19.8286538 82.7624038,19.2514423 L82.7716186,19.2514423 L82.7716186,9.19004808 L86.4855288,9.19004808 C86.5242308,9.1963141 86.5644071,9.20626603 86.6060577,9.20626603 C87.3436058,9.20626603 87.7582692,8.64195513 87.7582692,8.05552885 C87.7582692,7.4930609 87.3756731,6.95455128 86.6897276,6.914375 L86.6897276,6.90479167 L82.7716186,6.90479167 L82.7716186,5.04415064 C82.7716186,3.38217949 83.74875,2.62214744 85.3314744,2.62214744 L86.7844551,2.62214744 C86.8213141,2.62214744 86.8585417,2.63173077 86.9001923,2.63173077 C86.9388942,2.63173077 86.9739103,2.62214744 87.0144551,2.62214744 L87.0177724,2.62214744 C87.6749679,2.56280449 88.0472436,2.03572115 88.0472436,1.48283654 C88.0472436,0.928477564 87.6749679,0.404342949 87.0177724,0.345" id="Fill-5"></path>
                <path d="M37.8608013,7.12668269 C37.6728205,7.00136218 37.4376603,6.92580128 37.1608494,6.92580128 C36.9809776,6.92580128 36.8151122,6.95934295 36.6728365,7.01573718 L36.3901282,7.173125 C36.0830929,7.40939103 35.916859,7.7805609 35.916859,8.16463141 C35.916859,8.47793269 36.0289103,8.7868109 36.2338462,9.01496795 C36.2371635,9.01975962 36.2434295,9.02455128 36.2452724,9.02602564 C37.1173558,10.0241667 37.6038942,11.2921154 37.6038942,12.6404167 C37.6038942,13.3086699 37.4796795,13.9485417 37.2607372,14.5445513 C36.721859,16.9053686 34.6079968,18.673125 32.0864744,18.673125 C29.563109,18.673125 27.4529327,16.9053686 26.9096314,14.5397596 C26.6954808,13.9466987 26.5701603,13.3086699 26.5701603,12.6404167 C26.5701603,11.3064904 27.0522756,10.0499679 27.9015064,9.05846154 C27.9287821,9.02786859 27.951266,9.00206731 27.9811218,8.97147436 C28.1598878,8.74810897 28.2638301,8.45876603 28.2638301,8.16463141 C28.2638301,7.53471154 27.8193109,6.92580128 27.0216827,6.92580128 C26.7352885,6.92580128 26.4968109,7.00615385 26.3066186,7.13774038 C26.176875,7.26822115 26.0511859,7.40459936 25.940609,7.54282051 C24.7589103,8.96668269 24.0928686,10.7554487 24.0928686,12.6404167 C24.0928686,17.0450641 27.6803526,20.6321795 32.0864744,20.6321795 C36.4951763,20.6321795 40.0756571,17.0450641 40.0756571,12.6404167 C40.0756571,10.7602404 39.4247276,8.97626603 38.2485577,7.55424679 C38.1254487,7.40939103 37.9942308,7.26822115 37.8608013,7.12668269" id="Fill-6"></path>
                <path d="M28.2295513,3.34200321 C28.2295513,4.07660256 28.7485256,4.78355769 29.6722115,4.78355769 C30.5984776,4.78355769 31.1167147,4.07660256 31.1167147,3.34200321 C31.1167147,2.60777244 30.5984776,1.8975 29.6722115,1.8975 C28.7485256,1.8975 28.2295513,2.60777244 28.2295513,3.34200321" id="Fill-7"></path>
                <path d="M34.4730929,4.78355769 C35.3986218,4.78355769 35.9135417,4.07660256 35.9135417,3.34200321 C35.9135417,2.60777244 35.3986218,1.8975 34.4730929,1.8975 C33.5483013,1.8975 33.0300641,2.60777244 33.0300641,3.34200321 C33.0300641,4.07660256 33.5483013,4.78355769 34.4730929,4.78355769" id="Fill-8"></path>
                <path d="M77.5538622,6.92911859 L77.5538622,6.92580128 L77.0105609,6.92580128 C75.4020353,6.92580128 74.2881571,7.41418269 73.4702564,8.69503205 L73.4190224,8.69503205 L73.4190224,8.07469551 L73.4138622,8.07469551 C73.4138622,8.06511218 73.4190224,8.05700321 73.4190224,8.04741987 C73.4190224,7.46578526 73.0109936,6.90479167 72.2760256,6.90479167 C71.5399519,6.90479167 71.1304487,7.46578526 71.1304487,8.04741987 L71.1304487,8.07469551 L71.1304487,19.182516 L71.1370833,19.182516 C71.178734,19.759359 71.5981891,20.2916026 72.3276282,20.2916026 C73.061859,20.2916026 73.4765224,19.759359 73.5170673,19.182516 L73.528125,19.182516 L73.528125,13.8055288 C73.528125,10.2652244 74.8893269,9.21253205 77.201859,9.21253205 L77.5538622,9.21253205 L77.5538622,9.20626603 C78.2541827,9.17862179 78.6448878,8.63716346 78.6448878,8.06990385 C78.6448878,7.49932692 78.2541827,6.95786859 77.5538622,6.92911859" id="Fill-9"></path>
                <path d="M58.6488942,13.662516 C58.6488942,10.9946635 60.4501923,9.14360577 62.9249038,9.14360577 C64.3955769,9.14360577 65.0734135,9.57891026 65.8964744,10.3971795 L58.7082372,14.4273397 C58.6761699,14.1781731 58.6488942,13.9260577 58.6488942,13.662516 Z M69.7051122,14.5928365 C69.6745192,13.9791346 69.2340545,13.4019231 68.4548558,13.4019231 C67.6771314,13.4019231 67.2351923,13.9791346 67.209391,14.5928365 L67.1964904,14.5928365 C66.663141,16.7221795 65.5555288,18.1814263 62.9249038,18.1814263 C61.4623397,18.1814263 60.2378846,17.5308654 59.4826442,16.4490545 L69.2421635,10.9946635 C68.0206571,8.46355769 65.9735096,6.85834936 62.9249038,6.85834936 C59.3060897,6.85834936 56.1509615,9.63530449 56.1509615,13.662516 C56.1509615,17.6897276 59.3060897,20.4681571 62.9249038,20.4681571 C66.4316667,20.4681571 69.079984,18.1895353 69.6391346,15.0734776 C69.6822596,14.9400481 69.7095353,14.7985096 69.7095353,14.6540224 C69.7095353,14.6492308 69.7051122,14.6411218 69.7051122,14.6330128 C69.7095353,14.6219551 69.7128526,14.6072115 69.7161699,14.5928365 L69.7051122,14.5928365 L69.7051122,14.5928365 Z" id="Fill-10"></path>
                <path d="M48.1422436,18.1814263 C45.8536699,18.1814263 43.9487981,16.4379968 43.9487981,12.8446154 L43.9487981,10.7329647 C44.8776442,10.1236859 46.9089423,9.11116987 48.1938462,9.14360577 C50.7817147,9.20921474 52.4967628,10.9419551 52.4967628,13.6367147 C52.4967628,16.3041987 50.6998878,18.1814263 48.1422436,18.1814263 Z M48.6026122,6.85834936 C47.1289904,6.76030449 45.1139103,7.59589744 43.9487981,8.24203526 L43.9487981,1.53591346 L43.9395833,1.53591346 C43.9097276,0.952435897 43.4932212,0.410977564 42.7494071,0.410977564 C42.0199679,0.410977564 41.6005128,0.942852564 41.5632853,1.51822115 L41.5540705,1.51822115 L41.5540705,13.2813942 C41.5540705,17.5835737 44.3033814,20.4681571 48.1422436,20.4681571 C52.3872917,20.4681571 54.8892788,17.2009776 54.8892788,13.3344712 C54.8892788,9.68653846 51.9438782,7.07692308 48.6026122,6.85834936 L48.6026122,6.85834936 Z" id="Fill-11"></path>
                <path d="M18.2872115,2.02429487 C18.2872115,2.02429487 4.50121795,6.50302885 1.3405609,19.1648237 C4.34604167,14.2006571 8.30432692,14.3278205 12.1306571,14.0819712 C9.09863782,6.45658654 18.2872115,2.02429487 18.2872115,2.02429487 Z M19.5968109,19.4766506 C19.5968109,19.9923077 19.1821474,20.4102885 18.6672276,20.4102885 L0.931057692,20.4102885 C0.418717949,20.4102885 0,19.9923077 0,19.4766506 L0,1.7430609 C0,1.22740385 0.418717949,0.809423077 0.931057692,0.809423077 L18.6672276,0.809423077 C19.1821474,0.809423077 19.5968109,1.22740385 19.5968109,1.7430609 L19.5968109,19.4766506 L19.5968109,19.4766506 Z" id="Fill-12"></path>
                <path d="M113.477356,19.0089103 L113.690769,19.0089103 C113.816458,19.0089103 113.904551,18.9882692 113.904551,18.8500481 C113.904551,18.7085096 113.76633,18.6922917 113.663862,18.6922917 L113.477356,18.6922917 L113.477356,19.0089103 Z M113.187644,18.4593429 L113.694087,18.4593429 C114.032821,18.4593429 114.193894,18.6041987 114.193894,18.866266 C114.193894,19.0844712 114.052356,19.2064744 113.864375,19.2293269 L114.18726,19.7564103 L113.880224,19.7564103 L113.587933,19.241859 L113.477356,19.241859 L113.477356,19.7564103 L113.187644,19.7564103 L113.187644,18.4593429 Z M113.660545,19.9827244 C114.15851,19.9827244 114.499087,19.6436218 114.499087,19.1069551 C114.499087,18.5702885 114.15851,18.2297115 113.660545,18.2297115 C113.160369,18.2297115 112.821266,18.5702885 112.821266,19.1069551 C112.821266,19.6436218 113.160369,19.9827244 113.660545,19.9827244 Z M113.660545,17.9226763 C114.31258,17.9226763 114.844824,18.4527083 114.844824,19.1069551 C114.844824,19.759359 114.31258,20.2916026 113.660545,20.2916026 C113.005929,20.2916026 112.475897,19.759359 112.475897,19.1069551 C112.475897,18.4527083 113.005929,17.9226763 113.660545,17.9226763 L113.660545,17.9226763 Z" id="Fill-13"></path>
            </g>
        </g>
    </g>
</svg>