<svg width="40" height="40" viewBox="0 0 40 40" fill="none" xmlns="http://www.w3.org/2000/svg">
<rect width="40" height="40" fill="white"/>
<path d="M9.77602 15.736L0.226675 34.4688C0.0649933 34.7859 -0.0124912 35.1392 0.00163767 35.4948C0.0157666 35.8504 0.121031 36.1964 0.307369 36.4998C0.493707 36.8032 0.754889 37.0538 1.06594 37.2277C1.37699 37.4015 1.72752 37.4928 2.084 37.4928H8.58714C9.02963 37.4928 9.4635 37.3706 9.84072 37.1397C10.218 36.9088 10.5238 36.5782 10.7245 36.1845L20.2739 17.4518C20.4355 17.1346 20.513 16.7813 20.4989 16.4257C20.4848 16.0701 20.3795 15.7241 20.1932 15.4207C20.0068 15.1173 19.7457 14.8667 19.4346 14.6929C19.1236 14.519 18.773 14.4277 18.4165 14.4277H11.9134C11.4709 14.4277 11.037 14.5499 10.6598 14.7808C10.2826 15.0117 9.97671 15.3423 9.77602 15.736Z" fill="#115EF8"/>
<path d="M24.8973 1.81836H18.5988C18.2639 1.81836 17.9347 1.90407 17.6425 2.0673C17.3503 2.23052 17.105 2.46581 16.9298 2.7507C16.7547 3.03558 16.6557 3.36053 16.6422 3.69452C16.6287 4.0285 16.7013 4.36035 16.8529 4.65837L21.8221 14.426H21.8202L27.501 25.592C27.6004 25.7874 27.648 26.005 27.6391 26.224C27.6303 26.4429 27.5654 26.656 27.4506 26.8428C27.3357 27.0296 27.1749 27.1838 26.9833 27.2908C26.7917 27.3979 26.5759 27.4541 26.3564 27.4541H18.6714C18.2976 27.4541 17.9298 27.5477 17.6016 27.7264C17.2735 27.9051 16.9955 28.1631 16.7931 28.4769C16.5908 28.7906 16.4705 29.1501 16.4434 29.5222C16.4163 29.8944 16.4831 30.2674 16.6378 30.6071L19.1776 36.184C19.3551 36.5738 19.6413 36.9043 20.0019 37.1361C20.3625 37.3678 20.7823 37.4911 21.2112 37.4911H28.7195C30.4307 37.4911 32.1133 37.0527 33.6062 36.2177C35.0991 35.3828 36.3524 34.1793 37.246 32.7225C38.1397 31.2657 38.6439 29.6043 38.7103 27.8973C38.7767 26.1903 38.4032 24.4948 37.6254 22.9732L27.6825 3.52106C27.4205 3.00857 27.0218 2.57832 26.5303 2.27785C26.0388 1.97737 25.4736 1.81836 24.8973 1.81836Z" fill="#115EF8"/>
</svg>
