<svg xmlns="http://www.w3.org/2000/svg" width="56" height="61" viewBox="0 0 56 61" fill="none"><path d="M28.1467 11.6618C29.3194 11.6618 30.4922 11.6618 31.6649 11.9609L28.1467 18.8382C22.8692 18.5391 18.178 22.7255 17.8848 28.1079C17.5918 33.4902 21.6964 38.2745 26.9739 38.5735H28.1467C30.4922 38.5735 32.8378 37.6764 34.5969 36.1814L38.4085 42.7597C35.4765 44.853 31.9581 46.0489 28.1467 46.0489C18.7644 46.348 10.8482 39.1716 10.555 29.6029C10.2617 20.0344 17.2985 11.9609 26.6806 11.6618H28.1467ZM40.1676 26.3138L44.5656 33.7893L40.1676 40.9656L36.063 33.7893H27.5603L31.9581 26.3138H40.1676ZM33.131 23.6227C33.131 22.4265 33.4242 21.2303 34.0104 20.3334C34.5969 19.4363 35.7697 18.5391 36.6492 17.9413L37.2356 17.6422C38.4085 17.0441 38.7017 16.7451 38.7017 16.147C38.7017 15.5491 37.822 14.9511 37.2356 14.9511C36.0629 14.9511 35.1833 15.5492 34.5969 16.7451L33.131 15.2501C33.4242 14.652 34.0104 14.0539 34.5969 13.4558C35.4765 12.8578 36.3562 12.8578 37.2356 12.8578C38.1153 12.8578 39.2879 13.1568 39.8743 13.7549C40.4608 14.353 41.0472 15.2501 41.0472 16.147C41.0472 17.6422 40.1676 18.8382 38.4085 19.4363L37.5288 20.0344C36.6492 20.6324 36.0629 20.9315 35.7697 21.8284H41.0472V23.9215L33.131 23.6227ZM28.1467 61L56 44.853V0H0V44.5539L28.1467 61Z" fill="#FF492C"></path></svg>