<svg width="261" height="80" viewBox="0 0 261 80" fill="none" xmlns="http://www.w3.org/2000/svg">
<path d="M229.584 29.2627H221.358C218.649 29.2506 216.027 30.1973 213.983 31.9262C211.938 33.6551 210.61 36.0482 210.246 38.6591C209.209 44.4362 212.52 48.0556 217.984 48.0556H226.21L229.584 29.2627ZM234.12 4H246L240.41 35.1389L238.091 48.0637L236.322 57.922L236.128 59H213.642C203.267 59 196.302 50.1434 198.361 38.6673C200.421 27.1912 210.567 18.3329 220.933 18.3329H231.537L234.12 4Z" fill="white"/>
<path d="M123.07 49.2659H131.125C133.778 49.2782 136.345 48.3141 138.348 46.5535C140.35 44.7929 141.65 42.356 142.007 39.6972C143.022 33.8142 139.78 30.1285 134.429 30.1285H126.372L123.07 49.2659ZM114.739 30.1285L116.246 21.3976L114.739 30.1285ZM118.63 75H107L109.518 60.411L109.708 59.3132L109.834 58.5764L116.251 21.4058L116.477 20.0978L116.666 19H138.685C148.844 19 155.663 28.019 153.646 39.7055C151.629 51.3919 141.694 60.4126 131.543 60.4126H121.146L118.63 75Z" fill="white"/>
<path d="M187.548 21L176.075 44.5923L171.593 21H158.751L167.759 57.7715C165.218 62.4737 162.351 64.1691 156.903 64.1691L155 74.9597C165.801 75.4999 173.584 70.6431 180.102 58.3898L200 21H187.548Z" fill="white"/>
<path d="M45.7331 59H59.0467L50.9863 39.1744C54.1909 37.7413 57.0124 35.5772 59.2232 32.8569C61.434 30.1367 62.9721 26.9365 63.7132 23.5146C65.5106 13.255 58.6741 5 48.3802 5H23.4574L14 59H26.3838C28.8609 44.8569 31.338 30.7143 33.815 16.5722H46.3524C49.7576 16.5722 52.0174 19.5801 51.3278 23.5162C51.0653 25.339 50.1892 27.0188 48.8432 28.2802C47.4971 29.5416 45.761 30.3097 43.9195 30.4586H34.0552L45.7331 59Z" fill="white"/>
<path d="M91.3178 49.7036H83.3485C78.0534 49.7036 74.8478 45.9656 75.8521 39.9992C76.2048 37.3026 77.4914 34.8311 79.4721 33.0456C81.4529 31.26 83.9924 30.2823 86.6172 30.2947H94.5866L91.3178 49.7036ZM86.2155 19C76.1631 19 66.3375 28.1469 64.3484 39.9992C62.3593 51.8514 69.0992 61 79.1516 61H100.926L101.114 59.8866L102.83 49.7053L106.098 30.2964L107.812 20.115L108 19.0017H86.2155V19Z" fill="white"/>
</svg>
