<svg xmlns="http://www.w3.org/2000/svg" width="223" height="42" viewBox="0 0 223 42" fill="none"><path d="M3.77686 16.725L15.4664 14.7468L21.5809 3.05728L27.1559 14.567L39.7446 16.725L30.9325 25.3573L32.7309 37.946L21.5809 32.5509L10.4309 37.946L11.8696 25.5371L3.77686 16.725ZM48.5567 16.725L60.2462 14.7468L66.3607 3.05728L72.1156 14.567L84.5244 16.725L75.7123 25.3573L77.6906 37.946L66.3607 32.5509L55.3906 37.946L56.8293 25.5371L48.5567 16.725ZM94.2357 16.725L105.925 14.7468L112.04 3.05728L117.615 14.567L130.203 16.725L121.391 25.3573L123.37 37.946L112.04 32.5509L100.89 37.946L102.328 25.5371L94.2357 16.725ZM138.476 16.725L150.166 14.7468L156.28 3.05728L162.035 14.567L174.444 16.725L165.632 25.3573L167.61 37.946L156.28 32.5509L145.31 37.946L146.749 25.5371L138.476 16.725ZM183.436 16.725L195.125 14.7468L201.24 3.05728L206.995 14.567L219.403 16.725L210.591 25.3573L212.57 37.946L201.24 32.5509L190.27 37.946L191.708 25.5371L183.436 16.725Z" fill="#FF492C"></path><path d="M43.1613 15.6459L28.2347 13.4879L21.5806 0L14.9266 13.4879L0 15.6459L10.7903 26.0766L8.27258 41.0032L21.5806 33.9895L34.8887 41.0032L32.371 26.0766L43.1613 15.6459ZM21.5806 30.7524L12.229 35.7879L14.0274 25.3573L6.47419 17.9839L17.0847 16.3653L21.7605 6.83385L26.4363 16.3653L37.0468 17.9839L29.4936 25.3573L31.2919 35.7879L21.5806 30.7524ZM88.121 15.6459L73.1944 13.4879L66.5403 0L59.8863 13.4879L44.9597 15.6459L55.75 26.0766L53.2323 41.0032L66.5403 33.9895L79.8484 41.0032L77.3306 26.0766L88.121 15.6459ZM66.5403 30.7524L57.1887 35.7879L58.9871 25.3573L51.4339 17.9839L62.0444 16.3653L66.7202 6.83385L71.396 16.3653L82.0064 17.9839L74.4532 25.3573L76.2516 35.7879L66.5403 30.7524ZM133.081 15.6459L118.154 13.4879L111.5 0L104.846 13.4879L89.9193 15.6459L100.71 26.0766L98.1919 41.0032L111.5 33.9895L124.808 41.0032L122.29 26.0766L133.081 15.6459ZM111.5 30.7524L102.148 35.7879L103.947 25.3573L96.3936 17.9839L107.004 16.3653L111.68 6.83385L116.356 16.3653L126.966 17.9839L119.413 25.3573L121.211 35.7879L111.5 30.7524ZM178.04 15.6459L163.114 13.4879L156.46 0L149.806 13.4879L134.879 15.6459L145.669 26.0766L143.152 41.0032L156.46 33.9895L169.768 41.0032L167.25 26.0766L178.04 15.6459ZM156.46 30.7524L147.108 35.7879L148.906 25.3573L141.353 17.9839L151.964 16.3653L156.64 6.83385L161.315 16.3653L171.926 17.9839L164.373 25.3573L166.171 35.7879L156.46 30.7524ZM223 15.6459L208.073 13.4879L201.419 0L194.765 13.4879L179.839 15.6459L190.629 26.0766L188.111 41.0032L201.419 33.9895L214.727 41.0032L212.21 26.0766L223 15.6459ZM201.419 30.7524L192.068 35.7879L193.866 25.3573L186.313 17.9839L196.923 16.3653L201.599 6.83385L206.275 16.3653L216.885 17.9839L209.332 25.3573L211.131 35.7879L201.419 30.7524Z" fill="#FF492C"></path></svg>