<svg width="691" height="560" viewBox="0 0 691 560" fill="none" xmlns="http://www.w3.org/2000/svg">
<g clip-path="url(#clip0_4037_1308)">
<rect width="691" height="560" fill="white"/>
<rect opacity="0.5" x="79" width="299" height="122" rx="61" fill="url(#paint0_linear_4037_1308)"/>
<rect x="164" y="243" width="532" height="162" rx="81" stroke="url(#paint1_linear_4037_1308)" stroke-linecap="round"/>
<path fill-rule="evenodd" clip-rule="evenodd" d="M575.363 408C575.363 443.346 546.71 472 511.363 472L335.998 472C300.652 472 271.998 443.346 271.998 408C271.998 372.654 300.652 344 335.998 344L511.363 344C546.709 344 575.363 372.654 575.363 408Z" fill="url(#paint2_linear_4037_1308)"/>
<rect x="498" y="145" width="132" height="86" rx="43" fill="url(#paint3_linear_4037_1308)"/>
<circle cx="508.996" cy="408" r="45" stroke="url(#paint4_linear_4037_1308)" stroke-width="2"/>
<g clip-path="url(#clip1_4037_1308)">
<path d="M204 68C204 64.134 207.134 61 211 61H547C550.866 61 554 64.134 554 68V369C554 372.866 550.866 376 547 376H211C207.134 376 204 372.866 204 369V68Z" fill="white"/>
<path d="M204 68C204 64.134 207.134 61 211 61H547C550.866 61 554 64.134 554 68V273H204V68Z" fill="white"/>
<g filter="url(#filter0_d_4037_1308)">
<rect x="204" y="61" width="350" height="315" rx="8" fill="url(#paint5_radial_4037_1308)"/>
</g>
<path d="M204 81H554V364C554 370.627 548.627 376 542 376H216C209.373 376 204 370.627 204 364V81Z" fill="white"/>
<path d="M242 121C242 117.686 244.686 115 248 115H509C512.314 115 515 117.686 515 121V273H242V121Z" fill="#F3F3F3"/>
<path d="M354.935 213.272H399.059C399.412 213.282 399.761 213.193 400.066 213.014C400.371 212.835 400.62 212.575 400.784 212.262C400.948 211.949 401.021 211.596 400.995 211.243C400.968 210.891 400.843 210.553 400.634 210.268L394.547 202.004C394.388 201.784 394.184 201.601 393.948 201.467C393.712 201.333 393.45 201.252 393.18 201.229C392.909 201.205 392.637 201.241 392.382 201.332C392.126 201.423 391.894 201.569 391.699 201.758L385.445 207.71L370.927 187.999C370.747 187.753 370.509 187.554 370.234 187.42C369.96 187.286 369.657 187.221 369.352 187.23C369.046 187.238 368.748 187.321 368.481 187.471C368.215 187.62 367.989 187.832 367.823 188.089L353.305 210.357C353.117 210.645 353.012 210.979 353.001 211.323C352.99 211.667 353.072 212.007 353.24 212.307C353.408 212.607 353.655 212.855 353.953 213.025C354.252 213.195 354.591 213.281 354.935 213.272Z" fill="#CDCFD5"/>
<path d="M390.728 188.245C394.385 188.245 397.35 185.28 397.35 181.622C397.35 177.965 394.385 175 390.728 175C387.07 175 384.105 177.965 384.105 181.622C384.105 185.28 387.07 188.245 390.728 188.245Z" fill="#CDCFD5"/>
<g clip-path="url(#clip2_4037_1308)">
<circle cx="216.496" cy="71.5" r="3.5" fill="#FB4247"/>
<circle cx="227.496" cy="71.5" r="3.5" fill="white"/>
<circle cx="238.496" cy="71.5" r="3.5" fill="#1AC3DA"/>
</g>
<path d="M204 273H554V369C554 372.866 550.866 376 547 376H211C207.134 376 204 372.866 204 369V273Z" fill="white"/>
<line x1="204" y1="273.5" x2="553" y2="273.5" stroke="#F0F1F4"/>
<path d="M234.149 311.699L229.114 303.966H231.907L235.384 309.514H235.479L238.899 303.966H241.578L236.562 311.699V317H234.149V311.699ZM245.775 317.228C244.129 317.228 242.894 316.804 242.07 315.955C241.26 315.106 240.854 313.789 240.854 312.003C240.854 310.217 241.26 308.9 242.07 308.051C242.894 307.202 244.129 306.778 245.775 306.778C247.422 306.778 248.651 307.202 249.461 308.051C250.285 308.9 250.696 310.217 250.696 312.003C250.696 313.789 250.285 315.106 249.461 315.955C248.651 316.804 247.422 317.228 245.775 317.228ZM245.775 315.366C246.675 315.366 247.327 315.106 247.732 314.587C248.138 314.055 248.34 313.238 248.34 312.136V311.87C248.34 310.768 248.138 309.957 247.732 309.438C247.327 308.906 246.675 308.64 245.775 308.64C244.863 308.64 244.205 308.906 243.799 309.438C243.407 309.957 243.21 310.768 243.21 311.87V312.136C243.21 313.238 243.407 314.055 243.799 314.587C244.205 315.106 244.863 315.366 245.775 315.366ZM255.899 317.228C253.745 317.228 252.669 316.069 252.669 313.751V307.006H254.949V313.352C254.949 314.036 255.101 314.524 255.405 314.815C255.721 315.106 256.184 315.252 256.792 315.252C257.425 315.252 257.957 315.024 258.388 314.568C258.818 314.112 259.034 313.529 259.034 312.82V307.006H261.314V317H259.433L259.243 315.67H259.11C258.742 316.164 258.286 316.55 257.742 316.829C257.21 317.095 256.595 317.228 255.899 317.228ZM263.97 307.006H265.851L266.06 308.583H266.193C266.649 307.38 267.396 306.778 268.435 306.778C268.789 306.778 269.106 306.835 269.385 306.949V309.096H268.663C267.054 309.096 266.25 309.995 266.25 311.794V317H263.97V307.006ZM280.071 317.228C278.69 317.228 277.62 316.943 276.86 316.373C276.113 315.803 275.739 315.062 275.739 314.15C275.739 314.036 275.739 313.96 275.739 313.922C275.752 313.884 275.758 313.859 275.758 313.846H277.981V313.998C277.994 314.492 278.203 314.859 278.608 315.1C279.026 315.328 279.545 315.442 280.166 315.442C280.723 315.442 281.198 315.353 281.591 315.176C281.984 314.986 282.18 314.707 282.18 314.34C282.18 314.049 282.072 313.814 281.857 313.637C281.642 313.447 281.376 313.301 281.059 313.2C280.742 313.086 280.293 312.959 279.71 312.82C278.925 312.63 278.279 312.44 277.772 312.25C277.278 312.06 276.854 311.762 276.499 311.357C276.144 310.952 275.967 310.42 275.967 309.761C275.967 308.811 276.36 308.076 277.145 307.557C277.93 307.038 278.95 306.778 280.204 306.778C280.977 306.778 281.667 306.892 282.275 307.12C282.883 307.348 283.352 307.671 283.681 308.089C284.023 308.494 284.194 308.963 284.194 309.495L284.175 309.913H281.952V309.837C281.952 309.444 281.787 309.14 281.458 308.925C281.141 308.697 280.679 308.583 280.071 308.583C279.476 308.583 279.026 308.678 278.722 308.868C278.418 309.045 278.266 309.28 278.266 309.571C278.266 309.926 278.45 310.192 278.817 310.369C279.197 310.534 279.773 310.698 280.546 310.863C281.382 311.053 282.053 311.249 282.56 311.452C283.079 311.642 283.529 311.946 283.909 312.364C284.289 312.782 284.479 313.346 284.479 314.055C284.479 315.157 284.08 315.961 283.282 316.468C282.497 316.975 281.426 317.228 280.071 317.228ZM286.495 303.263H288.737V305.505H286.495V303.263ZM286.495 307.006H288.775V317H286.495V307.006ZM293.939 317.228C293.09 317.228 292.476 316.994 292.096 316.525C291.729 316.044 291.545 315.448 291.545 314.739V308.868H290.329V307.006H291.583L292.001 304.213H293.825V307.006H295.535V308.868H293.825V314.511C293.825 315.081 294.097 315.366 294.642 315.366H295.535V316.924C295.332 317 295.079 317.07 294.775 317.133C294.471 317.196 294.192 317.228 293.939 317.228ZM301.548 317.228C299.926 317.228 298.723 316.804 297.938 315.955C297.152 315.106 296.76 313.789 296.76 312.003C296.76 310.217 297.152 308.9 297.938 308.051C298.736 307.202 299.939 306.778 301.548 306.778C303.017 306.778 304.113 307.19 304.835 308.013C305.569 308.836 305.937 310.122 305.937 311.87V312.554H299.078C299.116 313.542 299.325 314.27 299.705 314.739C300.097 315.195 300.718 315.423 301.567 315.423C302.2 315.423 302.713 315.265 303.106 314.948C303.498 314.619 303.695 314.137 303.695 313.504H305.937C305.937 314.733 305.531 315.664 304.721 316.297C303.91 316.918 302.852 317.228 301.548 317.228ZM303.562 310.939C303.562 309.368 302.89 308.583 301.548 308.583C300.788 308.583 300.211 308.779 299.819 309.172C299.439 309.552 299.204 310.141 299.116 310.939H303.562Z" fill="black"/>
<path d="M230.06 329.688H231.332L232.22 332.964L232.592 334.548H232.64L232.976 332.964L233.756 329.688H235.16L235.976 332.976C236.048 333.232 236.164 333.756 236.324 334.548H236.384C236.552 333.804 236.672 333.28 236.744 332.976L237.608 329.688H238.808L236.912 336H235.592L234.74 332.46L234.452 331.14H234.404C234.292 331.748 234.2 332.188 234.128 332.46L233.276 336H231.944L230.06 329.688ZM238.931 329.688H240.203L241.091 332.964L241.463 334.548H241.511L241.847 332.964L242.627 329.688H244.031L244.847 332.976C244.919 333.232 245.035 333.756 245.195 334.548H245.255C245.423 333.804 245.543 333.28 245.615 332.976L246.479 329.688H247.679L245.783 336H244.463L243.611 332.46L243.323 331.14H243.275C243.163 331.748 243.071 332.188 242.999 332.46L242.147 336H240.815L238.931 329.688ZM247.802 329.688H249.074L249.962 332.964L250.334 334.548H250.382L250.718 332.964L251.498 329.688H252.902L253.718 332.976C253.79 333.232 253.906 333.756 254.066 334.548H254.126C254.294 333.804 254.414 333.28 254.486 332.976L255.35 329.688H256.55L254.654 336H253.334L252.482 332.46L252.194 331.14H252.146C252.034 331.748 251.942 332.188 251.87 332.46L251.018 336H249.686L247.802 329.688ZM257.047 334.596H258.379V336H257.047V334.596ZM260.891 338.184C260.499 338.184 260.191 338.144 259.967 338.064V337.248H260.495C261.223 337.248 261.711 336.832 261.959 336L259.511 329.688H260.807L261.983 332.784C262.143 333.192 262.347 333.82 262.595 334.668H262.655C262.879 333.868 263.063 333.24 263.207 332.784L264.191 329.688H265.427L263.339 335.676C263.051 336.476 262.727 337.092 262.367 337.524C262.007 337.964 261.515 338.184 260.891 338.184ZM268.998 336.144C267.998 336.144 267.246 335.876 266.742 335.34C266.246 334.796 265.998 333.964 265.998 332.844C265.998 331.724 266.246 330.896 266.742 330.36C267.246 329.816 267.998 329.544 268.998 329.544C269.998 329.544 270.75 329.816 271.254 330.36C271.758 330.896 272.01 331.724 272.01 332.844C272.01 333.964 271.758 334.796 271.254 335.34C270.75 335.876 269.998 336.144 268.998 336.144ZM268.998 335.124C269.606 335.124 270.046 334.948 270.318 334.596C270.598 334.236 270.738 333.672 270.738 332.904V332.784C270.738 332.016 270.598 331.456 270.318 331.104C270.046 330.744 269.606 330.564 268.998 330.564C268.398 330.564 267.958 330.744 267.678 331.104C267.406 331.456 267.27 332.016 267.27 332.784V332.904C267.27 333.672 267.406 334.236 267.678 334.596C267.958 334.948 268.398 335.124 268.998 335.124ZM275.229 336.144C273.893 336.144 273.225 335.42 273.225 333.972V329.688H274.461V333.816C274.461 334.288 274.565 334.62 274.773 334.812C274.989 334.996 275.301 335.088 275.709 335.088C275.989 335.088 276.249 335.02 276.489 334.884C276.729 334.74 276.917 334.54 277.053 334.284C277.197 334.028 277.269 333.732 277.269 333.396V329.688H278.505V336H277.509L277.389 335.16H277.305C277.073 335.48 276.781 335.724 276.429 335.892C276.077 336.06 275.677 336.144 275.229 336.144ZM280.14 329.688H281.136L281.256 330.66H281.328C281.616 329.916 282.1 329.544 282.78 329.544C283.004 329.544 283.2 329.576 283.368 329.64V330.816H282.924C282.452 330.816 282.076 330.952 281.796 331.224C281.516 331.496 281.376 331.912 281.376 332.472V336H280.14V329.688ZM286.448 336.144C285.648 336.144 285.032 335.876 284.6 335.34C284.168 334.796 283.952 333.964 283.952 332.844C283.952 331.74 284.168 330.916 284.6 330.372C285.032 329.82 285.62 329.544 286.364 329.544C287.236 329.544 287.872 329.832 288.272 330.408H288.344V327.324H289.58V336H288.596L288.476 335.16H288.392C288.192 335.48 287.92 335.724 287.576 335.892C287.24 336.06 286.864 336.144 286.448 336.144ZM286.796 335.1C287.332 335.1 287.724 334.916 287.972 334.548C288.22 334.18 288.344 333.636 288.344 332.916V332.82C288.344 331.332 287.828 330.588 286.796 330.588C286.228 330.588 285.824 330.76 285.584 331.104C285.344 331.44 285.224 332.008 285.224 332.808V332.916C285.224 333.7 285.344 334.26 285.584 334.596C285.824 334.932 286.228 335.1 286.796 335.1ZM293.83 336.144C292.83 336.144 292.078 335.876 291.574 335.34C291.078 334.796 290.83 333.964 290.83 332.844C290.83 331.724 291.078 330.896 291.574 330.36C292.078 329.816 292.83 329.544 293.83 329.544C294.83 329.544 295.582 329.816 296.086 330.36C296.59 330.896 296.842 331.724 296.842 332.844C296.842 333.964 296.59 334.796 296.086 335.34C295.582 335.876 294.83 336.144 293.83 336.144ZM293.83 335.124C294.438 335.124 294.878 334.948 295.15 334.596C295.43 334.236 295.57 333.672 295.57 332.904V332.784C295.57 332.016 295.43 331.456 295.15 331.104C294.878 330.744 294.438 330.564 293.83 330.564C293.23 330.564 292.79 330.744 292.51 331.104C292.238 331.456 292.102 332.016 292.102 332.784V332.904C292.102 333.672 292.238 334.236 292.51 334.596C292.79 334.948 293.23 335.124 293.83 335.124ZM298.093 329.688H299.089L299.209 330.528H299.293C299.509 330.208 299.773 329.964 300.085 329.796C300.397 329.628 300.753 329.544 301.153 329.544C301.969 329.544 302.517 329.872 302.797 330.528H302.869C303.085 330.216 303.361 329.976 303.697 329.808C304.033 329.632 304.401 329.544 304.801 329.544C305.393 329.544 305.857 329.704 306.193 330.024C306.529 330.336 306.697 330.844 306.697 331.548V336H305.461V331.788C305.461 331.356 305.365 331.052 305.173 330.876C304.989 330.692 304.729 330.6 304.393 330.6C304.001 330.6 303.673 330.756 303.409 331.068C303.145 331.38 303.013 331.788 303.013 332.292V336H301.777V331.788C301.777 331.356 301.685 331.052 301.501 330.876C301.325 330.692 301.069 330.6 300.733 330.6C300.341 330.6 300.009 330.756 299.737 331.068C299.465 331.38 299.329 331.788 299.329 332.292V336H298.093V329.688ZM309.921 336.144C309.401 336.144 308.929 336.016 308.505 335.76C308.089 335.504 307.881 335.04 307.881 334.368C307.881 333.56 308.233 333 308.937 332.688C309.641 332.376 310.649 332.22 311.961 332.22V331.596C311.961 331.252 311.869 330.992 311.685 330.816C311.509 330.632 311.177 330.54 310.689 330.54C310.217 330.54 309.881 330.624 309.681 330.792C309.489 330.96 309.393 331.164 309.393 331.404V331.56H308.193C308.185 331.512 308.181 331.424 308.181 331.296C308.181 330.744 308.413 330.316 308.877 330.012C309.341 329.7 309.961 329.544 310.737 329.544C311.553 329.544 312.165 329.712 312.573 330.048C312.989 330.384 313.197 330.86 313.197 331.476V334.704C313.197 334.848 313.237 334.956 313.317 335.028C313.397 335.092 313.497 335.124 313.617 335.124H314.049V335.952C313.841 336.056 313.557 336.108 313.197 336.108C312.909 336.108 312.665 336.032 312.465 335.88C312.273 335.72 312.145 335.504 312.081 335.232H311.997C311.773 335.52 311.485 335.744 311.133 335.904C310.789 336.064 310.385 336.144 309.921 336.144ZM310.281 335.136C310.753 335.136 311.149 334.996 311.469 334.716C311.797 334.428 311.961 334.036 311.961 333.54V333.156C311.049 333.156 310.353 333.236 309.873 333.396C309.393 333.548 309.153 333.84 309.153 334.272C309.153 334.568 309.245 334.788 309.429 334.932C309.621 335.068 309.905 335.136 310.281 335.136ZM314.957 327.324H316.181V328.584H314.957V327.324ZM314.957 329.688H316.193V336H314.957V329.688ZM317.828 329.688H318.824L318.944 330.528H319.028C319.252 330.208 319.54 329.964 319.892 329.796C320.252 329.628 320.656 329.544 321.104 329.544C322.44 329.544 323.108 330.268 323.108 331.716V336H321.872V331.872C321.872 331.4 321.764 331.072 321.548 330.888C321.34 330.696 321.032 330.6 320.624 330.6C320.344 330.6 320.084 330.672 319.844 330.816C319.604 330.952 319.412 331.148 319.268 331.404C319.132 331.66 319.064 331.956 319.064 332.292V336H317.828V329.688ZM324.911 334.596H326.243V336H324.911V334.596ZM330.518 336.144C329.542 336.144 328.822 335.876 328.358 335.34C327.894 334.804 327.662 333.972 327.662 332.844C327.662 331.716 327.894 330.884 328.358 330.348C328.83 329.812 329.55 329.544 330.518 329.544C331.374 329.544 332.014 329.756 332.438 330.18C332.87 330.596 333.086 331.216 333.086 332.04H331.838C331.838 331.528 331.734 331.152 331.526 330.912C331.326 330.672 330.986 330.552 330.506 330.552C329.962 330.552 329.562 330.732 329.306 331.092C329.058 331.452 328.934 332.028 328.934 332.82V332.904C328.934 333.688 329.058 334.256 329.306 334.608C329.562 334.96 329.97 335.136 330.53 335.136C331.002 335.136 331.346 335.012 331.562 334.764C331.786 334.508 331.898 334.136 331.898 333.648H333.086C333.086 334.4 332.87 335.004 332.438 335.46C332.006 335.916 331.366 336.144 330.518 336.144ZM336.862 336.144C335.862 336.144 335.11 335.876 334.606 335.34C334.11 334.796 333.862 333.964 333.862 332.844C333.862 331.724 334.11 330.896 334.606 330.36C335.11 329.816 335.862 329.544 336.862 329.544C337.862 329.544 338.614 329.816 339.118 330.36C339.622 330.896 339.874 331.724 339.874 332.844C339.874 333.964 339.622 334.796 339.118 335.34C338.614 335.876 337.862 336.144 336.862 336.144ZM336.862 335.124C337.47 335.124 337.91 334.948 338.182 334.596C338.462 334.236 338.602 333.672 338.602 332.904V332.784C338.602 332.016 338.462 331.456 338.182 331.104C337.91 330.744 337.47 330.564 336.862 330.564C336.262 330.564 335.822 330.744 335.542 331.104C335.27 331.456 335.134 332.016 335.134 332.784V332.904C335.134 333.672 335.27 334.236 335.542 334.596C335.822 334.948 336.262 335.124 336.862 335.124ZM341.125 329.688H342.121L342.241 330.528H342.325C342.541 330.208 342.805 329.964 343.117 329.796C343.429 329.628 343.785 329.544 344.185 329.544C345.001 329.544 345.549 329.872 345.829 330.528H345.901C346.117 330.216 346.393 329.976 346.729 329.808C347.065 329.632 347.433 329.544 347.833 329.544C348.425 329.544 348.889 329.704 349.225 330.024C349.561 330.336 349.729 330.844 349.729 331.548V336H348.493V331.788C348.493 331.356 348.397 331.052 348.205 330.876C348.021 330.692 347.761 330.6 347.425 330.6C347.033 330.6 346.705 330.756 346.441 331.068C346.177 331.38 346.045 331.788 346.045 332.292V336H344.809V331.788C344.809 331.356 344.717 331.052 344.533 330.876C344.357 330.692 344.101 330.6 343.765 330.6C343.373 330.6 343.041 330.756 342.769 331.068C342.497 331.38 342.361 331.788 342.361 332.292V336H341.125V329.688Z" fill="#AFAFC0"/>
</g>
<ellipse opacity="0.12" cx="435" cy="376.5" rx="104" ry="104.5" fill="#1AC3DA"/>
<circle opacity="0.08" cx="436" cy="376" r="140" fill="#1AC3DA"/>
<g filter="url(#filter1_d_4037_1308)">
<path d="M371 327.324V376.503C371 428.906 432.024 451.746 434.644 452.675C435.843 453.109 437.157 453.109 438.356 452.675C440.976 451.746 502 428.906 502 376.503V327.324C502 326.201 501.653 325.106 501.009 324.187C500.364 323.268 499.452 322.57 498.398 322.188L438.356 300.331C437.157 299.897 435.843 299.897 434.644 300.331L374.602 322.188C373.548 322.57 372.636 323.268 371.991 324.187C371.347 325.106 371 326.201 371 327.324Z" fill="url(#paint6_linear_4037_1308)"/>
</g>
<path d="M428.258 394.896L412.359 378.959L418.321 372.982L428.258 382.943L452.106 359.037L458.068 365.013L428.258 394.896Z" fill="white"/>
<g filter="url(#filter2_d_4037_1308)">
<rect x="466" y="136" width="64" height="64" rx="16" fill="#1AC3DA"/>
<g clip-path="url(#clip3_4037_1308)">
<path d="M501.598 156.4V162.8H507.998" stroke="white" stroke-miterlimit="10"/>
<path d="M507.997 166V162.8L501.597 156.4H488.797V166" stroke="white" stroke-miterlimit="10" stroke-linecap="square"/>
<path d="M488.797 177.2V180.4H507.997V177.2" stroke="white" stroke-miterlimit="10" stroke-linecap="square"/>
<path d="M495.6 172.64C495.6 172.96 495.52 173.2 495.36 173.36C495.2 173.52 495.04 173.76 494.72 173.84C494.4 173.92 494.16 174 493.76 174C493.44 174 493.2 174 492.96 173.92C492.72 173.84 492.56 173.84 492.32 173.68V172.56C492.56 172.72 492.8 172.8 493.04 172.88C493.28 172.96 493.52 172.96 493.76 172.96C493.92 172.96 494.08 172.96 494.16 172.88C494.24 172.8 494.32 172.72 494.32 172.64C494.32 172.56 494.32 172.56 494.24 172.48C494.16 172.4 494.16 172.4 494.08 172.32C494 172.24 493.84 172.16 493.44 172C493.12 171.84 492.88 171.76 492.8 171.6C492.72 171.44 492.56 171.36 492.48 171.2C492.4 171.04 492.4 170.88 492.4 170.64C492.4 170.24 492.56 169.92 492.88 169.68C493.2 169.44 493.6 169.36 494.16 169.36C494.64 169.36 495.12 169.44 495.6 169.68L495.2 170.64C494.8 170.48 494.4 170.32 494.08 170.32C493.92 170.32 493.84 170.32 493.76 170.4C493.68 170.48 493.68 170.56 493.68 170.64C493.68 170.72 493.76 170.8 493.84 170.88C493.92 170.96 494.16 171.04 494.56 171.28C494.96 171.44 495.2 171.68 495.36 171.84C495.52 172 495.6 172.32 495.6 172.64Z" fill="white"/>
<path d="M500.64 171.68C500.64 172.72 500.32 173.44 499.68 173.76L500.8 175.04H499.2L498.4 174C497.68 174 497.12 173.76 496.72 173.36C496.32 172.96 496.16 172.4 496.16 171.6C496.16 170.8 496.32 170.24 496.72 169.84C497.12 169.44 497.68 169.2 498.4 169.2C499.12 169.2 499.68 169.36 500.08 169.76C500.48 170.16 500.64 170.96 500.64 171.68ZM497.44 171.68C497.44 172.56 497.76 173.04 498.4 173.04C498.72 173.04 498.96 172.96 499.12 172.72C499.28 172.48 499.36 172.16 499.36 171.68C499.36 171.2 499.28 170.88 499.12 170.64C498.96 170.4 498.72 170.32 498.4 170.32C497.76 170.4 497.44 170.8 497.44 171.68Z" fill="white"/>
<path d="M501.438 174V169.44H502.638V173.04H504.398V174H501.438Z" fill="white"/>
<path d="M510.398 166H486.398V177.2H510.398V166Z" stroke="white" stroke-miterlimit="10" stroke-linecap="square"/>
</g>
</g>
<g filter="url(#filter3_d_4037_1308)">
<rect x="61" y="344" width="48" height="48" rx="12" fill="#1AC3DA"/>
<g clip-path="url(#clip4_4037_1308)">
<path d="M82.1875 362.899V362.062C82.1875 361.234 82.5167 360.439 83.1028 359.853C83.6888 359.267 84.4837 358.938 85.3125 358.938C86.1413 358.938 86.9362 359.267 87.5222 359.853C88.1083 360.439 88.4375 361.234 88.4375 362.062V362.899" stroke="white" stroke-miterlimit="10"/>
<path d="M75.9375 375.812C75.9375 375.149 76.2009 374.514 76.6697 374.045C77.1386 373.576 77.7745 373.312 78.4375 373.312H79.3494" stroke="white" stroke-miterlimit="10"/>
<path d="M75.9375 363.312C75.9375 363.976 76.2009 364.611 76.6697 365.08C77.1386 365.549 77.7745 365.812 78.4375 365.812H79.5831" stroke="white" stroke-miterlimit="10"/>
<path d="M75.9375 369.562H79.0625" stroke="white" stroke-miterlimit="10" stroke-linecap="square"/>
<path d="M94.6892 375.812C94.6892 375.149 94.4258 374.514 93.957 374.045C93.4881 373.576 92.8523 373.312 92.1892 373.312H91.2773" stroke="white" stroke-miterlimit="10"/>
<path d="M94.6886 363.312C94.6886 363.976 94.4252 364.611 93.9564 365.08C93.4875 365.549 92.8516 365.812 92.1886 365.812H91.043" stroke="white" stroke-miterlimit="10"/>
<path d="M94.6875 369.562H91.5625" stroke="white" stroke-miterlimit="10" stroke-linecap="square"/>
<path d="M91.5625 368.312C91.5625 364.861 88.7643 362.062 85.3125 362.062C81.8607 362.062 79.0625 364.861 79.0625 368.312V371.438C79.0625 374.889 81.8607 377.688 85.3125 377.688C88.7643 377.688 91.5625 374.889 91.5625 371.438V368.312Z" stroke="white" stroke-miterlimit="10" stroke-linecap="square"/>
</g>
</g>
<g filter="url(#filter4_d_4037_1308)">
<rect x="187" y="436" width="80" height="80" rx="16" fill="#1AC3DA"/>
<path d="M231.5 461.5V469.5H239.5" stroke="white" stroke-miterlimit="10"/>
<path d="M239.5 473.5V469.5L231.5 461.5H215.5V473.5" stroke="white" stroke-miterlimit="10" stroke-linecap="square"/>
<path d="M215.5 487.5V491.5H239.5V487.5" stroke="white" stroke-miterlimit="10" stroke-linecap="square"/>
<path d="M224.1 479.6C224.1 480.2 223.9 480.7 223.5 481.1C223.1 481.5 222.6 481.6 221.9 481.6H221.5V483.5H220V477.8H222C222.7 477.8 223.3 478 223.6 478.3C223.9 478.6 224.1 479 224.1 479.6ZM221.5 480.3H221.8C222 480.3 222.2 480.2 222.4 480.1C222.6 480 222.6 479.8 222.6 479.6C222.6 479.2 222.4 479 222 479H221.5V480.3Z" fill="white"/>
<path d="M229.902 483.5H228.302V481.2H226.502V483.5H224.902V477.8H226.502V479.9H228.302V477.8H229.902V483.5Z" fill="white"/>
<path d="M235.299 479.6C235.299 480.2 235.099 480.7 234.699 481.1C234.299 481.5 233.799 481.6 233.099 481.6H232.699V483.5H231.199V477.8H233.199C233.899 477.8 234.499 478 234.799 478.3C235.099 478.6 235.299 479 235.299 479.6ZM232.699 480.3H232.999C233.199 480.3 233.399 480.2 233.599 480.1C233.799 480 233.799 479.8 233.799 479.6C233.799 479.2 233.599 479 233.199 479H232.799V480.3H232.699Z" fill="white"/>
<path d="M242.5 473.5H212.5V487.5H242.5V473.5Z" stroke="white" stroke-miterlimit="10" stroke-linecap="square"/>
</g>
</g>
<defs>
<filter id="filter0_d_4037_1308" x="112" y="-7" width="534" height="499" filterUnits="userSpaceOnUse" color-interpolation-filters="sRGB">
<feFlood flood-opacity="0" result="BackgroundImageFix"/>
<feColorMatrix in="SourceAlpha" type="matrix" values="0 0 0 0 0 0 0 0 0 0 0 0 0 0 0 0 0 0 127 0" result="hardAlpha"/>
<feMorphology radius="8" operator="erode" in="SourceAlpha" result="effect1_dropShadow_4037_1308"/>
<feOffset dy="24"/>
<feGaussianBlur stdDeviation="50"/>
<feColorMatrix type="matrix" values="0 0 0 0 0 0 0 0 0 0 0 0 0 0 0 0 0 0 0.1 0"/>
<feBlend mode="normal" in2="BackgroundImageFix" result="effect1_dropShadow_4037_1308"/>
<feBlend mode="normal" in="SourceGraphic" in2="effect1_dropShadow_4037_1308" result="shape"/>
</filter>
<filter id="filter1_d_4037_1308" x="311" y="270.005" width="251" height="272.995" filterUnits="userSpaceOnUse" color-interpolation-filters="sRGB">
<feFlood flood-opacity="0" result="BackgroundImageFix"/>
<feColorMatrix in="SourceAlpha" type="matrix" values="0 0 0 0 0 0 0 0 0 0 0 0 0 0 0 0 0 0 127 0" result="hardAlpha"/>
<feOffset dy="30"/>
<feGaussianBlur stdDeviation="30"/>
<feColorMatrix type="matrix" values="0 0 0 0 0 0 0 0 0 0 0 0 0 0 0 0 0 0 0.12 0"/>
<feBlend mode="normal" in2="BackgroundImageFix" result="effect1_dropShadow_4037_1308"/>
<feBlend mode="normal" in="SourceGraphic" in2="effect1_dropShadow_4037_1308" result="shape"/>
</filter>
<filter id="filter2_d_4037_1308" x="385" y="100" width="264" height="264" filterUnits="userSpaceOnUse" color-interpolation-filters="sRGB">
<feFlood flood-opacity="0" result="BackgroundImageFix"/>
<feColorMatrix in="SourceAlpha" type="matrix" values="0 0 0 0 0 0 0 0 0 0 0 0 0 0 0 0 0 0 127 0" result="hardAlpha"/>
<feOffset dx="19" dy="64"/>
<feGaussianBlur stdDeviation="50"/>
<feColorMatrix type="matrix" values="0 0 0 0 0.344375 0 0 0 0 0.348202 0 0 0 0 0.3625 0 0 0 0.2 0"/>
<feBlend mode="normal" in2="BackgroundImageFix" result="effect1_dropShadow_4037_1308"/>
<feBlend mode="normal" in="SourceGraphic" in2="effect1_dropShadow_4037_1308" result="shape"/>
</filter>
<filter id="filter3_d_4037_1308" x="-31" y="276" width="232" height="232" filterUnits="userSpaceOnUse" color-interpolation-filters="sRGB">
<feFlood flood-opacity="0" result="BackgroundImageFix"/>
<feColorMatrix in="SourceAlpha" type="matrix" values="0 0 0 0 0 0 0 0 0 0 0 0 0 0 0 0 0 0 127 0" result="hardAlpha"/>
<feMorphology radius="8" operator="erode" in="SourceAlpha" result="effect1_dropShadow_4037_1308"/>
<feOffset dy="24"/>
<feGaussianBlur stdDeviation="50"/>
<feColorMatrix type="matrix" values="0 0 0 0 0 0 0 0 0 0 0 0 0 0 0 0 0 0 0.1 0"/>
<feBlend mode="normal" in2="BackgroundImageFix" result="effect1_dropShadow_4037_1308"/>
<feBlend mode="normal" in="SourceGraphic" in2="effect1_dropShadow_4037_1308" result="shape"/>
</filter>
<filter id="filter4_d_4037_1308" x="95" y="368" width="264" height="264" filterUnits="userSpaceOnUse" color-interpolation-filters="sRGB">
<feFlood flood-opacity="0" result="BackgroundImageFix"/>
<feColorMatrix in="SourceAlpha" type="matrix" values="0 0 0 0 0 0 0 0 0 0 0 0 0 0 0 0 0 0 127 0" result="hardAlpha"/>
<feMorphology radius="8" operator="erode" in="SourceAlpha" result="effect1_dropShadow_4037_1308"/>
<feOffset dy="24"/>
<feGaussianBlur stdDeviation="50"/>
<feColorMatrix type="matrix" values="0 0 0 0 0 0 0 0 0 0 0 0 0 0 0 0 0 0 0.1 0"/>
<feBlend mode="normal" in2="BackgroundImageFix" result="effect1_dropShadow_4037_1308"/>
<feBlend mode="normal" in="SourceGraphic" in2="effect1_dropShadow_4037_1308" result="shape"/>
</filter>
<linearGradient id="paint0_linear_4037_1308" x1="142" y1="61" x2="378.626" y2="61.0032" gradientUnits="userSpaceOnUse">
<stop stop-color="#DBD6D8" stop-opacity="0.43"/>
<stop offset="1" stop-color="#DBD6D8" stop-opacity="0"/>
</linearGradient>
<linearGradient id="paint1_linear_4037_1308" x1="692.867" y1="320.081" x2="183.656" y2="317.798" gradientUnits="userSpaceOnUse">
<stop stop-color="white" stop-opacity="0"/>
<stop offset="1" stop-color="#AEB0C0" stop-opacity="0.58"/>
</linearGradient>
<linearGradient id="paint2_linear_4037_1308" x1="907.968" y1="408.128" x2="271.363" y2="408" gradientUnits="userSpaceOnUse">
<stop stop-color="#DBD6D8"/>
<stop offset="1" stop-color="#DBD6D8" stop-opacity="0"/>
</linearGradient>
<linearGradient id="paint3_linear_4037_1308" x1="525.813" y1="188" x2="630.276" y2="188.001" gradientUnits="userSpaceOnUse">
<stop stop-color="#DBD6D8" stop-opacity="0.43"/>
<stop offset="1" stop-color="#DBD6D8" stop-opacity="0"/>
</linearGradient>
<linearGradient id="paint4_linear_4037_1308" x1="462.351" y1="408.945" x2="555.377" y2="408.595" gradientUnits="userSpaceOnUse">
<stop stop-color="white"/>
<stop offset="1" stop-color="white"/>
</linearGradient>
<radialGradient id="paint5_radial_4037_1308" cx="0" cy="0" r="1" gradientUnits="userSpaceOnUse" gradientTransform="translate(289.868 319.317) rotate(-32.9906) scale(207.337 388.807)">
<stop stop-color="#1F2742"/>
<stop offset="1" stop-color="#2F395A"/>
</radialGradient>
<linearGradient id="paint6_linear_4037_1308" x1="462.669" y1="386.297" x2="345.604" y2="276.03" gradientUnits="userSpaceOnUse">
<stop stop-color="#1CC5DC"/>
<stop offset="1" stop-color="white"/>
</linearGradient>
<clipPath id="clip0_4037_1308">
<rect width="691" height="560" fill="white"/>
</clipPath>
<clipPath id="clip1_4037_1308">
<rect x="104" y="21" width="550" height="515" rx="8" fill="white"/>
</clipPath>
<clipPath id="clip2_4037_1308">
<rect width="29" height="7" fill="white" transform="translate(212.996 68)"/>
</clipPath>
<clipPath id="clip3_4037_1308">
<rect x="485.199" y="155.2" width="25.6" height="25.6" fill="white"/>
</clipPath>
<clipPath id="clip4_4037_1308">
<rect width="20" height="20" fill="white" transform="translate(75 358)"/>
</clipPath>
</defs>
</svg>
