<svg width="776" height="647" viewBox="0 0 776 647" fill="none" xmlns="http://www.w3.org/2000/svg">
<rect opacity="0.5" width="299" height="122" rx="61" transform="matrix(-1 0 0 1 690 46)" fill="url(#paint0_linear_2654_2086)"/>
<rect x="137" y="255" width="132" height="86" rx="43" fill="url(#paint1_linear_2654_2086)"/>
<g clip-path="url(#clip0_2654_2086)">
<path d="M240 107C240 103.134 243.134 100 247 100H583C586.866 100 590 103.134 590 107V408C590 411.866 586.866 415 583 415H247C243.134 415 240 411.866 240 408V107Z" fill="white"/>
<path d="M240 107C240 103.134 243.134 100 247 100H583C586.866 100 590 103.134 590 107V312H240V107Z" fill="white"/>
<g filter="url(#filter0_d_2654_2086)">
<rect x="240" y="100" width="350" height="315" rx="8" fill="url(#paint2_radial_2654_2086)"/>
</g>
<path d="M240 120H590V403C590 409.627 584.627 415 578 415H252C245.373 415 240 409.627 240 403V120Z" fill="white"/>
<path d="M278 160C278 156.686 280.686 154 284 154H545C548.314 154 551 156.686 551 160V312H278V160Z" fill="#F3F3F3"/>
<path d="M390.935 252.272H435.059C435.412 252.282 435.761 252.192 436.066 252.014C436.371 251.835 436.62 251.574 436.784 251.261C436.948 250.948 437.021 250.595 436.995 250.243C436.968 249.89 436.843 249.552 436.634 249.268L430.547 241.003C430.388 240.784 430.184 240.601 429.948 240.467C429.712 240.333 429.45 240.252 429.18 240.228C428.909 240.205 428.637 240.24 428.382 240.332C428.126 240.423 427.894 240.568 427.699 240.758L421.445 246.71L406.927 226.999C406.747 226.753 406.509 226.554 406.234 226.42C405.96 226.286 405.657 226.221 405.352 226.229C405.046 226.238 404.748 226.321 404.481 226.47C404.215 226.62 403.989 226.832 403.823 227.088L389.305 249.357C389.117 249.645 389.012 249.979 389.001 250.323C388.99 250.666 389.072 251.006 389.24 251.306C389.408 251.606 389.655 251.855 389.953 252.025C390.252 252.195 390.591 252.28 390.935 252.272Z" fill="#CDCFD5"/>
<path d="M426.728 227.245C430.385 227.245 433.35 224.28 433.35 220.622C433.35 216.965 430.385 214 426.728 214C423.07 214 420.105 216.965 420.105 220.622C420.105 224.28 423.07 227.245 426.728 227.245Z" fill="#CDCFD5"/>
<g clip-path="url(#clip1_2654_2086)">
<circle cx="252.496" cy="110.5" r="3.5" fill="#FB4247"/>
<circle cx="263.496" cy="110.5" r="3.5" fill="white"/>
<circle cx="274.496" cy="110.5" r="3.5" fill="#1AC3DA"/>
</g>
<path d="M240 312H590V408C590 411.866 586.866 415 583 415H247C243.134 415 240 411.866 240 408V312Z" fill="white"/>
<line x1="240" y1="312.5" x2="589" y2="312.5" stroke="#F0F1F4"/>
<path d="M270.149 350.699L265.114 342.966H267.907L271.384 348.514H271.479L274.899 342.966H277.578L272.562 350.699V356H270.149V350.699ZM281.775 356.228C280.129 356.228 278.894 355.804 278.07 354.955C277.26 354.106 276.854 352.789 276.854 351.003C276.854 349.217 277.26 347.9 278.07 347.051C278.894 346.202 280.129 345.778 281.775 345.778C283.422 345.778 284.651 346.202 285.461 347.051C286.285 347.9 286.696 349.217 286.696 351.003C286.696 352.789 286.285 354.106 285.461 354.955C284.651 355.804 283.422 356.228 281.775 356.228ZM281.775 354.366C282.675 354.366 283.327 354.106 283.732 353.587C284.138 353.055 284.34 352.238 284.34 351.136V350.87C284.34 349.768 284.138 348.957 283.732 348.438C283.327 347.906 282.675 347.64 281.775 347.64C280.863 347.64 280.205 347.906 279.799 348.438C279.407 348.957 279.21 349.768 279.21 350.87V351.136C279.21 352.238 279.407 353.055 279.799 353.587C280.205 354.106 280.863 354.366 281.775 354.366ZM291.899 356.228C289.745 356.228 288.669 355.069 288.669 352.751V346.006H290.949V352.352C290.949 353.036 291.101 353.524 291.405 353.815C291.721 354.106 292.184 354.252 292.792 354.252C293.425 354.252 293.957 354.024 294.388 353.568C294.818 353.112 295.034 352.529 295.034 351.82V346.006H297.314V356H295.433L295.243 354.67H295.11C294.742 355.164 294.286 355.55 293.742 355.829C293.21 356.095 292.595 356.228 291.899 356.228ZM299.97 346.006H301.851L302.06 347.583H302.193C302.649 346.38 303.396 345.778 304.435 345.778C304.789 345.778 305.106 345.835 305.385 345.949V348.096H304.663C303.054 348.096 302.25 348.995 302.25 350.794V356H299.97V346.006ZM316.071 356.228C314.69 356.228 313.62 355.943 312.86 355.373C312.113 354.803 311.739 354.062 311.739 353.15C311.739 353.036 311.739 352.96 311.739 352.922C311.752 352.884 311.758 352.859 311.758 352.846H313.981V352.998C313.994 353.492 314.203 353.859 314.608 354.1C315.026 354.328 315.545 354.442 316.166 354.442C316.723 354.442 317.198 354.353 317.591 354.176C317.984 353.986 318.18 353.707 318.18 353.34C318.18 353.049 318.072 352.814 317.857 352.637C317.642 352.447 317.376 352.301 317.059 352.2C316.742 352.086 316.293 351.959 315.71 351.82C314.925 351.63 314.279 351.44 313.772 351.25C313.278 351.06 312.854 350.762 312.499 350.357C312.144 349.952 311.967 349.42 311.967 348.761C311.967 347.811 312.36 347.076 313.145 346.557C313.93 346.038 314.95 345.778 316.204 345.778C316.977 345.778 317.667 345.892 318.275 346.12C318.883 346.348 319.352 346.671 319.681 347.089C320.023 347.494 320.194 347.963 320.194 348.495L320.175 348.913H317.952V348.837C317.952 348.444 317.787 348.14 317.458 347.925C317.141 347.697 316.679 347.583 316.071 347.583C315.476 347.583 315.026 347.678 314.722 347.868C314.418 348.045 314.266 348.28 314.266 348.571C314.266 348.926 314.45 349.192 314.817 349.369C315.197 349.534 315.773 349.698 316.546 349.863C317.382 350.053 318.053 350.249 318.56 350.452C319.079 350.642 319.529 350.946 319.909 351.364C320.289 351.782 320.479 352.346 320.479 353.055C320.479 354.157 320.08 354.961 319.282 355.468C318.497 355.975 317.426 356.228 316.071 356.228ZM322.495 342.263H324.737V344.505H322.495V342.263ZM322.495 346.006H324.775V356H322.495V346.006ZM329.939 356.228C329.09 356.228 328.476 355.994 328.096 355.525C327.729 355.044 327.545 354.448 327.545 353.739V347.868H326.329V346.006H327.583L328.001 343.213H329.825V346.006H331.535V347.868H329.825V353.511C329.825 354.081 330.097 354.366 330.642 354.366H331.535V355.924C331.332 356 331.079 356.07 330.775 356.133C330.471 356.196 330.192 356.228 329.939 356.228ZM337.548 356.228C335.926 356.228 334.723 355.804 333.938 354.955C333.152 354.106 332.76 352.789 332.76 351.003C332.76 349.217 333.152 347.9 333.938 347.051C334.736 346.202 335.939 345.778 337.548 345.778C339.017 345.778 340.113 346.19 340.835 347.013C341.569 347.836 341.937 349.122 341.937 350.87V351.554H335.078C335.116 352.542 335.325 353.27 335.705 353.739C336.097 354.195 336.718 354.423 337.567 354.423C338.2 354.423 338.713 354.265 339.106 353.948C339.498 353.619 339.695 353.137 339.695 352.504H341.937C341.937 353.733 341.531 354.664 340.721 355.297C339.91 355.918 338.852 356.228 337.548 356.228ZM339.562 349.939C339.562 348.368 338.89 347.583 337.548 347.583C336.788 347.583 336.211 347.779 335.819 348.172C335.439 348.552 335.204 349.141 335.116 349.939H339.562Z" fill="black"/>
<path d="M266.06 368.688H267.332L268.22 371.964L268.592 373.548H268.64L268.976 371.964L269.756 368.688H271.16L271.976 371.976C272.048 372.232 272.164 372.756 272.324 373.548H272.384C272.552 372.804 272.672 372.28 272.744 371.976L273.608 368.688H274.808L272.912 375H271.592L270.74 371.46L270.452 370.14H270.404C270.292 370.748 270.2 371.188 270.128 371.46L269.276 375H267.944L266.06 368.688ZM274.931 368.688H276.203L277.091 371.964L277.463 373.548H277.511L277.847 371.964L278.627 368.688H280.031L280.847 371.976C280.919 372.232 281.035 372.756 281.195 373.548H281.255C281.423 372.804 281.543 372.28 281.615 371.976L282.479 368.688H283.679L281.783 375H280.463L279.611 371.46L279.323 370.14H279.275C279.163 370.748 279.071 371.188 278.999 371.46L278.147 375H276.815L274.931 368.688ZM283.802 368.688H285.074L285.962 371.964L286.334 373.548H286.382L286.718 371.964L287.498 368.688H288.902L289.718 371.976C289.79 372.232 289.906 372.756 290.066 373.548H290.126C290.294 372.804 290.414 372.28 290.486 371.976L291.35 368.688H292.55L290.654 375H289.334L288.482 371.46L288.194 370.14H288.146C288.034 370.748 287.942 371.188 287.87 371.46L287.018 375H285.686L283.802 368.688ZM293.047 373.596H294.379V375H293.047V373.596ZM296.891 377.184C296.499 377.184 296.191 377.144 295.967 377.064V376.248H296.495C297.223 376.248 297.711 375.832 297.959 375L295.511 368.688H296.807L297.983 371.784C298.143 372.192 298.347 372.82 298.595 373.668H298.655C298.879 372.868 299.063 372.24 299.207 371.784L300.191 368.688H301.427L299.339 374.676C299.051 375.476 298.727 376.092 298.367 376.524C298.007 376.964 297.515 377.184 296.891 377.184ZM304.998 375.144C303.998 375.144 303.246 374.876 302.742 374.34C302.246 373.796 301.998 372.964 301.998 371.844C301.998 370.724 302.246 369.896 302.742 369.36C303.246 368.816 303.998 368.544 304.998 368.544C305.998 368.544 306.75 368.816 307.254 369.36C307.758 369.896 308.01 370.724 308.01 371.844C308.01 372.964 307.758 373.796 307.254 374.34C306.75 374.876 305.998 375.144 304.998 375.144ZM304.998 374.124C305.606 374.124 306.046 373.948 306.318 373.596C306.598 373.236 306.738 372.672 306.738 371.904V371.784C306.738 371.016 306.598 370.456 306.318 370.104C306.046 369.744 305.606 369.564 304.998 369.564C304.398 369.564 303.958 369.744 303.678 370.104C303.406 370.456 303.27 371.016 303.27 371.784V371.904C303.27 372.672 303.406 373.236 303.678 373.596C303.958 373.948 304.398 374.124 304.998 374.124ZM311.229 375.144C309.893 375.144 309.225 374.42 309.225 372.972V368.688H310.461V372.816C310.461 373.288 310.565 373.62 310.773 373.812C310.989 373.996 311.301 374.088 311.709 374.088C311.989 374.088 312.249 374.02 312.489 373.884C312.729 373.74 312.917 373.54 313.053 373.284C313.197 373.028 313.269 372.732 313.269 372.396V368.688H314.505V375H313.509L313.389 374.16H313.305C313.073 374.48 312.781 374.724 312.429 374.892C312.077 375.06 311.677 375.144 311.229 375.144ZM316.14 368.688H317.136L317.256 369.66H317.328C317.616 368.916 318.1 368.544 318.78 368.544C319.004 368.544 319.2 368.576 319.368 368.64V369.816H318.924C318.452 369.816 318.076 369.952 317.796 370.224C317.516 370.496 317.376 370.912 317.376 371.472V375H316.14V368.688ZM322.448 375.144C321.648 375.144 321.032 374.876 320.6 374.34C320.168 373.796 319.952 372.964 319.952 371.844C319.952 370.74 320.168 369.916 320.6 369.372C321.032 368.82 321.62 368.544 322.364 368.544C323.236 368.544 323.872 368.832 324.272 369.408H324.344V366.324H325.58V375H324.596L324.476 374.16H324.392C324.192 374.48 323.92 374.724 323.576 374.892C323.24 375.06 322.864 375.144 322.448 375.144ZM322.796 374.1C323.332 374.1 323.724 373.916 323.972 373.548C324.22 373.18 324.344 372.636 324.344 371.916V371.82C324.344 370.332 323.828 369.588 322.796 369.588C322.228 369.588 321.824 369.76 321.584 370.104C321.344 370.44 321.224 371.008 321.224 371.808V371.916C321.224 372.7 321.344 373.26 321.584 373.596C321.824 373.932 322.228 374.1 322.796 374.1ZM329.83 375.144C328.83 375.144 328.078 374.876 327.574 374.34C327.078 373.796 326.83 372.964 326.83 371.844C326.83 370.724 327.078 369.896 327.574 369.36C328.078 368.816 328.83 368.544 329.83 368.544C330.83 368.544 331.582 368.816 332.086 369.36C332.59 369.896 332.842 370.724 332.842 371.844C332.842 372.964 332.59 373.796 332.086 374.34C331.582 374.876 330.83 375.144 329.83 375.144ZM329.83 374.124C330.438 374.124 330.878 373.948 331.15 373.596C331.43 373.236 331.57 372.672 331.57 371.904V371.784C331.57 371.016 331.43 370.456 331.15 370.104C330.878 369.744 330.438 369.564 329.83 369.564C329.23 369.564 328.79 369.744 328.51 370.104C328.238 370.456 328.102 371.016 328.102 371.784V371.904C328.102 372.672 328.238 373.236 328.51 373.596C328.79 373.948 329.23 374.124 329.83 374.124ZM334.093 368.688H335.089L335.209 369.528H335.293C335.509 369.208 335.773 368.964 336.085 368.796C336.397 368.628 336.753 368.544 337.153 368.544C337.969 368.544 338.517 368.872 338.797 369.528H338.869C339.085 369.216 339.361 368.976 339.697 368.808C340.033 368.632 340.401 368.544 340.801 368.544C341.393 368.544 341.857 368.704 342.193 369.024C342.529 369.336 342.697 369.844 342.697 370.548V375H341.461V370.788C341.461 370.356 341.365 370.052 341.173 369.876C340.989 369.692 340.729 369.6 340.393 369.6C340.001 369.6 339.673 369.756 339.409 370.068C339.145 370.38 339.013 370.788 339.013 371.292V375H337.777V370.788C337.777 370.356 337.685 370.052 337.501 369.876C337.325 369.692 337.069 369.6 336.733 369.6C336.341 369.6 336.009 369.756 335.737 370.068C335.465 370.38 335.329 370.788 335.329 371.292V375H334.093V368.688ZM345.921 375.144C345.401 375.144 344.929 375.016 344.505 374.76C344.089 374.504 343.881 374.04 343.881 373.368C343.881 372.56 344.233 372 344.937 371.688C345.641 371.376 346.649 371.22 347.961 371.22V370.596C347.961 370.252 347.869 369.992 347.685 369.816C347.509 369.632 347.177 369.54 346.689 369.54C346.217 369.54 345.881 369.624 345.681 369.792C345.489 369.96 345.393 370.164 345.393 370.404V370.56H344.193C344.185 370.512 344.181 370.424 344.181 370.296C344.181 369.744 344.413 369.316 344.877 369.012C345.341 368.7 345.961 368.544 346.737 368.544C347.553 368.544 348.165 368.712 348.573 369.048C348.989 369.384 349.197 369.86 349.197 370.476V373.704C349.197 373.848 349.237 373.956 349.317 374.028C349.397 374.092 349.497 374.124 349.617 374.124H350.049V374.952C349.841 375.056 349.557 375.108 349.197 375.108C348.909 375.108 348.665 375.032 348.465 374.88C348.273 374.72 348.145 374.504 348.081 374.232H347.997C347.773 374.52 347.485 374.744 347.133 374.904C346.789 375.064 346.385 375.144 345.921 375.144ZM346.281 374.136C346.753 374.136 347.149 373.996 347.469 373.716C347.797 373.428 347.961 373.036 347.961 372.54V372.156C347.049 372.156 346.353 372.236 345.873 372.396C345.393 372.548 345.153 372.84 345.153 373.272C345.153 373.568 345.245 373.788 345.429 373.932C345.621 374.068 345.905 374.136 346.281 374.136ZM350.957 366.324H352.181V367.584H350.957V366.324ZM350.957 368.688H352.193V375H350.957V368.688ZM353.828 368.688H354.824L354.944 369.528H355.028C355.252 369.208 355.54 368.964 355.892 368.796C356.252 368.628 356.656 368.544 357.104 368.544C358.44 368.544 359.108 369.268 359.108 370.716V375H357.872V370.872C357.872 370.4 357.764 370.072 357.548 369.888C357.34 369.696 357.032 369.6 356.624 369.6C356.344 369.6 356.084 369.672 355.844 369.816C355.604 369.952 355.412 370.148 355.268 370.404C355.132 370.66 355.064 370.956 355.064 371.292V375H353.828V368.688ZM360.911 373.596H362.243V375H360.911V373.596ZM366.518 375.144C365.542 375.144 364.822 374.876 364.358 374.34C363.894 373.804 363.662 372.972 363.662 371.844C363.662 370.716 363.894 369.884 364.358 369.348C364.83 368.812 365.55 368.544 366.518 368.544C367.374 368.544 368.014 368.756 368.438 369.18C368.87 369.596 369.086 370.216 369.086 371.04H367.838C367.838 370.528 367.734 370.152 367.526 369.912C367.326 369.672 366.986 369.552 366.506 369.552C365.962 369.552 365.562 369.732 365.306 370.092C365.058 370.452 364.934 371.028 364.934 371.82V371.904C364.934 372.688 365.058 373.256 365.306 373.608C365.562 373.96 365.97 374.136 366.53 374.136C367.002 374.136 367.346 374.012 367.562 373.764C367.786 373.508 367.898 373.136 367.898 372.648H369.086C369.086 373.4 368.87 374.004 368.438 374.46C368.006 374.916 367.366 375.144 366.518 375.144ZM372.862 375.144C371.862 375.144 371.11 374.876 370.606 374.34C370.11 373.796 369.862 372.964 369.862 371.844C369.862 370.724 370.11 369.896 370.606 369.36C371.11 368.816 371.862 368.544 372.862 368.544C373.862 368.544 374.614 368.816 375.118 369.36C375.622 369.896 375.874 370.724 375.874 371.844C375.874 372.964 375.622 373.796 375.118 374.34C374.614 374.876 373.862 375.144 372.862 375.144ZM372.862 374.124C373.47 374.124 373.91 373.948 374.182 373.596C374.462 373.236 374.602 372.672 374.602 371.904V371.784C374.602 371.016 374.462 370.456 374.182 370.104C373.91 369.744 373.47 369.564 372.862 369.564C372.262 369.564 371.822 369.744 371.542 370.104C371.27 370.456 371.134 371.016 371.134 371.784V371.904C371.134 372.672 371.27 373.236 371.542 373.596C371.822 373.948 372.262 374.124 372.862 374.124ZM377.125 368.688H378.121L378.241 369.528H378.325C378.541 369.208 378.805 368.964 379.117 368.796C379.429 368.628 379.785 368.544 380.185 368.544C381.001 368.544 381.549 368.872 381.829 369.528H381.901C382.117 369.216 382.393 368.976 382.729 368.808C383.065 368.632 383.433 368.544 383.833 368.544C384.425 368.544 384.889 368.704 385.225 369.024C385.561 369.336 385.729 369.844 385.729 370.548V375H384.493V370.788C384.493 370.356 384.397 370.052 384.205 369.876C384.021 369.692 383.761 369.6 383.425 369.6C383.033 369.6 382.705 369.756 382.441 370.068C382.177 370.38 382.045 370.788 382.045 371.292V375H380.809V370.788C380.809 370.356 380.717 370.052 380.533 369.876C380.357 369.692 380.101 369.6 379.765 369.6C379.373 369.6 379.041 369.756 378.769 370.068C378.497 370.38 378.361 370.788 378.361 371.292V375H377.125V368.688Z" fill="#AFAFC0"/>
</g>
<ellipse opacity="0.12" cx="414" cy="443.5" rx="124" ry="124.5" fill="#1AC3DA"/>
<circle opacity="0.08" cx="415" cy="443" r="204" fill="#1AC3DA"/>
<g filter="url(#filter1_d_2654_2086)">
<path d="M358 400.11V443.503C358 489.74 411.571 509.894 413.871 510.714C414.924 511.097 416.076 511.097 417.129 510.714C419.429 509.894 473 489.74 473 443.503V400.11C473 399.119 472.696 398.152 472.13 397.341C471.564 396.531 470.764 395.915 469.837 395.578L417.129 376.292C416.076 375.909 414.924 375.909 413.871 376.292L361.162 395.578C360.236 395.915 359.436 396.531 358.87 397.341C358.304 398.152 358 399.119 358 400.11Z" fill="url(#paint3_linear_2654_2086)"/>
</g>
<path d="M408.265 459.732L394.309 445.669L399.542 440.396L408.265 449.185L429.201 428.091L434.435 433.365L408.265 459.732Z" fill="white"/>
<g filter="url(#filter2_d_2654_2086)">
<rect x="515" y="68" width="40" height="40" rx="12" fill="#1AC3DA"/>
<path d="M537.5 81.5L532.5 94.5" stroke="white" stroke-linecap="round" stroke-linejoin="round"/>
<path d="M530.5 84.5L527.5 87.5L530.5 90.5" stroke="white" stroke-linecap="round" stroke-linejoin="round"/>
<path d="M539.5 84.5L542.5 87.5L539.5 90.5" stroke="white" stroke-linecap="round" stroke-linejoin="round"/>
</g>
<g filter="url(#filter3_d_2654_2086)">
<rect x="604" y="288" width="80" height="80" rx="20" fill="#1AC3DA"/>
<path d="M648.5 313.5V321.5H656.5" stroke="white" stroke-miterlimit="10"/>
<path d="M656.5 325.5V321.5L648.5 313.5H632.5V325.5" stroke="white" stroke-miterlimit="10" stroke-linecap="square"/>
<path d="M632.5 339.5V343.5H656.5V339.5" stroke="white" stroke-miterlimit="10" stroke-linecap="square"/>
<path d="M640.402 331C640.002 331 639.702 331.2 639.502 331.5C639.302 331.8 639.202 332.2 639.202 332.7C639.202 333.8 639.602 334.3 640.502 334.3C640.802 334.3 641.002 334.3 641.202 334.2C641.402 334.1 641.702 334 641.902 333.9V335.2C641.402 335.4 640.902 335.5 640.302 335.5C639.402 335.5 638.802 335.3 638.302 334.7C637.802 334.1 637.602 333.5 637.602 332.5C637.602 331.9 637.702 331.4 637.902 330.9C638.102 330.4 638.402 330.1 638.902 329.9C639.402 329.7 639.802 329.5 640.402 329.5C641.002 329.5 641.602 329.6 642.202 329.9L641.702 331.1C641.502 331 641.302 330.9 641.102 330.9C640.902 330.9 640.702 331 640.402 331Z" fill="white"/>
<path d="M646.799 333.8C646.799 334.2 646.699 334.5 646.499 334.7C646.299 334.9 646.099 335.2 645.699 335.3C645.299 335.4 644.999 335.5 644.499 335.5C644.099 335.5 643.799 335.5 643.499 335.4C643.199 335.3 642.999 335.3 642.699 335.1V333.7C642.999 333.9 643.299 334 643.599 334.1C643.899 334.2 644.199 334.2 644.499 334.2C644.699 334.2 644.899 334.2 644.999 334.1C645.099 334 645.199 333.9 645.199 333.8C645.199 333.7 645.199 333.7 645.099 333.6C644.999 333.5 644.999 333.5 644.899 333.4C644.799 333.3 644.599 333.2 644.099 333C643.699 332.8 643.399 332.7 643.299 332.5C643.199 332.3 642.999 332.2 642.899 332C642.799 331.8 642.799 331.6 642.799 331.3C642.799 330.8 642.999 330.4 643.399 330.1C643.799 329.8 644.299 329.7 644.999 329.7C645.599 329.7 646.199 329.8 646.799 330.1L646.299 331.3C645.799 331.1 645.299 330.9 644.899 330.9C644.699 330.9 644.599 330.9 644.499 331C644.399 331.1 644.399 331.2 644.399 331.3C644.399 331.4 644.499 331.5 644.599 331.6C644.699 331.7 644.999 331.8 645.499 332.1C645.999 332.3 646.299 332.6 646.499 332.8C646.699 333 646.799 333.4 646.799 333.8Z" fill="white"/>
<path d="M651.401 333.8C651.401 334.2 651.301 334.5 651.101 334.7C650.901 334.9 650.701 335.2 650.301 335.3C649.901 335.4 649.601 335.5 649.101 335.5C648.701 335.5 648.401 335.5 648.101 335.4C647.801 335.3 647.601 335.3 647.301 335.1V333.7C647.601 333.9 647.901 334 648.201 334.1C648.501 334.2 648.801 334.2 649.101 334.2C649.301 334.2 649.501 334.2 649.601 334.1C649.701 334 649.801 333.9 649.801 333.8C649.801 333.7 649.801 333.7 649.701 333.6C649.601 333.5 649.601 333.5 649.501 333.4C649.401 333.3 649.201 333.2 648.701 333C648.301 332.8 648.001 332.7 647.901 332.5C647.801 332.3 647.601 332.2 647.501 332C647.401 331.8 647.501 331.7 647.501 331.4C647.501 330.9 647.701 330.5 648.101 330.2C648.501 329.9 649.001 329.8 649.701 329.8C650.301 329.8 650.901 329.9 651.501 330.2L651.001 331.4C650.501 331.2 650.001 331 649.601 331C649.401 331 649.301 331 649.201 331.1C649.101 331.2 649.101 331.3 649.101 331.4C649.101 331.5 649.201 331.6 649.301 331.7C649.401 331.8 649.701 331.9 650.201 332.2C650.701 332.4 651.001 332.7 651.201 332.9C651.401 333.1 651.401 333.4 651.401 333.8Z" fill="white"/>
<path d="M659.5 325.5H629.5V339.5H659.5V325.5Z" stroke="white" stroke-miterlimit="10" stroke-linecap="square"/>
</g>
<g filter="url(#filter4_d_2654_2086)">
<rect x="92" y="382" width="48" height="48" rx="12" fill="#1AC3DA"/>
<path d="M112.69 405.74C113.163 405.266 113.805 405 114.475 405C115.145 405 115.787 405.266 116.26 405.74C116.733 406.213 116.999 406.855 116.999 407.525C116.999 408.194 116.733 408.836 116.26 409.31C115.274 410.3 111.5 410.5 111.5 410.5C111.5 410.5 111.7 406.726 112.69 405.74Z" stroke="white" stroke-linecap="round" stroke-linejoin="round"/>
<path d="M117.5 398.5H109.5C109.235 398.5 108.98 398.605 108.793 398.793C108.605 398.98 108.5 399.235 108.5 399.5V412.5C108.5 412.765 108.605 413.02 108.793 413.207C108.98 413.395 109.235 413.5 109.5 413.5H122.5C122.765 413.5 123.02 413.395 123.207 413.207C123.395 413.02 123.5 412.765 123.5 412.5V404.5" stroke="white" stroke-linecap="round" stroke-linejoin="round"/>
<path d="M118.643 405.5L123.056 401.086C123.33 400.8 123.48 400.418 123.476 400.022C123.472 399.626 123.312 399.248 123.032 398.968C122.752 398.688 122.374 398.528 121.978 398.524C121.582 398.52 121.2 398.67 120.914 398.944L116.5 403.357" stroke="white" stroke-linecap="round" stroke-linejoin="round"/>
</g>
<g filter="url(#filter5_d_2654_2086)">
<rect x="199" y="204" width="80" height="80" rx="20" fill="#1AC3DA"/>
<path d="M243.5 229.5V237.5H251.5" stroke="white" stroke-miterlimit="10"/>
<path d="M251.5 241.5V237.5L243.5 229.5H227.5V241.5" stroke="white" stroke-miterlimit="10" stroke-linecap="square"/>
<path d="M227.5 255.5V259.5H251.5V255.5" stroke="white" stroke-miterlimit="10" stroke-linecap="square"/>
<path d="M233.4 251.5H231.8V249.2H230V251.5H228.5V245.8H230.1V247.9H231.9V245.8H233.5V251.5H233.4Z" fill="white"/>
<path d="M237.099 251.5H235.599V247.1H234.199V245.8H238.499V247.1H237.099V251.5Z" fill="white"/>
<path d="M241.801 251.5L240.601 247.4C240.701 248.1 240.701 248.6 240.701 249V251.5H239.301V245.8H241.401L242.601 249.9L243.801 245.8H245.901V251.5H244.501V249C244.501 248.9 244.501 248.7 244.501 248.6C244.501 248.5 244.501 248.1 244.601 247.4L243.301 251.5H241.801Z" fill="white"/>
<path d="M247.102 251.5V245.8H248.602V250.3H250.802V251.5H247.102Z" fill="white"/>
<path d="M254.5 241.5H224.5V255.5H254.5V241.5Z" stroke="white" stroke-miterlimit="10" stroke-linecap="square"/>
</g>
<defs>
<filter id="filter0_d_2654_2086" x="148" y="32" width="534" height="499" filterUnits="userSpaceOnUse" color-interpolation-filters="sRGB">
<feFlood flood-opacity="0" result="BackgroundImageFix"/>
<feColorMatrix in="SourceAlpha" type="matrix" values="0 0 0 0 0 0 0 0 0 0 0 0 0 0 0 0 0 0 127 0" result="hardAlpha"/>
<feMorphology radius="8" operator="erode" in="SourceAlpha" result="effect1_dropShadow_2654_2086"/>
<feOffset dy="24"/>
<feGaussianBlur stdDeviation="50"/>
<feColorMatrix type="matrix" values="0 0 0 0 0 0 0 0 0 0 0 0 0 0 0 0 0 0 0.1 0"/>
<feBlend mode="normal" in2="BackgroundImageFix" result="effect1_dropShadow_2654_2086"/>
<feBlend mode="normal" in="SourceGraphic" in2="effect1_dropShadow_2654_2086" result="shape"/>
</filter>
<filter id="filter1_d_2654_2086" x="298" y="346.005" width="235" height="254.996" filterUnits="userSpaceOnUse" color-interpolation-filters="sRGB">
<feFlood flood-opacity="0" result="BackgroundImageFix"/>
<feColorMatrix in="SourceAlpha" type="matrix" values="0 0 0 0 0 0 0 0 0 0 0 0 0 0 0 0 0 0 127 0" result="hardAlpha"/>
<feOffset dy="30"/>
<feGaussianBlur stdDeviation="30"/>
<feColorMatrix type="matrix" values="0 0 0 0 0 0 0 0 0 0 0 0 0 0 0 0 0 0 0.12 0"/>
<feBlend mode="normal" in2="BackgroundImageFix" result="effect1_dropShadow_2654_2086"/>
<feBlend mode="normal" in="SourceGraphic" in2="effect1_dropShadow_2654_2086" result="shape"/>
</filter>
<filter id="filter2_d_2654_2086" x="423" y="0" width="224" height="224" filterUnits="userSpaceOnUse" color-interpolation-filters="sRGB">
<feFlood flood-opacity="0" result="BackgroundImageFix"/>
<feColorMatrix in="SourceAlpha" type="matrix" values="0 0 0 0 0 0 0 0 0 0 0 0 0 0 0 0 0 0 127 0" result="hardAlpha"/>
<feMorphology radius="8" operator="erode" in="SourceAlpha" result="effect1_dropShadow_2654_2086"/>
<feOffset dy="24"/>
<feGaussianBlur stdDeviation="50"/>
<feColorMatrix type="matrix" values="0 0 0 0 0 0 0 0 0 0 0 0 0 0 0 0 0 0 0.1 0"/>
<feBlend mode="normal" in2="BackgroundImageFix" result="effect1_dropShadow_2654_2086"/>
<feBlend mode="normal" in="SourceGraphic" in2="effect1_dropShadow_2654_2086" result="shape"/>
</filter>
<filter id="filter3_d_2654_2086" x="512" y="220" width="264" height="264" filterUnits="userSpaceOnUse" color-interpolation-filters="sRGB">
<feFlood flood-opacity="0" result="BackgroundImageFix"/>
<feColorMatrix in="SourceAlpha" type="matrix" values="0 0 0 0 0 0 0 0 0 0 0 0 0 0 0 0 0 0 127 0" result="hardAlpha"/>
<feMorphology radius="8" operator="erode" in="SourceAlpha" result="effect1_dropShadow_2654_2086"/>
<feOffset dy="24"/>
<feGaussianBlur stdDeviation="50"/>
<feColorMatrix type="matrix" values="0 0 0 0 0 0 0 0 0 0 0 0 0 0 0 0 0 0 0.1 0"/>
<feBlend mode="normal" in2="BackgroundImageFix" result="effect1_dropShadow_2654_2086"/>
<feBlend mode="normal" in="SourceGraphic" in2="effect1_dropShadow_2654_2086" result="shape"/>
</filter>
<filter id="filter4_d_2654_2086" x="0" y="314" width="232" height="232" filterUnits="userSpaceOnUse" color-interpolation-filters="sRGB">
<feFlood flood-opacity="0" result="BackgroundImageFix"/>
<feColorMatrix in="SourceAlpha" type="matrix" values="0 0 0 0 0 0 0 0 0 0 0 0 0 0 0 0 0 0 127 0" result="hardAlpha"/>
<feMorphology radius="8" operator="erode" in="SourceAlpha" result="effect1_dropShadow_2654_2086"/>
<feOffset dy="24"/>
<feGaussianBlur stdDeviation="50"/>
<feColorMatrix type="matrix" values="0 0 0 0 0 0 0 0 0 0 0 0 0 0 0 0 0 0 0.1 0"/>
<feBlend mode="normal" in2="BackgroundImageFix" result="effect1_dropShadow_2654_2086"/>
<feBlend mode="normal" in="SourceGraphic" in2="effect1_dropShadow_2654_2086" result="shape"/>
</filter>
<filter id="filter5_d_2654_2086" x="107" y="136" width="264" height="264" filterUnits="userSpaceOnUse" color-interpolation-filters="sRGB">
<feFlood flood-opacity="0" result="BackgroundImageFix"/>
<feColorMatrix in="SourceAlpha" type="matrix" values="0 0 0 0 0 0 0 0 0 0 0 0 0 0 0 0 0 0 127 0" result="hardAlpha"/>
<feMorphology radius="8" operator="erode" in="SourceAlpha" result="effect1_dropShadow_2654_2086"/>
<feOffset dy="24"/>
<feGaussianBlur stdDeviation="50"/>
<feColorMatrix type="matrix" values="0 0 0 0 0 0 0 0 0 0 0 0 0 0 0 0 0 0 0.1 0"/>
<feBlend mode="normal" in2="BackgroundImageFix" result="effect1_dropShadow_2654_2086"/>
<feBlend mode="normal" in="SourceGraphic" in2="effect1_dropShadow_2654_2086" result="shape"/>
</filter>
<linearGradient id="paint0_linear_2654_2086" x1="63" y1="61" x2="299.626" y2="61.0032" gradientUnits="userSpaceOnUse">
<stop stop-color="#DBD6D8" stop-opacity="0.43"/>
<stop offset="1" stop-color="#DBD6D8" stop-opacity="0"/>
</linearGradient>
<linearGradient id="paint1_linear_2654_2086" x1="164.813" y1="298" x2="269.276" y2="298.001" gradientUnits="userSpaceOnUse">
<stop stop-color="#DBD6D8" stop-opacity="0.43"/>
<stop offset="1" stop-color="#DBD6D8" stop-opacity="0"/>
</linearGradient>
<radialGradient id="paint2_radial_2654_2086" cx="0" cy="0" r="1" gradientUnits="userSpaceOnUse" gradientTransform="translate(325.868 358.317) rotate(-32.9906) scale(207.337 388.807)">
<stop stop-color="#1F2742"/>
<stop offset="1" stop-color="#2F395A"/>
</radialGradient>
<linearGradient id="paint3_linear_2654_2086" x1="438.473" y1="452.144" x2="335.213" y2="355.376" gradientUnits="userSpaceOnUse">
<stop stop-color="#1CC5DC"/>
<stop offset="1" stop-color="white"/>
</linearGradient>
<clipPath id="clip0_2654_2086">
<rect x="140" y="60" width="550" height="515" rx="8" fill="white"/>
</clipPath>
<clipPath id="clip1_2654_2086">
<rect width="29" height="7" fill="white" transform="translate(248.996 107)"/>
</clipPath>
</defs>
</svg>
