<svg width="776" height="646" viewBox="0 0 776 646" fill="none" xmlns="http://www.w3.org/2000/svg">
<rect opacity="0.5" width="299" height="122" rx="61" transform="matrix(-1 0 0 1 320 41)" fill="url(#paint0_linear_1011_1324)"/>
<g filter="url(#filter0_d_1011_1324)">
<rect x="183" y="141" width="350" height="288" rx="6" fill="url(#paint1_radial_1011_1324)"/>
</g>
<path d="M183 159H533V423C533 426.314 530.314 429 527 429H189C185.686 429 183 426.314 183 423V159Z" fill="white"/>
<g filter="url(#filter1_d_1011_1324)">
<rect x="426" y="195" width="196" height="56" rx="6" fill="#F3F3F3"/>
</g>
<g opacity="0.2" clip-path="url(#clip0_1011_1324)">
<path d="M523.375 229.875C527.517 229.875 530.875 226.517 530.875 222.375C530.875 218.233 527.517 214.875 523.375 214.875C519.233 214.875 515.875 218.233 515.875 222.375C515.875 226.517 519.233 229.875 523.375 229.875Z" stroke="#303A5B" stroke-width="3" stroke-miterlimit="10" stroke-linecap="round" stroke-linejoin="round"/>
<path d="M533.375 232.375L528.678 227.678" stroke="#303A5B" stroke-width="3" stroke-miterlimit="10" stroke-linecap="round" stroke-linejoin="round"/>
</g>
<g filter="url(#filter2_d_1011_1324)">
<rect x="426" y="263" width="196" height="194" rx="6" fill="#F3F3F3"/>
</g>
<path d="M508.664 344.56H515.104L525.784 372H520.264L518.024 366.04H505.464L503.264 372H497.984L508.664 344.56ZM516.384 361.72L513.584 354.2C513.158 353.133 512.704 351.773 512.224 350.12C512.144 349.88 512.064 349.667 511.984 349.48C511.931 349.267 511.878 349.093 511.824 348.96H511.624L511.224 350.2L509.864 354.2L507.064 361.72H516.384ZM533.869 372.48C532.163 372.48 530.616 372.067 529.229 371.24C527.869 370.387 527.189 368.827 527.189 366.56C527.189 363.867 528.336 361.973 530.629 360.88C532.923 359.787 536.176 359.24 540.389 359.24V357.48C540.389 356.467 540.123 355.68 539.589 355.12C539.083 354.56 538.149 354.28 536.789 354.28C535.376 354.28 534.376 354.507 533.789 354.96C533.203 355.413 532.909 355.973 532.909 356.64V357.2H528.269C528.243 357.04 528.229 356.747 528.229 356.32C528.229 354.507 529.003 353.08 530.549 352.04C532.123 351 534.203 350.48 536.789 350.48C539.589 350.48 541.683 351.053 543.069 352.2C544.483 353.347 545.189 354.987 545.189 357.12V367.16C545.189 367.64 545.323 368 545.589 368.24C545.856 368.453 546.189 368.56 546.589 368.56H547.869V371.84C547.016 372.24 546.016 372.44 544.869 372.44C543.829 372.44 542.963 372.187 542.269 371.68C541.576 371.173 541.109 370.48 540.869 369.6H540.589C539.016 371.52 536.776 372.48 533.869 372.48ZM535.309 368.64C536.883 368.64 538.123 368.187 539.029 367.28C539.936 366.373 540.389 365.147 540.389 363.6V362.64C537.803 362.64 535.776 362.893 534.309 363.4C532.843 363.88 532.109 364.773 532.109 366.08C532.109 367.787 533.176 368.64 535.309 368.64Z" fill="#303A5B" fill-opacity="0.2"/>
<g filter="url(#filter3_d_1011_1324)">
<rect x="220" y="400" width="196" height="194" rx="6" fill="#F3F3F3"/>
</g>
<path d="M291.907 509L302.587 481.56H309.147L319.867 509H314.227L312.027 503.16H299.467L297.267 509H291.907ZM301.107 498.76H310.347L307.587 491.32C307.48 491.053 307.347 490.72 307.187 490.32C307.054 489.893 306.907 489.44 306.747 488.96C306.587 488.453 306.427 487.947 306.267 487.44C306.107 486.933 305.96 486.48 305.827 486.08H305.627C305.467 486.613 305.267 487.227 305.027 487.92C304.814 488.613 304.6 489.267 304.387 489.88C304.174 490.493 304 490.973 303.867 491.32L301.107 498.76ZM328.066 509.48C327.48 509.48 326.8 509.4 326.026 509.24C325.28 509.107 324.546 508.84 323.826 508.44C323.133 508.04 322.56 507.453 322.106 506.68C321.653 505.88 321.426 504.84 321.426 503.56C321.426 502.12 321.746 500.933 322.386 500C323.026 499.04 323.92 498.293 325.066 497.76C326.24 497.2 327.626 496.813 329.226 496.6C330.853 496.36 332.626 496.24 334.546 496.24V494.52C334.546 493.907 334.453 493.36 334.266 492.88C334.08 492.4 333.733 492.027 333.226 491.76C332.746 491.467 332.013 491.32 331.026 491.32C330.04 491.32 329.266 491.44 328.706 491.68C328.146 491.92 327.76 492.213 327.546 492.56C327.333 492.907 327.226 493.267 327.226 493.64V494.2H322.506C322.48 494.067 322.466 493.933 322.466 493.8C322.466 493.667 322.466 493.507 322.466 493.32C322.466 492.12 322.826 491.08 323.546 490.2C324.266 489.32 325.266 488.653 326.546 488.2C327.826 487.72 329.306 487.48 330.986 487.48C332.906 487.48 334.48 487.747 335.706 488.28C336.96 488.813 337.893 489.573 338.506 490.56C339.12 491.547 339.426 492.747 339.426 494.16V504.08C339.426 504.587 339.573 504.947 339.866 505.16C340.16 505.373 340.48 505.48 340.826 505.48H342.106V508.84C341.84 508.947 341.453 509.067 340.946 509.2C340.44 509.36 339.813 509.44 339.066 509.44C338.373 509.44 337.746 509.32 337.186 509.08C336.653 508.867 336.2 508.547 335.826 508.12C335.453 507.693 335.186 507.187 335.026 506.6H334.786C334.333 507.16 333.786 507.667 333.146 508.12C332.533 508.547 331.8 508.88 330.946 509.12C330.12 509.36 329.16 509.48 328.066 509.48ZM329.546 505.48C330.346 505.48 331.053 505.36 331.666 505.12C332.306 504.88 332.826 504.547 333.226 504.12C333.653 503.693 333.973 503.173 334.186 502.56C334.426 501.947 334.546 501.28 334.546 500.56V499.6C333.08 499.6 331.72 499.693 330.466 499.88C329.24 500.067 328.253 500.413 327.506 500.92C326.786 501.427 326.426 502.147 326.426 503.08C326.426 503.56 326.533 503.987 326.746 504.36C326.986 504.707 327.333 504.987 327.786 505.2C328.266 505.387 328.853 505.48 329.546 505.48Z" fill="#303A5B" fill-opacity="0.2"/>
<g filter="url(#filter4_d_1011_1324)">
<rect x="220" y="195" width="196" height="196" rx="6" fill="white"/>
</g>
<path d="M295.935 312.272H340.059C340.412 312.282 340.761 312.193 341.066 312.014C341.371 311.835 341.62 311.575 341.784 311.262C341.948 310.949 342.021 310.596 341.995 310.243C341.968 309.891 341.843 309.553 341.634 309.268L335.547 301.004C335.388 300.784 335.184 300.601 334.948 300.467C334.712 300.333 334.45 300.252 334.18 300.229C333.909 300.205 333.637 300.241 333.382 300.332C333.126 300.423 332.894 300.569 332.699 300.758L326.445 306.71L311.927 286.999C311.747 286.753 311.509 286.554 311.234 286.42C310.96 286.286 310.657 286.221 310.352 286.23C310.046 286.238 309.748 286.321 309.481 286.471C309.215 286.62 308.989 286.832 308.823 287.089L294.305 309.357C294.117 309.645 294.012 309.979 294.001 310.323C293.99 310.667 294.072 311.007 294.24 311.307C294.408 311.607 294.655 311.855 294.953 312.025C295.252 312.195 295.591 312.281 295.935 312.272Z" fill="#303A5B"/>
<path d="M331.729 287.245C335.387 287.245 338.352 284.28 338.352 280.622C338.352 276.965 335.387 274 331.729 274C328.072 274 325.107 276.965 325.107 280.622C325.107 284.28 328.072 287.245 331.729 287.245Z" fill="#303A5B"/>
<g clip-path="url(#clip1_1011_1324)">
<circle cx="195.496" cy="151.5" r="3.5" fill="#FB4247"/>
<circle cx="206.496" cy="151.5" r="3.5" fill="white"/>
<circle cx="217.496" cy="151.5" r="3.5" fill="#1AC3DA"/>
</g>
<g filter="url(#filter5_d_1011_1324)">
<rect x="515" y="68" width="40" height="40" rx="12" fill="#1AC3DA"/>
<path d="M537.5 81.5L532.5 94.5" stroke="white" stroke-linecap="round" stroke-linejoin="round"/>
<path d="M530.5 84.5L527.5 87.5L530.5 90.5" stroke="white" stroke-linecap="round" stroke-linejoin="round"/>
<path d="M539.5 84.5L542.5 87.5L539.5 90.5" stroke="white" stroke-linecap="round" stroke-linejoin="round"/>
</g>
<g filter="url(#filter6_d_1011_1324)">
<rect x="604" y="288" width="80" height="80" rx="20" fill="#1AC3DA"/>
<path d="M648.5 313.5V321.5H656.5" stroke="white" stroke-miterlimit="10"/>
<path d="M656.5 325.5V321.5L648.5 313.5H632.5V325.5" stroke="white" stroke-miterlimit="10" stroke-linecap="square"/>
<path d="M632.5 339.5V343.5H656.5V339.5" stroke="white" stroke-miterlimit="10" stroke-linecap="square"/>
<path d="M640.4 331C640 331 639.7 331.2 639.5 331.5C639.3 331.8 639.2 332.2 639.2 332.7C639.2 333.8 639.6 334.3 640.5 334.3C640.8 334.3 641 334.3 641.2 334.2C641.4 334.1 641.7 334 641.9 333.9V335.2C641.4 335.4 640.9 335.5 640.3 335.5C639.4 335.5 638.8 335.3 638.3 334.7C637.8 334.1 637.6 333.5 637.6 332.5C637.6 331.9 637.7 331.4 637.9 330.9C638.1 330.4 638.4 330.1 638.9 329.9C639.4 329.7 639.8 329.5 640.4 329.5C641 329.5 641.6 329.6 642.2 329.9L641.7 331.1C641.5 331 641.3 330.9 641.1 330.9C640.9 330.9 640.7 331 640.4 331Z" fill="white"/>
<path d="M646.8 333.8C646.8 334.2 646.7 334.5 646.5 334.7C646.3 334.9 646.1 335.2 645.7 335.3C645.3 335.4 645 335.5 644.5 335.5C644.1 335.5 643.8 335.5 643.5 335.4C643.2 335.3 643 335.3 642.7 335.1V333.7C643 333.9 643.3 334 643.6 334.1C643.9 334.2 644.2 334.2 644.5 334.2C644.7 334.2 644.9 334.2 645 334.1C645.1 334 645.2 333.9 645.2 333.8C645.2 333.7 645.2 333.7 645.1 333.6C645 333.5 645 333.5 644.9 333.4C644.8 333.3 644.6 333.2 644.1 333C643.7 332.8 643.4 332.7 643.3 332.5C643.2 332.3 643 332.2 642.9 332C642.8 331.8 642.8 331.6 642.8 331.3C642.8 330.8 643 330.4 643.4 330.1C643.8 329.8 644.3 329.7 645 329.7C645.6 329.7 646.2 329.8 646.8 330.1L646.3 331.3C645.8 331.1 645.3 330.9 644.9 330.9C644.7 330.9 644.6 330.9 644.5 331C644.4 331.1 644.4 331.2 644.4 331.3C644.4 331.4 644.5 331.5 644.6 331.6C644.7 331.7 645 331.8 645.5 332.1C646 332.3 646.3 332.6 646.5 332.8C646.7 333 646.8 333.4 646.8 333.8Z" fill="white"/>
<path d="M651.4 333.8C651.4 334.2 651.3 334.5 651.1 334.7C650.9 334.9 650.7 335.2 650.3 335.3C649.9 335.4 649.6 335.5 649.1 335.5C648.7 335.5 648.4 335.5 648.1 335.4C647.8 335.3 647.6 335.3 647.3 335.1V333.7C647.6 333.9 647.9 334 648.2 334.1C648.5 334.2 648.8 334.2 649.1 334.2C649.3 334.2 649.5 334.2 649.6 334.1C649.7 334 649.8 333.9 649.8 333.8C649.8 333.7 649.8 333.7 649.7 333.6C649.6 333.5 649.6 333.5 649.5 333.4C649.4 333.3 649.2 333.2 648.7 333C648.3 332.8 648 332.7 647.9 332.5C647.8 332.3 647.6 332.2 647.5 332C647.4 331.8 647.5 331.7 647.5 331.4C647.5 330.9 647.7 330.5 648.1 330.2C648.5 329.9 649 329.8 649.7 329.8C650.3 329.8 650.9 329.9 651.5 330.2L651 331.4C650.5 331.2 650 331 649.6 331C649.4 331 649.3 331 649.2 331.1C649.1 331.2 649.1 331.3 649.1 331.4C649.1 331.5 649.2 331.6 649.3 331.7C649.4 331.8 649.7 331.9 650.2 332.2C650.7 332.4 651 332.7 651.2 332.9C651.4 333.1 651.4 333.4 651.4 333.8Z" fill="white"/>
<path d="M659.5 325.5H629.5V339.5H659.5V325.5Z" stroke="white" stroke-miterlimit="10" stroke-linecap="square"/>
</g>
<g filter="url(#filter7_d_1011_1324)">
<rect x="92" y="382" width="48" height="48" rx="12" fill="#1AC3DA"/>
<path d="M112.69 405.74C113.163 405.267 113.805 405.001 114.475 405.001C115.145 405.001 115.787 405.267 116.26 405.74C116.733 406.213 116.999 406.855 116.999 407.525C116.999 408.195 116.733 408.837 116.26 409.31C115.274 410.3 111.5 410.5 111.5 410.5C111.5 410.5 111.7 406.726 112.69 405.74Z" stroke="white" stroke-linecap="round" stroke-linejoin="round"/>
<path d="M117.5 398.5H109.5C109.235 398.5 108.98 398.605 108.793 398.793C108.605 398.98 108.5 399.235 108.5 399.5V412.5C108.5 412.765 108.605 413.02 108.793 413.207C108.98 413.395 109.235 413.5 109.5 413.5H122.5C122.765 413.5 123.02 413.395 123.207 413.207C123.395 413.02 123.5 412.765 123.5 412.5V404.5" stroke="white" stroke-linecap="round" stroke-linejoin="round"/>
<path d="M118.643 405.5L123.056 401.086C123.33 400.8 123.48 400.418 123.476 400.022C123.472 399.626 123.312 399.248 123.032 398.968C122.752 398.688 122.374 398.528 121.978 398.524C121.582 398.52 121.2 398.67 120.914 398.944L116.5 403.357" stroke="white" stroke-linecap="round" stroke-linejoin="round"/>
</g>
<g filter="url(#filter8_d_1011_1324)">
<rect x="199" y="204" width="80" height="80" rx="20" fill="#1AC3DA"/>
<path d="M243.5 229.5V237.5H251.5" stroke="white" stroke-miterlimit="10"/>
<path d="M251.5 241.5V237.5L243.5 229.5H227.5V241.5" stroke="white" stroke-miterlimit="10" stroke-linecap="square"/>
<path d="M227.5 255.5V259.5H251.5V255.5" stroke="white" stroke-miterlimit="10" stroke-linecap="square"/>
<path d="M233.4 251.5H231.8V249.2H230V251.5H228.5V245.8H230.1V247.9H231.9V245.8H233.5V251.5H233.4Z" fill="white"/>
<path d="M237.1 251.5H235.6V247.1H234.2V245.8H238.5V247.1H237.1V251.5Z" fill="white"/>
<path d="M241.8 251.5L240.6 247.4C240.7 248.1 240.7 248.6 240.7 249V251.5H239.3V245.8H241.4L242.6 249.9L243.8 245.8H245.9V251.5H244.5V249C244.5 248.9 244.5 248.7 244.5 248.6C244.5 248.5 244.5 248.1 244.6 247.4L243.3 251.5H241.8Z" fill="white"/>
<path d="M247.1 251.5V245.8H248.6V250.3H250.8V251.5H247.1Z" fill="white"/>
<path d="M254.5 241.5H224.5V255.5H254.5V241.5Z" stroke="white" stroke-miterlimit="10" stroke-linecap="square"/>
</g>
<circle cx="504.503" cy="505.503" r="139.503" fill="url(#paint2_radial_1011_1324)" fill-opacity="0.16"/>
<circle cx="500.953" cy="506.171" r="66.9466" fill="url(#paint3_radial_1011_1324)" fill-opacity="0.48"/>
<rect x="422" y="470" width="149.5" height="70.2167" rx="35.1084" fill="#FB4247"/>
<path d="M461.203 512.108V497.628H468.738C469.78 497.628 470.645 497.825 471.335 498.219C472.038 498.599 472.566 499.141 472.918 499.844C473.284 500.534 473.467 501.357 473.467 502.314C473.467 503.271 473.277 504.108 472.897 504.826C472.531 505.53 471.989 506.078 471.271 506.472C470.554 506.866 469.674 507.063 468.633 507.063H464.348V512.108H461.203ZM464.348 504.488H468.211C468.872 504.488 469.379 504.298 469.731 503.918C470.096 503.538 470.279 503.011 470.279 502.335C470.279 501.871 470.202 501.484 470.047 501.174C469.892 500.865 469.66 500.625 469.351 500.457C469.055 500.288 468.675 500.203 468.211 500.203H464.348V504.488ZM478.694 512.362C477.569 512.362 476.675 512.052 476.014 511.433C475.352 510.814 475.022 509.815 475.022 508.436V501.005H477.956V507.95C477.956 508.316 477.998 508.625 478.082 508.879C478.167 509.118 478.286 509.315 478.441 509.47C478.61 509.625 478.814 509.737 479.053 509.808C479.293 509.878 479.56 509.913 479.855 509.913C480.292 509.913 480.686 509.808 481.038 509.596C481.389 509.385 481.664 509.097 481.861 508.731C482.058 508.351 482.156 507.929 482.156 507.465V501.005H485.09V512.108H482.684L482.473 510.589H482.325C482.058 510.94 481.741 511.25 481.375 511.517C481.023 511.785 480.622 511.989 480.172 512.129C479.722 512.284 479.229 512.362 478.694 512.362ZM493.778 512.362C493.061 512.362 492.399 512.221 491.794 511.94C491.203 511.644 490.725 511.201 490.359 510.61H490.211L489.979 512.108H487.572V496.847H490.506V502.23H490.633C490.858 501.906 491.133 501.632 491.456 501.406C491.78 501.181 492.146 501.019 492.554 500.921C492.962 500.808 493.405 500.752 493.884 500.752C494.756 500.752 495.516 500.956 496.163 501.364C496.825 501.772 497.339 502.406 497.704 503.264C498.07 504.108 498.253 505.199 498.253 506.536C498.253 507.873 498.07 508.97 497.704 509.829C497.353 510.687 496.839 511.327 496.163 511.75C495.502 512.158 494.707 512.362 493.778 512.362ZM492.871 509.955C493.462 509.955 493.926 509.843 494.264 509.618C494.616 509.378 494.869 509.027 495.024 508.562C495.178 508.098 495.256 507.514 495.256 506.81V506.325C495.256 505.621 495.178 505.037 495.024 504.573C494.869 504.094 494.616 503.742 494.264 503.517C493.926 503.278 493.462 503.158 492.871 503.158C492.448 503.158 492.09 503.236 491.794 503.391C491.499 503.531 491.252 503.742 491.055 504.024C490.872 504.291 490.732 504.629 490.633 505.037C490.535 505.445 490.485 505.895 490.485 506.388V506.768C490.485 507.429 490.57 507.999 490.739 508.478C490.907 508.956 491.168 509.322 491.52 509.575C491.871 509.829 492.322 509.955 492.871 509.955ZM500.204 512.108V496.847H503.138V512.108H500.204ZM505.62 499.38V496.847H508.554V499.38H505.62ZM505.62 512.108V501.005H508.554V512.108H505.62ZM515.533 512.362C514.759 512.362 514.062 512.277 513.443 512.108C512.824 511.94 512.296 511.707 511.86 511.412C511.423 511.102 511.086 510.736 510.846 510.314C510.621 509.892 510.509 509.414 510.509 508.879C510.509 508.822 510.509 508.766 510.509 508.71C510.509 508.654 510.516 508.611 510.53 508.583H513.358C513.358 508.611 513.358 508.64 513.358 508.668C513.358 508.696 513.358 508.724 513.358 508.752C513.372 509.104 513.485 509.392 513.696 509.618C513.907 509.829 514.182 509.983 514.519 510.082C514.871 510.18 515.237 510.23 515.617 510.23C515.955 510.23 516.278 510.202 516.588 510.145C516.912 510.075 517.179 509.955 517.39 509.786C517.615 509.618 517.728 509.399 517.728 509.132C517.728 508.794 517.587 508.534 517.306 508.351C517.038 508.168 516.679 508.02 516.229 507.908C515.793 507.795 515.314 507.669 514.794 507.528C514.315 507.415 513.837 507.289 513.358 507.148C512.88 506.993 512.444 506.796 512.05 506.557C511.67 506.318 511.36 506.008 511.121 505.628C510.882 505.234 510.762 504.742 510.762 504.151C510.762 503.574 510.889 503.074 511.142 502.652C511.395 502.216 511.74 501.857 512.176 501.575C512.627 501.294 513.147 501.09 513.738 500.963C514.343 500.822 514.991 500.752 515.68 500.752C516.328 500.752 516.933 500.822 517.496 500.963C518.059 501.09 518.551 501.287 518.973 501.554C519.395 501.807 519.726 502.131 519.965 502.525C520.205 502.905 520.324 503.334 520.324 503.813C520.324 503.911 520.324 504.003 520.324 504.087C520.324 504.172 520.317 504.228 520.303 504.256H517.496V504.087C517.496 503.834 517.418 503.623 517.263 503.454C517.109 503.271 516.883 503.13 516.588 503.032C516.307 502.933 515.962 502.884 515.554 502.884C515.272 502.884 515.012 502.905 514.773 502.947C514.547 502.99 514.35 503.053 514.182 503.137C514.013 503.222 513.879 503.327 513.781 503.454C513.696 503.567 513.654 503.707 513.654 503.876C513.654 504.115 513.752 504.312 513.949 504.467C514.161 504.608 514.435 504.727 514.773 504.826C515.11 504.924 515.483 505.03 515.891 505.143C516.398 505.283 516.926 505.424 517.475 505.565C518.037 505.691 518.558 505.867 519.037 506.092C519.515 506.318 519.902 506.641 520.197 507.063C520.493 507.472 520.641 508.027 520.641 508.731C520.641 509.406 520.507 509.976 520.24 510.441C519.986 510.905 519.628 511.278 519.163 511.56C518.699 511.841 518.157 512.045 517.538 512.172C516.919 512.298 516.25 512.362 515.533 512.362ZM522.555 512.108V496.847H525.489V502.23H525.636C525.876 501.934 526.157 501.681 526.481 501.47C526.818 501.245 527.191 501.069 527.599 500.942C528.022 500.815 528.479 500.752 528.971 500.752C529.703 500.752 530.344 500.886 530.892 501.153C531.441 501.42 531.863 501.843 532.159 502.42C532.468 502.997 532.623 503.749 532.623 504.678V512.108H529.689V505.143C529.689 504.791 529.647 504.495 529.563 504.256C529.478 504.003 529.351 503.799 529.183 503.644C529.028 503.475 528.831 503.355 528.592 503.285C528.352 503.215 528.085 503.18 527.789 503.18C527.353 503.18 526.959 503.285 526.607 503.496C526.256 503.707 525.981 503.996 525.784 504.362C525.587 504.727 525.489 505.15 525.489 505.628V512.108H522.555Z" fill="white"/>
<defs>
<filter id="filter0_d_1011_1324" x="91" y="73" width="534" height="472" filterUnits="userSpaceOnUse" color-interpolation-filters="sRGB">
<feFlood flood-opacity="0" result="BackgroundImageFix"/>
<feColorMatrix in="SourceAlpha" type="matrix" values="0 0 0 0 0 0 0 0 0 0 0 0 0 0 0 0 0 0 127 0" result="hardAlpha"/>
<feMorphology radius="8" operator="erode" in="SourceAlpha" result="effect1_dropShadow_1011_1324"/>
<feOffset dy="24"/>
<feGaussianBlur stdDeviation="50"/>
<feColorMatrix type="matrix" values="0 0 0 0 0 0 0 0 0 0 0 0 0 0 0 0 0 0 0.1 0"/>
<feBlend mode="normal" in2="BackgroundImageFix" result="effect1_dropShadow_1011_1324"/>
<feBlend mode="normal" in="SourceGraphic" in2="effect1_dropShadow_1011_1324" result="shape"/>
</filter>
<filter id="filter1_d_1011_1324" x="424" y="194" width="200" height="60" filterUnits="userSpaceOnUse" color-interpolation-filters="sRGB">
<feFlood flood-opacity="0" result="BackgroundImageFix"/>
<feColorMatrix in="SourceAlpha" type="matrix" values="0 0 0 0 0 0 0 0 0 0 0 0 0 0 0 0 0 0 127 0" result="hardAlpha"/>
<feOffset dy="1"/>
<feGaussianBlur stdDeviation="1"/>
<feColorMatrix type="matrix" values="0 0 0 0 0.9125 0 0 0 0 0.897292 0 0 0 0 0.904896 0 0 0 1 0"/>
<feBlend mode="normal" in2="BackgroundImageFix" result="effect1_dropShadow_1011_1324"/>
<feBlend mode="normal" in="SourceGraphic" in2="effect1_dropShadow_1011_1324" result="shape"/>
</filter>
<filter id="filter2_d_1011_1324" x="424" y="262" width="200" height="198" filterUnits="userSpaceOnUse" color-interpolation-filters="sRGB">
<feFlood flood-opacity="0" result="BackgroundImageFix"/>
<feColorMatrix in="SourceAlpha" type="matrix" values="0 0 0 0 0 0 0 0 0 0 0 0 0 0 0 0 0 0 127 0" result="hardAlpha"/>
<feOffset dy="1"/>
<feGaussianBlur stdDeviation="1"/>
<feColorMatrix type="matrix" values="0 0 0 0 0.9125 0 0 0 0 0.897292 0 0 0 0 0.904896 0 0 0 1 0"/>
<feBlend mode="normal" in2="BackgroundImageFix" result="effect1_dropShadow_1011_1324"/>
<feBlend mode="normal" in="SourceGraphic" in2="effect1_dropShadow_1011_1324" result="shape"/>
</filter>
<filter id="filter3_d_1011_1324" x="218" y="399" width="200" height="198" filterUnits="userSpaceOnUse" color-interpolation-filters="sRGB">
<feFlood flood-opacity="0" result="BackgroundImageFix"/>
<feColorMatrix in="SourceAlpha" type="matrix" values="0 0 0 0 0 0 0 0 0 0 0 0 0 0 0 0 0 0 127 0" result="hardAlpha"/>
<feOffset dy="1"/>
<feGaussianBlur stdDeviation="1"/>
<feColorMatrix type="matrix" values="0 0 0 0 0.9125 0 0 0 0 0.897292 0 0 0 0 0.904896 0 0 0 1 0"/>
<feBlend mode="normal" in2="BackgroundImageFix" result="effect1_dropShadow_1011_1324"/>
<feBlend mode="normal" in="SourceGraphic" in2="effect1_dropShadow_1011_1324" result="shape"/>
</filter>
<filter id="filter4_d_1011_1324" x="139" y="159" width="396" height="396" filterUnits="userSpaceOnUse" color-interpolation-filters="sRGB">
<feFlood flood-opacity="0" result="BackgroundImageFix"/>
<feColorMatrix in="SourceAlpha" type="matrix" values="0 0 0 0 0 0 0 0 0 0 0 0 0 0 0 0 0 0 127 0" result="hardAlpha"/>
<feOffset dx="19" dy="64"/>
<feGaussianBlur stdDeviation="50"/>
<feColorMatrix type="matrix" values="0 0 0 0 0.344375 0 0 0 0 0.348202 0 0 0 0 0.3625 0 0 0 0.2 0"/>
<feBlend mode="normal" in2="BackgroundImageFix" result="effect1_dropShadow_1011_1324"/>
<feBlend mode="normal" in="SourceGraphic" in2="effect1_dropShadow_1011_1324" result="shape"/>
</filter>
<filter id="filter5_d_1011_1324" x="423" y="0" width="224" height="224" filterUnits="userSpaceOnUse" color-interpolation-filters="sRGB">
<feFlood flood-opacity="0" result="BackgroundImageFix"/>
<feColorMatrix in="SourceAlpha" type="matrix" values="0 0 0 0 0 0 0 0 0 0 0 0 0 0 0 0 0 0 127 0" result="hardAlpha"/>
<feMorphology radius="8" operator="erode" in="SourceAlpha" result="effect1_dropShadow_1011_1324"/>
<feOffset dy="24"/>
<feGaussianBlur stdDeviation="50"/>
<feColorMatrix type="matrix" values="0 0 0 0 0 0 0 0 0 0 0 0 0 0 0 0 0 0 0.1 0"/>
<feBlend mode="normal" in2="BackgroundImageFix" result="effect1_dropShadow_1011_1324"/>
<feBlend mode="normal" in="SourceGraphic" in2="effect1_dropShadow_1011_1324" result="shape"/>
</filter>
<filter id="filter6_d_1011_1324" x="512" y="220" width="264" height="264" filterUnits="userSpaceOnUse" color-interpolation-filters="sRGB">
<feFlood flood-opacity="0" result="BackgroundImageFix"/>
<feColorMatrix in="SourceAlpha" type="matrix" values="0 0 0 0 0 0 0 0 0 0 0 0 0 0 0 0 0 0 127 0" result="hardAlpha"/>
<feMorphology radius="8" operator="erode" in="SourceAlpha" result="effect1_dropShadow_1011_1324"/>
<feOffset dy="24"/>
<feGaussianBlur stdDeviation="50"/>
<feColorMatrix type="matrix" values="0 0 0 0 0 0 0 0 0 0 0 0 0 0 0 0 0 0 0.1 0"/>
<feBlend mode="normal" in2="BackgroundImageFix" result="effect1_dropShadow_1011_1324"/>
<feBlend mode="normal" in="SourceGraphic" in2="effect1_dropShadow_1011_1324" result="shape"/>
</filter>
<filter id="filter7_d_1011_1324" x="0" y="314" width="232" height="232" filterUnits="userSpaceOnUse" color-interpolation-filters="sRGB">
<feFlood flood-opacity="0" result="BackgroundImageFix"/>
<feColorMatrix in="SourceAlpha" type="matrix" values="0 0 0 0 0 0 0 0 0 0 0 0 0 0 0 0 0 0 127 0" result="hardAlpha"/>
<feMorphology radius="8" operator="erode" in="SourceAlpha" result="effect1_dropShadow_1011_1324"/>
<feOffset dy="24"/>
<feGaussianBlur stdDeviation="50"/>
<feColorMatrix type="matrix" values="0 0 0 0 0 0 0 0 0 0 0 0 0 0 0 0 0 0 0.1 0"/>
<feBlend mode="normal" in2="BackgroundImageFix" result="effect1_dropShadow_1011_1324"/>
<feBlend mode="normal" in="SourceGraphic" in2="effect1_dropShadow_1011_1324" result="shape"/>
</filter>
<filter id="filter8_d_1011_1324" x="107" y="136" width="264" height="264" filterUnits="userSpaceOnUse" color-interpolation-filters="sRGB">
<feFlood flood-opacity="0" result="BackgroundImageFix"/>
<feColorMatrix in="SourceAlpha" type="matrix" values="0 0 0 0 0 0 0 0 0 0 0 0 0 0 0 0 0 0 127 0" result="hardAlpha"/>
<feMorphology radius="8" operator="erode" in="SourceAlpha" result="effect1_dropShadow_1011_1324"/>
<feOffset dy="24"/>
<feGaussianBlur stdDeviation="50"/>
<feColorMatrix type="matrix" values="0 0 0 0 0 0 0 0 0 0 0 0 0 0 0 0 0 0 0.1 0"/>
<feBlend mode="normal" in2="BackgroundImageFix" result="effect1_dropShadow_1011_1324"/>
<feBlend mode="normal" in="SourceGraphic" in2="effect1_dropShadow_1011_1324" result="shape"/>
</filter>
<linearGradient id="paint0_linear_1011_1324" x1="63" y1="61" x2="299.626" y2="61.0032" gradientUnits="userSpaceOnUse">
<stop stop-color="#DBD6D8" stop-opacity="0.43"/>
<stop offset="1" stop-color="#DBD6D8" stop-opacity="0"/>
</linearGradient>
<radialGradient id="paint1_radial_1011_1324" cx="0" cy="0" r="1" gradientUnits="userSpaceOnUse" gradientTransform="translate(268.868 377.176) rotate(-30.6904) scale(202.231 364.456)">
<stop stop-color="#1F2742"/>
<stop offset="1" stop-color="#2F395A"/>
</radialGradient>
<radialGradient id="paint2_radial_1011_1324" cx="0" cy="0" r="1" gradientUnits="userSpaceOnUse" gradientTransform="translate(504.503 505.503) rotate(90) scale(139.503)">
<stop offset="0.505208" stop-color="#FB4247" stop-opacity="0"/>
<stop offset="1" stop-color="#FB4247"/>
</radialGradient>
<radialGradient id="paint3_radial_1011_1324" cx="0" cy="0" r="1" gradientUnits="userSpaceOnUse" gradientTransform="translate(500.953 506.171) rotate(90) scale(66.9466)">
<stop stop-color="#FB4247" stop-opacity="0"/>
<stop offset="1" stop-color="#FB4247"/>
</radialGradient>
<clipPath id="clip0_1011_1324">
<rect width="20" height="20" fill="white" transform="translate(514 213)"/>
</clipPath>
<clipPath id="clip1_1011_1324">
<rect width="29" height="7" fill="white" transform="translate(191.996 148)"/>
</clipPath>
</defs>
</svg>
