<svg xmlns="http://www.w3.org/2000/svg" width="738" height="407" viewBox="0 0 738 407" fill="none"><g clip-path="url(#clip0_394_10502)"><path opacity="0.6" d="M370.211 389.5C370.211 359.953 394.164 336 423.711 336H718.642C748.19 336 772.142 359.953 772.142 389.5C772.142 419.047 748.19 443 718.642 443H423.711C394.164 443 370.211 419.047 370.211 389.5Z" fill="url(#paint0_linear_394_10502)"></path><path d="M201.439 22.6824L842.188 25.0868C942.631 25.4637 1023.75 107.189 1023.37 207.633C1022.99 308.077 941.267 389.191 840.823 388.815L200.074 386.41C99.6306 386.033 18.5159 304.307 18.8928 203.864C19.2697 103.42 100.995 22.3055 201.439 22.6824Z" fill="url(#paint1_linear_394_10502)"></path><path d="M341.298 170.271L375.767 170.4C383.853 170.431 389.88 172.525 393.948 176.675C397.976 180.764 399.996 186.563 399.968 194.074C399.94 201.584 397.775 207.438 393.514 211.638C389.253 215.766 382.917 217.814 374.538 217.783L356.424 217.715L356.331 242.561L341.017 242.503L341.288 170.271L341.298 170.271ZM374.243 204.823C377.538 204.835 380.078 203.895 381.834 202.011C383.59 200.117 384.5 197.462 384.513 194.016C384.526 190.569 383.635 188.048 381.894 186.212C380.152 184.305 377.618 183.356 374.323 183.344L356.563 183.277L356.483 204.756L374.243 204.823ZM428.669 244.095C422.978 244.074 418.496 242.511 415.172 239.415C411.99 236.31 410.361 231.351 410.386 224.548L410.526 187.381L424.99 187.435L424.862 221.55C424.849 224.997 425.638 227.486 427.23 229.039C428.821 230.581 431.214 231.369 434.408 231.381C437.602 231.393 440.295 230.281 442.406 228.045C444.608 225.728 445.67 222.902 445.683 219.526L445.803 187.514L460.267 187.568L460.059 242.96L447.738 242.914L446.714 235.642L445.966 235.639C441.456 241.303 435.654 244.122 428.669 244.095ZM504.793 244.381C501.255 244.368 497.962 243.658 495.026 242.242C492.09 240.755 489.753 238.614 488.015 235.797L487.267 235.794L486.29 243.058L473.968 243.012L474.254 166.878L488.668 166.932L488.566 194.103L489.213 194.105C490.819 191.655 493.07 189.763 495.865 188.439C498.761 187.116 502.059 186.461 505.748 186.475C512.237 186.499 517.363 188.934 521.237 193.801C525.11 198.657 527.074 205.862 527.039 215.404C527.003 224.946 525.034 232.459 521.175 237.286C517.265 242.042 511.818 244.407 504.783 244.381L504.793 244.381ZM500.251 231.84C504.486 231.856 507.584 230.604 509.393 228.084C511.252 225.493 512.156 221.595 512.176 216.409L512.183 214.509C512.202 209.313 511.317 205.449 509.487 202.915C507.698 200.31 504.609 199.005 500.374 198.989C492.49 198.959 488.528 204.17 488.489 214.632L488.483 216.32C488.444 226.641 492.367 231.81 500.251 231.84ZM537.56 167.116L551.975 167.17L551.689 243.304L537.275 243.25L537.56 167.116ZM565.742 167.222L580.156 167.276L580.104 180.962L565.69 180.908L565.742 167.222ZM565.664 187.963L580.078 188.017L579.87 243.409L565.456 243.355L565.664 187.963ZM615.89 244.808C608.208 244.779 602.129 243.18 597.704 240.009C593.379 236.758 591.192 232.474 591.212 227.137L591.318 225.874L605.338 225.927L605.335 226.665C605.427 229.121 606.471 230.914 608.61 232.044C610.749 233.104 613.395 233.639 616.488 233.651C619.379 233.662 621.827 233.287 623.871 232.516C625.866 231.755 626.922 230.496 626.928 228.737C626.936 226.776 625.89 225.286 623.801 224.298C621.763 223.31 618.522 222.317 614.088 221.31C609.554 220.242 605.818 219.176 602.971 218.114C600.084 216.982 597.594 215.254 595.511 212.931C593.427 210.599 592.337 207.512 592.351 203.65C592.371 198.253 594.631 194.107 599.13 191.253C603.73 188.318 609.568 186.875 616.755 186.902C623.436 186.927 628.92 188.312 633.256 191.067C637.633 193.752 639.772 197.41 639.755 202.039L639.644 204.465L625.624 204.412L625.627 203.775C625.634 201.946 624.79 200.547 623.045 199.55C621.35 198.563 619.058 198.06 616.167 198.049C613.276 198.038 611.031 198.414 609.33 199.175C607.628 199.937 606.826 201.026 606.821 202.431C606.814 204.19 607.759 205.487 609.646 206.333C611.584 207.179 614.724 208.04 618.967 208.895C623.703 209.974 627.49 211.04 630.478 212.102C633.415 213.165 635.956 214.892 638.141 217.286C640.275 219.68 641.364 222.918 641.349 226.982C641.304 238.919 632.801 244.851 615.89 244.788L615.89 244.808ZM651.549 167.544L665.963 167.598L665.861 194.768L666.609 194.771C670.823 189.662 676.261 187.115 682.851 187.139C688.542 187.161 692.974 188.714 696.207 191.819C699.49 194.925 701.119 199.874 701.094 206.686L700.954 243.854L686.54 243.8L686.668 209.685C686.681 206.238 685.892 203.749 684.25 202.196C682.659 200.643 680.266 199.866 677.123 199.854C673.979 199.843 671.185 200.994 668.983 203.301C666.882 205.547 665.82 208.343 665.807 211.719L665.687 243.731L651.273 243.677L651.559 167.544L651.549 167.544Z" fill="white"></path></g><defs><linearGradient id="paint0_linear_394_10502" x1="814.18" y1="389.085" x2="564.337" y2="389.085" gradientUnits="userSpaceOnUse"><stop stop-color="#EEEEEE"></stop><stop offset="1" stop-color="#F1F2F4" stop-opacity="0"></stop></linearGradient><linearGradient id="paint1_linear_394_10502" x1="18.8928" y1="203.864" x2="1023.37" y2="207.633" gradientUnits="userSpaceOnUse"><stop stop-color="#F86165"></stop><stop offset="1" stop-color="#E42F33"></stop></linearGradient><clipPath id="clip0_394_10502"><rect width="738" height="407" fill="white"></rect></clipPath></defs></svg>