<svg xmlns="http://www.w3.org/2000/svg" width="1600" height="645" viewBox="0 0 1600 645" fill="none"><rect x="954.448" y="211.247" width="259.843" height="139.651" rx="61" fill="url(#paint0_linear_21_792)"></rect><rect opacity="0.6" x="-31.1232" y="233.515" width="572.341" height="216.345" rx="108.172" fill="url(#paint1_linear_21_792)"></rect><rect opacity="0.6" width="572.341" height="216.345" rx="108.172" transform="matrix(-1 0 0 1 1614.93 290.23)" fill="url(#paint2_linear_21_792)"></rect><circle opacity="0.5" cx="1265.8" cy="96.7789" r="51.6554" stroke="url(#paint3_linear_21_792)" stroke-width="2"></circle><path d="M-304.701 538.493C-330.748 538.493 -351.897 515.287 -351.897 486.698C-351.897 458.121 -330.748 434.911 -304.701 434.911H252.757C278.8 434.911 299.952 458.121 299.952 486.698C299.952 515.287 278.804 538.493 252.757 538.493H-304.701ZM220.495 958.879C239.405 939.349 269.214 940.321 287.013 961.082C304.811 981.843 303.925 1014.54 285.005 1034.07C241.416 1078.97 192.142 1114.74 139.033 1139.04C87.0787 1162.78 31.518 1175.66 -25.9686 1175.66C-83.4658 1175.66 -139.023 1162.78 -190.981 1139.04C-244.089 1114.74 -293.36 1078.97 -336.953 1034.07C-355.873 1014.54 -356.759 981.843 -338.961 961.082C-321.162 940.321 -291.352 939.349 -272.443 958.879C-237.094 995.296 -197.41 1024.16 -154.857 1043.62C-114.493 1062.05 -71.1241 1072.09 -25.9686 1072.09C19.1763 1072.09 62.5449 1062.05 102.909 1043.62C145.462 1024.17 185.15 995.296 220.495 958.879ZM232.837 694.839C256.317 682.769 284.339 693.94 295.339 719.717C306.339 745.481 306.192 800.037 282.712 812.107C239.856 834.172 186.657 853.578 135.325 865.281C85.7196 876.621 28.179 857.059 -25.9686 857.059C-80.1232 857.059 -132.858 850.903 -182.466 839.563C-233.787 827.857 -281.809 810.319 -324.622 788.3C-348.102 776.23 -379.789 734.284 -368.793 708.52C-357.793 682.743 -298.216 658.97 -274.725 671.039C-238.612 689.64 -202.859 702.603 -158.49 712.712C-110.176 721.521 -107.699 721.858 -54.2038 726.595C-5.78749 726.595 68.6819 748.176 111.346 738.431C155.715 728.318 196.741 713.393 232.837 694.839Z" fill="#2F3A5F"></path><path fill-rule="evenodd" clip-rule="evenodd" d="M-190.981 1139.04C-244.089 1114.74 -293.36 1078.97 -336.953 1034.07C-355.873 1014.54 -356.759 981.843 -338.961 961.082C-321.162 940.321 -291.352 939.349 -272.443 958.879C-237.094 995.296 -197.41 1024.16 -154.857 1043.62C-114.493 1062.05 -71.1241 1072.09 -25.9686 1072.09C19.1763 1072.09 62.5449 1062.05 102.909 1043.62C145.462 1024.17 185.15 995.296 220.495 958.879C239.405 939.349 269.214 940.321 287.013 961.082C304.811 981.843 303.925 1014.54 285.005 1034.07C241.416 1078.97 192.142 1114.74 139.033 1139.04C87.0787 1162.78 31.518 1175.66 -25.9686 1175.66C-83.4658 1175.66 -139.023 1162.78 -190.981 1139.04ZM204.258 939.697L204.256 939.699C170.816 974.148 133.512 1001.21 93.8229 1019.35C56.2313 1036.52 15.9432 1045.83 -25.9686 1045.83C-67.8885 1045.83 -108.174 1036.52 -145.763 1019.36C-185.463 1001.2 -222.773 974.14 -256.223 939.679L-256.226 939.676C-284.667 910.326 -329.427 911.77 -356.225 943.027C-383.084 974.357 -381.755 1023.77 -353.187 1053.26L-353.178 1053.27L-353.168 1053.28C-307.654 1100.16 -256.008 1137.71 -200.082 1163.3L-200.069 1163.31C-145.36 1188.3 -86.7227 1201.92 -25.9686 1201.92C34.7749 1201.92 93.416 1188.3 148.122 1163.31L148.134 1163.3C204.059 1137.71 255.709 1100.16 301.221 1053.28L301.23 1053.27L301.239 1053.26C329.807 1023.77 331.137 974.357 304.277 943.027C277.473 911.763 232.698 910.325 204.258 939.697ZM-272.443 708.517L-274.725 671.039C-240.425 688.706 -201.205 702.98 -158.49 712.712L-158.478 712.715C-117.458 722.085 -72.8393 727.221 -25.9686 727.221C20.8912 727.221 65.5095 722.086 106.53 712.715L106.54 712.713C149.246 702.979 188.503 688.662 222.805 671.031C258.094 652.891 300.238 669.61 316.844 708.517C333.518 747.572 318.022 793.954 282.712 812.107M295.339 719.717C284.339 693.94 256.317 682.769 232.837 694.839C196.741 713.393 155.715 728.318 111.346 738.431C68.6819 748.176 -5.78749 726.595 -54.2038 726.595C-107.699 721.858 -110.176 721.521 -158.49 712.712C-202.859 702.603 -238.612 689.64 -274.725 671.039C-298.216 658.97 -357.793 682.743 -368.793 708.52C-379.789 734.284 -348.102 776.23 -324.622 788.3C-281.809 810.319 -233.787 827.857 -182.466 839.563C-132.858 850.903 -80.1232 857.059 -25.9686 857.059C28.179 857.059 85.7196 876.621 135.325 865.281C186.657 853.578 239.856 834.172 282.712 812.107C306.192 800.037 306.339 745.481 295.339 719.717ZM135.325 865.281C84.1365 876.981 29.7917 883.319 -25.9686 883.319C-81.737 883.319 -136.083 876.981 -187.275 865.281C-240.299 853.186 -290.084 835.029 -334.658 812.105C-369.966 793.953 -385.46 747.574 -368.793 708.521M135.325 865.281C188.349 853.193 238.086 835.082 282.71 812.107ZM-274.725 671.039L-272.443 708.517ZM-304.701 564.753C-343.735 564.753 -375.672 529.949 -375.672 486.698C-375.672 443.458 -343.734 408.651 -304.701 408.651H252.757C291.785 408.651 323.728 443.457 323.728 486.698C323.728 529.949 291.79 564.753 252.757 564.753H-304.701ZM-274.725 671.039C-310.02 652.905 -352.187 669.607 -368.793 708.52ZM-351.897 486.698C-351.897 515.287 -330.748 538.493 -304.701 538.493H252.757C278.804 538.493 299.952 515.287 299.952 486.698C299.952 458.121 278.8 434.911 252.757 434.911H-304.701C-330.748 434.911 -351.897 458.121 -351.897 486.698Z" fill="#2F3A5F"></path><circle opacity="0.5" cx="248.179" cy="486.49" r="51.6554" stroke="url(#paint4_linear_21_792)" stroke-width="2"></circle><defs><linearGradient id="paint0_linear_21_792" x1="1214.29" y1="280.531" x2="984.948" y2="280.531" gradientUnits="userSpaceOnUse"><stop stop-color="#37446F"></stop><stop offset="1" stop-color="#2F3A5F" stop-opacity="0"></stop></linearGradient><linearGradient id="paint1_linear_21_792" x1="541.219" y1="340.849" x2="36.0587" y2="340.849" gradientUnits="userSpaceOnUse"><stop stop-color="#2F3A5F"></stop><stop offset="1" stop-color="#2F3A5F" stop-opacity="0"></stop></linearGradient><linearGradient id="paint2_linear_21_792" x1="572.343" y1="107.334" x2="67.1819" y2="107.334" gradientUnits="userSpaceOnUse"><stop stop-color="#2F3A5F"></stop><stop offset="1" stop-color="#2F3A5F" stop-opacity="0"></stop></linearGradient><linearGradient id="paint3_linear_21_792" x1="1212.41" y1="97.8603" x2="1318.89" y2="97.4604" gradientUnits="userSpaceOnUse"><stop stop-color="#FF8C8F"></stop><stop offset="1" stop-color="#425CB4"></stop></linearGradient><linearGradient id="paint4_linear_21_792" x1="194.785" y1="487.571" x2="301.27" y2="487.171" gradientUnits="userSpaceOnUse"><stop stop-color="#FF8C8F"></stop><stop offset="1" stop-color="#425CB4"></stop></linearGradient></defs></svg>