<svg xmlns="http://www.w3.org/2000/svg" width="1920" height="810" viewBox="0 0 1920 810" fill="none"><g clip-path="url(#clip0_822_3922)"><path d="M2136.87 756.391C2330.98 644.379 2397.49 396.298 2285.42 202.287C2173.35 8.27668 1925.14 -58.1963 1731.03 53.8159C1536.91 165.828 1470.41 413.909 1582.48 607.919C1694.55 801.93 1942.76 868.403 2136.87 756.391Z" fill="url(#paint0_linear_822_3922)"></path><path d="M-416.76 558.397C-331.965 765.771 -95.0263 865.177 112.456 780.425C319.938 695.673 419.395 458.858 334.599 251.484C249.803 44.11 12.865 -55.2952 -194.617 29.4566C-402.099 114.208 -501.556 351.023 -416.76 558.397Z" fill="url(#paint1_linear_822_3922)"></path></g><defs><linearGradient id="paint0_linear_822_3922" x1="1582.48" y1="607.919" x2="2285.24" y2="201.97" gradientUnits="userSpaceOnUse"><stop stop-color="#1CC4DB"></stop><stop offset="1" stop-color="white" stop-opacity="0.24"></stop></linearGradient><linearGradient id="paint1_linear_822_3922" x1="-194.617" y1="29.4566" x2="112.182" y2="780.537" gradientUnits="userSpaceOnUse"><stop stop-color="#1CC4DB"></stop><stop offset="1" stop-color="white" stop-opacity="0.24"></stop></linearGradient><clipPath id="clip0_822_3922"><rect width="1920" height="810" fill="white"></rect></clipPath></defs></svg>