<svg xmlns="http://www.w3.org/2000/svg" width="1835" height="795" viewBox="0 0 1835 795" fill="none"><path d="M0 235C0 205.729 23.7289 182 53 182H220C249.271 182 273 205.729 273 235C273 264.271 249.271 288 220 288H53C23.7289 288 0 264.271 0 235Z" fill="url(#paint0_linear_327_3653)"></path><rect opacity="0.6" x="1705.5" y="418" width="309.592" height="117.026" rx="58.5128" fill="url(#paint1_linear_327_3653)"></rect><path d="M296 53.04C296 23.7468 319.747 0 349.04 0H515.96C545.253 0 569 23.7468 569 53.04C569 82.3332 545.253 106.08 515.96 106.08H349.04C319.747 106.08 296 82.3332 296 53.04Z" fill="url(#paint2_linear_327_3653)"></path><path d="M1212 813.5C1212 757.443 1257.44 712 1313.5 712H1632.93C1688.98 712 1734.43 757.443 1734.43 813.5C1734.43 869.557 1688.98 915 1632.93 915H1313.5C1257.44 915 1212 869.557 1212 813.5Z" fill="url(#paint3_linear_327_3653)"></path><defs><linearGradient id="paint0_linear_327_3653" x1="350.329" y1="235" x2="18.564" y2="235" gradientUnits="userSpaceOnUse"><stop stop-color="#FF7BE5"></stop><stop offset="1" stop-color="#F1F2F4" stop-opacity="0"></stop></linearGradient><linearGradient id="paint1_linear_327_3653" x1="2015.09" y1="476.059" x2="1741.84" y2="476.059" gradientUnits="userSpaceOnUse"><stop stop-color="#EEEEEE"></stop><stop offset="1" stop-color="#F1F2F4" stop-opacity="0"></stop></linearGradient><linearGradient id="paint2_linear_327_3653" x1="709.219" y1="52.6288" x2="320.448" y2="52.6288" gradientUnits="userSpaceOnUse"><stop stop-color="#1CC4DB"></stop><stop offset="1" stop-color="#F1F2F4" stop-opacity="0"></stop></linearGradient><linearGradient id="paint3_linear_327_3653" x1="2002.76" y1="812.713" x2="1258.78" y2="812.713" gradientUnits="userSpaceOnUse"><stop stop-color="#1CC4DB"></stop><stop offset="1" stop-color="#F1F2F4" stop-opacity="0"></stop></linearGradient></defs></svg>