<svg xmlns="http://www.w3.org/2000/svg" width="1920" height="1080" viewBox="0 0 1920 1080" fill="none"><rect opacity="0.4" x="59" y="729" width="444.152" height="182.886" rx="91.443" fill="url(#paint0_linear_158_5080)"></rect><rect x="394.142" y="73.292" width="237.229" height="127.498" rx="63.7488" fill="url(#paint1_linear_158_5080)"></rect><rect x="221" y="1016" width="237.229" height="127.498" rx="63.7488" fill="url(#paint2_linear_158_5080)"></rect><rect x="1597" y="248" width="237.229" height="127.498" rx="63.7488" fill="url(#paint3_linear_158_5080)"></rect><rect x="1222.62" width="237.229" height="127.498" rx="63.7488" fill="url(#paint4_linear_158_5080)"></rect><rect x="173" y="888" width="220.508" height="53.2982" rx="26.6491" fill="url(#paint5_linear_158_5080)"></rect><rect x="1076.39" y="941" width="220.508" height="53.2982" rx="26.6491" fill="url(#paint6_linear_158_5080)"></rect><rect x="1545.14" y="219.622" width="220.508" height="53.2982" rx="26.6491" fill="url(#paint7_linear_158_5080)"></rect><rect opacity="0.6" x="-242" y="375" width="522.531" height="197.517" rx="98.7584" fill="url(#paint8_linear_158_5080)"></rect><rect opacity="0.6" x="1526" y="531" width="522.531" height="197.517" rx="98.7584" fill="url(#paint9_linear_158_5080)"></rect><rect opacity="0.6" x="1925" y="1039.69" width="522.531" height="197.517" rx="98.7584" transform="rotate(-180 1925 1039.69)" fill="url(#paint10_linear_158_5080)"></rect><defs><linearGradient id="paint0_linear_158_5080" x1="503.153" y1="819.734" x2="111.135" y2="819.734" gradientUnits="userSpaceOnUse"><stop stop-color="#E8E8E8"></stop><stop offset="1" stop-color="#E8E8E8" stop-opacity="0"></stop></linearGradient><linearGradient id="paint1_linear_158_5080" x1="631.372" y1="136.547" x2="421.989" y2="136.547" gradientUnits="userSpaceOnUse"><stop stop-color="#E9E9E9"></stop><stop offset="1" stop-color="#E9E9E9" stop-opacity="0"></stop></linearGradient><linearGradient id="paint2_linear_158_5080" x1="458.23" y1="1079.25" x2="248.846" y2="1079.25" gradientUnits="userSpaceOnUse"><stop stop-color="#E9E9E9"></stop><stop offset="1" stop-color="#E9E9E9" stop-opacity="0"></stop></linearGradient><linearGradient id="paint3_linear_158_5080" x1="1834.23" y1="311.255" x2="1624.85" y2="311.255" gradientUnits="userSpaceOnUse"><stop stop-color="#E9E9E9"></stop><stop offset="1" stop-color="#E9E9E9" stop-opacity="0"></stop></linearGradient><linearGradient id="paint4_linear_158_5080" x1="1459.85" y1="63.2546" x2="1250.47" y2="63.2546" gradientUnits="userSpaceOnUse"><stop stop-color="#E9E9E9"></stop><stop offset="1" stop-color="#E9E9E9" stop-opacity="0"></stop></linearGradient><linearGradient id="paint5_linear_158_5080" x1="393.509" y1="914.442" x2="198.883" y2="914.443" gradientUnits="userSpaceOnUse"><stop stop-color="#E8E8E8"></stop><stop offset="1" stop-color="#E8E8E8" stop-opacity="0"></stop></linearGradient><linearGradient id="paint6_linear_158_5080" x1="1296.9" y1="967.442" x2="1102.27" y2="967.443" gradientUnits="userSpaceOnUse"><stop stop-color="#E8E8E8"></stop><stop offset="1" stop-color="#E8E8E8" stop-opacity="0"></stop></linearGradient><linearGradient id="paint7_linear_158_5080" x1="1765.65" y1="246.065" x2="1571.02" y2="246.065" gradientUnits="userSpaceOnUse"><stop stop-color="#E8E8E8"></stop><stop offset="1" stop-color="#E8E8E8" stop-opacity="0"></stop></linearGradient><linearGradient id="paint8_linear_158_5080" x1="280.533" y1="472.993" x2="-180.665" y2="472.993" gradientUnits="userSpaceOnUse"><stop stop-color="#E8E8E8"></stop><stop offset="1" stop-color="#E8E8E8" stop-opacity="0"></stop></linearGradient><linearGradient id="paint9_linear_158_5080" x1="2048.53" y1="628.993" x2="1587.34" y2="628.993" gradientUnits="userSpaceOnUse"><stop stop-color="#E8E8E8"></stop><stop offset="1" stop-color="#E8E8E8" stop-opacity="0"></stop></linearGradient><linearGradient id="paint10_linear_158_5080" x1="2447.53" y1="1137.68" x2="1986.34" y2="1137.68" gradientUnits="userSpaceOnUse"><stop stop-color="#E8E8E8"></stop><stop offset="1" stop-color="#E8E8E8" stop-opacity="0"></stop></linearGradient></defs></svg>