<svg xmlns="http://www.w3.org/2000/svg" width="1924" height="1035" viewBox="0 0 1924 1035" fill="none"><rect x="206" width="754.197" height="215.139" rx="107.57" fill="url(#paint0_linear_394_10582)"></rect><rect opacity="0.4" x="182.752" y="823.487" width="513.676" height="211.513" rx="105.757" fill="url(#paint1_linear_394_10582)"></rect><rect x="110" y="272" width="274.363" height="147.455" rx="73.7276" fill="url(#paint2_linear_394_10582)"></rect><rect x="1769" width="274.363" height="147.455" rx="73.7276" fill="url(#paint3_linear_394_10582)"></rect><rect y="754" width="274.363" height="147.455" rx="73.7276" fill="url(#paint4_linear_394_10582)"></rect><rect x="1491" y="63" width="274.363" height="147.455" rx="73.7276" fill="url(#paint5_linear_394_10582)"></rect><path opacity="0.6" d="M1330 724.513C1330 705.871 1345.11 690.758 1363.75 690.758H1549.84C1568.48 690.758 1583.59 705.871 1583.59 724.513C1583.59 743.155 1568.48 758.268 1549.84 758.268H1363.75C1345.11 758.268 1330 743.155 1330 724.513Z" fill="url(#paint6_linear_394_10582)"></path><rect x="315" y="843" width="255.025" height="61.6411" rx="30.8205" fill="url(#paint7_linear_394_10582)"></rect><rect x="71" y="870" width="255.025" height="61.6411" rx="30.8205" fill="url(#paint8_linear_394_10582)"></rect><rect x="1628" width="255.025" height="61.6411" rx="30.8205" fill="url(#paint9_linear_394_10582)"></rect><rect opacity="0.6" x="-146" y="423.424" width="604.324" height="228.435" rx="114.217" fill="url(#paint10_linear_394_10582)"></rect><rect opacity="0.6" x="1268" y="598" width="604.324" height="228.435" rx="114.217" fill="url(#paint11_linear_394_10582)"></rect><defs><linearGradient id="paint0_linear_394_10582" x1="960.199" y1="106.736" x2="294.528" y2="106.736" gradientUnits="userSpaceOnUse"><stop stop-color="#2F3A5F"></stop><stop offset="1" stop-color="#2F3A5F" stop-opacity="0"></stop></linearGradient><linearGradient id="paint1_linear_394_10582" x1="696.429" y1="928.423" x2="243.048" y2="928.423" gradientUnits="userSpaceOnUse"><stop stop-color="#2F3A5F"></stop><stop offset="1" stop-color="#2F3A5F" stop-opacity="0"></stop></linearGradient><linearGradient id="paint2_linear_394_10582" x1="384.364" y1="345.156" x2="142.205" y2="345.156" gradientUnits="userSpaceOnUse"><stop stop-color="#37446F"></stop><stop offset="1" stop-color="#2F3A5F" stop-opacity="0"></stop></linearGradient><linearGradient id="paint3_linear_394_10582" x1="2043.36" y1="73.1559" x2="1801.21" y2="73.1559" gradientUnits="userSpaceOnUse"><stop stop-color="#37446F"></stop><stop offset="1" stop-color="#2F3A5F" stop-opacity="0"></stop></linearGradient><linearGradient id="paint4_linear_394_10582" x1="274.364" y1="827.156" x2="32.205" y2="827.156" gradientUnits="userSpaceOnUse"><stop stop-color="#37446F"></stop><stop offset="1" stop-color="#2F3A5F" stop-opacity="0"></stop></linearGradient><linearGradient id="paint5_linear_394_10582" x1="1765.36" y1="136.156" x2="1523.21" y2="136.156" gradientUnits="userSpaceOnUse"><stop stop-color="#37446F"></stop><stop offset="1" stop-color="#2F3A5F" stop-opacity="0"></stop></linearGradient><linearGradient id="paint6_linear_394_10582" x1="1610.11" y1="724.251" x2="1452.48" y2="724.251" gradientUnits="userSpaceOnUse"><stop stop-color="#EEEEEE"></stop><stop offset="1" stop-color="#F1F2F4" stop-opacity="0"></stop></linearGradient><linearGradient id="paint7_linear_394_10582" x1="570.026" y1="873.582" x2="344.935" y2="873.582" gradientUnits="userSpaceOnUse"><stop stop-color="#2F3A5F"></stop><stop offset="1" stop-color="#2F3A5F" stop-opacity="0"></stop></linearGradient><linearGradient id="paint8_linear_394_10582" x1="326.026" y1="900.582" x2="100.935" y2="900.582" gradientUnits="userSpaceOnUse"><stop stop-color="#2F3A5F"></stop><stop offset="1" stop-color="#2F3A5F" stop-opacity="0"></stop></linearGradient><linearGradient id="paint9_linear_394_10582" x1="1883.03" y1="30.5816" x2="1657.94" y2="30.5816" gradientUnits="userSpaceOnUse"><stop stop-color="#2F3A5F"></stop><stop offset="1" stop-color="#2F3A5F" stop-opacity="0"></stop></linearGradient><linearGradient id="paint10_linear_394_10582" x1="458.326" y1="536.755" x2="-75.0638" y2="536.755" gradientUnits="userSpaceOnUse"><stop stop-color="#2F3A5F"></stop><stop offset="1" stop-color="#2F3A5F" stop-opacity="0"></stop></linearGradient><linearGradient id="paint11_linear_394_10582" x1="1872.33" y1="711.332" x2="1338.94" y2="711.332" gradientUnits="userSpaceOnUse"><stop stop-color="#2F3A5F"></stop><stop offset="1" stop-color="#2F3A5F" stop-opacity="0"></stop></linearGradient></defs></svg>