<svg xmlns="http://www.w3.org/2000/svg" width="1917" height="778" viewBox="0 0 1917 778" fill="none"><rect x="293.712" y="377" width="100" height="24" rx="12" fill="url(#paint0_linear_183_7016)"></rect><rect x="-150" y="115" width="386.37" height="110.215" rx="55.1073" fill="url(#paint1_linear_183_7016)"></rect><path d="M609.496 81.1073C609.496 50.6724 634.168 26 664.603 26H760.759C791.194 26 815.866 50.6724 815.866 81.1073C815.866 111.542 791.194 136.215 760.759 136.215H664.603C634.168 136.215 609.496 111.542 609.496 81.1073Z" fill="url(#paint2_linear_183_7016)"></path><path d="M1630 165.107C1630 134.672 1654.67 110 1685.11 110H1781.26C1811.7 110 1836.37 134.672 1836.37 165.107C1836.37 195.542 1811.7 220.215 1781.26 220.215H1685.11C1654.67 220.215 1630 195.542 1630 165.107Z" fill="url(#paint3_linear_183_7016)"></path><path d="M270.496 345.5C270.496 320.923 290.419 301 314.996 301H454.212C478.788 301 498.712 320.923 498.712 345.5C498.712 370.077 478.788 390 454.212 390H314.996C290.419 390 270.496 370.077 270.496 345.5Z" fill="url(#paint4_linear_183_7016)"></path><rect x="1675.5" width="264.784" height="64" rx="32" fill="url(#paint5_linear_183_7016)"></rect><path opacity="0.6" d="M189.904 459.885C189.904 427.569 216.101 401.372 248.417 401.372H570.983C603.299 401.372 629.496 427.569 629.496 459.885C629.496 492.201 603.299 518.398 570.983 518.398H248.417C216.101 518.398 189.904 492.201 189.904 459.885Z" fill="url(#paint6_linear_183_7016)"></path><rect opacity="0.6" x="1787.5" y="401" width="309.592" height="117.026" rx="58.5128" fill="url(#paint7_linear_183_7016)"></rect><path d="M1307 755C1307 699.772 1351.77 655 1407 655H1721.71C1776.93 655 1821.71 699.772 1821.71 755C1821.71 810.228 1776.93 855 1721.71 855H1407C1351.77 855 1307 810.228 1307 755Z" fill="url(#paint8_linear_183_7016)"></path><defs><linearGradient id="paint0_linear_183_7016" x1="393.712" y1="388.907" x2="305.45" y2="388.907" gradientUnits="userSpaceOnUse"><stop stop-color="#1CC4DB"></stop><stop offset="1" stop-color="#F1F2F4" stop-opacity="0"></stop></linearGradient><linearGradient id="paint1_linear_183_7016" x1="236.372" y1="169.68" x2="-104.647" y2="169.68" gradientUnits="userSpaceOnUse"><stop stop-color="#EEEEEE"></stop><stop offset="1" stop-color="#F1F2F4" stop-opacity="0"></stop></linearGradient><linearGradient id="paint2_linear_183_7016" x1="815.868" y1="80.6801" x2="474.849" y2="80.6801" gradientUnits="userSpaceOnUse"><stop stop-color="#EEEEEE"></stop><stop offset="1" stop-color="#F1F2F4" stop-opacity="0"></stop></linearGradient><linearGradient id="paint3_linear_183_7016" x1="1836.37" y1="164.68" x2="1495.35" y2="164.68" gradientUnits="userSpaceOnUse"><stop stop-color="#EEEEEE"></stop><stop offset="1" stop-color="#F1F2F4" stop-opacity="0"></stop></linearGradient><linearGradient id="paint4_linear_183_7016" x1="615.929" y1="345.155" x2="290.933" y2="345.155" gradientUnits="userSpaceOnUse"><stop stop-color="#1CC4DB"></stop><stop offset="1" stop-color="#F1F2F4" stop-opacity="0"></stop></linearGradient><linearGradient id="paint5_linear_183_7016" x1="1940.28" y1="31.7519" x2="1706.58" y2="31.7519" gradientUnits="userSpaceOnUse"><stop stop-color="#EEEEEE"></stop><stop offset="1" stop-color="#F1F2F4" stop-opacity="0"></stop></linearGradient><linearGradient id="paint6_linear_183_7016" x1="675.472" y1="459.431" x2="402.22" y2="459.431" gradientUnits="userSpaceOnUse"><stop stop-color="#EEEEEE"></stop><stop offset="1" stop-color="#F1F2F4" stop-opacity="0"></stop></linearGradient><linearGradient id="paint7_linear_183_7016" x1="2097.09" y1="459.059" x2="1823.84" y2="459.059" gradientUnits="userSpaceOnUse"><stop stop-color="#EEEEEE"></stop><stop offset="1" stop-color="#F1F2F4" stop-opacity="0"></stop></linearGradient><linearGradient id="paint8_linear_183_7016" x1="2086.07" y1="754.225" x2="1353.09" y2="754.225" gradientUnits="userSpaceOnUse"><stop stop-color="#1CC4DB"></stop><stop offset="1" stop-color="#F1F2F4" stop-opacity="0"></stop></linearGradient></defs></svg>