<svg xmlns="http://www.w3.org/2000/svg" width="1920" height="923" viewBox="0 0 1920 923" fill="none"><g clip-path="url(#clip0_715_3808)"><path d="M1693.71 358.778L1719.59 282.301C1643.14 244.471 1590.73 166.952 1590.73 77.4542C1590.72 -49.2683 1695.8 -152 1825.41 -152C1955.02 -152 2060.11 -49.2683 2060.11 77.4542C2060.11 166.952 2007.7 244.471 1931.25 282.301L1957.13 358.778L2088.83 748H1562L1693.71 358.767V358.778Z" fill="url(#paint0_linear_715_3808)"></path><path opacity="0.4" d="M59.6044 937.379L-790 810.11L-281.945 937.379" fill="url(#paint1_linear_715_3808)" fill-opacity="0.02"></path><path opacity="0.5" d="M59.6064 937.381L-717.764 534.937L-281.406 937.381" fill="url(#paint2_linear_715_3808)" fill-opacity="0.05"></path><path opacity="0.6" d="M59.6104 937.379L-473.542 325.113L-280.672 937.379" fill="url(#paint3_linear_715_3808)" fill-opacity="0.06"></path><path opacity="0.6" d="M59.6064 937.376L-31.8153 266.636L-280.923 937.376" fill="url(#paint4_linear_715_3808)" fill-opacity="0.11"></path><path opacity="0.7" d="M60.0519 937.378L269.428 246L-280.923 937.378H60.0519Z" fill="url(#paint5_linear_715_3808)" fill-opacity="0.19"></path><path d="M61.0698 937.376L579 266.636L-280.923 937.376H61.0698Z" fill="url(#paint6_linear_715_3808)"></path></g><defs><linearGradient id="paint0_linear_715_3808" x1="1920.75" y1="300.459" x2="1562" y2="297.9" gradientUnits="userSpaceOnUse"><stop stop-color="#E42F33"></stop><stop offset="1" stop-color="#F86165" stop-opacity="0.17"></stop></linearGradient><linearGradient id="paint1_linear_715_3808" x1="55.2228" y1="777.8" x2="-704.696" y2="946.373" gradientUnits="userSpaceOnUse"><stop offset="0.41" stop-color="#FF8BA5"></stop><stop offset="0.44" stop-color="#EF83A5"></stop><stop offset="0.56" stop-color="#B065A9"></stop><stop offset="0.67" stop-color="#7C4CAD"></stop><stop offset="0.77" stop-color="#5438AF"></stop><stop offset="0.86" stop-color="#362AB1"></stop><stop offset="0.94" stop-color="#2522B2"></stop><stop offset="1" stop-color="#1F1FB3"></stop></linearGradient><linearGradient id="paint2_linear_715_3808" x1="22.7292" y1="656.555" x2="-612.663" y2="798.716" gradientUnits="userSpaceOnUse"><stop offset="0.41" stop-color="#FF8BA5"></stop><stop offset="0.44" stop-color="#EF83A5"></stop><stop offset="0.56" stop-color="#B065A9"></stop><stop offset="0.67" stop-color="#7C4CAD"></stop><stop offset="0.77" stop-color="#5438AF"></stop><stop offset="0.86" stop-color="#362AB1"></stop><stop offset="0.94" stop-color="#2522B2"></stop><stop offset="1" stop-color="#1F1FB3"></stop></linearGradient><linearGradient id="paint3_linear_715_3808" x1="-4.34138" y1="585.499" x2="-370.221" y2="667.535" gradientUnits="userSpaceOnUse"><stop offset="0.41" stop-color="#FF8BA5"></stop><stop offset="0.44" stop-color="#EF83A5"></stop><stop offset="0.56" stop-color="#B065A9"></stop><stop offset="0.67" stop-color="#7C4CAD"></stop><stop offset="0.77" stop-color="#5438AF"></stop><stop offset="0.86" stop-color="#362AB1"></stop><stop offset="0.94" stop-color="#2522B2"></stop><stop offset="1" stop-color="#1F1FB3"></stop></linearGradient><linearGradient id="paint4_linear_715_3808" x1="56.0505" y1="592.451" x2="-312.824" y2="674.866" gradientUnits="userSpaceOnUse"><stop stop-color="#FF8BA5"></stop><stop offset="1" stop-color="#1F1FB3"></stop></linearGradient><linearGradient id="paint5_linear_715_3808" x1="363.434" y1="546.778" x2="-288.424" y2="692.774" gradientUnits="userSpaceOnUse"><stop stop-color="#FF8BA5" stop-opacity="0.63"></stop><stop offset="1" stop-color="#1F1FB3"></stop></linearGradient><linearGradient id="paint6_linear_715_3808" x1="674.472" y1="522.034" x2="-259.36" y2="731.564" gradientUnits="userSpaceOnUse"><stop offset="0.41" stop-color="#FF8BA5"></stop><stop offset="0.44" stop-color="#EF83A5"></stop><stop offset="0.56" stop-color="#B065A9"></stop><stop offset="0.67" stop-color="#7C4CAD"></stop><stop offset="0.77" stop-color="#5438AF"></stop><stop offset="0.86" stop-color="#362AB1"></stop><stop offset="0.94" stop-color="#2522B2"></stop><stop offset="1" stop-color="#1F1FB3"></stop></linearGradient><clipPath id="clip0_715_3808"><rect width="1920" height="923" fill="white"></rect></clipPath></defs></svg>