<svg xmlns="http://www.w3.org/2000/svg" width="1392" height="892" viewBox="0 0 1392 892" fill="none"><rect x="-89" y="-33" width="624" height="178" rx="89" fill="url(#paint0_linear_2_4199)"></rect><rect opacity="0.4" x="-51" y="717" width="425" height="175" rx="87.5" fill="url(#paint1_linear_2_4199)"></rect><rect x="-37" y="117" width="227" height="122" rx="61" fill="url(#paint2_linear_2_4199)"></rect><rect x="409" y="608" width="251" height="100" rx="50" fill="url(#paint3_linear_2_4199)"></rect><rect opacity="0.4" x="407" y="748" width="211" height="51" rx="25.5" fill="url(#paint4_linear_2_4199)"></rect><rect x="-33.998" y="737" width="211" height="51" rx="25.5" fill="url(#paint5_linear_2_4199)"></rect><rect opacity="0.6" x="-323" y="386" width="500" height="189" rx="94.5" fill="url(#paint6_linear_2_4199)"></rect><path d="M795.379 241.63C770.65 241.63 750.572 221.679 750.572 197.1C750.572 172.531 770.65 152.577 795.379 152.577H1324.62C1349.35 152.577 1369.43 172.531 1369.43 197.1C1369.43 221.679 1349.35 241.63 1324.62 241.63H795.379ZM1293.99 603.052C1311.94 586.261 1340.25 587.097 1357.14 604.946C1374.04 622.795 1373.2 650.907 1355.24 667.698C1313.85 706.301 1267.07 737.049 1216.65 757.943C1167.33 778.351 1114.58 789.423 1060 789.423C1005.42 789.423 952.671 778.351 903.343 757.943C852.923 737.049 806.146 706.301 764.76 667.698C746.797 650.907 745.956 622.795 762.854 604.946C779.752 587.097 808.052 586.261 826.005 603.052C859.564 634.361 897.239 659.178 937.639 675.905C975.96 691.756 1017.13 700.38 1060 700.38C1102.86 700.38 1144.04 691.756 1182.36 675.905C1222.76 659.181 1260.44 634.361 1293.99 603.052ZM1305.71 376.046C1328 365.669 1354.6 375.274 1365.05 397.435C1375.49 419.586 1375.35 466.489 1353.06 476.866C1312.37 495.837 1261.87 512.521 1213.13 522.582C1166.04 532.331 1111.41 515.513 1060 515.513C1008.59 515.513 958.525 510.221 911.427 500.472C862.703 490.407 817.113 475.329 776.467 456.398C754.175 446.022 724.092 409.959 734.531 387.808C744.974 365.648 801.536 345.208 823.838 355.585C858.123 371.577 892.066 382.722 934.19 391.413C980.058 398.986 982.41 399.276 1033.2 403.348C1079.16 403.348 1149.86 421.903 1190.37 413.524C1232.49 404.83 1271.44 391.998 1305.71 376.046Z" fill="#2F3A5F"></path><path fill-rule="evenodd" clip-rule="evenodd" d="M903.343 757.943C852.923 737.049 806.146 706.301 764.76 667.698C746.797 650.907 745.956 622.795 762.854 604.946C779.752 587.097 808.052 586.261 826.005 603.052C859.564 634.361 897.239 659.178 937.639 675.905C975.96 691.756 1017.13 700.38 1060 700.38C1102.86 700.38 1144.04 691.756 1182.36 675.905C1222.76 659.181 1260.44 634.361 1293.99 603.052C1311.94 586.261 1340.25 587.097 1357.14 604.946C1374.04 622.795 1373.2 650.907 1355.24 667.698C1313.85 706.301 1267.07 737.049 1216.65 757.943C1167.33 778.351 1114.58 789.423 1060 789.423C1005.42 789.423 952.671 778.351 903.343 757.943ZM1278.58 586.56L1278.57 586.562C1246.83 616.18 1211.41 639.443 1173.73 655.043C1138.04 669.805 1099.79 677.804 1060 677.804C1020.21 677.804 981.959 669.806 946.273 655.046C908.582 639.44 873.161 616.172 841.403 586.545L841.401 586.543C814.399 561.309 771.904 562.551 746.463 589.423C720.963 616.359 722.226 658.839 749.347 684.192L749.356 684.201L749.365 684.209C792.576 724.513 841.608 756.797 894.703 778.801L894.715 778.806C946.655 800.294 1002.32 812 1060 812C1117.67 812 1173.35 800.294 1225.28 778.806L1225.29 778.801C1278.39 756.797 1327.42 724.514 1370.63 684.208L1370.64 684.2L1370.65 684.192C1397.77 658.839 1399.03 616.359 1373.53 589.423C1348.09 562.544 1305.58 561.308 1278.58 586.56ZM826.005 387.806L823.838 355.585C856.402 370.774 893.636 383.046 934.19 391.413L934.201 391.415C973.145 399.471 1015.51 403.887 1060 403.887C1104.49 403.887 1146.85 399.471 1185.8 391.415L1185.81 391.413C1226.35 383.045 1263.62 370.736 1296.19 355.578C1329.69 339.982 1369.7 354.356 1385.46 387.806C1401.29 421.384 1386.58 461.26 1353.06 476.866M1365.05 397.435C1354.6 375.274 1328 365.669 1305.71 376.046C1271.44 391.998 1232.49 404.83 1190.37 413.524C1149.86 421.903 1079.16 403.348 1033.2 403.348C982.41 399.276 980.058 398.986 934.19 391.413C892.066 382.722 858.123 371.577 823.838 355.585C801.536 345.208 744.974 365.648 734.531 387.808C724.092 409.959 754.175 446.022 776.467 456.398C817.113 475.329 862.703 490.407 911.427 500.472C958.525 510.221 1008.59 515.513 1060 515.513C1111.41 515.513 1166.04 532.331 1213.13 522.582C1261.87 512.521 1312.37 495.837 1353.06 476.866C1375.35 466.489 1375.49 419.586 1365.05 397.435ZM1213.13 522.582C1164.54 532.641 1112.94 538.09 1060 538.09C1007.06 538.09 955.463 532.641 906.861 522.582C856.521 512.183 809.256 496.574 766.938 476.865C733.417 461.258 718.708 421.385 734.531 387.809M1213.13 522.582C1263.47 512.189 1310.69 496.619 1353.06 476.867ZM823.838 355.585L826.005 387.806ZM795.379 264.206C758.321 264.206 728 234.284 728 197.1C728 159.925 758.322 130 795.379 130H1324.62C1361.67 130 1392 159.924 1392 197.1C1392 234.284 1361.68 264.206 1324.62 264.206H795.379ZM823.838 355.585C790.329 339.994 750.297 354.354 734.531 387.808ZM750.572 197.1C750.572 221.679 770.65 241.63 795.379 241.63H1324.62C1349.35 241.63 1369.43 221.679 1369.43 197.1C1369.43 172.531 1349.35 152.577 1324.62 152.577H795.379C770.65 152.577 750.572 172.531 750.572 197.1Z" fill="#2F3A5F"></path><circle opacity="0.5" cx="797" cy="197" r="45" stroke="url(#paint7_linear_2_4199)" stroke-width="2"></circle><circle opacity="0.5" cx="797" cy="638" r="45" stroke="url(#paint8_linear_2_4199)" stroke-width="2"></circle><defs><linearGradient id="paint0_linear_2_4199" x1="535.002" y1="55.31" x2="-15.7543" y2="55.31" gradientUnits="userSpaceOnUse"><stop stop-color="#2F3A5F"></stop><stop offset="1" stop-color="#2F3A5F" stop-opacity="0"></stop></linearGradient><linearGradient id="paint1_linear_2_4199" x1="374.001" y1="803.822" x2="-1.11309" y2="803.822" gradientUnits="userSpaceOnUse"><stop stop-color="#2F3A5F"></stop><stop offset="1" stop-color="#2F3A5F" stop-opacity="0"></stop></linearGradient><linearGradient id="paint2_linear_2_4199" x1="190.001" y1="177.527" x2="-10.3545" y2="177.527" gradientUnits="userSpaceOnUse"><stop stop-color="#37446F"></stop><stop offset="1" stop-color="#2F3A5F" stop-opacity="0"></stop></linearGradient><linearGradient id="paint3_linear_2_4199" x1="660.001" y1="657.612" x2="438.463" y2="657.612" gradientUnits="userSpaceOnUse"><stop stop-color="#2F3A5F"></stop><stop offset="1" stop-color="#2F3A5F" stop-opacity="0"></stop></linearGradient><linearGradient id="paint4_linear_2_4199" x1="618.001" y1="773.302" x2="431.767" y2="773.302" gradientUnits="userSpaceOnUse"><stop stop-color="#2F3A5F"></stop><stop offset="1" stop-color="#2F3A5F" stop-opacity="0"></stop></linearGradient><linearGradient id="paint5_linear_2_4199" x1="177.003" y1="762.302" x2="-9.23066" y2="762.302" gradientUnits="userSpaceOnUse"><stop stop-color="#2F3A5F"></stop><stop offset="1" stop-color="#2F3A5F" stop-opacity="0"></stop></linearGradient><linearGradient id="paint6_linear_2_4199" x1="177.001" y1="479.767" x2="-264.31" y2="479.767" gradientUnits="userSpaceOnUse"><stop stop-color="#2F3A5F"></stop><stop offset="1" stop-color="#2F3A5F" stop-opacity="0"></stop></linearGradient><linearGradient id="paint7_linear_2_4199" x1="750.355" y1="197.945" x2="843.381" y2="197.595" gradientUnits="userSpaceOnUse"><stop stop-color="#FF8C8F"></stop><stop offset="1" stop-color="#425CB4"></stop></linearGradient><linearGradient id="paint8_linear_2_4199" x1="750.355" y1="638.944" x2="843.381" y2="638.595" gradientUnits="userSpaceOnUse"><stop stop-color="#FF8C8F"></stop><stop offset="1" stop-color="#425CB4"></stop></linearGradient></defs></svg>