<svg xmlns="http://www.w3.org/2000/svg" width="48" height="38" fill="none"><path d="M27.883 35.471c3.584-2.537 6.225-4.67 7.925-6.4 2.956-3.015 4.433-5.847 4.433-8.495 0-.882-.24-1.526-.72-1.93-.48-.405-.998-.607-1.552-.607-1.256.184-2.087.276-2.494.276-2.401 0-4.396-.81-5.985-2.428-1.588-1.618-2.383-3.732-2.383-6.343 0-2.943.868-5.26 2.605-6.951C31.448.864 33.72 0 36.528 0c3.288 0 6.023 1.177 8.202 3.53C46.91 5.885 48 9.14 48 13.296c0 5.884-2.42 11.309-7.26 16.273-2.882 2.906-6.724 5.7-11.527 8.385l-1.33-2.482zm-27.107 0c3.399-2.354 5.967-4.395 7.703-6.123 3.104-3.09 4.655-5.995 4.655-8.716 0-.736-.184-1.361-.554-1.876-.406-.478-.98-.717-1.718-.717-1.22.184-2.032.276-2.438.276-2.439 0-4.452-.81-6.041-2.428C.794 14.27 0 12.1 0 9.378c0-2.5.794-4.689 2.383-6.565C4.009.938 6.373 0 9.477 0c3.03 0 5.69 1.103 7.98 3.31 2.29 2.206 3.436 5.48 3.436 9.82 0 5.883-2.31 11.253-6.928 16.107-2.881 3.016-6.834 5.921-11.86 8.716l-1.33-2.482z" fill="#F3F3F3"></path></svg>