<svg xmlns="http://www.w3.org/2000/svg" width="2272" height="82" fill="none"><path d="M89.28 53.402c-1.719 0-3.237-.29-4.554-.87-1.317-.603-2.355-1.452-3.114-2.546-.76-1.116-1.15-2.466-1.172-4.051h4.52c.045 1.093.436 2.02 1.172 2.779.76.737 1.797 1.105 3.114 1.105 1.139 0 2.043-.268 2.713-.804.67-.558 1.004-1.294 1.004-2.21 0-.96-.301-1.708-.904-2.243-.58-.536-1.361-.971-2.344-1.306l-3.147-1.072c-1.809-.625-3.193-1.428-4.153-2.41-.937-.983-1.406-2.289-1.406-3.918-.022-1.385.302-2.568.971-3.55.692-1.004 1.63-1.774 2.813-2.31 1.183-.558 2.545-.837 4.085-.837 1.563 0 2.936.279 4.119.837 1.205.558 2.143 1.34 2.813 2.344.692 1.004 1.06 2.198 1.105 3.583h-4.588c-.022-.826-.346-1.552-.971-2.177-.603-.647-1.451-.971-2.545-.971-.937-.022-1.73.212-2.377.703-.625.469-.938 1.161-.938 2.076 0 .782.246 1.407.737 1.875.49.447 1.16.826 2.009 1.139.848.312 1.82.647 2.913 1.004 1.16.402 2.221.871 3.181 1.407s1.73 1.25 2.31 2.143c.581.87.871 1.998.871 3.382a6.554 6.554 0 0 1-.937 3.415c-.625 1.05-1.552 1.898-2.78 2.545-1.227.625-2.734.938-4.52.938ZM108.557 53c-1.742 0-3.137-.424-4.186-1.272-1.049-.849-1.574-2.356-1.574-4.52v-7.234h-2.846v-3.583h2.846l.503-4.453h3.783v4.453h4.487v3.583h-4.487v7.267c0 .803.168 1.361.503 1.674.357.29.96.435 1.808.435h2.076V53h-2.913Zm12.419.402c-1.428 0-2.6-.223-3.516-.67-.915-.469-1.596-1.083-2.042-1.842a4.857 4.857 0 0 1-.67-2.511c0-1.54.603-2.79 1.808-3.75 1.206-.96 3.014-1.44 5.425-1.44h4.219v-.402c0-1.139-.324-1.976-.971-2.511-.647-.536-1.451-.804-2.411-.804-.871 0-1.63.212-2.277.636-.647.402-1.049 1.005-1.206 1.808h-4.185c.111-1.205.513-2.254 1.205-3.147.715-.893 1.63-1.574 2.746-2.043 1.116-.49 2.366-.736 3.75-.736 2.367 0 4.231.591 5.592 1.774 1.362 1.183 2.043 2.858 2.043 5.023V53h-3.65l-.402-2.679a6.14 6.14 0 0 1-2.076 2.21c-.87.58-1.998.87-3.382.87Zm.971-3.349c1.228 0 2.177-.401 2.847-1.205.692-.804 1.127-1.797 1.306-2.98h-3.65c-1.139 0-1.954.212-2.445.636-.491.402-.736.904-.736 1.507 0 .647.245 1.15.736 1.506.491.358 1.139.536 1.942.536ZM141.748 53c-1.742 0-3.137-.424-4.186-1.272-1.049-.849-1.574-2.356-1.574-4.52v-7.234h-2.846v-3.583h2.846l.502-4.453h3.784v4.453h4.487v3.583h-4.487v7.267c0 .803.168 1.361.502 1.674.358.29.96.435 1.809.435h2.076V53h-2.913Zm9.004-19.187c-.782 0-1.429-.234-1.942-.703-.492-.469-.737-1.06-.737-1.775 0-.714.245-1.295.737-1.741.513-.469 1.16-.703 1.942-.703.781 0 1.417.234 1.908.703.514.446.77 1.027.77 1.741 0 .714-.256 1.306-.77 1.775-.491.469-1.127.703-1.908.703ZM148.609 53V36.391h4.286V53h-4.286Zm16.896.402c-1.696 0-3.192-.369-4.487-1.105a8.16 8.16 0 0 1-3.08-3.08c-.737-1.318-1.105-2.825-1.105-4.521 0-1.697.368-3.204 1.105-4.52a8.161 8.161 0 0 1 3.08-3.082c1.295-.736 2.791-1.105 4.487-1.105 2.121 0 3.907.559 5.358 1.675 1.451 1.094 2.377 2.612 2.779 4.554h-4.52c-.224-.804-.67-1.429-1.34-1.875-.647-.47-1.417-.704-2.31-.704-1.183 0-2.188.447-3.014 1.34-.826.893-1.239 2.132-1.239 3.717s.413 2.824 1.239 3.717c.826.893 1.831 1.339 3.014 1.339.893 0 1.663-.223 2.31-.67.67-.446 1.116-1.083 1.34-1.908h4.52c-.402 1.875-1.328 3.382-2.779 4.52-1.451 1.139-3.237 1.708-5.358 1.708Zm25.043-.369-6.429-23.473h3.014l5.056 20.125 5.76-20.125h3.114l5.592 20.125 5.123-20.125h3.014L208.229 53h-3.215l-5.592-19.354L193.696 53l-3.148.033ZM218.1 53V29.56h7.702c1.83 0 3.337.302 4.52.905 1.183.602 2.054 1.417 2.612 2.444.58 1.027.871 2.188.871 3.482 0 1.273-.28 2.422-.838 3.45-.558 1.026-1.428 1.852-2.611 2.477-1.184.603-2.702.904-4.554.904h-4.889V53H218.1Zm2.813-12.155h4.822c1.875 0 3.203-.39 3.984-1.172.804-.804 1.206-1.898 1.206-3.282 0-1.406-.402-2.5-1.206-3.281-.781-.804-2.109-1.206-3.984-1.206h-4.822v8.94Z" fill="#fff"></path><path d="M35.517.358H0v81.106h61V24.97L35.517.358Z" fill="url(#a)"></path><path d="M35.517 24.97H61L35.517.358V24.97Z" fill="url(#b)"></path><path d="M509.28 53.402c-1.719 0-3.237-.29-4.554-.87-1.317-.603-2.355-1.452-3.114-2.546-.759-1.116-1.15-2.466-1.172-4.051h4.52c.045 1.093.436 2.02 1.172 2.779.759.737 1.797 1.105 3.114 1.105 1.139 0 2.043-.268 2.713-.804.669-.558 1.004-1.294 1.004-2.21 0-.96-.301-1.708-.904-2.243-.58-.536-1.362-.971-2.344-1.306l-3.147-1.072c-1.809-.625-3.193-1.428-4.153-2.41-.937-.983-1.406-2.289-1.406-3.918-.022-1.385.301-2.568.971-3.55.692-1.004 1.63-1.774 2.813-2.31 1.183-.558 2.545-.837 4.085-.837 1.563 0 2.936.279 4.119.837 1.205.558 2.143 1.34 2.813 2.344.692 1.004 1.06 2.198 1.105 3.583h-4.588c-.022-.826-.346-1.552-.971-2.177-.603-.647-1.451-.971-2.545-.971-.937-.022-1.73.212-2.377.703-.625.469-.938 1.161-.938 2.076 0 .782.246 1.407.737 1.875.491.447 1.161.826 2.009 1.139.848.312 1.819.647 2.913 1.004 1.161.402 2.221.871 3.181 1.407a6.47 6.47 0 0 1 2.311 2.143c.58.87.87 1.998.87 3.382a6.555 6.555 0 0 1-.937 3.415c-.625 1.05-1.552 1.898-2.78 2.545-1.227.625-2.734.938-4.52.938Zm19.946 0c-1.674 0-3.158-.357-4.453-1.072a7.75 7.75 0 0 1-3.047-3.013c-.737-1.295-1.105-2.79-1.105-4.487 0-1.72.357-3.248 1.071-4.588.737-1.34 1.741-2.377 3.014-3.114 1.295-.759 2.813-1.139 4.554-1.139 1.629 0 3.069.358 4.319 1.072a7.539 7.539 0 0 1 2.914 2.947c.714 1.227 1.071 2.6 1.071 4.118 0 .246-.011.503-.033.77 0 .268-.011.547-.034.838h-12.624c.09 1.294.536 2.31 1.34 3.047.826.736 1.819 1.105 2.98 1.105.871 0 1.596-.19 2.176-.57a3.701 3.701 0 0 0 1.34-1.54h4.353a7.928 7.928 0 0 1-1.574 2.88c-.714.848-1.607 1.518-2.679 2.01-1.049.49-2.243.736-3.583.736Zm.034-13.93c-1.049 0-1.976.301-2.779.904-.804.58-1.317 1.473-1.541 2.679h8.271c-.067-1.094-.469-1.965-1.205-2.612-.737-.647-1.652-.971-2.746-.971Zm20.046 13.93c-1.697 0-3.192-.369-4.487-1.105a8.163 8.163 0 0 1-3.081-3.08c-.736-1.318-1.105-2.825-1.105-4.521 0-1.697.369-3.204 1.105-4.52a8.164 8.164 0 0 1 3.081-3.082c1.295-.736 2.79-1.105 4.487-1.105 2.121 0 3.907.559 5.358 1.675 1.451 1.094 2.377 2.612 2.779 4.554h-4.521c-.223-.804-.669-1.429-1.339-1.875-.647-.47-1.418-.704-2.311-.704-1.183 0-2.187.447-3.013 1.34-.826.893-1.239 2.132-1.239 3.717s.413 2.824 1.239 3.717c.826.893 1.83 1.339 3.013 1.339.893 0 1.664-.223 2.311-.67.67-.446 1.116-1.083 1.339-1.908h4.521c-.402 1.875-1.328 3.382-2.779 4.52-1.451 1.139-3.237 1.708-5.358 1.708Zm18.169 0c-2.076 0-3.683-.648-4.822-1.942-1.116-1.295-1.674-3.193-1.674-5.693v-9.376h4.253v8.974c0 1.43.29 2.523.87 3.282.581.759 1.496 1.138 2.746 1.138 1.183 0 2.154-.424 2.913-1.272.782-.848 1.172-2.031 1.172-3.55v-8.572h4.287V53h-3.784l-.335-2.813a5.807 5.807 0 0 1-2.244 2.344c-.96.58-2.087.87-3.382.87ZM581.619 53V36.391h3.818l.402 3.114a6.855 6.855 0 0 1 2.444-2.544c1.049-.648 2.277-.971 3.683-.971v4.52h-1.205c-.938 0-1.775.145-2.512.435-.736.29-1.317.793-1.741 1.507-.402.715-.602 1.708-.602 2.98V53h-4.287Zm15.587-19.187c-.781 0-1.428-.234-1.942-.703-.491-.469-.737-1.06-.737-1.775 0-.714.246-1.295.737-1.741.514-.469 1.161-.703 1.942-.703.782 0 1.418.234 1.909.703.513.446.77 1.027.77 1.741 0 .714-.257 1.306-.77 1.775-.491.469-1.127.703-1.909.703ZM595.063 53V36.391h4.286V53h-4.286Zm16.16 0c-1.741 0-3.136-.424-4.185-1.272-1.05-.849-1.574-2.356-1.574-4.52v-7.234h-2.847v-3.583h2.847l.502-4.453h3.784v4.453h4.487v3.583h-4.487v7.267c0 .803.167 1.361.502 1.674.357.29.96.435 1.808.435h2.076V53h-2.913Zm8.77 7.367 3.851-8.472h-1.005l-6.463-15.504h4.655l4.654 11.687 4.856-11.687h4.554l-10.548 23.976h-4.554Z" fill="#fff"></path><g clip-path="url(#c)"><path d="m464 46.537-2.358-6.968c6.965-3.447 11.74-10.51 11.74-18.664.001-11.546-9.572-20.906-21.381-20.906-11.81 0-21.384 9.36-21.384 20.906 0 8.154 4.775 15.217 11.74 18.664l-2.358 6.968L428 81.999h48l-12-35.463Z" fill="url(#d)"></path></g><path d="M1442.28 53.402c-1.72 0-3.24-.29-4.55-.87-1.32-.603-2.36-1.452-3.12-2.546-.76-1.116-1.15-2.466-1.17-4.051h4.52c.05 1.093.44 2.02 1.17 2.779.76.737 1.8 1.105 3.12 1.105 1.13 0 2.04-.268 2.71-.804.67-.558 1-1.294 1-2.21 0-.96-.3-1.708-.9-2.243-.58-.536-1.36-.971-2.34-1.306-.99-.335-2.04-.692-3.15-1.072-1.81-.625-3.19-1.428-4.15-2.41-.94-.983-1.41-2.289-1.41-3.918-.02-1.385.3-2.568.97-3.55.69-1.004 1.63-1.774 2.81-2.31 1.19-.558 2.55-.837 4.09-.837 1.56 0 2.93.279 4.12.837 1.2.558 2.14 1.34 2.81 2.344.69 1.004 1.06 2.198 1.1 3.583h-4.58c-.03-.826-.35-1.552-.97-2.177-.61-.647-1.45-.971-2.55-.971-.94-.022-1.73.212-2.38.703-.62.469-.93 1.161-.93 2.076 0 .782.24 1.407.73 1.875.49.447 1.16.826 2.01 1.139.85.312 1.82.647 2.92 1.004 1.16.402 2.22.871 3.18 1.407s1.73 1.25 2.31 2.143c.58.87.87 1.998.87 3.382 0 1.228-.32 2.366-.94 3.415-.63 1.05-1.55 1.898-2.78 2.545-1.23.625-2.73.938-4.52.938Zm11.88 6.965V36.39h3.81l.47 2.378c.54-.737 1.24-1.384 2.11-1.942.9-.558 2.04-.837 3.45-.837 1.56 0 2.96.379 4.19 1.138a8.175 8.175 0 0 1 2.91 3.114c.71 1.317 1.07 2.813 1.07 4.487s-.36 3.17-1.07 4.487a8.243 8.243 0 0 1-2.91 3.08c-1.23.737-2.63 1.106-4.19 1.106-1.25 0-2.34-.235-3.28-.703a5.903 5.903 0 0 1-2.28-1.976v9.644h-4.28Zm8.94-10.715c1.36 0 2.49-.458 3.38-1.373.89-.916 1.34-2.099 1.34-3.55 0-1.45-.45-2.645-1.34-3.583-.89-.937-2.02-1.406-3.38-1.406-1.39 0-2.53.469-3.42 1.406-.87.916-1.3 2.099-1.3 3.55 0 1.45.43 2.645 1.3 3.583.89.915 2.03 1.372 3.42 1.372Zm20.97 3.75c-1.67 0-3.16-.357-4.45-1.072a7.75 7.75 0 0 1-3.05-3.013c-.74-1.295-1.11-2.79-1.11-4.487 0-1.72.36-3.248 1.08-4.588.73-1.34 1.74-2.377 3.01-3.114 1.29-.759 2.81-1.139 4.55-1.139 1.63 0 3.07.358 4.32 1.072a7.614 7.614 0 0 1 2.92 2.947c.71 1.227 1.07 2.6 1.07 4.118 0 .246-.01.503-.04.77 0 .268-.01.547-.03.838h-12.62c.09 1.294.53 2.31 1.34 3.047.82.736 1.82 1.105 2.98 1.105.87 0 1.59-.19 2.17-.57a3.653 3.653 0 0 0 1.34-1.54h4.36a8.004 8.004 0 0 1-1.58 2.88c-.71.848-1.61 1.518-2.68 2.01-1.05.49-2.24.736-3.58.736Zm.03-13.93c-1.05 0-1.97.301-2.78.904-.8.58-1.31 1.473-1.54 2.679h8.27c-.06-1.094-.46-1.965-1.2-2.612s-1.65-.971-2.75-.971Zm19.98 13.93c-1.67 0-3.16-.357-4.45-1.072a7.75 7.75 0 0 1-3.05-3.013c-.73-1.295-1.1-2.79-1.1-4.487 0-1.72.35-3.248 1.07-4.588.74-1.34 1.74-2.377 3.01-3.114 1.3-.759 2.82-1.139 4.56-1.139 1.63 0 3.07.358 4.32 1.072a7.522 7.522 0 0 1 2.91 2.947c.71 1.227 1.07 2.6 1.07 4.118 0 .246-.01.503-.03.77 0 .268-.01.547-.04.838h-12.62c.09 1.294.54 2.31 1.34 3.047.83.736 1.82 1.105 2.98 1.105.87 0 1.6-.19 2.18-.57.6-.401 1.05-.915 1.34-1.54h4.35a7.855 7.855 0 0 1-1.58 2.88c-.71.848-1.6 1.518-2.67 2.01-1.05.49-2.25.736-3.59.736Zm.04-13.93c-1.05 0-1.98.301-2.78.904-.81.58-1.32 1.473-1.54 2.679h8.27c-.07-1.094-.47-1.965-1.21-2.612-.73-.647-1.65-.971-2.74-.971Zm19.54 13.93c-1.56 0-2.96-.38-4.19-1.139-1.22-.759-2.19-1.797-2.91-3.114-.71-1.317-1.07-2.813-1.07-4.487s.36-3.159 1.07-4.453c.72-1.317 1.69-2.344 2.91-3.081 1.23-.759 2.63-1.139 4.19-1.139 1.25 0 2.34.235 3.28.704.94.468 1.7 1.127 2.28 1.975v-9.777h4.28V53h-3.81l-.47-2.377c-.54.736-1.25 1.384-2.14 1.942-.87.558-2.01.837-3.42.837Zm.9-3.75c1.39 0 2.52-.458 3.39-1.373.89-.938 1.34-2.132 1.34-3.583s-.45-2.634-1.34-3.55c-.87-.937-2-1.406-3.39-1.406-1.36 0-2.48.457-3.38 1.373-.89.915-1.34 2.098-1.34 3.55 0 1.45.45 2.645 1.34 3.582.9.938 2.02 1.407 3.38 1.407Z" fill="#fff"></path><path opacity=".4" d="m1367.74 82-100.77-15.095L1327.23 82" fill="url(#e)" fill-opacity=".02"></path><path opacity=".5" d="m1367.74 82-92.2-47.731L1327.29 82" fill="url(#f)" fill-opacity=".05"></path><path opacity=".6" d="m1367.74 82-63.23-72.617L1327.38 82" fill="url(#g)" fill-opacity=".06"></path><path opacity=".6" d="M1367.74 82 1356.9 2.446 1327.35 82" fill="url(#h)" fill-opacity=".11"></path><path opacity=".7" d="m1367.79 82 24.83-82-65.27 82h40.44Z" fill="url(#i)" fill-opacity=".19"></path><path d="m1367.91 82 61.43-79.553L1327.35 82h40.56Z" fill="url(#j)"></path><path d="M972.583 53.402c-1.719 0-3.237-.29-4.554-.87-1.317-.603-2.355-1.452-3.114-2.546-.759-1.116-1.15-2.466-1.172-4.051h4.52c.045 1.093.435 2.02 1.172 2.779.759.737 1.797 1.105 3.114 1.105 1.139 0 2.043-.268 2.712-.804.67-.558 1.005-1.294 1.005-2.21 0-.96-.301-1.708-.904-2.243-.58-.536-1.362-.971-2.344-1.306l-3.148-1.072c-1.808-.625-3.192-1.428-4.152-2.41-.937-.983-1.406-2.289-1.406-3.918-.022-1.385.301-2.568.971-3.55.692-1.004 1.63-1.774 2.813-2.31 1.183-.558 2.545-.837 4.085-.837 1.562 0 2.935.279 4.119.837 1.205.558 2.143 1.34 2.812 2.344.692 1.004 1.061 2.198 1.105 3.583h-4.587c-.022-.826-.346-1.552-.971-2.177-.603-.647-1.451-.971-2.545-.971-.938-.022-1.73.212-2.378.703-.625.469-.937 1.161-.937 2.076 0 .782.245 1.407.737 1.875.491.447 1.16.826 2.009 1.139.848.312 1.819.647 2.913 1.004 1.161.402 2.221.871 3.181 1.407s1.73 1.25 2.31 2.143c.581.87.871 1.998.871 3.382a6.546 6.546 0 0 1-.938 3.415c-.625 1.05-1.551 1.898-2.779 2.545-1.228.625-2.734.938-4.52.938Zm20.013 0c-1.696 0-3.192-.369-4.487-1.105a8.163 8.163 0 0 1-3.081-3.08c-.736-1.318-1.105-2.825-1.105-4.521 0-1.697.369-3.204 1.105-4.52a8.164 8.164 0 0 1 3.081-3.082c1.295-.736 2.791-1.105 4.487-1.105 2.121 0 3.907.559 5.358 1.675 1.451 1.094 2.376 2.612 2.776 4.554h-4.518c-.223-.804-.669-1.429-1.339-1.875-.647-.47-1.417-.704-2.31-.704-1.184 0-2.188.447-3.014 1.34-.826.893-1.239 2.132-1.239 3.717s.413 2.824 1.239 3.717c.826.893 1.83 1.339 3.014 1.339.893 0 1.663-.223 2.31-.67.67-.446 1.116-1.083 1.339-1.908h4.518c-.4 1.875-1.325 3.382-2.776 4.52-1.451 1.139-3.237 1.708-5.358 1.708Zm17.664 0c-1.43 0-2.6-.223-3.51-.67-.92-.469-1.6-1.083-2.05-1.842a4.925 4.925 0 0 1-.67-2.511c0-1.54.61-2.79 1.81-3.75 1.21-.96 3.02-1.44 5.43-1.44h4.22v-.402c0-1.139-.33-1.976-.97-2.511-.65-.536-1.46-.804-2.42-.804-.87 0-1.62.212-2.27.636-.65.402-1.05 1.005-1.21 1.808h-4.18c.11-1.205.51-2.254 1.2-3.147.72-.893 1.63-1.574 2.75-2.043 1.11-.49 2.36-.736 3.75-.736 2.36 0 4.23.591 5.59 1.774 1.36 1.183 2.04 2.858 2.04 5.023V53h-3.65l-.4-2.679a6.14 6.14 0 0 1-2.07 2.21c-.88.58-2 .87-3.39.87Zm.97-3.349c1.23 0 2.18-.401 2.85-1.205.69-.804 1.13-1.797 1.31-2.98h-3.65c-1.14 0-1.96.212-2.45.636-.49.402-.73.904-.73 1.507 0 .647.24 1.15.73 1.506.49.358 1.14.536 1.94.536ZM1023.86 53V28.89h4.29V53h-4.29Zm14.39.402c-1.42 0-2.6-.223-3.51-.67-.92-.469-1.6-1.083-2.04-1.842a4.829 4.829 0 0 1-.67-2.511c0-1.54.6-2.79 1.8-3.75 1.21-.96 3.02-1.44 5.43-1.44h4.22v-.402c0-1.139-.33-1.976-.97-2.511-.65-.536-1.45-.804-2.41-.804-.87 0-1.63.212-2.28.636-.65.402-1.05 1.005-1.21 1.808h-4.18c.11-1.205.51-2.254 1.2-3.147.72-.893 1.63-1.574 2.75-2.043 1.12-.49 2.37-.736 3.75-.736 2.37 0 4.23.591 5.59 1.774 1.36 1.183 2.04 2.858 2.04 5.023V53h-3.65l-.4-2.679a6.14 6.14 0 0 1-2.07 2.21c-.87.58-2 .87-3.39.87Zm.98-3.349c1.22 0 2.17-.401 2.84-1.205.69-.804 1.13-1.797 1.31-2.98h-3.65c-1.14 0-1.96.212-2.45.636-.49.402-.73.904-.73 1.507 0 .647.24 1.15.73 1.506.49.358 1.14.536 1.95.536Zm22.47 3.349c-1.25 0-2.34-.235-3.28-.703a5.903 5.903 0 0 1-2.28-1.976l-.47 2.277h-3.82V28.89h4.29v9.879c.54-.737 1.24-1.384 2.11-1.942.89-.558 2.04-.837 3.45-.837 1.56 0 2.96.379 4.18 1.138 1.23.759 2.2 1.797 2.92 3.114.71 1.317 1.07 2.813 1.07 4.487s-.36 3.17-1.07 4.487c-.72 1.295-1.69 2.322-2.92 3.08-1.22.737-2.62 1.106-4.18 1.106Zm-.9-3.75c1.36 0 2.48-.458 3.38-1.373.89-.916 1.34-2.099 1.34-3.55 0-1.45-.45-2.645-1.34-3.583-.9-.937-2.02-1.406-3.38-1.406-1.39 0-2.53.469-3.42 1.406-.87.916-1.31 2.099-1.31 3.55 0 1.45.44 2.645 1.31 3.583.89.915 2.03 1.372 3.42 1.372Zm15.21-15.839c-.78 0-1.43-.234-1.94-.703-.49-.469-.74-1.06-.74-1.775 0-.714.25-1.295.74-1.741.51-.469 1.16-.703 1.94-.703s1.42.234 1.91.703c.51.446.77 1.027.77 1.741 0 .714-.26 1.306-.77 1.775-.49.469-1.13.703-1.91.703ZM1073.87 53V36.391h4.28V53h-4.28Zm8.76 0V28.89h4.28V53h-4.28Zm10.97-19.187c-.78 0-1.43-.234-1.94-.703-.49-.469-.74-1.06-.74-1.775 0-.714.25-1.295.74-1.741.51-.469 1.16-.703 1.94-.703s1.42.234 1.91.703c.51.446.77 1.027.77 1.741 0 .714-.26 1.306-.77 1.775-.49.469-1.13.703-1.91.703ZM1091.46 53V36.391h4.28V53h-4.28Zm16.16 0c-1.74 0-3.14-.424-4.19-1.272-1.05-.849-1.57-2.356-1.57-4.52v-7.234h-2.85v-3.583h2.85l.5-4.453h3.79v4.453h4.48v3.583h-4.48v7.267c0 .803.16 1.361.5 1.674.35.29.96.435 1.81.435h2.07V53h-2.91Zm8.77 7.367 3.85-8.472h-1.01l-6.46-15.504h4.66l4.65 11.687 4.86-11.687h4.55l-10.55 23.976h-4.55Z" fill="#fff"></path><path opacity=".8" d="m884.547 0 39.851 18.79-41.768 14.276 8.767-15.943.103-.177-.08-.197L884.547 0Z" fill="#1CC4DB"></path><path d="m866.555 0 9.548 4.45-10.007 3.381 2.1-3.776.026-.041-.019-.047L866.557 0h-.002Z" fill="#FF7BE5"></path><path d="m829.806.004 97.254 46.593L825.129 82l21.393-39.536.248-.44-.192-.491L829.806 0v.004Z" fill="url(#k)"></path><path d="M1874.82 53V29.56h4.28v9.744h10.52V29.56h4.28V53h-4.28V42.787h-10.52V53h-4.28Zm31.61.402c-1.67 0-3.16-.358-4.45-1.072a7.75 7.75 0 0 1-3.05-3.014c-.74-1.294-1.11-2.79-1.11-4.487 0-1.718.36-3.248 1.08-4.587.73-1.34 1.74-2.377 3.01-3.114 1.29-.76 2.81-1.139 4.55-1.139 1.63 0 3.07.358 4.32 1.072a7.616 7.616 0 0 1 2.92 2.947c.71 1.227 1.07 2.6 1.07 4.118 0 .246-.01.503-.04.77 0 .268-.01.547-.03.837h-12.62c.09 1.295.53 2.311 1.34 3.048.82.736 1.82 1.105 2.98 1.105.87 0 1.59-.19 2.17-.57a3.653 3.653 0 0 0 1.34-1.54h4.36a8.004 8.004 0 0 1-1.58 2.88c-.71.848-1.61 1.518-2.68 2.009-1.05.491-2.24.737-3.58.737Zm.03-13.93c-1.05 0-1.97.301-2.78.904-.8.58-1.31 1.473-1.54 2.679h8.27c-.06-1.094-.46-1.965-1.2-2.612-.74-.648-1.65-.971-2.75-.971Zm17.64 13.93c-1.43 0-2.6-.224-3.52-.67-.91-.469-1.59-1.083-2.04-1.842a4.829 4.829 0 0 1-.67-2.511c0-1.54.6-2.79 1.81-3.75 1.2-.96 3.01-1.44 5.42-1.44h4.22v-.402c0-1.139-.32-1.976-.97-2.512-.65-.535-1.45-.803-2.41-.803-.87 0-1.63.212-2.28.636-.64.402-1.05 1.005-1.2 1.808h-4.19c.11-1.205.52-2.255 1.21-3.147.71-.893 1.63-1.574 2.74-2.043 1.12-.491 2.37-.737 3.75-.737 2.37 0 4.23.592 5.6 1.775 1.36 1.183 2.04 2.857 2.04 5.023V53h-3.65l-.4-2.68c-.49.894-1.19 1.63-2.08 2.211-.87.58-2 .87-3.38.87Zm.97-3.349c1.23 0 2.18-.402 2.85-1.205.69-.804 1.12-1.797 1.3-2.98h-3.65c-1.14 0-1.95.212-2.44.636-.49.402-.74.904-.74 1.507 0 .647.25 1.15.74 1.506.49.357 1.14.536 1.94.536Zm20.26 3.349c-1.56 0-2.95-.38-4.18-1.139-1.23-.759-2.2-1.797-2.92-3.114-.71-1.317-1.07-2.813-1.07-4.487s.36-3.159 1.07-4.454c.72-1.317 1.69-2.343 2.92-3.08 1.23-.76 2.62-1.139 4.18-1.139 1.25 0 2.35.235 3.28.704.94.468 1.7 1.127 2.28 1.975V28.89h4.29V53h-3.82l-.47-2.378c-.53.737-1.25 1.384-2.14 1.942-.87.559-2.01.838-3.42.838Zm.91-3.75c1.38 0 2.51-.458 3.38-1.374.89-.937 1.34-2.131 1.34-3.583 0-1.45-.45-2.634-1.34-3.549-.87-.938-2-1.406-3.38-1.406-1.36 0-2.49.457-3.38 1.372-.9.916-1.34 2.099-1.34 3.55 0 1.451.44 2.645 1.34 3.583.89.937 2.02 1.406 3.38 1.406Zm13.3 3.348V28.89h4.29V53h-4.29Zm16.74.402c-1.68 0-3.16-.358-4.46-1.072a7.726 7.726 0 0 1-3.04-3.014c-.74-1.294-1.11-2.79-1.11-4.487 0-1.718.36-3.248 1.07-4.587.74-1.34 1.74-2.377 3.02-3.114 1.29-.76 2.81-1.139 4.55-1.139 1.63 0 3.07.358 4.32 1.072a7.523 7.523 0 0 1 2.91 2.947c.72 1.227 1.08 2.6 1.08 4.118 0 .246-.02.503-.04.77 0 .268-.01.547-.03.837h-12.63c.09 1.295.54 2.311 1.34 3.048.83.736 1.82 1.105 2.98 1.105.87 0 1.6-.19 2.18-.57.6-.401 1.05-.915 1.34-1.54h4.35a7.83 7.83 0 0 1-1.57 2.88c-.71.848-1.61 1.518-2.68 2.009-1.05.491-2.24.737-3.58.737Zm.03-13.93c-1.05 0-1.97.301-2.78.904-.8.58-1.32 1.473-1.54 2.679h8.27c-.06-1.094-.47-1.965-1.2-2.612-.74-.648-1.65-.971-2.75-.971Zm18.77 13.93c-1.47 0-2.76-.235-3.88-.704-1.12-.49-2.01-1.16-2.68-2.009-.67-.848-1.07-1.83-1.2-2.946h4.32c.13.647.49 1.205 1.07 1.674.6.446 1.37.67 2.31.67s1.62-.19 2.04-.57c.45-.38.67-.815.67-1.306 0-.714-.31-1.194-.94-1.44-.62-.267-1.49-.524-2.61-.77-.71-.156-1.44-.346-2.18-.569-.73-.223-1.41-.502-2.04-.837a4.758 4.758 0 0 1-1.47-1.34c-.38-.558-.57-1.238-.57-2.042 0-1.473.58-2.712 1.74-3.717 1.18-1.004 2.84-1.507 4.96-1.507 1.96 0 3.52.458 4.68 1.373 1.19.915 1.89 2.177 2.11 3.784h-4.05c-.24-1.228-1.17-1.842-2.78-1.842-.8 0-1.43.157-1.87.47-.43.312-.64.702-.64 1.171 0 .491.32.882.97 1.172.65.29 1.51.558 2.58.804 1.16.268 2.22.569 3.18.904.98.312 1.77.792 2.35 1.44.58.625.87 1.529.87 2.712a4.671 4.671 0 0 1-.81 2.78c-.56.825-1.36 1.473-2.41 1.941-1.05.47-2.29.704-3.72.704Zm17.6 0c-1.48 0-2.77-.235-3.89-.704-1.11-.49-2.01-1.16-2.68-2.009-.67-.848-1.07-1.83-1.2-2.946h4.32c.13.647.49 1.205 1.07 1.674.6.446 1.37.67 2.31.67s1.62-.19 2.04-.57c.45-.38.67-.815.67-1.306 0-.714-.31-1.194-.93-1.44-.63-.267-1.5-.524-2.62-.77a28.14 28.14 0 0 1-2.17-.569c-.74-.223-1.42-.502-2.05-.837a4.758 4.758 0 0 1-1.47-1.34c-.38-.558-.57-1.238-.57-2.042 0-1.473.58-2.712 1.74-3.717 1.19-1.004 2.84-1.507 4.96-1.507 1.96 0 3.53.458 4.69 1.373 1.18.915 1.88 2.177 2.11 3.784h-4.06c-.24-1.228-1.17-1.842-2.77-1.842-.81 0-1.43.157-1.88.47-.42.312-.64.702-.64 1.171 0 .491.33.882.98 1.172.64.29 1.5.558 2.57.804 1.16.268 2.22.569 3.18.904.99.312 1.77.792 2.35 1.44.58.625.87 1.529.87 2.712a4.734 4.734 0 0 1-.8 2.78c-.56.825-1.37 1.473-2.42 1.941-1.04.47-2.28.704-3.71.704Zm23.83-.369-6.43-23.473h3.01l5.06 20.125 5.76-20.125h3.11l5.59 20.125 5.13-20.125h3.01L2054.19 53h-3.22l-5.59-19.355L2039.66 53l-3.15.033Zm27.55-.033V29.56h7.7c1.83 0 3.34.302 4.52.904 1.18.603 2.06 1.418 2.61 2.445.58 1.026.87 2.187.87 3.482 0 1.273-.27 2.422-.83 3.45-.56 1.026-1.43 1.852-2.61 2.477-1.19.603-2.71.904-4.56.904h-4.89V53h-2.81Zm2.81-12.155h4.82c1.88 0 3.21-.391 3.99-1.172.8-.804 1.2-1.898 1.2-3.282 0-1.406-.4-2.5-1.2-3.281-.78-.804-2.11-1.206-3.99-1.206h-4.82v8.94Z" fill="#fff"></path><path d="M1761.64 0c-22.64 0-41 18.357-41 41 0 22.644 18.36 41 41 41 22.65 0 41-18.356 41-41 0-22.643-18.35-41-41-41Z" fill="url(#l)"></path><path d="M1814.84 0c-22.64 0-41 18.357-41 41 0 22.644 18.36 41 41 41 22.65 0 41-18.356 41-41 0-22.643-18.35-41-41-41Z" fill="url(#m)"></path><defs><linearGradient id="a" x1="-15.265" y1="-14.812" x2="72.026" y2="114.946" gradientUnits="userSpaceOnUse"><stop stop-color="#1CC4DB"></stop><stop offset="1" stop-color="#fff"></stop></linearGradient><linearGradient id="b" x1="35.517" y1="12.664" x2="61" y2="12.664" gradientUnits="userSpaceOnUse"><stop stop-color="#1AC3DA"></stop><stop offset="1" stop-color="#1CC4DB"></stop></linearGradient><linearGradient id="d" x1="443.314" y1="41.223" x2="476" y2="40.99" gradientUnits="userSpaceOnUse"><stop stop-color="#E42F33"></stop><stop offset="1" stop-color="#F86165" stop-opacity=".62"></stop></linearGradient><linearGradient id="e" x1="1367.22" y1="63.073" x2="1277.09" y2="83.067" gradientUnits="userSpaceOnUse"><stop offset=".41" stop-color="#FF8BA5"></stop><stop offset=".44" stop-color="#EF83A5"></stop><stop offset=".56" stop-color="#B065A9"></stop><stop offset=".67" stop-color="#7C4CAD"></stop><stop offset=".77" stop-color="#5438AF"></stop><stop offset=".86" stop-color="#362AB1"></stop><stop offset=".94" stop-color="#2522B2"></stop><stop offset="1" stop-color="#1F1FB3"></stop></linearGradient><linearGradient id="f" x1="1363.36" y1="48.693" x2="1288" y2="65.554" gradientUnits="userSpaceOnUse"><stop offset=".41" stop-color="#FF8BA5"></stop><stop offset=".44" stop-color="#EF83A5"></stop><stop offset=".56" stop-color="#B065A9"></stop><stop offset=".67" stop-color="#7C4CAD"></stop><stop offset=".77" stop-color="#5438AF"></stop><stop offset=".86" stop-color="#362AB1"></stop><stop offset=".94" stop-color="#2522B2"></stop><stop offset="1" stop-color="#1F1FB3"></stop></linearGradient><linearGradient id="g" x1="1360.15" y1="40.266" x2="1316.76" y2="49.995" gradientUnits="userSpaceOnUse"><stop offset=".41" stop-color="#FF8BA5"></stop><stop offset=".44" stop-color="#EF83A5"></stop><stop offset=".56" stop-color="#B065A9"></stop><stop offset=".67" stop-color="#7C4CAD"></stop><stop offset=".77" stop-color="#5438AF"></stop><stop offset=".86" stop-color="#362AB1"></stop><stop offset=".94" stop-color="#2522B2"></stop><stop offset="1" stop-color="#1F1FB3"></stop></linearGradient><linearGradient id="h" x1="1367.32" y1="41.09" x2="1323.57" y2="50.865" gradientUnits="userSpaceOnUse"><stop stop-color="#FF8BA5"></stop><stop offset="1" stop-color="#1F1FB3"></stop></linearGradient><linearGradient id="i" x1="1403.77" y1="35.673" x2="1326.46" y2="52.989" gradientUnits="userSpaceOnUse"><stop stop-color="#FF8BA5" stop-opacity=".63"></stop><stop offset="1" stop-color="#1F1FB3"></stop></linearGradient><linearGradient id="j" x1="1440.66" y1="32.738" x2="1329.91" y2="57.589" gradientUnits="userSpaceOnUse"><stop offset=".41" stop-color="#FF8BA5"></stop><stop offset=".44" stop-color="#EF83A5"></stop><stop offset=".56" stop-color="#B065A9"></stop><stop offset=".67" stop-color="#7C4CAD"></stop><stop offset=".77" stop-color="#5438AF"></stop><stop offset=".86" stop-color="#362AB1"></stop><stop offset=".94" stop-color="#2522B2"></stop><stop offset="1" stop-color="#1F1FB3"></stop></linearGradient><linearGradient id="k" x1="813.343" y1="32.734" x2="909.664" y2="81.178" gradientUnits="userSpaceOnUse"><stop stop-color="#1CC4DB"></stop><stop offset="1" stop-color="#fff" stop-opacity=".8"></stop></linearGradient><linearGradient id="l" x1="1802.64" y1="41" x2="1720.64" y2="41" gradientUnits="userSpaceOnUse"><stop stop-color="#1CC4DB"></stop><stop offset=".974" stop-color="#F9FDFE" stop-opacity=".26"></stop></linearGradient><linearGradient id="m" x1="1855.84" y1="41" x2="1773.84" y2="41" gradientUnits="userSpaceOnUse"><stop stop-color="#1CC4DB"></stop><stop offset="1" stop-color="#fff" stop-opacity=".21"></stop></linearGradient><clipPath id="c"><path fill="#fff" transform="translate(428)" d="M0 0h48v82H0z"></path></clipPath></defs></svg>