<svg xmlns="http://www.w3.org/2000/svg" width="1600" height="479" viewBox="0 0 1600 479" fill="none"><path opacity="0.2" fill-rule="evenodd" clip-rule="evenodd" d="M638.223 65C638.223 100.346 609.569 129 574.223 129L120 129C84.6543 129 56.0005 100.346 56.0005 65.0001C56.0005 29.6538 84.6543 1.00005 120 1.00005L574.223 1.00001C609.569 1 638.223 29.6538 638.223 65Z" fill="url(#paint0_linear_5_332)" stroke="#F9F9FB" stroke-width="1.5" stroke-linecap="round"></path><path opacity="0.2" fill-rule="evenodd" clip-rule="evenodd" d="M532.223 479C532.223 514.346 503.569 543 468.223 543L14.0005 543C-21.3457 543 -49.9995 514.346 -49.9995 479C-49.9995 443.654 -21.3457 415 14.0005 415L468.223 415C503.569 415 532.223 443.654 532.223 479Z" fill="url(#paint1_linear_5_332)" stroke="#F9F9FB" stroke-width="1.5" stroke-linecap="round"></path><path opacity="0.5" fill-rule="evenodd" clip-rule="evenodd" d="M-281 116C-281 80.6538 -252.346 52 -217 52H237.223C272.569 52 301.223 80.6538 301.223 116C301.223 151.346 272.569 180 237.223 180H-217C-252.346 180 -281 151.346 -281 116Z" fill="url(#paint2_linear_5_332)" stroke="#F9F9FB" stroke-width="1.5" stroke-linecap="round"></path><path opacity="0.5" fill-rule="evenodd" clip-rule="evenodd" d="M990.366 361C990.366 396.346 961.712 425 926.366 425L751.001 425C715.654 425 687.001 396.346 687.001 361C687.001 325.654 715.654 297 751.001 297L926.366 297C961.712 297 990.366 325.654 990.366 361Z" fill="url(#paint3_linear_5_332)" stroke="#F9F9FB" stroke-width="1.5" stroke-linecap="round"></path><path opacity="0.5" fill-rule="evenodd" clip-rule="evenodd" d="M1664.37 222C1664.37 257.346 1635.71 286 1600.37 286L1425 286C1389.65 286 1361 257.346 1361 222C1361 186.654 1389.65 158 1425 158L1600.37 158C1635.71 158 1664.37 186.654 1664.37 222Z" fill="url(#paint4_linear_5_332)" stroke="#F9F9FB" stroke-width="1.5" stroke-linecap="round"></path><defs><linearGradient id="paint0_linear_5_332" x1="638.4" y1="64.9999" x2="115.2" y2="65" gradientUnits="userSpaceOnUse"><stop stop-color="#DBD6D8"></stop><stop offset="1" stop-color="#DBD6D8" stop-opacity="0"></stop></linearGradient><linearGradient id="paint1_linear_5_332" x1="532.4" y1="479" x2="9.20041" y2="479" gradientUnits="userSpaceOnUse"><stop stop-color="#DBD6D8"></stop><stop offset="1" stop-color="#DBD6D8" stop-opacity="0"></stop></linearGradient><linearGradient id="paint2_linear_5_332" x1="-281.177" y1="116" x2="242.023" y2="116" gradientUnits="userSpaceOnUse"><stop stop-color="#DBD6D8"></stop><stop offset="1" stop-color="#DBD6D8" stop-opacity="0"></stop></linearGradient><linearGradient id="paint3_linear_5_332" x1="1322.97" y1="361.128" x2="686.366" y2="361" gradientUnits="userSpaceOnUse"><stop stop-color="#DBD6D8"></stop><stop offset="1" stop-color="#DBD6D8" stop-opacity="0"></stop></linearGradient><linearGradient id="paint4_linear_5_332" x1="1996.97" y1="222.128" x2="1360.37" y2="222" gradientUnits="userSpaceOnUse"><stop stop-color="#DBD6D8"></stop><stop offset="1" stop-color="#DBD6D8" stop-opacity="0"></stop></linearGradient></defs></svg>