<svg xmlns="http://www.w3.org/2000/svg" width="348" height="317" viewBox="0 0 348 317" fill="none"><path d="M210.448 254.477H137.025V304.091H210.448V254.477Z" fill="#CDCFD6"></path><path d="M99.2629 304.161H248.227C249.059 304.161 249.884 304.325 250.652 304.643C251.421 304.962 252.12 305.429 252.708 306.017C253.297 306.606 253.764 307.304 254.082 308.073C254.401 308.842 254.565 309.666 254.565 310.498V316.836H92.9255V310.498C92.9255 308.818 93.5932 307.206 94.7817 306.017C95.9702 304.829 97.5821 304.161 99.2629 304.161Z" fill="white"></path><path d="M210.448 254.477H137.025V272.772H210.448V254.477Z" fill="url(#paint0_linear_903_1172)"></path><path d="M338.737 28.746H8.75334C3.919 28.746 0 32.665 0 37.4993V245.724C0 250.558 3.919 254.477 8.75334 254.477H338.737C343.571 254.477 347.49 250.558 347.49 245.724V37.4993C347.49 32.665 343.571 28.746 338.737 28.746Z" fill="#CDCFD6"></path><path d="M338.737 28.746H8.75334C6.43181 28.746 4.20537 29.6682 2.5638 31.3097C0.922231 32.9513 0 35.1778 0 37.4993V222.702H347.49V37.4993C347.49 35.1778 346.568 32.9513 344.926 31.3097C343.285 29.6682 341.058 28.746 338.737 28.746V28.746Z" fill="#F64044"></path><path d="M347.49 114.791C296.808 120.831 334.658 238.598 277.043 185.658C255.668 166.033 234.204 206.876 230.423 181.614C226.484 155.354 210.465 159.136 210.465 159.136H133.436C130.836 159.161 128.298 159.933 126.125 161.361C123.952 162.789 122.236 164.812 121.181 167.189C108.927 194.272 95.2013 158.19 93.048 185.483C90.7021 215.017 80.1456 206.491 39.4251 190.35C0.122565 174.734 0.122559 223.175 0.122559 223.175H347.49V114.791Z" fill="#1BC3DA"></path><path d="M173.736 244.131C176.792 244.131 179.268 241.654 179.268 238.598C179.268 235.543 176.792 233.066 173.736 233.066C170.681 233.066 168.204 235.543 168.204 238.598C168.204 241.654 170.681 244.131 173.736 244.131Z" stroke="url(#paint1_linear_903_1172)" stroke-miterlimit="10"></path><path d="M175.277 0C156.26 22.9392 145.857 51.8021 145.866 81.5986V159.731H204.688V81.5986C204.697 51.8021 194.293 22.9392 175.277 0V0Z" fill="white"></path><path d="M145.866 159.731V98.0024C145.866 98.0024 116.927 113.758 120.428 159.731H145.866Z" fill="url(#paint2_linear_903_1172)"></path><path d="M204.688 159.731V98.0024C204.688 98.0024 233.627 113.758 230.125 159.731H204.688Z" fill="url(#paint3_linear_903_1172)"></path><path d="M201.187 168.327H149.367L145.866 159.731H204.688L201.187 168.327Z" fill="#CDCFD6"></path><path d="M175.277 0C156.26 22.9392 145.857 51.8021 145.866 81.5986V159.731H204.688V81.5986C204.697 51.8021 194.293 22.9392 175.277 0V0Z" fill="white"></path><path d="M145.866 159.731V98.0024C145.866 98.0024 116.927 113.758 120.428 159.731H145.866Z" fill="url(#paint4_linear_903_1172)"></path><path d="M204.688 159.731V98.0024C204.688 98.0024 233.627 113.758 230.125 159.731H204.688Z" fill="url(#paint5_linear_903_1172)"></path><path d="M175.277 0C156.26 22.9392 145.857 51.8021 145.866 81.5986V159.731H204.688V81.5986C204.697 51.8021 194.293 22.9392 175.277 0V0Z" fill="white"></path><path d="M145.866 159.731V98.0024C145.866 98.0024 116.927 113.758 120.428 159.731H145.866Z" fill="white"></path><path d="M204.688 159.731V98.0024C204.688 98.0024 233.627 113.758 230.125 159.731H204.688Z" fill="white"></path><path d="M188.932 70.2893V62.0787C189.028 48.0968 184.256 34.5171 175.434 23.669L175.277 23.4764L175.119 23.669C166.298 34.5171 161.526 48.0968 161.622 62.0787V70.2893H188.932Z" fill="#1BC3DA"></path><path d="M120.428 159.731C120.428 159.731 143.467 128.534 145.866 98.0024V159.731H120.428Z" fill="#CDCFD6"></path><path d="M230.265 159.731C230.265 159.731 207.244 128.534 204.846 98.0024V159.731H230.265Z" fill="#CDCFD6"></path><path opacity="0.4" d="M181.894 70.2893H188.897V62.0787C188.993 48.0968 184.221 34.5171 175.399 23.669L175.242 23.4764L175.084 23.669C174.524 24.3518 173.964 25.0521 173.439 25.7698C176.887 36.5714 182.139 55.6537 181.894 70.2893Z" fill="white"></path><path d="M59.8029 118.293C60.7697 118.293 61.5535 117.509 61.5535 116.542C61.5535 115.575 60.7697 114.791 59.8029 114.791C58.836 114.791 58.0522 115.575 58.0522 116.542C58.0522 117.509 58.836 118.293 59.8029 118.293Z" fill="#F8F8FA"></path><path d="M292.274 118.293C293.241 118.293 294.025 117.509 294.025 116.542C294.025 115.575 293.241 114.791 292.274 114.791C291.307 114.791 290.523 115.575 290.523 116.542C290.523 117.509 291.307 118.293 292.274 118.293Z" fill="#F8F8FA"></path><path d="M188.022 108.699H162.532C162.068 108.699 161.622 108.514 161.294 108.186C160.966 107.858 160.781 107.413 160.781 106.948C160.781 106.484 160.966 106.039 161.294 105.71C161.622 105.382 162.068 105.198 162.532 105.198H188.022C188.486 105.198 188.931 105.382 189.26 105.71C189.588 106.039 189.772 106.484 189.772 106.948C189.772 107.413 189.588 107.858 189.26 108.186C188.931 108.514 188.486 108.699 188.022 108.699Z" fill="#F64044"></path><path d="M175.277 119.781C170.724 119.785 166.207 118.979 161.937 117.4C161.721 117.32 161.522 117.199 161.353 117.043C161.184 116.887 161.047 116.7 160.95 116.491C160.853 116.282 160.799 116.056 160.789 115.826C160.78 115.596 160.816 115.366 160.895 115.15C160.974 114.934 161.096 114.736 161.252 114.566C161.407 114.397 161.595 114.26 161.804 114.163C162.013 114.067 162.239 114.012 162.469 114.003C162.699 113.993 162.929 114.029 163.145 114.109C170.978 116.979 179.576 116.979 187.409 114.109C187.625 114.029 187.855 113.993 188.085 114.003C188.315 114.012 188.541 114.067 188.749 114.163C188.958 114.26 189.146 114.397 189.302 114.566C189.458 114.736 189.579 114.934 189.659 115.15C189.738 115.366 189.774 115.596 189.764 115.826C189.755 116.056 189.7 116.282 189.604 116.491C189.507 116.7 189.37 116.887 189.201 117.043C189.031 117.199 188.833 117.32 188.617 117.4C184.347 118.979 179.83 119.785 175.277 119.781Z" fill="#F64044"></path><path d="M175.277 131.405C170.2 131.297 165.315 129.442 161.447 126.153C161.08 125.863 160.843 125.439 160.789 124.974C160.735 124.51 160.868 124.043 161.158 123.676C161.448 123.309 161.872 123.073 162.336 123.018C162.801 122.964 163.268 123.097 163.635 123.387C171.25 129.462 179.391 129.462 186.919 123.387C187.286 123.097 187.753 122.964 188.217 123.018C188.682 123.073 189.106 123.309 189.396 123.676C189.686 124.043 189.819 124.51 189.765 124.974C189.71 125.439 189.474 125.863 189.107 126.153C185.238 129.442 180.354 131.297 175.277 131.405V131.405Z" fill="#F64044"></path><path d="M175.417 168.327C175.417 168.327 153.131 178.603 175.417 210.343C175.417 210.255 197.16 181.824 175.417 168.327Z" fill="#F64044"></path><path d="M131.72 164.108C131.72 164.108 119.466 169.797 131.72 187.251C131.72 187.164 143.677 171.478 131.72 164.108Z" fill="#F64044"></path><path d="M212.233 164.108C212.233 164.108 199.979 169.797 212.233 187.251C212.233 187.164 224.208 171.478 212.233 164.108Z" fill="#F64044"></path><defs><linearGradient id="paint0_linear_903_1172" x1="14206.3" y1="3603.65" x2="14206.3" y2="3412.47" gradientUnits="userSpaceOnUse"><stop stop-color="#283150"></stop><stop offset="1" stop-color="#2E3A5C"></stop></linearGradient><linearGradient id="paint1_linear_903_1172" x1="2288.33" y1="2083.12" x2="2288.33" y2="2002.02" gradientUnits="userSpaceOnUse"><stop stop-color="#283150"></stop><stop offset="1" stop-color="#2E3A5C"></stop></linearGradient><linearGradient id="paint2_linear_903_1172" x1="4451.97" y1="7412.83" x2="4451.97" y2="5236.29" gradientUnits="userSpaceOnUse"><stop stop-color="#283150"></stop><stop offset="1" stop-color="#2E3A5C"></stop></linearGradient><linearGradient id="paint3_linear_903_1172" x1="-3108.76" y1="7412.83" x2="-3108.76" y2="5236.29" gradientUnits="userSpaceOnUse"><stop stop-color="#283150"></stop><stop offset="1" stop-color="#2E3A5C"></stop></linearGradient><linearGradient id="paint4_linear_903_1172" x1="4451.97" y1="7412.83" x2="4451.97" y2="5236.29" gradientUnits="userSpaceOnUse"><stop stop-color="#283150"></stop><stop offset="1" stop-color="#2E3A5C"></stop></linearGradient><linearGradient id="paint5_linear_903_1172" x1="-3108.76" y1="7412.83" x2="-3108.76" y2="5236.29" gradientUnits="userSpaceOnUse"><stop stop-color="#283150"></stop><stop offset="1" stop-color="#2E3A5C"></stop></linearGradient></defs></svg>