<svg xmlns="http://www.w3.org/2000/svg" xmlns:xlink="http://www.w3.org/1999/xlink" id="Warstwa_1" x="0px" y="0px" width="400px" height="539px" viewBox="0 0 400 539" xml:space="preserve"><g>	<defs>		<rect id="SVGID_1_" width="400" height="2369"></rect>	</defs>	<clipPath id="SVGID_2_">		<use xlink:href="#SVGID_1_"></use>	</clipPath>	<rect x="-205" clip-path="url(#SVGID_2_)" fill="#1F2742" width="1600" height="539"></rect></g><g>	<defs>		<rect id="SVGID_3_" width="400" height="540"></rect>	</defs>	<clipPath id="SVGID_4_">		<use xlink:href="#SVGID_3_"></use>	</clipPath>	<g clip-path="url(#SVGID_4_)">		<g>			<defs>				<rect id="SVGID_5_" width="400" height="540"></rect>			</defs>			<clipPath id="SVGID_6_">				<use xlink:href="#SVGID_5_"></use>			</clipPath>			<g opacity="0.4392" clip-path="url(#SVGID_6_)">				<g opacity="0.4392">					<g>						<defs>							<path id="SVGID_7_" d="M-498.001,438.5c0-2.136,0.052-4.271,0.157-6.403c0.104-2.133,0.262-4.263,0.471-6.388        c0.209-2.126,0.471-4.245,0.784-6.357c0.313-2.112,0.678-4.216,1.095-6.311c0.417-2.094,0.885-4.178,1.404-6.25        c0.519-2.072,1.088-4.129,1.708-6.173c0.62-2.043,1.29-4.071,2.009-6.082c0.72-2.011,1.488-4.003,2.305-5.977        c0.817-1.973,1.683-3.925,2.596-5.855s1.873-3.838,2.88-5.722c1.007-1.883,2.059-3.741,3.157-5.573        c1.098-1.832,2.24-3.636,3.427-5.412s2.416-3.521,3.688-5.237c1.272-1.715,2.585-3.399,3.94-5.049        c1.355-1.651,2.75-3.268,4.184-4.851c1.435-1.582,2.907-3.129,4.417-4.639c1.51-1.51,3.057-2.982,4.639-4.417        c1.583-1.434,3.199-2.829,4.851-4.184c1.651-1.355,3.334-2.668,5.049-3.94c1.715-1.272,3.461-2.502,5.237-3.688        s3.58-2.329,5.412-3.427c1.832-1.098,3.689-2.15,5.573-3.157c1.883-1.007,3.791-1.967,5.721-2.88s3.882-1.778,5.855-2.596        c1.974-0.817,3.965-1.586,5.976-2.305c2.011-0.719,4.039-1.389,6.082-2.009c2.044-0.62,4.102-1.189,6.173-1.708        c2.072-0.519,4.155-0.987,6.25-1.403c2.095-0.417,4.199-0.782,6.311-1.096c2.113-0.313,4.232-0.574,6.357-0.784        c2.125-0.209,4.254-0.367,6.388-0.471c2.133-0.105,4.268-0.157,6.403-0.157h479c2.136,0,4.27,0.052,6.403,0.157        c2.133,0.104,4.263,0.262,6.388,0.471c2.125,0.209,4.245,0.471,6.357,0.784c2.112,0.313,4.216,0.679,6.311,1.096        c2.095,0.416,4.178,0.884,6.25,1.403c2.072,0.519,4.129,1.088,6.173,1.708c2.043,0.62,4.071,1.29,6.082,2.009        c2.011,0.719,4.003,1.488,5.976,2.305s3.925,1.683,5.856,2.596s3.838,1.873,5.721,2.88c1.884,1.007,3.741,2.059,5.573,3.157        s3.636,2.24,5.412,3.427s3.521,2.416,5.237,3.688c1.715,1.272,3.398,2.585,5.049,3.94c1.651,1.355,3.268,2.75,4.851,4.184        c1.582,1.435,3.129,2.907,4.639,4.417c1.511,1.51,2.982,3.057,4.417,4.639c1.434,1.583,2.828,3.199,4.184,4.851        c1.354,1.65,2.668,3.334,3.94,5.049s2.502,3.461,3.688,5.237s2.329,3.58,3.427,5.412c1.098,1.832,2.15,3.689,3.157,5.573        c1.007,1.884,1.967,3.791,2.88,5.722s1.778,3.883,2.596,5.855c0.817,1.974,1.586,3.965,2.305,5.977        c0.72,2.011,1.39,4.038,2.01,6.082c0.62,2.044,1.189,4.102,1.708,6.173c0.52,2.072,0.987,4.155,1.403,6.25        c0.417,2.095,0.782,4.199,1.096,6.311c0.313,2.113,0.574,4.231,0.784,6.357c0.209,2.125,0.366,4.254,0.471,6.388        c0.104,2.133,0.157,4.268,0.157,6.403s-0.053,4.27-0.157,6.403s-0.262,4.263-0.471,6.388        c-0.21,2.126-0.471,4.245-0.784,6.357c-0.313,2.112-0.679,4.216-1.096,6.311c-0.417,2.095-0.884,4.178-1.403,6.25        c-0.519,2.072-1.088,4.129-1.708,6.173c-0.62,2.044-1.29,4.071-2.01,6.082c-0.719,2.011-1.487,4.003-2.305,5.977        c-0.817,1.973-1.683,3.925-2.596,5.855s-1.873,3.838-2.88,5.722c-1.007,1.883-2.06,3.741-3.157,5.573        c-1.098,1.832-2.24,3.636-3.427,5.412c-1.187,1.775-2.416,3.521-3.688,5.237s-2.586,3.398-3.94,5.049        c-1.355,1.651-2.75,3.268-4.184,4.851c-1.435,1.582-2.906,3.128-4.417,4.639c-1.51,1.51-3.057,2.982-4.639,4.417        c-1.583,1.434-3.199,2.829-4.851,4.184c-1.651,1.354-3.334,2.668-5.049,3.94c-1.715,1.272-3.461,2.502-5.237,3.688        s-3.58,2.329-5.412,3.427c-1.832,1.098-3.689,2.15-5.573,3.157c-1.883,1.007-3.791,1.967-5.721,2.88        s-3.883,1.778-5.856,2.596s-3.965,1.585-5.976,2.305c-2.011,0.719-4.038,1.389-6.082,2.009        c-2.044,0.62-4.102,1.189-6.173,1.708c-2.072,0.519-4.155,0.987-6.25,1.403c-2.095,0.417-4.198,0.782-6.311,1.095        c-2.113,0.313-4.232,0.575-6.357,0.784c-2.125,0.209-4.254,0.367-6.388,0.471S113.635,569,111.499,569h-479        c-2.136,0-4.27-0.053-6.403-0.157s-4.263-0.262-6.388-0.471c-2.125-0.209-4.245-0.471-6.357-0.784        c-2.112-0.313-4.216-0.678-6.311-1.095c-2.095-0.417-4.178-0.884-6.25-1.403c-2.072-0.519-4.129-1.088-6.173-1.708        c-2.043-0.62-4.071-1.29-6.082-2.009c-2.011-0.72-4.002-1.488-5.976-2.305c-1.973-0.817-3.925-1.683-5.855-2.596        s-3.838-1.873-5.721-2.88c-1.884-1.007-3.742-2.06-5.573-3.157c-1.832-1.098-3.636-2.24-5.412-3.427        s-3.521-2.416-5.237-3.688c-1.715-1.272-3.398-2.586-5.049-3.94c-1.651-1.355-3.268-2.75-4.851-4.184        c-1.582-1.435-3.128-2.907-4.639-4.417s-2.982-3.057-4.417-4.639c-1.434-1.583-2.829-3.199-4.184-4.851        c-1.355-1.651-2.668-3.334-3.94-5.049c-1.272-1.715-2.502-3.461-3.688-5.237c-1.187-1.776-2.329-3.58-3.427-5.412        c-1.098-1.832-2.15-3.689-3.157-5.573c-1.007-1.884-1.967-3.791-2.88-5.722s-1.778-3.883-2.596-5.855        c-0.817-1.974-1.585-3.965-2.305-5.977c-0.719-2.011-1.389-4.038-2.009-6.082c-0.62-2.043-1.189-4.101-1.708-6.173        c-0.519-2.072-0.987-4.155-1.404-6.25c-0.417-2.094-0.782-4.198-1.095-6.311c-0.313-2.113-0.575-4.231-0.784-6.357        c-0.209-2.125-0.367-4.254-0.471-6.388C-497.949,442.77-498.001,440.636-498.001,438.5z"></path>						</defs>						<clipPath id="SVGID_8_">							<use xlink:href="#SVGID_7_"></use>						</clipPath>						<g transform="matrix(1 0 0 1 -3.051758e-005 0)" clip-path="url(#SVGID_8_)">															<image width="3084" height="1088" xlink:href="15A6207F.jpg" transform="matrix(0.24 0 0 0.24 -498.001 308)">							</image>						</g>					</g>				</g>			</g>			<g opacity="0.502" clip-path="url(#SVGID_6_)">				<g>					<defs>						<rect id="SVGID_9_" width="400" height="540"></rect>					</defs>					<clipPath id="SVGID_10_">						<use xlink:href="#SVGID_9_"></use>					</clipPath>					<g clip-path="url(#SVGID_10_)">						<g>							<defs>								<path id="SVGID_11_" d="M321.616,54.16c29.864,0,54.16-24.295,54.16-54.16s-24.296-54.16-54.16-54.16         S267.457-29.864,267.457,0S291.752,54.16,321.616,54.16z M321.616-55.813c30.776,0,55.813,25.038,55.813,55.813         s-25.037,55.813-55.813,55.813c-30.775,0-55.813-25.038-55.813-55.813S290.841-55.813,321.616-55.813z"></path>							</defs>							<clipPath id="SVGID_12_">								<use xlink:href="#SVGID_11_"></use>							</clipPath>							<g clip-path="url(#SVGID_12_)">																	<image width="466" height="466" xlink:href="15A6207D.jpg" transform="matrix(0.24 0 0 0.24 265.8027 -55.8135)">								</image>							</g>						</g>					</g>				</g>			</g>			<path opacity="0.051" clip-path="url(#SVGID_6_)" fill="#FFFFFF" d="M-259,22c0-1.097,0.027-2.192,0.081-3.288    s0.135-2.188,0.242-3.28c0.107-1.091,0.242-2.179,0.402-3.264c0.161-1.084,0.348-2.165,0.563-3.24    c0.214-1.075,0.454-2.145,0.72-3.208c0.267-1.063,0.559-2.12,0.877-3.169c0.318-1.049,0.663-2.09,1.032-3.122    c0.37-1.033,0.764-2.056,1.184-3.068c0.419-1.013,0.864-2.016,1.333-3.007s0.962-1.97,1.479-2.937    c0.517-0.967,1.057-1.921,1.621-2.861c0.563-0.941,1.15-1.867,1.759-2.778s1.24-1.808,1.894-2.689    c0.653-0.88,1.328-1.745,2.023-2.592c0.695-0.848,1.412-1.677,2.148-2.49s1.492-1.606,2.268-2.382s1.569-1.531,2.381-2.268    s1.643-1.453,2.49-2.148c0.848-0.695,1.712-1.37,2.592-2.023c0.881-0.653,1.777-1.285,2.689-1.894s1.838-1.196,2.778-1.759    s1.894-1.104,2.861-1.621c0.967-0.517,1.946-1.01,2.938-1.479s1.993-0.913,3.006-1.333c1.013-0.419,2.036-0.814,3.068-1.184    c1.033-0.37,2.073-0.713,3.123-1.032s2.106-0.61,3.169-0.877c1.064-0.267,2.133-0.507,3.208-0.721    c1.076-0.214,2.156-0.401,3.24-0.562c1.085-0.161,2.173-0.295,3.264-0.403c1.091-0.107,2.185-0.188,3.28-0.241    C-194.192-44.973-193.097-45-192-45h335c1.097,0,2.192,0.027,3.288,0.081c1.095,0.054,2.188,0.134,3.28,0.241    c1.091,0.108,2.179,0.242,3.264,0.403c1.084,0.161,2.165,0.348,3.24,0.562c1.076,0.214,2.145,0.454,3.209,0.721    c1.063,0.267,2.12,0.559,3.169,0.877c1.049,0.318,2.09,0.662,3.123,1.032c1.032,0.37,2.055,0.764,3.068,1.184    s2.015,0.864,3.006,1.333s1.971,0.962,2.938,1.479c0.967,0.517,1.921,1.058,2.861,1.621s1.867,1.15,2.778,1.759    s1.808,1.241,2.688,1.894c0.881,0.653,1.745,1.328,2.593,2.023c0.848,0.696,1.678,1.412,2.49,2.148    c0.813,0.736,1.606,1.492,2.382,2.268s1.531,1.569,2.268,2.382s1.453,1.642,2.148,2.49c0.696,0.848,1.37,1.712,2.023,2.592    c0.653,0.881,1.284,1.777,1.894,2.689c0.609,0.912,1.196,1.837,1.759,2.778c0.563,0.94,1.104,1.894,1.621,2.861    s1.01,1.946,1.479,2.937s0.913,1.994,1.332,3.007c0.42,1.013,0.814,2.036,1.184,3.068c0.37,1.032,0.714,2.073,1.032,3.122    c0.318,1.049,0.61,2.106,0.877,3.169c0.267,1.064,0.507,2.133,0.721,3.208c0.214,1.076,0.401,2.156,0.562,3.24    c0.161,1.085,0.296,2.173,0.403,3.264c0.107,1.092,0.188,2.185,0.241,3.28S210,20.903,210,22s-0.027,2.192-0.081,3.288    s-0.134,2.188-0.241,3.28c-0.107,1.091-0.242,2.179-0.403,3.264c-0.16,1.084-0.348,2.165-0.562,3.24    c-0.214,1.075-0.454,2.145-0.721,3.208c-0.267,1.063-0.559,2.12-0.877,3.169c-0.318,1.049-0.662,2.09-1.032,3.122    c-0.369,1.033-0.764,2.056-1.184,3.068c-0.419,1.013-0.863,2.016-1.332,3.007s-0.962,1.97-1.479,2.937s-1.058,1.921-1.621,2.861    s-1.15,1.867-1.759,2.778c-0.609,0.912-1.241,1.808-1.894,2.689c-0.653,0.88-1.328,1.745-2.023,2.592    c-0.695,0.848-1.412,1.677-2.148,2.49s-1.492,1.606-2.268,2.382s-1.569,1.531-2.382,2.268c-0.812,0.736-1.642,1.453-2.49,2.148    c-0.848,0.695-1.712,1.37-2.593,2.023c-0.88,0.653-1.777,1.285-2.688,1.894s-1.838,1.196-2.778,1.759s-1.894,1.104-2.861,1.621    c-0.967,0.517-1.946,1.01-2.938,1.479s-1.993,0.913-3.006,1.333c-1.013,0.419-2.036,0.814-3.068,1.184    c-1.033,0.37-2.073,0.713-3.123,1.032s-2.106,0.61-3.169,0.877c-1.064,0.267-2.133,0.507-3.209,0.721    c-1.075,0.214-2.155,0.401-3.24,0.562c-1.085,0.161-2.173,0.295-3.264,0.403c-1.091,0.107-2.185,0.188-3.28,0.241    C145.192,88.973,144.097,89,143,89h-335c-1.097,0-2.192-0.027-3.288-0.081c-1.095-0.054-2.188-0.134-3.28-0.241    c-1.091-0.108-2.179-0.242-3.264-0.403c-1.084-0.161-2.165-0.348-3.24-0.562c-1.075-0.214-2.145-0.454-3.208-0.721    c-1.063-0.267-2.12-0.559-3.169-0.877s-2.09-0.662-3.123-1.032c-1.032-0.37-2.055-0.764-3.068-1.184    c-1.013-0.419-2.015-0.864-3.006-1.333s-1.971-0.962-2.938-1.479c-0.967-0.517-1.921-1.058-2.861-1.621s-1.867-1.15-2.778-1.759    s-1.808-1.241-2.689-1.894c-0.88-0.653-1.745-1.328-2.592-2.023c-0.848-0.696-1.678-1.412-2.49-2.148s-1.606-1.492-2.381-2.268    s-1.531-1.569-2.268-2.382s-1.453-1.642-2.148-2.49c-0.696-0.848-1.37-1.712-2.023-2.592c-0.653-0.881-1.284-1.777-1.894-2.689    s-1.196-1.838-1.759-2.778c-0.564-0.94-1.104-1.894-1.621-2.861c-0.517-0.967-1.01-1.946-1.479-2.937s-0.913-1.994-1.333-3.007    c-0.419-1.013-0.814-2.036-1.184-3.068c-0.369-1.032-0.713-2.073-1.032-3.122c-0.318-1.05-0.61-2.106-0.877-3.169    c-0.267-1.064-0.506-2.133-0.72-3.208c-0.214-1.076-0.401-2.156-0.563-3.24c-0.161-1.085-0.295-2.173-0.402-3.264    c-0.107-1.092-0.188-2.185-0.242-3.28S-259,23.097-259,22z"></path>		</g>	</g></g></svg>