<svg width="234" height="80" viewBox="0 0 234 80" fill="none" xmlns="http://www.w3.org/2000/svg">
<g clip-path="url(#clip0)">
<mask id="mask0" mask-type="alpha" maskUnits="userSpaceOnUse" x="0" y="4" width="235" height="74">
<path d="M9.38962 11.9135C9.91661 11.8964 10.4399 12.0073 10.9145 12.2369C11.3194 12.4468 11.666 12.7536 11.9235 13.1299C12.2036 13.5511 12.3965 14.024 12.4908 14.5209C12.6104 15.1121 12.668 15.7141 12.6628 16.3173C12.6553 17.1592 12.5694 17.9986 12.4061 18.8246C12.2396 19.7063 12.0193 20.5771 11.7463 21.4319C11.4314 22.3917 10.9351 23.798 10.2573 25.6509C9.71052 27.0726 9.14573 28.6021 8.55013 30.1419L6.14978 30.2087C5.25639 30.2087 5.81091 30.2086 5.03304 30.2343C4.25518 30.26 3.47731 30.2754 2.69944 30.3087C2.014 30.3344 0.871583 30.3267 0.388946 30.881C-0.191246 31.5508 -0.0115403 32.2591 0.219509 32.8596C0.219509 32.8596 1.08466 35.485 6.48096 35.6518C5.26666 39.6706 3.74173 43.4687 2.41191 47.5697C1.8574 49.2788 0.697012 51.8323 2.50947 53.2155C2.81975 53.4443 3.16712 53.6179 3.53636 53.7288C3.91344 53.8476 4.30648 53.9082 4.70187 53.9084C6.42961 53.9084 7.48474 53.1026 8.18816 51.5756C8.92495 49.9794 9.53081 48.3241 10.1238 46.6714C10.4798 45.6809 10.8683 44.5902 11.2894 43.3994C11.7104 42.2087 12.1511 40.8879 12.6115 39.4371C13.0702 37.988 13.5357 36.5508 14.008 35.1257L17.2787 34.8075L18.8858 34.6432C19.8219 34.5457 20.7573 34.4422 21.6917 34.3327C22.5671 34.23 23.3553 34.153 24.3899 33.9862C24.1717 35.2694 23.7532 36.5294 23.4888 37.8023C23.2013 39.1864 22.9625 40.3549 22.7725 41.3079C22.5826 42.2608 22.4379 43.1103 22.3387 43.8562C22.2495 44.4735 22.1997 45.0958 22.1898 45.7194C22.1703 46.9074 22.3633 48.0893 22.7597 49.2095C23.099 50.158 23.6225 51.0302 24.3 51.7758C24.9439 52.4713 25.7326 53.017 26.6105 53.3746C27.5303 53.7461 28.5143 53.9327 29.5063 53.9238C30.5208 53.9068 31.5278 53.7461 32.4972 53.4465C33.6759 53.0922 34.8155 52.6193 35.8987 52.035C37.1717 51.3532 38.3912 50.576 39.5467 49.7099C40.6052 48.9127 41.6175 48.0558 42.5786 47.1436C42.7467 47.4872 42.9336 47.8214 43.1383 48.1445C43.7871 49.1566 44.6569 50.0086 45.6824 50.6364C46.8132 51.2986 48.1077 51.6294 49.4177 51.591C50.393 51.5999 51.3613 51.4258 52.2724 51.0778C53.1619 50.7328 53.9944 50.2561 54.7421 49.6638C55.5062 49.0565 56.1826 48.3466 56.7522 47.5543C57.3408 46.742 57.84 45.8687 58.2412 44.9495C58.6469 44.0239 58.9591 43.0602 59.1731 42.0726C59.3846 41.1091 59.493 40.1258 59.4966 39.1394C59.5096 37.9271 59.3891 36.7171 59.1372 35.5312C59.0036 34.9533 58.8321 34.385 58.6237 33.8297C58.5673 33.6732 58.0127 32.6312 58.0435 32.4901C58.0435 32.0615 58.7136 32.5337 59.0576 32.7724C59.7927 33.2623 60.5005 33.7917 61.1781 34.3584C61.7609 34.8588 62.3154 35.3849 62.8597 35.9392C62.7698 36.5808 62.6851 37.2429 62.6029 37.9409C62.4044 39.6518 62.2392 41.2232 62.1075 42.6552C61.9757 44.0872 61.9098 45.3481 61.9098 46.4379C61.9093 47.0803 61.947 47.7222 62.0227 48.3601C62.0844 48.9342 62.2351 49.4952 62.4694 50.023C62.899 51.0587 63.9437 51.7029 65.0623 51.6218C65.5675 51.6327 66.0659 51.5039 66.5025 51.2497C66.8996 51.0188 67.2718 50.556 67.6193 49.8614L67.6347 49.8306C67.8734 49.343 68.125 48.8605 68.3689 48.3755L69.9092 45.2959C70.5202 44.0898 71.1235 42.8759 71.7371 41.6697C72.2685 40.6253 72.7819 39.5705 73.3236 38.5312C73.5367 38.1231 73.7241 37.7022 73.9218 37.2839C73.9911 37.1402 74.2119 36.5423 74.4352 36.5628C74.5867 36.5782 74.5354 36.9323 74.5302 37.0145C74.4943 37.4584 74.3813 37.8921 74.3197 38.3335C74.2119 39.1086 74.1135 39.8836 74.0245 40.6586C73.8974 41.725 73.8314 42.7977 73.8268 43.8716C73.8268 46.402 74.1374 48.3241 74.7587 49.6381C75.38 50.9546 76.1938 51.4602 77.0538 51.6116C77.9138 51.763 78.8329 51.4807 79.6595 51.2138C80.4798 50.927 81.2837 50.5955 82.0676 50.2206C82.5605 50.0051 83.744 49.3994 85.5975 48.4063C86.3817 49.3877 87.3697 50.1871 88.4933 50.7493C89.7611 51.3442 91.1494 51.6376 92.5495 51.6064C93.5403 51.6067 94.5276 51.4913 95.4916 51.2626C96.4501 51.0341 97.3878 50.7259 98.295 50.3413C99.1851 49.9641 100.047 49.5241 100.875 49.0247C101.422 48.6963 101.933 48.3626 102.431 48.0239C102.706 48.5847 103.061 49.1032 103.483 49.5637C104.048 50.1571 104.728 50.6294 105.481 50.952C106.21 51.2684 106.996 51.4326 107.791 51.4345C108.776 51.4177 109.743 51.1698 110.615 50.7108C111.625 50.2009 112.564 49.5616 113.408 48.8092C113.408 48.8092 113.816 48.3344 114.053 48.3909C113.888 50.4593 113.66 52.52 113.388 54.5756C112.261 55.6766 111.131 56.7801 110.05 57.9555C106.228 62.1129 101.971 69.183 105.134 74.8391C108.122 80.177 114.214 77.2335 115.855 72.8862C117.369 68.8751 117.154 63.7963 117.78 59.6159C117.898 58.828 118.009 58.0401 118.122 57.2549C119.257 56.2221 120.314 55.107 121.284 53.9187C124.365 61.1043 129.217 65.0692 137.427 67.1633C147.141 69.6424 157.77 67.0812 163.559 58.1813C165.157 55.6341 166.239 52.7975 166.742 49.8331C167.078 50.1323 167.439 50.4027 167.82 50.6415C168.951 51.3036 170.246 51.6344 171.556 51.5962C172.531 51.605 173.499 51.4309 174.41 51.0829C175.3 50.738 176.132 50.2613 176.88 49.6689C177.644 49.0617 178.321 48.3518 178.89 47.5594C179.479 46.7471 179.978 45.8738 180.379 44.9546C180.783 44.0287 181.095 43.0651 181.309 42.0778C181.521 41.1075 181.63 40.1173 181.632 39.124C181.645 37.9117 181.525 36.7016 181.273 35.5158C181.139 34.938 180.967 34.3696 180.759 33.8143C180.703 33.6578 180.148 32.6158 180.179 32.4747C180.179 32.0461 180.849 32.5183 181.206 32.757C181.941 33.2471 182.649 33.7765 183.326 34.343C184.004 34.9229 184.643 35.5491 185.272 36.1856C184.915 37.6849 184.742 39.2225 184.759 40.7638C184.759 42.0835 184.913 43.3987 185.218 44.6826C185.5 45.9154 185.992 47.0907 186.671 48.1573C187.32 49.1694 188.19 50.0214 189.216 50.6492C190.347 51.3113 191.641 51.6421 192.951 51.6039C193.926 51.6128 194.895 51.4387 195.806 51.0906C196.695 50.7457 197.528 50.269 198.275 49.6766C199.039 49.0692 199.716 48.3594 200.285 47.5671C200.874 46.7549 201.373 45.8816 201.774 44.9623C202.18 44.0368 202.493 43.0731 202.706 42.0855C202.92 41.1153 203.028 40.125 203.03 39.1317C203.043 37.9194 202.922 36.7094 202.67 35.5235C202.537 34.9457 202.365 34.3773 202.157 33.822C202.1 33.6655 201.546 32.6235 201.577 32.4824C201.577 32.0538 202.247 32.526 202.604 32.7647C203.339 33.2546 204.047 33.784 204.724 34.3507C206.049 35.4875 207.237 36.7835 208.459 38.0205C207.813 41.662 206.963 45.2446 205.451 48.4114C205.114 49.0543 205.114 49.8215 205.451 50.4644C205.879 51.1805 206.618 51.6552 207.448 51.7476C208.528 51.9186 209.589 51.3428 210.033 50.3438C211.728 46.7869 212.418 43.0863 212.965 39.5859C214.482 38.5158 215.904 37.5996 217.283 36.804H217.27C217.27 36.804 223.383 33.0367 225.015 32.8596C226.299 32.7211 226.556 33.5012 226.353 34.112C226.353 34.1377 226.335 34.1633 226.325 34.1915C226.275 34.3221 226.203 34.4428 226.112 34.5483C225.822 34.9306 225.254 35.4798 224.166 36.26C222.621 37.323 221.021 38.3039 219.373 39.1984C218.752 39.5264 218.296 40.0984 218.115 40.7767C218.086 40.872 218.062 40.9688 218.043 41.0667L217.966 41.4567C217.915 41.7134 217.468 44.0384 217.547 44.6697V44.7031V44.7878C217.547 44.8879 217.535 44.9905 217.535 45.0803C217.508 46.1484 217.694 47.2111 218.084 48.2061C218.414 49.0175 218.927 49.742 219.583 50.3233C220.218 50.871 220.963 51.2754 221.768 51.5089C223.239 51.9511 224.802 51.9971 226.297 51.6424C227.023 51.4849 227.735 51.2668 228.425 50.9905C229.146 50.707 229.843 50.3636 230.507 49.964C231.155 49.5744 231.758 49.1139 232.304 48.591C232.815 48.1065 233.244 47.5412 233.572 46.9178C234.019 46.0658 234.162 44.9238 233.98 43.7048C233.885 43.0607 233.467 42.9939 233.274 42.9939C232.92 42.9939 232.468 43.2249 231.893 43.6997C231.182 44.2947 230.438 44.8491 229.665 45.3601C229.059 45.7608 228.426 46.1209 227.773 46.4379C227.272 46.6807 226.749 46.8766 226.212 47.023C225.2 47.2797 224.471 47.2437 223.981 46.9897C223.716 46.8514 223.49 46.6505 223.321 46.4046C223.133 46.119 223.004 45.7988 222.941 45.4627C222.855 45.0405 222.813 44.6105 222.815 44.1796C222.815 43.9024 222.833 43.6176 222.862 43.325C226.166 41.4644 230.666 38.9212 231.528 35.3695C231.893 33.8682 231.557 32.3156 230.532 30.7501C229.221 28.7587 227.339 27.8536 224.885 28.035C224.012 28.1351 222.528 28.4944 220.549 29.6954L220.52 29.7108C220.32 29.8314 220.169 29.9187 220.066 29.9674C219.488 30.3087 218.921 30.6526 218.405 30.9683L218.31 31.0299C217.026 31.7998 216.094 32.4182 216.094 32.4182C216.002 32.4182 215.951 32.3027 216.015 32.254C220.559 28.7253 222.905 26.1334 223.221 25.7741C223.655 25.2326 224.071 24.6885 224.471 24.1317C226.646 21.1163 229.621 16.9871 230.188 13.2814C230.533 11.187 230.011 9.04254 228.743 7.34037C227.712 5.90142 226.149 4.93438 224.401 4.65478C222.653 4.37518 220.865 4.80625 219.437 5.85192C214.688 9.06493 212.803 16.6304 211.427 22.171C211.268 22.8074 211.117 23.4182 210.968 23.9931C210.197 26.9572 209.715 30.1522 209.245 33.26L209.127 34.0299C208.845 33.6885 208.57 33.3498 208.277 33.0033C207.309 31.8264 206.181 30.79 204.927 29.9238C203.733 29.1067 202.439 28.4477 201.076 27.9631C199.656 27.4672 198.162 27.2198 196.658 27.2317C194.95 27.2046 193.256 27.5469 191.693 28.2352C190.254 28.8747 188.972 29.8196 187.935 31.0042C187.45 31.5607 187.021 32.1623 186.651 32.8006C185.733 31.7164 184.676 30.757 183.509 29.9469C182.315 29.1299 181.021 28.4709 179.658 27.9862C178.238 27.4906 176.743 27.2432 175.24 27.2548C173.532 27.2276 171.838 27.5699 170.275 28.2583C168.846 28.8963 167.571 29.8356 166.539 31.0119C165.499 32.2163 164.702 33.6106 164.193 35.118C164.014 35.6533 163.869 36.1993 163.759 36.7527C163.284 36.2448 162.761 35.7849 162.196 35.3797C159.058 33.0951 155.169 32.0862 151.316 32.5568C152.695 30.7294 153.818 28.7219 154.653 26.5902C156.751 21.2009 155.167 13.3481 148.923 11.5183C141.992 9.49606 137.686 14.0846 134.367 19.6714C130.822 25.6381 128.527 32.1975 125.382 38.3489V38.3618C124.868 39.3883 123.721 41.698 123.328 42.4217C122.907 43.2557 122.37 44.2309 121.695 45.3575C120.838 46.7921 119.759 48.4525 118.381 50.3874L118.917 47.9161L119.305 46.1197L119.51 45.1779C119.752 43.8947 120.065 42.5962 120.317 41.1385C120.5 40.1 120.741 38.7313 121.041 37.0324C121.34 35.3335 121.571 34.0068 121.734 33.0521C121.905 32.1077 122.052 31.2643 122.175 30.5217C122.298 29.7792 122.402 29.1881 122.486 28.7484C122.531 28.581 122.556 28.4086 122.56 28.2352C122.593 27.8159 122.396 27.4119 122.047 27.1779C121.66 26.9448 121.215 26.8281 120.763 26.8417C120.299 26.8474 119.837 26.9227 119.395 27.0649C118.9 27.2217 118.431 27.4518 118.004 27.7476C117.552 28.0574 117.153 28.4378 116.823 28.8742C116.479 29.3103 116.241 29.8197 116.127 30.3626L114.137 39.6424C114.041 40.3183 113.896 40.9864 113.703 41.6415C113.48 42.4404 113.185 43.2177 112.823 43.964C112.493 44.6657 112.06 45.3144 111.539 45.8887C111.126 46.383 110.52 46.6749 109.876 46.6894C109.537 46.7021 109.204 46.5999 108.931 46.3994C108.676 46.1987 108.472 45.9412 108.335 45.6475C108.179 45.3136 108.075 44.958 108.025 44.5927C107.966 44.1899 107.937 43.7834 107.937 43.3763C107.937 42.0521 108.21 40.7561 108.451 39.4627C108.667 38.3361 108.872 37.2044 109.077 36.0778C109.405 34.2184 109.841 32.3796 110.381 30.5705C110.72 29.467 111.437 27.7835 110.212 26.9264C109.774 26.6291 109.253 26.4774 108.723 26.4927C107.99 26.5073 107.273 26.7078 106.638 27.0752C105.165 27.881 104.615 29.5157 103.999 30.9734C103.452 32.3204 103.023 33.7123 102.716 35.1334C102.143 37.5675 101.781 40.0462 101.632 42.5423C100.878 43.0749 100.098 43.5691 99.2936 44.023C98.2658 44.599 97.1905 45.0859 96.0795 45.4781C95.0736 45.8492 94.0118 46.0462 92.9398 46.0607C91.4508 46.0607 90.4983 45.0726 89.8 43.8511C91.2019 43.4796 92.5517 42.9338 93.8177 42.2266C94.9852 41.5817 96.0603 40.7824 97.0139 39.8502C97.9512 38.9042 98.7436 37.8249 99.3655 36.6475C100.05 35.4003 100.392 34.2737 100.392 33.2677C100.405 32.3921 100.235 31.5234 99.8944 30.7168C99.5781 29.9779 99.1082 29.3148 98.5157 28.7715C96.96 27.3524 94.8498 26.9751 92.8088 27.1317C88.9067 27.4319 86.17 31.0504 84.8838 34.443C84.5124 35.4217 84.1547 36.5431 83.8107 37.8075C83.41 39.3518 83.2609 40.9505 83.3692 42.5423C83.4097 43.1579 83.506 43.7686 83.6567 44.3669C83.1621 44.6732 82.6649 44.97 82.1651 45.2574C80.7326 46.0735 79.1769 46.3045 78.7199 44.3618C78.3066 42.6039 78.666 40.6868 78.9099 38.9289C79.1332 37.3096 79.4233 35.698 79.6801 34.0889C79.9368 32.6364 80.2834 31.13 80.0369 29.6569C79.621 27.1881 77.2335 26.603 75.1977 27.6039C74.5131 27.9341 73.909 28.5465 73.3852 29.4413L73.0695 30.1163L71.506 33.4524C70.8514 34.8459 70.1146 36.2292 69.5421 37.656C69.4292 37.9435 69.2264 38.5414 68.8028 38.3977C68.4228 38.272 68.5614 37.6278 68.6128 37.3507C68.7052 36.8656 68.7771 36.3883 68.8284 35.8956C68.9037 35.2112 68.9825 34.5996 69.0646 34.0607C69.1468 33.5217 69.2255 33.0008 69.3008 32.4978C69.3761 31.9931 69.4386 31.5294 69.4882 31.1069C69.5315 30.774 69.5564 30.439 69.5627 30.1034C69.6021 29.3415 69.424 28.5841 69.0492 27.9195C68.7069 27.3737 68.0865 27.1009 67.188 27.1009C66.4052 27.0594 65.639 27.3372 65.0649 27.8708C64.5376 28.3941 64.1714 29.0576 64.0098 29.7826C63.8686 30.3755 63.7248 31.0504 63.5785 31.7869C62.9034 31.1063 62.1669 30.4895 61.3784 29.9443C60.1848 29.1274 58.8904 28.4684 57.5275 27.9837C56.1078 27.4877 54.6132 27.2403 53.1094 27.2523C51.4022 27.2254 49.7094 27.5677 48.1469 28.2557C46.7177 28.8936 45.4435 29.8329 44.4116 31.0093C43.3715 32.2137 42.5747 33.6081 42.0652 35.1154C41.5192 36.6945 41.2462 38.5765 41.2462 40.7613C41.2462 41.1077 41.2847 41.4516 41.3053 41.7878C40.2322 42.8785 39.2515 43.828 38.3735 44.6107C37.5823 45.3349 36.749 46.0118 35.8782 46.6381C35.2585 47.0907 34.5934 47.4777 33.8937 47.7929C33.4261 48.0112 32.9203 48.1359 32.4047 48.1599C31.3128 48.1599 30.5307 47.834 30.0583 47.1821C29.5859 46.5329 29.3497 45.6424 29.3497 44.4798C29.3761 42.9002 29.548 41.3264 29.8632 39.7784C30.5307 36.1856 30.9876 34.1633 31.2675 33.3293C31.2675 33.3293 37.6213 32.7878 39.5775 31.9897C39.8209 31.8695 40.0242 31.6814 40.1629 31.4482C40.3259 31.1561 40.4066 30.8253 40.3965 30.4909C40.4192 30.1056 40.4063 29.719 40.358 29.3361C40.2916 29.0906 40.1635 28.8662 39.9857 28.6843C39.7753 28.4833 39.5188 28.3371 39.2387 28.2583C38.8326 28.1462 38.4121 28.0951 37.991 28.1069C37.8524 28.1069 37.706 28.1069 37.5494 28.1274L37.036 28.1633L35.2749 28.2916C34.5047 28.3507 33.827 28.4456 32.9182 28.5277C33.3161 27.2446 33.6344 26.331 34.0709 25.0427C34.5073 23.7544 34.9488 22.4918 35.3878 21.2574C35.8268 20.023 36.2607 18.8271 36.692 17.6646C36.8974 17.1051 37.1053 16.5482 37.3107 15.9914C37.4904 15.5012 37.6906 15.0162 37.8703 14.5234C38.23 13.623 38.4374 12.669 38.4839 11.7005C38.4839 10.8973 38.2272 9.90411 37.57 9.39085C37.3051 9.1808 37.0016 9.02473 36.6766 8.93148C36.3355 8.83206 35.9819 8.78194 35.6266 8.78263C34.7831 8.76844 33.9646 9.06953 33.3315 9.62695C32.6411 10.2485 32.1042 11.0215 31.7629 11.8853C30.5649 14.7305 29.4747 17.6389 28.4923 20.6107C27.5065 23.5773 26.6234 26.1796 25.7146 28.9101C25.694 28.9717 24.3693 29.0923 24.2589 29.1026C23.707 29.1488 23.155 29.2027 22.6057 29.2591C22.0563 29.3156 21.5403 29.3669 21.0063 29.4157C19.2092 29.5825 17.4301 29.7313 15.6382 29.8519C16.1106 28.3464 16.5539 26.8708 16.968 25.4251C17.3822 23.9794 17.7408 22.6107 18.0437 21.319C18.3484 20.0376 18.5888 18.8596 18.7651 17.7852C18.9225 16.8841 19.0084 15.9719 19.0218 15.0572C19.0593 13.6752 18.8183 12.2998 18.3133 11.0127C17.8929 9.97645 17.2393 9.0509 16.4033 8.30787C15.5921 7.60812 14.6393 7.09166 13.6101 6.79375C12.5264 6.47564 11.4022 6.31658 10.2727 6.32155C9.65194 6.30314 9.03309 6.39972 8.44745 6.60641C8.15078 6.70606 7.86237 6.82876 7.58486 6.97339C6.73826 7.41418 5.98436 8.0136 5.36422 8.73901C4.363 9.86561 3.85212 11.4465 3.66985 12.9323C3.48758 14.4182 5.26666 13.7741 5.98035 13.3173C6.86861 12.7476 7.86982 11.9931 9.38191 11.875L9.38962 11.9135ZM54.3699 40.6791C54.1755 41.7632 53.855 42.8209 53.4149 43.8306C53.0697 44.6193 52.6009 45.3479 52.026 45.9888C51.4954 46.5585 50.9495 46.8442 50.3881 46.846C49.2572 46.8882 48.1925 46.3133 47.6078 45.3447C47.3104 44.8504 47.1002 44.3087 46.9865 43.7433C46.8509 43.0987 46.7846 42.4414 46.7889 41.7827C46.7749 40.5394 46.9085 39.299 47.1868 38.0872C47.4306 37.0509 47.7969 36.0473 48.2778 35.0974C48.6858 34.2709 49.2309 33.5195 49.8901 32.875C50.3962 32.3429 51.0916 32.0313 51.8257 32.0076C52.2989 31.9951 52.7623 32.1434 53.1402 32.4285C53.5231 32.7342 53.8291 33.1253 54.0336 33.5705C54.2813 34.1108 54.454 34.6824 54.547 35.2694C54.6674 35.9703 54.7258 36.6805 54.7216 37.3917C54.7064 38.4964 54.586 39.5972 54.3622 40.6791H54.3699ZM89.2763 39.7399C89.1916 39.6834 89.1711 39.5577 89.1942 39.3139C89.3482 37.5175 89.8642 35.5722 90.8552 34.053C91.7794 32.6364 94.1669 30.9221 95.5044 32.9212C96.2746 34.0555 95.7124 35.254 94.9473 36.2959C94.4437 37.0056 93.8441 37.6421 93.1657 38.1873C92.5628 38.6548 91.9018 39.0421 91.1992 39.3395C90.7293 39.5419 90.2347 39.6808 89.7282 39.7527C89.5022 39.7809 89.3611 39.7938 89.2789 39.7399H89.2763ZM112.222 63.5628C111.888 65.9777 111.742 68.4182 111.301 70.8126C110.895 73.0068 108.785 72.0316 109.059 70.1351C109.298 68.7266 109.73 67.3579 110.343 66.0675C110.882 64.9082 111.549 63.8132 112.333 62.8032C112.297 63.0598 112.261 63.3165 112.225 63.5731L112.222 63.5628ZM157.385 57.6167C151.737 63.6244 144.649 63.7758 137.263 61.8793C130.349 60.1163 127.556 55.7921 124.94 49.1787C124.912 49.1094 124.873 49.0504 124.843 48.9862C125.276 48.337 125.713 47.6877 126.126 47.0307C126.265 46.8943 126.389 46.7437 126.496 46.5816C127.567 44.969 128.538 43.2917 129.402 41.5594C129.561 41.2437 129.713 40.9255 129.867 40.6047C133.266 33.5756 135.622 25.887 140.364 19.769C145.547 13.0786 152.047 17.3849 149.76 25.2557C147.824 31.9075 142.695 35.1257 137.001 38.177C134.11 39.7168 136.672 44.0795 139.568 42.5628C145.871 39.242 149.082 36.3421 156.561 38.1642C165.723 40.3969 161.592 53.1462 157.397 57.6193L157.385 57.6167ZM176.531 40.6817C176.337 41.7658 176.016 42.8234 175.576 43.8331C175.231 44.6218 174.762 45.3504 174.187 45.9914C173.648 46.556 173.096 46.8383 172.531 46.8383C171.4 46.88 170.336 46.3052 169.751 45.337C169.454 44.8424 169.244 44.3008 169.13 43.7356C168.994 43.0909 168.928 42.4337 168.932 41.775C168.918 40.5317 169.051 39.2912 169.33 38.0795C169.574 37.0431 169.94 36.0395 170.421 35.0897C170.829 34.263 171.374 33.5115 172.033 32.8673C172.539 32.3352 173.235 32.0236 173.969 31.9999C174.442 31.9872 174.906 32.1356 175.283 32.4208C175.667 32.7261 175.973 33.1174 176.177 33.5628C176.425 34.103 176.597 34.6746 176.69 35.2617C176.81 35.9627 176.869 36.6728 176.865 37.384C176.849 38.4887 176.729 39.5895 176.505 40.6714L176.531 40.6817ZM197.898 40.6714C197.704 41.7556 197.383 42.8132 196.943 43.8229C196.597 44.6116 196.127 45.3402 195.551 45.9811C195.023 46.5508 194.477 46.8365 193.914 46.8383C192.783 46.8805 191.718 46.3056 191.133 45.337C190.836 44.8427 190.626 44.301 190.512 43.7356C190.377 43.0909 190.31 42.4337 190.314 41.775C190.3 40.5317 190.434 39.2913 190.712 38.0795C190.956 37.0432 191.322 36.0396 191.803 35.0897C192.212 34.263 192.758 33.5116 193.418 32.8673C193.924 32.3352 194.62 32.0236 195.354 31.9999C195.827 31.9872 196.291 32.1356 196.668 32.4208C197.051 32.7262 197.357 33.1174 197.562 33.5628C197.809 34.103 197.982 34.6746 198.075 35.2617C198.195 35.9627 198.254 36.6728 198.25 37.384C198.234 38.4887 198.114 39.5895 197.89 40.6714H197.898ZM215.291 27.0983C215.329 26.9289 215.37 26.7749 215.412 26.6107C216.111 23.4511 217.017 20.3409 218.125 17.3002C218.124 17.2933 218.124 17.2865 218.125 17.2796C218.161 17.1796 218.197 17.0846 218.235 16.9845C218.274 16.8844 218.315 16.7715 218.356 16.674C219.032 14.8215 219.916 13.0515 220.99 11.3977C221.858 10.1145 223.093 9.63464 223.935 9.74243C224.365 9.78574 224.752 10.0205 224.99 10.3814C225.262 10.7997 225.503 11.6056 225.069 13.0837C224.603 14.6335 223.962 16.1255 223.159 17.5311V17.5491C223.159 17.5491 223.082 17.6826 222.946 17.9058C222.749 18.2471 222.528 18.5885 222.307 18.9323C220.075 22.4154 217.617 25.7484 214.949 28.9101C214.949 28.9101 215.05 28.2429 215.296 27.0829L215.278 27.1009" fill="white"/>
</mask>
<g mask="url(#mask0)">
<path d="M9.38962 11.9135C9.91661 11.8964 10.4399 12.0073 10.9145 12.2369C11.3194 12.4468 11.666 12.7536 11.9235 13.1299C12.2036 13.5511 12.3965 14.024 12.4908 14.5209C12.6104 15.1121 12.668 15.7141 12.6628 16.3173C12.6553 17.1592 12.5694 17.9986 12.4061 18.8246C12.2396 19.7063 12.0193 20.5771 11.7463 21.4319C11.4314 22.3917 10.9351 23.798 10.2573 25.6509C9.71052 27.0726 9.14573 28.6021 8.55013 30.1419L6.14978 30.2087C5.25639 30.2087 5.81091 30.2086 5.03304 30.2343C4.25518 30.26 3.47731 30.2754 2.69944 30.3087C2.014 30.3344 0.871583 30.3267 0.388946 30.881C-0.191246 31.5508 -0.0115403 32.2591 0.219509 32.8596C0.219509 32.8596 1.08466 35.485 6.48096 35.6518C5.26666 39.6706 3.74173 43.4687 2.41191 47.5697C1.8574 49.2788 0.697012 51.8323 2.50947 53.2155C2.81975 53.4443 3.16712 53.6179 3.53636 53.7288C3.91344 53.8476 4.30648 53.9082 4.70187 53.9084C6.42961 53.9084 7.48474 53.1026 8.18816 51.5756C8.92495 49.9794 9.53081 48.3241 10.1238 46.6714C10.4798 45.6809 10.8683 44.5902 11.2894 43.3994C11.7104 42.2087 12.1511 40.8879 12.6115 39.4371C13.0702 37.988 13.5357 36.5508 14.008 35.1257L17.2787 34.8075L18.8858 34.6432C19.8219 34.5457 20.7573 34.4422 21.6917 34.3327C22.5671 34.23 23.3553 34.153 24.3899 33.9862C24.1717 35.2694 23.7532 36.5294 23.4888 37.8023C23.2013 39.1864 22.9625 40.3549 22.7725 41.3079C22.5826 42.2608 22.4379 43.1103 22.3387 43.8562C22.2495 44.4735 22.1997 45.0958 22.1898 45.7194C22.1703 46.9074 22.3633 48.0893 22.7597 49.2095C23.099 50.158 23.6225 51.0302 24.3 51.7758C24.9439 52.4713 25.7326 53.017 26.6105 53.3746C27.5303 53.7461 28.5143 53.9327 29.5063 53.9238C30.5208 53.9068 31.5278 53.7461 32.4972 53.4465C33.6759 53.0922 34.8155 52.6193 35.8987 52.035C37.1717 51.3532 38.3912 50.576 39.5467 49.7099C40.6052 48.9127 41.6175 48.0558 42.5786 47.1436C42.7467 47.4872 42.9336 47.8214 43.1383 48.1445C43.7871 49.1566 44.6569 50.0086 45.6824 50.6364C46.8132 51.2986 48.1077 51.6294 49.4177 51.591C50.393 51.5999 51.3613 51.4258 52.2724 51.0778C53.1619 50.7328 53.9944 50.2561 54.7421 49.6638C55.5062 49.0565 56.1826 48.3466 56.7522 47.5543C57.3408 46.742 57.84 45.8687 58.2412 44.9495C58.6469 44.0239 58.9591 43.0602 59.1731 42.0726C59.3846 41.1091 59.493 40.1258 59.4966 39.1394C59.5096 37.9271 59.3891 36.7171 59.1372 35.5312C59.0036 34.9533 58.8321 34.385 58.6237 33.8297C58.5673 33.6732 58.0127 32.6312 58.0435 32.4901C58.0435 32.0615 58.7136 32.5337 59.0576 32.7724C59.7927 33.2623 60.5005 33.7917 61.1781 34.3584C61.7609 34.8588 62.3154 35.3849 62.8597 35.9392C62.7698 36.5808 62.6851 37.2429 62.6029 37.9409C62.4044 39.6518 62.2392 41.2232 62.1075 42.6552C61.9757 44.0872 61.9098 45.3481 61.9098 46.4379C61.9093 47.0803 61.947 47.7222 62.0227 48.3601C62.0844 48.9342 62.2351 49.4952 62.4694 50.023C62.899 51.0587 63.9437 51.7029 65.0623 51.6218C65.5675 51.6327 66.0659 51.5039 66.5025 51.2497C66.8996 51.0188 67.2718 50.556 67.6193 49.8614L67.6347 49.8306C67.8734 49.343 68.125 48.8605 68.3689 48.3755L69.9092 45.2959C70.5202 44.0898 71.1235 42.8759 71.7371 41.6697C72.2685 40.6253 72.7819 39.5705 73.3236 38.5312C73.5367 38.1231 73.7241 37.7022 73.9218 37.2839C73.9911 37.1402 74.2119 36.5423 74.4352 36.5628C74.5867 36.5782 74.5354 36.9323 74.5302 37.0145C74.4943 37.4584 74.3813 37.8921 74.3197 38.3335C74.2119 39.1086 74.1135 39.8836 74.0245 40.6586C73.8974 41.725 73.8314 42.7977 73.8268 43.8716C73.8268 46.402 74.1374 48.3241 74.7587 49.6381C75.38 50.9546 76.1938 51.4602 77.0538 51.6116C77.9138 51.763 78.8329 51.4807 79.6595 51.2138C80.4798 50.927 81.2837 50.5955 82.0676 50.2206C82.5605 50.0051 83.744 49.3994 85.5975 48.4063C86.3817 49.3877 87.3697 50.1871 88.4933 50.7493C89.7611 51.3442 91.1494 51.6376 92.5495 51.6064C93.5403 51.6067 94.5276 51.4913 95.4916 51.2626C96.4501 51.0341 97.3878 50.7259 98.295 50.3413C99.1851 49.9641 100.047 49.5241 100.875 49.0247C101.422 48.6963 101.933 48.3626 102.431 48.0239C102.706 48.5847 103.061 49.1032 103.483 49.5637C104.048 50.1571 104.728 50.6294 105.481 50.952C106.21 51.2684 106.996 51.4326 107.791 51.4345C108.776 51.4177 109.743 51.1698 110.615 50.7108C111.625 50.2009 112.564 49.5616 113.408 48.8092C113.408 48.8092 113.816 48.3344 114.053 48.3909C113.888 50.4593 113.66 52.52 113.388 54.5756C112.261 55.6766 111.131 56.7801 110.05 57.9555C106.228 62.1129 101.971 69.183 105.134 74.8391C108.122 80.177 114.214 77.2335 115.855 72.8862C117.369 68.8751 117.154 63.7963 117.78 59.6159C117.898 58.828 118.009 58.0401 118.122 57.2549C119.257 56.2221 120.314 55.107 121.284 53.9187C124.365 61.1043 129.217 65.0692 137.427 67.1633C147.141 69.6424 157.77 67.0812 163.559 58.1813C165.157 55.6341 166.239 52.7975 166.742 49.8331C167.078 50.1323 167.439 50.4027 167.82 50.6415C168.951 51.3036 170.246 51.6344 171.556 51.5962C172.531 51.605 173.499 51.4309 174.41 51.0829C175.3 50.738 176.132 50.2613 176.88 49.6689C177.644 49.0617 178.321 48.3518 178.89 47.5594C179.479 46.7471 179.978 45.8738 180.379 44.9546C180.783 44.0287 181.095 43.0651 181.309 42.0778C181.521 41.1075 181.63 40.1173 181.632 39.124C181.645 37.9117 181.525 36.7016 181.273 35.5158C181.139 34.938 180.967 34.3696 180.759 33.8143C180.703 33.6578 180.148 32.6158 180.179 32.4747C180.179 32.0461 180.849 32.5183 181.206 32.757C181.941 33.2471 182.649 33.7765 183.326 34.343C184.004 34.9229 184.643 35.5491 185.272 36.1856C184.915 37.6849 184.742 39.2225 184.759 40.7638C184.759 42.0835 184.913 43.3987 185.218 44.6826C185.5 45.9154 185.992 47.0907 186.671 48.1573C187.32 49.1694 188.19 50.0214 189.216 50.6492C190.347 51.3113 191.641 51.6421 192.951 51.6039C193.926 51.6128 194.895 51.4387 195.806 51.0906C196.695 50.7457 197.528 50.269 198.275 49.6766C199.039 49.0692 199.716 48.3594 200.285 47.5671C200.874 46.7549 201.373 45.8816 201.774 44.9623C202.18 44.0368 202.493 43.0731 202.706 42.0855C202.92 41.1153 203.028 40.125 203.03 39.1317C203.043 37.9194 202.922 36.7094 202.67 35.5235C202.537 34.9457 202.365 34.3773 202.157 33.822C202.1 33.6655 201.546 32.6235 201.577 32.4824C201.577 32.0538 202.247 32.526 202.604 32.7647C203.339 33.2546 204.047 33.784 204.724 34.3507C206.049 35.4875 207.237 36.7835 208.459 38.0205C207.813 41.662 206.963 45.2446 205.451 48.4114C205.114 49.0543 205.114 49.8215 205.451 50.4644C205.879 51.1805 206.618 51.6552 207.448 51.7476C208.528 51.9186 209.589 51.3428 210.033 50.3438C211.728 46.7869 212.418 43.0863 212.965 39.5859C214.482 38.5158 215.904 37.5996 217.283 36.804H217.27C217.27 36.804 223.383 33.0367 225.015 32.8596C226.299 32.7211 226.556 33.5012 226.353 34.112C226.353 34.1377 226.335 34.1633 226.325 34.1915C226.275 34.3221 226.203 34.4428 226.112 34.5483C225.822 34.9306 225.254 35.4798 224.166 36.26C222.621 37.323 221.021 38.3039 219.373 39.1984C218.752 39.5264 218.296 40.0984 218.115 40.7767C218.086 40.872 218.062 40.9688 218.043 41.0667L217.966 41.4567C217.915 41.7134 217.468 44.0384 217.547 44.6697V44.7031V44.7878C217.547 44.8879 217.535 44.9905 217.535 45.0803C217.508 46.1484 217.694 47.2111 218.084 48.2061C218.414 49.0175 218.927 49.742 219.583 50.3233C220.218 50.871 220.963 51.2754 221.768 51.5089C223.239 51.9511 224.802 51.9971 226.297 51.6424C227.023 51.4849 227.735 51.2668 228.425 50.9905C229.146 50.707 229.843 50.3636 230.507 49.964C231.155 49.5744 231.758 49.1139 232.304 48.591C232.815 48.1065 233.244 47.5412 233.572 46.9178C234.019 46.0658 234.162 44.9238 233.98 43.7048C233.885 43.0607 233.467 42.9939 233.274 42.9939C232.92 42.9939 232.468 43.2249 231.893 43.6997C231.182 44.2947 230.438 44.8491 229.665 45.3601C229.059 45.7608 228.426 46.1209 227.773 46.4379C227.272 46.6807 226.749 46.8766 226.212 47.023C225.2 47.2797 224.471 47.2437 223.981 46.9897C223.716 46.8514 223.49 46.6505 223.321 46.4046C223.133 46.119 223.004 45.7988 222.941 45.4627C222.855 45.0405 222.813 44.6105 222.815 44.1796C222.815 43.9024 222.833 43.6176 222.862 43.325C226.166 41.4644 230.666 38.9212 231.528 35.3695C231.893 33.8682 231.557 32.3156 230.532 30.7501C229.221 28.7587 227.339 27.8536 224.885 28.035C224.012 28.1351 222.528 28.4944 220.549 29.6954L220.52 29.7108C220.32 29.8314 220.169 29.9187 220.066 29.9674C219.488 30.3087 218.921 30.6526 218.405 30.9683L218.31 31.0299C217.026 31.7998 216.094 32.4182 216.094 32.4182C216.002 32.4182 215.951 32.3027 216.015 32.254C220.559 28.7253 222.905 26.1334 223.221 25.7741C223.655 25.2326 224.071 24.6885 224.471 24.1317C226.646 21.1163 229.621 16.9871 230.188 13.2814C230.533 11.187 230.011 9.04254 228.743 7.34037C227.712 5.90142 226.149 4.93438 224.401 4.65478C222.653 4.37518 220.865 4.80625 219.437 5.85192C214.688 9.06493 212.803 16.6304 211.427 22.171C211.268 22.8074 211.117 23.4182 210.968 23.9931C210.197 26.9572 209.715 30.1522 209.245 33.26L209.127 34.0299C208.845 33.6885 208.57 33.3498 208.277 33.0033C207.309 31.8264 206.181 30.79 204.927 29.9238C203.733 29.1067 202.439 28.4477 201.076 27.9631C199.656 27.4672 198.162 27.2198 196.658 27.2317C194.95 27.2046 193.256 27.5469 191.693 28.2352C190.254 28.8747 188.972 29.8196 187.935 31.0042C187.45 31.5607 187.021 32.1623 186.651 32.8006C185.733 31.7164 184.676 30.757 183.509 29.9469C182.315 29.1299 181.021 28.4709 179.658 27.9862C178.238 27.4906 176.743 27.2432 175.24 27.2548C173.532 27.2276 171.838 27.5699 170.275 28.2583C168.846 28.8963 167.571 29.8356 166.539 31.0119C165.499 32.2163 164.702 33.6106 164.193 35.118C164.014 35.6533 163.869 36.1993 163.759 36.7527C163.284 36.2448 162.761 35.7849 162.196 35.3797C159.058 33.0951 155.169 32.0862 151.316 32.5568C152.695 30.7294 153.818 28.7219 154.653 26.5902C156.751 21.2009 155.167 13.3481 148.923 11.5183C141.992 9.49606 137.686 14.0846 134.367 19.6714C130.822 25.6381 128.527 32.1975 125.382 38.3489V38.3618C124.868 39.3883 123.721 41.698 123.328 42.4217C122.907 43.2557 122.37 44.2309 121.695 45.3575C120.838 46.7921 119.759 48.4525 118.381 50.3874L118.917 47.9161L119.305 46.1197L119.51 45.1779C119.752 43.8947 120.065 42.5962 120.317 41.1385C120.5 40.1 120.741 38.7313 121.041 37.0324C121.34 35.3335 121.571 34.0068 121.734 33.0521C121.905 32.1077 122.052 31.2643 122.175 30.5217C122.298 29.7792 122.402 29.1881 122.486 28.7484C122.531 28.581 122.556 28.4086 122.56 28.2352C122.593 27.8159 122.396 27.4119 122.047 27.1779C121.66 26.9448 121.215 26.8281 120.763 26.8417C120.299 26.8474 119.837 26.9227 119.395 27.0649C118.9 27.2217 118.431 27.4518 118.004 27.7476C117.552 28.0574 117.153 28.4378 116.823 28.8742C116.479 29.3103 116.241 29.8197 116.127 30.3626L114.137 39.6424C114.041 40.3183 113.896 40.9864 113.703 41.6415C113.48 42.4404 113.185 43.2177 112.823 43.964C112.493 44.6657 112.06 45.3144 111.539 45.8887C111.126 46.383 110.52 46.6749 109.876 46.6894C109.537 46.7021 109.204 46.5999 108.931 46.3994C108.676 46.1987 108.472 45.9412 108.335 45.6475C108.179 45.3136 108.075 44.958 108.025 44.5927C107.966 44.1899 107.937 43.7834 107.937 43.3763C107.937 42.0521 108.21 40.7561 108.451 39.4627C108.667 38.3361 108.872 37.2044 109.077 36.0778C109.405 34.2184 109.841 32.3796 110.381 30.5705C110.72 29.467 111.437 27.7835 110.212 26.9264C109.774 26.6291 109.253 26.4774 108.723 26.4927C107.99 26.5073 107.273 26.7078 106.638 27.0752C105.165 27.881 104.615 29.5157 103.999 30.9734C103.452 32.3204 103.023 33.7123 102.716 35.1334C102.143 37.5675 101.781 40.0462 101.632 42.5423C100.878 43.0749 100.098 43.5691 99.2936 44.023C98.2658 44.599 97.1905 45.0859 96.0795 45.4781C95.0736 45.8492 94.0118 46.0462 92.9398 46.0607C91.4508 46.0607 90.4983 45.0726 89.8 43.8511C91.2019 43.4796 92.5517 42.9338 93.8177 42.2266C94.9852 41.5817 96.0603 40.7824 97.0139 39.8502C97.9512 38.9042 98.7436 37.8249 99.3655 36.6475C100.05 35.4003 100.392 34.2737 100.392 33.2677C100.405 32.3921 100.235 31.5234 99.8944 30.7168C99.5781 29.9779 99.1082 29.3148 98.5157 28.7715C96.96 27.3524 94.8498 26.9751 92.8088 27.1317C88.9067 27.4319 86.17 31.0504 84.8838 34.443C84.5124 35.4217 84.1547 36.5431 83.8107 37.8075C83.41 39.3518 83.2609 40.9505 83.3692 42.5423C83.4097 43.1579 83.506 43.7686 83.6567 44.3669C83.1621 44.6732 82.6649 44.97 82.1651 45.2574C80.7326 46.0735 79.1769 46.3045 78.7199 44.3618C78.3066 42.6039 78.666 40.6868 78.9099 38.9289C79.1332 37.3096 79.4233 35.698 79.6801 34.0889C79.9368 32.6364 80.2834 31.13 80.0369 29.6569C79.621 27.1881 77.2335 26.603 75.1977 27.6039C74.5131 27.9341 73.909 28.5465 73.3852 29.4413L73.0695 30.1163L71.506 33.4524C70.8514 34.8459 70.1146 36.2292 69.5421 37.656C69.4292 37.9435 69.2264 38.5414 68.8028 38.3977C68.4228 38.272 68.5614 37.6278 68.6128 37.3507C68.7052 36.8656 68.7771 36.3883 68.8284 35.8956C68.9037 35.2112 68.9825 34.5996 69.0646 34.0607C69.1468 33.5217 69.2255 33.0008 69.3008 32.4978C69.3761 31.9931 69.4386 31.5294 69.4882 31.1069C69.5315 30.774 69.5564 30.439 69.5627 30.1034C69.6021 29.3415 69.424 28.5841 69.0492 27.9195C68.7069 27.3737 68.0865 27.1009 67.188 27.1009C66.4052 27.0594 65.639 27.3372 65.0649 27.8708C64.5376 28.3941 64.1714 29.0576 64.0098 29.7826C63.8686 30.3755 63.7248 31.0504 63.5785 31.7869C62.9034 31.1063 62.1669 30.4895 61.3784 29.9443C60.1848 29.1274 58.8904 28.4684 57.5275 27.9837C56.1078 27.4877 54.6132 27.2403 53.1094 27.2523C51.4022 27.2254 49.7094 27.5677 48.1469 28.2557C46.7177 28.8936 45.4435 29.8329 44.4116 31.0093C43.3715 32.2137 42.5747 33.6081 42.0652 35.1154C41.5192 36.6945 41.2462 38.5765 41.2462 40.7613C41.2462 41.1077 41.2847 41.4516 41.3053 41.7878C40.2322 42.8785 39.2515 43.828 38.3735 44.6107C37.5823 45.3349 36.749 46.0118 35.8782 46.6381C35.2585 47.0907 34.5934 47.4777 33.8937 47.7929C33.4261 48.0112 32.9203 48.1359 32.4047 48.1599C31.3128 48.1599 30.5307 47.834 30.0583 47.1821C29.5859 46.5329 29.3497 45.6424 29.3497 44.4798C29.3761 42.9002 29.548 41.3264 29.8632 39.7784C30.5307 36.1856 30.9876 34.1633 31.2675 33.3293C31.2675 33.3293 37.6213 32.7878 39.5775 31.9897C39.8209 31.8695 40.0242 31.6814 40.1629 31.4482C40.3259 31.1561 40.4066 30.8253 40.3965 30.4909C40.4192 30.1056 40.4063 29.719 40.358 29.3361C40.2916 29.0906 40.1635 28.8662 39.9857 28.6843C39.7753 28.4833 39.5188 28.3371 39.2387 28.2583C38.8326 28.1462 38.4121 28.0951 37.991 28.1069C37.8524 28.1069 37.706 28.1069 37.5494 28.1274L37.036 28.1633L35.2749 28.2916C34.5047 28.3507 33.827 28.4456 32.9182 28.5277C33.3161 27.2446 33.6344 26.331 34.0709 25.0427C34.5073 23.7544 34.9488 22.4918 35.3878 21.2574C35.8268 20.023 36.2607 18.8271 36.692 17.6646C36.8974 17.1051 37.1053 16.5482 37.3107 15.9914C37.4904 15.5012 37.6906 15.0162 37.8703 14.5234C38.23 13.623 38.4374 12.669 38.4839 11.7005C38.4839 10.8973 38.2272 9.90411 37.57 9.39085C37.3051 9.1808 37.0016 9.02473 36.6766 8.93148C36.3355 8.83206 35.9819 8.78194 35.6266 8.78263C34.7831 8.76844 33.9646 9.06953 33.3315 9.62695C32.6411 10.2485 32.1042 11.0215 31.7629 11.8853C30.5649 14.7305 29.4747 17.6389 28.4923 20.6107C27.5065 23.5773 26.6234 26.1796 25.7146 28.9101C25.694 28.9717 24.3693 29.0923 24.2589 29.1026C23.707 29.1488 23.155 29.2027 22.6057 29.2591C22.0563 29.3156 21.5403 29.3669 21.0063 29.4157C19.2092 29.5825 17.4301 29.7313 15.6382 29.8519C16.1106 28.3464 16.5539 26.8708 16.968 25.4251C17.3822 23.9794 17.7408 22.6107 18.0437 21.319C18.3484 20.0376 18.5888 18.8596 18.7651 17.7852C18.9225 16.8841 19.0084 15.9719 19.0218 15.0572C19.0593 13.6752 18.8183 12.2998 18.3133 11.0127C17.8929 9.97645 17.2393 9.0509 16.4033 8.30787C15.5921 7.60812 14.6393 7.09166 13.6101 6.79375C12.5264 6.47564 11.4022 6.31658 10.2727 6.32155C9.65194 6.30314 9.03309 6.39972 8.44745 6.60641C8.15078 6.70606 7.86237 6.82876 7.58486 6.97339C6.73826 7.41418 5.98436 8.0136 5.36422 8.73901C4.363 9.86561 3.85212 11.4465 3.66985 12.9323C3.48758 14.4182 5.26666 13.7741 5.98035 13.3173C6.86861 12.7476 7.86982 11.9931 9.38191 11.875L9.38962 11.9135ZM54.3699 40.6791C54.1755 41.7632 53.855 42.8209 53.4149 43.8306C53.0697 44.6193 52.6009 45.3479 52.026 45.9888C51.4954 46.5585 50.9495 46.8442 50.3881 46.846C49.2572 46.8882 48.1925 46.3133 47.6078 45.3447C47.3104 44.8504 47.1002 44.3087 46.9865 43.7433C46.8509 43.0987 46.7846 42.4414 46.7889 41.7827C46.7749 40.5394 46.9085 39.299 47.1868 38.0872C47.4306 37.0509 47.7969 36.0473 48.2778 35.0974C48.6858 34.2709 49.2309 33.5195 49.8901 32.875C50.3962 32.3429 51.0916 32.0313 51.8257 32.0076C52.2989 31.9951 52.7623 32.1434 53.1402 32.4285C53.5231 32.7342 53.8291 33.1253 54.0336 33.5705C54.2813 34.1108 54.454 34.6824 54.547 35.2694C54.6674 35.9703 54.7258 36.6805 54.7216 37.3917C54.7064 38.4964 54.586 39.5972 54.3622 40.6791H54.3699ZM89.2763 39.7399C89.1916 39.6834 89.1711 39.5577 89.1942 39.3139C89.3482 37.5175 89.8642 35.5722 90.8552 34.053C91.7794 32.6364 94.1669 30.9221 95.5044 32.9212C96.2746 34.0555 95.7124 35.254 94.9473 36.2959C94.4437 37.0056 93.8441 37.6421 93.1657 38.1873C92.5628 38.6548 91.9018 39.0421 91.1992 39.3395C90.7293 39.5419 90.2347 39.6808 89.7282 39.7527C89.5022 39.7809 89.3611 39.7938 89.2789 39.7399H89.2763ZM112.222 63.5628C111.888 65.9777 111.742 68.4182 111.301 70.8126C110.895 73.0068 108.785 72.0316 109.059 70.1351C109.298 68.7266 109.73 67.3579 110.343 66.0675C110.882 64.9082 111.549 63.8132 112.333 62.8032C112.297 63.0598 112.261 63.3165 112.225 63.5731L112.222 63.5628ZM157.385 57.6167C151.737 63.6244 144.649 63.7758 137.263 61.8793C130.349 60.1163 127.556 55.7921 124.94 49.1787C124.912 49.1094 124.873 49.0504 124.843 48.9862C125.276 48.337 125.713 47.6877 126.126 47.0307C126.265 46.8943 126.389 46.7437 126.496 46.5816C127.567 44.969 128.538 43.2917 129.402 41.5594C129.561 41.2437 129.713 40.9255 129.867 40.6047C133.266 33.5756 135.622 25.887 140.364 19.769C145.547 13.0786 152.047 17.3849 149.76 25.2557C147.824 31.9075 142.695 35.1257 137.001 38.177C134.11 39.7168 136.672 44.0795 139.568 42.5628C145.871 39.242 149.082 36.3421 156.561 38.1642C165.723 40.3969 161.592 53.1462 157.397 57.6193L157.385 57.6167ZM176.531 40.6817C176.337 41.7658 176.016 42.8234 175.576 43.8331C175.231 44.6218 174.762 45.3504 174.187 45.9914C173.648 46.556 173.096 46.8383 172.531 46.8383C171.4 46.88 170.336 46.3052 169.751 45.337C169.454 44.8424 169.244 44.3008 169.13 43.7356C168.994 43.0909 168.928 42.4337 168.932 41.775C168.918 40.5317 169.051 39.2912 169.33 38.0795C169.574 37.0431 169.94 36.0395 170.421 35.0897C170.829 34.263 171.374 33.5115 172.033 32.8673C172.539 32.3352 173.235 32.0236 173.969 31.9999C174.442 31.9872 174.906 32.1356 175.283 32.4208C175.667 32.7261 175.973 33.1174 176.177 33.5628C176.425 34.103 176.597 34.6746 176.69 35.2617C176.81 35.9627 176.869 36.6728 176.865 37.384C176.849 38.4887 176.729 39.5895 176.505 40.6714L176.531 40.6817ZM197.898 40.6714C197.704 41.7556 197.383 42.8132 196.943 43.8229C196.597 44.6116 196.127 45.3402 195.551 45.9811C195.023 46.5508 194.477 46.8365 193.914 46.8383C192.783 46.8805 191.718 46.3056 191.133 45.337C190.836 44.8427 190.626 44.301 190.512 43.7356C190.377 43.0909 190.31 42.4337 190.314 41.775C190.3 40.5317 190.434 39.2913 190.712 38.0795C190.956 37.0432 191.322 36.0396 191.803 35.0897C192.212 34.263 192.758 33.5116 193.418 32.8673C193.924 32.3352 194.62 32.0236 195.354 31.9999C195.827 31.9872 196.291 32.1356 196.668 32.4208C197.051 32.7262 197.357 33.1174 197.562 33.5628C197.809 34.103 197.982 34.6746 198.075 35.2617C198.195 35.9627 198.254 36.6728 198.25 37.384C198.234 38.4887 198.114 39.5895 197.89 40.6714H197.898ZM215.291 27.0983C215.329 26.9289 215.37 26.7749 215.412 26.6107C216.111 23.4511 217.017 20.3409 218.125 17.3002C218.124 17.2933 218.124 17.2865 218.125 17.2796C218.161 17.1796 218.197 17.0846 218.235 16.9845C218.274 16.8844 218.315 16.7715 218.356 16.674C219.032 14.8215 219.916 13.0515 220.99 11.3977C221.858 10.1145 223.093 9.63464 223.935 9.74243C224.365 9.78574 224.752 10.0205 224.99 10.3814C225.262 10.7997 225.503 11.6056 225.069 13.0837C224.603 14.6335 223.962 16.1255 223.159 17.5311V17.5491C223.159 17.5491 223.082 17.6826 222.946 17.9058C222.749 18.2471 222.528 18.5885 222.307 18.9323C220.075 22.4154 217.617 25.7484 214.949 28.9101C214.949 28.9101 215.05 28.2429 215.296 27.0829L215.278 27.1009" fill="white"/>
<path d="M236.8 2.74292H-1.82861V81.3715H236.8V2.74292Z" fill="white"/>
</g>
</g>
<defs>
<clipPath id="clip0">
<rect width="233.143" height="80" fill="white"/>
</clipPath>
</defs>
</svg>
