<?xml version="1.0" encoding="UTF-8"?>
<svg xmlns="http://www.w3.org/2000/svg" width="1982" height="441" viewBox="0 0 1982 441" fill="none">
  <path d="M169.518 431.473C165.105 426.219 159.29 419.423 156.698 416.271C154.036 413.118 151.164 409.686 150.183 408.635C147.031 405.062 137.643 393.713 131.479 386.148C128.116 382.014 124.543 377.741 123.563 376.62C122.161 375.079 101.776 349.159 96.4515 342.224C91.828 336.199 80.9696 321.488 63.386 297.389C59.4629 291.995 52.3174 282.607 43.3504 271.119C40.0579 266.915 34.7338 259.98 31.4412 255.707C28.2187 251.503 19.8122 240.645 12.8068 231.678C0.127009 215.496 -1.48423 212.833 0.967664 211.432C1.5281 211.152 3.48963 208.981 5.38109 206.669C8.8838 202.255 13.5074 196.721 18.9015 190.556C24.2257 184.462 42.72 162.465 52.5276 150.625C64.787 135.774 69.971 129.609 76.6262 121.973C83.5616 113.987 83.9819 113.427 90.3568 105.791C93.229 102.358 96.2414 98.7152 97.082 97.7344C97.9227 96.7537 103.457 90.1686 109.342 83.0931C122.231 67.6812 122.021 67.8913 139.745 46.8751C155.647 28.0305 159.15 23.8272 169.728 10.7972C173.931 5.68321 177.925 1.05965 178.695 0.499212C180.517 -0.761763 181.497 0.00882412 187.102 7.01424C194.597 16.2614 204.965 28.8011 214.283 39.8697C223.6 50.8682 231.306 60.1854 246.227 78.5396C251.201 84.6343 255.475 89.8183 255.685 90.0285C255.895 90.2386 259.328 94.3718 263.181 99.2056C267.104 104.039 270.676 108.453 271.237 109.013C271.797 109.574 275.37 113.987 279.293 118.821C283.216 123.654 286.789 128.068 287.349 128.628C287.84 129.189 290.221 131.991 292.603 134.863C297.157 140.468 307.245 152.377 315.931 162.535C318.804 165.897 322.937 170.801 325.038 173.393C327.14 175.985 333.655 183.551 339.399 190.276C354.391 207.649 359.365 213.744 359.365 214.795C359.365 215.496 351.869 225.233 350.258 226.634C349.347 227.405 332.604 247.09 323.777 257.738C313.76 269.788 306.334 278.614 301.22 284.429C299.469 286.39 296.666 289.683 294.915 291.785C288.4 299.631 288.26 299.701 286.439 299.21C285.528 299 283.846 297.529 282.656 296.058C279.994 292.695 272.638 284.149 268.365 279.525C263.671 274.481 252.252 261.381 251.131 259.77C250.291 258.509 250.571 257.948 254.144 253.535C258.347 248.421 260.729 245.689 266.543 239.244C275.3 229.647 276 228.736 276 226.914C276 224.603 273.478 214.235 271.657 208.77C264.021 186.493 247.488 161.694 218.206 128.909C210.079 119.802 191.935 96.6136 183.179 84.214C181.637 82.0423 179.886 80.2209 179.256 80.2209C178.275 80.2209 175.613 83.0931 173.021 86.9461C172.46 87.7867 168.677 92.8306 164.614 98.1548C158.099 106.771 141.496 129.749 132.529 142.569C117.258 164.216 105.909 183.901 100.795 197.352C99.604 200.574 98.413 203.656 98.1328 204.217C97.7826 204.777 97.1521 207.019 96.6617 209.121C96.2414 211.222 95.5408 213.464 95.2606 214.094C94.9103 214.725 94.2798 218.858 93.7895 223.342C93.0889 229.857 93.0889 232.939 93.7895 239.384C94.2798 243.727 94.9103 247.65 95.1905 248.001C95.5408 248.421 96.1713 250.312 96.6617 252.204C97.8526 256.477 101.706 264.323 104.928 269.017C110.813 277.423 116.907 283.798 141.847 307.547C148.782 314.132 159.851 324.92 166.576 331.575C173.231 338.16 178.975 343.625 179.326 343.625C179.886 343.625 194.808 326.952 202.584 317.565C204.475 315.323 206.367 313.501 206.857 313.501C207.628 313.501 208.818 314.762 215.964 322.889C221.498 329.264 239.012 348.809 239.923 349.579C241.254 350.77 246.367 357.215 247.138 358.756C248.119 360.648 248.259 360.438 231.866 379.703C224.721 388.109 217.225 397.076 215.193 399.598C213.092 402.12 211.2 404.362 210.92 404.572C210.71 404.782 207.628 408.355 204.195 412.488C200.692 416.691 196.489 421.805 194.738 423.837C192.986 425.868 189.554 430.001 187.102 433.084C181.848 439.529 180.236 441 178.695 441C178.065 440.93 173.931 436.657 169.518 431.473Z" fill="white"></path>
  <path d="M383.38 336L477.62 70H508.4L602.64 336H568.82L546.02 271.02H440.38L417.96 336H383.38ZM450.26 241.76H535.76L501.56 143.34C500.673 140.807 499.66 137.893 498.52 134.6C497.507 131.18 496.493 127.887 495.48 124.72C494.467 121.427 493.707 118.64 493.2 116.36C492.567 118.64 491.743 121.427 490.73 124.72C489.843 127.887 488.83 131.18 487.69 134.6C486.677 137.893 485.727 140.807 484.84 143.34L450.26 241.76ZM651.728 336V70H756.608C777.888 70 794.608 73.6733 806.768 81.02C819.055 88.3667 827.732 97.8667 832.798 109.52C837.992 121.047 840.588 133.08 840.588 145.62C840.588 156.133 838.498 166.52 834.318 176.78C830.265 186.913 823.678 195.843 814.558 203.57C805.438 211.297 793.468 216.68 778.648 219.72L835.648 336H798.408L743.688 222H684.788V336H651.728ZM684.788 191.22H757.368C769.782 191.22 779.598 189.003 786.818 184.57C794.165 180.137 799.358 174.5 802.398 167.66C805.565 160.82 807.148 153.727 807.148 146.38C807.148 139.793 805.692 133.017 802.778 126.05C799.992 118.957 794.988 113.003 787.768 108.19C780.548 103.25 770.415 100.78 757.368 100.78H684.788V191.22ZM954.021 336V101.54H879.921V70H1061.18V101.54H987.081V336H954.021ZM1117.08 336V70H1150.14V336H1117.08ZM1302.22 340.56C1286.76 340.56 1272.77 338.027 1260.23 332.96C1247.69 327.767 1237.05 320.737 1228.31 311.87C1219.69 302.877 1213.42 292.68 1209.5 281.28L1240.66 269.88C1245.98 281.66 1254.02 291.223 1264.79 298.57C1275.68 305.79 1288.41 309.4 1302.98 309.4C1318.94 309.4 1331.67 305.6 1341.17 298C1350.67 290.273 1355.42 279.127 1355.42 264.56C1355.42 254.3 1352.57 245.687 1346.87 238.72C1341.17 231.753 1333.76 225.927 1324.64 221.24C1315.52 216.427 1305.76 212.12 1295.38 208.32C1286.13 204.9 1276.88 201.1 1267.64 196.92C1258.39 192.74 1249.97 187.8 1242.37 182.1C1234.89 176.273 1228.88 169.243 1224.32 161.01C1219.76 152.65 1217.48 142.707 1217.48 131.18C1217.48 119.273 1220.71 108.38 1227.17 98.5C1233.63 88.4933 1242.94 80.5133 1255.1 74.56C1267.26 68.48 1281.95 65.44 1299.18 65.44C1313.24 65.44 1325.59 67.53 1336.23 71.71C1346.99 75.7633 1355.8 81.4 1362.64 88.62C1369.6 95.7133 1374.42 103.82 1377.08 112.94L1346.68 123.2C1343.51 115.727 1337.68 109.393 1329.2 104.2C1320.84 98.88 1310.07 96.22 1296.9 96.22C1282.84 96.22 1271.75 99.3233 1263.65 105.53C1255.67 111.737 1251.68 120.287 1251.68 131.18C1251.68 139.413 1254.34 146.317 1259.66 151.89C1265.1 157.337 1272.2 162.087 1280.94 166.14C1289.68 170.193 1299.05 174.12 1309.06 177.92C1318.43 181.467 1327.8 185.52 1337.18 190.08C1346.68 194.513 1355.35 199.96 1363.21 206.42C1371.19 212.88 1377.58 220.797 1382.4 230.17C1387.21 239.417 1389.62 250.627 1389.62 263.8C1389.62 280.14 1385.82 294.01 1378.22 305.41C1370.62 316.81 1360.23 325.55 1347.06 331.63C1333.88 337.583 1318.94 340.56 1302.22 340.56ZM1422.81 336L1517.05 70H1547.83L1642.07 336H1608.25L1585.45 271.02H1479.81L1457.39 336H1422.81ZM1489.69 241.76H1575.19L1540.99 143.34C1540.11 140.807 1539.09 137.893 1537.95 134.6C1536.94 131.18 1535.93 127.887 1534.91 124.72C1533.9 121.427 1533.14 118.64 1532.63 116.36C1532 118.64 1531.18 121.427 1530.16 124.72C1529.28 127.887 1528.26 131.18 1527.12 134.6C1526.11 137.893 1525.16 140.807 1524.27 143.34L1489.69 241.76ZM1691.16 336V70H1724.6L1842.4 259.24C1844.3 262.407 1846.14 265.573 1847.91 268.74C1849.69 271.907 1851.52 275.327 1853.42 279C1853.3 275.707 1853.11 272.413 1852.85 269.12C1852.73 265.827 1852.66 262.66 1852.66 259.62V70H1885.72V336H1853.8L1734.1 146C1732.46 143.087 1730.68 140.047 1728.78 136.88C1727.01 133.713 1725.24 130.547 1723.46 127.38C1723.72 130.167 1723.91 133.207 1724.03 136.5C1724.16 139.793 1724.22 142.96 1724.22 146V336H1691.16Z" fill="white"></path>
  <path d="M383.38 336L382.437 335.666L381.965 337H383.38V336ZM477.62 70V69H476.913L476.677 69.666L477.62 70ZM508.4 70L509.343 69.666L509.107 69H508.4V70ZM602.64 336V337H604.055L603.583 335.666L602.64 336ZM568.82 336L567.876 336.331L568.111 337H568.82V336ZM546.02 271.02L546.964 270.689L546.729 270.02H546.02V271.02ZM440.38 271.02V270.02H439.667L439.435 270.694L440.38 271.02ZM417.96 336V337H418.673L418.905 336.326L417.96 336ZM450.26 241.76L449.317 241.429L448.849 242.76H450.26V241.76ZM535.76 241.76V242.76H537.166L536.705 241.432L535.76 241.76ZM501.56 143.34L502.505 143.012L502.504 143.01L501.56 143.34ZM498.52 134.6L497.561 134.884L497.568 134.906L497.575 134.927L498.52 134.6ZM495.48 124.72L494.524 125.014L494.528 125.025L495.48 124.72ZM493.2 116.36L494.176 116.143L492.236 116.092L493.2 116.36ZM490.73 124.72L489.774 124.426L489.77 124.438L489.767 124.45L490.73 124.72ZM487.69 134.6L486.741 134.284L486.738 134.295L486.734 134.306L487.69 134.6ZM484.84 143.34L485.783 143.671L485.784 143.67L484.84 143.34ZM384.323 336.334L478.563 70.3339L476.677 69.666L382.437 335.666L384.323 336.334ZM477.62 71H508.4V69H477.62V71ZM507.457 70.3339L601.697 336.334L603.583 335.666L509.343 69.666L507.457 70.3339ZM602.64 335H568.82V337H602.64V335ZM569.764 335.669L546.964 270.689L545.076 271.351L567.876 336.331L569.764 335.669ZM546.02 270.02H440.38V272.02H546.02V270.02ZM439.435 270.694L417.015 335.674L418.905 336.326L441.325 271.346L439.435 270.694ZM417.96 335H383.38V337H417.96V335ZM450.26 242.76H535.76V240.76H450.26V242.76ZM536.705 241.432L502.505 143.012L500.615 143.668L534.815 242.088L536.705 241.432ZM502.504 143.01C501.618 140.478 500.605 137.565 499.465 134.273L497.575 134.927C498.715 138.221 499.729 141.136 500.616 143.67L502.504 143.01ZM499.479 134.316C498.464 130.889 497.448 127.589 496.432 124.415L494.528 125.025C495.539 128.184 496.55 131.471 497.561 134.884L499.479 134.316ZM496.436 124.426C495.427 121.147 494.675 118.388 494.176 116.143L492.224 116.577C492.738 118.892 493.506 121.706 494.524 125.014L496.436 124.426ZM492.236 116.092C491.606 118.361 490.786 121.138 489.774 124.426L491.686 125.014C492.701 121.716 493.527 118.919 494.164 116.628L492.236 116.092ZM489.767 124.45C488.885 127.6 487.877 130.878 486.741 134.284L488.639 134.916C489.783 131.482 490.802 128.173 491.693 124.99L489.767 124.45ZM486.734 134.306C485.724 137.59 484.778 140.491 483.896 143.01L485.784 143.67C486.676 141.122 487.63 138.196 488.646 134.894L486.734 134.306ZM483.897 143.008L449.317 241.429L451.203 242.091L485.783 143.671L483.897 143.008ZM651.728 336H650.728V337H651.728V336ZM651.728 70V69H650.728V70H651.728ZM806.768 81.02L806.251 81.8759L806.255 81.8783L806.768 81.02ZM832.798 109.52L831.881 109.919L831.887 109.931L832.798 109.52ZM834.318 176.78L833.392 176.403L833.39 176.409L834.318 176.78ZM814.558 203.57L815.205 204.333L814.558 203.57ZM778.648 219.72L778.447 218.74L777.182 219L777.75 220.16L778.648 219.72ZM835.648 336V337H837.252L836.546 335.56L835.648 336ZM798.408 336L797.507 336.433L797.779 337H798.408V336ZM743.688 222L744.59 221.567L744.318 221H743.688V222ZM684.788 222V221H683.788V222H684.788ZM684.788 336V337H685.788V336H684.788ZM684.788 191.22H683.788V192.22H684.788V191.22ZM786.818 184.57L786.302 183.714L786.295 183.718L786.818 184.57ZM802.398 167.66L801.491 167.24L801.488 167.247L801.484 167.254L802.398 167.66ZM802.778 126.05L801.848 126.416L801.852 126.426L801.856 126.436L802.778 126.05ZM787.768 108.19L787.204 109.015L787.214 109.022L787.768 108.19ZM684.788 100.78V99.78H683.788V100.78H684.788ZM652.728 336V70H650.728V336H652.728ZM651.728 71H756.608V69H651.728V71ZM756.608 71C777.79 71 794.306 74.6592 806.251 81.8759L807.285 80.1641C794.91 72.6874 777.986 69 756.608 69V71ZM806.255 81.8783C818.386 89.1319 826.908 98.4808 831.881 109.919L833.715 109.121C828.555 97.2525 819.724 87.6015 807.281 80.1617L806.255 81.8783ZM831.887 109.931C837.022 121.329 839.588 133.223 839.588 145.62H841.588C841.588 132.937 838.961 120.764 833.71 109.109L831.887 109.931ZM839.588 145.62C839.588 155.997 837.526 166.256 833.392 176.403L835.244 177.157C839.471 166.784 841.588 156.27 841.588 145.62H839.588ZM833.39 176.409C829.403 186.376 822.919 195.176 813.912 202.807L815.205 204.333C824.437 196.511 831.127 187.45 835.247 177.151L833.39 176.409ZM813.912 202.807C804.949 210.4 793.146 215.725 778.447 218.74L778.849 220.7C793.791 217.635 805.927 212.193 815.205 204.333L813.912 202.807ZM777.75 220.16L834.75 336.44L836.546 335.56L779.546 219.28L777.75 220.16ZM835.648 335H798.408V337H835.648V335ZM799.31 335.567L744.59 221.567L742.787 222.433L797.507 336.433L799.31 335.567ZM743.688 221H684.788V223H743.688V221ZM683.788 222V336H685.788V222H683.788ZM684.788 335H651.728V337H684.788V335ZM684.788 192.22H757.368V190.22H684.788V192.22ZM757.368 192.22C769.886 192.22 779.907 189.987 787.342 185.422L786.295 183.718C779.289 188.02 769.678 190.22 757.368 190.22V192.22ZM787.335 185.426C794.83 180.903 800.177 175.12 803.312 168.066L801.484 167.254C798.539 173.88 793.499 179.37 786.302 183.714L787.335 185.426ZM803.306 168.08C806.532 161.112 808.148 153.876 808.148 146.38H806.148C806.148 153.578 804.598 160.528 801.491 167.24L803.306 168.08ZM808.148 146.38C808.148 139.643 806.658 132.735 803.701 125.664L801.856 126.436C804.725 133.298 806.148 139.944 806.148 146.38H808.148ZM803.709 125.684C800.838 118.375 795.689 112.268 788.323 107.358L787.214 109.022C794.288 113.738 799.146 119.538 801.848 126.416L803.709 125.684ZM788.333 107.365C780.883 102.268 770.523 99.78 757.368 99.78V101.78C770.307 101.78 780.213 104.232 787.204 109.015L788.333 107.365ZM757.368 99.78H684.788V101.78H757.368V99.78ZM683.788 100.78V191.22H685.788V100.78H683.788ZM954.021 336H953.021V337H954.021V336ZM954.021 101.54H955.021V100.54H954.021V101.54ZM879.921 101.54H878.921V102.54H879.921V101.54ZM879.921 70V69H878.921V70H879.921ZM1061.18 70H1062.18V69H1061.18V70ZM1061.18 101.54V102.54H1062.18V101.54H1061.18ZM987.081 101.54V100.54H986.081V101.54H987.081ZM987.081 336V337H988.081V336H987.081ZM955.021 336V101.54H953.021V336H955.021ZM954.021 100.54H879.921V102.54H954.021V100.54ZM880.921 101.54V70H878.921V101.54H880.921ZM879.921 71H1061.18V69H879.921V71ZM1060.18 70V101.54H1062.18V70H1060.18ZM1061.18 100.54H987.081V102.54H1061.18V100.54ZM986.081 101.54V336H988.081V101.54H986.081ZM987.081 335H954.021V337H987.081V335ZM1117.08 336H1116.08V337H1117.08V336ZM1117.08 70V69H1116.08V70H1117.08ZM1150.14 70H1151.14V69H1150.14V70ZM1150.14 336V337H1151.14V336H1150.14ZM1118.08 336V70H1116.08V336H1118.08ZM1117.08 71H1150.14V69H1117.08V71ZM1149.14 70V336H1151.14V70H1149.14ZM1150.14 335H1117.08V337H1150.14V335ZM1260.23 332.96L1259.84 333.884L1259.85 333.887L1260.23 332.96ZM1228.31 311.87L1227.58 312.562L1227.59 312.567L1227.59 312.572L1228.31 311.87ZM1209.5 281.28L1209.15 280.341L1208.23 280.678L1208.55 281.606L1209.5 281.28ZM1240.66 269.88L1241.57 269.468L1241.19 268.622L1240.31 268.941L1240.66 269.88ZM1264.79 298.57L1264.22 299.396L1264.23 299.404L1264.79 298.57ZM1341.17 298L1341.79 298.781L1341.8 298.776L1341.17 298ZM1346.87 238.72L1347.64 238.087L1346.87 238.72ZM1324.64 221.24L1324.17 222.124L1324.18 222.129L1324.64 221.24ZM1295.38 208.32L1295.03 209.258L1295.03 209.259L1295.38 208.32ZM1242.37 182.1L1241.75 182.889L1241.76 182.894L1241.77 182.9L1242.37 182.1ZM1224.32 161.01L1223.44 161.489L1223.44 161.494L1224.32 161.01ZM1227.17 98.5L1228 99.0473L1228.01 99.0424L1227.17 98.5ZM1255.1 74.56L1255.54 75.4582L1255.54 75.4544L1255.1 74.56ZM1336.23 71.71L1335.86 72.6407L1335.87 72.6434L1335.87 72.6459L1336.23 71.71ZM1362.64 88.62L1361.91 89.3077L1361.92 89.3143L1361.92 89.3207L1362.64 88.62ZM1377.08 112.94L1377.4 113.887L1378.31 113.581L1378.04 112.66L1377.08 112.94ZM1346.68 123.2L1345.76 123.59L1346.12 124.444L1347 124.147L1346.68 123.2ZM1329.2 104.2L1328.66 105.044L1328.67 105.048L1328.68 105.053L1329.2 104.2ZM1263.65 105.53L1263.04 104.736L1263.03 104.741L1263.65 105.53ZM1259.66 151.89L1258.93 152.58L1258.94 152.589L1258.95 152.597L1259.66 151.89ZM1280.94 166.14L1280.52 167.047L1280.94 166.14ZM1309.06 177.92L1308.7 178.855L1308.7 178.855L1309.06 177.92ZM1337.18 190.08L1336.74 190.979L1336.75 190.983L1336.75 190.986L1337.18 190.08ZM1363.21 206.42L1362.57 207.192L1362.58 207.197L1363.21 206.42ZM1382.4 230.17L1381.51 230.627L1381.51 230.632L1382.4 230.17ZM1378.22 305.41L1379.05 305.965L1378.22 305.41ZM1347.06 331.63L1347.47 332.541L1347.48 332.538L1347.06 331.63ZM1302.22 339.56C1286.87 339.56 1273.01 337.045 1260.6 332.033L1259.85 333.887C1272.53 339.008 1286.65 341.56 1302.22 341.56V339.56ZM1260.61 332.036C1248.18 326.889 1237.66 319.931 1229.02 311.168L1227.59 312.572C1236.44 321.542 1247.19 328.644 1259.84 333.884L1260.61 332.036ZM1229.03 311.178C1220.51 302.286 1214.32 292.213 1210.44 280.954L1208.55 281.606C1212.53 293.147 1218.87 303.467 1227.58 312.562L1229.03 311.178ZM1209.84 282.219L1241 270.819L1240.31 268.941L1209.15 280.341L1209.84 282.219ZM1239.75 270.292C1245.14 282.241 1253.31 291.947 1264.22 299.396L1265.35 297.744C1254.73 290.5 1246.81 281.079 1241.57 269.468L1239.75 270.292ZM1264.23 299.404C1275.31 306.744 1288.24 310.4 1302.98 310.4V308.4C1288.58 308.4 1276.05 304.836 1265.34 297.736L1264.23 299.404ZM1302.98 310.4C1319.09 310.4 1332.07 306.562 1341.79 298.781L1340.54 297.219C1331.27 304.638 1318.78 308.4 1302.98 308.4V310.4ZM1341.8 298.776C1351.58 290.823 1356.42 279.364 1356.42 264.56H1354.42C1354.42 278.889 1349.76 289.724 1340.54 297.224L1341.8 298.776ZM1356.42 264.56C1356.42 254.103 1353.51 245.257 1347.64 238.087L1346.09 239.353C1351.63 246.117 1354.42 254.497 1354.42 264.56H1356.42ZM1347.64 238.087C1341.84 231 1334.32 225.091 1325.09 220.351L1324.18 222.129C1333.19 226.762 1340.49 232.507 1346.09 239.353L1347.64 238.087ZM1325.1 220.356C1315.94 215.52 1306.15 211.195 1295.72 207.381L1295.03 209.259C1305.38 213.045 1315.09 217.333 1324.17 222.124L1325.1 220.356ZM1295.72 207.382C1286.5 203.97 1277.27 200.179 1268.05 196.009L1267.23 197.831C1276.49 202.021 1285.76 205.83 1295.03 209.258L1295.72 207.382ZM1268.05 196.009C1258.86 191.857 1250.5 186.953 1242.97 181.3L1241.77 182.9C1249.43 188.647 1257.92 193.623 1267.23 197.831L1268.05 196.009ZM1242.98 181.311C1235.61 175.567 1229.69 168.64 1225.19 160.525L1223.44 161.494C1228.07 169.846 1234.17 176.98 1241.75 182.889L1242.98 181.311ZM1225.19 160.531C1220.73 152.346 1218.48 142.574 1218.48 131.18H1216.48C1216.48 142.839 1218.78 152.954 1223.44 161.489L1225.19 160.531ZM1218.48 131.18C1218.48 119.466 1221.65 108.763 1228 99.0472L1226.33 97.9528C1219.76 107.997 1216.48 119.081 1216.48 131.18H1218.48ZM1228.01 99.0424C1234.36 89.2085 1243.52 81.3427 1255.54 75.4581L1254.66 73.6618C1242.36 79.684 1232.9 87.7781 1226.33 97.9576L1228.01 99.0424ZM1255.54 75.4544C1267.53 69.4599 1282.07 66.44 1299.18 66.44V64.44C1281.84 64.44 1266.98 67.5001 1254.65 73.6656L1255.54 75.4544ZM1299.18 66.44C1313.14 66.44 1325.36 68.5157 1335.86 72.6407L1336.59 70.7792C1325.81 66.5443 1313.33 64.44 1299.18 64.44V66.44ZM1335.87 72.6459C1346.52 76.6542 1355.19 82.2137 1361.91 89.3077L1363.36 87.9322C1356.4 80.5863 1347.47 74.8724 1336.58 70.7741L1335.87 72.6459ZM1361.92 89.3207C1368.78 96.302 1373.51 104.266 1376.12 113.22L1378.04 112.66C1375.33 103.374 1370.43 95.1247 1363.35 87.9193L1361.92 89.3207ZM1376.76 111.993L1346.36 122.253L1347 124.147L1377.4 113.887L1376.76 111.993ZM1347.6 122.81C1344.33 115.105 1338.34 108.624 1329.72 103.347L1328.68 105.053C1337.02 110.162 1342.69 116.349 1345.76 123.59L1347.6 122.81ZM1329.73 103.356C1321.17 97.9057 1310.2 95.22 1296.9 95.22V97.22C1309.94 97.22 1320.51 99.8543 1328.66 105.044L1329.73 103.356ZM1296.9 95.22C1282.7 95.22 1271.38 98.3534 1263.04 104.736L1264.25 106.324C1272.13 100.293 1282.98 97.22 1296.9 97.22V95.22ZM1263.03 104.741C1254.79 111.153 1250.68 120.006 1250.68 131.18H1252.68C1252.68 120.568 1256.55 112.32 1264.26 106.319L1263.03 104.741ZM1250.68 131.18C1250.68 139.651 1253.42 146.808 1258.93 152.58L1260.38 151.2C1255.25 145.826 1252.68 139.176 1252.68 131.18H1250.68ZM1258.95 152.597C1264.5 158.145 1271.7 162.956 1280.52 167.047L1281.36 165.233C1272.7 161.217 1265.71 156.529 1260.36 151.183L1258.95 152.597ZM1280.52 167.047C1289.28 171.112 1298.68 175.047 1308.7 178.855L1309.41 176.985C1299.43 173.193 1290.07 169.275 1281.36 165.233L1280.52 167.047ZM1308.7 178.855C1318.05 182.391 1327.39 186.432 1336.74 190.979L1337.61 189.181C1328.21 184.608 1318.81 180.543 1309.41 176.985L1308.7 178.855ZM1336.75 190.986C1346.18 195.385 1354.79 200.787 1362.57 207.192L1363.84 205.648C1355.92 199.133 1347.17 193.642 1337.6 189.174L1336.75 190.986ZM1362.58 207.197C1370.45 213.567 1376.76 221.374 1381.51 230.627L1383.29 229.713C1378.41 220.219 1371.93 212.193 1363.84 205.643L1362.58 207.197ZM1381.51 230.632C1386.23 239.703 1388.62 250.746 1388.62 263.8H1390.62C1390.62 250.507 1388.19 239.13 1383.28 229.708L1381.51 230.632ZM1388.62 263.8C1388.62 279.981 1384.86 293.649 1377.39 304.855L1379.05 305.965C1386.78 294.371 1390.62 280.299 1390.62 263.8H1388.62ZM1377.39 304.855C1369.89 316.092 1359.65 324.715 1346.64 330.722L1347.48 332.538C1360.81 326.385 1371.34 317.527 1379.05 305.965L1377.39 304.855ZM1346.65 330.719C1333.62 336.605 1318.82 339.56 1302.22 339.56V341.56C1319.06 341.56 1334.15 338.562 1347.47 332.541L1346.65 330.719ZM1422.81 336L1421.87 335.666L1421.4 337H1422.81V336ZM1517.05 70V69H1516.35L1516.11 69.666L1517.05 70ZM1547.83 70L1548.78 69.666L1548.54 69H1547.83V70ZM1642.07 336V337H1643.49L1643.02 335.666L1642.07 336ZM1608.25 336L1607.31 336.331L1607.54 337H1608.25V336ZM1585.45 271.02L1586.4 270.689L1586.16 270.02H1585.45V271.02ZM1479.81 271.02V270.02H1479.1L1478.87 270.694L1479.81 271.02ZM1457.39 336V337H1458.11L1458.34 336.326L1457.39 336ZM1489.69 241.76L1488.75 241.429L1488.28 242.76H1489.69V241.76ZM1575.19 241.76V242.76H1576.6L1576.14 241.432L1575.19 241.76ZM1540.99 143.34L1541.94 143.012L1541.94 143.01L1540.99 143.34ZM1537.95 134.6L1536.99 134.884L1537 134.906L1537.01 134.927L1537.95 134.6ZM1534.91 124.72L1533.96 125.014L1533.96 125.025L1534.91 124.72ZM1532.63 116.36L1533.61 116.143L1531.67 116.092L1532.63 116.36ZM1530.16 124.72L1529.21 124.426L1529.2 124.438L1529.2 124.45L1530.16 124.72ZM1527.12 134.6L1526.17 134.284L1526.17 134.295L1526.17 134.306L1527.12 134.6ZM1524.27 143.34L1525.22 143.671L1525.22 143.67L1524.27 143.34ZM1423.76 336.334L1518 70.3339L1516.11 69.666L1421.87 335.666L1423.76 336.334ZM1517.05 71H1547.83V69H1517.05V71ZM1546.89 70.3339L1641.13 336.334L1643.02 335.666L1548.78 69.666L1546.89 70.3339ZM1642.07 335H1608.25V337H1642.07V335ZM1609.2 335.669L1586.4 270.689L1584.51 271.351L1607.31 336.331L1609.2 335.669ZM1585.45 270.02H1479.81V272.02H1585.45V270.02ZM1478.87 270.694L1456.45 335.674L1458.34 336.326L1480.76 271.346L1478.87 270.694ZM1457.39 335H1422.81V337H1457.39V335ZM1489.69 242.76H1575.19V240.76H1489.69V242.76ZM1576.14 241.432L1541.94 143.012L1540.05 143.668L1574.25 242.088L1576.14 241.432ZM1541.94 143.01C1541.05 140.478 1540.04 137.565 1538.9 134.273L1537.01 134.927C1538.15 138.221 1539.16 141.136 1540.05 143.67L1541.94 143.01ZM1538.91 134.316C1537.9 130.889 1536.88 127.589 1535.87 124.415L1533.96 125.025C1534.97 128.184 1535.98 131.471 1536.99 134.884L1538.91 134.316ZM1535.87 124.426C1534.86 121.147 1534.11 118.388 1533.61 116.143L1531.66 116.577C1532.17 118.892 1532.94 121.706 1533.96 125.014L1535.87 124.426ZM1531.67 116.092C1531.04 118.361 1530.22 121.138 1529.21 124.426L1531.12 125.014C1532.13 121.716 1532.96 118.919 1533.6 116.628L1531.67 116.092ZM1529.2 124.45C1528.32 127.6 1527.31 130.878 1526.17 134.284L1528.07 134.916C1529.22 131.482 1530.24 128.173 1531.13 124.99L1529.2 124.45ZM1526.17 134.306C1525.16 137.59 1524.21 140.491 1523.33 143.01L1525.22 143.67C1526.11 141.122 1527.06 138.196 1528.08 134.894L1526.17 134.306ZM1523.33 143.008L1488.75 241.429L1490.64 242.091L1525.22 143.671L1523.33 143.008ZM1691.16 336H1690.16V337H1691.16V336ZM1691.16 70V69H1690.16V70H1691.16ZM1724.6 70L1725.45 69.4715L1725.16 69H1724.6V70ZM1842.4 259.24L1843.26 258.725L1843.26 258.718L1843.25 258.712L1842.4 259.24ZM1847.91 268.74L1847.04 269.229L1847.91 268.74ZM1853.42 279L1852.53 279.459L1854.42 278.962L1853.42 279ZM1852.85 269.12L1851.85 269.158L1851.85 269.178L1851.85 269.197L1852.85 269.12ZM1852.66 70V69H1851.66V70H1852.66ZM1885.72 70H1886.72V69H1885.72V70ZM1885.72 336V337H1886.72V336H1885.72ZM1853.8 336L1852.96 336.533L1853.25 337H1853.8V336ZM1734.1 146L1733.23 146.492L1733.24 146.513L1733.26 146.533L1734.1 146ZM1728.78 136.88L1727.91 137.369L1727.92 137.382L1727.92 137.394L1728.78 136.88ZM1723.46 127.38L1724.33 126.891L1722.47 127.471L1723.46 127.38ZM1724.22 336V337H1725.22V336H1724.22ZM1692.16 336V70H1690.16V336H1692.16ZM1691.16 71H1724.6V69H1691.16V71ZM1723.75 70.5285L1841.55 259.768L1843.25 258.712L1725.45 69.4715L1723.75 70.5285ZM1841.54 259.754C1843.44 262.913 1845.27 266.071 1847.04 269.229L1848.78 268.251C1847.01 265.076 1845.16 261.901 1843.26 258.725L1841.54 259.754ZM1847.04 269.229C1848.81 272.384 1850.64 275.795 1852.53 279.459L1854.31 278.541C1852.41 274.859 1850.56 271.429 1848.78 268.251L1847.04 269.229ZM1854.42 278.962C1854.29 275.655 1854.1 272.349 1853.85 269.043L1851.85 269.197C1852.11 272.477 1852.3 275.758 1852.42 279.038L1854.42 278.962ZM1853.85 269.082C1853.72 265.8 1853.66 262.646 1853.66 259.62H1851.66C1851.66 262.674 1851.73 265.853 1851.85 269.158L1853.85 269.082ZM1853.66 259.62V70H1851.66V259.62H1853.66ZM1852.66 71H1885.72V69H1852.66V71ZM1884.72 70V336H1886.72V70H1884.72ZM1885.72 335H1853.8V337H1885.72V335ZM1854.65 335.467L1734.95 145.467L1733.26 146.533L1852.96 336.533L1854.65 335.467ZM1734.97 145.508C1733.32 142.586 1731.54 139.539 1729.64 136.365L1727.92 137.394C1729.82 140.554 1731.59 143.587 1733.23 146.492L1734.97 145.508ZM1729.65 136.391C1729.64 136.36 1729.51 136.126 1729.49 136.094C1729.47 136.063 1729.34 135.829 1729.32 135.798C1729.3 135.766 1729.17 135.532 1729.16 135.501C1729.14 135.469 1729.01 135.236 1728.99 135.204C1728.97 135.172 1728.84 134.939 1728.82 134.907C1728.81 134.875 1728.67 134.642 1728.66 134.61C1728.64 134.578 1728.51 134.345 1728.49 134.313C1728.47 134.282 1728.34 134.048 1728.32 134.016C1728.31 133.985 1728.18 133.751 1728.16 133.72C1728.14 133.688 1728.01 133.454 1727.99 133.423C1727.97 133.391 1727.84 133.157 1727.83 133.126C1727.81 133.094 1727.68 132.861 1727.66 132.829C1727.64 132.797 1727.51 132.564 1727.49 132.532C1727.48 132.5 1727.34 132.267 1727.33 132.235C1727.31 132.203 1727.18 131.97 1727.16 131.938C1727.14 131.907 1727.01 131.673 1726.99 131.641C1726.98 131.618 1726.92 131.517 1726.91 131.493C1726.9 131.469 1726.84 131.368 1726.83 131.345C1726.81 131.321 1726.76 131.22 1726.74 131.196C1726.73 131.172 1726.68 131.071 1726.66 131.048C1726.65 131.024 1726.59 130.923 1726.58 130.899C1726.57 130.875 1726.51 130.775 1726.5 130.751C1726.48 130.727 1726.43 130.626 1726.41 130.602C1726.4 130.579 1726.34 130.478 1726.33 130.454C1726.32 130.43 1726.26 130.329 1726.25 130.305C1726.23 130.282 1726.18 130.181 1726.16 130.157C1726.15 130.133 1726.09 130.032 1726.08 130.009C1726.07 129.985 1726.01 129.884 1726 129.86C1725.98 129.836 1725.93 129.735 1725.91 129.712C1725.9 129.688 1725.84 129.587 1725.83 129.563C1725.82 129.54 1725.76 129.439 1725.75 129.415C1725.73 129.391 1725.68 129.29 1725.66 129.266C1725.65 129.243 1725.59 129.142 1725.58 129.118C1725.57 129.094 1725.51 128.993 1725.5 128.97C1725.48 128.946 1725.43 128.845 1725.42 128.821C1725.4 128.797 1725.35 128.696 1725.33 128.673C1725.32 128.649 1725.26 128.548 1725.25 128.524C1725.24 128.5 1725.18 128.4 1725.17 128.376C1725.15 128.352 1725.1 128.251 1725.08 128.227C1725.07 128.204 1725.01 128.103 1725 128.079C1724.99 128.055 1724.93 127.954 1724.92 127.93C1724.9 127.907 1724.85 127.806 1724.83 127.782C1724.82 127.758 1724.76 127.657 1724.75 127.634C1724.74 127.61 1724.68 127.509 1724.67 127.485C1724.65 127.461 1724.6 127.36 1724.58 127.337C1724.57 127.313 1724.51 127.212 1724.5 127.188C1724.49 127.165 1724.43 127.064 1724.42 127.04C1724.4 127.016 1724.35 126.915 1724.33 126.891L1722.59 127.869C1722.61 127.9 1722.74 128.134 1722.76 128.165C1722.77 128.197 1722.9 128.431 1722.92 128.462C1722.94 128.494 1723.07 128.728 1723.09 128.759C1723.11 128.791 1723.24 129.024 1723.25 129.056C1723.27 129.088 1723.4 129.321 1723.42 129.353C1723.44 129.385 1723.57 129.618 1723.59 129.65C1723.6 129.682 1723.74 129.915 1723.75 129.947C1723.77 129.978 1723.9 130.212 1723.92 130.244C1723.94 130.275 1724.07 130.509 1724.09 130.54C1724.1 130.572 1724.23 130.806 1724.25 130.837C1724.27 130.869 1724.4 131.103 1724.42 131.134C1724.44 131.166 1724.57 131.399 1724.58 131.431C1724.6 131.463 1724.73 131.696 1724.75 131.728C1724.77 131.76 1724.9 131.993 1724.92 132.025C1724.93 132.057 1725.07 132.29 1725.08 132.322C1725.1 132.353 1725.23 132.587 1725.25 132.619C1725.26 132.642 1725.32 132.743 1725.33 132.767C1725.35 132.791 1725.4 132.892 1725.42 132.915C1725.43 132.939 1725.49 133.04 1725.5 133.064C1725.51 133.088 1725.57 133.189 1725.58 133.212C1725.6 133.236 1725.65 133.337 1725.67 133.361C1725.68 133.385 1725.73 133.485 1725.75 133.509C1725.76 133.533 1725.82 133.634 1725.83 133.658C1725.84 133.681 1725.9 133.782 1725.91 133.806C1725.93 133.83 1725.98 133.931 1726 133.955C1726.01 133.978 1726.07 134.079 1726.08 134.103C1726.09 134.127 1726.15 134.228 1726.16 134.251C1726.18 134.275 1726.23 134.376 1726.25 134.4C1726.26 134.424 1726.32 134.525 1726.33 134.548C1726.34 134.572 1726.4 134.673 1726.41 134.697C1726.43 134.72 1726.48 134.821 1726.5 134.845C1726.51 134.869 1726.57 134.97 1726.58 134.994C1726.59 135.017 1726.65 135.118 1726.66 135.142C1726.68 135.166 1726.73 135.267 1726.75 135.29C1726.76 135.314 1726.82 135.415 1726.83 135.439C1726.84 135.463 1726.9 135.564 1726.91 135.587C1726.93 135.611 1726.98 135.712 1726.99 135.736C1727.01 135.76 1727.06 135.86 1727.08 135.884C1727.09 135.908 1727.15 136.009 1727.16 136.033C1727.17 136.056 1727.23 136.157 1727.24 136.181C1727.26 136.205 1727.31 136.306 1727.33 136.33C1727.34 136.353 1727.4 136.454 1727.41 136.478C1727.42 136.502 1727.48 136.603 1727.49 136.626C1727.51 136.65 1727.56 136.751 1727.58 136.775C1727.59 136.799 1727.65 136.9 1727.66 136.923C1727.67 136.947 1727.73 137.048 1727.74 137.072C1727.76 137.095 1727.81 137.196 1727.83 137.22C1727.84 137.244 1727.9 137.345 1727.91 137.369L1729.65 136.391ZM1722.47 127.471C1722.72 130.237 1722.91 133.26 1723.03 136.538L1725.03 136.462C1724.9 133.154 1724.71 130.096 1724.46 127.289L1722.47 127.471ZM1723.03 136.538C1723.16 139.82 1723.22 142.974 1723.22 146H1725.22C1725.22 142.946 1725.16 139.767 1725.03 136.462L1723.03 136.538ZM1723.22 146V336H1725.22V146H1723.22ZM1724.22 335H1691.16V337H1724.22V335Z" fill="black" fill-opacity="0.05"></path>
</svg>
