<?xml version="1.0" encoding="UTF-8"?>
<svg xmlns="http://www.w3.org/2000/svg" width="2012" height="441" viewBox="0 0 2012 441" fill="none">
  <path d="M169.518 431.473C165.105 426.219 159.29 419.423 156.698 416.271C154.036 413.118 151.164 409.686 150.183 408.635C147.031 405.062 137.643 393.713 131.479 386.148C128.116 382.014 124.543 377.741 123.563 376.62C122.161 375.079 101.776 349.159 96.4515 342.224C91.828 336.199 80.9696 321.488 63.386 297.389C59.4629 291.995 52.3174 282.607 43.3504 271.119C40.0579 266.915 34.7338 259.98 31.4412 255.707C28.2187 251.503 19.8122 240.645 12.8068 231.678C0.127009 215.496 -1.48423 212.833 0.967664 211.432C1.5281 211.152 3.48963 208.981 5.38109 206.669C8.8838 202.255 13.5074 196.721 18.9015 190.556C24.2257 184.462 42.72 162.465 52.5276 150.625C64.787 135.774 69.971 129.609 76.6262 121.973C83.5616 113.987 83.9819 113.427 90.3568 105.791C93.229 102.358 96.2414 98.7152 97.082 97.7344C97.9227 96.7537 103.457 90.1686 109.341 83.0931C122.231 67.6812 122.021 67.8913 139.745 46.8751C155.647 28.0305 159.15 23.8272 169.728 10.7972C173.931 5.68321 177.925 1.05965 178.695 0.499212C180.517 -0.761763 181.497 0.00882412 187.102 7.01424C194.597 16.2614 204.965 28.8011 214.283 39.8697C223.6 50.8682 231.306 60.1854 246.227 78.5396C251.201 84.6343 255.475 89.8183 255.685 90.0285C255.895 90.2386 259.328 94.3718 263.181 99.2056C267.104 104.039 270.676 108.453 271.237 109.013C271.797 109.574 275.37 113.987 279.293 118.821C283.216 123.654 286.789 128.068 287.349 128.628C287.84 129.189 290.221 131.991 292.603 134.863C297.157 140.468 307.245 152.377 315.931 162.535C318.804 165.897 322.937 170.801 325.038 173.393C327.14 175.985 333.655 183.551 339.399 190.276C354.391 207.649 359.365 213.744 359.365 214.795C359.365 215.496 351.869 225.233 350.258 226.634C349.347 227.405 332.604 247.09 323.777 257.738C313.76 269.788 306.334 278.614 301.22 284.429C299.469 286.39 296.666 289.683 294.915 291.785C288.4 299.631 288.26 299.701 286.439 299.21C285.528 299 283.846 297.529 282.656 296.058C279.994 292.695 272.638 284.149 268.365 279.525C263.671 274.481 252.252 261.381 251.131 259.77C250.291 258.509 250.571 257.948 254.144 253.535C258.347 248.421 260.729 245.689 266.543 239.244C275.3 229.647 276 228.736 276 226.914C276 224.603 273.478 214.235 271.657 208.77C264.021 186.493 247.488 161.694 218.206 128.909C210.079 119.802 191.935 96.6136 183.179 84.214C181.637 82.0423 179.886 80.2209 179.256 80.2209C178.275 80.2209 175.613 83.0931 173.021 86.9461C172.46 87.7867 168.677 92.8306 164.614 98.1548C158.099 106.771 141.496 129.749 132.529 142.569C117.258 164.216 105.909 183.901 100.795 197.352C99.604 200.574 98.413 203.656 98.1328 204.217C97.7826 204.777 97.1521 207.019 96.6617 209.121C96.2414 211.222 95.5408 213.464 95.2606 214.094C94.9103 214.725 94.2798 218.858 93.7895 223.342C93.0889 229.857 93.0889 232.939 93.7895 239.384C94.2798 243.727 94.9103 247.65 95.1905 248.001C95.5408 248.421 96.1713 250.312 96.6617 252.204C97.8526 256.477 101.706 264.323 104.928 269.017C110.813 277.423 116.907 283.798 141.847 307.547C148.782 314.132 159.851 324.92 166.576 331.575C173.231 338.16 178.975 343.625 179.326 343.625C179.886 343.625 194.808 326.952 202.584 317.565C204.475 315.323 206.367 313.501 206.857 313.501C207.628 313.501 208.818 314.762 215.964 322.889C221.498 329.264 239.012 348.809 239.923 349.579C241.254 350.77 246.367 357.215 247.138 358.756C248.119 360.648 248.259 360.438 231.866 379.703C224.721 388.109 217.225 397.076 215.193 399.598C213.092 402.12 211.2 404.362 210.92 404.572C210.71 404.782 207.628 408.355 204.195 412.488C200.692 416.691 196.489 421.805 194.738 423.837C192.986 425.868 189.554 430.001 187.102 433.084C181.848 439.529 180.236 441 178.695 441C178.065 440.93 173.931 436.657 169.518 431.473Z" fill="black" fill-opacity="0.9"></path>
  <path d="M413.38 336L507.62 70H538.4L632.64 336H598.82L576.02 271.02H470.38L447.96 336H413.38ZM480.26 241.76H565.76L531.56 143.34C530.673 140.807 529.66 137.893 528.52 134.6C527.507 131.18 526.493 127.887 525.48 124.72C524.467 121.427 523.707 118.64 523.2 116.36C522.567 118.64 521.743 121.427 520.73 124.72C519.843 127.887 518.83 131.18 517.69 134.6C516.677 137.893 515.727 140.807 514.84 143.34L480.26 241.76ZM681.728 336V70H786.608C807.888 70 824.608 73.6733 836.768 81.02C849.055 88.3667 857.732 97.8667 862.798 109.52C867.992 121.047 870.588 133.08 870.588 145.62C870.588 156.133 868.498 166.52 864.318 176.78C860.265 186.913 853.678 195.843 844.558 203.57C835.438 211.297 823.468 216.68 808.648 219.72L865.648 336H828.408L773.688 222H714.788V336H681.728ZM714.788 191.22H787.368C799.782 191.22 809.598 189.003 816.818 184.57C824.165 180.137 829.358 174.5 832.398 167.66C835.565 160.82 837.148 153.727 837.148 146.38C837.148 139.793 835.692 133.017 832.778 126.05C829.992 118.957 824.988 113.003 817.768 108.19C810.548 103.25 800.415 100.78 787.368 100.78H714.788V191.22ZM984.021 336V101.54H909.921V70H1091.18V101.54H1017.08V336H984.021ZM1147.08 336V70H1180.14V336H1147.08ZM1332.22 340.56C1316.76 340.56 1302.77 338.027 1290.23 332.96C1277.69 327.767 1267.05 320.737 1258.31 311.87C1249.69 302.877 1243.42 292.68 1239.5 281.28L1270.66 269.88C1275.98 281.66 1284.02 291.223 1294.79 298.57C1305.68 305.79 1318.41 309.4 1332.98 309.4C1348.94 309.4 1361.67 305.6 1371.17 298C1380.67 290.273 1385.42 279.127 1385.42 264.56C1385.42 254.3 1382.57 245.687 1376.87 238.72C1371.17 231.753 1363.76 225.927 1354.64 221.24C1345.52 216.427 1335.76 212.12 1325.38 208.32C1316.13 204.9 1306.88 201.1 1297.64 196.92C1288.39 192.74 1279.97 187.8 1272.37 182.1C1264.89 176.273 1258.88 169.243 1254.32 161.01C1249.76 152.65 1247.48 142.707 1247.48 131.18C1247.48 119.273 1250.71 108.38 1257.17 98.5C1263.63 88.4933 1272.94 80.5133 1285.1 74.56C1297.26 68.48 1311.95 65.44 1329.18 65.44C1343.24 65.44 1355.59 67.53 1366.23 71.71C1376.99 75.7633 1385.8 81.4 1392.64 88.62C1399.6 95.7133 1404.42 103.82 1407.08 112.94L1376.68 123.2C1373.51 115.727 1367.68 109.393 1359.2 104.2C1350.84 98.88 1340.07 96.22 1326.9 96.22C1312.84 96.22 1301.75 99.3233 1293.65 105.53C1285.67 111.737 1281.68 120.287 1281.68 131.18C1281.68 139.413 1284.34 146.317 1289.66 151.89C1295.1 157.337 1302.2 162.087 1310.94 166.14C1319.68 170.193 1329.05 174.12 1339.06 177.92C1348.43 181.467 1357.8 185.52 1367.18 190.08C1376.68 194.513 1385.35 199.96 1393.21 206.42C1401.19 212.88 1407.58 220.797 1412.4 230.17C1417.21 239.417 1419.62 250.627 1419.62 263.8C1419.62 280.14 1415.82 294.01 1408.22 305.41C1400.62 316.81 1390.23 325.55 1377.06 331.63C1363.88 337.583 1348.94 340.56 1332.22 340.56ZM1452.81 336L1547.05 70H1577.83L1672.07 336H1638.25L1615.45 271.02H1509.81L1487.39 336H1452.81ZM1519.69 241.76H1605.19L1570.99 143.34C1570.11 140.807 1569.09 137.893 1567.95 134.6C1566.94 131.18 1565.93 127.887 1564.91 124.72C1563.9 121.427 1563.14 118.64 1562.63 116.36C1562 118.64 1561.18 121.427 1560.16 124.72C1559.28 127.887 1558.26 131.18 1557.12 134.6C1556.11 137.893 1555.16 140.807 1554.27 143.34L1519.69 241.76ZM1721.16 336V70H1754.6L1872.4 259.24C1874.3 262.407 1876.14 265.573 1877.91 268.74C1879.69 271.907 1881.52 275.327 1883.42 279C1883.3 275.707 1883.11 272.413 1882.85 269.12C1882.73 265.827 1882.66 262.66 1882.66 259.62V70H1915.72V336H1883.8L1764.1 146C1762.46 143.087 1760.68 140.047 1758.78 136.88C1757.01 133.713 1755.24 130.547 1753.46 127.38C1753.72 130.167 1753.91 133.207 1754.03 136.5C1754.16 139.793 1754.22 142.96 1754.22 146V336H1721.16Z" fill="black"></path>
</svg>
