<?xml version="1.0" encoding="UTF-8"?>
<svg xmlns="http://www.w3.org/2000/svg" width="132" height="132" viewBox="0 0 132 132" fill="none">
  <path d="M25.1326 53.2713L21.3823 66.43C21.1804 67.3012 18.6447 74.1458 18.5071 74.5244L22.8264 73.666L25.7672 52.7292C25.6858 52.7316 25.2027 53.0792 25.1326 53.2713Z" fill="#53B9AB"></path>
  <path d="M28.6552 54.6321C28.3953 54.3502 26.0539 52.5634 25.7633 52.734L22.6218 73.6842L30.7048 72.8297L43.463 66.2499L28.6552 54.6321Z" fill="#33E39B"></path>
  <path d="M33.2747 104.094L18.5022 74.5144L22.8213 73.6553L41.683 106.43C41.5048 106.406 33.4132 104.245 33.2747 104.094Z" fill="#53B9AB"></path>
  <path d="M50.1841 103.439C50.0523 103.799 42.0047 106.483 41.6708 106.436L22.6157 73.6506L26.5278 72.8731L43.4565 66.2462L50.1841 103.439Z" fill="#33E39B"></path>
  <path opacity="0.75" d="M36.5129 70.9635L29.9166 72.2744L26.0222 79.6408L28.1786 83.511L33.7068 78.6304L36.5129 70.9635Z" fill="#33E39B"></path>
  <path opacity="0.75" d="M43.4606 66.249L48.3583 93.405L24.1011 63.9094L24.8344 58.9329L37.6597 61.6982L43.4606 66.249Z" fill="#AFDFD7"></path>
  <path d="M88.3944 20.3376L68.7882 34.2975C67.5538 35.2727 56.5518 41.8915 55.947 42.2606L62.8242 45.8254L89.8617 20.2897C89.7474 20.2036 88.7017 20.1507 88.3944 20.3376Z" fill="#53B9AB"></path>
  <path d="M91.7467 26.0719C91.6993 25.399 90.4448 20.3722 89.8584 20.2874L62.5303 45.6212L74.5746 53.3255L99.3308 58.2989L91.7467 26.0719Z" fill="#33E39B"></path>
  <path d="M43.7666 99.1043L55.9602 42.2374L62.8379 45.8013L52.7534 111.549C52.5347 111.321 43.7915 99.4634 43.7666 99.1043Z" fill="#53B9AB"></path>
  <path d="M67.7098 116.779C67.1334 117.129 53.1286 111.977 52.7209 111.546L62.5519 45.5706L68.781 48.7994L99.3191 58.2889L67.7098 116.779Z" fill="#33E39B"></path>
  <path opacity="0.75" d="M84.6029 57.1438L74.1001 51.6996L60.6581 57.5429L59.3699 65.229L72.3262 64.5955L84.6029 57.1438Z" fill="#33E39B"></path>
  <path opacity="0.75" d="M99.3304 58.2957L76.2313 100.986L75.3013 33.8168L81.7749 27.7848L96.3588 45.6714L99.3304 58.2957Z" fill="#AFDFD7"></path>
</svg>
