<svg width="294" height="386" viewBox="0 0 294 386" fill="none" xmlns="http://www.w3.org/2000/svg">
<path d="M135.888 134.912C135.888 134.912 50.7115 217.55 41.3095 219.915C31.9075 222.279 2.00549 209.36 2.00549 209.36C2.00549 209.36 13.7215 179.336 122.83 116.36C162.908 93.229 135.888 134.912 135.888 134.912Z" fill="#F7F7FA"/>
<path d="M146.016 241.901H199.964C222.713 241.901 231.804 245.028 245.804 255.505C285.011 284.843 293.978 385.036 293.978 385.036L71.8464 386V316.07C71.8464 275.107 105.053 241.901 146.016 241.901Z" fill="#F54045"/>
<path d="M84.6588 240.508L42.3918 197.009L30.0948 192.249L8.3348 203.231C0.801805 207.097 -2.1712 216.339 1.6948 223.873C1.7628 224.004 1.8318 224.135 1.9028 224.265L53.0898 288.158L84.6588 240.508Z" fill="#F7F7FA"/>
<path d="M149.925 245.241L88.4141 234.989L43.0131 276.73L85.4851 338.24C85.4851 338.24 139.45 271.431 149.925 245.241Z" fill="#F54045"/>
<circle cx="175" cy="137" r="69" fill="#2F3A5F"/>
<path d="M176.784 141.74L169.576 195.475C174.994 195.951 180.592 195.766 186.31 194.618C192.932 193.287 199.159 190.784 204.756 187.468C204.544 187.198 204.363 187.077 204.153 186.806L176.784 141.74Z" fill="#00ADED"/>
<path d="M117.501 124.061C115.792 131.919 115.558 140.107 117.251 148.533C121.815 171.254 139.016 188.308 160 193.796L117.501 124.061Z" fill="#00ADED"/>
<path d="M163.188 79.5046C143.025 83.5546 127.505 97.4736 120.386 115.029L124.148 114.274C130.167 113.065 139.345 110.437 139.345 110.437L139.497 110.402C142.514 109.797 143.632 114.121 140.583 115.042C140.583 115.042 137.483 115.978 134.082 116.974L167.543 175.218L172.596 134.911L158.641 112.197C155.45 112.682 152.5 112.804 152.5 112.804C149.407 113.274 148.828 108.675 151.595 108.119L151.865 108.079C151.865 108.079 161.496 106.927 167.214 105.779C173.233 104.569 182.41 101.943 182.41 101.943L182.563 101.909C185.579 101.303 186.698 105.627 183.649 106.547C183.649 106.547 180.55 107.482 177.148 108.479L210.337 166.153L212.217 145.893C213.143 137.255 213.95 131.143 212.982 126.329C211.562 119.256 208.007 114.804 205.144 111.466C201.349 107.375 197.673 103.887 196.706 99.0706C195.648 93.8036 198.713 88.0226 204.281 86.9036L205.033 86.7526C192.926 79.4796 178.085 76.5116 163.188 79.5046Z" fill="#00ADED"/>
<path d="M219.606 99.3242C220.269 101.07 220.813 102.996 221.236 105.102C222.415 110.97 222.662 117.652 221.015 126.593L213.594 180.84C228.754 167.462 236.472 146.657 232.211 125.44C230.185 115.358 225.752 106.543 219.606 99.3242Z" fill="#00ADED"/>
<path d="M160.071 64.0059C119.745 72.1059 93.6503 111.319 101.751 151.646C109.852 191.973 149.065 218.067 189.391 209.967C229.717 201.866 255.812 162.653 247.711 122.326C239.61 81.9989 200.397 55.9049 160.071 64.0059ZM188.474 206.735C150.373 214.389 113.281 189.706 105.628 151.605C97.9743 113.503 122.656 76.4099 160.758 68.7569C198.86 61.1029 235.952 85.7859 243.606 123.888C251.26 161.99 226.577 199.081 188.474 206.735Z" fill="#00ADED"/>
<path d="M160.759 68.7572C122.657 76.4112 97.9736 113.502 105.628 151.604C113.281 189.706 150.374 214.388 188.475 206.735C226.577 199.081 251.26 161.989 243.607 123.887C235.953 85.7862 198.861 61.1032 160.759 68.7572ZM110.78 149.833C103.707 114.622 126.674 80.1082 161.886 73.0342C197.097 65.9612 231.611 88.9292 238.684 124.14C245.757 159.351 222.789 193.864 187.578 200.937C152.367 208.01 117.853 185.044 110.78 149.833Z" fill="#00ADED"/>
<path d="M74.3051 320.724C74.3051 320.724 80.0861 318.556 88.7571 306.994" stroke="#F7F7FA" stroke-width="1.445" stroke-miterlimit="10"/>
<path d="M258.238 0.174892C258.084 0.174892 257.93 0.223891 257.799 0.323891C231.739 20.3259 212.003 53.8229 211.975 53.8579C211.773 54.2019 211.887 54.6449 212.231 54.8479C212.346 54.9159 212.472 54.9479 212.597 54.9479C212.844 54.9479 213.085 54.8209 213.22 54.5929C213.221 54.5909 213.523 54.0779 214.111 53.1289C218.216 46.4879 236.149 18.7449 258.678 1.47089C258.995 1.22789 259.055 0.773893 258.812 0.457893C258.67 0.271893 258.455 0.174892 258.238 0.174892Z" fill="white"/>
<path d="M123.271 18.9104C123.12 18.9104 122.968 18.9574 122.838 19.0544C122.519 19.2944 122.454 19.7464 122.693 20.0664C127.367 26.2924 131.004 36.6914 133.421 45.4954C134.632 49.8994 135.548 53.9094 136.159 56.8164C136.465 58.2694 136.695 59.4474 136.848 60.2604C137.001 61.0744 137.077 61.5184 137.077 61.5194C137.137 61.8714 137.443 62.1204 137.789 62.1204C137.829 62.1204 137.87 62.1174 137.911 62.1104C138.304 62.0424 138.569 61.6694 138.502 61.2764C138.499 61.2614 137.258 53.9934 134.814 45.1124C132.363 36.2264 128.741 25.7424 123.85 19.1994C123.708 19.0104 123.491 18.9104 123.271 18.9104Z" fill="white"/>
<path d="M212.599 33.544C212.364 33.544 212.134 33.658 211.995 33.869L198.843 53.828C198.624 54.161 198.716 54.609 199.049 54.829C199.172 54.909 199.31 54.948 199.446 54.948C199.681 54.948 199.911 54.834 200.05 54.623L213.202 34.664C213.421 34.331 213.329 33.883 212.996 33.663C212.873 33.583 212.735 33.544 212.599 33.544Z" fill="white"/>
<path d="M149.297 29.859C148.934 29.859 148.621 30.132 148.58 30.502C148.579 30.516 147.888 36.693 147.888 42.494C147.891 45.401 148.053 48.197 148.602 50.171C148.691 50.49 148.982 50.699 149.298 50.699C149.362 50.699 149.428 50.691 149.493 50.672C149.877 50.565 150.101 50.166 149.994 49.781C149.511 48.075 149.33 45.334 149.333 42.494C149.333 39.649 149.504 36.686 149.675 34.438C149.76 33.314 149.846 32.368 149.91 31.704C149.974 31.04 150.016 30.663 150.016 30.662C150.06 30.265 149.775 29.908 149.378 29.863C149.351 29.86 149.324 29.859 149.297 29.859Z" fill="white"/>
<path d="M251.585 353.241C251.585 353.241 247.731 376.365 248.695 385.036" stroke="#F7F7FA" stroke-width="1.445" stroke-miterlimit="10"/>
</svg>
