<svg width="858" height="652" viewBox="0 0 858 652" fill="none" xmlns="http://www.w3.org/2000/svg">
<rect opacity="0.5" x="93" y="88" width="299" height="122" rx="61" fill="url(#paint0_linear)"/>
<rect x="325" y="3" width="532" height="162" rx="81" stroke="url(#paint1_linear)" stroke-linecap="round"/>
<rect x="508" y="124" width="132" height="86" rx="43" fill="url(#paint2_linear)"/>
<path fill-rule="evenodd" clip-rule="evenodd" d="M311.363 417C311.363 452.346 282.71 481 247.363 481L71.9982 481C36.652 481 7.99825 452.346 7.99824 417C7.99824 381.654 36.652 353 71.9982 353L247.363 353C282.709 353 311.363 381.654 311.363 417Z" fill="url(#paint3_linear)"/>
<circle cx="244.996" cy="417" r="45" stroke="url(#paint4_linear)" stroke-width="2"/>
<g filter="url(#filter0_d)">
<path d="M195 76C195 71.5817 198.582 68 203 68H537C541.418 68 545 71.5817 545 76V344.697C545 348.367 542.568 351.55 539.006 352.435C510.219 359.587 386.879 390 370.996 390C355.102 390 230.058 359.547 201.012 352.42C197.44 351.544 195 348.357 195 344.678V76Z" fill="white"/>
</g>
<path d="M195 75C195 71.134 198.134 68 202 68H538C541.866 68 545 71.134 545 75V383C545 386.866 541.866 390 538 390H202C198.134 390 195 386.866 195 383V75Z" fill="white"/>
<path d="M195 75C195 71.134 198.134 68 202 68H538C541.866 68 545 71.134 545 75V280H195V75Z" fill="white"/>
<g filter="url(#filter1_d)">
<rect x="195" y="68" width="349" height="295" rx="8" fill="url(#paint5_radial)"/>
</g>
<path d="M195 88H545V378C545 384.627 539.627 390 533 390H207C200.373 390 195 384.627 195 378V88Z" fill="white"/>
<path d="M230 128C230 124.686 232.686 122 236 122H503C506.314 122 509 124.686 509 128V281H230V128Z" fill="#F3F3F3"/>
<path d="M347.935 220.272H392.059C392.412 220.282 392.761 220.193 393.066 220.014C393.371 219.835 393.62 219.575 393.784 219.262C393.948 218.949 394.021 218.596 393.995 218.243C393.968 217.891 393.843 217.553 393.634 217.268L387.547 209.004C387.388 208.784 387.184 208.601 386.948 208.467C386.712 208.333 386.45 208.252 386.18 208.229C385.909 208.205 385.637 208.241 385.382 208.332C385.126 208.423 384.894 208.569 384.699 208.758L378.445 214.71L363.927 194.999C363.747 194.753 363.509 194.554 363.234 194.42C362.96 194.286 362.657 194.221 362.352 194.23C362.046 194.238 361.748 194.321 361.481 194.471C361.215 194.62 360.989 194.832 360.823 195.089L346.305 217.357C346.117 217.645 346.012 217.979 346.001 218.323C345.99 218.667 346.072 219.007 346.24 219.307C346.408 219.607 346.655 219.855 346.953 220.025C347.252 220.195 347.591 220.281 347.935 220.272Z" fill="#CDCFD5"/>
<path d="M383.728 195.245C387.385 195.245 390.35 192.28 390.35 188.622C390.35 184.965 387.385 182 383.728 182C380.07 182 377.105 184.965 377.105 188.622C377.105 192.28 380.07 195.245 383.728 195.245Z" fill="#CDCFD5"/>
<g clip-path="url(#clip0)">
<circle cx="207.496" cy="78.5" r="3.5" fill="#FB4247"/>
<circle cx="218.496" cy="78.5" r="3.5" fill="white"/>
<circle cx="229.496" cy="78.5" r="3.5" fill="#1AC3DA"/>
</g>
<path d="M195 280H545V356C545 359.866 541.866 363 538 363H202C198.134 363 195 359.866 195 356V280Z" fill="white"/>
<line x1="195" y1="280.5" x2="544" y2="280.5" stroke="#F0F1F4"/>
<path d="M225.149 318.699L220.114 310.966H222.907L226.384 316.514H226.479L229.899 310.966H232.578L227.562 318.699V324H225.149V318.699ZM236.775 324.228C235.129 324.228 233.894 323.804 233.07 322.955C232.26 322.106 231.854 320.789 231.854 319.003C231.854 317.217 232.26 315.9 233.07 315.051C233.894 314.202 235.129 313.778 236.775 313.778C238.422 313.778 239.651 314.202 240.461 315.051C241.285 315.9 241.696 317.217 241.696 319.003C241.696 320.789 241.285 322.106 240.461 322.955C239.651 323.804 238.422 324.228 236.775 324.228ZM236.775 322.366C237.675 322.366 238.327 322.106 238.732 321.587C239.138 321.055 239.34 320.238 239.34 319.136V318.87C239.34 317.768 239.138 316.957 238.732 316.438C238.327 315.906 237.675 315.64 236.775 315.64C235.863 315.64 235.205 315.906 234.799 316.438C234.407 316.957 234.21 317.768 234.21 318.87V319.136C234.21 320.238 234.407 321.055 234.799 321.587C235.205 322.106 235.863 322.366 236.775 322.366ZM246.899 324.228C244.745 324.228 243.669 323.069 243.669 320.751V314.006H245.949V320.352C245.949 321.036 246.101 321.524 246.405 321.815C246.721 322.106 247.184 322.252 247.792 322.252C248.425 322.252 248.957 322.024 249.388 321.568C249.818 321.112 250.034 320.529 250.034 319.82V314.006H252.314V324H250.433L250.243 322.67H250.11C249.742 323.164 249.286 323.55 248.742 323.829C248.21 324.095 247.595 324.228 246.899 324.228ZM254.97 314.006H256.851L257.06 315.583H257.193C257.649 314.38 258.396 313.778 259.435 313.778C259.789 313.778 260.106 313.835 260.385 313.949V316.096H259.663C258.054 316.096 257.25 316.995 257.25 318.794V324H254.97V314.006ZM271.071 324.228C269.69 324.228 268.62 323.943 267.86 323.373C267.113 322.803 266.739 322.062 266.739 321.15C266.739 321.036 266.739 320.96 266.739 320.922C266.752 320.884 266.758 320.859 266.758 320.846H268.981V320.998C268.994 321.492 269.203 321.859 269.608 322.1C270.026 322.328 270.545 322.442 271.166 322.442C271.723 322.442 272.198 322.353 272.591 322.176C272.984 321.986 273.18 321.707 273.18 321.34C273.18 321.049 273.072 320.814 272.857 320.637C272.642 320.447 272.376 320.301 272.059 320.2C271.742 320.086 271.293 319.959 270.71 319.82C269.925 319.63 269.279 319.44 268.772 319.25C268.278 319.06 267.854 318.762 267.499 318.357C267.144 317.952 266.967 317.42 266.967 316.761C266.967 315.811 267.36 315.076 268.145 314.557C268.93 314.038 269.95 313.778 271.204 313.778C271.977 313.778 272.667 313.892 273.275 314.12C273.883 314.348 274.352 314.671 274.681 315.089C275.023 315.494 275.194 315.963 275.194 316.495L275.175 316.913H272.952V316.837C272.952 316.444 272.787 316.14 272.458 315.925C272.141 315.697 271.679 315.583 271.071 315.583C270.476 315.583 270.026 315.678 269.722 315.868C269.418 316.045 269.266 316.28 269.266 316.571C269.266 316.926 269.45 317.192 269.817 317.369C270.197 317.534 270.773 317.698 271.546 317.863C272.382 318.053 273.053 318.249 273.56 318.452C274.079 318.642 274.529 318.946 274.909 319.364C275.289 319.782 275.479 320.346 275.479 321.055C275.479 322.157 275.08 322.961 274.282 323.468C273.497 323.975 272.426 324.228 271.071 324.228ZM277.495 310.263H279.737V312.505H277.495V310.263ZM277.495 314.006H279.775V324H277.495V314.006ZM284.939 324.228C284.09 324.228 283.476 323.994 283.096 323.525C282.729 323.044 282.545 322.448 282.545 321.739V315.868H281.329V314.006H282.583L283.001 311.213H284.825V314.006H286.535V315.868H284.825V321.511C284.825 322.081 285.097 322.366 285.642 322.366H286.535V323.924C286.332 324 286.079 324.07 285.775 324.133C285.471 324.196 285.192 324.228 284.939 324.228ZM292.548 324.228C290.926 324.228 289.723 323.804 288.938 322.955C288.152 322.106 287.76 320.789 287.76 319.003C287.76 317.217 288.152 315.9 288.938 315.051C289.736 314.202 290.939 313.778 292.548 313.778C294.017 313.778 295.113 314.19 295.835 315.013C296.569 315.836 296.937 317.122 296.937 318.87V319.554H290.078C290.116 320.542 290.325 321.27 290.705 321.739C291.097 322.195 291.718 322.423 292.567 322.423C293.2 322.423 293.713 322.265 294.106 321.948C294.498 321.619 294.695 321.137 294.695 320.504H296.937C296.937 321.733 296.531 322.664 295.721 323.297C294.91 323.918 293.852 324.228 292.548 324.228ZM294.562 317.939C294.562 316.368 293.89 315.583 292.548 315.583C291.788 315.583 291.211 315.779 290.819 316.172C290.439 316.552 290.204 317.141 290.116 317.939H294.562Z" fill="black"/>
<path d="M221.06 336.688H222.332L223.22 339.964L223.592 341.548H223.64L223.976 339.964L224.756 336.688H226.16L226.976 339.976C227.048 340.232 227.164 340.756 227.324 341.548H227.384C227.552 340.804 227.672 340.28 227.744 339.976L228.608 336.688H229.808L227.912 343H226.592L225.74 339.46L225.452 338.14H225.404C225.292 338.748 225.2 339.188 225.128 339.46L224.276 343H222.944L221.06 336.688ZM229.931 336.688H231.203L232.091 339.964L232.463 341.548H232.511L232.847 339.964L233.627 336.688H235.031L235.847 339.976C235.919 340.232 236.035 340.756 236.195 341.548H236.255C236.423 340.804 236.543 340.28 236.615 339.976L237.479 336.688H238.679L236.783 343H235.463L234.611 339.46L234.323 338.14H234.275C234.163 338.748 234.071 339.188 233.999 339.46L233.147 343H231.815L229.931 336.688ZM238.802 336.688H240.074L240.962 339.964L241.334 341.548H241.382L241.718 339.964L242.498 336.688H243.902L244.718 339.976C244.79 340.232 244.906 340.756 245.066 341.548H245.126C245.294 340.804 245.414 340.28 245.486 339.976L246.35 336.688H247.55L245.654 343H244.334L243.482 339.46L243.194 338.14H243.146C243.034 338.748 242.942 339.188 242.87 339.46L242.018 343H240.686L238.802 336.688ZM248.047 341.596H249.379V343H248.047V341.596ZM251.891 345.184C251.499 345.184 251.191 345.144 250.967 345.064V344.248H251.495C252.223 344.248 252.711 343.832 252.959 343L250.511 336.688H251.807L252.983 339.784C253.143 340.192 253.347 340.82 253.595 341.668H253.655C253.879 340.868 254.063 340.24 254.207 339.784L255.191 336.688H256.427L254.339 342.676C254.051 343.476 253.727 344.092 253.367 344.524C253.007 344.964 252.515 345.184 251.891 345.184ZM259.998 343.144C258.998 343.144 258.246 342.876 257.742 342.34C257.246 341.796 256.998 340.964 256.998 339.844C256.998 338.724 257.246 337.896 257.742 337.36C258.246 336.816 258.998 336.544 259.998 336.544C260.998 336.544 261.75 336.816 262.254 337.36C262.758 337.896 263.01 338.724 263.01 339.844C263.01 340.964 262.758 341.796 262.254 342.34C261.75 342.876 260.998 343.144 259.998 343.144ZM259.998 342.124C260.606 342.124 261.046 341.948 261.318 341.596C261.598 341.236 261.738 340.672 261.738 339.904V339.784C261.738 339.016 261.598 338.456 261.318 338.104C261.046 337.744 260.606 337.564 259.998 337.564C259.398 337.564 258.958 337.744 258.678 338.104C258.406 338.456 258.27 339.016 258.27 339.784V339.904C258.27 340.672 258.406 341.236 258.678 341.596C258.958 341.948 259.398 342.124 259.998 342.124ZM266.229 343.144C264.893 343.144 264.225 342.42 264.225 340.972V336.688H265.461V340.816C265.461 341.288 265.565 341.62 265.773 341.812C265.989 341.996 266.301 342.088 266.709 342.088C266.989 342.088 267.249 342.02 267.489 341.884C267.729 341.74 267.917 341.54 268.053 341.284C268.197 341.028 268.269 340.732 268.269 340.396V336.688H269.505V343H268.509L268.389 342.16H268.305C268.073 342.48 267.781 342.724 267.429 342.892C267.077 343.06 266.677 343.144 266.229 343.144ZM271.14 336.688H272.136L272.256 337.66H272.328C272.616 336.916 273.1 336.544 273.78 336.544C274.004 336.544 274.2 336.576 274.368 336.64V337.816H273.924C273.452 337.816 273.076 337.952 272.796 338.224C272.516 338.496 272.376 338.912 272.376 339.472V343H271.14V336.688ZM277.448 343.144C276.648 343.144 276.032 342.876 275.6 342.34C275.168 341.796 274.952 340.964 274.952 339.844C274.952 338.74 275.168 337.916 275.6 337.372C276.032 336.82 276.62 336.544 277.364 336.544C278.236 336.544 278.872 336.832 279.272 337.408H279.344V334.324H280.58V343H279.596L279.476 342.16H279.392C279.192 342.48 278.92 342.724 278.576 342.892C278.24 343.06 277.864 343.144 277.448 343.144ZM277.796 342.1C278.332 342.1 278.724 341.916 278.972 341.548C279.22 341.18 279.344 340.636 279.344 339.916V339.82C279.344 338.332 278.828 337.588 277.796 337.588C277.228 337.588 276.824 337.76 276.584 338.104C276.344 338.44 276.224 339.008 276.224 339.808V339.916C276.224 340.7 276.344 341.26 276.584 341.596C276.824 341.932 277.228 342.1 277.796 342.1ZM284.83 343.144C283.83 343.144 283.078 342.876 282.574 342.34C282.078 341.796 281.83 340.964 281.83 339.844C281.83 338.724 282.078 337.896 282.574 337.36C283.078 336.816 283.83 336.544 284.83 336.544C285.83 336.544 286.582 336.816 287.086 337.36C287.59 337.896 287.842 338.724 287.842 339.844C287.842 340.964 287.59 341.796 287.086 342.34C286.582 342.876 285.83 343.144 284.83 343.144ZM284.83 342.124C285.438 342.124 285.878 341.948 286.15 341.596C286.43 341.236 286.57 340.672 286.57 339.904V339.784C286.57 339.016 286.43 338.456 286.15 338.104C285.878 337.744 285.438 337.564 284.83 337.564C284.23 337.564 283.79 337.744 283.51 338.104C283.238 338.456 283.102 339.016 283.102 339.784V339.904C283.102 340.672 283.238 341.236 283.51 341.596C283.79 341.948 284.23 342.124 284.83 342.124ZM289.093 336.688H290.089L290.209 337.528H290.293C290.509 337.208 290.773 336.964 291.085 336.796C291.397 336.628 291.753 336.544 292.153 336.544C292.969 336.544 293.517 336.872 293.797 337.528H293.869C294.085 337.216 294.361 336.976 294.697 336.808C295.033 336.632 295.401 336.544 295.801 336.544C296.393 336.544 296.857 336.704 297.193 337.024C297.529 337.336 297.697 337.844 297.697 338.548V343H296.461V338.788C296.461 338.356 296.365 338.052 296.173 337.876C295.989 337.692 295.729 337.6 295.393 337.6C295.001 337.6 294.673 337.756 294.409 338.068C294.145 338.38 294.013 338.788 294.013 339.292V343H292.777V338.788C292.777 338.356 292.685 338.052 292.501 337.876C292.325 337.692 292.069 337.6 291.733 337.6C291.341 337.6 291.009 337.756 290.737 338.068C290.465 338.38 290.329 338.788 290.329 339.292V343H289.093V336.688ZM300.921 343.144C300.401 343.144 299.929 343.016 299.505 342.76C299.089 342.504 298.881 342.04 298.881 341.368C298.881 340.56 299.233 340 299.937 339.688C300.641 339.376 301.649 339.22 302.961 339.22V338.596C302.961 338.252 302.869 337.992 302.685 337.816C302.509 337.632 302.177 337.54 301.689 337.54C301.217 337.54 300.881 337.624 300.681 337.792C300.489 337.96 300.393 338.164 300.393 338.404V338.56H299.193C299.185 338.512 299.181 338.424 299.181 338.296C299.181 337.744 299.413 337.316 299.877 337.012C300.341 336.7 300.961 336.544 301.737 336.544C302.553 336.544 303.165 336.712 303.573 337.048C303.989 337.384 304.197 337.86 304.197 338.476V341.704C304.197 341.848 304.237 341.956 304.317 342.028C304.397 342.092 304.497 342.124 304.617 342.124H305.049V342.952C304.841 343.056 304.557 343.108 304.197 343.108C303.909 343.108 303.665 343.032 303.465 342.88C303.273 342.72 303.145 342.504 303.081 342.232H302.997C302.773 342.52 302.485 342.744 302.133 342.904C301.789 343.064 301.385 343.144 300.921 343.144ZM301.281 342.136C301.753 342.136 302.149 341.996 302.469 341.716C302.797 341.428 302.961 341.036 302.961 340.54V340.156C302.049 340.156 301.353 340.236 300.873 340.396C300.393 340.548 300.153 340.84 300.153 341.272C300.153 341.568 300.245 341.788 300.429 341.932C300.621 342.068 300.905 342.136 301.281 342.136ZM305.957 334.324H307.181V335.584H305.957V334.324ZM305.957 336.688H307.193V343H305.957V336.688ZM308.828 336.688H309.824L309.944 337.528H310.028C310.252 337.208 310.54 336.964 310.892 336.796C311.252 336.628 311.656 336.544 312.104 336.544C313.44 336.544 314.108 337.268 314.108 338.716V343H312.872V338.872C312.872 338.4 312.764 338.072 312.548 337.888C312.34 337.696 312.032 337.6 311.624 337.6C311.344 337.6 311.084 337.672 310.844 337.816C310.604 337.952 310.412 338.148 310.268 338.404C310.132 338.66 310.064 338.956 310.064 339.292V343H308.828V336.688ZM315.911 341.596H317.243V343H315.911V341.596ZM321.518 343.144C320.542 343.144 319.822 342.876 319.358 342.34C318.894 341.804 318.662 340.972 318.662 339.844C318.662 338.716 318.894 337.884 319.358 337.348C319.83 336.812 320.55 336.544 321.518 336.544C322.374 336.544 323.014 336.756 323.438 337.18C323.87 337.596 324.086 338.216 324.086 339.04H322.838C322.838 338.528 322.734 338.152 322.526 337.912C322.326 337.672 321.986 337.552 321.506 337.552C320.962 337.552 320.562 337.732 320.306 338.092C320.058 338.452 319.934 339.028 319.934 339.82V339.904C319.934 340.688 320.058 341.256 320.306 341.608C320.562 341.96 320.97 342.136 321.53 342.136C322.002 342.136 322.346 342.012 322.562 341.764C322.786 341.508 322.898 341.136 322.898 340.648H324.086C324.086 341.4 323.87 342.004 323.438 342.46C323.006 342.916 322.366 343.144 321.518 343.144ZM327.862 343.144C326.862 343.144 326.11 342.876 325.606 342.34C325.11 341.796 324.862 340.964 324.862 339.844C324.862 338.724 325.11 337.896 325.606 337.36C326.11 336.816 326.862 336.544 327.862 336.544C328.862 336.544 329.614 336.816 330.118 337.36C330.622 337.896 330.874 338.724 330.874 339.844C330.874 340.964 330.622 341.796 330.118 342.34C329.614 342.876 328.862 343.144 327.862 343.144ZM327.862 342.124C328.47 342.124 328.91 341.948 329.182 341.596C329.462 341.236 329.602 340.672 329.602 339.904V339.784C329.602 339.016 329.462 338.456 329.182 338.104C328.91 337.744 328.47 337.564 327.862 337.564C327.262 337.564 326.822 337.744 326.542 338.104C326.27 338.456 326.134 339.016 326.134 339.784V339.904C326.134 340.672 326.27 341.236 326.542 341.596C326.822 341.948 327.262 342.124 327.862 342.124ZM332.125 336.688H333.121L333.241 337.528H333.325C333.541 337.208 333.805 336.964 334.117 336.796C334.429 336.628 334.785 336.544 335.185 336.544C336.001 336.544 336.549 336.872 336.829 337.528H336.901C337.117 337.216 337.393 336.976 337.729 336.808C338.065 336.632 338.433 336.544 338.833 336.544C339.425 336.544 339.889 336.704 340.225 337.024C340.561 337.336 340.729 337.844 340.729 338.548V343H339.493V338.788C339.493 338.356 339.397 338.052 339.205 337.876C339.021 337.692 338.761 337.6 338.425 337.6C338.033 337.6 337.705 337.756 337.441 338.068C337.177 338.38 337.045 338.788 337.045 339.292V343H335.809V338.788C335.809 338.356 335.717 338.052 335.533 337.876C335.357 337.692 335.101 337.6 334.765 337.6C334.373 337.6 334.041 337.756 333.769 338.068C333.497 338.38 333.361 338.788 333.361 339.292V343H332.125V336.688Z" fill="#AFAFC0"/>
<circle cx="502.503" cy="386.503" r="139.503" fill="url(#paint6_radial)" fill-opacity="0.16"/>
<circle cx="498.954" cy="387.171" r="66.9466" fill="url(#paint7_radial)" fill-opacity="0.48"/>
<rect x="401" y="353" width="194.5" height="65.7908" rx="32.8954" fill="#FB4247"/>
<path d="M439.819 378.415H446.722C448.34 378.415 449.557 378.83 450.373 379.661C451.19 380.477 451.598 381.638 451.598 383.143C451.598 384.649 451.168 385.824 450.31 386.669C449.466 387.499 448.199 387.914 446.511 387.914H442.88V392.896H439.819V378.415ZM446.447 385.318C447.109 385.318 447.615 385.128 447.967 384.748C448.319 384.368 448.495 383.833 448.495 383.143C448.495 382.468 448.319 381.947 447.967 381.581C447.615 381.201 447.109 381.011 446.447 381.011H442.88V385.318H446.447ZM453.772 381.793H456.241L456.473 383.587H456.621C456.86 382.953 457.17 382.454 457.55 382.088C457.93 381.722 458.43 381.539 459.049 381.539C459.457 381.539 459.823 381.603 460.146 381.729V384.431H459.344C458.401 384.431 457.719 384.691 457.297 385.212C456.875 385.719 456.663 386.493 456.663 387.534V392.896H453.772V381.793ZM466.345 393.149C464.558 393.149 463.221 392.677 462.335 391.735C461.462 390.792 461.026 389.328 461.026 387.344C461.026 385.36 461.462 383.896 462.335 382.953C463.221 382.011 464.558 381.539 466.345 381.539C467.992 381.539 469.223 382.018 470.039 382.975C470.855 383.917 471.264 385.374 471.264 387.344V388.019H463.96C463.988 389.005 464.185 389.736 464.551 390.215C464.917 390.679 465.529 390.911 466.387 390.911C466.993 390.911 467.478 390.742 467.844 390.405C468.224 390.067 468.414 389.589 468.414 388.969H471.264C471.264 390.363 470.813 391.411 469.913 392.114C469.012 392.804 467.823 393.149 466.345 393.149ZM468.266 386.099C468.266 384.565 467.626 383.798 466.345 383.798C465.614 383.798 465.058 383.988 464.678 384.368C464.312 384.748 464.087 385.325 464.002 386.099H468.266ZM471.974 381.793H474.993L476.724 386.563C476.921 387.098 477.23 388.209 477.652 389.898H477.758C478.152 388.308 478.461 387.196 478.687 386.563L480.396 381.793H483.33L479.172 392.896H476.111L471.974 381.793ZM484.78 377.634H487.672V380.378H484.78V377.634ZM484.78 381.793H487.672V392.896H484.78V381.793ZM495.045 393.149C493.258 393.149 491.921 392.677 491.035 391.735C490.162 390.792 489.726 389.328 489.726 387.344C489.726 385.36 490.162 383.896 491.035 382.953C491.921 382.011 493.258 381.539 495.045 381.539C496.692 381.539 497.923 382.018 498.739 382.975C499.555 383.917 499.963 385.374 499.963 387.344V388.019H492.66C492.688 389.005 492.885 389.736 493.251 390.215C493.617 390.679 494.229 390.911 495.087 390.911C495.693 390.911 496.178 390.742 496.544 390.405C496.924 390.067 497.114 389.589 497.114 388.969H499.963C499.963 390.363 499.513 391.411 498.613 392.114C497.712 392.804 496.523 393.149 495.045 393.149ZM496.966 386.099C496.966 384.565 496.326 383.798 495.045 383.798C494.313 383.798 493.758 383.988 493.378 384.368C493.012 384.748 492.787 385.325 492.702 386.099H496.966ZM500.569 381.793H503.545L504.748 386.352C504.875 386.844 505.093 387.907 505.402 389.539H505.487C505.796 388.034 506.022 386.978 506.162 386.373L507.302 381.793H510.278L511.482 386.394C511.65 387.041 511.883 388.09 512.178 389.539H512.263C512.53 388.188 512.755 387.14 512.938 386.394L514.078 381.793H516.822L513.529 392.896H510.532L509.265 387.597C509.11 386.922 508.942 386.106 508.759 385.149H508.653C508.526 386.092 508.379 386.901 508.21 387.576L506.88 392.896H503.883L500.569 381.793ZM528.297 393.149C526.749 393.149 525.532 392.832 524.646 392.199C523.773 391.552 523.337 390.693 523.337 389.624L523.358 389.37H526.165V389.518C526.179 390.011 526.398 390.37 526.82 390.595C527.256 390.806 527.784 390.911 528.403 390.911C528.98 390.911 529.472 390.834 529.88 390.679C530.289 390.524 530.493 390.271 530.493 389.919C530.493 389.525 530.282 389.23 529.859 389.033C529.451 388.836 528.804 388.639 527.917 388.442C527.003 388.231 526.257 388.019 525.68 387.808C525.103 387.583 524.603 387.238 524.181 386.774C523.759 386.31 523.548 385.691 523.548 384.917C523.548 383.833 523.998 383.003 524.899 382.426C525.814 381.835 526.989 381.539 528.424 381.539C529.761 381.539 530.866 381.814 531.738 382.362C532.61 382.897 533.047 383.629 533.047 384.558L533.026 385.043H530.218V384.917C530.218 384.551 530.042 384.269 529.691 384.072C529.353 383.875 528.895 383.777 528.318 383.777C527.741 383.777 527.284 383.854 526.946 384.009C526.609 384.164 526.44 384.382 526.44 384.663C526.44 385.015 526.63 385.275 527.01 385.444C527.404 385.613 528.03 385.782 528.888 385.951C529.831 386.162 530.598 386.373 531.189 386.584C531.78 386.795 532.294 387.14 532.73 387.618C533.166 388.097 533.384 388.744 533.384 389.56C533.384 391.953 531.689 393.149 528.297 393.149ZM535.362 377.634H538.253V380.378H535.362V377.634ZM535.362 381.793H538.253V392.896H535.362V381.793ZM544.023 393.149C542.981 393.149 542.236 392.867 541.785 392.304C541.335 391.742 541.11 391.031 541.11 390.173V384.157H539.78V381.793H541.173L541.659 378.668H544.002V381.793H545.923V384.157H544.002V389.877C544.002 390.482 544.304 390.785 544.909 390.785H545.923V392.811C545.683 392.896 545.381 392.973 545.015 393.043C544.663 393.114 544.332 393.149 544.023 393.149ZM552.445 393.149C550.658 393.149 549.321 392.677 548.435 391.735C547.562 390.792 547.126 389.328 547.126 387.344C547.126 385.36 547.562 383.896 548.435 382.953C549.321 382.011 550.658 381.539 552.445 381.539C554.092 381.539 555.323 382.018 556.139 382.975C556.955 383.917 557.363 385.374 557.363 387.344V388.019H550.06C550.088 389.005 550.285 389.736 550.651 390.215C551.017 390.679 551.629 390.911 552.487 390.911C553.092 390.911 553.578 390.742 553.944 390.405C554.324 390.067 554.514 389.589 554.514 388.969H557.363C557.363 390.363 556.913 391.411 556.012 392.114C555.112 392.804 553.923 393.149 552.445 393.149ZM554.366 386.099C554.366 384.565 553.726 383.798 552.445 383.798C551.713 383.798 551.158 383.988 550.778 384.368C550.412 384.748 550.187 385.325 550.102 386.099H554.366Z" fill="white"/>
<defs>
<filter id="filter0_d" x="103" y="0" width="534" height="506" filterUnits="userSpaceOnUse" color-interpolation-filters="sRGB">
<feFlood flood-opacity="0" result="BackgroundImageFix"/>
<feColorMatrix in="SourceAlpha" type="matrix" values="0 0 0 0 0 0 0 0 0 0 0 0 0 0 0 0 0 0 127 0"/>
<feMorphology radius="8" operator="erode" in="SourceAlpha" result="effect1_dropShadow"/>
<feOffset dy="24"/>
<feGaussianBlur stdDeviation="50"/>
<feColorMatrix type="matrix" values="0 0 0 0 0 0 0 0 0 0 0 0 0 0 0 0 0 0 0.1 0"/>
<feBlend mode="normal" in2="BackgroundImageFix" result="effect1_dropShadow"/>
<feBlend mode="normal" in="SourceGraphic" in2="effect1_dropShadow" result="shape"/>
</filter>
<filter id="filter1_d" x="103" y="0" width="533" height="479" filterUnits="userSpaceOnUse" color-interpolation-filters="sRGB">
<feFlood flood-opacity="0" result="BackgroundImageFix"/>
<feColorMatrix in="SourceAlpha" type="matrix" values="0 0 0 0 0 0 0 0 0 0 0 0 0 0 0 0 0 0 127 0"/>
<feMorphology radius="8" operator="erode" in="SourceAlpha" result="effect1_dropShadow"/>
<feOffset dy="24"/>
<feGaussianBlur stdDeviation="50"/>
<feColorMatrix type="matrix" values="0 0 0 0 0 0 0 0 0 0 0 0 0 0 0 0 0 0 0.1 0"/>
<feBlend mode="normal" in2="BackgroundImageFix" result="effect1_dropShadow"/>
<feBlend mode="normal" in="SourceGraphic" in2="effect1_dropShadow" result="shape"/>
</filter>
<linearGradient id="paint0_linear" x1="156" y1="149" x2="392.626" y2="149.003" gradientUnits="userSpaceOnUse">
<stop stop-color="#DBD6D8" stop-opacity="0.43"/>
<stop offset="1" stop-color="#DBD6D8" stop-opacity="0"/>
</linearGradient>
<linearGradient id="paint1_linear" x1="853.867" y1="80.0812" x2="344.656" y2="77.7979" gradientUnits="userSpaceOnUse">
<stop stop-color="white" stop-opacity="0"/>
<stop offset="1" stop-color="#AEB0C0" stop-opacity="0.58"/>
</linearGradient>
<linearGradient id="paint2_linear" x1="535.813" y1="167" x2="640.276" y2="167.001" gradientUnits="userSpaceOnUse">
<stop stop-color="#DBD6D8" stop-opacity="0.43"/>
<stop offset="1" stop-color="#DBD6D8" stop-opacity="0"/>
</linearGradient>
<linearGradient id="paint3_linear" x1="643.968" y1="417.128" x2="7.36332" y2="417" gradientUnits="userSpaceOnUse">
<stop stop-color="#DBD6D8"/>
<stop offset="1" stop-color="#DBD6D8" stop-opacity="0"/>
</linearGradient>
<linearGradient id="paint4_linear" x1="198.351" y1="417.945" x2="291.377" y2="417.595" gradientUnits="userSpaceOnUse">
<stop stop-color="white"/>
<stop offset="1" stop-color="white"/>
</linearGradient>
<radialGradient id="paint5_radial" cx="0" cy="0" r="1" gradientUnits="userSpaceOnUse" gradientTransform="translate(280.623 309.916) rotate(-31.3706) scale(203.099 370.658)">
<stop stop-color="#1F2742"/>
<stop offset="1" stop-color="#2F395A"/>
</radialGradient>
<radialGradient id="paint6_radial" cx="0" cy="0" r="1" gradientUnits="userSpaceOnUse" gradientTransform="translate(502.503 386.503) rotate(90) scale(139.503)">
<stop offset="0.505208" stop-color="#FB4247" stop-opacity="0"/>
<stop offset="1" stop-color="#FB4247"/>
</radialGradient>
<radialGradient id="paint7_radial" cx="0" cy="0" r="1" gradientUnits="userSpaceOnUse" gradientTransform="translate(498.954 387.171) rotate(90) scale(66.9466)">
<stop stop-color="#FB4247" stop-opacity="0"/>
<stop offset="1" stop-color="#FB4247"/>
</radialGradient>
<clipPath id="clip0">
<rect width="29" height="7" fill="white" transform="translate(203.996 75)"/>
</clipPath>
</defs>
</svg>
