<svg width="783" height="721" viewBox="0 0 783 721" fill="none" xmlns="http://www.w3.org/2000/svg">
<rect x="461" y="531" width="111" height="37" rx="18.5" fill="url(#paint0_linear)"/>
<rect opacity="0.5" x="137" y="75" width="299" height="122" rx="61" fill="url(#paint1_linear)"/>
<rect x="53" y="292" width="532" height="162" rx="81" stroke="url(#paint2_linear)" stroke-linecap="round"/>
<rect x="117" y="407" width="132" height="86" rx="43" fill="url(#paint3_linear)"/>
<path fill-rule="evenodd" clip-rule="evenodd" d="M704.363 222C704.363 257.346 675.71 286 640.363 286L464.998 286C429.652 286 400.998 257.346 400.998 222C400.998 186.654 429.652 158 464.998 158L640.363 158C675.709 158 704.363 186.654 704.363 222Z" fill="url(#paint4_linear)"/>
<circle cx="637.996" cy="222" r="45" stroke="url(#paint5_linear)" stroke-width="2"/>
<path d="M204.201 10.1409L213.376 17.5537L204.875 23.5003L195.699 16.0874L204.201 10.1409Z" fill="#F9C1C4"/>
<path d="M266.901 400.312L260.152 396.388L266.357 386.809L273.106 390.733L266.901 400.312Z" fill="#F9C1C4"/>
<path d="M473.561 267.801L472.238 276.02L467 274.219L468.323 266L473.561 267.801Z" fill="#FB4247"/>
<path d="M652.805 127.847L641.096 125.805L643.965 120.179L655.673 122.221L652.805 127.847Z" fill="#2F3A5F"/>
<path d="M427.044 369.21L437.899 367.451L437.894 375.125L427.039 376.884L427.044 369.21Z" fill="#F9C1C4"/>
<path d="M371.32 445.404L359.366 448.307L355.852 443.321L367.805 440.417L371.32 445.404Z" fill="#F9C1C4"/>
<path d="M450.881 537.181L452.863 536.648L446.659 540.95L444.676 541.482L450.881 537.181Z" fill="#FB4247"/>
<path d="M245.461 86.8015L245.995 86.0337L248.374 88.7669L247.839 89.5347L245.461 86.8015Z" fill="#2F3A5F"/>
<path d="M297.308 284.387L296.382 291.103L295.055 288.038L295.98 281.322L297.308 284.387Z" fill="#2F3A5F"/>
<path d="M251.217 115.86L245.496 110.851L247.72 111.246L253.441 116.256L251.217 115.86Z" fill="#FB4247"/>
<path d="M414.448 367.759L415.512 371.063L409.654 380.295L408.59 376.992L414.448 367.759Z" fill="#F9C1C4"/>
<path d="M253.957 59.1027L255.03 55.1718L260.989 52.7471L259.918 56.6779L253.957 59.1027Z" fill="#F9C1C4"/>
<path d="M179.143 469.965L184.098 481.536L180.377 484.184L175.422 472.614L179.143 469.965Z" fill="#2F3A5F"/>
<path d="M170.471 547.489L164.058 548.51L159.547 538.608L165.96 537.585L170.471 547.489Z" fill="#FB4247"/>
<path d="M367.707 469.608L371.966 473.738L369.96 477.596L365.699 473.466L367.707 469.608Z" fill="#FB4247"/>
<path d="M186.685 500.74L187.879 508.789L191.988 508.179L190.794 500.13L186.685 500.74Z" fill="#FB4247"/>
<path d="M237.074 11.1303L235.24 14.2622L231.344 12.4666L233.177 9.33472L237.074 11.1303Z" fill="#2F3A5F"/>
<path d="M444.946 559.208L433.153 565.879L428.664 550.085L440.458 543.412L444.946 559.208Z" fill="#1AC3DA"/>
<path d="M221.121 315.939L221.227 314.325L223.894 316.538L223.79 318.15L221.121 315.939Z" fill="#FB4247"/>
<path d="M402.109 362.432L401.665 371.511L398.27 373.313L398.715 364.235L402.109 362.432Z" fill="#2F3A5F"/>
<path d="M434 121.125L443.895 113L449.704 119.189L439.81 127.313L434 121.125Z" fill="#1AC3DA"/>
<path d="M643.285 548.475L643.063 551.07L639.188 551.085L639.41 548.491L643.285 548.475Z" fill="#FB4247"/>
<path d="M334.352 115.239L337.359 111.646L339.451 113.348L336.445 116.94L334.352 115.239Z" fill="#F9C1C4"/>
<path d="M713 393.574L705.77 387.854L711.15 378.7" fill="#2F3A5F"/>
<path d="M653.492 269.326L649.095 276.14L641 272.814L645.4 266L653.492 269.326Z" fill="#2F3A5F"/>
<path d="M133.107 439.975L131.703 441.583L128.605 443.421L130.011 441.812L133.107 439.975Z" fill="#FB4247"/>
<path d="M194.128 534.343L192.078 527.25L195.704 528.828L197.754 535.92L194.128 534.343Z" fill="#1AC3DA"/>
<path d="M139.667 287.958L140.094 291.086L136.411 288.426L135.984 285.297L139.667 287.958Z" fill="#FB4247"/>
<path d="M605.843 541.296L598.855 552.14L595.555 546.519L602.545 535.675L605.843 541.296Z" fill="#FB4247"/>
<path d="M383.473 432.874L385.353 428.567L393.352 431.486L391.471 435.791L383.473 432.874Z" fill="#2F3A5F"/>
<path d="M144.008 268.751L135.49 267.059L127.898 257.229L136.415 258.922L144.008 268.751Z" fill="#1AC3DA"/>
<path d="M234.953 282.94L227.043 273.926L235.224 266.352L243.134 275.364L234.953 282.94Z" fill="#FB4247"/>
<path d="M652.814 69.4179L634.078 67.1527L634.543 61.7451L653.279 64.0104L652.814 69.4179Z" fill="#1AC3DA"/>
<path d="M581.859 390.195L572.129 385.699L574.049 384.567L583.779 389.063L581.859 390.195Z" fill="#2F3A5F"/>
<path d="M665.086 241.442L662.59 248.155L660 246.714L662.496 240L665.086 241.442Z" fill="#F9C1C4"/>
<path d="M217.264 82.5449L217.803 84.4324L204.262 94.5403L203.723 92.6529L217.264 82.5449Z" fill="#2F3A5F"/>
<path d="M502.874 154.631L504.097 156.413L503.548 156.98L502.324 155.196L502.874 154.631Z" fill="#FB4247"/>
<path d="M128.164 66.1238L130.346 64.271L135.347 66.0492L133.166 67.902L128.164 66.1238Z" fill="#FB4247"/>
<path d="M387.356 409.929L383.51 415.477L377.145 413.345L380.99 407.797L387.356 409.929Z" fill="#FB4247"/>
<path d="M262.559 396.243L274.705 388.326L278.178 394.099L266.034 402.015L262.559 396.243Z" fill="#1AC3DA"/>
<path d="M370.137 161.275L375.863 153.865L377.695 161.67L371.968 169.079L370.137 161.275Z" fill="#FB4247"/>
<path d="M379.516 41.5679L380.435 46.4295L376.977 49.1852L376.059 44.3236L379.516 41.5679Z" fill="#1AC3DA"/>
<path d="M229.855 23.9395L227.633 41.7081L213.07 38.1395L215.291 20.3726L229.855 23.9395Z" fill="#FB4247"/>
<path d="M190.556 240.314L185.102 233.993L198.059 224.099L203.515 230.421L190.556 240.314Z" fill="#1AC3DA"/>
<path d="M258.734 253.35L263.249 257.867L263.359 260.361L258.842 255.844L258.734 253.35Z" fill="#2F3A5F"/>
<path d="M232.616 472.144L231.375 471.011L229.789 459.804L231.03 460.937L232.616 472.144Z" fill="#FB4247"/>
<path d="M683.115 458.895L680.368 459.671L678.926 455.354L681.673 454.578L683.115 458.895Z" fill="#F9C1C4"/>
<path d="M275.415 127.74L272.384 130.569L268.852 127.229L271.883 124.402L275.415 127.74Z" fill="#FB4247"/>
<path d="M702.165 43.1377L700.867 45.195L699.203 45.7236L700.499 43.6681L702.165 43.1377Z" fill="#2F3A5F"/>
<path d="M193.227 133.251L200.13 129.664L193.638 135.719L186.734 139.307L193.227 133.251Z" fill="#FB4247"/>
<path d="M328.889 497.092L326.027 494.368L332.095 494.681L334.957 497.406L328.889 497.092Z" fill="#F9C1C4"/>
<path d="M583.178 463.571L582.183 462.425L578.527 449.686L579.522 450.832L583.178 463.571Z" fill="#F9C1C4"/>
<path d="M297.539 569.328L295.314 581.731L287.164 578.37L289.389 565.968L297.539 569.328Z" fill="#F9C1C4"/>
<path d="M215.903 400.27L211.106 411.414L201.555 405.357L206.352 394.212L215.903 400.27Z" fill="#FB4247"/>
<path d="M440.72 45.1662L449.122 32.1846L448.574 39.0168L440.172 51.9984L440.72 45.1662Z" fill="#1AC3DA"/>
<path d="M227.996 435.978L225.726 438.423L223.32 438.212L225.591 435.765L227.996 435.978Z" fill="#2F3A5F"/>
<path d="M593.413 426.232L584.801 432.453L576.09 421.076L584.702 414.855L593.413 426.232Z" fill="#FB4247"/>
<path d="M420 231.532L422.569 230L424.813 237.3L422.244 238.832L420 231.532Z" fill="#1AC3DA"/>
<path d="M460.498 459.897L451.921 460.16L443.492 454.179L452.07 453.916L460.498 459.897Z" fill="#1AC3DA"/>
<path d="M336.859 97.5169L340.319 87.0259L350.222 95.2273L346.763 105.718L336.859 97.5169Z" fill="#2F3A5F"/>
<path d="M423.64 279.07L418 275.34L426.106 267L431.746 270.73L423.64 279.07Z" fill="#2F3A5F"/>
<path d="M591.771 123.07L588 120.576L593.42 115L597.191 117.494L591.771 123.07Z" fill="#1AC3DA"/>
<path d="M262.548 251.722L260.866 254.537L254.5 247.937L256.179 245.122L262.548 251.722Z" fill="#2F3A5F"/>
<path d="M247.797 64.9498L259.808 62.2529L263.413 71.0177L251.404 73.7145L247.797 64.9498Z" fill="#F9C1C4"/>
<path d="M332.371 235.616L330.69 236.491L321.121 222.263L322.801 221.388L332.371 235.616Z" fill="#F9C1C4"/>
<path d="M583.734 513.141L581.234 512.406L581.47 508.937L583.971 509.671L583.734 513.141Z" fill="#F9C1C4"/>
<path d="M357.65 597.091L355.816 596.656L363.614 585.718L365.446 586.153L357.65 597.091Z" fill="#F9C1C4"/>
<path d="M638.634 482.556L645.305 497.978L630.187 501.551L623.516 486.129L638.634 482.556Z" fill="#FB4247"/>
<path d="M625.633 55.0474L625.273 60.2937L621.82 59.8743L622.181 54.6279L625.633 55.0474Z" fill="#F9C1C4"/>
<path d="M554.017 472.371L550.121 470.488L554.334 467.826L558.23 469.708L554.017 472.371Z" fill="#F9C1C4"/>
<path d="M436.895 438.825L445.056 433.097L453.767 444.721L445.606 450.449L436.895 438.825Z" fill="#FB4247"/>
<path d="M569.091 583.042L574.996 585.614L571.092 587.919L565.188 585.345L569.091 583.042Z" fill="#F9C1C4"/>
<path d="M331.973 199.114L336.339 202.827L332.491 207.39L328.125 203.676L331.973 199.114Z" fill="#FB4247"/>
<path d="M330.189 294.049L340.442 305.706L339.297 305.335L329.043 293.678L330.189 294.049Z" fill="#FB4247"/>
<path d="M325.166 98.2161L322.365 100.067L317.84 94.5764L320.641 92.7236L325.166 98.2161Z" fill="#FB4247"/>
<path d="M667 163L657.125 159.506L652 150L661.879 153.494L667 163Z" fill="#FB4247"/>
<path d="M301.615 289.88L297.117 286.441L300.376 275.912L304.873 279.352L301.615 289.88Z" fill="#FB4247"/>
<path d="M616 243.442L624.047 233L633.639 241.354L625.59 251.796L616 243.442Z" fill="#1AC3DA"/>
<path d="M197.18 487.368L190.583 493.703L184.223 487.266L190.819 480.933L197.18 487.368Z" fill="#F9C1C4"/>
<path d="M586.22 438.979L580.793 440.184L582.558 431.039L587.984 429.836L586.22 438.979Z" fill="#2F3A5F"/>
<path d="M649.445 357.01L663.053 344.88L664.635 345.559L651.028 357.688L649.445 357.01Z" fill="#1AC3DA"/>
<path d="M420.168 63.0584L421.572 51.5708L425.082 52.2485L423.679 63.7378L420.168 63.0584Z" fill="#2F3A5F"/>
<path d="M508.264 305.677L507.928 307.741L495.016 305.377L495.35 303.313L508.264 305.677Z" fill="#FB4247"/>
<path d="M250.962 263.529L246.95 264.02L243.598 251.662L247.61 251.171L250.962 263.529Z" fill="#FB4247"/>
<path d="M588.758 368.386L590.352 370.949L588.212 372.948L586.617 370.384L588.758 368.386Z" fill="#2F3A5F"/>
<path d="M381.798 409.322L380.359 403.047L390.412 395.648L391.85 401.923L381.798 409.322Z" fill="#1AC3DA"/>
<path d="M126 72.1723L127.992 66.042L130.165 66.5689L128.173 72.6992L126 72.1723Z" fill="#F9C1C4"/>
<path d="M304.825 41.299L293.319 48.1659L288.012 32.0317L299.518 25.1665L304.825 41.299Z" fill="#F9C1C4"/>
<path d="M249.081 557.835L243.699 557.623L245.623 538.142L251.007 538.355L249.081 557.835Z" fill="#FB4247"/>
<path d="M610.081 397.377L607.205 398.069L606.793 397.072L609.669 396.381L610.081 397.377Z" fill="#1AC3DA"/>
<path d="M568.017 42.9255L563.16 35.5317L566.627 33.1069L571.483 40.5025L568.017 42.9255Z" fill="#FB4247"/>
<path d="M307.472 166.004L306.614 165.792L305.344 162.718L306.202 162.929L307.472 166.004Z" fill="#F9C1C4"/>
<path d="M469.897 444.365L463.772 458.827L460.996 459.869L467.121 445.407L469.897 444.365Z" fill="#1AC3DA"/>
<path d="M296.375 524.002L300.185 513.979L303.845 515.2L300.035 525.225L296.375 524.002Z" fill="#2F3A5F"/>
<path d="M711.795 56.9427L709.938 52.53L711.452 51.9199L713.312 56.3309L711.795 56.9427Z" fill="#F9C1C4"/>
<path d="M379.117 426.866L378.43 425.2L381.598 422.37L382.284 424.034L379.117 426.866Z" fill="#FB4247"/>
<path d="M218.852 7.96946L223.308 0.000244141L224.805 0.308752L220.349 8.27796L218.852 7.96946Z" fill="#FB4247"/>
<path d="M537.945 560.509L540.941 561.173L537.92 564.057L534.926 563.393L537.945 560.509Z" fill="#FB4247"/>
<path d="M172.73 234.084L171.668 227.881L174.533 223.134L175.595 229.337L172.73 234.084Z" fill="#F9C1C4"/>
<path d="M684.406 457.073L679.875 453.534L681.929 450.867L686.459 454.406L684.406 457.073Z" fill="#F9C1C4"/>
<path d="M257.164 28.96L247.635 32.6673L231.551 32.87L241.08 29.161L257.164 28.96Z" fill="#1AC3DA"/>
<path d="M591.73 363.031L597.757 361.495L599.233 375.329L593.208 376.865L591.73 363.031Z" fill="#F9C1C4"/>
<path d="M352.805 433.728L351.838 440.021L341.129 438.931L342.096 432.636L352.805 433.728Z" fill="#F9C1C4"/>
<path d="M433.432 526.666L431.423 528.257L430.02 525.553L432.028 523.96L433.432 526.666Z" fill="#FB4247"/>
<path d="M345.324 15.6261L345.996 20.9054L335.805 20.5657L335.133 15.2864L345.324 15.6261Z" fill="#FB4247"/>
<path d="M418.379 592.551L428.34 591.293L429.553 596.096" fill="#1AC3DA"/>
<path d="M358.414 588.879L371.168 593.072L366.469 595.746L353.715 591.553L358.414 588.879Z" fill="#2F3A5F"/>
<path d="M676.348 507.938L678.634 506.54L677.895 508.9L675.609 510.299L676.348 507.938Z" fill="#FB4247"/>
<path d="M422.031 512.041L422.153 510.961L423.182 510.511L423.061 511.591L422.031 512.041Z" fill="#1AC3DA"/>
<path d="M283.967 64.7792L279.008 50.8201L289.384 48.5981L294.343 62.559L283.967 64.7792Z" fill="#1AC3DA"/>
<path d="M641.07 456.841L639.289 455.714L645.149 448L646.93 449.127L641.07 456.841Z" fill="#F9C1C4"/>
<path d="M303.735 262.515L302.851 265.447L299.523 265.307L300.407 262.376L303.735 262.515Z" fill="#F9C1C4"/>
<path d="M459.122 235L470.877 239.382L466.755 247.82L455 243.438L459.122 235Z" fill="#F9C1C4"/>
<path d="M617.336 314.186L622.894 329.405L616.547 332.363L610.988 317.146L617.336 314.186Z" fill="#2F3A5F"/>
<path d="M430.423 159.964L415 152.728L416.194 150L431.617 157.234L430.423 159.964Z" fill="#FB4247"/>
<path d="M383.602 550.377L398.561 560.665L388.991 574.798L374.031 564.509L383.602 550.377Z" fill="#2F3A5F"/>
<path d="M365.39 168.216L369.273 165.483L368.5 167.299L364.617 170.033L365.39 168.216Z" fill="#FB4247"/>
<path d="M394.586 380.792L393.156 374.422L397.532 370.398L398.964 376.767L394.586 380.792Z" fill="#F9C1C4"/>
<path d="M201.846 438.446L199.863 437.671L200.238 432.483L202.219 433.256L201.846 438.446Z" fill="#1AC3DA"/>
<path d="M430.324 51.4239L431.99 44.4287L442.131 36.7905L440.465 43.7857L430.324 51.4239Z" fill="#FB4247"/>
<path d="M669.758 561.896L680.093 558.527L686.585 570.47L676.249 573.84L669.758 561.896Z" fill="#1AC3DA"/>
<path d="M610.873 416.719L616.49 417.546L613.086 420.505L607.469 419.68L610.873 416.719Z" fill="#1AC3DA"/>
<path d="M665.996 459.596L666.972 454.833L669.166 457.045L668.189 461.808L665.996 459.596Z" fill="#2F3A5F"/>
<path d="M205.387 266.47L194.775 268.903L184.598 260.284L195.21 257.849L205.387 266.47Z" fill="#F9C1C4"/>
<path d="M150.421 555.755L152.303 560.584L145.925 569.009L144.043 564.18L150.421 555.755Z" fill="#F9C1C4"/>
<path d="M581.433 428.195L584.274 429.685L584.177 442.308L581.336 440.818L581.433 428.195Z" fill="#2F3A5F"/>
<path d="M621.211 414.252L624.821 407.309L627.262 407.978L623.651 414.921L621.211 414.252Z" fill="#FB4247"/>
<path d="M442.768 491.034L428.168 503.487L415.871 489.027L430.473 476.573L442.768 491.034Z" fill="#1AC3DA"/>
<path d="M191.603 398.836L190.926 390.872L196.201 395.627L196.879 403.591L191.603 398.836Z" fill="#F9C1C4"/>
<path d="M480.448 109L484.623 117.349L480.174 122.64L476 114.29L480.448 109Z" fill="#F9C1C4"/>
<path d="M228.608 323.063L224.441 319.203L226.714 316.716L230.88 320.576L228.608 323.063Z" fill="#2F3A5F"/>
<path d="M453.137 304.961L456.021 304.838L456.88 309.055L453.996 309.178L453.137 304.961Z" fill="#FB4247"/>
<g filter="url(#filter0_d)">
<rect x="212" y="110" width="415" height="377" rx="8" fill="#1F2742"/>
</g>
<path d="M212 135H627V479C627 483.418 623.418 487 619 487H220C215.582 487 212 483.418 212 479V135Z" fill="white"/>
<rect x="467" y="291" width="96" height="153" fill="#F3F3F3"/>
<path d="M500.29 381.514H529.706C529.942 381.521 530.174 381.462 530.378 381.343C530.581 381.223 530.747 381.05 530.856 380.841C530.966 380.632 531.014 380.397 530.996 380.162C530.979 379.927 530.895 379.702 530.756 379.512L526.698 374.002C526.592 373.856 526.456 373.734 526.299 373.645C526.141 373.555 525.967 373.501 525.786 373.486C525.606 373.47 525.425 373.494 525.254 373.554C525.084 373.615 524.929 373.712 524.8 373.839L520.63 377.807L510.952 364.666C510.831 364.502 510.672 364.369 510.49 364.28C510.307 364.191 510.105 364.147 509.901 364.153C509.697 364.159 509.498 364.214 509.321 364.314C509.143 364.413 508.993 364.555 508.882 364.726L499.203 379.571C499.078 379.763 499.008 379.986 499.001 380.215C498.993 380.444 499.048 380.671 499.16 380.871C499.272 381.071 499.436 381.237 499.636 381.35C499.835 381.463 500.061 381.52 500.29 381.514Z" fill="#CDCFD5"/>
<path d="M524.153 364.83C526.592 364.83 528.568 362.853 528.568 360.415C528.568 357.977 526.592 356 524.153 356C521.715 356 519.738 357.977 519.738 360.415C519.738 362.853 521.715 364.83 524.153 364.83Z" fill="#CDCFD5"/>
<rect opacity="0.5" x="276" y="291" width="67" height="8" rx="4" fill="#CDCFD5"/>
<rect opacity="0.5" x="276" y="309" width="139" height="4" rx="2" fill="#CDCFD5"/>
<rect opacity="0.5" x="276" y="319" width="121" height="4" rx="2" fill="#CDCFD5"/>
<rect opacity="0.5" x="276" y="329" width="150" height="4" rx="2" fill="#CDCFD5"/>
<rect opacity="0.5" x="276" y="339" width="133" height="4" rx="2" fill="#CDCFD5"/>
<rect opacity="0.5" x="276" y="378" width="67" height="8" rx="4" fill="#CDCFD5"/>
<rect opacity="0.5" x="276" y="396" width="139" height="4" rx="2" fill="#CDCFD5"/>
<rect opacity="0.5" x="276" y="406" width="121" height="4" rx="2" fill="#CDCFD5"/>
<rect opacity="0.5" x="276" y="416" width="150" height="4" rx="2" fill="#CDCFD5"/>
<rect opacity="0.5" x="276" y="426" width="133" height="4" rx="2" fill="#CDCFD5"/>
<g clip-path="url(#clip0)">
<circle cx="226.051" cy="122.89" r="4" fill="#FB4247"/>
<circle cx="238.051" cy="122.89" r="4" fill="white"/>
<circle cx="250.051" cy="122.89" r="4" fill="#1AC3DA"/>
</g>
<rect x="212" y="179" width="415" height="72" fill="#F3F3F3"/>
<g opacity="0.2" clip-path="url(#clip1)">
<path d="M462.375 220.875C466.517 220.875 469.875 217.517 469.875 213.375C469.875 209.233 466.517 205.875 462.375 205.875C458.233 205.875 454.875 209.233 454.875 213.375C454.875 217.517 458.233 220.875 462.375 220.875Z" stroke="#303A5B" stroke-width="3" stroke-miterlimit="10" stroke-linecap="round" stroke-linejoin="round"/>
<path d="M472.373 223.375L467.676 218.677" stroke="#303A5B" stroke-width="3" stroke-miterlimit="10" stroke-linecap="round" stroke-linejoin="round"/>
</g>
<rect opacity="0.5" x="355" y="211" width="85" height="12" rx="6" fill="#CDCFD5"/>
<rect opacity="0.5" x="276" y="153" width="67" height="8" rx="4" fill="#CDCFD5"/>
<rect opacity="0.5" x="404" y="153" width="159" height="8" rx="4" fill="#CDCFD5"/>
<defs>
<filter id="filter0_d" x="56.4339" y="4.21506" width="726.132" height="688.132" filterUnits="userSpaceOnUse" color-interpolation-filters="sRGB">
<feFlood flood-opacity="0" result="BackgroundImageFix"/>
<feColorMatrix in="SourceAlpha" type="matrix" values="0 0 0 0 0 0 0 0 0 0 0 0 0 0 0 0 0 0 127 0"/>
<feOffset dy="49.7811"/>
<feGaussianBlur stdDeviation="77.783"/>
<feColorMatrix type="matrix" values="0 0 0 0 0 0 0 0 0 0 0 0 0 0 0 0 0 0 0.1 0"/>
<feBlend mode="normal" in2="BackgroundImageFix" result="effect1_dropShadow"/>
<feBlend mode="normal" in="SourceGraphic" in2="effect1_dropShadow" result="shape"/>
</filter>
<linearGradient id="paint0_linear" x1="484.388" y1="549.5" x2="572.232" y2="549.501" gradientUnits="userSpaceOnUse">
<stop stop-color="#DBD6D8" stop-opacity="0.43"/>
<stop offset="1" stop-color="#DBD6D8" stop-opacity="0"/>
</linearGradient>
<linearGradient id="paint1_linear" x1="200" y1="136" x2="436.626" y2="136.003" gradientUnits="userSpaceOnUse">
<stop stop-color="#DBD6D8" stop-opacity="0.43"/>
<stop offset="1" stop-color="#DBD6D8" stop-opacity="0"/>
</linearGradient>
<linearGradient id="paint2_linear" x1="581.867" y1="369.081" x2="72.6564" y2="366.798" gradientUnits="userSpaceOnUse">
<stop stop-color="white" stop-opacity="0"/>
<stop offset="1" stop-color="#AEB0C0" stop-opacity="0.58"/>
</linearGradient>
<linearGradient id="paint3_linear" x1="144.813" y1="450" x2="249.276" y2="450.001" gradientUnits="userSpaceOnUse">
<stop stop-color="#DBD6D8" stop-opacity="0.43"/>
<stop offset="1" stop-color="#DBD6D8" stop-opacity="0"/>
</linearGradient>
<linearGradient id="paint4_linear" x1="1036.97" y1="222.128" x2="400.363" y2="222" gradientUnits="userSpaceOnUse">
<stop stop-color="#DBD6D8"/>
<stop offset="1" stop-color="#DBD6D8" stop-opacity="0"/>
</linearGradient>
<linearGradient id="paint5_linear" x1="591.351" y1="222.945" x2="684.377" y2="222.595" gradientUnits="userSpaceOnUse">
<stop stop-color="white"/>
<stop offset="1" stop-color="white"/>
</linearGradient>
<clipPath id="clip0">
<rect width="32" height="8" fill="white" transform="translate(222.051 118.89)"/>
</clipPath>
<clipPath id="clip1">
<rect width="20" height="20" fill="white" transform="translate(453 204)"/>
</clipPath>
</defs>
</svg>
