<svg width="722" height="585" viewBox="0 0 722 585" fill="none" xmlns="http://www.w3.org/2000/svg">
<rect opacity="0.5" x="79" width="299" height="122" rx="61" fill="url(#paint0_linear)"/>
<rect x="164" y="243" width="532" height="162" rx="81" stroke="url(#paint1_linear)" stroke-linecap="round"/>
<path fill-rule="evenodd" clip-rule="evenodd" d="M575.363 408C575.363 443.346 546.71 472 511.363 472L335.998 472C300.652 472 271.998 443.346 271.998 408C271.998 372.654 300.652 344 335.998 344L511.363 344C546.709 344 575.363 372.654 575.363 408Z" fill="url(#paint2_linear)"/>
<rect x="564" y="145" width="132" height="86" rx="43" fill="url(#paint3_linear)"/>
<circle cx="508.996" cy="408" r="45" stroke="url(#paint4_linear)" stroke-width="2"/>
<g clip-path="url(#clip0)">
<path d="M249 68C249 64.134 252.134 61 256 61H592C595.866 61 599 64.134 599 68V369C599 372.866 595.866 376 592 376H256C252.134 376 249 372.866 249 369V68Z" fill="white"/>
<path d="M249 68C249 64.134 252.134 61 256 61H592C595.866 61 599 64.134 599 68V273H249V68Z" fill="white"/>
<g filter="url(#filter0_d)">
<rect x="249" y="61" width="350" height="315" rx="8" fill="url(#paint5_radial)"/>
</g>
<path d="M249 81H599V364C599 370.627 593.627 376 587 376H261C254.373 376 249 370.627 249 364V81Z" fill="white"/>
<path d="M287 121C287 117.686 289.686 115 293 115H554C557.314 115 560 117.686 560 121V273H287V121Z" fill="#F3F3F3"/>
<path d="M399.935 213.272H444.059C444.412 213.282 444.761 213.193 445.066 213.014C445.371 212.835 445.62 212.575 445.784 212.262C445.948 211.949 446.021 211.596 445.995 211.243C445.968 210.891 445.843 210.553 445.634 210.268L439.547 202.004C439.388 201.784 439.184 201.601 438.948 201.467C438.712 201.333 438.45 201.252 438.18 201.229C437.909 201.205 437.637 201.241 437.382 201.332C437.126 201.423 436.894 201.569 436.699 201.758L430.445 207.71L415.927 187.999C415.747 187.753 415.509 187.554 415.234 187.42C414.96 187.286 414.657 187.221 414.352 187.23C414.046 187.238 413.748 187.321 413.481 187.471C413.215 187.62 412.989 187.832 412.823 188.089L398.305 210.357C398.117 210.645 398.012 210.979 398.001 211.323C397.99 211.667 398.072 212.007 398.24 212.307C398.408 212.607 398.655 212.855 398.953 213.025C399.252 213.195 399.591 213.281 399.935 213.272Z" fill="#CDCFD5"/>
<path d="M435.728 188.245C439.385 188.245 442.35 185.28 442.35 181.622C442.35 177.965 439.385 175 435.728 175C432.07 175 429.105 177.965 429.105 181.622C429.105 185.28 432.07 188.245 435.728 188.245Z" fill="#CDCFD5"/>
<g clip-path="url(#clip1)">
<circle cx="261.496" cy="71.5" r="3.5" fill="#FB4247"/>
<circle cx="272.496" cy="71.5" r="3.5" fill="white"/>
<circle cx="283.496" cy="71.5" r="3.5" fill="#1AC3DA"/>
</g>
<path d="M249 273H599V369C599 372.866 595.866 376 592 376H256C252.134 376 249 372.866 249 369V273Z" fill="white"/>
<line x1="249" y1="273.5" x2="598" y2="273.5" stroke="#F0F1F4"/>
<path d="M279.149 311.699L274.114 303.966H276.907L280.384 309.514H280.479L283.899 303.966H286.578L281.562 311.699V317H279.149V311.699ZM290.775 317.228C289.129 317.228 287.894 316.804 287.07 315.955C286.26 315.106 285.854 313.789 285.854 312.003C285.854 310.217 286.26 308.9 287.07 308.051C287.894 307.202 289.129 306.778 290.775 306.778C292.422 306.778 293.651 307.202 294.461 308.051C295.285 308.9 295.696 310.217 295.696 312.003C295.696 313.789 295.285 315.106 294.461 315.955C293.651 316.804 292.422 317.228 290.775 317.228ZM290.775 315.366C291.675 315.366 292.327 315.106 292.732 314.587C293.138 314.055 293.34 313.238 293.34 312.136V311.87C293.34 310.768 293.138 309.957 292.732 309.438C292.327 308.906 291.675 308.64 290.775 308.64C289.863 308.64 289.205 308.906 288.799 309.438C288.407 309.957 288.21 310.768 288.21 311.87V312.136C288.21 313.238 288.407 314.055 288.799 314.587C289.205 315.106 289.863 315.366 290.775 315.366ZM300.899 317.228C298.745 317.228 297.669 316.069 297.669 313.751V307.006H299.949V313.352C299.949 314.036 300.101 314.524 300.405 314.815C300.721 315.106 301.184 315.252 301.792 315.252C302.425 315.252 302.957 315.024 303.388 314.568C303.818 314.112 304.034 313.529 304.034 312.82V307.006H306.314V317H304.433L304.243 315.67H304.11C303.742 316.164 303.286 316.55 302.742 316.829C302.21 317.095 301.595 317.228 300.899 317.228ZM308.97 307.006H310.851L311.06 308.583H311.193C311.649 307.38 312.396 306.778 313.435 306.778C313.789 306.778 314.106 306.835 314.385 306.949V309.096H313.663C312.054 309.096 311.25 309.995 311.25 311.794V317H308.97V307.006ZM325.071 317.228C323.69 317.228 322.62 316.943 321.86 316.373C321.113 315.803 320.739 315.062 320.739 314.15C320.739 314.036 320.739 313.96 320.739 313.922C320.752 313.884 320.758 313.859 320.758 313.846H322.981V313.998C322.994 314.492 323.203 314.859 323.608 315.1C324.026 315.328 324.545 315.442 325.166 315.442C325.723 315.442 326.198 315.353 326.591 315.176C326.984 314.986 327.18 314.707 327.18 314.34C327.18 314.049 327.072 313.814 326.857 313.637C326.642 313.447 326.376 313.301 326.059 313.2C325.742 313.086 325.293 312.959 324.71 312.82C323.925 312.63 323.279 312.44 322.772 312.25C322.278 312.06 321.854 311.762 321.499 311.357C321.144 310.952 320.967 310.42 320.967 309.761C320.967 308.811 321.36 308.076 322.145 307.557C322.93 307.038 323.95 306.778 325.204 306.778C325.977 306.778 326.667 306.892 327.275 307.12C327.883 307.348 328.352 307.671 328.681 308.089C329.023 308.494 329.194 308.963 329.194 309.495L329.175 309.913H326.952V309.837C326.952 309.444 326.787 309.14 326.458 308.925C326.141 308.697 325.679 308.583 325.071 308.583C324.476 308.583 324.026 308.678 323.722 308.868C323.418 309.045 323.266 309.28 323.266 309.571C323.266 309.926 323.45 310.192 323.817 310.369C324.197 310.534 324.773 310.698 325.546 310.863C326.382 311.053 327.053 311.249 327.56 311.452C328.079 311.642 328.529 311.946 328.909 312.364C329.289 312.782 329.479 313.346 329.479 314.055C329.479 315.157 329.08 315.961 328.282 316.468C327.497 316.975 326.426 317.228 325.071 317.228ZM331.495 303.263H333.737V305.505H331.495V303.263ZM331.495 307.006H333.775V317H331.495V307.006ZM338.939 317.228C338.09 317.228 337.476 316.994 337.096 316.525C336.729 316.044 336.545 315.448 336.545 314.739V308.868H335.329V307.006H336.583L337.001 304.213H338.825V307.006H340.535V308.868H338.825V314.511C338.825 315.081 339.097 315.366 339.642 315.366H340.535V316.924C340.332 317 340.079 317.07 339.775 317.133C339.471 317.196 339.192 317.228 338.939 317.228ZM346.548 317.228C344.926 317.228 343.723 316.804 342.938 315.955C342.152 315.106 341.76 313.789 341.76 312.003C341.76 310.217 342.152 308.9 342.938 308.051C343.736 307.202 344.939 306.778 346.548 306.778C348.017 306.778 349.113 307.19 349.835 308.013C350.569 308.836 350.937 310.122 350.937 311.87V312.554H344.078C344.116 313.542 344.325 314.27 344.705 314.739C345.097 315.195 345.718 315.423 346.567 315.423C347.2 315.423 347.713 315.265 348.106 314.948C348.498 314.619 348.695 314.137 348.695 313.504H350.937C350.937 314.733 350.531 315.664 349.721 316.297C348.91 316.918 347.852 317.228 346.548 317.228ZM348.562 310.939C348.562 309.368 347.89 308.583 346.548 308.583C345.788 308.583 345.211 308.779 344.819 309.172C344.439 309.552 344.204 310.141 344.116 310.939H348.562Z" fill="black"/>
<path d="M275.06 329.688H276.332L277.22 332.964L277.592 334.548H277.64L277.976 332.964L278.756 329.688H280.16L280.976 332.976C281.048 333.232 281.164 333.756 281.324 334.548H281.384C281.552 333.804 281.672 333.28 281.744 332.976L282.608 329.688H283.808L281.912 336H280.592L279.74 332.46L279.452 331.14H279.404C279.292 331.748 279.2 332.188 279.128 332.46L278.276 336H276.944L275.06 329.688ZM283.931 329.688H285.203L286.091 332.964L286.463 334.548H286.511L286.847 332.964L287.627 329.688H289.031L289.847 332.976C289.919 333.232 290.035 333.756 290.195 334.548H290.255C290.423 333.804 290.543 333.28 290.615 332.976L291.479 329.688H292.679L290.783 336H289.463L288.611 332.46L288.323 331.14H288.275C288.163 331.748 288.071 332.188 287.999 332.46L287.147 336H285.815L283.931 329.688ZM292.802 329.688H294.074L294.962 332.964L295.334 334.548H295.382L295.718 332.964L296.498 329.688H297.902L298.718 332.976C298.79 333.232 298.906 333.756 299.066 334.548H299.126C299.294 333.804 299.414 333.28 299.486 332.976L300.35 329.688H301.55L299.654 336H298.334L297.482 332.46L297.194 331.14H297.146C297.034 331.748 296.942 332.188 296.87 332.46L296.018 336H294.686L292.802 329.688ZM302.047 334.596H303.379V336H302.047V334.596ZM305.891 338.184C305.499 338.184 305.191 338.144 304.967 338.064V337.248H305.495C306.223 337.248 306.711 336.832 306.959 336L304.511 329.688H305.807L306.983 332.784C307.143 333.192 307.347 333.82 307.595 334.668H307.655C307.879 333.868 308.063 333.24 308.207 332.784L309.191 329.688H310.427L308.339 335.676C308.051 336.476 307.727 337.092 307.367 337.524C307.007 337.964 306.515 338.184 305.891 338.184ZM313.998 336.144C312.998 336.144 312.246 335.876 311.742 335.34C311.246 334.796 310.998 333.964 310.998 332.844C310.998 331.724 311.246 330.896 311.742 330.36C312.246 329.816 312.998 329.544 313.998 329.544C314.998 329.544 315.75 329.816 316.254 330.36C316.758 330.896 317.01 331.724 317.01 332.844C317.01 333.964 316.758 334.796 316.254 335.34C315.75 335.876 314.998 336.144 313.998 336.144ZM313.998 335.124C314.606 335.124 315.046 334.948 315.318 334.596C315.598 334.236 315.738 333.672 315.738 332.904V332.784C315.738 332.016 315.598 331.456 315.318 331.104C315.046 330.744 314.606 330.564 313.998 330.564C313.398 330.564 312.958 330.744 312.678 331.104C312.406 331.456 312.27 332.016 312.27 332.784V332.904C312.27 333.672 312.406 334.236 312.678 334.596C312.958 334.948 313.398 335.124 313.998 335.124ZM320.229 336.144C318.893 336.144 318.225 335.42 318.225 333.972V329.688H319.461V333.816C319.461 334.288 319.565 334.62 319.773 334.812C319.989 334.996 320.301 335.088 320.709 335.088C320.989 335.088 321.249 335.02 321.489 334.884C321.729 334.74 321.917 334.54 322.053 334.284C322.197 334.028 322.269 333.732 322.269 333.396V329.688H323.505V336H322.509L322.389 335.16H322.305C322.073 335.48 321.781 335.724 321.429 335.892C321.077 336.06 320.677 336.144 320.229 336.144ZM325.14 329.688H326.136L326.256 330.66H326.328C326.616 329.916 327.1 329.544 327.78 329.544C328.004 329.544 328.2 329.576 328.368 329.64V330.816H327.924C327.452 330.816 327.076 330.952 326.796 331.224C326.516 331.496 326.376 331.912 326.376 332.472V336H325.14V329.688ZM331.448 336.144C330.648 336.144 330.032 335.876 329.6 335.34C329.168 334.796 328.952 333.964 328.952 332.844C328.952 331.74 329.168 330.916 329.6 330.372C330.032 329.82 330.62 329.544 331.364 329.544C332.236 329.544 332.872 329.832 333.272 330.408H333.344V327.324H334.58V336H333.596L333.476 335.16H333.392C333.192 335.48 332.92 335.724 332.576 335.892C332.24 336.06 331.864 336.144 331.448 336.144ZM331.796 335.1C332.332 335.1 332.724 334.916 332.972 334.548C333.22 334.18 333.344 333.636 333.344 332.916V332.82C333.344 331.332 332.828 330.588 331.796 330.588C331.228 330.588 330.824 330.76 330.584 331.104C330.344 331.44 330.224 332.008 330.224 332.808V332.916C330.224 333.7 330.344 334.26 330.584 334.596C330.824 334.932 331.228 335.1 331.796 335.1ZM338.83 336.144C337.83 336.144 337.078 335.876 336.574 335.34C336.078 334.796 335.83 333.964 335.83 332.844C335.83 331.724 336.078 330.896 336.574 330.36C337.078 329.816 337.83 329.544 338.83 329.544C339.83 329.544 340.582 329.816 341.086 330.36C341.59 330.896 341.842 331.724 341.842 332.844C341.842 333.964 341.59 334.796 341.086 335.34C340.582 335.876 339.83 336.144 338.83 336.144ZM338.83 335.124C339.438 335.124 339.878 334.948 340.15 334.596C340.43 334.236 340.57 333.672 340.57 332.904V332.784C340.57 332.016 340.43 331.456 340.15 331.104C339.878 330.744 339.438 330.564 338.83 330.564C338.23 330.564 337.79 330.744 337.51 331.104C337.238 331.456 337.102 332.016 337.102 332.784V332.904C337.102 333.672 337.238 334.236 337.51 334.596C337.79 334.948 338.23 335.124 338.83 335.124ZM343.093 329.688H344.089L344.209 330.528H344.293C344.509 330.208 344.773 329.964 345.085 329.796C345.397 329.628 345.753 329.544 346.153 329.544C346.969 329.544 347.517 329.872 347.797 330.528H347.869C348.085 330.216 348.361 329.976 348.697 329.808C349.033 329.632 349.401 329.544 349.801 329.544C350.393 329.544 350.857 329.704 351.193 330.024C351.529 330.336 351.697 330.844 351.697 331.548V336H350.461V331.788C350.461 331.356 350.365 331.052 350.173 330.876C349.989 330.692 349.729 330.6 349.393 330.6C349.001 330.6 348.673 330.756 348.409 331.068C348.145 331.38 348.013 331.788 348.013 332.292V336H346.777V331.788C346.777 331.356 346.685 331.052 346.501 330.876C346.325 330.692 346.069 330.6 345.733 330.6C345.341 330.6 345.009 330.756 344.737 331.068C344.465 331.38 344.329 331.788 344.329 332.292V336H343.093V329.688ZM354.921 336.144C354.401 336.144 353.929 336.016 353.505 335.76C353.089 335.504 352.881 335.04 352.881 334.368C352.881 333.56 353.233 333 353.937 332.688C354.641 332.376 355.649 332.22 356.961 332.22V331.596C356.961 331.252 356.869 330.992 356.685 330.816C356.509 330.632 356.177 330.54 355.689 330.54C355.217 330.54 354.881 330.624 354.681 330.792C354.489 330.96 354.393 331.164 354.393 331.404V331.56H353.193C353.185 331.512 353.181 331.424 353.181 331.296C353.181 330.744 353.413 330.316 353.877 330.012C354.341 329.7 354.961 329.544 355.737 329.544C356.553 329.544 357.165 329.712 357.573 330.048C357.989 330.384 358.197 330.86 358.197 331.476V334.704C358.197 334.848 358.237 334.956 358.317 335.028C358.397 335.092 358.497 335.124 358.617 335.124H359.049V335.952C358.841 336.056 358.557 336.108 358.197 336.108C357.909 336.108 357.665 336.032 357.465 335.88C357.273 335.72 357.145 335.504 357.081 335.232H356.997C356.773 335.52 356.485 335.744 356.133 335.904C355.789 336.064 355.385 336.144 354.921 336.144ZM355.281 335.136C355.753 335.136 356.149 334.996 356.469 334.716C356.797 334.428 356.961 334.036 356.961 333.54V333.156C356.049 333.156 355.353 333.236 354.873 333.396C354.393 333.548 354.153 333.84 354.153 334.272C354.153 334.568 354.245 334.788 354.429 334.932C354.621 335.068 354.905 335.136 355.281 335.136ZM359.957 327.324H361.181V328.584H359.957V327.324ZM359.957 329.688H361.193V336H359.957V329.688ZM362.828 329.688H363.824L363.944 330.528H364.028C364.252 330.208 364.54 329.964 364.892 329.796C365.252 329.628 365.656 329.544 366.104 329.544C367.44 329.544 368.108 330.268 368.108 331.716V336H366.872V331.872C366.872 331.4 366.764 331.072 366.548 330.888C366.34 330.696 366.032 330.6 365.624 330.6C365.344 330.6 365.084 330.672 364.844 330.816C364.604 330.952 364.412 331.148 364.268 331.404C364.132 331.66 364.064 331.956 364.064 332.292V336H362.828V329.688ZM369.911 334.596H371.243V336H369.911V334.596ZM375.518 336.144C374.542 336.144 373.822 335.876 373.358 335.34C372.894 334.804 372.662 333.972 372.662 332.844C372.662 331.716 372.894 330.884 373.358 330.348C373.83 329.812 374.55 329.544 375.518 329.544C376.374 329.544 377.014 329.756 377.438 330.18C377.87 330.596 378.086 331.216 378.086 332.04H376.838C376.838 331.528 376.734 331.152 376.526 330.912C376.326 330.672 375.986 330.552 375.506 330.552C374.962 330.552 374.562 330.732 374.306 331.092C374.058 331.452 373.934 332.028 373.934 332.82V332.904C373.934 333.688 374.058 334.256 374.306 334.608C374.562 334.96 374.97 335.136 375.53 335.136C376.002 335.136 376.346 335.012 376.562 334.764C376.786 334.508 376.898 334.136 376.898 333.648H378.086C378.086 334.4 377.87 335.004 377.438 335.46C377.006 335.916 376.366 336.144 375.518 336.144ZM381.862 336.144C380.862 336.144 380.11 335.876 379.606 335.34C379.11 334.796 378.862 333.964 378.862 332.844C378.862 331.724 379.11 330.896 379.606 330.36C380.11 329.816 380.862 329.544 381.862 329.544C382.862 329.544 383.614 329.816 384.118 330.36C384.622 330.896 384.874 331.724 384.874 332.844C384.874 333.964 384.622 334.796 384.118 335.34C383.614 335.876 382.862 336.144 381.862 336.144ZM381.862 335.124C382.47 335.124 382.91 334.948 383.182 334.596C383.462 334.236 383.602 333.672 383.602 332.904V332.784C383.602 332.016 383.462 331.456 383.182 331.104C382.91 330.744 382.47 330.564 381.862 330.564C381.262 330.564 380.822 330.744 380.542 331.104C380.27 331.456 380.134 332.016 380.134 332.784V332.904C380.134 333.672 380.27 334.236 380.542 334.596C380.822 334.948 381.262 335.124 381.862 335.124ZM386.125 329.688H387.121L387.241 330.528H387.325C387.541 330.208 387.805 329.964 388.117 329.796C388.429 329.628 388.785 329.544 389.185 329.544C390.001 329.544 390.549 329.872 390.829 330.528H390.901C391.117 330.216 391.393 329.976 391.729 329.808C392.065 329.632 392.433 329.544 392.833 329.544C393.425 329.544 393.889 329.704 394.225 330.024C394.561 330.336 394.729 330.844 394.729 331.548V336H393.493V331.788C393.493 331.356 393.397 331.052 393.205 330.876C393.021 330.692 392.761 330.6 392.425 330.6C392.033 330.6 391.705 330.756 391.441 331.068C391.177 331.38 391.045 331.788 391.045 332.292V336H389.809V331.788C389.809 331.356 389.717 331.052 389.533 330.876C389.357 330.692 389.101 330.6 388.765 330.6C388.373 330.6 388.041 330.756 387.769 331.068C387.497 331.38 387.361 331.788 387.361 332.292V336H386.125V329.688Z" fill="#AFAFC0"/>
</g>
<g filter="url(#filter1_d)">
<circle cx="500" cy="257" r="64" fill="white"/>
<path d="M500.925 261.355L485.75 305.429C490.237 306.749 494.987 307.54 500.002 307.54C505.808 307.54 511.482 306.485 516.76 304.637C516.628 304.373 516.496 304.241 516.364 303.977L500.925 261.355Z" fill="url(#paint6_linear)"/>
<path d="M449.59 257C449.59 276.926 461.202 294.212 477.961 302.394L453.944 236.414C451.173 242.748 449.59 249.61 449.59 257Z" fill="url(#paint7_linear)"/>
<path d="M534.05 254.493C534.05 248.291 531.807 243.936 529.96 240.637C527.452 236.546 524.945 232.983 524.945 228.761C524.945 224.142 528.508 219.788 533.391 219.788C533.655 219.788 533.786 219.788 534.05 219.788C525.077 211.606 513.069 206.592 500.005 206.592C482.323 206.592 466.883 215.697 457.91 229.289C459.098 229.289 460.153 229.289 461.209 229.289C466.487 229.289 474.669 228.629 474.669 228.629C477.44 228.497 477.704 232.456 474.933 232.72C474.933 232.72 472.162 232.983 469.127 233.247L487.469 288.01L498.553 254.889L490.636 233.379C487.865 233.247 485.358 232.851 485.358 232.851C482.586 232.72 482.982 228.497 485.621 228.761C485.621 228.761 493.935 229.421 498.949 229.421C504.228 229.421 512.409 228.761 512.409 228.761C515.18 228.629 515.444 232.588 512.673 232.851C512.673 232.851 509.902 233.115 506.867 233.379L525.077 287.614L530.092 270.856C532.335 263.73 534.05 258.715 534.05 254.493Z" fill="url(#paint8_linear)"/>
<path d="M544.202 232.852C544.466 234.435 544.598 236.151 544.598 237.998C544.598 243.144 543.674 248.819 540.771 256.076L525.332 300.546C540.375 291.837 550.404 275.606 550.404 257C550.404 248.159 548.161 239.977 544.202 232.852Z" fill="url(#paint9_linear)"/>
<path d="M500 193C464.635 193 436 221.635 436 257C436 292.365 464.635 321 500 321C535.365 321 564 292.365 564 257C564 221.635 535.365 193 500 193ZM500 313.082C469.122 313.082 443.918 287.878 443.918 257C443.918 226.122 469.122 200.918 500 200.918C530.878 200.918 556.082 226.122 556.082 257C556.082 287.878 530.878 313.082 500 313.082Z" fill="url(#paint10_linear)"/>
</g>
<defs>
<filter id="filter0_d" x="157" y="-7" width="534" height="499" filterUnits="userSpaceOnUse" color-interpolation-filters="sRGB">
<feFlood flood-opacity="0" result="BackgroundImageFix"/>
<feColorMatrix in="SourceAlpha" type="matrix" values="0 0 0 0 0 0 0 0 0 0 0 0 0 0 0 0 0 0 127 0"/>
<feMorphology radius="8" operator="erode" in="SourceAlpha" result="effect1_dropShadow"/>
<feOffset dy="24"/>
<feGaussianBlur stdDeviation="50"/>
<feColorMatrix type="matrix" values="0 0 0 0 0 0 0 0 0 0 0 0 0 0 0 0 0 0 0.1 0"/>
<feBlend mode="normal" in2="BackgroundImageFix" result="effect1_dropShadow"/>
<feBlend mode="normal" in="SourceGraphic" in2="effect1_dropShadow" result="shape"/>
</filter>
<filter id="filter1_d" x="376" y="183" width="248" height="248" filterUnits="userSpaceOnUse" color-interpolation-filters="sRGB">
<feFlood flood-opacity="0" result="BackgroundImageFix"/>
<feColorMatrix in="SourceAlpha" type="matrix" values="0 0 0 0 0 0 0 0 0 0 0 0 0 0 0 0 0 0 127 0"/>
<feOffset dy="50"/>
<feGaussianBlur stdDeviation="30"/>
<feColorMatrix type="matrix" values="0 0 0 0 0.152941 0 0 0 0 0.188235 0 0 0 0 0.305882 0 0 0 0.16 0"/>
<feBlend mode="normal" in2="BackgroundImageFix" result="effect1_dropShadow"/>
<feBlend mode="normal" in="SourceGraphic" in2="effect1_dropShadow" result="shape"/>
</filter>
<linearGradient id="paint0_linear" x1="142" y1="61" x2="378.626" y2="61.0032" gradientUnits="userSpaceOnUse">
<stop stop-color="#DBD6D8" stop-opacity="0.43"/>
<stop offset="1" stop-color="#DBD6D8" stop-opacity="0"/>
</linearGradient>
<linearGradient id="paint1_linear" x1="692.867" y1="320.081" x2="183.656" y2="317.798" gradientUnits="userSpaceOnUse">
<stop stop-color="white" stop-opacity="0"/>
<stop offset="1" stop-color="#AEB0C0" stop-opacity="0.58"/>
</linearGradient>
<linearGradient id="paint2_linear" x1="907.968" y1="408.128" x2="271.363" y2="408" gradientUnits="userSpaceOnUse">
<stop stop-color="#DBD6D8"/>
<stop offset="1" stop-color="#DBD6D8" stop-opacity="0"/>
</linearGradient>
<linearGradient id="paint3_linear" x1="591.813" y1="188" x2="696.276" y2="188.001" gradientUnits="userSpaceOnUse">
<stop stop-color="#DBD6D8" stop-opacity="0.43"/>
<stop offset="1" stop-color="#DBD6D8" stop-opacity="0"/>
</linearGradient>
<linearGradient id="paint4_linear" x1="462.351" y1="408.945" x2="555.377" y2="408.595" gradientUnits="userSpaceOnUse">
<stop stop-color="white"/>
<stop offset="1" stop-color="white"/>
</linearGradient>
<radialGradient id="paint5_radial" cx="0" cy="0" r="1" gradientUnits="userSpaceOnUse" gradientTransform="translate(334.868 319.317) rotate(-32.9906) scale(207.337 388.807)">
<stop stop-color="#1F2742"/>
<stop offset="1" stop-color="#2F395A"/>
</radialGradient>
<linearGradient id="paint6_linear" x1="546.4" y1="299.4" x2="206.053" y2="215.746" gradientUnits="userSpaceOnUse">
<stop stop-color="#1CC5DC"/>
<stop offset="1" stop-color="white" stop-opacity="0.8"/>
</linearGradient>
<linearGradient id="paint7_linear" x1="552.798" y1="298.6" x2="263.43" y2="343.325" gradientUnits="userSpaceOnUse">
<stop stop-color="#1CC5DC"/>
<stop offset="1" stop-color="white" stop-opacity="0.8"/>
</linearGradient>
<linearGradient id="paint8_linear" x1="548.002" y1="295.4" x2="248.089" y2="104.115" gradientUnits="userSpaceOnUse">
<stop stop-color="#1CC5DC"/>
<stop offset="1" stop-color="white" stop-opacity="0.8"/>
</linearGradient>
<linearGradient id="paint9_linear" x1="550.398" y1="300.2" x2="296.047" y2="366.816" gradientUnits="userSpaceOnUse">
<stop stop-color="#54D3E5"/>
<stop offset="1" stop-color="white" stop-opacity="0.8"/>
</linearGradient>
<linearGradient id="paint10_linear" x1="556.8" y1="297.8" x2="248.662" y2="74.435" gradientUnits="userSpaceOnUse">
<stop stop-color="#1CC5DC"/>
<stop offset="1" stop-color="white" stop-opacity="0.8"/>
</linearGradient>
<clipPath id="clip0">
<rect x="149" y="21" width="550" height="515" rx="8" fill="white"/>
</clipPath>
<clipPath id="clip1">
<rect width="29" height="7" fill="white" transform="translate(257.996 68)"/>
</clipPath>
</defs>
</svg>
