<svg width="460" height="498" viewBox="0 0 460 498" fill="none" xmlns="http://www.w3.org/2000/svg">
<rect opacity="0.5" y="290" width="299" height="122" rx="61" fill="url(#paint0_linear)"/>
<rect x="328" y="412" width="132" height="86" rx="43" fill="url(#paint1_linear)"/>
<path fill-rule="evenodd" clip-rule="evenodd" d="M324.367 105C324.367 140.346 295.713 169 260.367 169L85.0022 169C49.6559 169 21.0022 140.346 21.0021 105C21.0021 69.6538 49.6559 41 85.0021 41L260.367 41C295.713 41 324.367 69.6538 324.367 105Z" fill="url(#paint2_linear)"/>
<circle cx="257.996" cy="105" r="45" stroke="url(#paint3_linear)" stroke-width="2"/>
<mask id="mask0" mask-type="alpha" maskUnits="userSpaceOnUse" x="153" y="41" width="287" height="396">
<rect x="153" y="41" width="287" height="396" rx="4" fill="#2F3A5F"/>
</mask>
<g mask="url(#mask0)">
<rect x="153" y="41" width="287" height="396" fill="#202B43"/>
<rect x="176.914" y="41" width="291.425" height="83.1308" rx="38.1016" fill="url(#paint4_linear)"/>
<rect opacity="0.4" x="194.66" y="391.27" width="198.486" height="81.7297" rx="40.8649" fill="url(#paint5_linear)"/>
<rect x="201.199" y="111.054" width="106.015" height="56.9773" rx="28.4886" fill="url(#paint6_linear)"/>
<rect x="409.492" y="340.364" width="117.224" height="46.7027" rx="23.3514" fill="url(#paint7_linear)"/>
<rect opacity="0.4" x="408.559" y="405.748" width="98.5427" height="23.8184" rx="11.9092" fill="url(#paint8_linear)"/>
<rect x="202.602" y="400.611" width="98.5427" height="23.8184" rx="11.9092" fill="url(#paint9_linear)"/>
<rect opacity="0.6" x="67.6289" y="236.684" width="233.514" height="88.2681" rx="44.1341" fill="url(#paint10_linear)"/>
<path d="M227.762 373.465H143.762V441.091H227.762H311.762H395.762V288.091C395.762 288.091 372.444 323.522 319.487 323.522C266.531 323.522 266.882 373.465 227.762 373.465Z" fill="url(#paint11_linear)"/>
<path d="M143.762 373.771C143.762 373.771 188.641 373.771 227.762 373.771C266.882 373.771 266.531 323.649 319.487 323.649C364.762 323.649 379.762 304.921 395.762 288.091" stroke="#1AC3DA" stroke-width="1.5"/>
<g filter="url(#filter0_d)">
<ellipse cx="394.851" cy="288.529" rx="12.0895" ry="12.1125" fill="white"/>
<path d="M406.441 288.529C406.441 294.943 401.251 300.141 394.851 300.141C388.451 300.141 383.262 294.943 383.262 288.529C383.262 282.114 388.451 276.916 394.851 276.916C401.251 276.916 406.441 282.114 406.441 288.529Z" stroke="#B0E3EB"/>
</g>
<ellipse cx="394.852" cy="288.529" rx="4.45404" ry="4.4625" fill="#1AC3DA"/>
</g>
<g filter="url(#filter1_d)">
<circle cx="153" cy="74" r="64" fill="white"/>
<path d="M153.925 78.3547L138.75 122.429C143.237 123.748 147.987 124.54 153.002 124.54C158.808 124.54 164.482 123.485 169.76 121.637C169.628 121.373 169.496 121.241 169.364 120.977L153.925 78.3547Z" fill="url(#paint12_linear)"/>
<path d="M102.59 73.9999C102.59 93.9257 114.202 111.212 130.961 119.394L106.944 53.4143C104.173 59.7484 102.59 66.6102 102.59 73.9999Z" fill="url(#paint13_linear)"/>
<path d="M187.05 71.4927C187.05 65.2907 184.807 60.936 182.96 57.637C180.452 53.5463 177.945 49.9834 177.945 45.7608C177.945 41.1422 181.508 36.7876 186.391 36.7876C186.654 36.7876 186.786 36.7876 187.05 36.7876C178.077 28.6061 166.069 23.5917 153.005 23.5917C135.323 23.5917 119.883 32.6968 110.91 46.2886C112.098 46.2886 113.153 46.2886 114.209 46.2886C119.487 46.2886 127.669 45.6288 127.669 45.6288C130.44 45.4968 130.704 49.4556 127.933 49.7195C127.933 49.7195 125.162 49.9834 122.127 50.2474L140.469 105.01L151.553 71.8886L143.636 50.3793C140.865 50.2474 138.358 49.8515 138.358 49.8515C135.586 49.7195 135.982 45.4968 138.621 45.7608C138.621 45.7608 146.935 46.4205 151.949 46.4205C157.228 46.4205 165.409 45.7608 165.409 45.7608C168.18 45.6288 168.444 49.5876 165.673 49.8515C165.673 49.8515 162.902 50.1154 159.867 50.3793L178.077 104.614L183.092 87.8556C185.335 80.7298 187.05 75.7154 187.05 71.4927Z" fill="url(#paint14_linear)"/>
<path d="M197.202 49.8516C197.466 51.4351 197.598 53.1505 197.598 54.998C197.598 60.1443 196.674 65.8186 193.771 73.0763L178.332 117.546C193.375 108.837 203.404 92.6062 203.404 74C203.404 65.1588 201.161 56.9773 197.202 49.8516Z" fill="url(#paint15_linear)"/>
<path d="M153 10C117.635 10 89 38.6351 89 74C89 109.365 117.635 138 153 138C188.365 138 217 109.365 217 74C217 38.6351 188.365 10 153 10ZM153 130.082C122.122 130.082 96.9175 104.878 96.9175 74C96.9175 43.1217 122.122 17.9175 153 17.9175C183.878 17.9175 209.082 43.1217 209.082 74C209.082 104.878 183.878 130.082 153 130.082Z" fill="url(#paint16_linear)"/>
</g>
<path d="M216.683 179.32H222.383L222.113 178.42C221.433 176.26 220.873 174.45 220.433 172.99C220.013 171.51 219.753 170.58 219.653 170.2L219.533 169.6C219.353 170.6 218.493 173.55 216.953 178.45L216.683 179.32ZM224.783 187L223.343 182.41H215.693L214.253 187H210.293L217.133 166.78H222.023L228.863 187H224.783ZM250.459 167.62V171.28C248.959 170.38 247.359 169.93 245.659 169.93C244.719 169.93 243.979 170.14 243.439 170.56C242.919 170.98 242.659 171.52 242.659 172.18C242.659 172.84 242.939 173.39 243.499 173.83C244.079 174.25 244.939 174.72 246.079 175.24C246.879 175.6 247.529 175.92 248.029 176.2C248.529 176.46 249.069 176.83 249.649 177.31C250.249 177.79 250.689 178.37 250.969 179.05C251.269 179.71 251.419 180.47 251.419 181.33C251.419 183.13 250.769 184.57 249.469 185.65C248.189 186.71 246.499 187.24 244.399 187.24C242.119 187.24 240.229 186.81 238.729 185.95V182.08C240.449 183.32 242.329 183.94 244.369 183.94C245.289 183.94 246.029 183.72 246.589 183.28C247.149 182.82 247.429 182.21 247.429 181.45C247.429 181.09 247.359 180.77 247.219 180.49C247.079 180.21 246.789 179.93 246.349 179.65C245.929 179.37 245.599 179.17 245.359 179.05C245.139 178.93 244.669 178.71 243.949 178.39C243.749 178.29 243.599 178.22 243.499 178.18C242.759 177.84 242.159 177.54 241.699 177.28C241.239 177 240.739 176.63 240.199 176.17C239.659 175.71 239.249 175.16 238.969 174.52C238.709 173.88 238.579 173.15 238.579 172.33C238.579 170.61 239.209 169.23 240.469 168.19C241.749 167.15 243.439 166.63 245.539 166.63C247.439 166.63 249.079 166.96 250.459 167.62ZM258.967 174.49V182.23C258.967 182.87 259.137 183.36 259.477 183.7C259.817 184.02 260.287 184.18 260.887 184.18C261.647 184.18 262.347 183.97 262.987 183.55V186.64C262.287 186.98 261.387 187.15 260.287 187.15C257.007 187.15 255.367 185.49 255.367 182.17V174.49H253.087V171.79H255.367V168.13H258.967V171.79H262.747V174.49H258.967ZM273.724 180.46H271.864C270.924 180.46 270.204 180.66 269.704 181.06C269.204 181.44 268.954 181.93 268.954 182.53C268.954 183.81 269.694 184.45 271.174 184.45C271.974 184.45 272.594 184.22 273.034 183.76C273.494 183.28 273.724 182.66 273.724 181.9V180.46ZM266.344 175.9V172.57C267.484 171.87 269.124 171.52 271.264 171.52C275.384 171.52 277.444 173.44 277.444 177.28V187H273.874V185.17C273.174 186.47 271.854 187.12 269.914 187.12C268.474 187.12 267.324 186.7 266.464 185.86C265.624 185.02 265.204 183.96 265.204 182.68C265.204 181.24 265.744 180.11 266.824 179.29C267.904 178.47 269.464 178.06 271.504 178.06H273.724V177.13C273.724 176.29 273.504 175.65 273.064 175.21C272.624 174.77 271.874 174.55 270.814 174.55C269.194 174.55 267.704 175 266.344 175.9ZM285.539 174.49V182.23C285.539 182.87 285.709 183.36 286.049 183.7C286.389 184.02 286.859 184.18 287.459 184.18C288.219 184.18 288.919 183.97 289.559 183.55V186.64C288.859 186.98 287.959 187.15 286.859 187.15C283.579 187.15 281.939 185.49 281.939 182.17V174.49H279.659V171.79H281.939V168.13H285.539V171.79H289.319V174.49H285.539ZM292.676 187V171.79H296.276V187H292.676ZM292.316 167.23C292.316 166.63 292.526 166.12 292.946 165.7C293.366 165.28 293.876 165.07 294.476 165.07C295.076 165.07 295.586 165.28 296.006 165.7C296.426 166.12 296.636 166.63 296.636 167.23C296.636 167.85 296.426 168.37 296.006 168.79C295.586 169.21 295.076 169.42 294.476 169.42C293.876 169.42 293.366 169.21 292.946 168.79C292.526 168.37 292.316 167.85 292.316 167.23ZM303.199 179.44C303.239 180.88 303.669 182.04 304.489 182.92C305.329 183.8 306.459 184.24 307.879 184.24C309.119 184.24 310.269 183.9 311.329 183.22V186.34C310.269 186.96 308.949 187.27 307.369 187.27C305.029 187.27 303.129 186.53 301.669 185.05C300.229 183.57 299.509 181.7 299.509 179.44C299.529 177.22 300.249 175.35 301.669 173.83C303.109 172.31 305.069 171.55 307.549 171.55C309.029 171.55 310.289 171.83 311.329 172.39V175.57C310.329 174.93 309.189 174.61 307.909 174.61C306.509 174.61 305.379 175.05 304.519 175.93C303.659 176.81 303.219 177.98 303.199 179.44ZM313.961 180.58V177.55H321.581V180.58H313.961ZM336.987 169.87H328.947V175.84H335.967V178.93H328.947V187H325.137V166.78H336.987V169.87ZM340.108 187V171.79H343.708V187H340.108ZM339.748 167.23C339.748 166.63 339.958 166.12 340.378 165.7C340.798 165.28 341.308 165.07 341.908 165.07C342.508 165.07 343.018 165.28 343.438 165.7C343.858 166.12 344.068 166.63 344.068 167.23C344.068 167.85 343.858 168.37 343.438 168.79C343.018 169.21 342.508 169.42 341.908 169.42C341.308 169.42 340.798 169.21 340.378 168.79C339.958 168.37 339.748 167.85 339.748 167.23ZM351.351 171.79V174.49C352.051 172.61 353.331 171.67 355.191 171.67C355.611 171.67 355.951 171.7 356.211 171.76V175.24C355.751 175.04 355.241 174.94 354.681 174.94C353.701 174.94 352.901 175.34 352.281 176.14C351.661 176.94 351.351 177.94 351.351 179.14V187H347.721L347.751 171.79H351.351ZM367.417 172.27V175.45C366.417 174.85 365.167 174.55 363.667 174.55C363.047 174.55 362.557 174.69 362.197 174.97C361.857 175.23 361.687 175.57 361.687 175.99C361.687 176.15 361.707 176.3 361.747 176.44C361.807 176.58 361.897 176.72 362.017 176.86C362.157 176.98 362.287 177.09 362.407 177.19C362.527 177.29 362.697 177.4 362.917 177.52C363.137 177.62 363.327 177.71 363.487 177.79C363.647 177.87 363.867 177.97 364.147 178.09C364.427 178.21 364.647 178.31 364.807 178.39C365.867 178.91 366.707 179.49 367.327 180.13C367.947 180.77 368.257 181.6 368.257 182.62C368.257 184.04 367.747 185.15 366.727 185.95C365.707 186.75 364.347 187.15 362.647 187.15C360.767 187.15 359.247 186.84 358.087 186.22V182.92C359.427 183.82 360.877 184.27 362.437 184.27C363.097 184.27 363.607 184.15 363.967 183.91C364.347 183.65 364.537 183.3 364.537 182.86C364.537 182.6 364.477 182.37 364.357 182.17C364.237 181.95 364.007 181.74 363.667 181.54C363.327 181.34 363.057 181.2 362.857 181.12C362.677 181.02 362.307 180.85 361.747 180.61C361.687 180.59 361.637 180.57 361.597 180.55C361.577 180.53 361.537 180.51 361.477 180.49C361.417 180.47 361.367 180.45 361.327 180.43C359.107 179.43 357.997 177.99 357.997 176.11C357.997 174.71 358.527 173.61 359.587 172.81C360.647 172.01 361.977 171.61 363.577 171.61C365.117 171.61 366.397 171.83 367.417 172.27ZM375.51 174.49V182.23C375.51 182.87 375.68 183.36 376.02 183.7C376.36 184.02 376.83 184.18 377.43 184.18C378.19 184.18 378.89 183.97 379.53 183.55V186.64C378.83 186.98 377.93 187.15 376.83 187.15C373.55 187.15 371.91 185.49 371.91 182.17V174.49H369.63V171.79H371.91V168.13H375.51V171.79H379.29V174.49H375.51ZM256.39 211.21V220.93H256.36L256.39 221.26C254.55 222.58 252.25 223.24 249.49 223.24C246.29 223.24 243.7 222.31 241.72 220.45C239.76 218.59 238.78 216.06 238.78 212.86C238.78 209.74 239.79 207.22 241.81 205.3C243.85 203.38 246.42 202.42 249.52 202.42C251.82 202.42 253.79 202.85 255.43 203.71V207.58C253.59 206.48 251.64 205.93 249.58 205.93C247.56 205.93 245.93 206.56 244.69 207.82C243.45 209.08 242.83 210.76 242.83 212.86C242.83 215 243.43 216.69 244.63 217.93C245.85 219.15 247.52 219.76 249.64 219.76C250.68 219.76 251.69 219.58 252.67 219.22V214.45H248.95V211.21H256.39ZM269.661 207.79H273.291V223H269.661V220.51C268.861 222.27 267.301 223.15 264.981 223.15C263.441 223.15 262.241 222.71 261.381 221.83C260.521 220.95 260.091 219.7 260.091 218.08V207.79H263.691V217.24C263.691 218.2 263.921 218.93 264.381 219.43C264.861 219.93 265.511 220.18 266.331 220.18C267.371 220.18 268.181 219.83 268.761 219.13C269.361 218.43 269.661 217.37 269.661 215.95V207.79ZM277.354 223V207.79H280.954V223H277.354ZM276.994 203.23C276.994 202.63 277.204 202.12 277.624 201.7C278.044 201.28 278.554 201.07 279.154 201.07C279.754 201.07 280.264 201.28 280.684 201.7C281.104 202.12 281.314 202.63 281.314 203.23C281.314 203.85 281.104 204.37 280.684 204.79C280.264 205.21 279.754 205.42 279.154 205.42C278.554 205.42 278.044 205.21 277.624 204.79C277.204 204.37 276.994 203.85 276.994 203.23ZM291.537 220.12C292.617 220.12 293.517 219.71 294.237 218.89C294.957 218.05 295.317 216.84 295.317 215.26C295.317 213.72 294.937 212.57 294.177 211.81C293.417 211.03 292.547 210.64 291.567 210.64C290.527 210.64 289.647 211.07 288.927 211.93C288.227 212.77 287.877 213.95 287.877 215.47C287.877 216.85 288.227 217.97 288.927 218.83C289.627 219.69 290.497 220.12 291.537 220.12ZM295.317 201.79H298.917V223H295.317V220.63C294.277 222.35 292.737 223.21 290.697 223.21C288.697 223.21 287.107 222.45 285.927 220.93C284.767 219.41 284.187 217.57 284.187 215.41C284.187 213.01 284.797 211.11 286.017 209.71C287.257 208.29 288.837 207.58 290.757 207.58C292.737 207.58 294.257 208.43 295.317 210.13V201.79ZM311.959 214.15V213.7C311.919 212.72 311.649 211.94 311.149 211.36C310.669 210.76 309.959 210.46 309.019 210.46C308.159 210.46 307.409 210.78 306.769 211.42C306.149 212.04 305.749 212.95 305.569 214.15H311.959ZM314.419 219.04V222.16C313.359 222.82 311.829 223.15 309.829 223.15C307.409 223.15 305.499 222.43 304.099 220.99C302.699 219.55 301.999 217.69 301.999 215.41C301.999 212.99 302.659 211.09 303.979 209.71C305.299 208.33 306.949 207.64 308.929 207.64C310.909 207.64 312.479 208.24 313.639 209.44C314.799 210.64 315.379 212.39 315.379 214.69C315.379 215.25 315.309 215.97 315.169 216.85H305.629C305.889 217.95 306.429 218.79 307.249 219.37C308.089 219.95 309.129 220.24 310.369 220.24C311.969 220.24 313.319 219.84 314.419 219.04ZM330.51 210.49V218.23C330.51 218.87 330.68 219.36 331.02 219.7C331.36 220.02 331.83 220.18 332.43 220.18C333.19 220.18 333.89 219.97 334.53 219.55V222.64C333.83 222.98 332.93 223.15 331.83 223.15C328.55 223.15 326.91 221.49 326.91 218.17V210.49H324.63V207.79H326.91V204.13H330.51V207.79H334.29V210.49H330.51ZM344.007 223.24C341.707 223.24 339.907 222.52 338.607 221.08C337.327 219.64 336.687 217.8 336.687 215.56C336.687 213.24 337.357 211.33 338.697 209.83C340.037 208.31 341.807 207.55 344.007 207.55C346.347 207.55 348.157 208.29 349.437 209.77C350.717 211.23 351.357 213.09 351.357 215.35C351.357 217.65 350.707 219.54 349.407 221.02C348.127 222.5 346.327 223.24 344.007 223.24ZM344.007 210.49C342.867 210.49 341.987 210.96 341.367 211.9C340.767 212.84 340.467 214.02 340.467 215.44C340.467 216.84 340.777 218.01 341.397 218.95C342.017 219.89 342.897 220.36 344.037 220.36C345.217 220.36 346.107 219.9 346.707 218.98C347.307 218.06 347.607 216.89 347.607 215.47C347.607 214.01 347.317 212.82 346.737 211.9C346.157 210.96 345.247 210.49 344.007 210.49Z" fill="white"/>
<path d="M236.519 239.08H239.579L241.649 246.25L244.049 254.95C244.549 252.17 245.169 249.26 245.909 246.22L247.739 238.78H251.579L246.419 259H242.039L240.209 252.61C239.709 250.91 239.279 249.41 238.919 248.11C238.579 246.81 238.349 245.94 238.229 245.5L238.079 244.81C237.799 246.21 237.099 248.81 235.979 252.61L234.089 259H229.739L224.339 238.78H228.329L230.219 246.25C230.539 247.59 230.859 248.98 231.179 250.42C231.499 251.86 231.739 252.96 231.899 253.72L232.139 254.89C232.779 252.37 233.559 249.49 234.479 246.25L236.519 239.08ZM260.789 259.24C258.489 259.24 256.689 258.52 255.389 257.08C254.109 255.64 253.469 253.8 253.469 251.56C253.469 249.24 254.139 247.33 255.479 245.83C256.819 244.31 258.589 243.55 260.789 243.55C263.129 243.55 264.939 244.29 266.219 245.77C267.499 247.23 268.139 249.09 268.139 251.35C268.139 253.65 267.489 255.54 266.189 257.02C264.909 258.5 263.109 259.24 260.789 259.24ZM260.789 246.49C259.649 246.49 258.769 246.96 258.149 247.9C257.549 248.84 257.249 250.02 257.249 251.44C257.249 252.84 257.559 254.01 258.179 254.95C258.799 255.89 259.679 256.36 260.819 256.36C261.999 256.36 262.889 255.9 263.489 254.98C264.089 254.06 264.389 252.89 264.389 251.47C264.389 250.01 264.099 248.82 263.519 247.9C262.939 246.96 262.029 246.49 260.789 246.49ZM274.842 243.79V246.49C275.542 244.61 276.822 243.67 278.682 243.67C279.102 243.67 279.442 243.7 279.702 243.76V247.24C279.242 247.04 278.732 246.94 278.172 246.94C277.192 246.94 276.392 247.34 275.772 248.14C275.152 248.94 274.842 249.94 274.842 251.14V259H271.212L271.242 243.79H274.842ZM288.358 256.12C289.438 256.12 290.338 255.71 291.058 254.89C291.778 254.05 292.138 252.84 292.138 251.26C292.138 249.72 291.758 248.57 290.998 247.81C290.238 247.03 289.368 246.64 288.388 246.64C287.348 246.64 286.468 247.07 285.748 247.93C285.048 248.77 284.698 249.95 284.698 251.47C284.698 252.85 285.048 253.97 285.748 254.83C286.448 255.69 287.318 256.12 288.358 256.12ZM292.138 237.79H295.738V259H292.138V256.63C291.098 258.35 289.558 259.21 287.518 259.21C285.518 259.21 283.928 258.45 282.748 256.93C281.588 255.41 281.008 253.57 281.008 251.41C281.008 249.01 281.618 247.11 282.838 245.71C284.078 244.29 285.658 243.58 287.578 243.58C289.558 243.58 291.078 244.43 292.138 246.13V237.79ZM303.561 249.07H305.691C307.071 249.07 308.101 248.74 308.781 248.08C309.461 247.42 309.801 246.53 309.801 245.41C309.801 244.31 309.461 243.45 308.781 242.83C308.101 242.19 307.101 241.87 305.781 241.87H303.561V249.07ZM299.781 238.78H306.111C308.391 238.78 310.211 239.4 311.571 240.64C312.951 241.88 313.641 243.47 313.641 245.41C313.641 247.47 312.931 249.11 311.511 250.33C310.111 251.53 308.341 252.13 306.201 252.13H303.561V259H299.781V238.78ZM319.901 243.79V246.49C320.601 244.61 321.881 243.67 323.741 243.67C324.161 243.67 324.501 243.7 324.761 243.76V247.24C324.301 247.04 323.791 246.94 323.231 246.94C322.251 246.94 321.451 247.34 320.831 248.14C320.211 248.94 319.901 249.94 319.901 251.14V259H316.271L316.301 243.79H319.901ZM336.027 250.15V249.7C335.987 248.72 335.717 247.94 335.217 247.36C334.737 246.76 334.027 246.46 333.087 246.46C332.227 246.46 331.477 246.78 330.837 247.42C330.217 248.04 329.817 248.95 329.637 250.15H336.027ZM338.487 255.04V258.16C337.427 258.82 335.897 259.15 333.897 259.15C331.477 259.15 329.567 258.43 328.167 256.99C326.767 255.55 326.067 253.69 326.067 251.41C326.067 248.99 326.727 247.09 328.047 245.71C329.367 244.33 331.017 243.64 332.997 243.64C334.977 243.64 336.547 244.24 337.707 245.44C338.867 246.64 339.447 248.39 339.447 250.69C339.447 251.25 339.377 251.97 339.237 252.85H329.697C329.957 253.95 330.497 254.79 331.317 255.37C332.157 255.95 333.197 256.24 334.437 256.24C336.037 256.24 337.387 255.84 338.487 255.04ZM351.846 244.27V247.45C350.846 246.85 349.596 246.55 348.096 246.55C347.476 246.55 346.986 246.69 346.626 246.97C346.286 247.23 346.116 247.57 346.116 247.99C346.116 248.15 346.136 248.3 346.176 248.44C346.236 248.58 346.326 248.72 346.446 248.86C346.586 248.98 346.716 249.09 346.836 249.19C346.956 249.29 347.126 249.4 347.346 249.52C347.566 249.62 347.756 249.71 347.916 249.79C348.076 249.87 348.296 249.97 348.576 250.09C348.856 250.21 349.076 250.31 349.236 250.39C350.296 250.91 351.136 251.49 351.756 252.13C352.376 252.77 352.686 253.6 352.686 254.62C352.686 256.04 352.176 257.15 351.156 257.95C350.136 258.75 348.776 259.15 347.076 259.15C345.196 259.15 343.676 258.84 342.516 258.22V254.92C343.856 255.82 345.306 256.27 346.866 256.27C347.526 256.27 348.036 256.15 348.396 255.91C348.776 255.65 348.966 255.3 348.966 254.86C348.966 254.6 348.906 254.37 348.786 254.17C348.666 253.95 348.436 253.74 348.096 253.54C347.756 253.34 347.486 253.2 347.286 253.12C347.106 253.02 346.736 252.85 346.176 252.61C346.116 252.59 346.066 252.57 346.026 252.55C346.006 252.53 345.966 252.51 345.906 252.49C345.846 252.47 345.796 252.45 345.756 252.43C343.536 251.43 342.426 249.99 342.426 248.11C342.426 246.71 342.956 245.61 344.016 244.81C345.076 244.01 346.406 243.61 348.006 243.61C349.546 243.61 350.826 243.83 351.846 244.27ZM364.648 244.27V247.45C363.648 246.85 362.398 246.55 360.898 246.55C360.278 246.55 359.788 246.69 359.428 246.97C359.088 247.23 358.918 247.57 358.918 247.99C358.918 248.15 358.938 248.3 358.978 248.44C359.038 248.58 359.128 248.72 359.248 248.86C359.388 248.98 359.518 249.09 359.638 249.19C359.758 249.29 359.928 249.4 360.148 249.52C360.368 249.62 360.558 249.71 360.718 249.79C360.878 249.87 361.098 249.97 361.378 250.09C361.658 250.21 361.878 250.31 362.038 250.39C363.098 250.91 363.938 251.49 364.558 252.13C365.178 252.77 365.488 253.6 365.488 254.62C365.488 256.04 364.978 257.15 363.958 257.95C362.938 258.75 361.578 259.15 359.878 259.15C357.998 259.15 356.478 258.84 355.318 258.22V254.92C356.658 255.82 358.108 256.27 359.668 256.27C360.328 256.27 360.838 256.15 361.198 255.91C361.578 255.65 361.768 255.3 361.768 254.86C361.768 254.6 361.708 254.37 361.588 254.17C361.468 253.95 361.238 253.74 360.898 253.54C360.558 253.34 360.288 253.2 360.088 253.12C359.908 253.02 359.538 252.85 358.978 252.61C358.918 252.59 358.868 252.57 358.828 252.55C358.808 252.53 358.768 252.51 358.708 252.49C358.648 252.47 358.598 252.45 358.558 252.43C356.338 251.43 355.228 249.99 355.228 248.11C355.228 246.71 355.758 245.61 356.818 244.81C357.878 244.01 359.208 243.61 360.808 243.61C362.348 243.61 363.628 243.83 364.648 244.27Z" fill="url(#paint17_linear)"/>
<g clip-path="url(#clip0)">
<path d="M311.228 76.1774C310.55 76.1774 310 75.6375 310 74.9725C310 74.3077 310.55 73.7677 311.228 73.7677H325.73C326.407 73.7677 326.957 74.3077 326.957 74.9725C326.957 75.6375 326.407 76.1774 325.73 76.1774H311.228ZM324.89 85.957C325.382 85.5026 326.158 85.5253 326.621 86.0082C327.084 86.4912 327.061 87.2519 326.568 87.7062C325.435 88.7507 324.153 89.5827 322.771 90.1481C321.42 90.7003 319.974 90.9999 318.479 90.9999C316.983 90.9999 315.538 90.7003 314.186 90.1481C312.805 89.5827 311.523 88.7507 310.389 87.7062C309.897 87.2519 309.874 86.4912 310.337 86.0082C310.8 85.5253 311.575 85.5026 312.067 85.957C312.986 86.8042 314.019 87.4757 315.126 87.9283C316.176 88.3572 317.304 88.5905 318.479 88.5905C319.653 88.5905 320.781 88.3572 321.831 87.9283C322.938 87.4758 323.971 86.8042 324.89 85.957ZM325.211 79.8145C325.822 79.5337 326.551 79.7936 326.837 80.3933C327.123 80.9926 326.859 81.7079 326.248 81.9887C325.133 82.502 323.885 82.9091 322.55 83.1813C321.259 83.4451 319.887 83.5883 318.479 83.5883C317.07 83.5883 315.698 83.4451 314.408 83.1813C313.073 82.909 311.823 82.501 310.71 81.9887C310.099 81.7079 309.834 80.9926 310.12 80.3933C310.406 79.7936 311.135 79.5337 311.746 79.8145C312.686 80.2472 313.752 80.5934 314.906 80.8286C316.016 81.0553 317.219 81.1787 318.479 81.1787C319.738 81.1787 320.941 81.0553 322.051 80.8286C323.205 80.5933 324.272 80.2461 325.211 79.8145Z" fill="#FB4247"/>
<path d="M343.786 79.587C343.268 79.2784 342.698 79.032 342.077 78.847C341.457 78.6621 340.863 78.5693 340.298 78.5693C339.638 78.5693 339.107 78.6886 338.707 78.9279C338.306 79.1669 338.106 79.5332 338.106 80.0265C338.106 80.52 338.329 80.894 338.777 81.1482C339.225 81.403 339.905 81.6611 340.816 81.9234C341.681 82.1701 342.388 82.4169 342.938 82.6634C343.488 82.9101 343.955 83.2723 344.34 83.7506C344.725 84.2287 344.918 84.8608 344.918 85.6472C344.918 86.8037 344.474 87.6828 343.586 88.284C342.698 88.8855 341.594 89.1863 340.274 89.1863C339.347 89.1863 338.447 89.0398 337.575 88.7466C336.703 88.4538 335.968 88.0375 335.371 87.4976L336.196 85.9248C336.715 86.3874 337.355 86.7576 338.117 87.0349C338.879 87.3126 339.622 87.4515 340.345 87.4515C341.068 87.4515 341.649 87.3203 342.089 87.0581C342.529 86.7959 342.749 86.3951 342.749 85.8554C342.749 85.3001 342.517 84.8839 342.054 84.6062C341.59 84.3288 340.887 84.0511 339.944 83.7737C339.111 83.5421 338.432 83.307 337.905 83.0682C337.379 82.8291 336.931 82.4784 336.561 82.0158C336.192 81.5532 336.007 80.952 336.007 80.2114C336.007 79.0703 336.432 78.2146 337.28 77.6441C338.129 77.0735 339.19 76.7882 340.462 76.7882C341.217 76.7882 341.959 76.8922 342.69 77.1003C343.421 77.3084 344.053 77.5903 344.588 77.9447L343.786 79.587ZM358.59 79.5175C358.998 78.6386 359.58 77.9717 360.334 77.5166C361.088 77.062 361.984 76.8268 363.021 76.8113V78.8931C361.748 78.8471 360.719 79.1706 359.933 79.8645C359.148 80.5585 358.7 81.4915 358.59 82.6634V89.1168H356.398V76.8807H358.59V79.5175H358.59ZM398.427 76.8807H400.619V89.1168H398.427V76.8807ZM399.511 72C399.904 72 400.23 72.1314 400.49 72.3936C400.749 72.6555 400.879 72.987 400.879 73.3878C400.879 73.7889 400.749 74.1207 400.49 74.3826C400.23 74.6448 399.904 74.7757 399.511 74.7757C399.119 74.7757 398.792 74.6448 398.533 74.3826C398.274 74.1206 398.144 73.7888 398.144 73.3878C398.144 72.987 398.274 72.6555 398.533 72.3936C398.792 72.1314 399.118 72 399.511 72ZM413.631 80.1421C412.641 79.2015 411.455 78.7314 410.072 78.7314C409.255 78.7314 408.528 78.9086 407.891 79.2633C407.255 79.6181 406.756 80.1193 406.394 80.7666C406.033 81.4144 405.852 82.1622 405.852 83.0104C405.852 83.8583 406.029 84.6064 406.383 85.2543C406.736 85.9018 407.224 86.4069 407.844 86.7691C408.465 87.1318 409.176 87.3129 409.978 87.3129C410.779 87.3129 411.502 87.1818 412.146 86.9198C412.791 86.6574 413.325 86.2797 413.749 85.7861L414.998 87.0351C414.433 87.729 413.714 88.2609 412.842 88.631C411.969 89.0014 410.983 89.1863 409.883 89.1863C408.673 89.1863 407.597 88.9239 406.654 88.3997C405.711 87.8756 404.976 87.1468 404.45 86.2138C403.923 85.2809 403.66 84.2132 403.66 83.0102C403.66 81.8073 403.923 80.7358 404.45 79.7951C404.976 78.8544 405.711 78.1221 406.654 77.5977C407.597 77.0735 408.673 76.8113 409.883 76.8113C410.936 76.8113 411.883 76.9695 412.724 77.2856C413.564 77.6016 414.268 78.0604 414.833 78.6621L413.631 80.1421ZM353.734 88.3076C352.775 88.9087 351.817 89.2096 350.858 89.2096C349.852 89.2096 349.039 88.8701 348.418 88.1916C347.798 87.5131 347.487 86.5341 347.487 85.2542V74.0125H349.68V77.2971H353.522V78.9395H349.68V84.8608C349.68 86.4338 350.198 87.22 351.235 87.22C351.817 87.22 352.453 87.0277 353.145 86.642L353.734 88.3076ZM377 76.8807V89.1168H374.808V86.7344C374.336 87.5361 373.708 88.153 372.922 88.5849C372.136 89.0166 371.217 89.2324 370.164 89.2324C368.985 89.2324 367.944 88.9666 367.04 88.4345C366.137 87.9025 365.434 87.1626 364.931 86.2138C364.428 85.2657 364.176 84.1823 364.176 82.9642C364.176 81.7612 364.428 80.6934 364.931 79.7604C365.434 78.8274 366.141 78.099 367.052 77.5745C367.964 77.0503 369.001 76.7882 370.164 76.7882C371.217 76.7882 372.136 77.0004 372.922 77.4243C373.708 77.8483 374.336 78.4613 374.808 79.2633V76.8807H377ZM370.612 87.382C371.775 87.382 372.737 87.0237 373.499 86.3066C374.261 85.5895 374.697 84.6526 374.808 83.4961V82.5709C374.697 81.4143 374.261 80.4739 373.499 79.749C372.737 79.0243 371.775 78.6621 370.612 78.6621C369.795 78.6621 369.068 78.8506 368.431 79.2285C367.795 79.6064 367.296 80.127 366.934 80.79C366.573 81.453 366.392 82.2011 366.392 83.0336C366.392 83.8663 366.573 84.6141 366.934 85.2772C367.296 85.9401 367.795 86.4569 368.431 86.827C369.068 87.197 369.795 87.382 370.612 87.382ZM387.183 88.3076C386.224 88.9087 385.266 89.2096 384.307 89.2096C383.302 89.2096 382.488 88.8701 381.868 88.1916C381.247 87.5131 380.937 86.5341 380.937 85.2542V74.0125H383.129V77.2971H386.971V78.9395H383.129V84.8608C383.129 86.4338 383.647 87.22 384.684 87.22C385.266 87.22 385.903 87.0277 386.594 86.642L387.183 88.3076ZM395.763 88.3076C394.805 88.9087 393.846 89.2096 392.888 89.2096C391.882 89.2096 391.069 88.8701 390.448 88.1916C389.827 87.5131 389.517 86.5341 389.517 85.2542V74.0125H391.709V77.2971H395.551V78.9395H391.709V84.8608C391.709 86.4338 392.228 87.22 393.265 87.22C393.846 87.22 394.483 87.0277 395.174 86.642L395.763 88.3076Z" fill="white"/>
</g>
<defs>
<filter id="filter0_d" x="370.762" y="266.416" width="48.1791" height="48.225" filterUnits="userSpaceOnUse" color-interpolation-filters="sRGB">
<feFlood flood-opacity="0" result="BackgroundImageFix"/>
<feColorMatrix in="SourceAlpha" type="matrix" values="0 0 0 0 0 0 0 0 0 0 0 0 0 0 0 0 0 0 127 0"/>
<feOffset dy="2"/>
<feGaussianBlur stdDeviation="6"/>
<feColorMatrix type="matrix" values="0 0 0 0 0.256667 0 0 0 0 0.35 0 0 0 0 0.346175 0 0 0 0.02 0"/>
<feBlend mode="normal" in2="BackgroundImageFix" result="effect1_dropShadow"/>
<feBlend mode="normal" in="SourceGraphic" in2="effect1_dropShadow" result="shape"/>
</filter>
<filter id="filter1_d" x="29" y="0" width="248" height="248" filterUnits="userSpaceOnUse" color-interpolation-filters="sRGB">
<feFlood flood-opacity="0" result="BackgroundImageFix"/>
<feColorMatrix in="SourceAlpha" type="matrix" values="0 0 0 0 0 0 0 0 0 0 0 0 0 0 0 0 0 0 127 0"/>
<feOffset dy="50"/>
<feGaussianBlur stdDeviation="30"/>
<feColorMatrix type="matrix" values="0 0 0 0 0.152941 0 0 0 0 0.188235 0 0 0 0 0.305882 0 0 0 0.3 0"/>
<feBlend mode="normal" in2="BackgroundImageFix" result="effect1_dropShadow"/>
<feBlend mode="normal" in="SourceGraphic" in2="effect1_dropShadow" result="shape"/>
</filter>
<linearGradient id="paint0_linear" x1="63" y1="351" x2="299.626" y2="351.003" gradientUnits="userSpaceOnUse">
<stop stop-color="#DBD6D8" stop-opacity="0.43"/>
<stop offset="1" stop-color="#DBD6D8" stop-opacity="0"/>
</linearGradient>
<linearGradient id="paint1_linear" x1="355.813" y1="455" x2="460.276" y2="455.001" gradientUnits="userSpaceOnUse">
<stop stop-color="#DBD6D8" stop-opacity="0.43"/>
<stop offset="1" stop-color="#DBD6D8" stop-opacity="0"/>
</linearGradient>
<linearGradient id="paint2_linear" x1="656.972" y1="105.128" x2="20.3672" y2="105" gradientUnits="userSpaceOnUse">
<stop stop-color="#DBD6D8"/>
<stop offset="1" stop-color="#DBD6D8" stop-opacity="0"/>
</linearGradient>
<linearGradient id="paint3_linear" x1="211.351" y1="105.945" x2="304.377" y2="105.595" gradientUnits="userSpaceOnUse">
<stop stop-color="white"/>
<stop offset="1" stop-color="white"/>
</linearGradient>
<linearGradient id="paint4_linear" x1="468.34" y1="82.2431" x2="211.122" y2="82.2432" gradientUnits="userSpaceOnUse">
<stop stop-color="#2F3A5F"/>
<stop offset="1" stop-color="#2F3A5F" stop-opacity="0"/>
</linearGradient>
<linearGradient id="paint5_linear" x1="393.147" y1="431.818" x2="217.959" y2="431.818" gradientUnits="userSpaceOnUse">
<stop stop-color="#2F3A5F"/>
<stop offset="1" stop-color="#2F3A5F" stop-opacity="0"/>
</linearGradient>
<linearGradient id="paint6_linear" x1="307.215" y1="139.322" x2="213.643" y2="139.322" gradientUnits="userSpaceOnUse">
<stop stop-color="#37446F"/>
<stop offset="1" stop-color="#2F3A5F" stop-opacity="0"/>
</linearGradient>
<linearGradient id="paint7_linear" x1="526.716" y1="363.535" x2="423.252" y2="363.535" gradientUnits="userSpaceOnUse">
<stop stop-color="#2F3A5F"/>
<stop offset="1" stop-color="#2F3A5F" stop-opacity="0"/>
</linearGradient>
<linearGradient id="paint8_linear" x1="507.102" y1="417.565" x2="420.126" y2="417.565" gradientUnits="userSpaceOnUse">
<stop stop-color="#2F3A5F"/>
<stop offset="1" stop-color="#2F3A5F" stop-opacity="0"/>
</linearGradient>
<linearGradient id="paint9_linear" x1="301.145" y1="412.428" x2="214.169" y2="412.428" gradientUnits="userSpaceOnUse">
<stop stop-color="#2F3A5F"/>
<stop offset="1" stop-color="#2F3A5F" stop-opacity="0"/>
</linearGradient>
<linearGradient id="paint10_linear" x1="301.143" y1="280.476" x2="95.0389" y2="280.476" gradientUnits="userSpaceOnUse">
<stop stop-color="#2F3A5F"/>
<stop offset="1" stop-color="#2F3A5F" stop-opacity="0"/>
</linearGradient>
<linearGradient id="paint11_linear" x1="269.762" y1="288.091" x2="269.762" y2="441.091" gradientUnits="userSpaceOnUse">
<stop stop-color="#1AC3DA" stop-opacity="0.29"/>
<stop offset="1" stop-color="#1AC3DA" stop-opacity="0"/>
</linearGradient>
<linearGradient id="paint12_linear" x1="199.4" y1="116.4" x2="-140.947" y2="32.7461" gradientUnits="userSpaceOnUse">
<stop stop-color="#1CC5DC"/>
<stop offset="1" stop-color="white" stop-opacity="0.8"/>
</linearGradient>
<linearGradient id="paint13_linear" x1="205.798" y1="115.6" x2="-83.5701" y2="160.325" gradientUnits="userSpaceOnUse">
<stop stop-color="#1CC5DC"/>
<stop offset="1" stop-color="white" stop-opacity="0.8"/>
</linearGradient>
<linearGradient id="paint14_linear" x1="201.002" y1="112.4" x2="-98.9114" y2="-78.8847" gradientUnits="userSpaceOnUse">
<stop stop-color="#1CC5DC"/>
<stop offset="1" stop-color="white" stop-opacity="0.8"/>
</linearGradient>
<linearGradient id="paint15_linear" x1="203.398" y1="117.2" x2="-50.9535" y2="183.816" gradientUnits="userSpaceOnUse">
<stop stop-color="#54D3E5"/>
<stop offset="1" stop-color="white" stop-opacity="0.8"/>
</linearGradient>
<linearGradient id="paint16_linear" x1="209.8" y1="114.8" x2="-98.3381" y2="-108.565" gradientUnits="userSpaceOnUse">
<stop stop-color="#1CC5DC"/>
<stop offset="1" stop-color="white" stop-opacity="0.8"/>
</linearGradient>
<linearGradient id="paint17_linear" x1="179.401" y1="218.66" x2="409.934" y2="216.913" gradientUnits="userSpaceOnUse">
<stop stop-color="#FB6165"/>
<stop offset="1" stop-color="#E72E33"/>
</linearGradient>
<clipPath id="clip0">
<rect width="105" height="19" fill="white" transform="translate(310 72)"/>
</clipPath>
</defs>
</svg>
