<svg width="659" height="620" viewBox="0 0 659 620" fill="none" xmlns="http://www.w3.org/2000/svg">
<rect x="0.997559" y="56.9995" width="227" height="122" rx="61" fill="url(#paint0_linear)"/>
<rect x="70" y="291" width="532" height="286" rx="143" stroke="url(#paint1_linear)" stroke-linecap="round"/>
<rect x="352.998" y="285" width="299" height="122" rx="61" fill="url(#paint2_linear)"/>
<circle cx="61.9956" cy="118" r="45" stroke="url(#paint3_linear)" stroke-width="2"/>
<rect x="425.998" y="202" width="134" height="54" rx="27" fill="url(#paint4_linear)"/>
<rect x="3.99756" y="504" width="111" height="37" rx="18.5" fill="url(#paint5_linear)"/>
<g filter="url(#filter0_d)">
<path d="M162 114C162 109.582 165.582 106 170 106H504C508.418 106 512 109.582 512 114V456.831C512 460.466 509.62 463.625 506.102 464.542C477.494 472.004 353.897 504 337.996 504C322.085 504 196.785 471.964 167.918 464.528C164.389 463.619 162 460.455 162 456.811V114Z" fill="white"/>
</g>
<g clip-path="url(#clip0)">
<path d="M162 113C162 109.134 165.134 106 169 106H505C508.866 106 512 109.134 512 113V456C512 459.866 508.866 463 505 463H169C165.134 463 162 459.866 162 456V113Z" fill="white"/>
<path d="M162 113C162 109.134 165.134 106 169 106H505C508.866 106 512 109.134 512 113V318H162V113Z" fill="white"/>
<g filter="url(#filter1_d)">
<rect x="161.996" y="106" width="478.997" height="359" rx="8" fill="url(#paint6_radial)"/>
</g>
<path d="M161.996 126H640.996V456C640.996 462.627 635.624 468 628.996 468H173.996C167.369 468 161.996 462.627 161.996 456V126Z" fill="white"/>
<rect x="341.996" y="160" width="135" height="56" rx="6" fill="#F4F4F4"/>
<g opacity="0.2" clip-path="url(#clip1)">
<path d="M405.371 194.875C409.513 194.875 412.871 191.517 412.871 187.375C412.871 183.233 409.513 179.875 405.371 179.875C401.229 179.875 397.871 183.233 397.871 187.375C397.871 191.517 401.229 194.875 405.371 194.875Z" stroke="#303A5B" stroke-width="3" stroke-miterlimit="10" stroke-linecap="round" stroke-linejoin="round"/>
<path d="M415.371 197.375L410.674 192.677" stroke="#303A5B" stroke-width="3" stroke-miterlimit="10" stroke-linecap="round" stroke-linejoin="round"/>
</g>
<rect x="342.996" y="228" width="134" height="56" rx="6" fill="#F4F4F4"/>
<path d="M399.244 246.42H404.074L412.084 267H407.944L406.264 262.53H396.844L395.194 267H391.234L399.244 246.42ZM405.034 259.29L402.934 253.65C402.614 252.85 402.274 251.83 401.914 250.59C401.854 250.41 401.794 250.25 401.734 250.11C401.694 249.95 401.654 249.82 401.614 249.72H401.464L401.164 250.65L400.144 253.65L398.044 259.29H405.034ZM418.148 267.36C416.868 267.36 415.708 267.05 414.668 266.43C413.648 265.79 413.138 264.62 413.138 262.92C413.138 260.9 413.998 259.48 415.718 258.66C417.438 257.84 419.878 257.43 423.038 257.43V256.11C423.038 255.35 422.838 254.76 422.438 254.34C422.058 253.92 421.358 253.71 420.338 253.71C419.278 253.71 418.528 253.88 418.088 254.22C417.648 254.56 417.428 254.98 417.428 255.48V255.9H413.948C413.928 255.78 413.918 255.56 413.918 255.24C413.918 253.88 414.498 252.81 415.658 252.03C416.838 251.25 418.398 250.86 420.338 250.86C422.438 250.86 424.008 251.29 425.048 252.15C426.108 253.01 426.638 254.24 426.638 255.84V263.37C426.638 263.73 426.738 264 426.938 264.18C427.138 264.34 427.388 264.42 427.688 264.42H428.648V266.88C428.008 267.18 427.258 267.33 426.398 267.33C425.618 267.33 424.968 267.14 424.448 266.76C423.928 266.38 423.578 265.86 423.398 265.2H423.188C422.008 266.64 420.328 267.36 418.148 267.36ZM419.228 264.48C420.408 264.48 421.338 264.14 422.018 263.46C422.698 262.78 423.038 261.86 423.038 260.7V259.98C421.098 259.98 419.578 260.17 418.478 260.55C417.378 260.91 416.828 261.58 416.828 262.56C416.828 263.84 417.628 264.48 419.228 264.48Z" fill="#303A5B" fill-opacity="0.2"/>
<g filter="url(#filter2_b)">
<rect x="197.996" y="367" width="196" height="194" rx="6" fill="#F4F4F4"/>
</g>
<path d="M280.66 448.56H287.1L297.78 476H292.26L290.02 470.04H277.46L275.26 476H269.98L280.66 448.56ZM288.38 465.72L285.58 458.2C285.154 457.133 284.7 455.773 284.22 454.12C284.14 453.88 284.06 453.667 283.98 453.48C283.927 453.267 283.874 453.093 283.82 452.96H283.62L283.22 454.2L281.86 458.2L279.06 465.72H288.38ZM305.865 476.48C304.159 476.48 302.612 476.067 301.225 475.24C299.865 474.387 299.185 472.827 299.185 470.56C299.185 467.867 300.332 465.973 302.625 464.88C304.919 463.787 308.172 463.24 312.385 463.24V461.48C312.385 460.467 312.119 459.68 311.585 459.12C311.079 458.56 310.145 458.28 308.785 458.28C307.372 458.28 306.372 458.507 305.785 458.96C305.199 459.413 304.905 459.973 304.905 460.64V461.2H300.265C300.239 461.04 300.225 460.747 300.225 460.32C300.225 458.507 300.999 457.08 302.545 456.04C304.119 455 306.199 454.48 308.785 454.48C311.585 454.48 313.679 455.053 315.065 456.2C316.479 457.347 317.185 458.987 317.185 461.12V471.16C317.185 471.64 317.319 472 317.585 472.24C317.852 472.453 318.185 472.56 318.585 472.56H319.865V475.84C319.012 476.24 318.012 476.44 316.865 476.44C315.825 476.44 314.959 476.187 314.265 475.68C313.572 475.173 313.105 474.48 312.865 473.6H312.585C311.012 475.52 308.772 476.48 305.865 476.48ZM307.305 472.64C308.879 472.64 310.119 472.187 311.025 471.28C311.932 470.373 312.385 469.147 312.385 467.6V466.64C309.799 466.64 307.772 466.893 306.305 467.4C304.839 467.88 304.105 468.773 304.105 470.08C304.105 471.787 305.172 472.64 307.305 472.64Z" fill="#303A5B" fill-opacity="0.2"/>
<rect x="196.996" y="160" width="135" height="125" rx="6" fill="#F3F3F3"/>
<path d="M237.931 240.272H282.055C282.408 240.282 282.757 240.193 283.062 240.014C283.368 239.835 283.616 239.575 283.78 239.262C283.944 238.948 284.017 238.596 283.991 238.243C283.964 237.891 283.839 237.553 283.63 237.268L277.543 229.004C277.384 228.784 277.18 228.601 276.944 228.467C276.708 228.333 276.446 228.252 276.176 228.229C275.905 228.205 275.633 228.24 275.378 228.332C275.122 228.423 274.89 228.569 274.695 228.758L268.441 234.71L253.923 214.999C253.743 214.753 253.505 214.554 253.23 214.42C252.956 214.286 252.653 214.221 252.348 214.229C252.042 214.238 251.744 214.321 251.477 214.471C251.211 214.62 250.985 214.832 250.819 215.089L236.301 237.357C236.113 237.645 236.008 237.979 235.997 238.323C235.986 238.666 236.068 239.007 236.236 239.307C236.404 239.607 236.651 239.855 236.949 240.025C237.248 240.195 237.588 240.281 237.931 240.272Z" fill="#CDCFD5"/>
<path d="M273.725 215.245C277.383 215.245 280.348 212.28 280.348 208.622C280.348 204.965 277.383 202 273.725 202C270.068 202 267.103 204.965 267.103 208.622C267.103 212.28 270.068 215.245 273.725 215.245Z" fill="#CDCFD5"/>
<g clip-path="url(#clip2)">
<circle cx="174.496" cy="116.5" r="3.5" fill="#FB4247"/>
<circle cx="185.496" cy="116.5" r="3.5" fill="white"/>
<circle cx="196.496" cy="116.5" r="3.5" fill="#1AC3DA"/>
</g>
<path d="M162 318H512V456C512 459.866 508.866 463 505 463H169C165.134 463 162 459.866 162 456V318Z" fill="white"/>
<line x1="162" y1="318.5" x2="511" y2="318.5" stroke="#F0F1F4"/>
<path d="M192.149 356.699L187.114 348.966H189.907L193.384 354.514H193.479L196.899 348.966H199.578L194.562 356.699V362H192.149V356.699ZM203.775 362.228C202.129 362.228 200.894 361.804 200.07 360.955C199.26 360.106 198.854 358.789 198.854 357.003C198.854 355.217 199.26 353.9 200.07 353.051C200.894 352.202 202.129 351.778 203.775 351.778C205.422 351.778 206.651 352.202 207.461 353.051C208.285 353.9 208.696 355.217 208.696 357.003C208.696 358.789 208.285 360.106 207.461 360.955C206.651 361.804 205.422 362.228 203.775 362.228ZM203.775 360.366C204.675 360.366 205.327 360.106 205.732 359.587C206.138 359.055 206.34 358.238 206.34 357.136V356.87C206.34 355.768 206.138 354.957 205.732 354.438C205.327 353.906 204.675 353.64 203.775 353.64C202.863 353.64 202.205 353.906 201.799 354.438C201.407 354.957 201.21 355.768 201.21 356.87V357.136C201.21 358.238 201.407 359.055 201.799 359.587C202.205 360.106 202.863 360.366 203.775 360.366ZM213.899 362.228C211.745 362.228 210.669 361.069 210.669 358.751V352.006H212.949V358.352C212.949 359.036 213.101 359.524 213.405 359.815C213.721 360.106 214.184 360.252 214.792 360.252C215.425 360.252 215.957 360.024 216.388 359.568C216.818 359.112 217.034 358.529 217.034 357.82V352.006H219.314V362H217.433L217.243 360.67H217.11C216.742 361.164 216.286 361.55 215.742 361.829C215.21 362.095 214.595 362.228 213.899 362.228ZM221.97 352.006H223.851L224.06 353.583H224.193C224.649 352.38 225.396 351.778 226.435 351.778C226.789 351.778 227.106 351.835 227.385 351.949V354.096H226.663C225.054 354.096 224.25 354.995 224.25 356.794V362H221.97V352.006ZM238.071 362.228C236.69 362.228 235.62 361.943 234.86 361.373C234.113 360.803 233.739 360.062 233.739 359.15C233.739 359.036 233.739 358.96 233.739 358.922C233.752 358.884 233.758 358.859 233.758 358.846H235.981V358.998C235.994 359.492 236.203 359.859 236.608 360.1C237.026 360.328 237.545 360.442 238.166 360.442C238.723 360.442 239.198 360.353 239.591 360.176C239.984 359.986 240.18 359.707 240.18 359.34C240.18 359.049 240.072 358.814 239.857 358.637C239.642 358.447 239.376 358.301 239.059 358.2C238.742 358.086 238.293 357.959 237.71 357.82C236.925 357.63 236.279 357.44 235.772 357.25C235.278 357.06 234.854 356.762 234.499 356.357C234.144 355.952 233.967 355.42 233.967 354.761C233.967 353.811 234.36 353.076 235.145 352.557C235.93 352.038 236.95 351.778 238.204 351.778C238.977 351.778 239.667 351.892 240.275 352.12C240.883 352.348 241.352 352.671 241.681 353.089C242.023 353.494 242.194 353.963 242.194 354.495L242.175 354.913H239.952V354.837C239.952 354.444 239.787 354.14 239.458 353.925C239.141 353.697 238.679 353.583 238.071 353.583C237.476 353.583 237.026 353.678 236.722 353.868C236.418 354.045 236.266 354.28 236.266 354.571C236.266 354.926 236.45 355.192 236.817 355.369C237.197 355.534 237.773 355.698 238.546 355.863C239.382 356.053 240.053 356.249 240.56 356.452C241.079 356.642 241.529 356.946 241.909 357.364C242.289 357.782 242.479 358.346 242.479 359.055C242.479 360.157 242.08 360.961 241.282 361.468C240.497 361.975 239.426 362.228 238.071 362.228ZM244.495 348.263H246.737V350.505H244.495V348.263ZM244.495 352.006H246.775V362H244.495V352.006ZM251.939 362.228C251.09 362.228 250.476 361.994 250.096 361.525C249.729 361.044 249.545 360.448 249.545 359.739V353.868H248.329V352.006H249.583L250.001 349.213H251.825V352.006H253.535V353.868H251.825V359.511C251.825 360.081 252.097 360.366 252.642 360.366H253.535V361.924C253.332 362 253.079 362.07 252.775 362.133C252.471 362.196 252.192 362.228 251.939 362.228ZM259.548 362.228C257.926 362.228 256.723 361.804 255.938 360.955C255.152 360.106 254.76 358.789 254.76 357.003C254.76 355.217 255.152 353.9 255.938 353.051C256.736 352.202 257.939 351.778 259.548 351.778C261.017 351.778 262.113 352.19 262.835 353.013C263.569 353.836 263.937 355.122 263.937 356.87V357.554H257.078C257.116 358.542 257.325 359.27 257.705 359.739C258.097 360.195 258.718 360.423 259.567 360.423C260.2 360.423 260.713 360.265 261.106 359.948C261.498 359.619 261.695 359.137 261.695 358.504H263.937C263.937 359.733 263.531 360.664 262.721 361.297C261.91 361.918 260.852 362.228 259.548 362.228ZM261.562 355.939C261.562 354.368 260.89 353.583 259.548 353.583C258.788 353.583 258.211 353.779 257.819 354.172C257.439 354.552 257.204 355.141 257.116 355.939H261.562Z" fill="black"/>
<path d="M188.06 374.688H189.332L190.22 377.964L190.592 379.548H190.64L190.976 377.964L191.756 374.688H193.16L193.976 377.976C194.048 378.232 194.164 378.756 194.324 379.548H194.384C194.552 378.804 194.672 378.28 194.744 377.976L195.608 374.688H196.808L194.912 381H193.592L192.74 377.46L192.452 376.14H192.404C192.292 376.748 192.2 377.188 192.128 377.46L191.276 381H189.944L188.06 374.688ZM196.931 374.688H198.203L199.091 377.964L199.463 379.548H199.511L199.847 377.964L200.627 374.688H202.031L202.847 377.976C202.919 378.232 203.035 378.756 203.195 379.548H203.255C203.423 378.804 203.543 378.28 203.615 377.976L204.479 374.688H205.679L203.783 381H202.463L201.611 377.46L201.323 376.14H201.275C201.163 376.748 201.071 377.188 200.999 377.46L200.147 381H198.815L196.931 374.688ZM205.802 374.688H207.074L207.962 377.964L208.334 379.548H208.382L208.718 377.964L209.498 374.688H210.902L211.718 377.976C211.79 378.232 211.906 378.756 212.066 379.548H212.126C212.294 378.804 212.414 378.28 212.486 377.976L213.35 374.688H214.55L212.654 381H211.334L210.482 377.46L210.194 376.14H210.146C210.034 376.748 209.942 377.188 209.87 377.46L209.018 381H207.686L205.802 374.688ZM215.047 379.596H216.379V381H215.047V379.596ZM218.891 383.184C218.499 383.184 218.191 383.144 217.967 383.064V382.248H218.495C219.223 382.248 219.711 381.832 219.959 381L217.511 374.688H218.807L219.983 377.784C220.143 378.192 220.347 378.82 220.595 379.668H220.655C220.879 378.868 221.063 378.24 221.207 377.784L222.191 374.688H223.427L221.339 380.676C221.051 381.476 220.727 382.092 220.367 382.524C220.007 382.964 219.515 383.184 218.891 383.184ZM226.998 381.144C225.998 381.144 225.246 380.876 224.742 380.34C224.246 379.796 223.998 378.964 223.998 377.844C223.998 376.724 224.246 375.896 224.742 375.36C225.246 374.816 225.998 374.544 226.998 374.544C227.998 374.544 228.75 374.816 229.254 375.36C229.758 375.896 230.01 376.724 230.01 377.844C230.01 378.964 229.758 379.796 229.254 380.34C228.75 380.876 227.998 381.144 226.998 381.144ZM226.998 380.124C227.606 380.124 228.046 379.948 228.318 379.596C228.598 379.236 228.738 378.672 228.738 377.904V377.784C228.738 377.016 228.598 376.456 228.318 376.104C228.046 375.744 227.606 375.564 226.998 375.564C226.398 375.564 225.958 375.744 225.678 376.104C225.406 376.456 225.27 377.016 225.27 377.784V377.904C225.27 378.672 225.406 379.236 225.678 379.596C225.958 379.948 226.398 380.124 226.998 380.124ZM233.229 381.144C231.893 381.144 231.225 380.42 231.225 378.972V374.688H232.461V378.816C232.461 379.288 232.565 379.62 232.773 379.812C232.989 379.996 233.301 380.088 233.709 380.088C233.989 380.088 234.249 380.02 234.489 379.884C234.729 379.74 234.917 379.54 235.053 379.284C235.197 379.028 235.269 378.732 235.269 378.396V374.688H236.505V381H235.509L235.389 380.16H235.305C235.073 380.48 234.781 380.724 234.429 380.892C234.077 381.06 233.677 381.144 233.229 381.144ZM238.14 374.688H239.136L239.256 375.66H239.328C239.616 374.916 240.1 374.544 240.78 374.544C241.004 374.544 241.2 374.576 241.368 374.64V375.816H240.924C240.452 375.816 240.076 375.952 239.796 376.224C239.516 376.496 239.376 376.912 239.376 377.472V381H238.14V374.688ZM244.448 381.144C243.648 381.144 243.032 380.876 242.6 380.34C242.168 379.796 241.952 378.964 241.952 377.844C241.952 376.74 242.168 375.916 242.6 375.372C243.032 374.82 243.62 374.544 244.364 374.544C245.236 374.544 245.872 374.832 246.272 375.408H246.344V372.324H247.58V381H246.596L246.476 380.16H246.392C246.192 380.48 245.92 380.724 245.576 380.892C245.24 381.06 244.864 381.144 244.448 381.144ZM244.796 380.1C245.332 380.1 245.724 379.916 245.972 379.548C246.22 379.18 246.344 378.636 246.344 377.916V377.82C246.344 376.332 245.828 375.588 244.796 375.588C244.228 375.588 243.824 375.76 243.584 376.104C243.344 376.44 243.224 377.008 243.224 377.808V377.916C243.224 378.7 243.344 379.26 243.584 379.596C243.824 379.932 244.228 380.1 244.796 380.1ZM251.83 381.144C250.83 381.144 250.078 380.876 249.574 380.34C249.078 379.796 248.83 378.964 248.83 377.844C248.83 376.724 249.078 375.896 249.574 375.36C250.078 374.816 250.83 374.544 251.83 374.544C252.83 374.544 253.582 374.816 254.086 375.36C254.59 375.896 254.842 376.724 254.842 377.844C254.842 378.964 254.59 379.796 254.086 380.34C253.582 380.876 252.83 381.144 251.83 381.144ZM251.83 380.124C252.438 380.124 252.878 379.948 253.15 379.596C253.43 379.236 253.57 378.672 253.57 377.904V377.784C253.57 377.016 253.43 376.456 253.15 376.104C252.878 375.744 252.438 375.564 251.83 375.564C251.23 375.564 250.79 375.744 250.51 376.104C250.238 376.456 250.102 377.016 250.102 377.784V377.904C250.102 378.672 250.238 379.236 250.51 379.596C250.79 379.948 251.23 380.124 251.83 380.124ZM256.093 374.688H257.089L257.209 375.528H257.293C257.509 375.208 257.773 374.964 258.085 374.796C258.397 374.628 258.753 374.544 259.153 374.544C259.969 374.544 260.517 374.872 260.797 375.528H260.869C261.085 375.216 261.361 374.976 261.697 374.808C262.033 374.632 262.401 374.544 262.801 374.544C263.393 374.544 263.857 374.704 264.193 375.024C264.529 375.336 264.697 375.844 264.697 376.548V381H263.461V376.788C263.461 376.356 263.365 376.052 263.173 375.876C262.989 375.692 262.729 375.6 262.393 375.6C262.001 375.6 261.673 375.756 261.409 376.068C261.145 376.38 261.013 376.788 261.013 377.292V381H259.777V376.788C259.777 376.356 259.685 376.052 259.501 375.876C259.325 375.692 259.069 375.6 258.733 375.6C258.341 375.6 258.009 375.756 257.737 376.068C257.465 376.38 257.329 376.788 257.329 377.292V381H256.093V374.688ZM267.921 381.144C267.401 381.144 266.929 381.016 266.505 380.76C266.089 380.504 265.881 380.04 265.881 379.368C265.881 378.56 266.233 378 266.937 377.688C267.641 377.376 268.649 377.22 269.961 377.22V376.596C269.961 376.252 269.869 375.992 269.685 375.816C269.509 375.632 269.177 375.54 268.689 375.54C268.217 375.54 267.881 375.624 267.681 375.792C267.489 375.96 267.393 376.164 267.393 376.404V376.56H266.193C266.185 376.512 266.181 376.424 266.181 376.296C266.181 375.744 266.413 375.316 266.877 375.012C267.341 374.7 267.961 374.544 268.737 374.544C269.553 374.544 270.165 374.712 270.573 375.048C270.989 375.384 271.197 375.86 271.197 376.476V379.704C271.197 379.848 271.237 379.956 271.317 380.028C271.397 380.092 271.497 380.124 271.617 380.124H272.049V380.952C271.841 381.056 271.557 381.108 271.197 381.108C270.909 381.108 270.665 381.032 270.465 380.88C270.273 380.72 270.145 380.504 270.081 380.232H269.997C269.773 380.52 269.485 380.744 269.133 380.904C268.789 381.064 268.385 381.144 267.921 381.144ZM268.281 380.136C268.753 380.136 269.149 379.996 269.469 379.716C269.797 379.428 269.961 379.036 269.961 378.54V378.156C269.049 378.156 268.353 378.236 267.873 378.396C267.393 378.548 267.153 378.84 267.153 379.272C267.153 379.568 267.245 379.788 267.429 379.932C267.621 380.068 267.905 380.136 268.281 380.136ZM272.957 372.324H274.181V373.584H272.957V372.324ZM272.957 374.688H274.193V381H272.957V374.688ZM275.828 374.688H276.824L276.944 375.528H277.028C277.252 375.208 277.54 374.964 277.892 374.796C278.252 374.628 278.656 374.544 279.104 374.544C280.44 374.544 281.108 375.268 281.108 376.716V381H279.872V376.872C279.872 376.4 279.764 376.072 279.548 375.888C279.34 375.696 279.032 375.6 278.624 375.6C278.344 375.6 278.084 375.672 277.844 375.816C277.604 375.952 277.412 376.148 277.268 376.404C277.132 376.66 277.064 376.956 277.064 377.292V381H275.828V374.688ZM282.911 379.596H284.243V381H282.911V379.596ZM288.518 381.144C287.542 381.144 286.822 380.876 286.358 380.34C285.894 379.804 285.662 378.972 285.662 377.844C285.662 376.716 285.894 375.884 286.358 375.348C286.83 374.812 287.55 374.544 288.518 374.544C289.374 374.544 290.014 374.756 290.438 375.18C290.87 375.596 291.086 376.216 291.086 377.04H289.838C289.838 376.528 289.734 376.152 289.526 375.912C289.326 375.672 288.986 375.552 288.506 375.552C287.962 375.552 287.562 375.732 287.306 376.092C287.058 376.452 286.934 377.028 286.934 377.82V377.904C286.934 378.688 287.058 379.256 287.306 379.608C287.562 379.96 287.97 380.136 288.53 380.136C289.002 380.136 289.346 380.012 289.562 379.764C289.786 379.508 289.898 379.136 289.898 378.648H291.086C291.086 379.4 290.87 380.004 290.438 380.46C290.006 380.916 289.366 381.144 288.518 381.144ZM294.862 381.144C293.862 381.144 293.11 380.876 292.606 380.34C292.11 379.796 291.862 378.964 291.862 377.844C291.862 376.724 292.11 375.896 292.606 375.36C293.11 374.816 293.862 374.544 294.862 374.544C295.862 374.544 296.614 374.816 297.118 375.36C297.622 375.896 297.874 376.724 297.874 377.844C297.874 378.964 297.622 379.796 297.118 380.34C296.614 380.876 295.862 381.144 294.862 381.144ZM294.862 380.124C295.47 380.124 295.91 379.948 296.182 379.596C296.462 379.236 296.602 378.672 296.602 377.904V377.784C296.602 377.016 296.462 376.456 296.182 376.104C295.91 375.744 295.47 375.564 294.862 375.564C294.262 375.564 293.822 375.744 293.542 376.104C293.27 376.456 293.134 377.016 293.134 377.784V377.904C293.134 378.672 293.27 379.236 293.542 379.596C293.822 379.948 294.262 380.124 294.862 380.124ZM299.125 374.688H300.121L300.241 375.528H300.325C300.541 375.208 300.805 374.964 301.117 374.796C301.429 374.628 301.785 374.544 302.185 374.544C303.001 374.544 303.549 374.872 303.829 375.528H303.901C304.117 375.216 304.393 374.976 304.729 374.808C305.065 374.632 305.433 374.544 305.833 374.544C306.425 374.544 306.889 374.704 307.225 375.024C307.561 375.336 307.729 375.844 307.729 376.548V381H306.493V376.788C306.493 376.356 306.397 376.052 306.205 375.876C306.021 375.692 305.761 375.6 305.425 375.6C305.033 375.6 304.705 375.756 304.441 376.068C304.177 376.38 304.045 376.788 304.045 377.292V381H302.809V376.788C302.809 376.356 302.717 376.052 302.533 375.876C302.357 375.692 302.101 375.6 301.765 375.6C301.373 375.6 301.041 375.756 300.769 376.068C300.497 376.38 300.361 376.788 300.361 377.292V381H299.125V374.688Z" fill="#7D7D85"/>
<g filter="url(#filter3_d)">
<rect x="188" y="403" width="143" height="33" rx="7" fill="white"/>
<rect x="188.5" y="403.5" width="142" height="32" rx="6.5" stroke="#1AC3DA"/>
</g>
<path d="M232.804 415.768H236.212C237.468 415.768 238.436 416.112 239.116 416.8C239.804 417.48 240.148 418.508 240.148 419.884C240.148 421.26 239.804 422.292 239.116 422.98C238.436 423.66 237.468 424 236.212 424H232.804V415.768ZM236.212 422.524C236.916 422.524 237.448 422.312 237.808 421.888C238.176 421.456 238.36 420.848 238.36 420.064V419.704C238.36 418.92 238.176 418.316 237.808 417.892C237.448 417.46 236.916 417.244 236.212 417.244H234.544V422.524H236.212ZM243.996 424.144C242.98 424.144 242.22 423.876 241.716 423.34C241.22 422.804 240.972 421.972 240.972 420.844C240.972 419.716 241.22 418.884 241.716 418.348C242.22 417.812 242.98 417.544 243.996 417.544C244.932 417.544 245.632 417.816 246.096 418.36C246.56 418.896 246.792 419.724 246.792 420.844V421.228H242.64C242.656 421.788 242.768 422.204 242.976 422.476C243.184 422.74 243.532 422.872 244.02 422.872C244.364 422.872 244.64 422.776 244.848 422.584C245.064 422.392 245.172 422.12 245.172 421.768H246.792C246.792 422.56 246.536 423.156 246.024 423.556C245.512 423.948 244.836 424.144 243.996 424.144ZM245.088 420.136C245.088 419.264 244.724 418.828 243.996 418.828C243.58 418.828 243.264 418.936 243.048 419.152C242.84 419.368 242.712 419.696 242.664 420.136H245.088ZM249.632 424.144C249.04 424.144 248.616 423.984 248.36 423.664C248.104 423.344 247.976 422.94 247.976 422.452V419.032H247.22V417.688H248.012L248.288 415.912H249.62V417.688H250.712V419.032H249.62V422.284C249.62 422.628 249.792 422.8 250.136 422.8H250.712V423.952C250.576 424 250.404 424.044 250.196 424.084C249.996 424.124 249.808 424.144 249.632 424.144ZM253.268 424.144C252.78 424.144 252.332 424.016 251.924 423.76C251.516 423.504 251.312 423.04 251.312 422.368C251.312 421.56 251.644 420.988 252.308 420.652C252.972 420.308 253.912 420.136 255.128 420.136V419.692C255.128 419.412 255.064 419.196 254.936 419.044C254.816 418.892 254.584 418.816 254.24 418.816C253.872 418.816 253.608 418.872 253.448 418.984C253.296 419.096 253.22 419.228 253.22 419.38V419.56H251.636C251.628 419.512 251.624 419.424 251.624 419.296C251.624 418.768 251.856 418.344 252.32 418.024C252.792 417.704 253.416 417.544 254.192 417.544C255.056 417.544 255.7 417.72 256.124 418.072C256.556 418.424 256.772 418.932 256.772 419.596V422.38C256.772 422.524 256.812 422.632 256.892 422.704C256.972 422.768 257.072 422.8 257.192 422.8H257.528V423.952C257.272 424.08 256.956 424.144 256.58 424.144C256.252 424.144 255.976 424.072 255.752 423.928C255.536 423.784 255.388 423.58 255.308 423.316H255.236C255.004 423.588 254.736 423.796 254.432 423.94C254.136 424.076 253.748 424.144 253.268 424.144ZM253.784 422.848C254.248 422.848 254.588 422.72 254.804 422.464C255.02 422.2 255.128 421.852 255.128 421.42V421.228C253.696 421.228 252.98 421.548 252.98 422.188C252.98 422.388 253.044 422.548 253.172 422.668C253.308 422.788 253.512 422.848 253.784 422.848ZM258.352 415.324H259.996V416.884H258.352V415.324ZM258.352 417.688H259.996V424H258.352V417.688ZM261.584 415.324H263.228V424H261.584V415.324ZM267.324 424.144C266.444 424.144 265.752 423.964 265.248 423.604C264.752 423.236 264.504 422.748 264.504 422.14L264.516 421.996H266.112V422.08C266.12 422.36 266.244 422.564 266.484 422.692C266.732 422.812 267.032 422.872 267.384 422.872C267.712 422.872 267.992 422.828 268.224 422.74C268.456 422.652 268.572 422.508 268.572 422.308C268.572 422.084 268.452 421.916 268.212 421.804C267.98 421.692 267.612 421.58 267.108 421.468C266.588 421.348 266.164 421.228 265.836 421.108C265.508 420.98 265.224 420.784 264.984 420.52C264.744 420.256 264.624 419.904 264.624 419.464C264.624 418.848 264.88 418.376 265.392 418.048C265.912 417.712 266.58 417.544 267.396 417.544C268.156 417.544 268.784 417.7 269.28 418.012C269.776 418.316 270.024 418.732 270.024 419.26L270.012 419.536H268.416V419.464C268.416 419.256 268.316 419.096 268.116 418.984C267.924 418.872 267.664 418.816 267.336 418.816C267.008 418.816 266.748 418.86 266.556 418.948C266.364 419.036 266.268 419.16 266.268 419.32C266.268 419.52 266.376 419.668 266.592 419.764C266.816 419.86 267.172 419.956 267.66 420.052C268.196 420.172 268.632 420.292 268.968 420.412C269.304 420.532 269.596 420.728 269.844 421C270.092 421.272 270.216 421.64 270.216 422.104C270.216 423.464 269.252 424.144 267.324 424.144Z" fill="#1AC3DA"/>
<path d="M285.333 413.333H280C279.646 413.333 279.307 413.474 279.057 413.724C278.807 413.974 278.667 414.313 278.667 414.667V425.333C278.667 425.687 278.807 426.026 279.057 426.276C279.307 426.526 279.646 426.667 280 426.667H288C288.353 426.667 288.693 426.526 288.943 426.276C289.193 426.026 289.333 425.687 289.333 425.333V417.333L285.333 413.333Z" stroke="#1AC3DA" stroke-width="1.3" stroke-linecap="round" stroke-linejoin="round"/>
<path d="M285.333 413.333V417.333H289.333" stroke="#1AC3DA" stroke-width="1.3" stroke-linecap="round" stroke-linejoin="round"/>
<path d="M286.667 420.667H281.333" stroke="#1AC3DA" stroke-width="1.3" stroke-linecap="round" stroke-linejoin="round"/>
<path d="M286.667 423.333H281.333" stroke="#1AC3DA" stroke-width="1.3" stroke-linecap="round" stroke-linejoin="round"/>
<path d="M282.667 418H282H281.333" stroke="#1AC3DA" stroke-width="1.3" stroke-linecap="round" stroke-linejoin="round"/>
<g filter="url(#filter4_d)">
<rect x="343" y="403" width="143" height="33" rx="7" fill="url(#paint7_linear)"/>
</g>
<path d="M389.804 415.768H396.272V417.244H391.544V419.056H395.744V420.532H391.544V422.524H396.344V424H389.804V415.768ZM399.848 424.144C399.048 424.144 398.428 423.872 397.988 423.328C397.548 422.776 397.328 421.944 397.328 420.832C397.328 419.744 397.548 418.924 397.988 418.372C398.436 417.82 399.028 417.544 399.764 417.544C400.188 417.544 400.56 417.62 400.88 417.772C401.208 417.924 401.464 418.14 401.648 418.42H401.72V415.324H403.364V424H401.96L401.852 423.172H401.768C401.568 423.492 401.3 423.736 400.964 423.904C400.628 424.064 400.256 424.144 399.848 424.144ZM400.376 422.716C401.272 422.716 401.72 422.128 401.72 420.952V420.76C401.72 419.568 401.272 418.972 400.376 418.972C399.888 418.972 399.54 419.12 399.332 419.416C399.124 419.704 399.02 420.144 399.02 420.736V420.952C399.02 421.544 399.124 421.988 399.332 422.284C399.54 422.572 399.888 422.716 400.376 422.716ZM404.94 415.324H406.584V416.884H404.94V415.324ZM404.94 417.688H406.584V424H404.94V417.688ZM409.864 424.144C409.272 424.144 408.848 423.984 408.592 423.664C408.336 423.344 408.208 422.94 408.208 422.452V419.032H407.452V417.688H408.244L408.52 415.912H409.852V417.688H410.944V419.032H409.852V422.284C409.852 422.628 410.024 422.8 410.368 422.8H410.944V423.952C410.808 424 410.636 424.044 410.428 424.084C410.228 424.124 410.04 424.144 409.864 424.144ZM415.256 415.324H416.9V416.884H415.256V415.324ZM415.256 417.688H416.9V424H415.256V417.688ZM418.487 417.688H419.891L420.011 418.516H420.095C420.607 417.868 421.263 417.544 422.063 417.544C422.711 417.544 423.219 417.72 423.587 418.072C423.963 418.424 424.151 418.988 424.151 419.764V424H422.507V420.112C422.507 419.72 422.415 419.436 422.231 419.26C422.047 419.084 421.775 418.996 421.415 418.996C421.047 418.996 420.739 419.128 420.491 419.392C420.251 419.648 420.131 419.968 420.131 420.352V424H418.487V417.688Z" fill="white"/>
<path d="M439.608 420.01L437.83 425.175C438.356 425.33 438.913 425.423 439.5 425.423C440.181 425.423 440.846 425.299 441.464 425.082C441.449 425.052 441.433 425.036 441.418 425.005L439.608 420.01Z" fill="white"/>
<path d="M433.593 419.5C433.593 421.835 434.954 423.861 436.918 424.82L434.103 417.088C433.778 417.83 433.593 418.634 433.593 419.5Z" fill="white"/>
<path d="M443.49 419.206C443.49 418.479 443.227 417.969 443.01 417.582C442.716 417.103 442.423 416.686 442.423 416.191C442.423 415.649 442.84 415.139 443.412 415.139C443.443 415.139 443.459 415.139 443.49 415.139C442.438 414.18 441.031 413.593 439.5 413.593C437.428 413.593 435.618 414.66 434.567 416.253C434.706 416.253 434.83 416.253 434.953 416.253C435.572 416.253 436.531 416.175 436.531 416.175C436.856 416.16 436.886 416.624 436.562 416.655C436.562 416.655 436.237 416.686 435.881 416.716L438.031 423.134L439.33 419.253L438.402 416.732C438.077 416.716 437.783 416.67 437.783 416.67C437.459 416.655 437.505 416.16 437.814 416.191C437.814 416.191 438.789 416.268 439.376 416.268C439.995 416.268 440.953 416.191 440.953 416.191C441.278 416.175 441.309 416.639 440.984 416.67C440.984 416.67 440.66 416.701 440.304 416.732L442.438 423.088L443.026 421.124C443.289 420.289 443.49 419.701 443.49 419.206Z" fill="white"/>
<path d="M444.681 416.67C444.712 416.856 444.727 417.057 444.727 417.273C444.727 417.876 444.619 418.541 444.279 419.392L442.469 424.603C444.232 423.582 445.407 421.68 445.407 419.5C445.407 418.464 445.144 417.505 444.681 416.67Z" fill="white"/>
<path d="M439.5 412C435.356 412 432 415.356 432 419.5C432 423.644 435.356 427 439.5 427C443.644 427 447 423.644 447 419.5C447 415.356 443.644 412 439.5 412ZM439.5 426.072C435.881 426.072 432.928 423.119 432.928 419.5C432.928 415.881 435.881 412.928 439.5 412.928C443.119 412.928 446.072 415.881 446.072 419.5C446.072 423.119 443.119 426.072 439.5 426.072Z" fill="white"/>
</g>
<g filter="url(#filter5_d)">
<path d="M423 59.2881V112.002C423 168.172 488.571 192.655 491.386 193.651C492.675 194.116 494.086 194.116 495.375 193.651C498.19 192.655 563.761 168.172 563.761 112.002V59.2881C563.761 58.0844 563.389 56.91 562.696 55.9249C562.003 54.9397 561.024 54.1916 559.89 53.7824L495.375 30.3538C494.086 29.8885 492.675 29.8885 491.386 30.3538L426.871 53.7824C425.737 54.1916 424.758 54.9397 424.065 55.9249C423.372 56.91 423.001 58.0844 423 59.2881Z" fill="url(#paint8_linear)"/>
</g>
<path d="M484.531 131.719L467.448 114.635L473.854 108.229L484.531 118.906L510.156 93.2813L516.562 99.6875L484.531 131.719Z" fill="white"/>
<g filter="url(#filter6_d)">
<rect x="405" y="311" width="173.868" height="51.044" rx="12" fill="white"/>
<path d="M439.87 339.187L436.665 342.392C436.842 342.869 437.16 343.281 437.577 343.572C437.995 343.864 438.491 344.02 439 344.022C440.378 344.022 441.5 342.9 441.5 341.522C441.499 341.013 441.342 340.516 441.051 340.099C440.759 339.682 440.347 339.363 439.87 339.187Z" fill="#FB4247"/>
<path d="M434.875 337.397C435.415 336.853 436.058 336.423 436.766 336.129C437.474 335.836 438.234 335.686 439 335.688C439.262 335.688 439.52 335.712 439.776 335.746L441.179 334.343C440.472 334.129 439.738 334.021 439 334.022C438.015 334.019 437.039 334.212 436.128 334.589C435.218 334.966 434.391 335.52 433.697 336.218L433.107 336.808L434.286 337.986L434.875 337.397Z" fill="#FB4247"/>
<path d="M443.515 335.542L442.325 336.732C442.607 336.928 442.876 337.148 443.125 337.397L443.714 337.986L444.892 336.808L444.303 336.218C444.056 335.975 443.793 335.749 443.515 335.542Z" fill="#FB4247"/>
<path d="M431.34 333.862C432.343 332.852 433.537 332.052 434.852 331.507C436.167 330.963 437.577 330.684 439 330.688C440.67 330.688 442.277 331.075 443.736 331.786L444.978 330.543C443.145 329.542 441.089 329.018 439 329.022C437.358 329.017 435.731 329.339 434.214 329.967C432.697 330.596 431.319 331.519 430.161 332.683L429.572 333.273L430.751 334.451L431.34 333.862Z" fill="#FB4247"/>
<path d="M447.07 331.986L445.892 333.164C446.157 333.383 446.414 333.615 446.66 333.861L447.25 334.45L448.428 333.272L447.839 332.683C447.592 332.44 447.336 332.208 447.07 331.986Z" fill="#FB4247"/>
<path d="M431.155 343.188L447.333 327.01L448.511 328.188L432.333 344.367L431.155 343.188Z" fill="#FB4247"/>
<path d="M463.482 331.71H465.582L469.572 342H467.802L466.857 339.495H462.117L461.187 342H459.477L463.482 331.71ZM466.317 338.07L465.192 335.055L464.517 333.135H464.442L464.307 333.525C464.137 334.045 463.962 334.545 463.782 335.025L462.642 338.07H466.317ZM473.151 342.18C472.151 342.18 471.381 341.845 470.841 341.175C470.301 340.495 470.031 339.455 470.031 338.055C470.031 336.675 470.301 335.645 470.841 334.965C471.381 334.275 472.116 333.93 473.046 333.93C474.136 333.93 474.931 334.29 475.431 335.01H475.521V331.155H477.066V342H475.836L475.686 340.95H475.581C475.331 341.35 474.991 341.655 474.561 341.865C474.141 342.075 473.671 342.18 473.151 342.18ZM473.586 340.875C474.256 340.875 474.746 340.645 475.056 340.185C475.366 339.725 475.521 339.045 475.521 338.145V338.025C475.521 336.165 474.876 335.235 473.586 335.235C472.876 335.235 472.371 335.45 472.071 335.88C471.771 336.3 471.621 337.01 471.621 338.01V338.145C471.621 339.125 471.771 339.825 472.071 340.245C472.371 340.665 472.876 340.875 473.586 340.875ZM478.96 334.11H480.205L480.355 335.16H480.46C480.73 334.76 481.06 334.455 481.45 334.245C481.84 334.035 482.285 333.93 482.785 333.93C483.805 333.93 484.49 334.34 484.84 335.16H484.93C485.2 334.77 485.545 334.47 485.965 334.26C486.385 334.04 486.845 333.93 487.345 333.93C488.085 333.93 488.665 334.13 489.085 334.53C489.505 334.92 489.715 335.555 489.715 336.435V342H488.17V336.735C488.17 336.195 488.05 335.815 487.81 335.595C487.58 335.365 487.255 335.25 486.835 335.25C486.345 335.25 485.935 335.445 485.605 335.835C485.275 336.225 485.11 336.735 485.11 337.365V342H483.565V336.735C483.565 336.195 483.45 335.815 483.22 335.595C483 335.365 482.68 335.25 482.26 335.25C481.77 335.25 481.355 335.445 481.015 335.835C480.675 336.225 480.505 336.735 480.505 337.365V342H478.96V334.11ZM491.554 331.155H493.084V332.73H491.554V331.155ZM491.554 334.11H493.099V342H491.554V334.11ZM494.993 334.11H496.238L496.388 335.16H496.493C496.773 334.76 497.133 334.455 497.573 334.245C498.023 334.035 498.528 333.93 499.088 333.93C500.758 333.93 501.593 334.835 501.593 336.645V342H500.048V336.84C500.048 336.25 499.913 335.84 499.643 335.61C499.383 335.37 498.998 335.25 498.488 335.25C498.138 335.25 497.813 335.34 497.513 335.52C497.213 335.69 496.973 335.935 496.793 336.255C496.623 336.575 496.538 336.945 496.538 337.365V342H494.993V334.11ZM512.281 342.18C510.641 342.18 509.371 341.735 508.471 340.845C507.571 339.945 507.121 338.615 507.121 336.855C507.121 335.095 507.571 333.77 508.471 332.88C509.371 331.98 510.641 331.53 512.281 331.53C513.931 331.53 515.206 331.98 516.106 332.88C517.006 333.77 517.456 335.095 517.456 336.855C517.456 338.615 517.006 339.945 516.106 340.845C515.206 341.735 513.931 342.18 512.281 342.18ZM512.281 340.77C514.591 340.77 515.746 339.5 515.746 336.96V336.78C515.736 334.22 514.581 332.94 512.281 332.94C509.991 332.94 508.841 334.22 508.831 336.78V336.96C508.831 339.5 509.981 340.77 512.281 340.77ZM519.246 335.385H518.106V334.11H519.246V332.955C519.246 332.405 519.386 331.95 519.666 331.59C519.956 331.22 520.431 331.035 521.091 331.035C521.291 331.035 521.501 331.055 521.721 331.095C521.941 331.135 522.126 331.18 522.276 331.23V332.31H521.511C521.031 332.31 520.791 332.54 520.791 333V334.11H523.371V332.955C523.371 332.405 523.511 331.95 523.791 331.59C524.081 331.22 524.556 331.035 525.216 331.035C525.416 331.035 525.626 331.055 525.846 331.095C526.066 331.135 526.251 331.18 526.401 331.23V332.31H525.621C525.151 332.31 524.916 332.54 524.916 333V334.11H526.401V335.385H524.916V342H523.371V335.385H520.791V342H519.246V335.385ZM527.541 331.155H529.086V342H527.541V331.155ZM530.97 331.155H532.5V332.73H530.97V331.155ZM530.97 334.11H532.515V342H530.97V334.11ZM534.409 334.11H535.654L535.804 335.16H535.909C536.189 334.76 536.549 334.455 536.989 334.245C537.439 334.035 537.944 333.93 538.504 333.93C540.174 333.93 541.009 334.835 541.009 336.645V342H539.464V336.84C539.464 336.25 539.329 335.84 539.059 335.61C538.799 335.37 538.414 335.25 537.904 335.25C537.554 335.25 537.229 335.34 536.929 335.52C536.629 335.69 536.389 335.935 536.209 336.255C536.039 336.575 535.954 336.945 535.954 337.365V342H534.409V334.11ZM546.173 342.18C544.903 342.18 543.958 341.845 543.338 341.175C542.718 340.505 542.408 339.465 542.408 338.055C542.408 336.645 542.718 335.605 543.338 334.935C543.958 334.265 544.903 333.93 546.173 333.93C547.323 333.93 548.183 334.245 548.753 334.875C549.323 335.495 549.608 336.485 549.608 337.845V338.445H543.998C544.038 339.295 544.228 339.925 544.568 340.335C544.918 340.735 545.458 340.935 546.188 340.935C546.758 340.935 547.218 340.8 547.568 340.53C547.918 340.26 548.093 339.845 548.093 339.285H549.608C549.608 340.225 549.288 340.945 548.648 341.445C548.018 341.935 547.193 342.18 546.173 342.18ZM548.003 337.275C548.003 335.875 547.393 335.175 546.173 335.175C545.493 335.175 544.983 335.345 544.643 335.685C544.303 336.015 544.098 336.545 544.028 337.275H548.003Z" fill="#FB4247"/>
</g>
<defs>
<filter id="filter0_d" x="70" y="38" width="534" height="582" filterUnits="userSpaceOnUse" color-interpolation-filters="sRGB">
<feFlood flood-opacity="0" result="BackgroundImageFix"/>
<feColorMatrix in="SourceAlpha" type="matrix" values="0 0 0 0 0 0 0 0 0 0 0 0 0 0 0 0 0 0 127 0"/>
<feMorphology radius="8" operator="erode" in="SourceAlpha" result="effect1_dropShadow"/>
<feOffset dy="24"/>
<feGaussianBlur stdDeviation="50"/>
<feColorMatrix type="matrix" values="0 0 0 0 0 0 0 0 0 0 0 0 0 0 0 0 0 0 0.1 0"/>
<feBlend mode="normal" in2="BackgroundImageFix" result="effect1_dropShadow"/>
<feBlend mode="normal" in="SourceGraphic" in2="effect1_dropShadow" result="shape"/>
</filter>
<filter id="filter1_d" x="69.9961" y="38" width="662.997" height="543" filterUnits="userSpaceOnUse" color-interpolation-filters="sRGB">
<feFlood flood-opacity="0" result="BackgroundImageFix"/>
<feColorMatrix in="SourceAlpha" type="matrix" values="0 0 0 0 0 0 0 0 0 0 0 0 0 0 0 0 0 0 127 0"/>
<feMorphology radius="8" operator="erode" in="SourceAlpha" result="effect1_dropShadow"/>
<feOffset dy="24"/>
<feGaussianBlur stdDeviation="50"/>
<feColorMatrix type="matrix" values="0 0 0 0 0 0 0 0 0 0 0 0 0 0 0 0 0 0 0.1 0"/>
<feBlend mode="normal" in2="BackgroundImageFix" result="effect1_dropShadow"/>
<feBlend mode="normal" in="SourceGraphic" in2="effect1_dropShadow" result="shape"/>
</filter>
<filter id="filter2_b" x="185.996" y="355" width="220" height="218" filterUnits="userSpaceOnUse" color-interpolation-filters="sRGB">
<feFlood flood-opacity="0" result="BackgroundImageFix"/>
<feGaussianBlur in="BackgroundImage" stdDeviation="6"/>
<feComposite in2="SourceAlpha" operator="in" result="effect1_backgroundBlur"/>
<feBlend mode="normal" in="SourceGraphic" in2="effect1_backgroundBlur" result="shape"/>
</filter>
<filter id="filter3_d" x="186" y="403" width="147" height="37" filterUnits="userSpaceOnUse" color-interpolation-filters="sRGB">
<feFlood flood-opacity="0" result="BackgroundImageFix"/>
<feColorMatrix in="SourceAlpha" type="matrix" values="0 0 0 0 0 0 0 0 0 0 0 0 0 0 0 0 0 0 127 0"/>
<feOffset dy="2"/>
<feGaussianBlur stdDeviation="1"/>
<feColorMatrix type="matrix" values="0 0 0 0 0.184314 0 0 0 0 0.223529 0 0 0 0 0.352941 0 0 0 0.03 0"/>
<feBlend mode="normal" in2="BackgroundImageFix" result="effect1_dropShadow"/>
<feBlend mode="normal" in="SourceGraphic" in2="effect1_dropShadow" result="shape"/>
</filter>
<filter id="filter4_d" x="341" y="403" width="147" height="37" filterUnits="userSpaceOnUse" color-interpolation-filters="sRGB">
<feFlood flood-opacity="0" result="BackgroundImageFix"/>
<feColorMatrix in="SourceAlpha" type="matrix" values="0 0 0 0 0 0 0 0 0 0 0 0 0 0 0 0 0 0 127 0"/>
<feOffset dy="2"/>
<feGaussianBlur stdDeviation="1"/>
<feColorMatrix type="matrix" values="0 0 0 0 0.184314 0 0 0 0 0.223529 0 0 0 0 0.352941 0 0 0 0.03 0"/>
<feBlend mode="normal" in2="BackgroundImageFix" result="effect1_dropShadow"/>
<feBlend mode="normal" in="SourceGraphic" in2="effect1_dropShadow" result="shape"/>
</filter>
<filter id="filter5_d" x="363" y="0.00485229" width="260.761" height="283.995" filterUnits="userSpaceOnUse" color-interpolation-filters="sRGB">
<feFlood flood-opacity="0" result="BackgroundImageFix"/>
<feColorMatrix in="SourceAlpha" type="matrix" values="0 0 0 0 0 0 0 0 0 0 0 0 0 0 0 0 0 0 127 0"/>
<feOffset dy="30"/>
<feGaussianBlur stdDeviation="30"/>
<feColorMatrix type="matrix" values="0 0 0 0 0 0 0 0 0 0 0 0 0 0 0 0 0 0 0.12 0"/>
<feBlend mode="normal" in2="BackgroundImageFix" result="effect1_dropShadow"/>
<feBlend mode="normal" in="SourceGraphic" in2="effect1_dropShadow" result="shape"/>
</filter>
<filter id="filter6_d" x="325" y="251" width="333.868" height="211.044" filterUnits="userSpaceOnUse" color-interpolation-filters="sRGB">
<feFlood flood-opacity="0" result="BackgroundImageFix"/>
<feColorMatrix in="SourceAlpha" type="matrix" values="0 0 0 0 0 0 0 0 0 0 0 0 0 0 0 0 0 0 127 0"/>
<feOffset dy="20"/>
<feGaussianBlur stdDeviation="40"/>
<feColorMatrix type="matrix" values="0 0 0 0 0 0 0 0 0 0 0 0 0 0 0 0 0 0 0.12 0"/>
<feBlend mode="normal" in2="BackgroundImageFix" result="effect1_dropShadow"/>
<feBlend mode="normal" in="SourceGraphic" in2="effect1_dropShadow" result="shape"/>
</filter>
<linearGradient id="paint0_linear" x1="-247.882" y1="117.878" x2="228.473" y2="117.953" gradientUnits="userSpaceOnUse">
<stop stop-color="#DBD6D8"/>
<stop offset="1" stop-color="#DBD6D8" stop-opacity="0"/>
</linearGradient>
<linearGradient id="paint1_linear" x1="598.867" y1="427.082" x2="89.6494" y2="425.788" gradientUnits="userSpaceOnUse">
<stop stop-color="#AEB0C0" stop-opacity="0.58"/>
<stop offset="1" stop-color="white" stop-opacity="0"/>
</linearGradient>
<linearGradient id="paint2_linear" x1="415.998" y1="346" x2="652.623" y2="346.003" gradientUnits="userSpaceOnUse">
<stop stop-color="#DBD6D8" stop-opacity="0"/>
<stop offset="1" stop-color="#DBD6D8" stop-opacity="0.43"/>
</linearGradient>
<linearGradient id="paint3_linear" x1="15.3503" y1="118.944" x2="108.376" y2="118.595" gradientUnits="userSpaceOnUse">
<stop stop-color="white"/>
<stop offset="1" stop-color="white"/>
</linearGradient>
<linearGradient id="paint4_linear" x1="454.232" y1="229" x2="560.278" y2="229.001" gradientUnits="userSpaceOnUse">
<stop stop-color="#DBD6D8" stop-opacity="0"/>
<stop offset="1" stop-color="#DBD6D8" stop-opacity="0.43"/>
</linearGradient>
<linearGradient id="paint5_linear" x1="27.3855" y1="522.5" x2="115.23" y2="522.501" gradientUnits="userSpaceOnUse">
<stop stop-color="#DBD6D8" stop-opacity="0.43"/>
<stop offset="1" stop-color="#DBD6D8" stop-opacity="0"/>
</linearGradient>
<radialGradient id="paint6_radial" cx="0" cy="0" r="1" gradientUnits="userSpaceOnUse" gradientTransform="translate(279.512 400.399) rotate(-28.3959) scale(270.554 464.737)">
<stop stop-color="#1F2742"/>
<stop offset="1" stop-color="#2F395A"/>
</radialGradient>
<linearGradient id="paint7_linear" x1="343" y1="419" x2="486" y2="419" gradientUnits="userSpaceOnUse">
<stop stop-color="#2CCFE6"/>
<stop offset="1" stop-color="#1AC3DA"/>
</linearGradient>
<linearGradient id="paint8_linear" x1="521.5" y1="122.5" x2="396" y2="4.00004" gradientUnits="userSpaceOnUse">
<stop stop-color="#1CC5DC"/>
<stop offset="1" stop-color="white"/>
</linearGradient>
<clipPath id="clip0">
<rect x="162" y="105" width="350" height="358" rx="8" fill="white"/>
</clipPath>
<clipPath id="clip1">
<rect width="20" height="20" fill="white" transform="translate(395.996 178)"/>
</clipPath>
<clipPath id="clip2">
<rect width="29" height="7" fill="white" transform="translate(170.996 113)"/>
</clipPath>
</defs>
</svg>
