<svg width="839" height="662" viewBox="0 0 839 662" fill="none" xmlns="http://www.w3.org/2000/svg">
<rect x="47.998" y="254" width="111" height="37" rx="18.5" fill="url(#paint0_linear)"/>
<rect opacity="0.5" x="176" y="447" width="299" height="122" rx="61" fill="url(#paint1_linear)"/>
<rect x="6" y="345" width="532" height="162" rx="81" stroke="url(#paint2_linear)" stroke-linecap="round"/>
<rect x="77" y="130" width="132" height="86" rx="43" fill="url(#paint3_linear)"/>
<path fill-rule="evenodd" clip-rule="evenodd" d="M697.365 86.9995C697.365 122.346 668.711 151 633.365 151L458 151C422.654 151 394 122.346 394 86.9995C394 51.6533 422.654 22.9995 458 22.9995L633.365 22.9995C668.711 22.9995 697.365 51.6533 697.365 86.9995Z" fill="url(#paint4_linear)"/>
<circle cx="630.996" cy="86.9995" r="45" stroke="url(#paint5_linear)" stroke-width="2"/>
<g filter="url(#filter0_b)">
<circle cx="274.426" cy="212.425" r="64" transform="rotate(30 274.426 212.425)" fill="url(#paint6_linear)"/>
</g>
<g filter="url(#filter1_d)">
<g clip-path="url(#clip0)">
<rect x="397" y="185" width="350" height="325" rx="7" fill="white"/>
<path d="M440.182 465.767C439.595 465.767 439.108 465.654 438.719 465.426C438.338 465.192 438.044 464.788 437.839 464.216C437.634 463.644 437.531 462.86 437.531 461.862C437.531 460.865 437.634 460.08 437.839 459.508C438.044 458.936 438.338 458.537 438.719 458.309C439.108 458.075 439.595 457.957 440.182 457.957C440.761 457.957 441.245 458.075 441.634 458.309C442.023 458.544 442.32 458.947 442.525 459.519C442.73 460.084 442.833 460.865 442.833 461.862C442.833 462.86 442.73 463.644 442.525 464.216C442.32 464.781 442.023 465.181 441.634 465.415C441.245 465.65 440.761 465.767 440.182 465.767ZM440.182 464.964C440.615 464.964 440.952 464.851 441.194 464.623C441.436 464.396 441.601 464.066 441.689 463.633C441.784 463.201 441.832 462.647 441.832 461.972V461.862C441.832 461.166 441.784 460.594 441.689 460.146C441.601 459.699 441.436 459.358 441.194 459.123C440.952 458.881 440.615 458.76 440.182 458.76C439.749 458.76 439.412 458.874 439.17 459.101C438.928 459.329 438.759 459.659 438.664 460.091C438.576 460.524 438.532 461.078 438.532 461.752V461.862C438.532 462.559 438.576 463.131 438.664 463.578C438.759 464.026 438.928 464.37 439.17 464.612C439.412 464.847 439.749 464.964 440.182 464.964Z" fill="#AEB0C0"/>
<path d="M426.546 413.923H428.493V408.555H426.535V407.983C426.887 407.947 427.309 407.855 427.8 407.708C428.299 407.554 428.728 407.378 429.087 407.18H429.461V413.923H431.265V414.726H426.546V413.923ZM434.682 414.858C434.096 414.858 433.608 414.745 433.219 414.517C432.838 414.283 432.545 413.879 432.339 413.307C432.134 412.735 432.031 411.951 432.031 410.953C432.031 409.956 432.134 409.171 432.339 408.599C432.545 408.027 432.838 407.628 433.219 407.4C433.608 407.166 434.096 407.048 434.682 407.048C435.262 407.048 435.746 407.166 436.134 407.4C436.523 407.635 436.82 408.038 437.025 408.61C437.231 409.175 437.333 409.956 437.333 410.953C437.333 411.951 437.231 412.735 437.025 413.307C436.82 413.872 436.523 414.272 436.134 414.506C435.746 414.741 435.262 414.858 434.682 414.858ZM434.682 414.055C435.115 414.055 435.452 413.942 435.694 413.714C435.936 413.487 436.101 413.157 436.189 412.724C436.285 412.292 436.332 411.738 436.332 411.063V410.953C436.332 410.257 436.285 409.685 436.189 409.237C436.101 408.79 435.936 408.449 435.694 408.214C435.452 407.972 435.115 407.851 434.682 407.851C434.25 407.851 433.912 407.965 433.67 408.192C433.428 408.42 433.26 408.75 433.164 409.182C433.076 409.615 433.032 410.169 433.032 410.843V410.953C433.032 411.65 433.076 412.222 433.164 412.669C433.26 413.117 433.428 413.461 433.67 413.703C433.912 413.938 434.25 414.055 434.682 414.055ZM438.474 406.773H439.442V411.778L441.895 408.94H443.094L441.103 411.217L443.204 414.726H442.082L440.498 411.91L439.442 412.911V414.726H438.474V406.773Z" fill="#AEB0C0"/>
<path d="M425.941 363.498C425.941 363.102 426.044 362.739 426.249 362.409C426.454 362.072 426.7 361.779 426.986 361.529C427.279 361.273 427.668 360.968 428.152 360.616C428.541 360.33 428.856 360.088 429.098 359.89C429.34 359.685 429.542 359.476 429.703 359.263C429.952 358.933 430.077 358.596 430.077 358.251C430.077 357.907 429.967 357.61 429.747 357.36C429.534 357.104 429.16 356.975 428.625 356.975C428.075 356.975 427.672 357.111 427.415 357.382C427.158 357.646 427.03 357.991 427.03 358.416V358.867H426.062C426.04 358.743 426.029 358.596 426.029 358.427C426.029 357.665 426.278 357.093 426.777 356.711C427.276 356.33 427.91 356.139 428.68 356.139C429.399 356.139 429.978 356.323 430.418 356.689C430.858 357.049 431.078 357.599 431.078 358.339C431.078 358.735 430.968 359.106 430.748 359.45C430.528 359.795 430.26 360.107 429.945 360.385C429.637 360.657 429.234 360.972 428.735 361.331C428.368 361.595 428.079 361.815 427.866 361.991C427.661 362.16 427.481 362.332 427.327 362.508C427.224 362.618 427.14 362.747 427.074 362.893H431.122V363.817H425.941V363.498ZM434.682 363.949C434.096 363.949 433.608 363.836 433.219 363.608C432.838 363.374 432.545 362.97 432.339 362.398C432.134 361.826 432.031 361.042 432.031 360.044C432.031 359.047 432.134 358.262 432.339 357.69C432.545 357.118 432.838 356.719 433.219 356.491C433.608 356.257 434.096 356.139 434.682 356.139C435.262 356.139 435.746 356.257 436.134 356.491C436.523 356.726 436.82 357.129 437.025 357.701C437.231 358.266 437.333 359.047 437.333 360.044C437.333 361.042 437.231 361.826 437.025 362.398C436.82 362.963 436.523 363.363 436.134 363.597C435.746 363.832 435.262 363.949 434.682 363.949ZM434.682 363.146C435.115 363.146 435.452 363.033 435.694 362.805C435.936 362.578 436.101 362.248 436.189 361.815C436.285 361.383 436.332 360.829 436.332 360.154V360.044C436.332 359.348 436.285 358.776 436.189 358.328C436.101 357.881 435.936 357.54 435.694 357.305C435.452 357.063 435.115 356.942 434.682 356.942C434.25 356.942 433.912 357.056 433.67 357.283C433.428 357.511 433.26 357.841 433.164 358.273C433.076 358.706 433.032 359.26 433.032 359.934V360.044C433.032 360.741 433.076 361.313 433.164 361.76C433.26 362.208 433.428 362.552 433.67 362.794C433.912 363.029 434.25 363.146 434.682 363.146ZM438.474 355.864H439.442V360.869L441.895 358.031H443.094L441.103 360.308L443.204 363.817H442.082L440.498 361.001L439.442 362.002V363.817H438.474V355.864Z" fill="#AEB0C0"/>
<path d="M428.603 313.04C427.738 313.04 427.07 312.839 426.601 312.435C426.132 312.025 425.897 311.471 425.897 310.774V310.686H426.876V310.807C426.876 311.269 427.019 311.625 427.305 311.874C427.591 312.116 427.994 312.237 428.515 312.237C429.05 312.237 429.468 312.12 429.769 311.885C430.077 311.651 430.231 311.295 430.231 310.818C430.231 310.327 430.066 309.982 429.736 309.784C429.413 309.579 428.992 309.476 428.471 309.476H427.679V308.673H428.504C428.944 308.673 429.314 308.56 429.615 308.332C429.916 308.105 430.066 307.779 430.066 307.353C430.066 306.913 429.923 306.583 429.637 306.363C429.358 306.143 429.003 306.033 428.57 306.033C428.108 306.033 427.738 306.151 427.459 306.385C427.18 306.613 427.041 306.95 427.041 307.397V307.496H426.062V307.298C426.062 306.888 426.168 306.528 426.381 306.22C426.594 305.905 426.887 305.663 427.261 305.494C427.642 305.318 428.075 305.23 428.559 305.23C429.322 305.23 429.93 305.41 430.385 305.769C430.84 306.129 431.067 306.638 431.067 307.298C431.067 307.716 430.957 308.061 430.737 308.332C430.517 308.596 430.209 308.816 429.813 308.992V309.036C430.246 309.161 430.59 309.381 430.847 309.696C431.104 310.012 431.232 310.408 431.232 310.884C431.232 311.324 431.118 311.709 430.891 312.039C430.671 312.362 430.363 312.611 429.967 312.787C429.571 312.956 429.116 313.04 428.603 313.04ZM434.682 313.04C434.096 313.04 433.608 312.927 433.219 312.699C432.838 312.465 432.545 312.061 432.339 311.489C432.134 310.917 432.031 310.133 432.031 309.135C432.031 308.138 432.134 307.353 432.339 306.781C432.545 306.209 432.838 305.81 433.219 305.582C433.608 305.348 434.096 305.23 434.682 305.23C435.262 305.23 435.746 305.348 436.134 305.582C436.523 305.817 436.82 306.22 437.025 306.792C437.231 307.357 437.333 308.138 437.333 309.135C437.333 310.133 437.231 310.917 437.025 311.489C436.82 312.054 436.523 312.454 436.134 312.688C435.746 312.923 435.262 313.04 434.682 313.04ZM434.682 312.237C435.115 312.237 435.452 312.124 435.694 311.896C435.936 311.669 436.101 311.339 436.189 310.906C436.285 310.474 436.332 309.92 436.332 309.245V309.135C436.332 308.439 436.285 307.867 436.189 307.419C436.101 306.972 435.936 306.631 435.694 306.396C435.452 306.154 435.115 306.033 434.682 306.033C434.25 306.033 433.912 306.147 433.67 306.374C433.428 306.602 433.26 306.932 433.164 307.364C433.076 307.797 433.032 308.351 433.032 309.025V309.135C433.032 309.832 433.076 310.404 433.164 310.851C433.26 311.299 433.428 311.643 433.67 311.885C433.912 312.12 434.25 312.237 434.682 312.237ZM438.474 304.955H439.442V309.96L441.895 307.122H443.094L441.103 309.399L443.204 312.908H442.082L440.498 310.092L439.442 311.093V312.908H438.474V304.955Z" fill="#AEB0C0"/>
<path d="M429.296 261.049H425.787V260.235C426.264 259.421 426.671 258.607 427.008 257.793C427.345 256.979 427.613 256.125 427.811 255.23H428.856C428.717 255.854 428.511 256.514 428.24 257.21C427.969 257.9 427.69 258.523 427.404 259.08C427.125 259.638 426.902 260.026 426.733 260.246H429.296V257.771C429.45 257.375 429.6 256.902 429.747 256.352H430.264V260.246H431.265V261.049H430.264V262.908H429.296V261.049ZM434.682 263.04C434.096 263.04 433.608 262.927 433.219 262.699C432.838 262.465 432.545 262.061 432.339 261.489C432.134 260.917 432.031 260.133 432.031 259.135C432.031 258.138 432.134 257.353 432.339 256.781C432.545 256.209 432.838 255.81 433.219 255.582C433.608 255.348 434.096 255.23 434.682 255.23C435.262 255.23 435.746 255.348 436.134 255.582C436.523 255.817 436.82 256.22 437.025 256.792C437.231 257.357 437.333 258.138 437.333 259.135C437.333 260.133 437.231 260.917 437.025 261.489C436.82 262.054 436.523 262.454 436.134 262.688C435.746 262.923 435.262 263.04 434.682 263.04ZM434.682 262.237C435.115 262.237 435.452 262.124 435.694 261.896C435.936 261.669 436.101 261.339 436.189 260.906C436.285 260.474 436.332 259.92 436.332 259.245V259.135C436.332 258.439 436.285 257.867 436.189 257.419C436.101 256.972 435.936 256.631 435.694 256.396C435.452 256.154 435.115 256.033 434.682 256.033C434.25 256.033 433.912 256.147 433.67 256.374C433.428 256.602 433.26 256.932 433.164 257.364C433.076 257.797 433.032 258.351 433.032 259.025V259.135C433.032 259.832 433.076 260.404 433.164 260.851C433.26 261.299 433.428 261.643 433.67 261.885C433.912 262.12 434.25 262.237 434.682 262.237ZM438.474 254.955H439.442V259.96L441.895 257.122H443.094L441.103 259.399L443.204 262.908H442.082L440.498 260.092L439.442 261.093V262.908H438.474V254.955Z" fill="#AEB0C0"/>
<path d="M456.774 463.375H709" stroke="#E7EEEE"/>
<path d="M456.774 412.375H709" stroke="#E7EEEE"/>
<path d="M456.774 361.375H709" stroke="#E7EEEE"/>
<path d="M456.774 310.375H709" stroke="#E7EEEE"/>
<path d="M456.774 256.375H709" stroke="#E7EEEE"/>
<path d="M542 395.373H458V463H542H626H710V310C710 310 686.682 345.431 633.726 345.431C580.769 345.431 581.12 395.373 542 395.373Z" fill="url(#paint7_linear)"/>
<path d="M458 395.68C458 395.68 502.88 395.68 542 395.68C581.12 395.68 580.769 345.558 633.726 345.558C679 345.558 694 326.83 710 310" stroke="#1AC3DA" stroke-width="1.5"/>
<g filter="url(#filter2_d)">
<ellipse cx="709.09" cy="310.437" rx="12.0895" ry="12.1125" fill="white"/>
<path d="M720.68 310.437C720.68 316.851 715.49 322.049 709.09 322.049C702.69 322.049 697.5 316.851 697.5 310.437C697.5 304.023 702.69 298.824 709.09 298.824C715.49 298.824 720.68 304.023 720.68 310.437Z" stroke="#B0E3EB"/>
</g>
<ellipse cx="709.09" cy="310.437" rx="4.45404" ry="4.4625" fill="#1AC3DA"/>
<line x1="709.5" y1="323" x2="709.5" y2="464" stroke="#D4C2EB" stroke-dasharray="5 5"/>
<circle cx="709.734" cy="463.5" r="2.5" fill="#1AC3DA"/>
<path d="M682 310.5L678.784 315V306L682 310.5Z" fill="black" fill-opacity="0.75"/>
<path d="M602.412 333C601.08 333 600 331.656 600 330L600 291C600 289.343 601.08 288 602.412 288H676.373C677.705 288 678.784 289.343 678.784 291V330C678.784 331.656 677.705 333 676.373 333L602.412 333Z" fill="black" fill-opacity="0.75"/>
<path d="M617.14 308.656C616.117 308.656 615.329 308.417 614.774 307.941C614.219 307.455 613.942 306.801 613.942 305.978V305.783H615.528V306.017C615.528 306.459 615.662 306.797 615.931 307.031C616.2 307.265 616.585 307.382 617.088 307.382C617.573 307.382 617.955 307.269 618.232 307.044C618.509 306.81 618.648 306.459 618.648 305.991C618.648 305.063 618.093 304.6 616.984 304.6H616.23V303.326H617.023C617.439 303.326 617.781 303.209 618.05 302.975C618.319 302.741 618.453 302.407 618.453 301.974C618.453 301.549 618.332 301.233 618.089 301.025C617.846 300.808 617.521 300.7 617.114 300.7C616.681 300.7 616.338 300.808 616.087 301.025C615.836 301.241 615.71 301.562 615.71 301.987V302.195H614.137V301.87C614.137 301.384 614.263 300.96 614.514 300.596C614.765 300.223 615.112 299.937 615.554 299.738C616.005 299.53 616.516 299.426 617.088 299.426C617.989 299.426 618.709 299.638 619.246 300.063C619.792 300.487 620.065 301.09 620.065 301.87C620.065 302.364 619.939 302.771 619.688 303.092C619.437 303.404 619.086 303.664 618.635 303.872V303.924C619.12 304.071 619.51 304.331 619.805 304.704C620.1 305.076 620.247 305.544 620.247 306.108C620.247 306.628 620.113 307.083 619.844 307.473C619.584 307.854 619.22 308.149 618.752 308.357C618.284 308.556 617.747 308.656 617.14 308.656ZM621.27 308.058C621.27 307.572 621.382 307.135 621.608 306.745C621.833 306.346 622.106 305.999 622.427 305.705C622.756 305.41 623.185 305.068 623.714 304.678C624.164 304.34 624.52 304.058 624.78 303.833C625.048 303.599 625.274 303.352 625.456 303.092C625.698 302.745 625.82 302.359 625.82 301.935C625.82 301.605 625.707 301.324 625.482 301.09C625.265 300.847 624.923 300.726 624.455 300.726C623.952 300.726 623.575 300.847 623.324 301.09C623.081 301.324 622.96 301.666 622.96 302.117V302.65H621.413C621.378 302.502 621.361 302.329 621.361 302.13C621.361 301.228 621.66 300.552 622.258 300.102C622.856 299.651 623.614 299.426 624.533 299.426C625.243 299.426 625.811 299.56 626.236 299.829C626.669 300.097 626.972 300.431 627.146 300.83C627.319 301.22 627.406 301.623 627.406 302.039C627.406 302.585 627.271 303.083 627.003 303.534C626.743 303.976 626.431 304.353 626.067 304.665C625.703 304.977 625.235 305.341 624.663 305.757C624.437 305.913 624.216 306.073 624 306.238C623.783 306.402 623.61 306.55 623.48 306.68C623.332 306.827 623.228 306.961 623.168 307.083H627.458V308.5H621.27V308.058ZM635.166 308.656C634.213 308.656 633.45 308.396 632.878 307.876C632.315 307.347 632.033 306.632 632.033 305.731H633.632C633.632 306.233 633.771 306.636 634.048 306.94C634.326 307.234 634.698 307.382 635.166 307.382C635.626 307.382 635.99 307.23 636.258 306.927C636.527 306.623 636.661 306.177 636.661 305.588C636.661 305.059 636.527 304.656 636.258 304.379C635.998 304.093 635.647 303.95 635.205 303.95C634.902 303.95 634.629 304.019 634.386 304.158C634.152 304.296 633.957 304.483 633.801 304.717L632.332 304.522L632.696 299.582H637.818V300.999H634.048L633.905 303.235C634.382 302.879 634.954 302.702 635.621 302.702C636.401 302.702 637.038 302.949 637.532 303.443C638.026 303.928 638.273 304.643 638.273 305.588C638.273 306.558 637.996 307.312 637.441 307.85C636.887 308.387 636.128 308.656 635.166 308.656ZM642.273 308.656C641.346 308.656 640.652 308.4 640.193 307.889C639.734 307.377 639.504 306.706 639.504 305.874H641.09C641.09 306.879 641.506 307.382 642.338 307.382C642.754 307.382 643.07 307.269 643.287 307.044C643.512 306.818 643.664 306.502 643.742 306.095C643.829 305.687 643.876 305.154 643.885 304.496C643.755 304.66 643.512 304.838 643.157 305.029C642.81 305.211 642.407 305.302 641.948 305.302C641.047 305.302 640.366 305.033 639.907 304.496C639.448 303.958 639.218 303.248 639.218 302.364C639.218 301.774 639.344 301.259 639.595 300.817C639.855 300.366 640.21 300.024 640.661 299.79C641.12 299.547 641.636 299.426 642.208 299.426C643.291 299.426 644.106 299.759 644.652 300.427C645.207 301.085 645.484 302.203 645.484 303.781C645.484 304.985 645.358 305.947 645.107 306.667C644.864 307.377 644.509 307.889 644.041 308.201C643.573 308.504 642.984 308.656 642.273 308.656ZM642.286 304.054C642.771 304.054 643.14 303.902 643.391 303.599C643.642 303.287 643.768 302.875 643.768 302.364C643.768 301.87 643.642 301.471 643.391 301.168C643.14 300.856 642.771 300.7 642.286 300.7C641.809 300.7 641.445 300.856 641.194 301.168C640.943 301.48 640.817 301.883 640.817 302.377C640.817 302.888 640.938 303.295 641.181 303.599C641.432 303.902 641.801 304.054 642.286 304.054ZM649.627 308.656C648.561 308.656 647.768 308.417 647.248 307.941C646.728 307.455 646.468 306.827 646.468 306.056C646.468 305.016 646.944 304.305 647.898 303.924C647.499 303.716 647.196 303.438 646.988 303.092C646.788 302.736 646.689 302.342 646.689 301.909C646.689 301.441 646.801 301.02 647.027 300.648C647.252 300.275 647.581 299.98 648.015 299.764C648.457 299.538 648.994 299.426 649.627 299.426C650.251 299.426 650.784 299.538 651.226 299.764C651.668 299.98 651.997 300.275 652.214 300.648C652.439 301.02 652.552 301.441 652.552 301.909C652.552 302.342 652.448 302.736 652.24 303.092C652.04 303.438 651.741 303.716 651.343 303.924C652.305 304.305 652.786 305.016 652.786 306.056C652.786 306.827 652.521 307.455 651.993 307.941C651.473 308.417 650.684 308.656 649.627 308.656ZM649.627 303.313C650.051 303.313 650.385 303.2 650.628 302.975C650.87 302.749 650.992 302.429 650.992 302.013C650.992 301.597 650.87 301.272 650.628 301.038C650.385 300.804 650.051 300.687 649.627 300.687C649.193 300.687 648.855 300.804 648.613 301.038C648.379 301.263 648.262 301.588 648.262 302.013C648.262 302.429 648.379 302.749 648.613 302.975C648.855 303.2 649.193 303.313 649.627 303.313ZM649.627 307.395C650.121 307.395 650.502 307.269 650.771 307.018C651.039 306.766 651.174 306.42 651.174 305.978C651.174 305.536 651.039 305.193 650.771 304.951C650.502 304.699 650.121 304.574 649.627 304.574C649.124 304.574 648.738 304.699 648.47 304.951C648.201 305.193 648.067 305.536 648.067 305.978C648.067 306.428 648.201 306.779 648.47 307.031C648.738 307.273 649.124 307.395 649.627 307.395Z" fill="white"/>
<path d="M613.66 315.14H614.69L616.5 320.13L616.84 321.05H616.89L617.21 320.17L619.03 315.14H620.01L617.46 322H616.21L613.66 315.14ZM620.664 314.77H621.534V315.72H620.664V314.77ZM620.664 316.74H621.544V322H620.664V316.74ZM624.681 322.12C624.194 322.12 623.788 322.05 623.461 321.91C623.141 321.763 622.904 321.573 622.751 321.34C622.598 321.106 622.521 320.853 622.521 320.58C622.521 320.5 622.521 320.446 622.521 320.42C622.528 320.386 622.531 320.366 622.531 320.36H623.401V320.46C623.401 320.773 623.524 321.01 623.771 321.17C624.018 321.323 624.338 321.4 624.731 321.4C625.071 321.4 625.351 321.333 625.571 321.2C625.798 321.06 625.911 320.866 625.911 320.62C625.911 320.426 625.848 320.27 625.721 320.15C625.594 320.023 625.438 319.926 625.251 319.86C625.064 319.786 624.811 319.71 624.491 319.63C624.104 319.53 623.788 319.43 623.541 319.33C623.301 319.23 623.094 319.083 622.921 318.89C622.754 318.69 622.671 318.433 622.671 318.12C622.671 317.66 622.858 317.296 623.231 317.03C623.611 316.756 624.121 316.62 624.761 316.62C625.161 316.62 625.508 316.686 625.801 316.82C626.094 316.946 626.314 317.12 626.461 317.34C626.614 317.553 626.691 317.793 626.691 318.06L626.681 318.25H625.821V318.16C625.821 317.926 625.728 317.733 625.541 317.58C625.361 317.426 625.068 317.35 624.661 317.35C624.261 317.35 623.981 317.423 623.821 317.57C623.661 317.71 623.581 317.873 623.581 318.06C623.581 318.213 623.638 318.34 623.751 318.44C623.864 318.54 624.004 318.62 624.171 318.68C624.338 318.74 624.571 318.806 624.871 318.88C625.284 318.986 625.621 319.093 625.881 319.2C626.141 319.3 626.361 319.456 626.541 319.67C626.728 319.876 626.821 320.153 626.821 320.5C626.821 321.04 626.624 321.446 626.231 321.72C625.844 321.986 625.328 322.12 624.681 322.12ZM627.881 314.77H628.751V315.72H627.881V314.77ZM627.881 316.74H628.761V322H627.881V316.74ZM631.288 322.11C630.928 322.11 630.664 322.003 630.498 321.79C630.331 321.576 630.248 321.313 630.248 321V317.47H629.608V316.74H630.258L630.448 315.28H631.128V316.74H632.018V317.47H631.128V320.92C631.128 321.233 631.274 321.39 631.568 321.39H632.018V321.97C631.931 322.01 631.818 322.043 631.678 322.07C631.538 322.096 631.408 322.11 631.288 322.11ZM634.991 322.12C634.184 322.12 633.578 321.896 633.171 321.45C632.764 320.996 632.561 320.303 632.561 319.37C632.561 318.436 632.764 317.746 633.171 317.3C633.578 316.846 634.184 316.62 634.991 316.62C635.798 316.62 636.404 316.846 636.811 317.3C637.218 317.746 637.421 318.436 637.421 319.37C637.421 320.303 637.218 320.996 636.811 321.45C636.404 321.896 635.798 322.12 634.991 322.12ZM634.991 321.39C635.524 321.39 635.911 321.236 636.151 320.93C636.391 320.616 636.511 320.11 636.511 319.41V319.33C636.511 318.63 636.391 318.126 636.151 317.82C635.911 317.506 635.524 317.35 634.991 317.35C634.458 317.35 634.071 317.506 633.831 317.82C633.591 318.126 633.471 318.63 633.471 319.33V319.41C633.471 320.11 633.591 320.616 633.831 320.93C634.071 321.236 634.458 321.39 634.991 321.39ZM638.438 316.74H639.108L639.208 317.53H639.268C639.368 317.27 639.518 317.053 639.718 316.88C639.918 316.706 640.181 316.62 640.508 316.62C640.688 316.62 640.844 316.646 640.978 316.7V317.55H640.608C640.234 317.55 639.924 317.66 639.678 317.88C639.438 318.093 639.318 318.43 639.318 318.89V322H638.438V316.74ZM643.568 322.12C643.081 322.12 642.674 322.05 642.348 321.91C642.028 321.763 641.791 321.573 641.638 321.34C641.484 321.106 641.408 320.853 641.408 320.58C641.408 320.5 641.408 320.446 641.408 320.42C641.414 320.386 641.418 320.366 641.418 320.36H642.288V320.46C642.288 320.773 642.411 321.01 642.658 321.17C642.904 321.323 643.224 321.4 643.618 321.4C643.958 321.4 644.238 321.333 644.458 321.2C644.684 321.06 644.798 320.866 644.798 320.62C644.798 320.426 644.734 320.27 644.608 320.15C644.481 320.023 644.324 319.926 644.138 319.86C643.951 319.786 643.698 319.71 643.378 319.63C642.991 319.53 642.674 319.43 642.428 319.33C642.188 319.23 641.981 319.083 641.808 318.89C641.641 318.69 641.558 318.433 641.558 318.12C641.558 317.66 641.744 317.296 642.118 317.03C642.498 316.756 643.008 316.62 643.648 316.62C644.048 316.62 644.394 316.686 644.688 316.82C644.981 316.946 645.201 317.12 645.348 317.34C645.501 317.553 645.578 317.793 645.578 318.06L645.568 318.25H644.708V318.16C644.708 317.926 644.614 317.733 644.428 317.58C644.248 317.426 643.954 317.35 643.548 317.35C643.148 317.35 642.868 317.423 642.708 317.57C642.548 317.71 642.468 317.873 642.468 318.06C642.468 318.213 642.524 318.34 642.638 318.44C642.751 318.54 642.891 318.62 643.058 318.68C643.224 318.74 643.458 318.806 643.758 318.88C644.171 318.986 644.508 319.093 644.768 319.2C645.028 319.3 645.248 319.456 645.428 319.67C645.614 319.876 645.708 320.153 645.708 320.5C645.708 321.04 645.511 321.446 645.118 321.72C644.731 321.986 644.214 322.12 643.568 322.12Z" fill="white"/>
</g>
</g>
<g filter="url(#filter3_d)">
<path d="M157.004 84.0004C157.004 75.1638 164.167 68.0004 173.004 68.0004H491.004C499.84 68.0004 507.004 75.1638 507.004 84.0004V355.662C507.004 362.932 502.175 369.268 495.139 371.096C458.381 380.645 347.969 409 333 409C318.017 409 206.037 380.593 168.918 371.07C161.858 369.259 157.004 362.911 157.004 355.622V84.0004Z" fill="white"/>
</g>
<g filter="url(#filter4_d)">
<g clip-path="url(#clip1)">
<circle cx="330.001" cy="234.002" r="22.5" stroke="#E3E1E2"/>
<path d="M302.945 322.29C301.681 322.29 300.529 322.106 299.489 321.738C298.449 321.37 297.617 320.81 296.993 320.058C296.369 319.29 296.057 318.346 296.057 317.226L296.081 316.722H299.177C299.161 316.818 299.153 316.962 299.153 317.154C299.153 317.954 299.497 318.578 300.185 319.026C300.873 319.474 301.817 319.698 303.017 319.698C304.297 319.698 305.249 319.514 305.873 319.146C306.497 318.778 306.809 318.266 306.809 317.61C306.809 317.098 306.625 316.674 306.257 316.338C305.889 316.002 305.433 315.738 304.889 315.546C304.345 315.338 303.577 315.098 302.585 314.826C301.273 314.474 300.209 314.138 299.393 313.818C298.593 313.482 297.905 312.994 297.329 312.354C296.753 311.698 296.465 310.842 296.465 309.786C296.465 308.314 297.073 307.194 298.289 306.426C299.505 305.642 301.097 305.25 303.065 305.25C304.953 305.25 306.489 305.65 307.673 306.45C308.873 307.234 309.473 308.426 309.473 310.026V310.314H306.449V310.05C306.449 309.362 306.137 308.826 305.513 308.442C304.905 308.042 304.081 307.842 303.041 307.842C301.953 307.842 301.097 308.002 300.473 308.322C299.865 308.642 299.561 309.09 299.561 309.666C299.561 310.098 299.737 310.466 300.089 310.77C300.441 311.058 300.881 311.298 301.409 311.49C301.953 311.666 302.681 311.874 303.593 312.114C304.921 312.466 306.001 312.81 306.833 313.146C307.681 313.482 308.401 313.978 308.993 314.634C309.601 315.29 309.905 316.138 309.905 317.178C309.905 318.938 309.281 320.234 308.033 321.066C306.785 321.882 305.089 322.29 302.945 322.29ZM312.689 309.378H315.065L315.305 311.058H315.449C315.865 310.418 316.409 309.93 317.081 309.594C317.753 309.258 318.497 309.09 319.313 309.09C320.913 309.09 322.153 309.634 323.033 310.722C323.913 311.81 324.353 313.474 324.353 315.714C324.353 317.89 323.913 319.53 323.033 320.634C322.153 321.738 320.977 322.29 319.505 322.29C317.745 322.29 316.481 321.706 315.713 320.538H315.569V326.154H312.689V309.378ZM318.449 319.818C319.505 319.818 320.257 319.506 320.705 318.882C321.153 318.242 321.377 317.234 321.377 315.858V315.546C321.377 314.154 321.153 313.146 320.705 312.522C320.257 311.882 319.505 311.562 318.449 311.562C317.457 311.562 316.729 311.898 316.265 312.57C315.801 313.242 315.569 314.234 315.569 315.546V315.834C315.569 317.146 315.801 318.138 316.265 318.81C316.729 319.482 317.457 319.818 318.449 319.818ZM332.148 322.29C330.1 322.29 328.58 321.754 327.588 320.682C326.596 319.61 326.1 317.946 326.1 315.69C326.1 313.434 326.596 311.77 327.588 310.698C328.596 309.626 330.116 309.09 332.148 309.09C334.004 309.09 335.388 309.61 336.3 310.65C337.228 311.69 337.692 313.314 337.692 315.522V316.386H329.028C329.076 317.634 329.34 318.554 329.82 319.146C330.316 319.722 331.1 320.01 332.172 320.01C332.972 320.01 333.62 319.81 334.116 319.41C334.612 318.994 334.86 318.386 334.86 317.586H337.692C337.692 319.138 337.18 320.314 336.156 321.114C335.132 321.898 333.796 322.29 332.148 322.29ZM334.692 314.346C334.692 312.362 333.844 311.37 332.148 311.37C331.188 311.37 330.46 311.618 329.964 312.114C329.484 312.594 329.188 313.338 329.076 314.346H334.692ZM345.484 322.29C343.436 322.29 341.916 321.754 340.924 320.682C339.932 319.61 339.436 317.946 339.436 315.69C339.436 313.434 339.932 311.77 340.924 310.698C341.932 309.626 343.452 309.09 345.484 309.09C347.34 309.09 348.724 309.61 349.636 310.65C350.564 311.69 351.028 313.314 351.028 315.522V316.386H342.364C342.412 317.634 342.676 318.554 343.156 319.146C343.652 319.722 344.436 320.01 345.508 320.01C346.308 320.01 346.956 319.81 347.452 319.41C347.948 318.994 348.196 318.386 348.196 317.586H351.028C351.028 319.138 350.516 320.314 349.492 321.114C348.468 321.898 347.132 322.29 345.484 322.29ZM348.028 314.346C348.028 312.362 347.18 311.37 345.484 311.37C344.524 311.37 343.796 311.618 343.3 312.114C342.82 312.594 342.524 313.338 342.412 314.346H348.028ZM357.788 322.29C356.188 322.29 354.948 321.746 354.068 320.658C353.188 319.57 352.748 317.906 352.748 315.666C352.748 313.49 353.188 311.85 354.068 310.746C354.948 309.642 356.124 309.09 357.596 309.09C359.356 309.09 360.62 309.674 361.388 310.842H361.532V304.65H364.412V322.002H362.036L361.796 320.322H361.652C361.236 320.962 360.692 321.45 360.02 321.786C359.348 322.122 358.604 322.29 357.788 322.29ZM358.652 319.818C359.644 319.818 360.372 319.49 360.836 318.834C361.3 318.162 361.532 317.17 361.532 315.858V315.57C361.532 312.898 360.572 311.562 358.652 311.562C357.596 311.562 356.844 311.882 356.396 312.522C355.948 313.146 355.724 314.154 355.724 315.546V315.858C355.724 317.234 355.948 318.242 356.396 318.882C356.844 319.506 357.596 319.818 358.652 319.818Z" fill="black"/>
<path d="M304.097 171.77H305.753L307.517 176.798C307.589 176.99 307.697 177.306 307.841 177.746C307.945 178.074 308.005 178.254 308.021 178.286H308.081C308.289 177.598 308.449 177.098 308.561 176.786L310.313 171.77H311.897L308.897 180.002H307.109L304.097 171.77ZM315.262 180.146C314.238 180.146 313.478 179.878 312.982 179.342C312.486 178.806 312.238 177.974 312.238 176.846C312.238 175.718 312.486 174.886 312.982 174.35C313.486 173.814 314.246 173.546 315.262 173.546C316.19 173.546 316.882 173.806 317.338 174.326C317.802 174.846 318.034 175.658 318.034 176.762V177.194H313.702C313.726 177.818 313.858 178.278 314.098 178.574C314.346 178.862 314.738 179.006 315.274 179.006C315.674 179.006 315.998 178.906 316.246 178.706C316.494 178.498 316.618 178.194 316.618 177.794H318.034C318.034 178.57 317.778 179.158 317.266 179.558C316.754 179.95 316.086 180.146 315.262 180.146ZM316.534 176.174C316.534 175.182 316.11 174.686 315.262 174.686C314.782 174.686 314.418 174.81 314.17 175.058C313.93 175.298 313.782 175.67 313.726 176.174H316.534ZM319.302 173.69H320.49L320.622 174.686H320.706C320.994 173.926 321.466 173.546 322.122 173.546C322.346 173.546 322.546 173.582 322.722 173.654V175.01H322.266C321.25 175.01 320.742 175.578 320.742 176.714V180.002H319.302V173.69ZM324.571 182.186C324.235 182.186 323.983 182.162 323.815 182.114C323.647 182.074 323.559 182.054 323.551 182.054V181.058H324.199C324.511 181.058 324.771 180.974 324.979 180.806C325.195 180.646 325.363 180.378 325.483 180.002L323.023 173.69H324.535L325.723 176.726C325.859 177.086 326.035 177.67 326.251 178.478H326.311C326.511 177.71 326.675 177.126 326.803 176.726L327.763 173.69H329.215L327.115 179.678C326.827 180.486 326.495 181.106 326.119 181.538C325.743 181.97 325.227 182.186 324.571 182.186ZM333.54 171.77H339.456V173.078H335.076V175.31H339.024V176.618H335.076V180.002H333.54V171.77ZM341.92 180.146C341.408 180.146 340.944 180.022 340.528 179.774C340.12 179.518 339.916 179.05 339.916 178.37C339.916 177.562 340.26 176.994 340.948 176.666C341.636 176.338 342.612 176.174 343.876 176.174V175.646C343.876 175.342 343.796 175.106 343.636 174.938C343.484 174.77 343.204 174.686 342.796 174.686C342.372 174.686 342.072 174.754 341.896 174.89C341.72 175.026 341.632 175.194 341.632 175.394V175.562H340.24C340.232 175.514 340.228 175.426 340.228 175.298C340.228 174.754 340.46 174.326 340.924 174.014C341.396 173.702 342.02 173.546 342.796 173.546C343.636 173.546 344.264 173.718 344.68 174.062C345.104 174.406 345.316 174.898 345.316 175.538V178.55C345.316 178.694 345.356 178.802 345.436 178.874C345.516 178.938 345.616 178.97 345.736 178.97H346.12V179.954C345.864 180.074 345.564 180.134 345.22 180.134C344.908 180.134 344.648 180.058 344.44 179.906C344.232 179.754 344.092 179.546 344.02 179.282H343.936C343.464 179.858 342.792 180.146 341.92 180.146ZM342.352 178.994C342.824 178.994 343.196 178.858 343.468 178.586C343.74 178.314 343.876 177.946 343.876 177.482V177.194C343.1 177.194 342.492 177.27 342.052 177.422C341.612 177.566 341.392 177.834 341.392 178.226C341.392 178.738 341.712 178.994 342.352 178.994ZM349.44 180.146C348.568 180.146 347.892 179.966 347.412 179.606C346.94 179.246 346.704 178.778 346.704 178.202C346.704 178.13 346.704 178.082 346.704 178.058C346.712 178.034 346.716 178.018 346.716 178.01H348.12V178.106C348.128 178.418 348.26 178.65 348.516 178.802C348.78 178.946 349.108 179.018 349.5 179.018C349.852 179.018 350.152 178.962 350.4 178.85C350.648 178.73 350.772 178.554 350.772 178.322C350.772 178.138 350.704 177.99 350.568 177.878C350.432 177.758 350.264 177.666 350.064 177.602C349.864 177.53 349.58 177.45 349.212 177.362C348.716 177.242 348.308 177.122 347.988 177.002C347.676 176.882 347.408 176.694 347.184 176.438C346.96 176.182 346.848 175.846 346.848 175.43C346.848 174.83 347.096 174.366 347.592 174.038C348.088 173.71 348.732 173.546 349.524 173.546C350.012 173.546 350.448 173.618 350.832 173.762C351.216 173.906 351.512 174.11 351.72 174.374C351.936 174.63 352.044 174.926 352.044 175.262L352.032 175.526H350.628V175.478C350.628 175.23 350.524 175.038 350.316 174.902C350.116 174.758 349.824 174.686 349.44 174.686C349.064 174.686 348.78 174.746 348.588 174.866C348.396 174.978 348.3 175.126 348.3 175.31C348.3 175.534 348.416 175.702 348.648 175.814C348.888 175.918 349.252 176.022 349.74 176.126C350.268 176.246 350.692 176.37 351.012 176.498C351.34 176.618 351.624 176.81 351.864 177.074C352.104 177.338 352.224 177.694 352.224 178.142C352.224 178.838 351.972 179.346 351.468 179.666C350.972 179.986 350.296 180.146 349.44 180.146ZM355.093 180.146C354.557 180.146 354.169 179.998 353.929 179.702C353.697 179.398 353.581 179.022 353.581 178.574V174.866H352.813V173.69H353.605L353.869 171.926H355.021V173.69H356.101V174.866H355.021V178.43C355.021 178.79 355.193 178.97 355.537 178.97H356.101V179.954C355.973 180.002 355.813 180.046 355.621 180.086C355.429 180.126 355.253 180.146 355.093 180.146Z" fill="#FB4247"/>
<ellipse cx="328.481" cy="233.08" rx="4.44447" ry="4.44447" transform="rotate(119.819 328.481 233.08)" fill="black"/>
<path d="M395.482 272.199L330.856 229.29L326.425 237.021L395.482 272.199Z" fill="black"/>
<path d="M218.507 303.39C208.477 285.127 202.732 264.125 202.732 241.844C202.732 171.257 259.903 114.002 330.386 114.002C400.868 114.002 458.039 171.257 458.039 241.844C458.039 263.942 452.477 284.671 442.629 302.751" stroke="#E3E1E2" stroke-width="8" stroke-linecap="round"/>
<path d="M218.507 303.39C208.477 285.127 202.732 264.125 202.732 241.844C202.732 171.257 259.903 114.002 330.386 114.002C400.868 114.002 458.039 171.257 458.039 241.844C458.039 263.942 452.477 284.671 442.629 302.751" stroke="url(#paint8_angular)" stroke-width="12" stroke-linecap="round"/>
<path d="M331.3 142.546V136.893" stroke="#E3E1E2" stroke-width="1.5" stroke-linecap="round"/>
<path d="M310.948 144.43L309.695 138.777" stroke="#E3E1E2" stroke-width="1.5" stroke-linecap="round"/>
<path d="M292.161 150.711L290.282 145.686" stroke="#E3E1E2" stroke-width="1.5" stroke-linecap="round"/>
<path d="M275.879 160.76L272.122 155.735" stroke="#E3E1E2" stroke-width="1.5" stroke-linecap="round"/>
<path d="M260.85 173.949L256.466 169.553" stroke="#E3E1E2" stroke-width="1.5" stroke-linecap="round"/>
<path d="M248.325 190.279L243.315 186.511" stroke="#E3E1E2" stroke-width="1.5" stroke-linecap="round"/>
<path d="M239.558 207.237L233.922 205.353" stroke="#E3E1E2" stroke-width="1.5" stroke-linecap="round"/>
<path d="M233.922 226.079L228.286 225.451" stroke="#E3E1E2" stroke-width="1.5" stroke-linecap="round"/>
<path d="M233.296 246.303L227.66 246.68" stroke="#E3E1E2" stroke-width="1.5" stroke-linecap="round"/>
<path d="M237.053 266.276L231.417 267.532" stroke="#E3E1E2" stroke-width="1.5" stroke-linecap="round"/>
<path d="M244.568 285.118L239.558 288.258" stroke="#E3E1E2" stroke-width="1.5" stroke-linecap="round"/>
<path d="M351.026 144.43L352.278 138.777" stroke="#E3E1E2" stroke-width="1.5" stroke-linecap="round"/>
<path d="M369.812 150.711L371.691 145.686" stroke="#E3E1E2" stroke-width="1.5" stroke-linecap="round"/>
<path d="M386.094 160.76L389.852 155.735" stroke="#E3E1E2" stroke-width="1.5" stroke-linecap="round"/>
<path d="M401.124 173.949L405.508 169.553" stroke="#E3E1E2" stroke-width="1.5" stroke-linecap="round"/>
<path d="M413.648 190.279L418.658 186.511" stroke="#E3E1E2" stroke-width="1.5" stroke-linecap="round"/>
<path d="M422.415 207.237L428.051 205.353" stroke="#E3E1E2" stroke-width="1.5" stroke-linecap="round"/>
<path d="M428.051 226.079L433.687 225.451" stroke="#E3E1E2" stroke-width="1.5" stroke-linecap="round"/>
<path d="M428.677 246.303L434.313 246.68" stroke="#E3E1E2" stroke-width="1.5" stroke-linecap="round"/>
<path d="M424.92 266.276L430.556 267.532" stroke="#E3E1E2" stroke-width="1.5" stroke-linecap="round"/>
<path d="M417.405 285.118L422.415 288.258" stroke="#E3E1E2" stroke-width="1.5" stroke-linecap="round"/>
<g filter="url(#filter5_d)">
<path d="M444.524 304.727C448.78 304.727 452.231 301.266 452.231 296.997C452.231 292.727 448.78 289.266 444.524 289.266C440.267 289.266 436.816 292.727 436.816 296.997C436.816 301.266 440.267 304.727 444.524 304.727Z" fill="black"/>
</g>
<path d="M443.397 310.905C449.782 310.905 454.958 305.714 454.958 299.31C454.958 292.906 449.782 287.715 443.397 287.715C437.012 287.715 431.836 292.906 431.836 299.31C431.836 305.714 437.012 310.905 443.397 310.905Z" fill="#FB4247" stroke="white" stroke-width="8"/>
</g>
</g>
<defs>
<filter id="filter0_b" x="186.415" y="124.414" width="176.021" height="176.021" filterUnits="userSpaceOnUse" color-interpolation-filters="sRGB">
<feFlood flood-opacity="0" result="BackgroundImageFix"/>
<feGaussianBlur in="BackgroundImage" stdDeviation="12"/>
<feComposite in2="SourceAlpha" operator="in" result="effect1_backgroundBlur"/>
<feBlend mode="normal" in="SourceGraphic" in2="effect1_backgroundBlur" result="shape"/>
</filter>
<filter id="filter1_d" x="305" y="141" width="534" height="485" filterUnits="userSpaceOnUse" color-interpolation-filters="sRGB">
<feFlood flood-opacity="0" result="BackgroundImageFix"/>
<feColorMatrix in="SourceAlpha" type="matrix" values="0 0 0 0 0 0 0 0 0 0 0 0 0 0 0 0 0 0 127 0"/>
<feMorphology radius="8" operator="erode" in="SourceAlpha" result="effect1_dropShadow"/>
<feOffset dy="24"/>
<feGaussianBlur stdDeviation="50"/>
<feColorMatrix type="matrix" values="0 0 0 0 0 0 0 0 0 0 0 0 0 0 0 0 0 0 0.1 0"/>
<feBlend mode="normal" in2="BackgroundImageFix" result="effect1_dropShadow"/>
<feBlend mode="normal" in="SourceGraphic" in2="effect1_dropShadow" result="shape"/>
</filter>
<filter id="filter2_d" x="685" y="288.324" width="48.1791" height="48.225" filterUnits="userSpaceOnUse" color-interpolation-filters="sRGB">
<feFlood flood-opacity="0" result="BackgroundImageFix"/>
<feColorMatrix in="SourceAlpha" type="matrix" values="0 0 0 0 0 0 0 0 0 0 0 0 0 0 0 0 0 0 127 0"/>
<feOffset dy="2"/>
<feGaussianBlur stdDeviation="6"/>
<feColorMatrix type="matrix" values="0 0 0 0 0.256667 0 0 0 0 0.35 0 0 0 0 0.346175 0 0 0 0.02 0"/>
<feBlend mode="normal" in2="BackgroundImageFix" result="effect1_dropShadow"/>
<feBlend mode="normal" in="SourceGraphic" in2="effect1_dropShadow" result="shape"/>
</filter>
<filter id="filter3_d" x="65.0039" y="0.000366211" width="534" height="525" filterUnits="userSpaceOnUse" color-interpolation-filters="sRGB">
<feFlood flood-opacity="0" result="BackgroundImageFix"/>
<feColorMatrix in="SourceAlpha" type="matrix" values="0 0 0 0 0 0 0 0 0 0 0 0 0 0 0 0 0 0 127 0"/>
<feMorphology radius="8" operator="erode" in="SourceAlpha" result="effect1_dropShadow"/>
<feOffset dy="24"/>
<feGaussianBlur stdDeviation="50"/>
<feColorMatrix type="matrix" values="0 0 0 0 0 0 0 0 0 0 0 0 0 0 0 0 0 0 0.1 0"/>
<feBlend mode="normal" in2="BackgroundImageFix" result="effect1_dropShadow"/>
<feBlend mode="normal" in="SourceGraphic" in2="effect1_dropShadow" result="shape"/>
</filter>
<filter id="filter4_d" x="66" y="-0.999268" width="534" height="485" filterUnits="userSpaceOnUse" color-interpolation-filters="sRGB">
<feFlood flood-opacity="0" result="BackgroundImageFix"/>
<feColorMatrix in="SourceAlpha" type="matrix" values="0 0 0 0 0 0 0 0 0 0 0 0 0 0 0 0 0 0 127 0"/>
<feMorphology radius="8" operator="erode" in="SourceAlpha" result="effect1_dropShadow"/>
<feOffset dy="24"/>
<feGaussianBlur stdDeviation="50"/>
<feColorMatrix type="matrix" values="0 0 0 0 0 0 0 0 0 0 0 0 0 0 0 0 0 0 0.1 0"/>
<feBlend mode="normal" in2="BackgroundImageFix" result="effect1_dropShadow"/>
<feBlend mode="normal" in="SourceGraphic" in2="effect1_dropShadow" result="shape"/>
</filter>
<filter id="filter5_d" x="416.816" y="277.266" width="55.4147" height="55.4602" filterUnits="userSpaceOnUse" color-interpolation-filters="sRGB">
<feFlood flood-opacity="0" result="BackgroundImageFix"/>
<feColorMatrix in="SourceAlpha" type="matrix" values="0 0 0 0 0 0 0 0 0 0 0 0 0 0 0 0 0 0 127 0"/>
<feOffset dy="8"/>
<feGaussianBlur stdDeviation="10"/>
<feColorMatrix type="matrix" values="0 0 0 0 0 0 0 0 0 0 0 0 0 0 0 0 0 0 0.4 0"/>
<feBlend mode="normal" in2="BackgroundImageFix" result="effect1_dropShadow"/>
<feBlend mode="normal" in="SourceGraphic" in2="effect1_dropShadow" result="shape"/>
</filter>
<linearGradient id="paint0_linear" x1="71.386" y1="272.5" x2="159.23" y2="272.501" gradientUnits="userSpaceOnUse">
<stop stop-color="#DBD6D8" stop-opacity="0.43"/>
<stop offset="1" stop-color="#DBD6D8" stop-opacity="0"/>
</linearGradient>
<linearGradient id="paint1_linear" x1="239" y1="508" x2="475.626" y2="508.003" gradientUnits="userSpaceOnUse">
<stop stop-color="#DBD6D8" stop-opacity="0.43"/>
<stop offset="1" stop-color="#DBD6D8" stop-opacity="0"/>
</linearGradient>
<linearGradient id="paint2_linear" x1="534.867" y1="422.081" x2="25.6564" y2="419.797" gradientUnits="userSpaceOnUse">
<stop stop-color="white" stop-opacity="0"/>
<stop offset="1" stop-color="#AEB0C0" stop-opacity="0.58"/>
</linearGradient>
<linearGradient id="paint3_linear" x1="104.813" y1="173" x2="209.276" y2="173" gradientUnits="userSpaceOnUse">
<stop stop-color="#DBD6D8" stop-opacity="0.43"/>
<stop offset="1" stop-color="#DBD6D8" stop-opacity="0"/>
</linearGradient>
<linearGradient id="paint4_linear" x1="1029.97" y1="87.1273" x2="393.365" y2="86.9995" gradientUnits="userSpaceOnUse">
<stop stop-color="#DBD6D8"/>
<stop offset="1" stop-color="#DBD6D8" stop-opacity="0"/>
</linearGradient>
<linearGradient id="paint5_linear" x1="584.351" y1="87.9442" x2="677.377" y2="87.5949" gradientUnits="userSpaceOnUse">
<stop stop-color="white"/>
<stop offset="1" stop-color="white"/>
</linearGradient>
<linearGradient id="paint6_linear" x1="195.566" y1="206.666" x2="394.29" y2="210.866" gradientUnits="userSpaceOnUse">
<stop stop-color="#FB4247"/>
<stop offset="1" stop-color="#FB4247" stop-opacity="0"/>
</linearGradient>
<linearGradient id="paint7_linear" x1="584" y1="310" x2="584" y2="463" gradientUnits="userSpaceOnUse">
<stop stop-color="#1AC3DA" stop-opacity="0.29"/>
<stop offset="1" stop-color="#1AC3DA" stop-opacity="0"/>
</linearGradient>
<radialGradient id="paint8_angular" cx="0" cy="0" r="1" gradientUnits="userSpaceOnUse" gradientTransform="translate(329.904 241.674) rotate(90) scale(93.348 93.3978)">
<stop offset="0.176958" stop-color="#1AC3DA"/>
<stop offset="0.822215" stop-color="#FB4247"/>
</radialGradient>
<clipPath id="clip0">
<rect x="397" y="209" width="350" height="301" rx="16" fill="white"/>
</clipPath>
<clipPath id="clip1">
<rect x="158" y="67.0007" width="350" height="301" rx="16" fill="white"/>
</clipPath>
</defs>
</svg>
