<svg width="78" height="78" viewBox="0 0 78 78" fill="none" xmlns="http://www.w3.org/2000/svg">
<path d="M39 78C60.5391 78 78 60.5391 78 39C78 17.4609 60.5391 0 39 0C17.4609 0 0 17.4609 0 39C0 60.5391 17.4609 78 39 78Z" fill="#CC4444"/>
<path d="M19.5002 57.6771C19.4638 57.5641 19.2867 56.1774 19.1066 54.5954C18.4217 48.5792 16.2972 42.4552 12.7667 36.3208C11.5805 34.2597 11.5984 34.187 13.575 33.0504C14.6867 32.4111 16.3529 31.3578 17.2776 30.7096C18.8495 29.6078 19.0897 29.7078 20.9739 32.2493C22.5327 34.3519 23.084 34.6855 23.4086 33.7225C23.9057 32.2479 29.1956 28.2986 30.6737 28.2986C31.2407 28.2986 32.6276 29.962 33.7558 31.9951C34.884 34.0282 36.0138 35.6923 36.2664 35.6931C36.9738 35.6954 37.7603 28.483 37.2516 26.6584C36.8936 25.3744 37.5103 24.5272 40.2345 22.5603C42.1233 21.1966 43.9111 20.0808 44.2074 20.0808C44.5037 20.0808 47.4652 24.2411 50.7886 29.3258C54.1119 34.4105 59.008 41.3443 61.6686 44.7341L66.5062 50.8974L63.9793 53.5682C62.5896 55.0371 61.0189 56.239 60.4891 56.239C58.8032 56.239 53.9919 50.889 49.5214 44.0434C47.1394 40.396 44.9469 37.3951 44.6492 37.3749C44.3515 37.3547 44.1078 40.4463 44.1078 44.2451V51.1522L40.9116 53.2847C39.1537 54.4576 37.4484 55.4159 37.1221 55.4143C36.7958 55.4128 35.5559 53.3581 34.3668 50.8485C33.1777 48.3388 31.5124 45.5449 30.6662 44.6398L29.1276 42.9942L28.6378 45.3023C26.9507 53.2529 26.6964 53.8163 23.8809 55.8398C21.3887 57.631 19.7117 58.3343 19.5002 57.6771Z" fill="white"/>
</svg>
