<svg xmlns="http://www.w3.org/2000/svg" width="1600" height="659" viewBox="0 0 1600 659" fill="none"><g clip-path="url(#clip0_28_389)"><path d="M1600 0H0V659H1600V0Z" fill="url(#paint0_radial_28_389)"></path><path d="M347 -33H-99C-148.153 -33 -188 6.84666 -188 56C-188 105.153 -148.153 145 -99 145H347C396.153 145 436 105.153 436 56C436 6.84666 396.153 -33 347 -33Z" fill="url(#paint1_linear_28_389)"></path><path d="M1135 117H1030C996.311 117 969 144.311 969 178C969 211.689 996.311 239 1030 239H1135C1168.69 239 1196 211.689 1196 178C1196 144.311 1168.69 117 1135 117Z" fill="url(#paint2_linear_28_389)"></path><path d="M54 316H-190C-234.735 316 -271 352.265 -271 397C-271 441.735 -234.735 478 -190 478H54C98.7351 478 135 441.735 135 397C135 352.265 98.7351 316 54 316Z" fill="url(#paint3_linear_28_389)"></path><path opacity="0.4" d="M800.5 619H424.5C391.087 619 364 646.087 364 679.5C364 712.913 391.087 740 424.5 740H800.5C833.913 740 861 712.913 861 679.5C861 646.087 833.913 619 800.5 619Z" fill="url(#paint4_linear_28_389)"></path></g><defs><radialGradient id="paint0_radial_28_389" cx="0" cy="0" r="1" gradientUnits="userSpaceOnUse" gradientTransform="translate(392.541 540.415) rotate(-16.546) scale(829.342 929.62)"><stop stop-color="#1F2742"></stop><stop offset="1" stop-color="#2F395A"></stop></radialGradient><linearGradient id="paint1_linear_28_389" x1="436.002" y1="55.31" x2="-114.754" y2="55.31" gradientUnits="userSpaceOnUse"><stop stop-color="#2F3A5F"></stop><stop offset="1" stop-color="#2F3A5F" stop-opacity="0"></stop></linearGradient><linearGradient id="paint2_linear_28_389" x1="1196" y1="177.527" x2="995.645" y2="177.527" gradientUnits="userSpaceOnUse"><stop stop-color="#37446F"></stop><stop offset="1" stop-color="#2F3A5F" stop-opacity="0"></stop></linearGradient><linearGradient id="paint3_linear_28_389" x1="135.001" y1="396.372" x2="-223.343" y2="396.372" gradientUnits="userSpaceOnUse"><stop stop-color="#2F3A5F"></stop><stop offset="1" stop-color="#2F3A5F" stop-opacity="0"></stop></linearGradient><linearGradient id="paint4_linear_28_389" x1="861.001" y1="679.031" x2="422.338" y2="679.031" gradientUnits="userSpaceOnUse"><stop stop-color="#2F3A5F"></stop><stop offset="1" stop-color="#2F3A5F" stop-opacity="0"></stop></linearGradient><clipPath id="clip0_28_389"><rect width="1600" height="659" fill="white"></rect></clipPath></defs></svg>