<svg xmlns:inkscape="http://www.inkscape.org/namespaces/inkscape" xmlns:sodipodi="http://sodipodi.sourceforge.net/DTD/sodipodi-0.dtd" xmlns="http://www.w3.org/2000/svg" xmlns:svg="http://www.w3.org/2000/svg" width="1600" height="714" viewBox="0 0 1600 714" fill="none" id="svg190" sodipodi:docname="banner-second-half-grey.svg" inkscape:version="1.1 (c68e22c387, 2021-05-23)"><mask id="mask0_3623_2144" maskUnits="userSpaceOnUse" x="0" y="0" width="1601" height="720"><rect width="1601" height="720" fill="#f9f9fb" id="rect153" x="0" y="0"></rect></mask><g mask="url(#mask0_3623_2144)" id="g166"><rect y="-5.0001202" width="1601" height="720" fill="#f9f9fb" id="rect156" x="0"></rect><path opacity="0.2" fill-rule="evenodd" clip-rule="evenodd" d="m 1901.21,64 c 0,35.3462 -28.66,64 -64,64 h -454.23 c -35.34,0 -64,-28.6537 -64,-63.9999 0,-35.3463 28.66,-64.0000516055 64,-64.0000546956 L 1837.21,5.59506e-6 C 1872.55,2.50499e-6 1901.21,28.6538 1901.21,64 Z" fill="url(#paint0_linear_3623_2144)" id="path158"></path><path opacity="0.2" fill-rule="evenodd" clip-rule="evenodd" d="m 1666.23,424 c 0,35.346 -28.66,64 -64,64 H 1148 c -35.34,0 -64,-28.654 -64,-64 0,-35.346 28.66,-64 64,-64 h 454.23 c 35.34,0 64,28.654 64,64 z" fill="url(#paint1_linear_3623_2144)" id="path160"></path><path opacity="0.5" fill-rule="evenodd" clip-rule="evenodd" d="m 1411,169 c 0,-35.346 28.65,-64 64,-64 h 454.22 c 35.35,0 64,28.654 64,64 0,35.346 -28.65,64 -64,64 H 1475 c -35.35,0 -64,-28.654 -64,-64 z" fill="url(#paint2_linear_3623_2144)" id="path162"></path><path opacity="0.5" fill-rule="evenodd" clip-rule="evenodd" d="m 203.363,287 c 0,35.346 -28.653,64 -64,64 H -36.0018 c -35.3462,0 -64.0002,-28.654 -64.0002,-64 0,-35.346 28.654,-64 64.0002,-64 H 139.363 c 35.346,0 64,28.654 64,64 z" fill="url(#paint3_linear_3623_2144)" id="path164"></path></g><defs id="defs188"><linearGradient id="paint0_linear_3623_2144" x1="1901.38" y1="63.999901" x2="1378.1801" y2="64" gradientUnits="userSpaceOnUse"><stop stop-color="#DBD6D8" id="stop168"></stop><stop offset="1" stop-color="#DBD6D8" stop-opacity="0" id="stop170"></stop></linearGradient><linearGradient id="paint1_linear_3623_2144" x1="1666.4" y1="424" x2="1143.2" y2="424" gradientUnits="userSpaceOnUse"><stop stop-color="#DBD6D8" id="stop173"></stop><stop offset="1" stop-color="#DBD6D8" stop-opacity="0" id="stop175"></stop></linearGradient><linearGradient id="paint2_linear_3623_2144" x1="1410.8199" y1="169" x2="1934.02" y2="169" gradientUnits="userSpaceOnUse"><stop stop-color="#DBD6D8" id="stop178"></stop><stop offset="1" stop-color="#DBD6D8" stop-opacity="0" id="stop180"></stop></linearGradient><linearGradient id="paint3_linear_3623_2144" x1="535.96802" y1="287.12799" x2="-100.637" y2="287" gradientUnits="userSpaceOnUse"><stop stop-color="#DBD6D8" id="stop183"></stop><stop offset="1" stop-color="#DBD6D8" stop-opacity="0" id="stop185"></stop></linearGradient></defs></svg>