<svg xmlns="http://www.w3.org/2000/svg" width="1601" height="488" viewBox="0 0 1601 488" fill="none"><g clip-path="url(#clip0_30_389)"><mask id="mask0_30_389" style="mask-type:alpha" maskUnits="userSpaceOnUse" x="0" y="0" width="1601" height="560"><path d="M0 0H1601V560H0V0Z" fill="#F9F9FB"></path></mask><g mask="url(#mask0_30_389)"><path d="M0 0H1601V560H0V0Z" fill="#F9F9FB"></path><path opacity="0.2" d="M829.223 133C829.223 168.347 800.57 197 765.223 197H311C275.654 197 247 168.347 247 133C247 97.654 275.654 69 311 69H765.223C800.569 69 829.223 97.654 829.223 133Z" fill="url(#paint0_linear_30_389)"></path><path opacity="0.2" d="M533.223 488C533.223 523.347 504.57 552 469.223 552H15C-20.346 552 -49 523.347 -49 488C-49 452.654 -20.346 424 15 424H469.222C504.569 424 533.223 452.654 533.223 488Z" fill="url(#paint1_linear_30_389)"></path><path opacity="0.5" d="M-280 197C-280 161.654 -251.346 133 -216 133H238.222C273.568 133 302.222 161.654 302.222 197C302.222 232.347 273.568 261 238.222 261H-216C-251.346 261 -280 232.346 -280 197Z" fill="url(#paint2_linear_30_389)"></path><path opacity="0.5" d="M1171.36 360C1171.36 395.347 1142.71 424 1107.36 424H931.998C896.652 424 867.998 395.347 867.998 360C867.998 324.654 896.652 296 931.998 296H1107.36C1142.71 296 1171.36 324.654 1171.36 360V360Z" fill="url(#paint3_linear_30_389)"></path><path opacity="0.5" d="M1747.36 303C1747.36 338.347 1718.71 367 1683.36 367H1508C1472.65 367 1444 338.347 1444 303C1444 267.654 1472.65 239 1508 239H1683.36C1718.71 239 1747.36 267.654 1747.36 303V303Z" fill="url(#paint4_linear_30_389)"></path><path d="M1349.71 162.678C1358.67 156.333 1365.27 151 1369.52 146.68C1376.91 139.141 1380.6 132.061 1380.6 125.441C1380.6 123.235 1380 121.626 1378.8 120.614C1377.6 119.603 1376.31 119.097 1374.92 119.097C1371.78 119.557 1369.7 119.786 1368.69 119.786C1362.68 119.786 1357.7 117.764 1353.73 113.719C1349.75 109.672 1347.77 104.387 1347.77 97.859C1347.77 90.504 1349.94 84.712 1354.28 80.482C1358.62 76.161 1364.3 74 1371.32 74C1379.54 74 1386.38 76.942 1391.83 82.827C1397.28 88.711 1400 96.848 1400 107.237C1400 121.948 1393.95 135.509 1381.85 147.921C1374.65 155.185 1365.04 162.172 1353.03 168.885L1349.71 162.678V162.678ZM1281.94 162.678C1290.44 156.792 1296.86 151.691 1301.2 147.368C1308.96 139.645 1312.84 132.382 1312.84 125.578C1312.84 123.739 1312.37 122.177 1311.45 120.89C1310.43 119.695 1309 119.097 1307.16 119.097C1304.11 119.557 1302.08 119.786 1301.06 119.786C1294.96 119.786 1289.93 117.764 1285.96 113.719C1281.99 109.672 1280 104.248 1280 97.445C1280 91.193 1281.99 85.722 1285.96 81.034C1290.02 76.345 1295.93 74 1303.69 74C1311.27 74 1317.92 76.759 1323.64 82.275C1329.37 87.791 1332.23 95.974 1332.23 106.823C1332.23 121.534 1326.46 134.957 1314.91 147.094C1307.71 154.632 1297.83 161.896 1285.26 168.884L1281.94 162.678Z" fill="white"></path></g></g><defs><linearGradient id="paint0_linear_30_389" x1="829.222" y1="132.999" x2="306.022" y2="132.999" gradientUnits="userSpaceOnUse"><stop stop-color="#DBD6D8"></stop><stop offset="1" stop-color="#DBD6D8" stop-opacity="0"></stop></linearGradient><linearGradient id="paint1_linear_30_389" x1="533.222" y1="488" x2="10.022" y2="488" gradientUnits="userSpaceOnUse"><stop stop-color="#DBD6D8"></stop><stop offset="1" stop-color="#DBD6D8" stop-opacity="0"></stop></linearGradient><linearGradient id="paint2_linear_30_389" x1="-280" y1="197" x2="243.2" y2="197" gradientUnits="userSpaceOnUse"><stop stop-color="#DBD6D8"></stop><stop offset="1" stop-color="#DBD6D8" stop-opacity="0"></stop></linearGradient><linearGradient id="paint3_linear_30_389" x1="1503.97" y1="360.097" x2="867.362" y2="359.969" gradientUnits="userSpaceOnUse"><stop stop-color="#DBD6D8"></stop><stop offset="1" stop-color="#DBD6D8" stop-opacity="0"></stop></linearGradient><linearGradient id="paint4_linear_30_389" x1="2079.97" y1="303.097" x2="1443.36" y2="302.969" gradientUnits="userSpaceOnUse"><stop stop-color="#DBD6D8"></stop><stop offset="1" stop-color="#DBD6D8" stop-opacity="0"></stop></linearGradient><clipPath id="clip0_30_389"><rect width="1601" height="488" fill="white"></rect></clipPath></defs></svg>