<?xml version="1.0" encoding="UTF-8" standalone="no"?>
<svg
   width="585"
   height="502"
   viewBox="0 0 585 502"
   fill="none"
   version="1.1"
   id="svg573"
   sodipodi:docname="strattic-banner-illustration-2-1.svg"
   inkscape:version="1.1 (c68e22c387, 2021-05-23)"
   xmlns:inkscape="http://www.inkscape.org/namespaces/inkscape"
   xmlns:sodipodi="http://sodipodi.sourceforge.net/DTD/sodipodi-0.dtd"
   xmlns="http://www.w3.org/2000/svg"
   xmlns:svg="http://www.w3.org/2000/svg">
  <sodipodi:namedview
     id="namedview575"
     pagecolor="#ffffff"
     bordercolor="#666666"
     borderopacity="1.0"
     inkscape:pageshadow="2"
     inkscape:pageopacity="0.0"
     inkscape:pagecheckerboard="0"
     showgrid="false"
     inkscape:zoom="1.4710145"
     inkscape:cx="299.4532"
     inkscape:cy="342.28079"
     inkscape:window-width="1920"
     inkscape:window-height="1001"
     inkscape:window-x="-9"
     inkscape:window-y="-9"
     inkscape:window-maximized="1"
     inkscape:current-layer="svg573" />
  <g
     clip-path="url(#a)"
     id="g417"
     transform="translate(0,-34)">
    <rect
       x="291"
       y="160.532"
       width="276"
       height="237"
       rx="5.5163698"
       fill="#ffffff"
       id="rect395" />
    <path
       d="m 329.029,362.165 c -0.463,0 -0.847,-0.09 -1.153,-0.269 -0.301,-0.185 -0.532,-0.503 -0.694,-0.954 -0.162,-0.45 -0.243,-1.069 -0.243,-1.855 0,-0.786 0.081,-1.404 0.243,-1.855 0.162,-0.451 0.393,-0.766 0.694,-0.945 0.306,-0.185 0.69,-0.277 1.153,-0.277 0.456,0 0.838,0.092 1.144,0.277 0.306,0.185 0.54,0.503 0.702,0.954 0.162,0.445 0.243,1.06 0.243,1.846 0,0.786 -0.081,1.405 -0.243,1.855 -0.162,0.445 -0.396,0.76 -0.702,0.945 -0.306,0.185 -0.688,0.278 -1.144,0.278 z m 0,-0.633 c 0.341,0 0.606,-0.09 0.797,-0.269 0.191,-0.179 0.321,-0.439 0.39,-0.78 0.075,-0.341 0.113,-0.777 0.113,-1.309 v -0.087 c 0,-0.549 -0.038,-1 -0.113,-1.352 -0.069,-0.353 -0.199,-0.621 -0.39,-0.806 -0.191,-0.191 -0.456,-0.286 -0.797,-0.286 -0.341,0 -0.607,0.089 -0.798,0.268 -0.191,0.18 -0.324,0.44 -0.399,0.781 -0.069,0.341 -0.104,0.777 -0.104,1.309 v 0.086 c 0,0.549 0.035,1 0.104,1.353 0.075,0.352 0.208,0.624 0.399,0.814 0.191,0.185 0.457,0.278 0.798,0.278 z m -10.746,-40.223 h 1.534 v -4.23 h -1.543 v -0.451 c 0.277,-0.029 0.61,-0.101 0.997,-0.217 0.393,-0.121 0.731,-0.26 1.014,-0.416 h 0.295 v 5.314 h 1.421 v 0.633 h -3.718 z m 6.411,0.737 c -0.462,0 -0.846,-0.09 -1.152,-0.269 -0.301,-0.185 -0.532,-0.503 -0.694,-0.954 -0.162,-0.45 -0.243,-1.069 -0.243,-1.855 0,-0.786 0.081,-1.404 0.243,-1.855 0.162,-0.45 0.393,-0.765 0.694,-0.945 0.306,-0.185 0.69,-0.277 1.152,-0.277 0.457,0 0.838,0.092 1.145,0.277 0.306,0.185 0.54,0.503 0.702,0.954 0.162,0.445 0.243,1.06 0.243,1.846 0,0.786 -0.081,1.405 -0.243,1.855 -0.162,0.445 -0.396,0.76 -0.702,0.945 -0.307,0.185 -0.688,0.278 -1.145,0.278 z m 0,-0.633 c 0.341,0 0.607,-0.09 0.798,-0.269 0.191,-0.179 0.321,-0.439 0.39,-0.78 0.075,-0.341 0.113,-0.777 0.113,-1.309 v -0.087 c 0,-0.549 -0.038,-0.999 -0.113,-1.352 -0.069,-0.352 -0.199,-0.621 -0.39,-0.806 -0.191,-0.191 -0.457,-0.286 -0.798,-0.286 -0.34,0 -0.606,0.089 -0.797,0.269 -0.191,0.179 -0.324,0.439 -0.399,0.78 -0.069,0.341 -0.104,0.777 -0.104,1.309 v 0.086 c 0,0.549 0.035,1 0.104,1.353 0.075,0.352 0.208,0.624 0.399,0.815 0.191,0.184 0.457,0.277 0.797,0.277 z m 2.988,-5.739 h 0.763 v 3.945 l 1.933,-2.237 h 0.945 l -1.569,1.794 1.656,2.766 h -0.884 l -1.249,-2.219 -0.832,0.788 v 1.431 h -0.763 z m -9.876,-34.103 c 0,-0.312 0.081,-0.598 0.243,-0.858 0.162,-0.266 0.356,-0.497 0.581,-0.693 0.231,-0.203 0.537,-0.442 0.919,-0.72 0.306,-0.225 0.555,-0.416 0.745,-0.572 0.191,-0.162 0.35,-0.326 0.477,-0.494 0.197,-0.26 0.295,-0.526 0.295,-0.798 0,-0.271 -0.087,-0.505 -0.26,-0.702 -0.168,-0.202 -0.463,-0.303 -0.884,-0.303 -0.434,0 -0.752,0.107 -0.954,0.321 -0.202,0.208 -0.303,0.479 -0.303,0.814 v 0.356 h -0.763 c -0.018,-0.098 -0.026,-0.214 -0.026,-0.347 0,-0.601 0.196,-1.052 0.589,-1.352 0.393,-0.301 0.893,-0.451 1.5,-0.451 0.566,0 1.023,0.145 1.37,0.434 0.346,0.283 0.52,0.716 0.52,1.3 0,0.312 -0.087,0.604 -0.26,0.875 -0.174,0.272 -0.385,0.518 -0.633,0.737 -0.243,0.214 -0.561,0.462 -0.954,0.746 -0.289,0.208 -0.517,0.381 -0.685,0.52 -0.161,0.133 -0.303,0.269 -0.424,0.407 -0.081,0.087 -0.148,0.188 -0.2,0.304 h 3.19 v 0.728 h -4.083 z m 6.889,0.356 c -0.462,0 -0.847,-0.09 -1.153,-0.269 -0.3,-0.185 -0.532,-0.503 -0.693,-0.953 -0.162,-0.451 -0.243,-1.07 -0.243,-1.856 0,-0.786 0.081,-1.404 0.243,-1.855 0.161,-0.45 0.393,-0.765 0.693,-0.945 0.306,-0.184 0.691,-0.277 1.153,-0.277 0.457,0 0.838,0.093 1.144,0.277 0.307,0.185 0.541,0.503 0.702,0.954 0.162,0.445 0.243,1.06 0.243,1.846 0,0.786 -0.081,1.405 -0.243,1.856 -0.161,0.445 -0.395,0.759 -0.702,0.944 -0.306,0.185 -0.687,0.278 -1.144,0.278 z m 0,-0.633 c 0.341,0 0.607,-0.09 0.798,-0.269 0.19,-0.179 0.32,-0.439 0.39,-0.78 0.075,-0.341 0.112,-0.777 0.112,-1.309 v -0.087 c 0,-0.549 -0.037,-0.999 -0.112,-1.352 -0.07,-0.352 -0.2,-0.621 -0.39,-0.806 -0.191,-0.191 -0.457,-0.286 -0.798,-0.286 -0.341,0 -0.607,0.089 -0.797,0.269 -0.191,0.179 -0.324,0.439 -0.399,0.78 -0.07,0.341 -0.104,0.777 -0.104,1.309 v 0.086 c 0,0.549 0.034,1 0.104,1.353 0.075,0.352 0.208,0.624 0.399,0.815 0.19,0.185 0.456,0.277 0.797,0.277 z m 2.988,-5.739 h 0.763 v 3.945 l 1.933,-2.237 h 0.945 l -1.569,1.794 1.655,2.766 h -0.884 l -1.248,-2.219 -0.832,0.788 v 1.431 h -0.763 z m -7.779,-33.747 c -0.682,0 -1.208,-0.159 -1.578,-0.477 -0.37,-0.324 -0.555,-0.76 -0.555,-1.309 v -0.069 h 0.772 v 0.095 c 0,0.364 0.112,0.644 0.338,0.841 0.225,0.191 0.543,0.286 0.953,0.286 0.422,0 0.751,-0.092 0.988,-0.277 0.243,-0.185 0.365,-0.466 0.365,-0.841 0,-0.387 -0.131,-0.659 -0.391,-0.815 -0.254,-0.162 -0.586,-0.243 -0.996,-0.243 h -0.625 v -0.633 h 0.651 c 0.346,0 0.638,-0.089 0.875,-0.268 0.237,-0.179 0.355,-0.437 0.355,-0.772 0,-0.347 -0.112,-0.607 -0.338,-0.78 -0.219,-0.173 -0.499,-0.26 -0.84,-0.26 -0.365,0 -0.656,0.092 -0.876,0.277 -0.22,0.179 -0.329,0.445 -0.329,0.798 v 0.078 h -0.772 v -0.156 c 0,-0.324 0.084,-0.607 0.252,-0.85 0.167,-0.248 0.398,-0.439 0.693,-0.572 0.301,-0.139 0.641,-0.208 1.023,-0.208 0.601,0 1.081,0.142 1.439,0.425 0.358,0.283 0.537,0.685 0.537,1.205 0,0.329 -0.086,0.601 -0.26,0.815 -0.173,0.208 -0.416,0.381 -0.728,0.52 v 0.034 c 0.341,0.099 0.613,0.272 0.815,0.521 0.202,0.248 0.303,0.56 0.303,0.936 0,0.347 -0.089,0.65 -0.268,0.91 -0.174,0.254 -0.416,0.451 -0.729,0.589 -0.312,0.133 -0.67,0.2 -1.074,0.2 z m 4.79,0 c -0.462,0 -0.846,-0.09 -1.153,-0.269 -0.3,-0.185 -0.531,-0.503 -0.693,-0.953 -0.162,-0.451 -0.243,-1.07 -0.243,-1.856 0,-0.785 0.081,-1.404 0.243,-1.855 0.162,-0.45 0.393,-0.765 0.693,-0.944 0.307,-0.185 0.691,-0.278 1.153,-0.278 0.457,0 0.838,0.093 1.145,0.278 0.306,0.184 0.54,0.502 0.702,0.953 0.162,0.445 0.243,1.061 0.243,1.846 0,0.786 -0.081,1.405 -0.243,1.856 -0.162,0.445 -0.396,0.76 -0.702,0.944 -0.307,0.185 -0.688,0.278 -1.145,0.278 z m 0,-0.633 c 0.341,0 0.607,-0.09 0.798,-0.269 0.191,-0.179 0.321,-0.439 0.39,-0.78 0.075,-0.341 0.113,-0.777 0.113,-1.309 v -0.087 c 0,-0.549 -0.038,-0.999 -0.113,-1.352 -0.069,-0.352 -0.199,-0.621 -0.39,-0.806 -0.191,-0.191 -0.457,-0.286 -0.798,-0.286 -0.341,0 -0.606,0.09 -0.797,0.269 -0.191,0.179 -0.324,0.439 -0.399,0.78 -0.069,0.341 -0.104,0.777 -0.104,1.309 v 0.086 c 0,0.549 0.035,1 0.104,1.353 0.075,0.352 0.208,0.624 0.399,0.815 0.191,0.185 0.456,0.277 0.797,0.277 z m 2.988,-5.739 h 0.763 v 3.945 l 1.933,-2.237 h 0.945 l -1.569,1.795 1.656,2.765 h -0.885 l -1.248,-2.219 -0.832,0.788 v 1.431 h -0.763 z m -7.232,-34.6 h -2.765 v -0.641 c 0.375,-0.642 0.696,-1.283 0.962,-1.925 0.266,-0.641 0.477,-1.314 0.633,-2.019 h 0.823 c -0.11,0.491 -0.272,1.011 -0.485,1.56 -0.214,0.543 -0.434,1.034 -0.659,1.474 -0.22,0.439 -0.396,0.745 -0.529,0.918 h 2.02 v -1.95 c 0.121,-0.312 0.24,-0.685 0.355,-1.118 h 0.408 v 3.068 h 0.788 v 0.633 h -0.788 v 1.465 h -0.763 z m 4.244,1.569 c -0.462,0 -0.846,-0.089 -1.152,-0.268 -0.301,-0.185 -0.532,-0.503 -0.694,-0.954 -0.162,-0.451 -0.243,-1.069 -0.243,-1.855 0,-0.786 0.081,-1.404 0.243,-1.855 0.162,-0.451 0.393,-0.766 0.694,-0.945 0.306,-0.185 0.69,-0.277 1.152,-0.277 0.457,0 0.838,0.092 1.145,0.277 0.306,0.185 0.54,0.503 0.702,0.954 0.162,0.444 0.243,1.06 0.243,1.846 0,0.786 -0.081,1.404 -0.243,1.855 -0.162,0.445 -0.396,0.76 -0.702,0.945 -0.307,0.185 -0.688,0.277 -1.145,0.277 z m 0,-0.633 c 0.341,0 0.607,-0.089 0.798,-0.268 0.191,-0.179 0.321,-0.439 0.39,-0.78 0.075,-0.341 0.113,-0.778 0.113,-1.309 v -0.087 c 0,-0.549 -0.038,-1 -0.113,-1.352 -0.069,-0.353 -0.199,-0.622 -0.39,-0.807 -0.191,-0.19 -0.457,-0.286 -0.798,-0.286 -0.34,0 -0.606,0.09 -0.797,0.269 -0.191,0.179 -0.324,0.439 -0.399,0.78 -0.069,0.341 -0.104,0.778 -0.104,1.309 v 0.087 c 0,0.549 0.035,1 0.104,1.352 0.075,0.353 0.208,0.624 0.399,0.815 0.191,0.185 0.457,0.277 0.797,0.277 z m 2.988,-5.738 h 0.763 v 3.944 l 1.933,-2.236 h 0.945 l -1.569,1.794 1.656,2.765 h -0.884 l -1.249,-2.219 -0.832,0.789 v 1.43 h -0.763 z"
       fill="#aeb0c0"
       id="path397" />
    <path
       d="M 340.001,361.16 H 528.912 M 340.001,320.969 H 528.912 M 340.001,280.778 H 528.912 M 340.001,240.588 H 528.912 M 340,198.033 h 188.912"
       stroke="#e7eeee"
       stroke-width="0.788052"
       id="path399" />
    <path
       d="m 403.831,307.571 h -62.914 v 53.293 H 529.66 V 240.292 c 0,0 -17.465,27.922 -57.128,27.922 -39.664,0 -39.401,39.357 -68.701,39.357 z"
       fill="url(#b)"
       id="path401"
       style="fill:url(#b)" />
    <path
       d="m 340.917,307.812 h 62.914 c 29.3,0 29.037,-39.498 68.701,-39.498 33.909,0 45.144,-14.759 57.128,-28.022"
       stroke="#1ac3da"
       stroke-width="1.18208"
       id="path403" />
    <g
       filter="url(#c)"
       id="g409">
      <ellipse
         cx="528.94501"
         cy="240.63699"
         rx="9.5271902"
         ry="9.54529"
         fill="#ffffff"
         id="ellipse405" />
      <path
         d="m 538.078,240.637 c 0,5.055 -4.089,9.151 -9.133,9.151 -5.043,0 -9.133,-4.096 -9.133,-9.151 0,-5.055 4.09,-9.152 9.133,-9.152 5.044,0 9.133,4.097 9.133,9.152 z"
         stroke="#b0e3eb"
         stroke-width="0.788052"
         id="path407" />
    </g>
    <ellipse
       cx="528.94397"
       cy="240.63699"
       rx="3.51002"
       ry="3.51669"
       fill="#1ac3da"
       id="ellipse411" />
    <path
       stroke="#d4c2eb"
       stroke-width="0.788052"
       stroke-dasharray="3.94, 3.94"
       d="M 529.268,250.537 V 361.652"
       id="path413" />
    <circle
       cx="529.45502"
       cy="361.258"
       r="1.97013"
       fill="#1ac3da"
       id="circle415" />
  </g>
  <g
     filter="url(#d)"
     id="g443"
     transform="translate(0,-34)">
    <path
       d="m 120,52 c 0,-6.6274 5.373,-12 12,-12 h 251 c 6.627,0 12,5.3726 12,12 v 214.634 c 0,5.505 -3.692,10.289 -9.036,11.608 -28.322,6.992 -114.319,27.931 -128.464,27.931 -14.145,0 -100.142,-20.939 -128.464,-27.931 C 123.692,276.923 120,272.139 120,266.634 Z"
       fill="#ffffff"
       id="path419" />
    <circle
       cx="255.142"
       cy="170.91499"
       r="17.6786"
       stroke="#e3e1e2"
       stroke-width="0.785714"
       id="circle421" />
    <path
       d="m 233.886,240.427 c -0.993,0 -1.898,-0.145 -2.715,-0.434 -0.817,-0.289 -1.471,-0.729 -1.961,-1.32 -0.491,-0.603 -0.736,-1.345 -0.736,-2.225 l 0.019,-0.396 h 2.433 c -0.013,0.075 -0.019,0.188 -0.019,0.339 0,0.629 0.27,1.119 0.811,1.471 0.54,0.352 1.282,0.528 2.225,0.528 1.006,0 1.754,-0.144 2.244,-0.434 0.49,-0.289 0.735,-0.691 0.735,-1.206 0,-0.403 -0.144,-0.736 -0.433,-1 -0.29,-0.264 -0.648,-0.471 -1.075,-0.622 -0.428,-0.164 -1.031,-0.352 -1.811,-0.566 -1.03,-0.276 -1.866,-0.54 -2.508,-0.792 -0.628,-0.264 -1.169,-0.647 -1.621,-1.15 -0.453,-0.516 -0.679,-1.188 -0.679,-2.018 0,-1.156 0.478,-2.036 1.433,-2.64 0.955,-0.616 2.206,-0.924 3.753,-0.924 1.483,0 2.69,0.314 3.62,0.943 0.943,0.616 1.414,1.553 1.414,2.81 v 0.226 h -2.376 v -0.207 c 0,-0.541 -0.245,-0.962 -0.735,-1.264 -0.478,-0.314 -1.125,-0.471 -1.942,-0.471 -0.855,0 -1.528,0.125 -2.018,0.377 -0.478,0.251 -0.717,0.603 -0.717,1.056 0,0.339 0.139,0.628 0.415,0.867 0.277,0.227 0.623,0.415 1.037,0.566 0.428,0.138 1,0.302 1.716,0.49 1.044,0.277 1.892,0.547 2.546,0.811 0.666,0.264 1.232,0.654 1.697,1.169 0.478,0.516 0.717,1.182 0.717,1.999 0,1.383 -0.49,2.401 -1.471,3.055 -0.981,0.641 -2.313,0.962 -3.998,0.962 z m 7.656,-10.145 h 1.867 l 0.189,1.32 h 0.113 c 0.327,-0.503 0.754,-0.887 1.282,-1.151 0.528,-0.264 1.113,-0.396 1.754,-0.396 1.257,0 2.231,0.428 2.923,1.283 0.691,0.854 1.037,2.162 1.037,3.922 0,1.71 -0.346,2.998 -1.037,3.866 -0.692,0.867 -1.616,1.301 -2.772,1.301 -1.383,0 -2.376,-0.459 -2.98,-1.377 h -0.113 v 4.413 h -2.263 z m 4.526,8.202 c 0.83,0 1.42,-0.245 1.772,-0.735 0.352,-0.503 0.528,-1.295 0.528,-2.376 v -0.245 c 0,-1.094 -0.176,-1.886 -0.528,-2.376 -0.352,-0.503 -0.942,-0.754 -1.772,-0.754 -0.78,0 -1.352,0.264 -1.716,0.792 -0.365,0.528 -0.547,1.307 -0.547,2.338 v 0.226 c 0,1.031 0.182,1.81 0.547,2.338 0.364,0.528 0.936,0.792 1.716,0.792 z m 10.763,1.943 c -1.609,0 -2.803,-0.421 -3.582,-1.264 -0.78,-0.842 -1.17,-2.149 -1.17,-3.922 0,-1.773 0.39,-3.08 1.17,-3.922 0.792,-0.843 1.986,-1.264 3.582,-1.264 1.459,0 2.546,0.409 3.263,1.226 0.729,0.817 1.093,2.093 1.093,3.828 v 0.679 h -6.807 c 0.038,0.98 0.245,1.703 0.622,2.168 0.39,0.453 1.006,0.679 1.848,0.679 0.629,0 1.138,-0.157 1.528,-0.471 0.389,-0.327 0.584,-0.805 0.584,-1.433 h 2.225 c 0,1.219 -0.402,2.143 -1.206,2.772 -0.805,0.616 -1.855,0.924 -3.15,0.924 z m 1.999,-6.242 c 0,-1.559 -0.666,-2.338 -1.999,-2.338 -0.754,0 -1.326,0.195 -1.716,0.584 -0.377,0.377 -0.609,0.962 -0.697,1.754 z m 8.48,6.242 c -1.609,0 -2.804,-0.421 -3.583,-1.264 -0.78,-0.842 -1.169,-2.149 -1.169,-3.922 0,-1.773 0.389,-3.08 1.169,-3.922 0.792,-0.843 1.986,-1.264 3.583,-1.264 1.458,0 2.545,0.409 3.262,1.226 0.729,0.817 1.094,2.093 1.094,3.828 v 0.679 h -6.808 c 0.038,0.98 0.245,1.703 0.623,2.168 0.389,0.453 1.005,0.679 1.848,0.679 0.628,0 1.137,-0.157 1.527,-0.471 0.39,-0.327 0.585,-0.805 0.585,-1.433 h 2.225 c 0,1.219 -0.403,2.143 -1.207,2.772 -0.805,0.616 -1.854,0.924 -3.149,0.924 z m 1.999,-6.242 c 0,-1.559 -0.667,-2.338 -1.999,-2.338 -0.755,0 -1.327,0.195 -1.716,0.584 -0.377,0.377 -0.61,0.962 -0.698,1.754 z m 7.668,6.242 c -1.257,0 -2.231,-0.428 -2.923,-1.283 -0.691,-0.854 -1.037,-2.162 -1.037,-3.922 0,-1.71 0.346,-2.998 1.037,-3.866 0.692,-0.867 1.616,-1.301 2.772,-1.301 1.383,0 2.376,0.459 2.98,1.377 h 0.113 v -4.865 h 2.263 V 240.2 h -1.867 l -0.189,-1.32 h -0.113 c -0.327,0.503 -0.754,0.887 -1.282,1.151 -0.528,0.264 -1.113,0.396 -1.754,0.396 z m 0.679,-1.943 c 0.779,0 1.351,-0.257 1.716,-0.773 0.364,-0.528 0.547,-1.307 0.547,-2.338 v -0.226 c 0,-2.1 -0.755,-3.149 -2.263,-3.149 -0.83,0 -1.421,0.251 -1.773,0.754 -0.352,0.49 -0.528,1.282 -0.528,2.376 v 0.245 c 0,1.081 0.176,1.873 0.528,2.376 0.352,0.49 0.943,0.735 1.773,0.735 z"
       fill="#000000"
       id="path423" />
    <path
       d="m 234.79,121.59 h 1.301 l 1.386,3.95 c 0.057,0.151 0.142,0.399 0.255,0.745 0.082,0.258 0.129,0.399 0.141,0.424 h 0.048 c 0.163,-0.54 0.289,-0.933 0.377,-1.178 l 1.376,-3.941 h 1.245 l -2.357,6.468 h -1.405 z m 8.773,6.581 c -0.805,0 -1.402,-0.211 -1.792,-0.632 -0.389,-0.421 -0.584,-1.075 -0.584,-1.961 0,-0.886 0.195,-1.54 0.584,-1.961 0.396,-0.421 0.993,-0.632 1.792,-0.632 0.729,0 1.273,0.204 1.631,0.613 0.364,0.408 0.547,1.046 0.547,1.914 v 0.339 h -3.404 c 0.019,0.491 0.123,0.852 0.311,1.085 0.195,0.226 0.503,0.339 0.924,0.339 0.314,0 0.569,-0.079 0.764,-0.236 0.195,-0.163 0.292,-0.402 0.292,-0.716 h 1.113 c 0,0.609 -0.201,1.071 -0.604,1.386 -0.402,0.308 -0.927,0.462 -1.574,0.462 z m 0.999,-3.121 c 0,-0.78 -0.333,-1.169 -0.999,-1.169 -0.377,0 -0.663,0.097 -0.858,0.292 -0.189,0.189 -0.305,0.481 -0.349,0.877 z m 2.175,-1.952 h 0.933 l 0.104,0.783 h 0.066 c 0.226,-0.597 0.597,-0.896 1.113,-0.896 0.176,0 0.333,0.028 0.471,0.085 v 1.065 h -0.358 c -0.798,0 -1.198,0.447 -1.198,1.339 v 2.584 h -1.131 z m 4.14,6.676 c -0.264,0 -0.462,-0.019 -0.594,-0.057 -0.132,-0.031 -0.201,-0.047 -0.207,-0.047 v -0.783 h 0.509 c 0.245,0 0.449,-0.066 0.613,-0.198 0.17,-0.125 0.302,-0.336 0.396,-0.631 l -1.933,-4.96 h 1.188 l 0.933,2.386 c 0.107,0.282 0.246,0.741 0.415,1.376 h 0.047 c 0.158,-0.603 0.286,-1.062 0.387,-1.376 l 0.754,-2.386 h 1.141 l -1.65,4.705 c -0.226,0.635 -0.487,1.122 -0.782,1.461 -0.296,0.34 -0.701,0.51 -1.217,0.51 z m 7.047,-8.184 h 4.649 v 1.027 h -3.442 v 1.754 h 3.102 v 1.028 h -3.102 v 2.659 h -1.207 z m 6.584,6.581 c -0.402,0 -0.767,-0.098 -1.093,-0.293 -0.321,-0.201 -0.481,-0.568 -0.481,-1.103 0,-0.635 0.27,-1.081 0.811,-1.339 0.54,-0.257 1.307,-0.386 2.3,-0.386 v -0.415 c 0,-0.239 -0.063,-0.424 -0.188,-0.556 -0.12,-0.132 -0.34,-0.198 -0.66,-0.198 -0.334,0 -0.569,0.053 -0.708,0.16 -0.138,0.107 -0.207,0.239 -0.207,0.396 v 0.132 h -1.094 c -0.006,-0.038 -0.009,-0.107 -0.009,-0.207 0,-0.428 0.182,-0.764 0.547,-1.009 0.371,-0.245 0.861,-0.368 1.471,-0.368 0.66,0 1.153,0.135 1.48,0.405 0.333,0.271 0.5,0.657 0.5,1.16 v 2.367 c 0,0.113 0.031,0.198 0.094,0.254 0.063,0.051 0.141,0.076 0.236,0.076 h 0.301 v 0.773 c -0.201,0.094 -0.437,0.141 -0.707,0.141 -0.245,0 -0.449,-0.059 -0.613,-0.179 -0.163,-0.119 -0.273,-0.283 -0.33,-0.49 h -0.066 c -0.371,0.452 -0.899,0.679 -1.584,0.679 z m 0.34,-0.905 c 0.371,0 0.663,-0.107 0.877,-0.321 0.213,-0.214 0.32,-0.503 0.32,-0.867 v -0.227 c -0.61,0 -1.087,0.06 -1.433,0.179 -0.346,0.114 -0.519,0.324 -0.519,0.632 0,0.402 0.252,0.604 0.755,0.604 z m 5.569,0.905 c -0.685,0 -1.216,-0.142 -1.594,-0.425 -0.37,-0.282 -0.556,-0.65 -0.556,-1.103 v -0.113 c 0.006,-0.019 0.01,-0.031 0.01,-0.038 h 1.103 v 0.076 c 0.006,0.245 0.11,0.427 0.311,0.547 0.207,0.113 0.465,0.169 0.773,0.169 0.277,0 0.512,-0.044 0.707,-0.132 0.195,-0.094 0.292,-0.232 0.292,-0.414 0,-0.145 -0.053,-0.261 -0.16,-0.349 -0.107,-0.095 -0.239,-0.167 -0.396,-0.217 -0.157,-0.057 -0.38,-0.12 -0.669,-0.189 -0.39,-0.094 -0.711,-0.188 -0.962,-0.283 -0.245,-0.094 -0.456,-0.242 -0.632,-0.443 -0.176,-0.201 -0.264,-0.465 -0.264,-0.792 0,-0.471 0.195,-0.836 0.585,-1.093 0.39,-0.258 0.896,-0.387 1.518,-0.387 0.383,0 0.726,0.057 1.028,0.17 0.301,0.113 0.534,0.273 0.697,0.481 0.17,0.201 0.255,0.433 0.255,0.697 l -0.01,0.208 h -1.103 v -0.038 c 0,-0.195 -0.081,-0.346 -0.245,-0.453 -0.157,-0.113 -0.386,-0.169 -0.688,-0.169 -0.296,0 -0.519,0.047 -0.67,0.141 -0.15,0.088 -0.226,0.204 -0.226,0.349 0,0.176 0.091,0.308 0.274,0.396 0.188,0.082 0.474,0.163 0.858,0.245 0.414,0.094 0.748,0.192 0.999,0.292 0.258,0.095 0.481,0.246 0.669,0.453 0.189,0.207 0.283,0.487 0.283,0.839 0,0.547 -0.198,0.946 -0.594,1.198 -0.389,0.251 -0.921,0.377 -1.593,0.377 z m 4.442,0 c -0.421,0 -0.726,-0.117 -0.915,-0.349 -0.182,-0.239 -0.273,-0.534 -0.273,-0.886 v -2.914 h -0.604 v -0.924 h 0.623 l 0.207,-1.386 h 0.905 v 1.386 h 0.849 v 0.924 h -0.849 v 2.8 c 0,0.283 0.135,0.425 0.406,0.425 h 0.443 v 0.773 c -0.101,0.038 -0.227,0.072 -0.377,0.104 -0.151,0.031 -0.29,0.047 -0.415,0.047 z"
       fill="#fb4247"
       id="path425" />
    <ellipse
       cx="253.94901"
       cy="170.19099"
       rx="3.49208"
       ry="3.49209"
       transform="rotate(119.819,253.949,170.191)"
       fill="#000000"
       id="ellipse427" />
    <path
       d="m 306.593,200.927 -50.777,-33.714 -3.481,6.074 z"
       fill="#000000"
       id="path429" />
    <path
       d="m 167.543,225.434 c -7.881,-14.349 -12.395,-30.851 -12.395,-48.358 0,-55.461 44.92,-100.4469 100.299,-100.4469 55.38,0 100.299,44.9859 100.299,100.4469 0,17.363 -4.37,33.65 -12.107,47.856"
       stroke="#e3e1e2"
       stroke-width="6.28572"
       stroke-linecap="round"
       id="path431" />
    <path
       d="m 167.543,225.434 c -7.881,-14.35 -12.395,-30.852 -12.395,-48.358 0,-55.461 44.92,-100.447 100.299,-100.447 55.38,0 100.299,44.986 100.299,100.447 0,17.363 -4.37,33.65 -12.107,47.856"
       stroke="url(#e)"
       stroke-width="9.42857"
       stroke-linecap="round"
       id="path433"
       style="stroke:url(#e)" />
    <path
       d="m 256.165,99.0562 v -4.4414 m -15.99,5.9222 -0.984,-4.4418 m -13.777,9.3758 -1.476,-3.947 m -11.317,11.843 -2.952,-3.948 m -8.856,14.311 -3.445,-3.454 m -6.397,16.285 -3.936,-2.961 m -2.954,16.285 -4.429,-1.48 m 0.003,16.285 -4.428,-0.494 m 3.936,16.384 -4.429,0.296 m 7.382,15.397 -4.429,0.987 m 10.331,13.817 -3.936,2.468 m 87.582,-113.008 0.984,-4.4418 m 13.777,9.3758 1.476,-3.947 m 11.318,11.843 2.952,-3.948 m 8.856,14.311 3.445,-3.454 m 6.395,16.285 3.936,-2.961 m 2.954,16.285 4.428,-1.48 m 0,16.285 4.428,-0.494 m -3.936,16.384 4.428,0.296 m -7.378,15.397 4.428,0.987 m -10.335,13.817 3.936,2.468"
       stroke="#e3e1e2"
       stroke-width="1.17857"
       stroke-linecap="round"
       id="path435" />
    <g
       filter="url(#f)"
       id="g439">
      <path
         d="m 345.13,226.484 c 3.345,0 6.056,-2.719 6.056,-6.074 0,-3.354 -2.711,-6.073 -6.056,-6.073 -3.344,0 -6.055,2.719 -6.055,6.073 0,3.355 2.711,6.074 6.055,6.074 z"
         fill="#000000"
         id="path437" />
    </g>
    <path
       d="m 344.244,231.339 c 5.017,0 9.084,-4.079 9.084,-9.111 0,-5.031 -4.067,-9.11 -9.084,-9.11 -5.017,0 -9.084,4.079 -9.084,9.11 0,5.032 4.067,9.111 9.084,9.111 z"
       fill="#fb4247"
       stroke="#ffffff"
       stroke-width="6.28572"
       id="path441" />
  </g>
  <g
     clip-path="url(#g)"
     id="g457"
     transform="translate(0,-34)">
    <circle
       cx="119.059"
       cy="314.75"
       r="77.058601"
       fill="#ffffff"
       id="circle445" />
    <path
       d="m 120.173,319.993 -18.272,53.067 c 5.402,1.589 11.122,2.542 17.159,2.542 6.991,0 13.823,-1.271 20.179,-3.495 -0.159,-0.318 -0.318,-0.477 -0.477,-0.795 z"
       fill="url(#h)"
       id="path447"
       style="fill:url(#h)" />
    <path
       d="m 58.3627,314.749 c 0,23.992 13.9817,44.806 34.16,54.656 L 63.6058,289.964 c -3.3365,7.626 -5.2431,15.888 -5.2431,24.785 z"
       fill="url(#i)"
       id="path449"
       style="fill:url(#i)" />
    <path
       d="m 160.057,311.731 c 0,-7.468 -2.701,-12.711 -4.926,-16.683 -3.019,-4.926 -6.037,-9.215 -6.037,-14.3 0,-5.561 4.29,-10.804 10.168,-10.804 h 0.795 c -10.804,-9.851 -25.263,-15.888 -40.992,-15.888 -21.2908,0 -39.8802,10.963 -50.6843,27.328 h 3.9721 c 6.3554,0 16.2062,-0.795 16.2062,-0.795 3.3365,-0.158 3.6543,4.608 0.3177,4.926 0,0 -3.3365,0.318 -6.9908,0.635 l 22.0851,65.937 13.346,-39.88 -9.533,-25.898 c -3.337,-0.159 -6.355,-0.635 -6.355,-0.635 -3.337,-0.159 -2.8604,-5.243 0.317,-4.926 0,0 10.01,0.795 16.048,0.795 6.355,0 16.206,-0.795 16.206,-0.795 3.336,-0.159 3.654,4.608 0.317,4.926 0,0 -3.336,0.317 -6.99,0.635 l 21.926,65.301 6.037,-20.178 c 2.701,-8.579 4.767,-14.617 4.767,-19.701 z"
       fill="url(#j)"
       id="path451"
       style="fill:url(#j)" />
    <path
       d="m 172.28,285.674 c 0.317,1.906 0.476,3.972 0.476,6.196 0,6.197 -1.112,13.029 -4.607,21.767 l -18.59,53.544 c 18.113,-10.486 30.188,-30.029 30.188,-52.431 0,-10.646 -2.701,-20.496 -7.467,-29.076 z"
       fill="url(#k)"
       id="path453"
       style="fill:url(#k)" />
    <path
       d="M 119.059,237.691 C 76.4778,237.691 42,272.169 42,314.75 c 0,42.58 34.4778,77.058 77.059,77.058 42.58,0 77.058,-34.478 77.058,-77.058 0,-42.581 -34.478,-77.059 -77.058,-77.059 z m 0,144.584 c -37.1792,0 -67.526,-30.347 -67.526,-67.525 0,-37.179 30.3468,-67.526 67.526,-67.526 37.178,0 67.525,30.347 67.525,67.526 0,37.178 -30.347,67.525 -67.525,67.525 z"
       fill="url(#l)"
       id="path455"
       style="fill:url(#l)" />
  </g>
  <g
     filter="url(#m)"
     id="g461"
     transform="translate(0,-34)">
    <path
       d="m 397,343.997 v 50.931 c 0,54.27 63.353,77.925 66.073,78.887 1.245,0.45 2.609,0.45 3.854,0 2.72,-0.962 66.073,-24.617 66.073,-78.887 v -50.931 c 0,-1.163 -0.36,-2.298 -1.029,-3.249 -0.669,-0.952 -1.616,-1.675 -2.711,-2.07 l -62.333,-22.637 c -1.245,-0.449 -2.609,-0.449 -3.854,0 l -62.333,22.637 c -1.095,0.395 -2.042,1.118 -2.711,2.07 -0.669,0.951 -1.029,2.086 -1.029,3.249 z"
       fill="url(#n)"
       id="path459"
       style="fill:url(#n)" />
  </g>
  <path
     d="m 465,329.7 c -8.658,0 -15.625,7.175 -15.625,16.06 v 6.447 c -2.869,0.29 -4.375,2.718 -4.375,5.667 v 21.14 c 0,3.145 2.539,5.685 5.684,5.685 h 28.632 c 3.145,0 5.684,-2.54 5.684,-5.685 v -21.14 c 0,-2.949 -1.506,-5.396 -4.375,-5.686 v -6.428 c 0,-8.885 -6.967,-16.061 -15.625,-16.061 z m 0,6.232 c 5.541,0 10,4.397 10,9.867 v 6.389 h -20 v -6.389 c 0,-5.47 4.459,-9.867 10,-9.867 z m 0,24.384 c 2.416,0 4.375,1.959 4.375,4.376 0,1.537 -0.795,2.893 -1.992,3.674 0.065,0.223 0.117,0.457 0.117,0.703 v 5.002 c 0,1.385 -1.115,2.501 -2.5,2.501 -1.385,0 -2.5,-1.116 -2.5,-2.501 v -5.002 c 0,-0.246 0.052,-0.48 0.117,-0.703 -1.197,-0.781 -1.992,-2.137 -1.992,-3.674 0,-2.417 1.959,-4.376 4.375,-4.376 z"
     fill="#ffffff"
     id="path463" />
  <defs
     id="defs571">
    <linearGradient
       id="b"
       x1="435.28799"
       y1="240.29201"
       x2="435.28799"
       y2="360.86401"
       gradientUnits="userSpaceOnUse">
      <stop
         stop-color="#1AC3DA"
         stop-opacity=".29"
         id="stop465" />
      <stop
         offset="1"
         stop-color="#1AC3DA"
         stop-opacity="0"
         id="stop467" />
    </linearGradient>
    <linearGradient
       id="h"
       x1="174.92599"
       y1="365.80099"
       x2="-234.866"
       y2="265.078"
       gradientUnits="userSpaceOnUse">
      <stop
         stop-color="#1CC5DC"
         id="stop470" />
      <stop
         offset="1"
         stop-color="#fff"
         stop-opacity=".8"
         id="stop472" />
    </linearGradient>
    <linearGradient
       id="i"
       x1="182.63"
       y1="364.83801"
       x2="-165.78101"
       y2="418.689"
       gradientUnits="userSpaceOnUse">
      <stop
         stop-color="#1CC5DC"
         id="stop475" />
      <stop
         offset="1"
         stop-color="#fff"
         stop-opacity=".8"
         id="stop477" />
    </linearGradient>
    <linearGradient
       id="j"
       x1="176.854"
       y1="360.98499"
       x2="-184.25301"
       y2="130.67"
       gradientUnits="userSpaceOnUse">
      <stop
         stop-color="#1CC5DC"
         id="stop480" />
      <stop
         offset="1"
         stop-color="#fff"
         stop-opacity=".8"
         id="stop482" />
    </linearGradient>
    <linearGradient
       id="k"
       x1="179.74001"
       y1="366.76401"
       x2="-126.51"
       y2="446.97198"
       gradientUnits="userSpaceOnUse">
      <stop
         stop-color="#54D3E5"
         id="stop485" />
      <stop
         offset="1"
         stop-color="#fff"
         stop-opacity=".8"
         id="stop487" />
    </linearGradient>
    <linearGradient
       id="l"
       x1="187.448"
       y1="363.87399"
       x2="-183.563"
       y2="94.933899"
       gradientUnits="userSpaceOnUse">
      <stop
         stop-color="#1CC5DC"
         id="stop490" />
      <stop
         offset="1"
         stop-color="#fff"
         stop-opacity=".8"
         id="stop492" />
    </linearGradient>
    <linearGradient
       id="n"
       x1="396.04599"
       y1="396.55499"
       x2="533.56403"
       y2="396.112"
       gradientUnits="userSpaceOnUse">
      <stop
         stop-color="#FB6165"
         id="stop495" />
      <stop
         offset="1"
         stop-color="#E72E33"
         id="stop497" />
    </linearGradient>
    <filter
       id="c"
       x="509.961"
       y="223.211"
       width="37.967602"
       height="38.003799"
       filterUnits="userSpaceOnUse"
       color-interpolation-filters="sRGB">
      <feFlood
         flood-opacity="0"
         result="BackgroundImageFix"
         id="feFlood500" />
      <feColorMatrix
         in="SourceAlpha"
         values="0 0 0 0 0 0 0 0 0 0 0 0 0 0 0 0 0 0 127 0"
         result="hardAlpha"
         id="feColorMatrix502" />
      <feOffset
         dy="1.5761"
         id="feOffset504" />
      <feGaussianBlur
         stdDeviation="4.72831"
         id="feGaussianBlur506" />
      <feColorMatrix
         values="0 0 0 0 0.256667 0 0 0 0 0.35 0 0 0 0 0.346175 0 0 0 0.02 0"
         id="feColorMatrix508" />
      <feBlend
         in2="BackgroundImageFix"
         result="effect1_dropShadow"
         id="feBlend510"
         mode="normal" />
      <feBlend
         in="SourceGraphic"
         in2="effect1_dropShadow"
         result="shape"
         id="feBlend512"
         mode="normal" />
    </filter>
    <filter
       id="d"
       x="0"
       y="0"
       width="515"
       height="506.173"
       filterUnits="userSpaceOnUse"
       color-interpolation-filters="sRGB">
      <feFlood
         flood-opacity="0"
         result="BackgroundImageFix"
         id="feFlood515" />
      <feColorMatrix
         in="SourceAlpha"
         values="0 0 0 0 0 0 0 0 0 0 0 0 0 0 0 0 0 0 127 0"
         result="hardAlpha"
         id="feColorMatrix517" />
      <feOffset
         dy="80"
         id="feOffset519" />
      <feGaussianBlur
         stdDeviation="60"
         id="feGaussianBlur521" />
      <feColorMatrix
         values="0 0 0 0 0.152941 0 0 0 0 0.188235 0 0 0 0 0.305882 0 0 0 0.3 0"
         id="feColorMatrix523" />
      <feBlend
         in2="BackgroundImageFix"
         result="effect1_dropShadow"
         id="feBlend525"
         mode="normal" />
      <feBlend
         in="SourceGraphic"
         in2="effect1_dropShadow"
         result="shape"
         id="feBlend527"
         mode="normal" />
    </filter>
    <filter
       id="f"
       x="323.35999"
       y="204.908"
       width="43.540199"
       height="43.575901"
       filterUnits="userSpaceOnUse"
       color-interpolation-filters="sRGB">
      <feFlood
         flood-opacity="0"
         result="BackgroundImageFix"
         id="feFlood530" />
      <feColorMatrix
         in="SourceAlpha"
         values="0 0 0 0 0 0 0 0 0 0 0 0 0 0 0 0 0 0 127 0"
         result="hardAlpha"
         id="feColorMatrix532" />
      <feOffset
         dy="6.28572"
         id="feOffset534" />
      <feGaussianBlur
         stdDeviation="7.85714"
         id="feGaussianBlur536" />
      <feColorMatrix
         values="0 0 0 0 0 0 0 0 0 0 0 0 0 0 0 0 0 0 0.4 0"
         id="feColorMatrix538" />
      <feBlend
         in2="BackgroundImageFix"
         result="effect1_dropShadow"
         id="feBlend540"
         mode="normal" />
      <feBlend
         in="SourceGraphic"
         in2="effect1_dropShadow"
         result="shape"
         id="feBlend542"
         mode="normal" />
    </filter>
    <filter
       id="m"
       x="345.73801"
       y="290.073"
       width="238.524"
       height="260.97198"
       filterUnits="userSpaceOnUse"
       color-interpolation-filters="sRGB">
      <feFlood
         flood-opacity="0"
         result="BackgroundImageFix"
         id="feFlood545" />
      <feColorMatrix
         in="SourceAlpha"
         values="0 0 0 0 0 0 0 0 0 0 0 0 0 0 0 0 0 0 127 0"
         result="hardAlpha"
         id="feColorMatrix547" />
      <feOffset
         dy="25.6309"
         id="feOffset549" />
      <feGaussianBlur
         stdDeviation="25.6309"
         id="feGaussianBlur551" />
      <feColorMatrix
         values="0 0 0 0 0 0 0 0 0 0 0 0 0 0 0 0 0 0 0.12 0"
         id="feColorMatrix553" />
      <feBlend
         in2="BackgroundImageFix"
         result="effect1_dropShadow"
         id="feBlend555"
         mode="normal" />
      <feBlend
         in="SourceGraphic"
         in2="effect1_dropShadow"
         result="shape"
         id="feBlend557"
         mode="normal" />
    </filter>
    <clipPath
       id="a">
      <rect
         x="291"
         y="160.69901"
         width="275"
         height="237.20399"
         rx="16"
         fill="#ffffff"
         id="rect560" />
    </clipPath>
    <clipPath
       id="g">
      <path
         fill="#ffffff"
         transform="translate(42,237.691)"
         d="M 0,0 H 154.117 V 154.117 H 0 Z"
         id="path563" />
    </clipPath>
    <radialGradient
       id="e"
       cx="0"
       cy="0"
       r="1"
       gradientUnits="userSpaceOnUse"
       gradientTransform="matrix(0,73.3449,-73.384,0,255.069,176.943)">
      <stop
         offset=".176958"
         stop-color="#1AC3DA"
         id="stop566" />
      <stop
         offset=".822215"
         stop-color="#FB4247"
         id="stop568" />
    </radialGradient>
  </defs>
</svg>
