<svg width="550" height="550" viewBox="0 0 550 550" fill="none" xmlns="http://www.w3.org/2000/svg">
<rect width="550" height="550" fill="white"/>
<path d="M187.672 285.266C187.141 292.609 184.422 298.391 179.516 302.609C174.641 306.828 168.203 308.938 160.203 308.938C151.453 308.938 144.562 306 139.531 300.125C134.531 294.219 132.031 286.125 132.031 275.844V271.672C132.031 265.109 133.188 259.328 135.5 254.328C137.812 249.328 141.109 245.5 145.391 242.844C149.703 240.156 154.703 238.812 160.391 238.812C168.266 238.812 174.609 240.922 179.422 245.141C184.234 249.359 187.016 255.281 187.766 262.906H173.703C173.359 258.5 172.125 255.312 170 253.344C167.906 251.344 164.703 250.344 160.391 250.344C155.703 250.344 152.188 252.031 149.844 255.406C147.531 258.75 146.344 263.953 146.281 271.016V276.172C146.281 283.547 147.391 288.938 149.609 292.344C151.859 295.75 155.391 297.453 160.203 297.453C164.547 297.453 167.781 296.469 169.906 294.5C172.062 292.5 173.297 289.422 173.609 285.266H187.672ZM226.391 302.844C223.047 306.906 218.422 308.938 212.516 308.938C207.078 308.938 202.922 307.375 200.047 304.25C197.203 301.125 195.75 296.547 195.688 290.516V257.281H209.234V290.047C209.234 295.328 211.641 297.969 216.453 297.969C221.047 297.969 224.203 296.375 225.922 293.188V257.281H239.516V308H226.766L226.391 302.844ZM277.203 293.984C277.203 292.328 276.375 291.031 274.719 290.094C273.094 289.125 270.469 288.266 266.844 287.516C254.781 284.984 248.75 279.859 248.75 272.141C248.75 267.641 250.609 263.891 254.328 260.891C258.078 257.859 262.969 256.344 269 256.344C275.438 256.344 280.578 257.859 284.422 260.891C288.297 263.922 290.234 267.859 290.234 272.703H276.688C276.688 270.766 276.062 269.172 274.812 267.922C273.562 266.641 271.609 266 268.953 266C266.672 266 264.906 266.516 263.656 267.547C262.406 268.578 261.781 269.891 261.781 271.484C261.781 272.984 262.484 274.203 263.891 275.141C265.328 276.047 267.734 276.844 271.109 277.531C274.484 278.188 277.328 278.938 279.641 279.781C286.797 282.406 290.375 286.953 290.375 293.422C290.375 298.047 288.391 301.797 284.422 304.672C280.453 307.516 275.328 308.938 269.047 308.938C264.797 308.938 261.016 308.188 257.703 306.688C254.422 305.156 251.844 303.078 249.969 300.453C248.094 297.797 247.156 294.938 247.156 291.875H260C260.125 294.281 261.016 296.125 262.672 297.406C264.328 298.688 266.547 299.328 269.328 299.328C271.922 299.328 273.875 298.844 275.188 297.875C276.531 296.875 277.203 295.578 277.203 293.984ZM297.031 282.266C297.031 274.359 298.797 268.062 302.328 263.375C305.891 258.688 310.75 256.344 316.906 256.344C321.844 256.344 325.922 258.188 329.141 261.875V236H342.734V308H330.5L329.844 302.609C326.469 306.828 322.125 308.938 316.812 308.938C310.844 308.938 306.047 306.594 302.422 301.906C298.828 297.188 297.031 290.641 297.031 282.266ZM310.578 283.25C310.578 288 311.406 291.641 313.062 294.172C314.719 296.703 317.125 297.969 320.281 297.969C324.469 297.969 327.422 296.203 329.141 292.672V272.656C327.453 269.125 324.531 267.359 320.375 267.359C313.844 267.359 310.578 272.656 310.578 283.25ZM367.531 308H353.938V257.281H367.531V308ZM353.141 244.156C353.141 242.125 353.812 240.453 355.156 239.141C356.531 237.828 358.391 237.172 360.734 237.172C363.047 237.172 364.891 237.828 366.266 239.141C367.641 240.453 368.328 242.125 368.328 244.156C368.328 246.219 367.625 247.906 366.219 249.219C364.844 250.531 363.016 251.188 360.734 251.188C358.453 251.188 356.609 250.531 355.203 249.219C353.828 247.906 353.141 246.219 353.141 244.156ZM406.203 293.984C406.203 292.328 405.375 291.031 403.719 290.094C402.094 289.125 399.469 288.266 395.844 287.516C383.781 284.984 377.75 279.859 377.75 272.141C377.75 267.641 379.609 263.891 383.328 260.891C387.078 257.859 391.969 256.344 398 256.344C404.438 256.344 409.578 257.859 413.422 260.891C417.297 263.922 419.234 267.859 419.234 272.703H405.688C405.688 270.766 405.062 269.172 403.812 267.922C402.562 266.641 400.609 266 397.953 266C395.672 266 393.906 266.516 392.656 267.547C391.406 268.578 390.781 269.891 390.781 271.484C390.781 272.984 391.484 274.203 392.891 275.141C394.328 276.047 396.734 276.844 400.109 277.531C403.484 278.188 406.328 278.938 408.641 279.781C415.797 282.406 419.375 286.953 419.375 293.422C419.375 298.047 417.391 301.797 413.422 304.672C409.453 307.516 404.328 308.938 398.047 308.938C393.797 308.938 390.016 308.188 386.703 306.688C383.422 305.156 380.844 303.078 378.969 300.453C377.094 297.797 376.156 294.938 376.156 291.875H389C389.125 294.281 390.016 296.125 391.672 297.406C393.328 298.688 395.547 299.328 398.328 299.328C400.922 299.328 402.875 298.844 404.188 297.875C405.531 296.875 406.203 295.578 406.203 293.984Z" fill="black"/>
</svg>
