<svg width="1600" height="445" fill="none" xmlns="http://www.w3.org/2000/svg"><mask id="a" style="mask-type:alpha" maskUnits="userSpaceOnUse" x="0" y="0" width="1601" height="445"><path fill="#F9F9FB" d="M0 0h1601v445H0z"/></mask><g mask="url(#a)"><path fill="#F9F9FB" d="M0-5h1601v560H0z"/><path opacity=".2" fill-rule="evenodd" clip-rule="evenodd" d="M538.223 121c0 35.346-28.654 64-64 64H20c-35.346 0-64-28.654-64-64 0-35.346 28.654-64 64-64h454.223c35.346 0 64 28.654 64 64z" fill="url(#paint0_linear_3480_1748)"/><path opacity=".2" fill-rule="evenodd" clip-rule="evenodd" d="M588.223 473c0 35.346-28.654 64-64 64H70.001c-35.347 0-64-28.654-64-64 0-35.346 28.653-64 64-64h454.222c35.346 0 64 28.654 64 64z" fill="url(#paint1_linear_3480_1748)"/><path opacity=".5" fill-rule="evenodd" clip-rule="evenodd" d="M-62 254c0-35.346 28.654-64 64-64h454.222c35.346 0 64 28.654 64 64 0 35.346-28.654 64-64 64H2c-35.346 0-64-28.654-64-64z" fill="url(#paint2_linear_3480_1748)"/><path opacity=".5" fill-rule="evenodd" clip-rule="evenodd" d="M1400.36 433c0 35.346-28.65 64-64 64H1161c-35.35 0-64-28.654-64-64 0-35.346 28.65-64 64-64h175.36c35.35 0 64 28.654 64 64z" fill="url(#paint3_linear_3480_1748)"/></g><defs><linearGradient id="paint0_linear_3480_1748" x1="538.4" y1="121" x2="15.2" y2="121" gradientUnits="userSpaceOnUse"><stop stop-color="#DBD6D8"/><stop offset="1" stop-color="#DBD6D8" stop-opacity="0"/></linearGradient><linearGradient id="paint1_linear_3480_1748" x1="588.4" y1="473" x2="65.2" y2="473" gradientUnits="userSpaceOnUse"><stop stop-color="#DBD6D8"/><stop offset="1" stop-color="#DBD6D8" stop-opacity="0"/></linearGradient><linearGradient id="paint2_linear_3480_1748" x1="-62.178" y1="254" x2="461.022" y2="254" gradientUnits="userSpaceOnUse"><stop stop-color="#DBD6D8"/><stop offset="1" stop-color="#DBD6D8" stop-opacity="0"/></linearGradient><linearGradient id="paint3_linear_3480_1748" x1="1732.97" y1="433.128" x2="1096.36" y2="433" gradientUnits="userSpaceOnUse"><stop stop-color="#DBD6D8"/><stop offset="1" stop-color="#DBD6D8" stop-opacity="0"/></linearGradient></defs></svg>