<svg xmlns="http://www.w3.org/2000/svg" xmlns:xlink="http://www.w3.org/1999/xlink" width="1600" height="1024.001" viewBox="6.345 0.456 1600 1024.001"><radialGradient id="a" cx="1503.008" cy="1164.296" r="1" gradientTransform="matrix(795 -366.9998 -573.4375 -1242.1881 -526843.125 1998716.125)" gradientUnits="userSpaceOnUse"><stop offset="0" stop-color="#1f2742"/><stop offset="1" stop-color="#2f395a"/></radialGradient><path fill="url(#a)" d="M6.345.456h1600v1024.001h-1600z"/><linearGradient id="b" gradientUnits="userSpaceOnUse" x1="523.767" y1="1610.727" x2="-26.989" y2="1610.727" gradientTransform="matrix(1 0 0 -1 .12 1666.92)"><stop offset="0" stop-color="#2f3a5f"/><stop offset="1" stop-color="#2f3a5f" stop-opacity="0"/></linearGradient><path fill="url(#b)" d="M-11.114-32.809h446c49.153 0 89 39.847 89 89s-39.847 89-89 89h-446c-49.154 0-89-39.847-89-89s39.846-89 89-89z"/><linearGradient id="c" gradientUnits="userSpaceOnUse" x1="362.767" y1="862.227" x2="-12.347" y2="862.227" gradientTransform="matrix(1 0 0 -1 .12 1666.92)"><stop offset="0" stop-color="#2f3a5f"/><stop offset="1" stop-color="#2f3a5f" stop-opacity="0"/></linearGradient><path opacity=".4" fill="url(#c)" d="M25.386 717.191h250c48.325 0 87.5 39.175 87.5 87.5s-39.175 87.5-87.5 87.5h-250c-48.325 0-87.5-39.175-87.5-87.5s39.175-87.5 87.5-87.5z"/><linearGradient id="d" gradientUnits="userSpaceOnUse" x1="178.772" y1="1488.723" x2="-21.583" y2="1488.724" gradientTransform="matrix(1 0 0 -1 .12 1666.92)"><stop offset="0" stop-color="#37446f"/><stop offset="1" stop-color="#2f3a5f" stop-opacity="0"/></linearGradient><path fill="url(#d)" d="M12.886 117.191h105c33.689 0 61 27.311 61 61 0 33.688-27.311 61-61 61h-105c-33.689 0-61-27.313-61-61 0-33.689 27.31-61 61-61z"/><linearGradient id="e" gradientUnits="userSpaceOnUse" x1="648.765" y1="1008.729" x2="427.226" y2="1008.729" gradientTransform="matrix(1 0 0 -1 .12 1666.92)"><stop offset="0" stop-color="#2f3a5f"/><stop offset="1" stop-color="#2f3a5f" stop-opacity="0"/></linearGradient><path fill="url(#e)" d="M447.886 608.191h151c27.614 0 50 22.386 50 50s-22.386 50-50 50h-151c-27.612 0-50-22.386-50-50s22.385-50 50-50z"/><linearGradient id="f" gradientUnits="userSpaceOnUse" x1="606.765" y1="893.229" x2="420.532" y2="893.229" gradientTransform="matrix(1 0 0 -1 .12 1666.92)"><stop offset="0" stop-color="#2f3a5f"/><stop offset="1" stop-color="#2f3a5f" stop-opacity="0"/></linearGradient><path opacity=".4" fill="url(#f)" d="M421.386 748.191h160c14.084 0 25.5 11.417 25.5 25.5s-11.416 25.5-25.5 25.5h-160c-14.083 0-25.5-11.417-25.5-25.5s11.417-25.5 25.5-25.5z"/><linearGradient id="g" gradientUnits="userSpaceOnUse" x1="165.767" y1="904.229" x2="-20.466" y2="904.229" gradientTransform="matrix(1 0 0 -1 .12 1666.92)"><stop offset="0" stop-color="#2f3a5f"/><stop offset="1" stop-color="#2f3a5f" stop-opacity="0"/></linearGradient><path fill="url(#g)" d="M-19.612 737.191h160c14.083 0 25.5 11.417 25.5 25.5s-11.417 25.5-25.5 25.5h-160c-14.083 0-25.5-11.417-25.5-25.5s11.416-25.5 25.5-25.5z"/><linearGradient id="h" gradientUnits="userSpaceOnUse" x1="165.768" y1="1186.227" x2="-275.543" y2="1186.227" gradientTransform="matrix(1 0 0 -1 .12 1666.92)"><stop offset="0" stop-color="#2f3a5f"/><stop offset="1" stop-color="#2f3a5f" stop-opacity="0"/></linearGradient><path opacity=".6" fill="url(#h)" d="M-239.614 386.191h311c52.191 0 94.5 42.312 94.5 94.5 0 52.191-42.309 94.5-94.5 94.5h-311c-52.19 0-94.5-42.309-94.5-94.5 0-52.188 42.309-94.5 94.5-94.5z"/><path fill="#2F3A5F" d="M784.264 241.821c-24.728 0-44.806-19.951-44.806-44.53 0-24.565 20.078-44.521 44.806-44.521h529.246c24.722 0 44.802 19.955 44.802 44.521 0 24.579-20.068 44.53-44.802 44.53H784.264zm498.616 361.423c17.949-16.792 46.25-15.955 63.15 1.896 16.897 17.849 16.059 45.96-1.91 62.751-41.381 38.603-88.16 69.351-138.58 90.246-49.33 20.408-102.07 31.479-156.65 31.479-54.588 0-107.334-11.069-156.66-31.479-50.422-20.896-97.196-51.646-138.584-90.246-17.963-16.791-18.805-44.902-1.904-62.751 16.896-17.852 45.197-18.688 63.149-1.896 33.562 31.311 71.234 56.125 111.638 72.854 38.317 15.851 79.494 24.475 122.362 24.475 42.859 0 84.029-8.624 122.353-24.475 40.396-16.725 78.076-41.546 111.636-72.854zm11.709-227.006c22.301-10.377 48.9-.773 59.34 21.388 10.451 22.151 10.313 69.057-11.979 79.434-40.689 18.971-91.199 35.655-139.93 45.717-47.103 9.749-101.722-7.067-153.132-7.067-51.414 0-101.479-5.295-148.575-15.044-48.726-10.063-94.314-25.143-134.961-44.07-22.291-10.377-52.375-46.439-41.937-68.593 10.443-22.161 67.004-42.6 89.305-32.223 34.287 15.991 68.23 27.136 110.354 35.827 45.869 7.573 48.221 7.861 99.006 11.935 45.969 0 116.67 18.558 157.17 10.177 42.13-8.698 81.08-21.53 115.339-37.481z"/><path fill="#2F3A5F" d="M892.229 758.135c-50.422-20.896-97.197-51.646-138.584-90.246-17.964-16.791-18.806-44.902-1.905-62.751 16.896-17.85 45.198-18.688 63.148-1.896 33.562 31.311 71.236 56.125 111.638 72.854 38.319 15.851 79.496 24.475 122.362 24.475 42.861 0 84.031-8.624 122.353-24.475 40.397-16.726 78.08-41.545 111.641-72.854 17.949-16.792 46.25-15.955 63.15 1.896 16.897 17.849 16.059 45.96-1.91 62.751-41.381 38.603-88.16 69.351-138.58 90.246-49.33 20.408-102.07 31.479-156.65 31.479-54.59.001-107.336-11.068-156.663-31.479zm375.231-171.381v.003c-31.75 29.614-67.16 52.881-104.84 68.479-35.691 14.762-73.941 22.761-113.73 22.761-39.801 0-78.045-7.998-113.729-22.758-37.691-15.604-73.113-38.874-104.869-68.501l-.002-.002c-27.002-25.233-69.498-23.992-94.939 2.881-25.5 26.938-24.235 69.416 2.887 94.771l.009.008.009.008c43.21 40.305 92.243 72.589 145.336 94.592l.014.005c51.939 21.488 107.609 33.194 165.289 33.194 57.67 0 113.34-11.706 165.279-33.194l.01-.005c53.093-22.003 102.131-54.286 145.343-94.592l.01-.008.01-.008c27.121-25.354 28.381-67.834 2.881-94.771-25.458-26.881-67.968-28.117-94.968-2.863zM814.89 387.997l-2.168-32.22c32.564 15.188 69.802 27.46 110.354 35.827l.012.003c38.945 8.056 81.303 12.471 125.806 12.471 44.487 0 86.85-4.415 125.789-12.471l.012-.002c40.549-8.369 77.817-20.677 110.379-35.836 33.5-15.599 73.52-1.224 89.279 32.228 15.83 33.578 1.121 73.454-32.398 89.063m11.974-79.434c-10.438-22.161-37.039-31.765-59.34-21.388-34.26 15.951-73.209 28.783-115.34 37.477-40.5 8.382-111.199-10.176-157.17-10.176-50.783-4.072-53.135-4.359-99.004-11.935-42.123-8.691-76.066-19.836-110.354-35.827-22.3-10.377-78.86 10.062-89.304 32.223-10.44 22.151 19.644 58.216 41.935 68.593 40.648 18.93 86.238 34.009 134.962 44.07 47.099 9.749 97.162 15.042 148.576 15.042 51.41 0 106.029 16.818 153.131 7.069 48.729-10.062 99.238-26.746 139.931-45.717 22.288-10.377 22.428-57.28 11.977-79.431zm-151.908 125.148c-48.602 10.06-100.188 15.507-153.131 15.507-52.944 0-104.541-5.447-153.143-15.508-50.34-10.398-97.605-26.008-139.923-45.717-33.521-15.606-48.231-55.48-32.407-89.058m478.604 134.776c50.341-10.393 97.562-25.964 139.921-45.716l-139.921 45.716zM812.722 355.777l2.168 32.22-2.168-32.22zm-28.458-91.379c-37.057 0-67.378-29.923-67.378-67.107 0-37.175 30.322-67.1 67.378-67.1h529.246c37.052 0 67.381 29.924 67.381 67.1 0 37.187-30.329 67.107-67.381 67.107H784.264zm28.458 91.379c-33.507-15.592-73.54-1.232-89.305 32.223l89.305-32.223zm-73.264-158.486c0 24.579 20.078 44.53 44.806 44.53h529.246c24.73 0 44.802-19.951 44.802-44.53 0-24.565-20.08-44.521-44.802-44.521H784.264c-24.728-.002-44.806 19.953-44.806 44.521z"/><linearGradient id="i" gradientUnits="userSpaceOnUse" x1="739.115" y1="1469.554" x2="832.145" y2="1469.903" gradientTransform="matrix(1 0 0 -1 .12 1666.92)"><stop offset="0" stop-color="#ff8c8f"/><stop offset="1" stop-color="#425cb4"/></linearGradient><circle opacity=".5" fill="none" stroke="url(#i)" stroke-width="2" cx="785.886" cy="197.191" r="45"/><linearGradient id="j" gradientUnits="userSpaceOnUse" x1="739.117" y1="1028.553" x2="832.146" y2="1028.902" gradientTransform="matrix(1 0 0 -1 .12 1666.92)"><stop offset="0" stop-color="#ff8c8f"/><stop offset="1" stop-color="#425cb4"/></linearGradient><circle opacity=".5" fill="none" stroke="url(#j)" stroke-width="2" cx="785.886" cy="638.191" r="45"/><defs><path id="k" d="M851.759 316.219h112v112h-112z"/></defs><clipPath id="l"><use xlink:href="#k" overflow="visible"/></clipPath><g clip-path="url(#l)" fill="#1AC3DA"><path d="M853.705 320.106a1.942 1.942 0 100-3.885 1.942 1.942 0 100 3.885zm35.888 0a1.942 1.942 0 100-3.885 1.942 1.942 0 100 3.885zm35.889 0c1.071 0 1.942-.87 1.942-1.944s-.871-1.941-1.942-1.941a1.943 1.943 0 100 3.885zm35.889 0a1.942 1.942 0 100-3.885 1.942 1.942 0 100 3.885zm-107.666 35.889c1.074 0 1.945-.87 1.945-1.944a1.945 1.945 0 00-3.89 0 1.943 1.943 0 001.945 1.944zm35.888 0c1.074 0 1.945-.87 1.945-1.944a1.945 1.945 0 00-3.887 0 1.941 1.941 0 001.942 1.944zm35.889 0a1.944 1.944 0 000-3.886 1.943 1.943 0 100 3.886zm35.889 0c1.074 0 1.945-.87 1.945-1.944a1.945 1.945 0 00-3.89 0 1.943 1.943 0 001.945 1.944zM855.65 390.009a1.942 1.942 0 01-1.945 1.945 1.942 1.942 0 01-1.945-1.945c0-1.108.904-2.014 1.945-2.014 1.111 0 1.945.903 1.945 2.014zm35.889 0a1.942 1.942 0 01-1.945 1.945 1.941 1.941 0 01-1.942-1.945c0-1.108.901-1.941 1.942-1.941 1.04-.073 1.945.83 1.945 1.941zm35.886 0a1.938 1.938 0 01-1.94 1.945c-1.043 0-1.945-.903-1.945-1.945a1.94 1.94 0 011.945-1.941c1.04-.002 1.94.83 1.94 1.941zm35.891 0a1.942 1.942 0 01-1.945 1.945 1.942 1.942 0 01-1.945-1.945c0-1.108.904-1.941 1.945-1.941 1.111-.073 1.945.83 1.945 1.941zM855.65 425.902a1.942 1.942 0 01-1.945 1.944 1.941 1.941 0 01-1.945-1.944c0-1.111.904-1.945 1.945-1.945 1.111-.069 1.945.834 1.945 1.945zm35.889 0a1.942 1.942 0 01-1.945 1.944 1.94 1.94 0 01-1.942-1.944 1.94 1.94 0 011.942-1.945c1.04-.069 1.945.834 1.945 1.945zm35.886 0a1.937 1.937 0 01-1.94 1.944c-1.043 0-1.945-.902-1.945-1.944 0-1.111.902-1.945 1.945-1.945 1.04 0 1.94.834 1.94 1.945zm35.891 0a1.942 1.942 0 01-1.945 1.944 1.941 1.941 0 01-1.945-1.944c0-1.111.904-1.945 1.945-1.945 1.111-.069 1.945.834 1.945 1.945z"/></g><defs><path id="m" d="M1369.759 625.219h112v112h-112z"/></defs><clipPath id="n"><use xlink:href="#m" overflow="visible"/></clipPath><g clip-path="url(#n)" fill="#1AC3DA"><path d="M1371.701 629.106a1.943 1.943 0 100-3.885 1.943 1.943 0 000 3.885zm35.888 0c1.08 0 1.951-.87 1.951-1.944a1.945 1.945 0 00-3.889 0 1.942 1.942 0 001.938 1.944zm35.89 0c1.078 0 1.949-.87 1.949-1.944a1.945 1.945 0 00-3.887 0c0 1.074.869 1.944 1.938 1.944zm35.892 0c1.069 0 1.949-.87 1.949-1.944a1.95 1.95 0 00-1.949-1.941 1.943 1.943 0 000 3.885zm-107.67 35.889a1.943 1.943 0 100-3.886c-1.07 0-1.941.871-1.941 1.945a1.942 1.942 0 001.941 1.941zm35.888 0c1.08 0 1.951-.87 1.951-1.941a1.947 1.947 0 00-1.951-1.945 1.943 1.943 0 000 3.886zm35.89 0c1.078 0 1.949-.87 1.949-1.941a1.942 1.942 0 10-1.949 1.941zm35.892 0a1.95 1.95 0 001.949-1.941 1.944 1.944 0 10-3.89 0 1.942 1.942 0 001.941 1.941zM1373.65 699.01a1.94 1.94 0 01-1.949 1.942c-1.111 0-1.941-.9-1.941-1.942 0-1.111.9-2.017 1.941-2.017 1.119.002 1.949.905 1.949 2.017zm35.891 0a1.94 1.94 0 01-1.951 1.942c-1.108 0-1.938-.9-1.938-1.942 0-1.111.897-1.944 1.938-1.944 1.05-.071 1.951.832 1.951 1.944zm35.888 0a1.945 1.945 0 01-1.949 1.942c-1.038 0-1.938-.9-1.938-1.942a1.944 1.944 0 113.887 0zm35.891 0c0 1.108-.91 1.942-1.949 1.942-1.111 0-1.941-.9-1.941-1.942 0-1.111.9-1.944 1.941-1.944 1.108-.071 1.949.832 1.949 1.944zm-107.67 35.892a1.94 1.94 0 01-1.949 1.944 1.938 1.938 0 01-1.941-1.944c0-1.111.9-1.945 1.941-1.945 1.119-.069 1.949.834 1.949 1.945zm35.891 0a1.94 1.94 0 01-1.951 1.944 1.937 1.937 0 01-1.938-1.944c0-1.111.897-1.945 1.938-1.945 1.05-.069 1.951.834 1.951 1.945zm35.888 0a1.945 1.945 0 01-1.949 1.944c-1.038 0-1.938-.902-1.938-1.944 0-1.111.9-1.945 1.938-1.945 1.041 0 1.949.834 1.949 1.945zm35.891 0c0 1.111-.91 1.944-1.949 1.944a1.938 1.938 0 01-1.941-1.944c0-1.111.9-1.945 1.941-1.945 1.108-.069 1.949.834 1.949 1.945z"/></g><defs><path id="o" d="M1512.759 625.219h112v112h-112z"/></defs><clipPath id="p"><use xlink:href="#o" overflow="visible"/></clipPath><g clip-path="url(#p)" fill="#1AC3DA"><path d="M1514.701 629.106a1.943 1.943 0 100-3.885 1.943 1.943 0 000 3.885zm35.888 0c1.08 0 1.951-.87 1.951-1.944a1.945 1.945 0 00-3.889 0 1.942 1.942 0 001.938 1.944zm35.89 0c1.078 0 1.949-.87 1.949-1.944a1.945 1.945 0 00-3.887 0c0 1.074.869 1.944 1.938 1.944zm-71.778 35.889a1.943 1.943 0 100-3.886c-1.07 0-1.941.871-1.941 1.945a1.942 1.942 0 001.941 1.941zm35.888 0c1.08 0 1.951-.87 1.951-1.941a1.947 1.947 0 00-1.951-1.945 1.943 1.943 0 000 3.886zm35.89 0c1.078 0 1.949-.87 1.949-1.941a1.942 1.942 0 10-1.949 1.941zm-69.829 34.015a1.94 1.94 0 01-1.949 1.942c-1.111 0-1.941-.9-1.941-1.942 0-1.111.9-2.017 1.941-2.017 1.119.002 1.949.905 1.949 2.017zm35.891 0a1.94 1.94 0 01-1.951 1.942c-1.108 0-1.938-.9-1.938-1.942 0-1.111.897-1.944 1.938-1.944 1.05-.071 1.951.832 1.951 1.944zm35.888 0a1.945 1.945 0 01-1.949 1.942c-1.038 0-1.938-.9-1.938-1.942a1.944 1.944 0 113.887 0zm-71.779 35.892a1.94 1.94 0 01-1.949 1.944 1.938 1.938 0 01-1.941-1.944c0-1.111.9-1.945 1.941-1.945 1.119-.069 1.949.834 1.949 1.945zm35.891 0a1.94 1.94 0 01-1.951 1.944 1.937 1.937 0 01-1.938-1.944c0-1.111.897-1.945 1.938-1.945 1.05-.069 1.951.834 1.951 1.945zm35.888 0a1.945 1.945 0 01-1.949 1.944c-1.038 0-1.938-.902-1.938-1.944 0-1.111.9-1.945 1.938-1.945 1.041 0 1.949.834 1.949 1.945z"/></g></svg>