<svg width="375" height="900" fill="none" xmlns="http://www.w3.org/2000/svg"><path fill="url(#paint0_radial)" d="M0 0h375v900H0z"/><rect x="-167" y="-8" width="350.789" height="100.065" rx="50.032" fill="url(#paint1_linear)"/><rect x="-37.222" y="258.324" width="127.611" height="68.584" rx="34.292" fill="url(#paint2_linear)"/><rect x="193" y="689" width="141.103" height="56.216" rx="28.108" fill="url(#paint3_linear)"/><rect opacity=".4" x="-56" y="673" width="118.616" height="28.67" rx="14.335" fill="url(#paint4_linear)"/><rect x="272" y="436" width="118.616" height="28.67" rx="14.335" fill="url(#paint5_linear)"/><rect opacity=".4" x="184" y="619" width="238.919" height="98.378" rx="49.189" fill="url(#paint6_linear)"/><rect opacity=".6" x="-84" y="361" width="281.081" height="106.249" rx="53.124" fill="url(#paint7_linear)"/><circle opacity=".5" cx="306" cy="149" r="25" stroke="url(#paint8_linear)" stroke-width="2"/><circle opacity=".5" cx="55" cy="293" r="25" stroke="url(#paint9_linear)" stroke-width="2"/><g clip-path="url(#clip0)" fill="#1AC3DA"><path d="M25.029 146.111a1.03 1.03 0 100-2.058 1.03 1.03 0 000 2.058zm18.989 0a1.03 1.03 0 100-2.058 1.03 1.03 0 000 2.058zm18.989 0a1.03 1.03 0 100-2.058 1.03 1.03 0 000 2.058zm18.989 0a1.03 1.03 0 100-2.058 1.03 1.03 0 000 2.058zM25.029 165.1a1.028 1.028 0 100-2.057 1.028 1.028 0 000 2.057zm18.989 0a1.028 1.028 0 100-2.057 1.028 1.028 0 000 2.057zm18.989 0a1.028 1.028 0 100-2.057 1.028 1.028 0 000 2.057zm18.989 0a1.028 1.028 0 100-2.057 1.028 1.028 0 000 2.057zm-55.938 17.997c0 .588-.478 1.029-1.03 1.029A1.027 1.027 0 0124 183.097c0-.588.478-1.066 1.029-1.066.588 0 1.029.478 1.029 1.066zm18.989 0c0 .588-.478 1.029-1.03 1.029a1.027 1.027 0 01-1.028-1.029c0-.588.478-1.029 1.029-1.029.55-.037 1.029.441 1.029 1.029zm18.989 0c0 .588-.478 1.029-1.03 1.029a1.052 1.052 0 01-1.028-1.029c0-.588.478-1.029 1.029-1.029.55 0 1.029.441 1.029 1.029zm18.989 0c0 .588-.478 1.029-1.03 1.029a1.027 1.027 0 01-1.028-1.029c0-.588.478-1.029 1.029-1.029.588-.037 1.029.441 1.029 1.029zm-56.967 18.991c0 .588-.478 1.029-1.03 1.029A1.027 1.027 0 0124 202.088c0-.587.478-1.028 1.029-1.028.588-.037 1.029.441 1.029 1.028zm18.989 0c0 .588-.478 1.029-1.03 1.029a1.027 1.027 0 01-1.028-1.029c0-.587.478-1.028 1.029-1.028.55-.037 1.029.441 1.029 1.028zm18.989 0c0 .588-.478 1.029-1.03 1.029a1.052 1.052 0 01-1.028-1.029c0-.588.478-1.029 1.029-1.029.55 0 1.029.441 1.029 1.029zm18.989 0c0 .588-.478 1.029-1.03 1.029a1.027 1.027 0 01-1.028-1.029c0-.587.478-1.028 1.029-1.028.588-.037 1.029.441 1.029 1.028z"/></g><g clip-path="url(#clip1)" fill="#1AC3DA"><path d="M299.106 309.605a1.028 1.028 0 10.002-2.056 1.028 1.028 0 00-.002 2.056zm18.989 0a1.029 1.029 0 100-2.057 1.029 1.029 0 000 2.057zm18.989 0a1.029 1.029 0 100-2.057 1.029 1.029 0 000 2.057zm18.989 0a1.029 1.029 0 100-2.057 1.029 1.029 0 000 2.057zm-56.967 18.989a1.029 1.029 0 100-2.057 1.029 1.029 0 000 2.057zm18.989 0a1.029 1.029 0 100-2.057 1.029 1.029 0 000 2.057zm18.989 0a1.029 1.029 0 100-2.057 1.029 1.029 0 000 2.057zm18.989 0a1.029 1.029 0 100-2.057 1.029 1.029 0 000 2.057zm-55.938 17.997c0 .588-.477 1.029-1.029 1.029a1.027 1.027 0 01-1.028-1.029c0-.588.477-1.066 1.028-1.066.588 0 1.029.478 1.029 1.066zm18.989 0c0 .588-.477 1.029-1.029 1.029a1.027 1.027 0 01-1.028-1.029c0-.588.477-1.029 1.028-1.029.552-.037 1.029.441 1.029 1.029zm18.989 0c0 .588-.477 1.029-1.029 1.029a1.051 1.051 0 01-1.028-1.029c0-.588.477-1.029 1.028-1.029.552 0 1.029.441 1.029 1.029zm18.989 0a1.027 1.027 0 11-2.057 0c0-.588.477-1.029 1.028-1.029.588-.037 1.029.441 1.029 1.029zm-56.967 18.991c0 .588-.477 1.029-1.029 1.029a1.027 1.027 0 01-1.028-1.029c0-.588.477-1.029 1.028-1.029.588-.036 1.029.441 1.029 1.029zm18.989 0c0 .588-.477 1.029-1.029 1.029a1.027 1.027 0 01-1.028-1.029c0-.588.477-1.029 1.028-1.029.552-.036 1.029.441 1.029 1.029zm18.989 0c0 .588-.477 1.029-1.029 1.029a1.051 1.051 0 01-1.028-1.029c0-.588.477-1.029 1.028-1.029.552 0 1.029.441 1.029 1.029zm18.989 0a1.027 1.027 0 11-2.057 0c0-.588.477-1.029 1.028-1.029.588-.036 1.029.441 1.029 1.029z"/></g><g clip-path="url(#clip2)" fill="#1AC3DA"><path d="M374.769 309.605a1.03 1.03 0 100-2.059 1.03 1.03 0 000 2.059zm0 18.989a1.03 1.03 0 100-2.059 1.03 1.03 0 000 2.059zm1.029 17.997c0 .588-.478 1.029-1.029 1.029a1.027 1.027 0 01-1.029-1.029c0-.588.478-1.066 1.029-1.066.588 0 1.029.478 1.029 1.066zm0 18.991c0 .588-.478 1.029-1.029 1.029a1.027 1.027 0 01-1.029-1.029c0-.588.478-1.029 1.029-1.029.588-.036 1.029.441 1.029 1.029z"/></g><defs><linearGradient id="paint1_linear" x1="183.79" y1="41.645" x2="-125.824" y2="41.645" gradientUnits="userSpaceOnUse"><stop stop-color="#2F3A5F"/><stop offset="1" stop-color="#2F3A5F" stop-opacity="0"/></linearGradient><linearGradient id="paint2_linear" x1="90.39" y1="292.35" x2="-22.242" y2="292.35" gradientUnits="userSpaceOnUse"><stop stop-color="#37446F"/><stop offset="1" stop-color="#2F3A5F" stop-opacity="0"/></linearGradient><linearGradient id="paint3_linear" x1="334.103" y1="716.89" x2="209.563" y2="716.89" gradientUnits="userSpaceOnUse"><stop stop-color="#2F3A5F"/><stop offset="1" stop-color="#2F3A5F" stop-opacity="0"/></linearGradient><linearGradient id="paint4_linear" x1="62.617" y1="687.224" x2="-42.077" y2="687.224" gradientUnits="userSpaceOnUse"><stop stop-color="#2F3A5F"/><stop offset="1" stop-color="#2F3A5F" stop-opacity="0"/></linearGradient><linearGradient id="paint5_linear" x1="390.617" y1="450.224" x2="285.923" y2="450.224" gradientUnits="userSpaceOnUse"><stop stop-color="#2F3A5F"/><stop offset="1" stop-color="#2F3A5F" stop-opacity="0"/></linearGradient><linearGradient id="paint6_linear" x1="422.92" y1="667.808" x2="212.045" y2="667.808" gradientUnits="userSpaceOnUse"><stop stop-color="#2F3A5F"/><stop offset="1" stop-color="#2F3A5F" stop-opacity="0"/></linearGradient><linearGradient id="paint7_linear" x1="197.082" y1="413.712" x2="-51.006" y2="413.712" gradientUnits="userSpaceOnUse"><stop stop-color="#2F3A5F"/><stop offset="1" stop-color="#2F3A5F" stop-opacity="0"/></linearGradient><linearGradient id="paint8_linear" x1="279.635" y1="149.534" x2="332.215" y2="149.337" gradientUnits="userSpaceOnUse"><stop stop-color="#FF8C8F"/><stop offset="1" stop-color="#425CB4"/></linearGradient><linearGradient id="paint9_linear" x1="28.635" y1="293.534" x2="81.215" y2="293.337" gradientUnits="userSpaceOnUse"><stop stop-color="#FF8C8F"/><stop offset="1" stop-color="#425CB4"/></linearGradient><clipPath id="clip0"><path fill="#fff" transform="translate(24 144.053)" d="M0 0h59.26v59.26H0z"/></clipPath><clipPath id="clip1"><path fill="#fff" transform="translate(298.078 307.548)" d="M0 0h59.26v59.26H0z"/></clipPath><clipPath id="clip2"><path fill="#fff" transform="translate(373.74 307.547)" d="M0 0h59.26v59.26H0z"/></clipPath><radialGradient id="paint0_radial" cx="0" cy="0" r="1" gradientUnits="userSpaceOnUse" gradientTransform="matrix(0 -900 1403.11 0 188 900)"><stop stop-color="#1F2742"/><stop offset="1" stop-color="#2F395A"/></radialGradient></defs></svg>