<svg width="131" height="39" viewBox="0 0 131 39" fill="none" xmlns="http://www.w3.org/2000/svg">
<path d="M1.51905 5.26742C0.680752 5.26742 0 4.58667 0 3.74806C0 2.90981 0.680752 2.22906 1.51905 2.22906H19.462C20.3003 2.22906 20.9812 2.90981 20.9812 3.74806C20.9812 4.58667 20.3003 5.26742 19.462 5.26742H1.51905ZM18.4237 17.5987C19.0323 17.0258 19.9917 17.0544 20.5648 17.6633C21.1374 18.2723 21.1089 19.2314 20.4999 19.8043C19.0968 21.1214 17.511 22.1705 15.8016 22.8834C14.1293 23.5797 12.341 23.9574 10.4907 23.9574C8.64001 23.9574 6.85174 23.5797 5.17938 22.8834C3.47001 22.1705 1.88405 21.1214 0.480984 19.8043C-0.12801 19.2314 -0.156565 18.2723 0.416373 17.6633C0.989272 17.0544 1.94874 17.0258 2.55738 17.5987C3.69509 18.6669 4.9725 19.5137 6.34213 20.0843C7.64129 20.6251 9.03724 20.9194 10.4907 20.9194C11.9437 20.9194 13.3397 20.6251 14.6389 20.0843C16.0085 19.5137 17.2859 18.6669 18.4237 17.5987ZM18.821 9.85347C19.5765 9.49944 20.4784 9.82714 20.8327 10.5832C21.1866 11.339 20.8589 12.241 20.103 12.595C18.7237 13.2423 17.1797 13.7554 15.5275 14.0988C13.9308 14.4314 12.2335 14.612 10.4907 14.612C8.74751 14.612 7.05018 14.4314 5.45352 14.0988C3.80162 13.7554 2.25597 13.241 0.877903 12.595C0.122071 12.241 -0.205627 11.339 0.148401 10.5832C0.50243 9.82714 1.4044 9.49944 2.16046 9.85347C3.3229 10.3991 4.64249 10.8356 6.0706 11.1321C7.44382 11.418 8.93201 11.5735 10.4907 11.5735C12.049 11.5735 13.5372 11.4179 14.9104 11.1321C16.3385 10.8356 17.6591 10.3978 18.821 9.85347Z" fill="#FB4247"/>
<path d="M41.8058 9.56667C41.164 9.17756 40.4593 8.86677 39.6913 8.63353C38.9234 8.40036 38.189 8.28341 37.4893 8.28341C36.6725 8.28341 36.0163 8.43384 35.5206 8.73552C35.0249 9.03693 34.7768 9.49877 34.7768 10.1208C34.7768 10.7431 35.0538 11.2147 35.6081 11.5352C36.162 11.8564 37.0034 12.1819 38.1308 12.5125C39.2003 12.8237 40.0753 13.1348 40.7554 13.4456C41.4363 13.7568 42.0148 14.2134 42.491 14.8166C42.9676 15.4193 43.2055 16.2164 43.2055 17.208C43.2055 18.6663 42.6562 19.7748 41.5578 20.5328C40.4593 21.2912 39.0929 21.6706 37.4601 21.6706C36.3128 21.6706 35.1995 21.4858 34.1206 21.1161C33.0416 20.7469 32.1326 20.222 31.3936 19.5413L32.4143 17.5581C33.0557 18.1414 33.8483 18.6082 34.7917 18.9579C35.7342 19.3081 36.653 19.4831 37.5472 19.4831C38.4421 19.4831 39.1613 19.3178 39.7054 18.9871C40.2503 18.6565 40.5222 18.1512 40.5222 17.4707C40.5222 16.7704 40.2355 16.2456 39.662 15.8955C39.0886 15.5457 38.2179 15.1956 37.0518 14.8458C36.021 14.5538 35.1803 14.2573 34.5288 13.9562C33.8776 13.6548 33.3233 13.2124 32.8666 12.6291C32.4096 12.0458 32.1807 11.2877 32.1807 10.3539C32.1807 8.91513 32.7061 7.83617 33.7557 7.11675C34.8057 6.39736 36.1182 6.03751 37.6933 6.03751C38.6265 6.03751 39.5452 6.16869 40.4492 6.43111C41.3535 6.69354 42.1363 7.04889 42.7972 7.49578L41.8058 9.56667ZM60.1221 9.47897C60.6276 8.37079 61.3467 7.52992 62.28 6.956C63.2136 6.38271 64.3218 6.08619 65.605 6.06673V8.69165C64.03 8.63353 62.7565 9.04143 61.7842 9.91644C60.8124 10.7914 60.2581 11.9678 60.1221 13.4456V21.5829H57.4096V6.15412H60.1221V9.47897ZM109.412 6.15412H112.125V21.5829H109.412V6.15412ZM110.754 0C111.24 0 111.643 0.165628 111.964 0.496297C112.285 0.826575 112.445 1.24459 112.445 1.74999C112.445 2.25566 112.285 2.67399 111.964 3.00426C111.643 3.33493 111.24 3.49994 110.754 3.49994C110.267 3.49994 109.864 3.33493 109.544 3.00426C109.222 2.67399 109.062 2.25566 109.062 1.74999C109.062 1.24459 109.222 0.826614 109.544 0.496297C109.864 0.165628 110.267 0 110.754 0ZM128.224 10.2666C126.999 9.08045 125.531 8.48771 123.82 8.48771C122.809 8.48771 121.91 8.71119 121.122 9.15838C120.335 9.60565 119.718 10.2377 119.27 11.0538C118.823 11.8707 118.599 12.8136 118.599 13.8831C118.599 14.9523 118.818 15.8955 119.256 16.7123C119.693 17.5289 120.296 18.1658 121.064 18.6224C121.832 19.0797 122.712 19.308 123.704 19.308C124.695 19.308 125.59 19.1427 126.386 18.8124C127.184 18.4815 127.845 18.0053 128.37 17.383L129.916 18.9579C129.216 19.8329 128.326 20.5036 127.247 20.9703C126.168 21.4374 124.948 21.6705 123.587 21.6705C122.089 21.6705 120.757 21.3396 119.591 20.6786C118.424 20.0177 117.515 19.0989 116.864 17.9225C116.212 16.7461 115.887 15.3998 115.887 13.8831C115.887 12.3663 116.212 11.0152 116.864 9.82905C117.515 8.64294 118.424 7.71957 119.591 7.05831C120.757 6.39732 122.089 6.06669 123.587 6.06669C124.89 6.06669 126.061 6.26615 127.101 6.66463C128.141 7.06315 129.011 7.6416 129.711 8.40032L128.224 10.2666ZM54.1134 20.5624C52.9279 21.3204 51.7415 21.6999 50.5556 21.6999C49.311 21.6999 48.3047 21.2717 47.5368 20.4162C46.7688 19.5607 46.3844 18.3263 46.3844 16.7124V2.53762H49.0969V6.67928H53.8509V8.75013H49.0969V16.2164C49.0969 18.1999 49.7388 19.1911 51.022 19.1911C51.7415 19.1911 52.529 18.9485 53.3845 18.4623L54.1134 20.5624ZM82.9006 6.15412V21.5829H80.188V18.5789C79.6044 19.5896 78.8271 20.3675 77.8544 20.9122C76.8825 21.4565 75.745 21.7287 74.4419 21.7287C72.984 21.7287 71.6961 21.3935 70.5777 20.7225C69.4598 20.0518 68.5898 19.1187 67.9675 17.9225C67.3453 16.727 67.0343 15.3609 67.0343 13.825C67.0343 12.3082 67.3453 10.9616 67.9675 9.78523C68.5898 8.60888 69.4648 7.69035 70.5922 7.02909C71.7199 6.36814 73.0036 6.03751 74.4419 6.03751C75.745 6.03751 76.8825 6.30513 77.8544 6.83971C78.8271 7.37433 79.6044 8.14735 80.188 9.15838V6.15412H82.9006ZM74.9966 19.3954C76.4353 19.3954 77.6263 18.9436 78.5693 18.0394C79.5119 17.1352 80.0517 15.9539 80.188 14.4956V13.329C80.0517 11.8707 79.5119 10.6849 78.5693 9.77093C77.6263 8.85701 76.4353 8.40032 74.9966 8.40032C73.9852 8.40032 73.086 8.63806 72.2985 9.11455C71.511 9.591 70.8938 10.2474 70.4465 11.0834C69.9996 11.9194 69.7758 12.8626 69.7758 13.9123C69.7758 14.9623 69.9996 15.9052 70.4465 16.7412C70.8938 17.5772 71.511 18.2288 72.2985 18.6955C73.086 19.1622 73.9852 19.3954 74.9966 19.3954ZM95.5 20.5624C94.314 21.3204 93.1277 21.6999 91.9421 21.6999C90.6976 21.6999 89.6913 21.2717 88.9229 20.4162C88.155 19.5607 87.771 18.3263 87.771 16.7124V2.53762H90.4835V6.67928H95.2371V8.75013H90.4835V16.2164C90.4835 18.1999 91.1249 19.1911 92.4085 19.1911C93.1277 19.1911 93.9152 18.9485 94.7707 18.4623L95.5 20.5624ZM106.117 20.5624C104.93 21.3204 103.744 21.6999 102.558 21.6999C101.314 21.6999 100.307 21.2717 99.5395 20.4162C98.7711 19.5607 98.3875 18.3263 98.3875 16.7124V2.53762H101.1V6.67928H105.854V8.75013H101.1V16.2164C101.1 18.1999 101.741 19.1911 103.025 19.1911C103.744 19.1911 104.532 18.9485 105.387 18.4623L106.117 20.5624Z" fill="white"/>
<path d="M65.3999 38.2267V33.1271H67.4468C67.9765 33.1271 68.3796 33.2513 68.6562 33.4989C68.9378 33.7415 69.0789 34.0548 69.0789 34.4384C69.0789 34.7591 68.9914 35.0165 68.8167 35.2107C68.6464 35.4001 68.4378 35.529 68.1902 35.597C68.4816 35.6552 68.7218 35.8009 68.9113 36.0341C69.1007 36.2623 69.1953 36.5295 69.1953 36.8353C69.1953 37.2384 69.0496 37.5713 68.7582 37.8334C68.4667 38.0959 68.0542 38.2267 67.5199 38.2267H65.3999ZM66.3323 35.2689H67.3085C67.571 35.2689 67.7722 35.2083 67.9132 35.0869C68.0542 34.9654 68.1245 34.7931 68.1245 34.5697C68.1245 34.356 68.0542 34.1884 67.9132 34.0669C67.7773 33.9407 67.571 33.8775 67.2941 33.8775H66.3323V35.2689ZM66.3323 37.4693H67.3742C67.6511 37.4693 67.8648 37.406 68.0152 37.2799C68.1706 37.1486 68.2484 36.9666 68.2484 36.7334C68.2484 36.4955 68.1683 36.3084 68.0078 36.1724C67.8476 36.0365 67.6316 35.9685 67.3597 35.9685H66.3323V37.4693ZM71.5309 38.2267V36.4127L69.8191 33.1271H70.8754L72.0043 35.4802L73.1266 33.1271H74.168L72.4633 36.4127V38.2267H71.5309Z" fill="white"/>
<path d="M105.483 35.3353C105.483 35.3353 104.915 35.4701 104.436 35.5845L103.705 35.7501C103.703 35.7501 103.7 35.7501 103.699 35.7501C103.699 35.554 103.713 35.347 103.76 35.1568C103.821 34.9122 103.954 34.6267 104.183 34.5013C104.434 34.365 104.74 34.349 105.005 34.4544C105.28 34.563 105.406 34.8275 105.46 35.1013C105.475 35.1775 105.485 35.2544 105.492 35.3322L105.483 35.3353ZM107.387 35.7494C107.387 33.8505 106.187 33.0341 104.654 33.0341C102.922 33.0341 101.836 34.2306 101.836 35.7587C101.836 37.4205 102.76 38.5025 104.75 38.5025C105.826 38.5025 106.435 38.3131 107.158 37.9521L106.882 36.708C106.33 36.9549 105.816 37.106 105.13 37.106C104.378 37.106 103.95 36.8213 103.788 36.2896H107.339C107.367 36.1478 107.387 35.9865 107.387 35.7494Z" fill="white"/>
<path d="M89.646 35.3353C89.646 35.3353 89.078 35.4701 88.5983 35.5845L87.8678 35.7501C87.8655 35.7501 87.8623 35.7501 87.8616 35.7501C87.8616 35.554 87.876 35.347 87.9229 35.1568C87.9834 34.9122 88.1162 34.6267 88.3459 34.5013C88.5967 34.365 88.9022 34.349 89.1678 34.4544C89.4424 34.563 89.5682 34.8275 89.6221 35.1013C89.6374 35.1775 89.6475 35.2544 89.6549 35.3322L89.646 35.3353ZM91.5491 35.7494C91.5491 33.8505 90.3495 33.0341 88.817 33.0341C87.0842 33.0341 85.999 34.2306 85.999 35.7587C85.999 37.4205 86.9229 38.5025 88.9124 38.5025C89.9881 38.5025 90.5975 38.3131 91.321 37.9521L91.0448 36.708C90.4924 36.9549 89.9788 37.106 89.2928 37.106C88.5409 37.106 88.1123 36.8213 87.9506 36.2896H91.5014C91.53 36.1478 91.5491 35.9865 91.5491 35.7494Z" fill="white"/>
<path d="M85.351 31.6384H83.5928V38.3131H85.351V31.6384Z" fill="white"/>
<path d="M107.758 33.2048H109.605L109.993 34.3845C110.237 33.8021 110.784 33.0524 111.755 33.0524C113.088 33.0524 113.811 33.7259 113.811 35.4638V38.3123H111.965C111.965 37.7189 111.966 37.1252 111.966 36.5318C111.966 36.2595 111.962 35.9873 111.966 35.7154C111.969 35.4638 111.986 35.2044 111.853 34.979C111.762 34.8267 111.613 34.7146 111.453 34.6384C111.127 34.4829 110.773 34.4876 110.454 34.6536C110.375 34.6943 109.994 34.8997 109.994 34.9947V38.3123H108.148V34.5829L107.758 33.2048Z" fill="white"/>
<path d="M115.306 34.5431H114.458V33.2048H115.306V32.3677L117.152 31.9345V33.2048H119.009V34.5431H117.152V36.0439C117.152 36.6326 117.438 36.908 117.866 36.908C118.303 36.908 118.552 36.8506 118.923 36.7279L119.141 38.1139C118.637 38.3322 118.009 38.4369 117.37 38.4369C116.028 38.4369 115.304 37.8006 115.304 36.5666V34.5431H115.306Z" fill="white"/>
<path d="M122.563 36.9841C123.238 36.9841 123.638 36.5002 123.638 35.7209C123.638 34.9415 123.257 34.4958 122.591 34.4958C121.915 34.4958 121.525 34.9415 121.525 35.7494C121.525 36.5088 121.906 36.9841 122.563 36.9841ZM122.582 33.0056C124.315 33.0056 125.58 34.088 125.58 35.7685C125.58 37.4584 124.315 38.474 122.563 38.474C120.82 38.474 119.582 37.4299 119.582 35.7685C119.583 34.088 120.811 33.0056 122.582 33.0056Z" fill="white"/>
<path d="M100.182 33.1888C99.8547 33.0548 99.4848 33.0048 99.1324 33.0556C98.9523 33.0818 98.7766 33.1333 98.6137 33.2134C98.1664 33.4341 97.8172 33.9365 97.6293 34.3845C97.507 33.8689 97.148 33.404 96.6246 33.1888C96.2976 33.0548 95.9277 33.0048 95.5753 33.0556C95.3953 33.0818 95.2195 33.1333 95.0566 33.2134C94.6101 33.4333 94.2617 33.9341 94.0738 34.3806V34.3482L93.6976 33.2048H91.8511L92.2401 34.5829V38.3131H94.0745V34.9806C94.0812 34.956 94.1632 34.9099 94.1773 34.899C94.3921 34.7466 94.6453 34.5892 94.914 34.5697C95.1886 34.549 95.4589 34.6884 95.623 34.906C95.6406 34.9298 95.657 34.9537 95.6722 34.979C95.8066 35.2044 95.7882 35.4638 95.7851 35.7154C95.782 35.9873 95.7867 36.2595 95.7859 36.5318C95.7851 37.1252 95.7843 37.7189 95.7843 38.3123H97.6316V35.4638C97.6316 35.4494 97.6316 35.4353 97.6316 35.4208V34.9814C97.6359 34.9576 97.7199 34.9091 97.7351 34.899C97.95 34.7466 98.2031 34.5892 98.4719 34.5697C98.7465 34.549 99.0168 34.6884 99.1809 34.906C99.1984 34.9298 99.2149 34.9537 99.2301 34.979C99.3645 35.2044 99.3461 35.4638 99.3438 35.7154C99.3406 35.9873 99.3453 36.2595 99.3445 36.5318C99.3438 37.1252 99.343 37.7189 99.343 38.3123H101.189V35.4638C101.189 34.629 101.069 33.5532 100.182 33.1888Z" fill="white"/>
<path d="M129.948 33.0532C128.978 33.0532 128.43 33.8029 128.187 34.3853L127.798 33.2056H125.951L126.34 34.5837V38.3139H128.187V34.8669C128.45 34.8212 129.878 35.083 130.15 35.1822V33.0595C130.084 33.0556 130.017 33.0532 129.948 33.0532Z" fill="white"/>
<path d="M81.0417 35.1646C81.0417 35.1646 80.4733 35.2994 79.9936 35.4138L79.2635 35.5794C79.2612 35.5794 79.2576 35.5794 79.2569 35.5794C79.2569 35.3837 79.2713 35.1767 79.3182 34.9861C79.3787 34.7415 79.5116 34.456 79.7416 34.3306C79.992 34.1943 80.2975 34.1782 80.5635 34.2837C80.8378 34.3927 80.9635 34.6568 81.0178 34.9306C81.0327 35.0068 81.0432 35.0837 81.0502 35.1615L81.0417 35.1646ZM82.9452 35.5787C82.9452 33.6802 81.7456 32.8638 80.2131 32.8638C78.4807 32.8638 77.3955 34.0603 77.3955 35.5884C77.3955 37.2498 78.319 38.3322 80.3088 38.3322C81.3842 38.3322 81.994 38.1424 82.7171 37.7814L82.4409 36.5373C81.8889 36.7841 81.3749 36.9357 80.6889 36.9357C79.9373 36.9357 79.5084 36.6509 79.3467 36.1193H82.8975C82.9261 35.9779 82.9452 35.8162 82.9452 35.5787Z" fill="white"/>
</svg>
