<svg width="1197" height="356" viewBox="0 0 1197 356" fill="none" xmlns="http://www.w3.org/2000/svg">
<mask id="mask0" mask-type="alpha" maskUnits="userSpaceOnUse" x="0" y="0" width="1197" height="356">
<rect width="1197" height="356" rx="24" fill="url(#paint0_radial)"/>
</mask>
<g mask="url(#mask0)">
<rect width="1197" height="356" rx="24" fill="url(#paint1_radial)"/>
<rect x="768" y="119" width="227" height="122" rx="61" fill="url(#paint2_linear)"/>
<rect opacity="0.6" x="-93" y="31" width="500" height="189" rx="94.5" fill="url(#paint3_linear)"/>
<rect opacity="0.6" width="500" height="189" rx="94.5" transform="matrix(-1 0 0 1 1345 188)" fill="url(#paint4_linear)"/>
<circle opacity="0.5" cx="1040" cy="19" r="45" stroke="url(#paint5_linear)" stroke-width="2"/>
<path d="M-331.999 297.43C-354.754 297.43 -373.229 277.157 -373.229 252.182C-373.229 227.217 -354.754 206.941 -331.999 206.941H154.999C177.751 206.941 196.229 227.217 196.229 252.182C196.229 277.157 177.754 297.43 154.999 297.43H-331.999ZM126.815 664.682C143.334 647.62 169.376 648.47 184.925 666.607C200.474 684.743 199.7 713.309 183.171 730.37C145.092 769.596 102.045 800.84 55.6498 822.072C10.2618 842.809 -38.2763 854.059 -88.4969 854.059C-138.727 854.059 -187.262 842.809 -232.653 822.072C-279.048 800.84 -322.091 769.596 -360.174 730.37C-376.703 713.309 -377.477 684.743 -361.928 666.607C-346.379 648.47 -320.338 647.62 -303.818 664.682C-272.938 696.496 -238.269 721.713 -201.094 738.71C-165.832 754.817 -127.945 763.58 -88.4969 763.58C-49.0581 763.58 -11.1711 754.817 24.0912 738.71C61.2661 721.717 95.9376 696.496 126.815 664.682ZM137.597 434.015C158.109 423.47 182.59 433.23 192.199 455.748C201.808 478.256 201.68 525.916 181.168 536.461C143.729 555.737 97.2536 572.691 52.4099 582.914C9.07446 592.82 -41.1933 575.731 -88.4969 575.731C-135.807 575.731 -181.876 570.353 -225.214 560.447C-270.049 550.22 -312 534.899 -349.402 515.663C-369.914 505.119 -397.596 468.475 -387.99 445.967C-378.381 423.448 -326.334 402.679 -305.812 413.224C-274.263 429.473 -243.029 440.798 -204.268 449.629C-162.061 457.324 -159.897 457.619 -113.163 461.757C-70.8666 461.757 -5.80972 480.611 31.4615 472.097C70.2224 463.262 106.063 450.224 137.597 434.015Z" fill="#2F3A5F"/>
<path fill-rule="evenodd" clip-rule="evenodd" d="M-232.653 822.072C-279.048 800.84 -322.091 769.596 -360.174 730.37C-376.703 713.309 -377.477 684.743 -361.928 666.607C-346.379 648.47 -320.338 647.62 -303.818 664.682C-272.938 696.496 -238.269 721.713 -201.094 738.71C-165.832 754.817 -127.945 763.58 -88.4969 763.58C-49.0581 763.58 -11.1711 754.817 24.0912 738.71C61.2661 721.717 95.9376 696.496 126.815 664.682C143.334 647.62 169.376 648.47 184.925 666.607C200.474 684.743 199.7 713.309 183.171 730.37C145.092 769.596 102.045 800.84 55.6498 822.072C10.2618 842.809 -38.2763 854.059 -88.4969 854.059C-138.727 854.059 -187.262 842.809 -232.653 822.072ZM112.63 647.924L112.628 647.926C83.4148 678.021 50.8261 701.66 16.1536 717.511C-16.6866 732.511 -51.8825 740.639 -88.4969 740.639C-125.118 740.639 -160.312 732.512 -193.15 717.514C-227.832 701.657 -260.426 678.014 -289.649 647.908L-289.651 647.906C-314.497 622.265 -353.6 623.527 -377.01 650.833C-400.475 678.203 -399.313 721.369 -374.357 747.131L-374.349 747.139L-374.34 747.148C-334.579 788.102 -289.46 820.907 -240.603 843.265L-240.592 843.27C-192.798 865.105 -141.572 877 -88.4969 877C-35.4311 877 15.7981 865.105 63.5893 843.27L63.6003 843.265C112.457 820.907 157.578 788.103 197.338 747.147L197.346 747.139L197.354 747.131C222.31 721.369 223.472 678.203 200.007 650.833C176.592 623.521 137.476 622.265 112.63 647.924ZM-303.818 445.964L-305.812 413.224C-275.847 428.657 -241.585 441.127 -204.268 449.629L-204.258 449.632C-168.422 457.818 -129.443 462.304 -88.4969 462.304C-47.5599 462.304 -8.58115 457.818 27.2548 449.632L27.2636 449.63C64.5717 441.126 98.8669 428.619 128.833 413.216C159.662 397.369 196.479 411.975 210.986 445.964C225.552 480.083 212.015 520.603 181.168 536.461M192.199 455.748C182.59 433.23 158.109 423.47 137.597 434.015C106.063 450.224 70.2224 463.262 31.4615 472.097C-5.80972 480.611 -70.8666 461.757 -113.163 461.757C-159.897 457.619 -162.061 457.324 -204.268 449.629C-243.029 440.798 -274.263 429.473 -305.812 413.224C-326.334 402.679 -378.381 423.448 -387.99 445.967C-397.596 468.475 -369.914 505.119 -349.402 515.663C-312 534.899 -270.049 550.22 -225.214 560.447C-181.876 570.353 -135.807 575.731 -88.4969 575.731C-41.1933 575.731 9.07446 592.82 52.4099 582.914C97.2536 572.691 143.729 555.737 181.168 536.461C201.68 525.916 201.808 478.256 192.199 455.748ZM52.4099 582.914C7.6915 593.136 -39.7844 598.672 -88.4969 598.672C-137.216 598.672 -184.693 593.135 -229.415 582.914C-275.737 572.347 -319.23 556.486 -358.17 536.46C-389.015 520.601 -402.551 480.085 -387.991 445.968M52.4099 582.914C98.7325 572.354 142.182 556.532 181.166 536.461L52.4099 582.914ZM-305.812 413.224L-303.818 445.964L-305.812 413.224ZM-331.999 320.371C-366.099 320.371 -394 289.966 -394 252.182C-394 214.407 -366.098 184 -331.999 184H154.999C189.094 184 217 214.406 217 252.182C217 289.966 189.099 320.371 154.999 320.371H-331.999ZM-305.812 413.224C-336.646 397.381 -373.483 411.972 -387.99 445.967L-305.812 413.224ZM-373.229 252.182C-373.229 277.157 -354.754 297.43 -331.999 297.43H154.999C177.754 297.43 196.229 277.157 196.229 252.182C196.229 227.217 177.751 206.941 154.999 206.941H-331.999C-354.754 206.941 -373.229 227.217 -373.229 252.182Z" fill="#2F3A5F"/>
<circle opacity="0.5" cx="151" cy="252" r="45" stroke="url(#paint6_linear)" stroke-width="2"/>
</g>
<defs>
<radialGradient id="paint0_radial" cx="0" cy="0" r="1" gradientUnits="userSpaceOnUse" gradientTransform="translate(293.67 291.939) rotate(-12.1078) scale(608.291 512.232)">
<stop stop-color="#1F2742"/>
<stop offset="1" stop-color="#2F395A"/>
</radialGradient>
<radialGradient id="paint1_radial" cx="0" cy="0" r="1" gradientUnits="userSpaceOnUse" gradientTransform="translate(355.12 369.35) rotate(-52.3531) scale(673.297 665.656)">
<stop stop-color="#1F2742"/>
<stop offset="1" stop-color="#2F395A"/>
</radialGradient>
<linearGradient id="paint2_linear" x1="995.001" y1="179.527" x2="794.645" y2="179.527" gradientUnits="userSpaceOnUse">
<stop stop-color="#37446F"/>
<stop offset="1" stop-color="#2F3A5F" stop-opacity="0"/>
</linearGradient>
<linearGradient id="paint3_linear" x1="407.001" y1="124.767" x2="-34.3095" y2="124.767" gradientUnits="userSpaceOnUse">
<stop stop-color="#2F3A5F"/>
<stop offset="1" stop-color="#2F3A5F" stop-opacity="0"/>
</linearGradient>
<linearGradient id="paint4_linear" x1="500.001" y1="93.7673" x2="58.6905" y2="93.7674" gradientUnits="userSpaceOnUse">
<stop stop-color="#2F3A5F"/>
<stop offset="1" stop-color="#2F3A5F" stop-opacity="0"/>
</linearGradient>
<linearGradient id="paint5_linear" x1="993.355" y1="19.9447" x2="1086.38" y2="19.5954" gradientUnits="userSpaceOnUse">
<stop stop-color="#FF8C8F"/>
<stop offset="1" stop-color="#425CB4"/>
</linearGradient>
<linearGradient id="paint6_linear" x1="104.355" y1="252.945" x2="197.381" y2="252.595" gradientUnits="userSpaceOnUse">
<stop stop-color="#FF8C8F"/>
<stop offset="1" stop-color="#425CB4"/>
</linearGradient>
</defs>
</svg>
