<svg width="357" height="320" viewBox="0 0 357 320" fill="none" xmlns="http://www.w3.org/2000/svg">
<mask id="mask0" mask-type="alpha" maskUnits="userSpaceOnUse" x="0" y="0" width="357" height="320">
<rect width="357" height="320" rx="12" fill="url(#paint0_radial)"/>
</mask>
<g mask="url(#mask0)">
<rect width="357" height="320" rx="12" fill="url(#paint1_radial)"/>
<rect opacity="0.4" x="141" y="135" width="198.425" height="81.7045" rx="40.8522" fill="url(#paint2_linear)"/>
<rect x="295.245" y="119.234" width="105.982" height="56.9597" rx="28.4798" fill="url(#paint3_linear)"/>
<rect x="-75" y="228" width="117.188" height="46.6883" rx="23.3441" fill="url(#paint4_linear)"/>
<rect opacity="0.6" x="-109" y="-35" width="233.441" height="88.2408" rx="44.1204" fill="url(#paint5_linear)"/>
<rect opacity="0.6" x="-112" y="153" width="233.441" height="88.2408" rx="44.1204" fill="url(#paint6_linear)"/>
<path d="M196.72 93.3412C183.61 93.3412 172.966 81.663 172.966 67.2761C172.966 52.8951 183.61 41.2149 196.72 41.2149H477.29C490.398 41.2149 501.044 52.8951 501.044 67.2761C501.044 81.663 490.4 93.3412 477.29 93.3412H196.72ZM461.053 304.895C470.57 295.067 485.573 295.556 494.531 306.004C503.489 316.452 503.043 332.906 493.521 342.735C471.582 365.331 446.782 383.329 420.053 395.559C393.904 407.505 365.94 413.986 337.007 413.986C308.068 413.986 280.106 407.505 253.956 395.559C227.226 383.329 202.428 365.331 180.488 342.735C170.965 332.906 170.519 316.452 179.477 306.004C188.435 295.556 203.439 295.067 212.956 304.895C230.747 323.221 250.72 337.748 272.137 347.539C292.452 356.817 314.28 361.865 337.007 361.865C359.728 361.865 381.556 356.817 401.871 347.539C423.288 337.75 443.263 323.221 461.053 304.895ZM467.264 172.02C479.082 165.946 493.186 171.568 498.722 184.54C504.258 197.505 504.184 224.96 492.366 231.034C470.797 242.138 444.022 251.904 418.186 257.793C393.22 263.5 364.259 253.656 337.007 253.656C309.751 253.656 283.209 250.558 258.241 244.851C232.411 238.96 208.242 230.134 186.694 219.053C174.876 212.979 158.928 191.871 164.462 178.905C169.999 165.933 199.984 153.97 211.807 160.044C229.983 169.404 247.977 175.928 270.308 181.015C294.625 185.448 295.872 185.617 322.796 188.001C347.164 188.001 384.645 198.862 406.117 193.957C428.448 188.868 449.097 181.357 467.264 172.02Z" fill="#2F3A5F"/>
<path fill-rule="evenodd" clip-rule="evenodd" d="M253.956 395.559C227.226 383.329 202.428 365.331 180.488 342.735C170.965 332.906 170.519 316.452 179.477 306.004C188.435 295.556 203.439 295.067 212.956 304.895C230.747 323.221 250.72 337.748 272.137 347.539C292.452 356.817 314.28 361.865 337.007 361.865C359.728 361.865 381.556 356.817 401.871 347.539C423.288 337.75 443.263 323.221 461.053 304.895C470.57 295.067 485.573 295.556 494.531 306.004C503.489 316.452 503.043 332.906 493.521 342.735C471.582 365.331 446.782 383.329 420.053 395.559C393.904 407.505 365.94 413.986 337.007 413.986C308.068 413.986 280.106 407.505 253.956 395.559ZM452.881 295.242L452.879 295.243C436.049 312.579 417.274 326.197 397.298 335.327C378.378 343.968 358.101 348.65 337.007 348.65C315.908 348.65 295.633 343.969 276.714 335.329C256.733 326.194 237.955 312.575 221.119 295.233L221.118 295.232C206.803 280.461 184.275 281.188 170.788 296.918C157.27 312.684 157.939 337.55 172.317 352.39L172.322 352.395L172.326 352.4C195.234 375.991 221.227 394.888 249.375 407.768L249.382 407.771C276.917 420.348 306.429 427.2 337.007 427.2C367.579 427.2 397.093 420.349 424.627 407.77L424.633 407.768C452.781 394.888 478.776 375.991 501.682 352.399L501.687 352.394L501.691 352.39C516.07 337.55 516.739 312.684 503.22 296.918C489.73 281.185 467.195 280.461 452.881 295.242ZM212.956 178.904L211.807 160.044C229.07 168.934 248.81 176.117 270.308 181.015L270.314 181.016C290.96 185.732 313.417 188.316 337.007 188.316C360.592 188.316 383.048 185.732 403.694 181.016L403.699 181.015C425.193 176.117 444.951 168.912 462.215 160.039C479.976 150.91 501.188 159.324 509.545 178.904C517.937 198.558 510.138 221.899 492.366 231.034M498.722 184.54C493.186 171.568 479.082 165.946 467.264 172.02C449.097 181.357 428.448 188.868 406.117 193.957C384.645 198.862 347.164 188.001 322.796 188.001C295.872 185.617 294.625 185.448 270.308 181.015C247.977 175.928 229.983 169.404 211.807 160.044C199.984 153.97 169.999 165.933 164.462 178.905C158.928 191.871 174.876 212.979 186.694 219.053C208.242 230.134 232.411 238.96 258.241 244.851C283.209 250.558 309.751 253.656 337.007 253.656C364.259 253.656 393.22 263.5 418.186 257.793C444.022 251.904 470.797 242.138 492.366 231.034C504.184 224.96 504.258 197.505 498.722 184.54ZM418.186 257.793C392.423 263.681 365.071 266.87 337.007 266.87C308.938 266.87 281.586 263.681 255.821 257.793C229.134 251.706 204.077 242.569 181.643 231.033C163.872 221.898 156.074 198.559 164.462 178.906M418.186 257.793C444.874 251.71 469.906 242.596 492.365 231.034L418.186 257.793ZM211.807 160.044L212.956 178.904L211.807 160.044ZM196.72 106.556C177.074 106.556 161 89.0414 161 67.2761C161 45.5161 177.075 28 196.72 28H477.29C496.933 28 513.01 45.5154 513.01 67.2761C513.01 89.0414 496.936 106.556 477.29 106.556H196.72ZM211.807 160.044C194.043 150.917 172.82 159.323 164.462 178.905L211.807 160.044ZM172.966 67.2761C172.966 81.663 183.61 93.3412 196.72 93.3412H477.29C490.4 93.3412 501.044 81.663 501.044 67.2761C501.044 52.8951 490.398 41.2149 477.29 41.2149H196.72C183.61 41.2149 172.966 52.8951 172.966 67.2761Z" fill="#2F3A5F"/>
<circle opacity="0.5" cx="343" cy="229" r="25" stroke="url(#paint7_linear)" stroke-width="2"/>
<circle opacity="0.5" cx="87" cy="14" r="25" stroke="url(#paint8_linear)" stroke-width="2"/>
</g>
<defs>
<radialGradient id="paint0_radial" cx="0" cy="0" r="1" gradientUnits="userSpaceOnUse" gradientTransform="translate(87.5857 262.417) rotate(-32.8846) scale(211.231 395.453)">
<stop stop-color="#1F2742"/>
<stop offset="1" stop-color="#2F395A"/>
</radialGradient>
<radialGradient id="paint1_radial" cx="0" cy="0" r="1" gradientUnits="userSpaceOnUse" gradientTransform="translate(105.913 332) rotate(-75.6432) scale(494.648 242.904)">
<stop stop-color="#1F2742"/>
<stop offset="1" stop-color="#2F395A"/>
</radialGradient>
<linearGradient id="paint2_linear" x1="339.426" y1="175.536" x2="164.291" y2="175.536" gradientUnits="userSpaceOnUse">
<stop stop-color="#2F3A5F"/>
<stop offset="1" stop-color="#2F3A5F" stop-opacity="0"/>
</linearGradient>
<linearGradient id="paint3_linear" x1="401.228" y1="147.493" x2="307.685" y2="147.493" gradientUnits="userSpaceOnUse">
<stop stop-color="#37446F"/>
<stop offset="1" stop-color="#2F3A5F" stop-opacity="0"/>
</linearGradient>
<linearGradient id="paint4_linear" x1="42.1879" y1="251.163" x2="-61.2444" y2="251.163" gradientUnits="userSpaceOnUse">
<stop stop-color="#2F3A5F"/>
<stop offset="1" stop-color="#2F3A5F" stop-opacity="0"/>
</linearGradient>
<linearGradient id="paint5_linear" x1="124.442" y1="8.77835" x2="-81.5984" y2="8.77836" gradientUnits="userSpaceOnUse">
<stop stop-color="#2F3A5F"/>
<stop offset="1" stop-color="#2F3A5F" stop-opacity="0"/>
</linearGradient>
<linearGradient id="paint6_linear" x1="121.442" y1="196.778" x2="-84.5984" y2="196.778" gradientUnits="userSpaceOnUse">
<stop stop-color="#2F3A5F"/>
<stop offset="1" stop-color="#2F3A5F" stop-opacity="0"/>
</linearGradient>
<linearGradient id="paint7_linear" x1="316.635" y1="229.534" x2="369.215" y2="229.337" gradientUnits="userSpaceOnUse">
<stop stop-color="#FF8C8F"/>
<stop offset="1" stop-color="#425CB4"/>
</linearGradient>
<linearGradient id="paint8_linear" x1="60.6353" y1="14.534" x2="113.215" y2="14.3365" gradientUnits="userSpaceOnUse">
<stop stop-color="#FF8C8F"/>
<stop offset="1" stop-color="#425CB4"/>
</linearGradient>
</defs>
</svg>
