<svg width="375" height="660" fill="none" xmlns="http://www.w3.org/2000/svg"><mask id="a" maskUnits="userSpaceOnUse" x="0" y="0" width="375" height="660"><path fill="#F9F9FB" d="M0 0h375v660H0z"/></mask><g mask="url(#a)"><path fill="#F9F9FB" d="M0 0h375v660H0z"/><path opacity=".5" fill-rule="evenodd" clip-rule="evenodd" d="M75.144 195.933c0 15.979-12.954 28.932-28.933 28.932h-79.278c-15.98 0-28.933-12.953-28.933-28.932S-49.046 167-33.067 167H46.21c15.979 0 28.933 12.954 28.933 28.933z" fill="url(#paint0_linear)"/><rect x="-25" y="540" width="67.689" height="27.278" rx="13.639" fill="url(#paint1_linear)"/><rect x="40" y="211" width="67.689" height="27.278" rx="13.639" fill="url(#paint2_linear)"/><path opacity=".5" fill-rule="evenodd" clip-rule="evenodd" d="M321 139.933C321 123.954 333.954 111 349.933 111h205.342c15.979 0 28.933 12.954 28.933 28.933s-12.954 28.932-28.933 28.932H349.933c-15.979 0-28.933-12.953-28.933-28.932z" fill="url(#paint3_linear)"/><path opacity=".5" fill-rule="evenodd" clip-rule="evenodd" d="M225 639.933C225 623.954 237.954 611 253.933 611h205.342c15.979 0 28.933 12.954 28.933 28.933s-12.954 28.932-28.933 28.932H253.933c-15.979 0-28.933-12.953-28.933-28.932z" fill="url(#paint4_linear)"/><rect x="-168" y="557" width="268.735" height="144.47" rx="72.235" stroke="url(#paint5_linear)" stroke-linecap="round"/><path opacity=".2" fill-rule="evenodd" clip-rule="evenodd" d="M273.208 399.933c0 15.979-12.954 28.932-28.933 28.932H38.933C22.953 428.866 10 415.912 10 399.933S22.954 371 38.933 371h205.342c15.979 0 28.933 12.954 28.933 28.933z" fill="url(#paint6_linear)"/></g><path d="M190.883 264.471c3.584-2.538 6.225-4.671 7.925-6.399 2.956-3.016 4.433-5.848 4.433-8.495 0-.883-.24-1.527-.72-1.931-.48-.405-.998-.607-1.552-.607-1.256.184-2.087.276-2.494.276-2.401 0-4.396-.809-5.985-2.427-1.588-1.619-2.383-3.733-2.383-6.344 0-2.943.868-5.26 2.605-6.951 1.736-1.729 4.008-2.593 6.816-2.593 3.289 0 6.023 1.177 8.202 3.531 2.18 2.353 3.27 5.608 3.27 9.764 0 5.884-2.42 11.309-7.26 16.273-2.882 2.906-6.724 5.701-11.527 8.385l-1.33-2.482zm-27.107 0c3.399-2.354 5.967-4.395 7.703-6.123 3.103-3.089 4.655-5.995 4.655-8.716 0-.736-.185-1.361-.554-1.876-.406-.478-.979-.717-1.718-.717-1.219.184-2.032.276-2.438.276-2.439 0-4.452-.809-6.041-2.427-1.589-1.619-2.383-3.788-2.383-6.51 0-2.501.794-4.689 2.383-6.565 1.626-1.875 3.99-2.813 7.094-2.813 3.029 0 5.689 1.103 7.98 3.31 2.29 2.206 3.436 5.48 3.436 9.819 0 5.885-2.309 11.254-6.928 16.108-2.881 3.016-6.834 5.921-11.859 8.716l-1.33-2.482z" fill="#fff"/><defs><linearGradient id="paint0_linear" x1="225.506" y1="195.99" x2="-62.287" y2="195.933" gradientUnits="userSpaceOnUse"><stop stop-color="#DBD6D8"/><stop offset="1" stop-color="#DBD6D8" stop-opacity="0"/></linearGradient><linearGradient id="paint1_linear" x1="-10.738" y1="553.639" x2="42.831" y2="553.64" gradientUnits="userSpaceOnUse"><stop stop-color="#DBD6D8" stop-opacity="0"/><stop offset="1" stop-color="#DBD6D8" stop-opacity=".43"/></linearGradient><linearGradient id="paint2_linear" x1="54.262" y1="224.639" x2="107.831" y2="224.64" gradientUnits="userSpaceOnUse"><stop stop-color="#DBD6D8" stop-opacity="0"/><stop offset="1" stop-color="#DBD6D8" stop-opacity=".43"/></linearGradient><linearGradient id="paint3_linear" x1="320.92" y1="139.933" x2="557.445" y2="139.933" gradientUnits="userSpaceOnUse"><stop stop-color="#DBD6D8"/><stop offset="1" stop-color="#DBD6D8" stop-opacity="0"/></linearGradient><linearGradient id="paint4_linear" x1="224.92" y1="639.933" x2="461.445" y2="639.933" gradientUnits="userSpaceOnUse"><stop stop-color="#DBD6D8"/><stop offset="1" stop-color="#DBD6D8" stop-opacity="0"/></linearGradient><linearGradient id="paint5_linear" x1="99.153" y1="625.74" x2="-158.074" y2="625.087" gradientUnits="userSpaceOnUse"><stop stop-color="#AEB0C0" stop-opacity=".58"/><stop offset="1" stop-color="#fff" stop-opacity="0"/></linearGradient><linearGradient id="paint6_linear" x1="273.288" y1="399.933" x2="36.763" y2="399.933" gradientUnits="userSpaceOnUse"><stop stop-color="#DBD6D8"/><stop offset="1" stop-color="#DBD6D8" stop-opacity="0"/></linearGradient></defs></svg>