<svg xmlns="http://www.w3.org/2000/svg" width="1601" height="488"><defs><filter id="a" filterUnits="userSpaceOnUse" x="-280" y="0" width="2027.36" height="560"><feColorMatrix values="1 0 0 0 0 0 1 0 0 0 0 0 1 0 0 0 0 0 1 0"/></filter></defs><mask maskUnits="userSpaceOnUse" x="-280" y="0" width="2027.36" height="560" id="b"><path fill="#F9F9FB" filter="url(#a)" d="M0 0h1601v560H0z"/></mask><g mask="url(#b)"><path fill="#F9F9FB" d="M0 0h1601v560H0z"/><linearGradient id="c" gradientUnits="userSpaceOnUse" x1="829.182" y1="402.155" x2="305.982" y2="402.155" gradientTransform="matrix(1 0 0 -1 .04 535.154)"><stop offset="0" stop-color="#dbd6d8"/><stop offset="1" stop-color="#dbd6d8" stop-opacity="0"/></linearGradient><path opacity=".2" fill="url(#c)" enable-background="new" d="M829.223 133c0 35.347-28.653 64-64 64H311c-35.346 0-64-28.653-64-64 0-35.346 28.654-64 64-64h454.223c35.346 0 64 28.654 64 64z"/><linearGradient id="d" gradientUnits="userSpaceOnUse" x1="533.182" y1="47.154" x2="9.982" y2="47.154" gradientTransform="matrix(1 0 0 -1 .04 535.154)"><stop offset="0" stop-color="#dbd6d8"/><stop offset="1" stop-color="#dbd6d8" stop-opacity="0"/></linearGradient><path opacity=".2" fill="url(#d)" enable-background="new" d="M533.223 488c0 35.347-28.653 64-64 64H15c-35.346 0-64-28.653-64-64 0-35.346 28.654-64 64-64h454.222c35.347 0 64.001 28.654 64.001 64z"/><linearGradient id="e" gradientUnits="userSpaceOnUse" x1="-280.04" y1="338.154" x2="243.16" y2="338.154" gradientTransform="matrix(1 0 0 -1 .04 535.154)"><stop offset="0" stop-color="#dbd6d8"/><stop offset="1" stop-color="#dbd6d8" stop-opacity="0"/></linearGradient><path opacity=".5" fill="url(#e)" enable-background="new" d="M-280 197c0-35.346 28.654-64 64-64h454.222c35.346 0 64 28.654 64 64 0 35.347-28.654 64-64 64H-216c-35.346 0-64-28.654-64-64z"/><linearGradient id="f" gradientUnits="userSpaceOnUse" x1="1503.929" y1="175.057" x2="867.322" y2="175.185" gradientTransform="matrix(1 0 0 -1 .04 535.154)"><stop offset="0" stop-color="#dbd6d8"/><stop offset="1" stop-color="#dbd6d8" stop-opacity="0"/></linearGradient><path opacity=".5" fill="url(#f)" enable-background="new" d="M1171.36 360c0 35.347-28.65 64-64 64H931.998c-35.346 0-64-28.653-64-64 0-35.346 28.654-64 64-64h175.362c35.35 0 64 28.654 64 64z"/><linearGradient id="g" gradientUnits="userSpaceOnUse" x1="2079.93" y1="232.057" x2="1443.32" y2="232.185" gradientTransform="matrix(1 0 0 -1 .04 535.154)"><stop offset="0" stop-color="#dbd6d8"/><stop offset="1" stop-color="#dbd6d8" stop-opacity="0"/></linearGradient><path opacity=".5" fill="url(#g)" enable-background="new" d="M1747.36 303c0 35.347-28.65 64-64 64H1508c-35.35 0-64-28.653-64-64 0-35.346 28.65-64 64-64h175.36c35.35 0 64 28.654 64 64z"/></g><path fill="#FFF" d="M1349.71 162.678c8.96-6.345 15.561-11.678 19.811-15.998 7.39-7.539 11.079-14.619 11.079-21.239 0-2.206-.6-3.815-1.8-4.827-1.2-1.011-2.49-1.517-3.88-1.517-3.14.46-5.22.689-6.229.689-6.011 0-10.99-2.022-14.961-6.067-3.979-4.047-5.959-9.332-5.959-15.86 0-7.355 2.17-13.147 6.51-17.377 4.34-4.321 10.02-6.482 17.04-6.482 8.22 0 15.06 2.942 20.51 8.827 5.45 5.884 8.17 14.021 8.17 24.41 0 14.711-6.05 28.272-18.15 40.684-7.199 7.264-16.81 14.251-28.819 20.964l-3.322-6.207zm-67.77 0c8.5-5.886 14.92-10.987 19.26-15.31 7.76-7.723 11.64-14.986 11.64-21.79 0-1.839-.47-3.401-1.39-4.688-1.021-1.195-2.45-1.793-4.29-1.793-3.05.46-5.08.689-6.101.689-6.1 0-11.13-2.022-15.1-6.067-3.97-4.047-5.96-9.471-5.96-16.274 0-6.252 1.99-11.723 5.96-16.411 4.061-4.689 9.97-7.034 17.73-7.034 7.58 0 14.229 2.759 19.949 8.275 5.73 5.516 8.59 13.699 8.59 24.548 0 14.711-5.77 28.134-17.319 40.271-7.2 7.538-17.08 14.802-29.65 21.79l-3.319-6.206z"/></svg>