<svg width="359" height="310" fill="none" xmlns="http://www.w3.org/2000/svg"><mask id="a" maskUnits="userSpaceOnUse" x="0" y="0" width="359" height="310"><rect width="359" height="310" rx="16" fill="url(#paint0_radial)"/></mask><g mask="url(#a)"><path fill="#F9F9FB" d="M-112-134h1601v560H-112z"/><path opacity=".2" fill-rule="evenodd" clip-rule="evenodd" d="M-16 200.076c0 19.372 15.704 35.076 35.076 35.076h248.941c19.371 0 35.075-15.704 35.075-35.076S287.388 165 268.017 165H19.076C-.296 165-16 180.704-16 200.076z" fill="url(#paint1_linear)"/><path opacity=".5" fill-rule="evenodd" clip-rule="evenodd" d="M-66.376 65.076c0 19.372 15.705 35.076 35.076 35.076h248.941c19.372 0 35.076-15.704 35.076-35.076S237.013 30 217.641 30h-248.94c-19.373 0-35.077 15.704-35.077 35.076z" fill="url(#paint2_linear)"/><path opacity=".5" fill-rule="evenodd" clip-rule="evenodd" d="M393.262 111.006c0 19.372-15.704 35.076-35.076 35.076h-96.11c-19.372 0-35.076-15.704-35.076-35.076 0-19.371 15.704-35.075 35.076-35.075h96.11c19.372 0 35.076 15.704 35.076 35.075z" fill="url(#paint3_linear)"/></g><defs><linearGradient id="paint1_linear" x1="-16.097" y1="200.076" x2="270.647" y2="200.076" gradientUnits="userSpaceOnUse"><stop stop-color="#DBD6D8"/><stop offset="1" stop-color="#DBD6D8" stop-opacity="0"/></linearGradient><linearGradient id="paint2_linear" x1="-66.473" y1="65.076" x2="220.272" y2="65.076" gradientUnits="userSpaceOnUse"><stop stop-color="#DBD6D8"/><stop offset="1" stop-color="#DBD6D8" stop-opacity="0"/></linearGradient><linearGradient id="paint3_linear" x1="575.549" y1="111.077" x2="226.652" y2="111.006" gradientUnits="userSpaceOnUse"><stop stop-color="#DBD6D8"/><stop offset="1" stop-color="#DBD6D8" stop-opacity="0"/></linearGradient><radialGradient id="paint0_radial" cx="0" cy="0" r="1" gradientUnits="userSpaceOnUse" gradientTransform="rotate(-31.917 488.535 -26.892) scale(210.149 387.223)"><stop stop-color="#1F2742"/><stop offset="1" stop-color="#2F395A"/></radialGradient></defs></svg>