<svg xmlns="http://www.w3.org/2000/svg" width="1601" height="560" viewBox="63 0 1601 560"><path fill="#F9F9FB" d="M63 0h1601v560H63z"/><linearGradient id="a" gradientUnits="userSpaceOnUse" x1="758.182" y1="81.154" x2="234.982" y2="81.154" gradientTransform="matrix(1 0 0 -1 .04 559.154)"><stop offset="0" stop-color="#dbd6d8"/><stop offset="1" stop-color="#dbd6d8" stop-opacity="0"/></linearGradient><path opacity=".2" fill="url(#a)" d="M758.223 478c0 35.347-28.653 64-64 64H240c-35.346 0-64-28.653-64-64 0-35.346 28.654-64 64-64h454.223c35.346 0 64 28.654 64 64z"/><linearGradient id="b" gradientUnits="userSpaceOnUse" x1="-.04" y1="426.154" x2="523.16" y2="426.154" gradientTransform="matrix(1 0 0 -1 .04 559.154)"><stop offset="0" stop-color="#dbd6d8"/><stop offset="1" stop-color="#dbd6d8" stop-opacity="0"/></linearGradient><path opacity=".5" fill="url(#b)" d="M0 133c0 35.347 28.654 64 64 64h454.222c35.347 0 64-28.653 64-64 0-35.346-28.653-64-64-64H64C28.654 69 0 97.654 0 133z"/><linearGradient id="c" gradientUnits="userSpaceOnUse" x1="1561.931" y1="203.057" x2="925.326" y2="203.185" gradientTransform="matrix(1 0 0 -1 .04 559.154)"><stop offset="0" stop-color="#dbd6d8"/><stop offset="1" stop-color="#dbd6d8" stop-opacity="0"/></linearGradient><path opacity=".5" fill="url(#c)" d="M1229.37 356c0 35.347-28.66 64-64 64H990c-35.346 0-64-28.653-64-64 0-35.346 28.654-64 64-64h175.37c35.34 0 64 28.654 64 64z"/><linearGradient id="d" gradientUnits="userSpaceOnUse" x1="2327.931" y1="321.057" x2="1691.331" y2="321.185" gradientTransform="matrix(1 0 0 -1 .04 559.154)"><stop offset="0" stop-color="#dbd6d8"/><stop offset="1" stop-color="#dbd6d8" stop-opacity="0"/></linearGradient><path opacity=".5" fill="url(#d)" d="M1995.37 238c0 35.347-28.66 64-64 64H1756c-35.35 0-64-28.653-64-64 0-35.346 28.65-64 64-64h175.37c35.34 0 64 28.654 64 64z"/><linearGradient id="e" gradientUnits="userSpaceOnUse" x1="1140.96" y1="424.154" x2="1664.16" y2="424.154" gradientTransform="matrix(1 0 0 -1 .04 559.154)"><stop offset="0" stop-color="#dbd6d8"/><stop offset="1" stop-color="#dbd6d8" stop-opacity="0"/></linearGradient><path opacity=".2" fill="url(#e)" d="M1141 135c0 35.347 28.65 64 64 64h454.22c35.351 0 64-28.653 64-64 0-35.346-28.649-64-64-64H1205c-35.35 0-64 28.654-64 64z"/></svg>