<svg width="650" height="455" viewBox="0 0 650 455" fill="none" xmlns="http://www.w3.org/2000/svg">
<rect opacity="0.5" width="299" height="122" rx="61" transform="matrix(-1 0 0 1 359 157)" fill="url(#paint0_linear_3480_1424)"/>
<rect width="132" height="86" rx="43" transform="matrix(-1 0 0 1 351 25)" fill="url(#paint1_linear_3480_1424)"/>
<path fill-rule="evenodd" clip-rule="evenodd" d="M346.008 339C346.008 374.346 374.662 403 410.008 403L585.373 403C620.719 403 649.373 374.346 649.373 339C649.373 303.654 620.719 275 585.373 275L410.008 275C374.662 275 346.008 303.654 346.008 339Z" fill="url(#paint2_linear_3480_1424)"/>
<circle r="45" transform="matrix(-1 0 0 1 548 172)" stroke="url(#paint3_linear_3480_1424)" stroke-width="2"/>
<g filter="url(#filter0_d_3480_1424)">
<rect x="161" y="68" width="387" height="271" rx="16" fill="white"/>
<path d="M205.942 297.823C205.395 297.823 204.941 297.717 204.579 297.506C204.224 297.287 203.951 296.911 203.76 296.379C203.569 295.846 203.473 295.115 203.473 294.186C203.473 293.257 203.569 292.527 203.76 291.994C203.951 291.461 204.224 291.089 204.579 290.877C204.941 290.659 205.395 290.549 205.942 290.549C206.481 290.549 206.932 290.659 207.294 290.877C207.656 291.096 207.933 291.471 208.124 292.004C208.315 292.53 208.411 293.257 208.411 294.186C208.411 295.115 208.315 295.846 208.124 296.379C207.933 296.905 207.656 297.277 207.294 297.495C206.932 297.714 206.481 297.823 205.942 297.823ZM205.942 297.075C206.345 297.075 206.659 296.969 206.884 296.758C207.11 296.546 207.263 296.239 207.345 295.836C207.434 295.433 207.479 294.917 207.479 294.289V294.186C207.479 293.538 207.434 293.005 207.345 292.588C207.263 292.172 207.11 291.854 206.884 291.635C206.659 291.41 206.345 291.297 205.942 291.297C205.539 291.297 205.225 291.403 204.999 291.615C204.774 291.827 204.617 292.134 204.528 292.537C204.446 292.94 204.405 293.456 204.405 294.084V294.186C204.405 294.835 204.446 295.368 204.528 295.785C204.617 296.201 204.774 296.522 204.999 296.748C205.225 296.966 205.539 297.075 205.942 297.075Z" fill="#AEB0C0"/>
<path d="M193.243 249.539H195.057V244.54H193.233V244.007C193.561 243.973 193.954 243.888 194.411 243.751C194.876 243.608 195.275 243.444 195.61 243.259H195.958V249.539H197.638V250.287H193.243V249.539ZM200.821 250.41C200.274 250.41 199.82 250.304 199.458 250.093C199.103 249.874 198.83 249.498 198.639 248.966C198.447 248.433 198.352 247.702 198.352 246.773C198.352 245.844 198.447 245.114 198.639 244.581C198.83 244.048 199.103 243.676 199.458 243.464C199.82 243.246 200.274 243.136 200.821 243.136C201.36 243.136 201.811 243.246 202.173 243.464C202.535 243.683 202.812 244.058 203.003 244.591C203.194 245.117 203.29 245.844 203.29 246.773C203.29 247.702 203.194 248.433 203.003 248.966C202.812 249.491 202.535 249.864 202.173 250.082C201.811 250.301 201.36 250.41 200.821 250.41ZM200.821 249.662C201.224 249.662 201.538 249.556 201.763 249.345C201.989 249.133 202.142 248.826 202.224 248.423C202.313 248.02 202.358 247.504 202.358 246.876V246.773C202.358 246.124 202.313 245.592 202.224 245.175C202.142 244.758 201.989 244.441 201.763 244.222C201.538 243.997 201.224 243.884 200.821 243.884C200.418 243.884 200.104 243.99 199.878 244.202C199.653 244.414 199.496 244.721 199.407 245.124C199.325 245.527 199.284 246.042 199.284 246.671V246.773C199.284 247.422 199.325 247.955 199.407 248.371C199.496 248.788 199.653 249.109 199.878 249.334C200.104 249.553 200.418 249.662 200.821 249.662ZM204.352 242.88H205.253V247.542L207.538 244.898H208.655L206.8 247.019L208.757 250.287H207.712L206.237 247.665L205.253 248.597V250.287H204.352V242.88Z" fill="#AEB0C0"/>
<path d="M192.681 202.577C192.681 202.208 192.777 201.87 192.968 201.562C193.159 201.248 193.388 200.975 193.654 200.743C193.927 200.504 194.289 200.22 194.74 199.893C195.102 199.626 195.396 199.401 195.621 199.216C195.847 199.025 196.034 198.831 196.185 198.632C196.417 198.325 196.533 198.011 196.533 197.69C196.533 197.369 196.431 197.092 196.226 196.86C196.028 196.621 195.679 196.502 195.181 196.502C194.669 196.502 194.293 196.628 194.054 196.881C193.815 197.127 193.695 197.448 193.695 197.844V198.264H192.794C192.773 198.148 192.763 198.011 192.763 197.854C192.763 197.144 192.995 196.611 193.46 196.256C193.924 195.901 194.515 195.723 195.232 195.723C195.901 195.723 196.441 195.894 196.851 196.235C197.26 196.57 197.465 197.082 197.465 197.772C197.465 198.141 197.363 198.486 197.158 198.807C196.953 199.128 196.704 199.418 196.41 199.677C196.123 199.93 195.748 200.224 195.283 200.558C194.942 200.804 194.672 201.009 194.474 201.173C194.283 201.33 194.115 201.491 193.972 201.655C193.876 201.757 193.798 201.877 193.736 202.013H197.506V202.874H192.681V202.577ZM200.822 202.997C200.276 202.997 199.822 202.891 199.46 202.679C199.104 202.461 198.831 202.085 198.64 201.552C198.449 201.019 198.353 200.289 198.353 199.36C198.353 198.431 198.449 197.7 198.64 197.167C198.831 196.635 199.104 196.263 199.46 196.051C199.822 195.832 200.276 195.723 200.822 195.723C201.362 195.723 201.812 195.832 202.174 196.051C202.536 196.269 202.813 196.645 203.004 197.178C203.195 197.704 203.291 198.431 203.291 199.36C203.291 200.289 203.195 201.019 203.004 201.552C202.813 202.078 202.536 202.45 202.174 202.669C201.812 202.887 201.362 202.997 200.822 202.997ZM200.822 202.249C201.225 202.249 201.539 202.143 201.765 201.931C201.99 201.72 202.144 201.412 202.226 201.009C202.314 200.606 202.359 200.091 202.359 199.462V199.36C202.359 198.711 202.314 198.178 202.226 197.762C202.144 197.345 201.99 197.027 201.765 196.809C201.539 196.584 201.225 196.471 200.822 196.471C200.419 196.471 200.105 196.577 199.88 196.788C199.654 197 199.497 197.308 199.408 197.71C199.326 198.113 199.285 198.629 199.285 199.257V199.36C199.285 200.009 199.326 200.541 199.408 200.958C199.497 201.375 199.654 201.696 199.88 201.921C200.105 202.14 200.419 202.249 200.822 202.249ZM204.353 195.467H205.255V200.128L207.539 197.485H208.656L206.802 199.606L208.758 202.874H207.713L206.238 200.251L205.255 201.183V202.874H204.353V195.467Z" fill="#AEB0C0"/>
<path d="M195.159 155.583C194.353 155.583 193.732 155.396 193.294 155.02C192.857 154.638 192.639 154.122 192.639 153.473V153.391H193.551V153.504C193.551 153.934 193.684 154.265 193.95 154.498C194.216 154.723 194.592 154.836 195.077 154.836C195.576 154.836 195.965 154.726 196.245 154.508C196.532 154.289 196.675 153.958 196.675 153.514C196.675 153.056 196.522 152.735 196.214 152.551C195.914 152.36 195.521 152.264 195.036 152.264H194.298V151.516H195.067C195.477 151.516 195.821 151.41 196.101 151.199C196.382 150.987 196.522 150.683 196.522 150.287C196.522 149.877 196.388 149.57 196.122 149.365C195.862 149.16 195.531 149.058 195.128 149.058C194.698 149.058 194.353 149.167 194.094 149.385C193.834 149.597 193.704 149.911 193.704 150.328V150.42H192.792V150.236C192.792 149.853 192.891 149.519 193.09 149.232C193.288 148.938 193.561 148.713 193.909 148.556C194.264 148.392 194.667 148.31 195.118 148.31C195.828 148.31 196.395 148.477 196.819 148.812C197.242 149.146 197.454 149.621 197.454 150.236C197.454 150.625 197.351 150.946 197.146 151.199C196.942 151.445 196.655 151.649 196.286 151.813V151.854C196.689 151.97 197.01 152.175 197.249 152.469C197.488 152.763 197.607 153.132 197.607 153.575C197.607 153.985 197.502 154.344 197.29 154.651C197.085 154.952 196.798 155.184 196.429 155.348C196.061 155.505 195.637 155.583 195.159 155.583ZM200.821 155.583C200.274 155.583 199.82 155.478 199.458 155.266C199.103 155.047 198.83 154.672 198.639 154.139C198.447 153.606 198.352 152.875 198.352 151.947C198.352 151.018 198.447 150.287 198.639 149.754C198.83 149.221 199.103 148.849 199.458 148.638C199.82 148.419 200.274 148.31 200.821 148.31C201.36 148.31 201.811 148.419 202.173 148.638C202.535 148.856 202.812 149.232 203.003 149.764C203.194 150.29 203.29 151.018 203.29 151.947C203.29 152.875 203.194 153.606 203.003 154.139C202.812 154.665 202.535 155.037 202.173 155.256C201.811 155.474 201.36 155.583 200.821 155.583ZM200.821 154.836C201.224 154.836 201.538 154.73 201.763 154.518C201.989 154.306 202.142 153.999 202.224 153.596C202.313 153.193 202.358 152.677 202.358 152.049V151.947C202.358 151.298 202.313 150.765 202.224 150.348C202.142 149.932 201.989 149.614 201.763 149.396C201.538 149.17 201.224 149.058 200.821 149.058C200.418 149.058 200.104 149.163 199.878 149.375C199.653 149.587 199.496 149.894 199.407 150.297C199.325 150.7 199.284 151.216 199.284 151.844V151.947C199.284 152.595 199.325 153.128 199.407 153.545C199.496 153.961 199.653 154.282 199.878 154.508C200.104 154.726 200.418 154.836 200.821 154.836ZM204.352 148.054H205.253V152.715L207.538 150.072H208.655L206.8 152.192L208.757 155.461H207.712L206.237 152.838L205.253 153.77V155.461H204.352V148.054Z" fill="#AEB0C0"/>
<path d="M195.804 107.162H192.536V106.404C192.98 105.646 193.359 104.888 193.673 104.13C193.988 103.372 194.237 102.576 194.421 101.743H195.395C195.265 102.324 195.074 102.938 194.821 103.587C194.568 104.229 194.309 104.81 194.042 105.329C193.783 105.848 193.574 106.21 193.417 106.415H195.804V104.11C195.948 103.741 196.088 103.3 196.224 102.788H196.706V106.415H197.638V107.162H196.706V108.894H195.804V107.162ZM200.821 109.017C200.274 109.017 199.82 108.911 199.458 108.699C199.103 108.481 198.83 108.105 198.639 107.572C198.447 107.04 198.352 106.309 198.352 105.38C198.352 104.451 198.447 103.72 198.639 103.188C198.83 102.655 199.103 102.283 199.458 102.071C199.82 101.852 200.274 101.743 200.821 101.743C201.36 101.743 201.811 101.852 202.173 102.071C202.535 102.289 202.812 102.665 203.003 103.198C203.194 103.724 203.29 104.451 203.29 105.38C203.29 106.309 203.194 107.04 203.003 107.572C202.812 108.098 202.535 108.47 202.173 108.689C201.811 108.907 201.36 109.017 200.821 109.017ZM200.821 108.269C201.224 108.269 201.538 108.163 201.763 107.951C201.989 107.74 202.142 107.432 202.224 107.029C202.313 106.626 202.358 106.111 202.358 105.482V105.38C202.358 104.731 202.313 104.198 202.224 103.782C202.142 103.365 201.989 103.048 201.763 102.829C201.538 102.604 201.224 102.491 200.821 102.491C200.418 102.491 200.104 102.597 199.878 102.808C199.653 103.02 199.496 103.328 199.407 103.731C199.325 104.133 199.284 104.649 199.284 105.277V105.38C199.284 106.029 199.325 106.561 199.407 106.978C199.496 107.395 199.653 107.716 199.878 107.941C200.104 108.16 200.418 108.269 200.821 108.269ZM204.352 101.487H205.253V106.148L207.538 103.505H208.655L206.8 105.626L208.757 108.894H207.712L206.237 106.271L205.253 107.203V108.894H204.352V101.487Z" fill="#AEB0C0"/>
<path d="M219 296H506" stroke="#E7EEEE" stroke-width="0.931335"/>
<path d="M219 248H506" stroke="#E7EEEE" stroke-width="0.931335"/>
<path d="M219 201H506" stroke="#E7EEEE" stroke-width="0.931335"/>
<path d="M219 153H506" stroke="#E7EEEE" stroke-width="0.931335"/>
<path d="M219 107H506" stroke="#E7EEEE" stroke-width="0.931335"/>
<g filter="url(#filter1_d_3480_1424)">
<ellipse cx="508.919" cy="151.191" rx="15.9697" ry="16" fill="#1AC3DA" fill-opacity="0.12"/>
</g>
<ellipse cx="508.915" cy="151.191" rx="5.88356" ry="5.89474" fill="#1AC3DA"/>
<circle cx="156" cy="171" r="64" fill="url(#paint4_linear_3480_1424)"/>
<path d="M155.999 200.333C139.798 200.333 126.665 187.2 126.665 171C126.665 154.8 139.798 141.667 155.999 141.667C172.199 141.667 185.332 154.8 185.332 171C185.332 187.2 172.199 200.333 155.999 200.333Z" stroke="white" stroke-width="3" stroke-linecap="round" stroke-linejoin="round"/>
<path d="M159.759 167.24L169.332 157.667" stroke="white" stroke-width="3" stroke-linecap="round" stroke-linejoin="round"/>
<path d="M155.999 176.333C153.053 176.333 150.665 173.946 150.665 171C150.665 168.054 153.053 165.667 155.999 165.667C158.944 165.667 161.332 168.054 161.332 171C161.332 173.946 158.944 176.333 155.999 176.333Z" stroke="white" stroke-width="3" stroke-linecap="round" stroke-linejoin="round"/>
<path d="M156 152.333V155" stroke="white" stroke-width="3" stroke-linecap="round" stroke-linejoin="round"/>
<path d="M142.798 157.8L144.684 159.685" stroke="white" stroke-width="3" stroke-linecap="round" stroke-linejoin="round"/>
<path d="M137.333 171H140" stroke="white" stroke-width="3" stroke-linecap="round" stroke-linejoin="round"/>
<path d="M171.997 171H174.664" stroke="white" stroke-width="3" stroke-linecap="round" stroke-linejoin="round"/>
</g>
<g clip-path="url(#clip0_3480_1424)">
<path d="M452 184C469.6 163.2 488 155.333 495 154C508.096 148.4 524.457 151.667 531 154V337H188C188 337 208 288.333 218 288C222.333 285.667 248.2 278.4 317 268C403 255 430 210 452 184Z" fill="url(#paint5_linear_3480_1424)" fill-opacity="0.25" stroke="#1AC3DA" stroke-width="2"/>
</g>
<defs>
<filter id="filter0_d_3480_1424" x="0" y="-9" width="640" height="464.332" filterUnits="userSpaceOnUse" color-interpolation-filters="sRGB">
<feFlood flood-opacity="0" result="BackgroundImageFix"/>
<feColorMatrix in="SourceAlpha" type="matrix" values="0 0 0 0 0 0 0 0 0 0 0 0 0 0 0 0 0 0 127 0" result="hardAlpha"/>
<feMorphology radius="8" operator="erode" in="SourceAlpha" result="effect1_dropShadow_3480_1424"/>
<feOffset dy="24"/>
<feGaussianBlur stdDeviation="50"/>
<feColorMatrix type="matrix" values="0 0 0 0 0 0 0 0 0 0 0 0 0 0 0 0 0 0 0.1 0"/>
<feBlend mode="normal" in2="BackgroundImageFix" result="effect1_dropShadow_3480_1424"/>
<feBlend mode="normal" in="SourceGraphic" in2="effect1_dropShadow_3480_1424" result="shape"/>
</filter>
<filter id="filter1_d_3480_1424" x="481.773" y="125.878" width="54.2895" height="54.352" filterUnits="userSpaceOnUse" color-interpolation-filters="sRGB">
<feFlood flood-opacity="0" result="BackgroundImageFix"/>
<feColorMatrix in="SourceAlpha" type="matrix" values="0 0 0 0 0 0 0 0 0 0 0 0 0 0 0 0 0 0 127 0" result="hardAlpha"/>
<feOffset dy="1.86267"/>
<feGaussianBlur stdDeviation="5.58801"/>
<feColorMatrix type="matrix" values="0 0 0 0 0.256667 0 0 0 0 0.35 0 0 0 0 0.346175 0 0 0 0.02 0"/>
<feBlend mode="normal" in2="BackgroundImageFix" result="effect1_dropShadow_3480_1424"/>
<feBlend mode="normal" in="SourceGraphic" in2="effect1_dropShadow_3480_1424" result="shape"/>
</filter>
<linearGradient id="paint0_linear_3480_1424" x1="63" y1="61" x2="299.626" y2="61.0032" gradientUnits="userSpaceOnUse">
<stop stop-color="#DBD6D8" stop-opacity="0.43"/>
<stop offset="1" stop-color="#DBD6D8" stop-opacity="0"/>
</linearGradient>
<linearGradient id="paint1_linear_3480_1424" x1="27.8127" y1="43" x2="132.276" y2="43.0009" gradientUnits="userSpaceOnUse">
<stop stop-color="#DBD6D8" stop-opacity="0.43"/>
<stop offset="1" stop-color="#DBD6D8" stop-opacity="0"/>
</linearGradient>
<linearGradient id="paint2_linear_3480_1424" x1="13.4028" y1="339.128" x2="650.008" y2="339" gradientUnits="userSpaceOnUse">
<stop stop-color="#DBD6D8"/>
<stop offset="1" stop-color="#DBD6D8" stop-opacity="0"/>
</linearGradient>
<linearGradient id="paint3_linear_3480_1424" x1="-0.64531" y1="46.9447" x2="92.3809" y2="46.5954" gradientUnits="userSpaceOnUse">
<stop stop-color="white"/>
<stop offset="1" stop-color="white"/>
</linearGradient>
<linearGradient id="paint4_linear_3480_1424" x1="181.57" y1="179.194" x2="83.8992" y2="71.7481" gradientUnits="userSpaceOnUse">
<stop stop-color="#1CC5DC"/>
<stop offset="1" stop-color="white" stop-opacity="0.8"/>
</linearGradient>
<linearGradient id="paint5_linear_3480_1424" x1="359.5" y1="151" x2="359.5" y2="300" gradientUnits="userSpaceOnUse">
<stop stop-color="#1AC3DA"/>
<stop offset="1" stop-color="#1AC3DA" stop-opacity="0"/>
</linearGradient>
<clipPath id="clip0_3480_1424">
<rect width="296" height="147" fill="white" transform="matrix(-1 0 0 1 510 151)"/>
</clipPath>
</defs>
</svg>
