<svg xmlns="http://www.w3.org/2000/svg" width="356" height="80" viewBox="0 0 356 80" fill="none"><g clip-path="url(#clip0)"><path d="M34.3291 14.818C33.2795 12.974 31.3211 11.765 28.9867 11.765C26.1861 11.765 23.6285 13.5153 22.3986 15.9862C21.9744 16.8217 21.7135 17.7361 21.6309 18.6769L20.9102 27.156C20.9102 27.156 23.695 27.217 24.9445 27.217C35.1436 27.217 35.1596 18.6769 35.1596 18.6769C35.3023 17.3304 35.0102 15.9729 34.3292 14.8179L34.3291 14.818ZM49.8518 32.7369C48.9977 32.311 48.0612 32.0938 47.1139 32.1019H7.37794C6.00469 32.0893 4.65845 32.4986 3.50816 33.2782C2.54359 33.8919 1.72783 34.7281 1.12403 35.722C0.520219 36.7158 0.144558 37.8407 0.0261172 39.0097C-0.212807 41.8876 1.27163 44.3463 3.60994 45.3924C4.38547 45.7384 5.25109 45.9419 6.19501 45.9419H19.3123L18.1647 59.3462C18.0864 60.3191 18.1803 61.2105 18.4585 62.0491C19.2771 64.5321 21.5292 66.2784 24.3258 66.2784C27.0559 66.2784 29.5469 64.5932 30.816 62.2078C31.286 61.3367 31.5954 60.3922 31.6777 59.3461L32.8253 45.9418H45.9391C46.8869 45.9418 47.7722 45.7383 48.6143 45.4004C51.125 44.3461 53.0402 41.8875 53.2909 39.0096C53.4177 37.7226 53.1545 36.4265 52.5379 35.3026C51.9213 34.1787 50.9823 33.283 49.852 32.7409L49.8518 32.7369ZM105.85 37.549C111.377 34.207 114.498 28.6221 115.164 20.904C115.732 14.1468 113.766 8.89552 109.289 5.29732C104.914 1.78033 99.4772 0.00146484 93.1323 0.00146484H72.2088C72.1618 0.00146484 72.1148 0.00977903 72.0717 0.013659C70.6578 0.0293415 69.2764 0.456628 68.0844 1.24702C67.3586 1.71987 66.7095 2.30927 66.1613 2.99328C65.1122 4.19949 64.4664 5.72589 64.3204 7.34474L58.739 72.6453C58.5862 74.4201 59.0484 75.9709 60.0472 77.298C60.4506 77.8516 60.9049 78.3482 61.4572 78.7512C62.5264 79.5409 63.7955 79.948 65.2291 79.9805C65.28 79.9805 65.3152 80.0008 65.374 80.0008H90.2416C97.3075 80.0008 103.598 78.1487 108.937 74.4851C114.416 70.7361 117.503 65.1677 118.122 57.9584C118.592 52.5444 117.573 47.912 115.106 44.2242C113.057 41.1469 109.947 38.8917 105.846 37.5484L105.85 37.549ZM77.3835 12.7422H89.972C93.2699 12.7422 95.949 13.6215 97.9074 15.3474C99.8266 17.0285 100.637 19.3732 100.375 22.5076C100.046 26.2118 98.824 28.9025 96.7245 30.5186C94.5037 32.2323 91.9382 33.0627 88.8909 33.0627H75.6447L77.3835 12.7422ZM99.148 64.5895C96.4298 66.3602 92.9516 67.2435 88.8155 67.2435H72.7293L74.4644 46.8581H91.1106C95.5483 46.8581 98.9247 47.1552 100.903 48.9667C102.979 50.8717 103.77 53.1879 103.503 56.363C103.17 60.226 101.745 62.9289 99.1479 64.5897L99.148 64.5895ZM148.89 24.4375C143.826 24.4453 138.807 25.4251 134.085 27.3276C129.604 29.1635 127.219 31.4877 126.984 34.2313C126.854 35.7497 127.246 37.0279 128.143 38.0333C129.04 39.0347 130.246 39.5476 131.723 39.5476C132.389 39.5476 133.74 39.3563 137.708 37.6588C140.877 36.3115 143.912 35.6235 146.732 35.6235C149.689 35.6235 151.734 36.4458 152.971 38.1106C154.052 39.6087 154.468 41.9248 154.205 44.99L154.182 45.2749C144.738 46.1094 137.974 47.3916 133.533 49.1868C126.424 52.0403 122.535 56.8192 121.978 63.3689C121.536 68.4979 123.028 72.597 126.404 75.5399C129.702 78.43 133.912 79.8955 138.898 79.8955C144.068 79.8955 148.663 78.9633 152.584 77.1275C153.641 78.9307 155.474 79.8955 157.95 79.8955C159.771 79.8955 161.424 79.2279 162.853 77.9293C164.236 76.7198 165.1 74.9891 165.254 73.1178L167.655 44.99C168.184 38.8271 167.103 33.971 164.444 30.5391C161.216 26.4847 155.983 24.4372 148.89 24.4372L148.89 24.4375ZM152.348 66.7305C149.363 68.3343 146.332 69.1444 143.32 69.1444C140.77 69.1444 138.639 68.5867 137.002 67.4755C135.498 66.4578 134.84 65.0372 135.004 63.1362C135.455 57.9258 144.933 56.1063 153.299 55.5241L152.347 66.7261L152.348 66.7305ZM199.895 24.4374C196.089 24.4415 192.31 25.0947 188.708 26.3709L190.385 6.88889C190.475 5.91754 190.341 4.93786 189.993 4.0313C189.131 1.65816 186.957 0.0136128 184.243 0.0136128C181.92 0.0136128 179.77 1.20633 178.407 3.04219C177.549 4.16572 177.052 5.44388 176.934 6.88889L171.427 71.2046C171.075 75.4177 172.935 78.1124 176.844 78.9795C179.919 79.582 184.059 79.8913 189.127 79.8913C200.083 79.8913 208.672 76.7 214.66 70.4187C219.172 65.7375 221.789 59.5909 222.419 52.158C223.128 43.8254 221.429 37.0844 217.383 32.0977C213.231 27.0094 207.348 24.4368 199.894 24.4368L199.895 24.4374ZM204.722 62.5177C201.475 66.2219 197.029 68.0374 191.123 68.0374C188.694 68.0374 186.697 67.9479 185.165 67.8054L187.68 38.436C190.482 37.1719 193.504 36.5193 196.559 36.5188C200.429 36.5188 203.457 37.8296 205.787 40.5324C208.164 43.4103 209.163 47.3344 208.756 52.1584C208.391 56.3593 207.036 59.8438 204.721 62.5179L204.722 62.5177ZM254.891 24.438C251.111 24.438 247.347 25.0893 243.72 26.3715L245.381 6.88952C245.467 5.93168 245.344 4.96611 245.021 4.06454C244.167 1.68327 241.981 0.014241 239.243 0.014241C236.917 0.014241 234.763 1.21509 233.407 3.05908C232.556 4.15276 232.04 5.48732 231.927 6.88952L226.439 71.2053C226.067 75.4184 227.94 78.1131 231.845 78.9802C234.919 79.5826 239.052 79.892 244.14 79.892C255.076 79.892 263.669 76.7006 269.665 70.4194C274.185 65.7381 276.794 59.5915 277.428 52.1586C278.137 43.8261 276.449 37.085 272.376 32.0984C268.232 27.0101 262.336 24.4375 254.891 24.4375L254.891 24.438ZM259.727 62.5183C256.476 66.2225 252.026 68.0381 246.124 68.0381C243.692 68.0381 241.698 67.9486 240.17 67.8061L242.681 38.4367C245.483 37.171 248.505 36.5183 251.56 36.5194C255.438 36.5194 258.454 37.8302 260.776 40.533C263.166 43.4109 264.164 47.3351 263.753 52.159C263.393 56.3599 262.034 59.8444 259.727 62.5185L259.727 62.5183ZM309.967 24.4386C302.016 24.4386 295.365 27.0072 290.199 32.0873C284.974 37.2163 281.989 43.754 281.331 51.4963C280.626 59.7597 282.467 66.5579 286.811 71.6822C291.276 77.1246 297.962 79.8927 306.645 79.8927C312.254 79.8927 317.542 78.8383 322.383 76.7583C326.398 74.9876 328.548 72.7203 328.783 69.9808C328.864 69.2563 328.804 68.5224 328.609 67.822C328.413 67.1217 328.085 66.4689 327.643 65.902C326.445 64.3552 324.815 63.7324 322.489 64.3023C321.929 64.4447 321.431 64.6564 321.012 64.8966C320.59 65.1473 320.153 65.3702 319.704 65.5642C319.058 65.8654 318.502 66.1422 318.067 66.3335C314.898 67.7582 311.643 68.4828 308.392 68.4828C303.653 68.4828 300.206 66.9482 297.817 63.8301C296.289 61.8355 295.396 59.3769 295.169 56.4704H325.18C327.268 56.4704 329.026 55.7377 330.389 54.2804C331.717 52.868 332.481 51.0688 332.665 48.9195C333.252 42.0645 331.615 36.2967 327.785 31.7331C323.46 26.8972 317.468 24.4385 309.967 24.4385L309.967 24.4386ZM296.002 46.2891C296.59 43.6677 297.741 41.4288 299.441 39.6133C301.85 37.1587 305.011 35.9579 309.092 35.9579C312.735 35.9579 315.449 37.0855 317.356 39.3773C318.837 41.3026 319.573 43.5619 319.593 46.2892H296.002L296.002 46.2891ZM355.523 6.88922C355.662 5.54972 355.375 4.19961 354.704 3.04659C353.654 1.21479 351.712 0.0139454 349.385 0.0139454C346.6 0.0139454 344.062 1.75207 342.828 4.21076C342.406 5.04217 342.148 5.95276 342.068 6.88922L336.409 73.1182C336.326 74.0225 336.426 74.9349 336.702 75.7966C337.513 78.2675 339.761 80.0016 342.546 80.0016C345.264 80.0016 347.736 78.3326 349.009 75.9595C349.471 75.0924 349.773 74.1603 349.859 73.1182L355.523 6.88922" fill="white"></path></g><defs><clipPath id="clip0"><rect width="355.556" height="80" fill="white"></rect></clipPath></defs></svg>