<svg xmlns="http://www.w3.org/2000/svg" width="1600" height="382" fill="none"><mask id="a" style="mask-type:alpha" maskUnits="userSpaceOnUse" x="0" y="0" width="1601" height="382"><path fill="#F9F9FB" d="M0 0h1601v382H0z"></path></mask><g mask="url(#a)"><path fill="#F9F9FB" d="M0-5h1601v560H0z"></path><path opacity=".2" fill-rule="evenodd" clip-rule="evenodd" d="M538.223 121c0 35.346-28.654 64-64 64H20c-35.346 0-64-28.654-64-64 0-35.346 28.654-64 64-64h454.223c35.346 0 64 28.654 64 64z" fill="url(#paint0_linear_3480_594)"></path><path opacity=".2" fill-rule="evenodd" clip-rule="evenodd" d="M790.223 395c0 35.346-28.654 64-64 64H272c-35.346 0-64-28.654-64-64 0-35.346 28.654-64 64-64h454.223c35.346 0 64 28.654 64 64z" fill="url(#paint1_linear_3480_594)"></path><path opacity=".5" fill-rule="evenodd" clip-rule="evenodd" d="M1209 254c0-35.346 28.65-64 64-64h454.22c35.35 0 64 28.654 64 64 0 35.346-28.65 64-64 64H1273c-35.35 0-64-28.654-64-64z" fill="url(#paint2_linear_3480_594)"></path><path opacity=".5" fill-rule="evenodd" clip-rule="evenodd" d="M1171.36 355c0 35.346-28.65 64-64 64H931.998c-35.346 0-64-28.654-64-64 0-35.346 28.654-64 64-64h175.362c35.35 0 64 28.654 64 64z" fill="url(#paint3_linear_3480_594)"></path></g><defs><linearGradient id="paint0_linear_3480_594" x1="538.4" y1="121" x2="15.2" y2="121" gradientUnits="userSpaceOnUse"><stop stop-color="#DBD6D8"></stop><stop offset="1" stop-color="#DBD6D8" stop-opacity="0"></stop></linearGradient><linearGradient id="paint1_linear_3480_594" x1="790.4" y1="395" x2="267.2" y2="395" gradientUnits="userSpaceOnUse"><stop stop-color="#DBD6D8"></stop><stop offset="1" stop-color="#DBD6D8" stop-opacity="0"></stop></linearGradient><linearGradient id="paint2_linear_3480_594" x1="1208.82" y1="254" x2="1732.02" y2="254" gradientUnits="userSpaceOnUse"><stop stop-color="#DBD6D8"></stop><stop offset="1" stop-color="#DBD6D8" stop-opacity="0"></stop></linearGradient><linearGradient id="paint3_linear_3480_594" x1="1503.97" y1="355.128" x2="867.363" y2="355" gradientUnits="userSpaceOnUse"><stop stop-color="#DBD6D8"></stop><stop offset="1" stop-color="#DBD6D8" stop-opacity="0"></stop></linearGradient></defs></svg>