<svg xmlns="http://www.w3.org/2000/svg" width="354" height="80" viewBox="0 0 354 80" fill="none"><g clip-path="url(#clip0)"><path d="M39.75 80.0008C61.7033 80.0008 79.5 62.1911 79.5 40.2217C79.5 18.2524 61.7033 0.442749 39.75 0.442749C17.7967 0.442749 0 18.2524 0 40.2217C0 62.1911 17.7967 80.0008 39.75 80.0008Z" fill="#E3E3E3"></path><path d="M281.915 68.774C279.221 68.1553 275.158 66.564 275.158 66.122C275.158 65.68 277.057 60.774 277.322 60.4647C277.499 60.288 278.691 60.509 279.972 60.995C285.095 62.984 290.837 62.8513 292.648 60.8183C293.575 59.7573 294.547 55.4703 293.973 54.9397C293.84 54.8073 293.045 55.2933 292.206 56.0447C288.408 59.3597 281.562 59.006 277.675 55.3377C274.275 52.111 272.905 45.614 274.495 40.4427C275.467 37.3487 278.382 33.9897 280.988 32.9288C284.919 31.3376 291.411 32.4426 292.957 34.962C293.752 36.2437 294.15 35.9783 294.15 34.2547V32.7078H298.831H303.513L303.336 46.321C303.204 59.0503 303.159 60.0227 302.276 61.9233C300.068 66.6967 295.916 68.951 288.85 69.216C286.244 69.3043 283.594 69.1277 281.915 68.774ZM291.5 50.6083C294.15 49.238 294.9 43.625 292.78 40.9287C290.881 38.4977 286.862 38.3653 284.654 40.6637C282.401 43.006 282.71 48.3983 285.184 50.3873C286.553 51.448 289.645 51.5807 291.5 50.6083Z" fill="white"></path><path d="M121.238 59.0497C112.537 56.884 107.325 49.8563 107.325 40.221C107.325 30.3204 112.493 23.337 121.414 21.2155C126.714 19.9779 135.238 21.3922 138.33 24L139.478 24.9724L137.977 28.1547L136.519 31.337L133.604 30.011C128.26 27.4917 123.048 27.8453 120.089 30.9392C118.058 33.0607 117.263 35.8893 117.307 40.707C117.351 47.1603 119.824 50.8287 124.771 51.757C127.288 52.243 131.219 51.58 134.046 50.1657C136.784 48.8397 136.74 48.8397 137.049 49.8563C137.182 50.254 137.756 51.757 138.418 53.127L139.567 55.6907L137.226 57.0167C132.986 59.4473 126.273 60.2873 121.238 59.0497Z" fill="white"></path><path d="M151.536 59.0053C145.22 57.2373 141.731 52.508 141.731 45.7457C141.731 38.276 146.015 33.37 153.479 32.3092C160.414 31.2926 166.641 34.033 169.335 39.2483C171.146 42.74 171.058 48.8397 169.203 52.508C168.01 54.8507 164.742 57.6793 162.18 58.5633C159.177 59.624 154.407 59.801 151.536 59.0053ZM159.53 51.3147C160.988 50.033 160.988 49.9887 160.988 45.79C160.988 41.812 160.899 41.5027 159.839 40.3977C158.514 39.116 155.864 38.5853 154.054 39.2927C153.347 39.5577 152.419 40.3977 151.934 41.1933C151.139 42.4307 151.006 43.2263 151.139 46.3203C151.271 49.8563 151.315 50.077 152.729 51.3147C154.76 53.127 157.499 53.127 159.53 51.3147Z" fill="white"></path><path d="M203.211 59.005C200.87 58.2537 198.927 56.5297 197.823 54.143C196.763 51.889 196.807 50.2093 197.823 47.911C199.192 44.9053 203.697 43.3143 210.852 43.3143H213.899L213.59 41.9C212.972 38.7177 209.439 38.0103 203.829 39.9993C202.151 40.6183 200.649 40.9277 200.473 40.7507C200.119 40.353 198.309 35.8007 198.309 35.3143C198.309 34.7397 203.167 33.1044 206.7 32.4856C210.322 31.8226 215.048 32.2204 217.212 33.3254C218.934 34.2093 220.657 36.1983 221.584 38.2313C222.247 39.69 222.379 41.5907 222.512 49.6347L222.689 59.226H218.228H213.767V57.3697V55.469L212.663 56.8393C210.675 59.4027 207.098 60.1983 203.211 59.005ZM211.426 52.596C212.663 51.889 213.767 49.723 213.767 48.0877C213.767 47.8667 212.53 47.7343 210.984 47.7343C207.539 47.7343 206.259 48.4857 206.259 50.607C206.259 53.259 208.776 54.2313 211.426 52.596Z" fill="white"></path><path d="M250.911 59.007C244.462 57.195 241.017 52.598 241.017 45.7473C241.017 38.366 245.213 33.5043 252.545 32.3109C260.053 31.1175 267.164 34.6533 269.151 40.576C270.079 43.228 270.035 48.355 269.107 51.0953C268.136 54.0127 264.646 57.5043 261.687 58.5207C258.551 59.6257 253.826 59.8027 250.911 59.007ZM258.905 51.3163C260.318 50.0787 260.362 49.8577 260.495 46.322C260.627 43.228 260.495 42.4323 259.7 41.195C259.214 40.3993 258.286 39.5593 257.58 39.2943C255.769 38.587 253.119 39.1173 251.794 40.3993C250.734 41.5043 250.646 41.8137 250.646 45.7917C250.646 49.9903 250.646 50.0347 252.103 51.3163C254.135 53.1287 256.873 53.1287 258.905 51.3163Z" fill="white"></path><path d="M174.9 45.968V32.7083H179.317H183.733V34.6974C183.733 36.907 184.175 37.2167 185.058 35.5814C185.809 34.1667 189.519 32.3989 192.39 32.1337L194.642 31.8685L194.951 34.8297C195.437 40.0454 195.702 39.6034 191.418 40.0894C184.837 40.885 184.219 41.9017 184.219 52.2884L184.175 59.2277H179.537H174.9V45.968Z" fill="white"></path><path d="M227.458 40.2213V21.2158H232.096H236.733V40.2213V59.227H232.096H227.458V40.2213Z" fill="white"></path><path d="M307.842 45.968V32.7084H312.7H317.558V45.968V59.2277H312.7H307.842V45.968Z" fill="white"></path><path d="M320.517 58.6974C320.738 58.388 323.3 55.294 326.126 51.8464L331.294 45.526L326.215 39.3384C323.388 35.979 321.091 33.062 321.091 32.9294C321.091 32.7968 323.476 32.7084 326.347 32.7084H331.647L333.986 35.8024C335.27 37.4817 336.416 38.852 336.55 38.8964C336.683 38.8964 337.83 37.526 339.156 35.8024L341.496 32.7084H347.06H352.583L351.7 33.725C351.213 34.2554 348.826 37.1284 346.353 40.0897L341.85 45.4377L347.37 52.156C350.416 55.8244 352.89 58.9184 352.89 59.051C352.89 59.1394 350.506 59.2277 347.59 59.2277H342.29L339.596 55.8244C338.14 53.9237 336.77 52.3327 336.636 52.2884C336.46 52.2444 335.093 53.7914 333.546 55.736L330.764 59.2277H325.42C321.224 59.2277 320.208 59.095 320.517 58.6974Z" fill="white"></path><path d="M307.842 23.6471V19.4482H312.7H317.558V23.6471V27.846H312.7H307.842V23.6471Z" fill="white"></path><path d="M40.0124 73.4066C58.4287 73.4066 73.3581 58.4664 73.3581 40.0366C73.3581 21.6069 58.4287 6.66663 40.0124 6.66663C21.5961 6.66663 6.66675 21.6069 6.66675 40.0366C6.66675 58.4664 21.5961 73.4066 40.0124 73.4066Z" fill="white"></path></g><defs><clipPath id="clip0"><rect width="353.333" height="80" fill="white"></rect></clipPath></defs></svg>