<svg xmlns="http://www.w3.org/2000/svg" xmlns:xlink="http://www.w3.org/1999/xlink" width="1600" height="444"><pattern x="601" y="322" width="207" height="78.001" patternUnits="userSpaceOnUse" id="ab" viewBox="0 -78.001 207 78.001"><path fill="none" d="M0-78.001h207V0H0z"></path><defs><path id="a" d="M0-75.607h207v74H0z"></path></defs><clipPath id="b"><use xlink:href="#a"></use></clipPath><g clip-path="url(#b)"><image width="207" height="74" xlink:href="DA35B6EF.jpg" transform="translate(0 -75.607)"></image></g><defs><path id="c" d="M0-78.001h207v2.394H0z"></path></defs><clipPath id="d"><use xlink:href="#c"></use></clipPath><g clip-path="url(#d)"><image width="207" height="1" xlink:href="DA35B6ED.jpg" transform="matrix(1 0 0 2.3933 0 -78.001)"></image></g><defs><path id="e" d="M0-1.607h207V0H0z"></path></defs><clipPath id="f"><use xlink:href="#e"></use></clipPath><g clip-path="url(#f)"><image width="207" height="1" xlink:href="DA35B6F3.jpg" transform="matrix(1 0 0 1.6077 0 -1.607)"></image></g></pattern><pattern x="601" y="322" width="25.702" height="22.742" patternUnits="userSpaceOnUse" id="al" viewBox="0 -22.742 25.702 22.742"><path fill="none" d="M0-22.742h25.702V0H0z"></path><defs><path id="g" d="M.702-22h25V0h-25z"></path></defs><clipPath id="h"><use xlink:href="#g"></use></clipPath><g clip-path="url(#h)"><image width="25" height="22" xlink:href="DA35B6F5.jpg" transform="translate(.702 -22)"></image></g><path fill="#737475" d="M0-22.742h.702V-22H0z"></path><defs><path id="i" d="M0-22h.702V0H0z"></path></defs><clipPath id="j"><use xlink:href="#i"></use></clipPath><g clip-path="url(#j)"><image width="1" height="22" xlink:href="DA35B6F7.jpg" transform="matrix(.7016 0 0 1 0 -22)"></image></g><defs><path id="k" d="M.702-22.742h25V-22h-25z"></path></defs><clipPath id="l"><use xlink:href="#k"></use></clipPath><g clip-path="url(#l)"><image width="25" height="1" xlink:href="DA35B6F4.jpg" transform="matrix(1 0 0 .7424 .702 -22.742)"></image></g></pattern><pattern x="601" y="322" width="207" height="78.001" patternUnits="userSpaceOnUse" id="ax" viewBox="0 -78.001 207 78.001"><path fill="none" d="M0-78.001h207V0H0z"></path><defs><path id="m" d="M0-75.907h207v74H0z"></path></defs><clipPath id="n"><use xlink:href="#m"></use></clipPath><g clip-path="url(#n)"><image width="207" height="74" xlink:href="DA35B6FC.jpg" transform="translate(0 -75.907)"></image></g><defs><path id="o" d="M0-78.001h207v2.094H0z"></path></defs><clipPath id="p"><use xlink:href="#o"></use></clipPath><g clip-path="url(#p)"><image width="207" height="1" xlink:href="DA35B6FD.jpg" transform="matrix(1 0 0 2.0939 0 -78.001)"></image></g><defs><path id="q" d="M0-1.907h207V0H0z"></path></defs><clipPath id="r"><use xlink:href="#q"></use></clipPath><g clip-path="url(#r)"><image width="207" height="1" xlink:href="DA35B6FF.jpg" transform="matrix(1 0 0 1.9071 0 -1.907)"></image></g></pattern><defs><path id="s" d="M0 1531V0h1600v1531"></path></defs><clipPath id="t"><use xlink:href="#s"></use></clipPath><path clip-path="url(#t)" fill="#202742" d="M0 0h1600v444H0z"></path><defs><path id="u" d="M0 0h1600v444H0z"></path></defs><clipPath id="v"><use xlink:href="#u"></use></clipPath><g clip-path="url(#v)"><defs><path id="w" d="M0 0h1600v444H0z"></path></defs><clipPath id="x"><use xlink:href="#w"></use></clipPath><g opacity=".439" clip-path="url(#x)"><defs><path id="y" d="M-293.001 438.5a130.17 130.17 0 011.412-19.148 129.803 129.803 0 012.499-12.561A130.489 130.489 0 01-162.501 308h479a130.2 130.2 0 0119.148 1.412 129.803 129.803 0 0112.561 2.498 130.489 130.489 0 0198.633 132.993 131.134 131.134 0 01-1.255 12.745 129.803 129.803 0 01-2.498 12.561A130.489 130.489 0 01316.499 569h-479a130.2 130.2 0 01-19.148-1.412 129.803 129.803 0 01-12.561-2.498 130.489 130.489 0 01-98.791-126.59z"></path></defs><clipPath id="z"><use xlink:href="#y"></use></clipPath><g clip-path="url(#z)"><image width="3084" height="1088" xlink:href="89C3709C.jpg" transform="matrix(.24 0 0 .24 -293.001 308)"></image></g></g><g opacity=".439" clip-path="url(#x)"><defs><path id="A" d="M2090.999 334.5a131.45 131.45 0 01-.628 12.791 130.35 130.35 0 01-1.88 12.668 130.823 130.823 0 01-3.111 12.423 130.61 130.61 0 01-9.791 23.636 131.152 131.152 0 01-10.272 16.222 130.684 130.684 0 01-12.541 14.539 130.438 130.438 0 01-25.187 19.656 131.112 131.112 0 01-11.295 6.037 132.175 132.175 0 01-5.855 2.596 131.069 131.069 0 01-18.232 6.022c-2.072.519-4.155.987-6.25 1.403a129.593 129.593 0 01-12.668 1.879 129.893 129.893 0 01-12.791.628h-479a130.17 130.17 0 01-19.148-1.412 129.803 129.803 0 01-12.561-2.498 130.489 130.489 0 01-97.38-107.442 131.042 131.042 0 01-1.412-19.148 131.481 131.481 0 01.628-12.791 129.81 129.81 0 011.88-12.668 130.823 130.823 0 013.111-12.423 129.9 129.9 0 012.01-6.082 129.456 129.456 0 014.901-11.832 130.733 130.733 0 019.464-16.707 131.463 131.463 0 017.628-10.286 131.255 131.255 0 018.601-9.49 130.438 130.438 0 0125.187-19.656A130.495 130.495 0 011481.498 204h479a130.17 130.17 0 0119.148 1.412 129.803 129.803 0 0112.561 2.498 130.489 130.489 0 0197.379 107.442 130.503 130.503 0 011.413 19.148z"></path></defs><clipPath id="B"><use xlink:href="#A"></use></clipPath><g clip-path="url(#B)"><image width="3084" height="1088" xlink:href="89C3709B.jpg" transform="matrix(.24 0 0 .24 1350.999 204)"></image></g></g><g opacity=".631" clip-path="url(#x)"><defs><path id="C" d="M-54.001 194a60.901 60.901 0 011.172-11.9 61.071 61.071 0 016.031-16.855 60.969 60.969 0 016.644-9.943 61.38 61.38 0 014.02-4.436 60.871 60.871 0 0114.379-10.664A60.95 60.95 0 016.999 133h105a60.901 60.901 0 0111.9 1.172 61.071 61.071 0 0116.855 6.031 60.969 60.969 0 019.943 6.644 61.184 61.184 0 0112.022 13.265 61.01 61.01 0 01-7.587 77.023 61.387 61.387 0 01-4.435 4.02c-1.544 1.268-3.147 2.457-4.809 3.566s-3.373 2.136-5.134 3.078a60.95 60.95 0 01-28.755 7.203h-105a60.901 60.901 0 01-11.9-1.172 61.071 61.071 0 01-16.855-6.031 60.969 60.969 0 01-9.943-6.644 61.148 61.148 0 01-8.456-8.456 60.871 60.871 0 01-6.644-9.944A60.992 60.992 0 01-54.001 194z"></path></defs><clipPath id="D"><use xlink:href="#C"></use></clipPath><g clip-path="url(#D)"><image width="946" height="509" xlink:href="89C37094.jpg" transform="matrix(.24 0 0 .24 -54.001 133)"></image></g></g><g opacity=".42" clip-path="url(#x)"><defs><path id="E" d="M1410 143a68.286 68.286 0 01-.332 6.763 68.961 68.961 0 01-1.736 10.002 67.891 67.891 0 01-1.965 6.479 69.813 69.813 0 01-2.592 6.256 68.387 68.387 0 01-3.191 5.972 69.259 69.259 0 01-10.394 13.317 69.275 69.275 0 01-5.016 4.547 69.525 69.525 0 01-5.44 4.033 68.573 68.573 0 01-8.832 5.003c-1.021.483-2.053.94-3.096 1.373a69.501 69.501 0 01-9.64 3.184 69.149 69.149 0 01-13.38 1.985 69.527 69.527 0 01-3.386.083h-278a69.527 69.527 0 01-6.764-.332 68.92 68.92 0 01-10.002-1.736 69.084 69.084 0 01-12.736-4.557 68.387 68.387 0 01-5.971-3.191 68.982 68.982 0 01-17.865-15.409 68.756 68.756 0 01-4.033-5.439 70.334 70.334 0 01-1.813-2.861 69.436 69.436 0 01-4.564-9.068 69.813 69.813 0 01-2.282-6.375 69.418 69.418 0 01-1.644-6.569A69.114 69.114 0 01994 143a68.286 68.286 0 01.332-6.763 68.961 68.961 0 011.736-10.002 67.891 67.891 0 011.965-6.479 69.813 69.813 0 012.592-6.256 68.387 68.387 0 013.191-5.972 69.259 69.259 0 0110.394-13.317 69.275 69.275 0 015.016-4.547 69.525 69.525 0 015.44-4.033 68.573 68.573 0 018.832-5.003 70.004 70.004 0 013.096-1.373 69.501 69.501 0 019.64-3.184 69.149 69.149 0 0113.38-1.985 69.527 69.527 0 013.386-.083h278a69.527 69.527 0 016.764.332 68.92 68.92 0 0110.002 1.736 69.084 69.084 0 0112.736 4.557 68.387 68.387 0 015.971 3.191 68.982 68.982 0 0117.865 15.409 69.744 69.744 0 014.033 5.439 70.334 70.334 0 011.813 2.861 69.436 69.436 0 014.564 9.068 69.813 69.813 0 012.282 6.375 68.54 68.54 0 011.644 6.569A69.114 69.114 0 011410 143z"></path></defs><clipPath id="F"><use xlink:href="#E"></use></clipPath><g clip-path="url(#F)"><image width="1734" height="575" xlink:href="89C37097.jpg" transform="matrix(.24 0 0 .24 994 74)"></image></g></g><g opacity=".502" clip-path="url(#x)"><defs><path id="G" d="M0 0h1600v444H0z"></path></defs><clipPath id="H"><use xlink:href="#G"></use></clipPath><g clip-path="url(#H)"><defs><path id="I" d="M567.616 492.66c29.864 0 54.16-24.296 54.16-54.16s-24.296-54.16-54.16-54.16-54.16 24.296-54.16 54.16 24.296 54.16 54.16 54.16zm0-109.973c30.776 0 55.813 25.038 55.813 55.813s-25.038 55.813-55.813 55.813c-30.775 0-55.813-25.038-55.813-55.813s25.038-55.813 55.813-55.813z"></path></defs><clipPath id="J"><use xlink:href="#I"></use></clipPath><g clip-path="url(#J)"><image width="466" height="466" xlink:href="89C37095.jpg" transform="matrix(.24 0 0 .24 511.803 382.687)"></image></g></g></g><path opacity=".502" clip-path="url(#x)" fill="none" stroke="#F18B91" d="M594.999 9.5a54.463 54.463 0 016.435-25.692 54.537 54.537 0 0122.373-22.374 54.275 54.275 0 019.871-4.089 54.404 54.404 0 0110.479-2.084 54.449 54.449 0 015.342-.263h301a54.593 54.593 0 0120.857 4.149 54.408 54.408 0 019.422 5.037 54.457 54.457 0 0111.851 10.741 54.534 54.534 0 018.223 13.718 54.747 54.747 0 013.102 10.224 54.5 54.5 0 01.784 15.975 54.854 54.854 0 01-.784 5.291 54.788 54.788 0 01-3.102 10.224 54.556 54.556 0 01-8.223 13.718 54.578 54.578 0 01-16.438 13.491 54.408 54.408 0 01-15.059 5.388 54.593 54.593 0 01-10.633 1.048h-301a54.593 54.593 0 01-20.857-4.149 54.275 54.275 0 01-9.422-5.037 54.348 54.348 0 01-11.85-10.741 54.537 54.537 0 01-10.025-18.754A54.48 54.48 0 01594.999 9.5z"></path><path opacity=".051" clip-path="url(#x)" fill="#FFF" d="M-209 44a89.566 89.566 0 01.428-8.723 88.873 88.873 0 013.405-17.111 87.85 87.85 0 012.942-8.223 88.26 88.26 0 013.734-7.896 88.743 88.743 0 019.694-14.507 88.866 88.866 0 0115.781-15.025 89.566 89.566 0 017.261-4.853 88.886 88.886 0 0111.697-5.888 89.658 89.658 0 018.223-2.943 88.59 88.59 0 0112.776-2.869A89.025 89.025 0 01-120-45h446a89.566 89.566 0 018.723.428 88.873 88.873 0 0112.901 2.239 89.03 89.03 0 0144.32 26.566 87.963 87.963 0 015.542 6.752 88.524 88.524 0 014.852 7.262 88.743 88.743 0 015.887 11.697 89.016 89.016 0 01-5.887 79.81 89.588 89.588 0 01-4.853 7.262 89.347 89.347 0 01-8.554 9.916 89.043 89.043 0 01-45.57 24.359 89.576 89.576 0 01-8.639 1.282A88.215 88.215 0 01326 133h-446a89.566 89.566 0 01-8.723-.428 88.873 88.873 0 01-12.901-2.239 89.03 89.03 0 01-62.172-56.352A88.897 88.897 0 01-209 44z"></path></g><defs><path id="K" d="M713 12h779v452H713z"></path></defs><clipPath id="L"><use xlink:href="#K"></use></clipPath><g clip-path="url(#L)"><defs><path id="M" d="M713 12h779v452H713z"></path></defs><clipPath id="N"><use xlink:href="#M"></use></clipPath><g clip-path="url(#N)"><defs><path id="O" d="M713.001 21h779.249v443.25H713.001z"></path></defs><clipPath id="P"><use xlink:href="#O"></use></clipPath><g clip-path="url(#P)"><defs><path id="Q" d="M713 21h779v443H713z"></path></defs><clipPath id="R"><use xlink:href="#Q"></use></clipPath><g clip-path="url(#R)"><defs><path id="S" d="M1102.622 406.425l-15.671-.411-32.137 17.639"></path></defs><defs><path id="U" d="M1054.814 423.653l15.672.411"></path></defs><clipPath id="T"><use xlink:href="#S"></use></clipPath><clipPath id="V" clip-path="url(#T)"><use xlink:href="#U"></use></clipPath><g clip-path="url(#V)"><defs><path id="W" d="M1054.75 406h48v18.25h-48z"></path></defs><clipPath id="X"><use xlink:href="#W"></use></clipPath><g clip-path="url(#X)"><defs><path id="Y" transform="rotate(91.501 1075.135 414.908)" d="M1065.95 377.751h18.473v74.392h-18.473z"></path></defs><clipPath id="Z"><use xlink:href="#Y"></use></clipPath><g clip-path="url(#Z)"><defs><path id="aa" d="M1054.75 406h48v18.25h-48z"></path></defs><clipPath id="ac"><use xlink:href="#aa"></use></clipPath><pattern id="ad" xlink:href="#ab" patternTransform="matrix(.2499 .0065 .0065 -.2499 117.825 460.795)"></pattern><path clip-path="url(#ac)" fill="url(#ad)" d="M1038.245 404.74l74.366 1.947-.483 18.467-74.366-1.947z"></path></g></g></g></g><g clip-path="url(#R)"><defs><path id="ae" d="M964.858 403.567l4.148.108-4.086-2.504-.062 2.396z"></path></defs><clipPath id="af"><use xlink:href="#ae"></use></clipPath><g clip-path="url(#af)"><defs><path id="ag" d="M964.75 401h4.5v2.75h-4.5z"></path></defs><clipPath id="ah"><use xlink:href="#ag"></use></clipPath><g clip-path="url(#ah)"><defs><path id="ai" transform="rotate(91.501 974.662 394.549)" d="M965.471 384.974h18.473v19.222h-18.473z"></path></defs><clipPath id="aj"><use xlink:href="#ai"></use></clipPath><g clip-path="url(#aj)"><defs><path id="ak" d="M964.75 401h4.5v2.75h-4.5z"></path></defs><clipPath id="am"><use xlink:href="#ak"></use></clipPath><pattern id="an" xlink:href="#al" patternTransform="matrix(.2499 .0065 .0065 -.2499 126.617 489.211)"></pattern><path clip-path="url(#am)" fill="url(#an)" d="M965.342 385.101l19.216.503-.485 18.466-19.215-.503z"></path></g></g></g></g><g clip-path="url(#R)"><defs><path id="ao" d="M1133.455 389.502l-15.67-.41-32.137 17.639"></path></defs><defs><path id="aq" d="M1085.648 406.73l15.671.41"></path></defs><clipPath id="ap"><use xlink:href="#ao"></use></clipPath><clipPath id="ar" clip-path="url(#ap)"><use xlink:href="#aq"></use></clipPath><g clip-path="url(#ar)"><defs><path id="as" d="M1085.5 389h48v18.25h-48z"></path></defs><clipPath id="at"><use xlink:href="#as"></use></clipPath><g clip-path="url(#at)"><defs><path id="au" transform="rotate(91.501 1112.28 398.15)" d="M1103.098 360.994h18.473v74.392h-18.473z"></path></defs><clipPath id="av"><use xlink:href="#au"></use></clipPath><g clip-path="url(#av)"><defs><path id="aw" d="M1085.5 389h48v18.25h-48z"></path></defs><clipPath id="ay"><use xlink:href="#aw"></use></clipPath><pattern id="az" xlink:href="#ax" patternTransform="matrix(.2499 .0065 .0065 -.2499 148.736 443.799)"></pattern><path clip-path="url(#ay)" fill="url(#az)" d="M1075.394 387.982l74.366 1.948-.484 18.466-74.366-1.947z"></path></g></g></g></g><g clip-path="url(#R)"><defs><path id="aA" d="M1291.489 219.499c-1.021.88-.922 2.362.22 3.313 1.142.951 2.893 1.008 3.913.127 1.02-.879.921-2.363-.22-3.313a3.324 3.324 0 00-2.109-.751c-.67.001-1.32.207-1.804.624"></path></defs><clipPath id="aB"><use xlink:href="#aA"></use></clipPath><g clip-path="url(#aB)"><defs><path id="aC" d="M1290.25 218.75h6.5V224h-6.5z"></path></defs><clipPath id="aD"><use xlink:href="#aC"></use></clipPath><path transform="rotate(91.501 1293.508 221.217)" clip-path="url(#aD)" fill="#040506" d="M1290.983 218.113h5.142v6.214h-5.142z"></path><path clip-path="url(#aD)" fill="#040506" d="M1294.585 221.632c-.649.561-1.729.555-2.409-.012-.682-.566-.707-1.481-.058-2.041.649-.561 1.729-.556 2.409.011.682.568.707 1.481.058 2.042"></path><path clip-path="url(#aD)" fill="#040506" d="M1294.579 221.627c-.646.558-1.72.553-2.397-.012s-.702-1.473-.057-2.031c.646-.558 1.72-.553 2.397.012.677.564.705 1.473.057 2.031"></path><path clip-path="url(#aD)" fill="#060708" d="M1294.573 221.622c-.643.555-1.71.55-2.385-.012-.675-.562-.7-1.466-.057-2.021.643-.554 1.71-.549 2.385.012.674.561.701 1.466.057 2.021"></path><path clip-path="url(#aD)" fill="#060708" d="M1294.566 221.617c-.639.552-1.702.546-2.372-.012-.672-.558-.697-1.458-.057-2.009.64-.553 1.701-.548 2.373.011.671.558.697 1.458.056 2.01"></path><path clip-path="url(#aD)" fill="#080909" d="M1294.561 221.612c-.637.548-1.693.543-2.361-.012-.667-.556-.692-1.451-.056-2 .636-.55 1.693-.544 2.36.012.668.555.693 1.451.057 2"></path><path clip-path="url(#aD)" fill="#080909" d="M1294.555 221.606c-.633.547-1.685.541-2.349-.012-.664-.553-.688-1.443-.056-1.99.633-.546 1.685-.541 2.349.012s.689 1.444.056 1.99"></path><path clip-path="url(#aD)" fill="#080909" d="M1294.549 221.601c-.63.543-1.677.539-2.337-.011-.661-.551-.686-1.437-.056-1.98.631-.544 1.676-.539 2.337.011.661.551.686 1.437.056 1.98"></path><path clip-path="url(#aD)" fill="#090B0B" d="M1294.543 221.596c-.627.541-1.668.536-2.325-.012-.657-.546-.683-1.428-.056-1.969.627-.541 1.668-.536 2.325.011.658.548.682 1.43.056 1.97"></path><path clip-path="url(#aD)" fill="#090B0B" d="M1294.536 221.591c-.623.538-1.659.533-2.313-.012-.652-.543-.678-1.42-.055-1.959.624-.538 1.659-.533 2.313.012.655.544.678 1.422.055 1.959"></path><path clip-path="url(#aD)" fill="#0B0C0D" d="M1294.53 221.586c-.62.535-1.65.53-2.301-.011-.65-.542-.675-1.414-.055-1.949.62-.534 1.649-.529 2.301.011.65.542.675 1.415.055 1.949"></path><path clip-path="url(#aD)" fill="#0B0C0D" d="M1294.524 221.581c-.617.532-1.643.527-2.289-.011-.646-.539-.671-1.406-.054-1.939.617-.532 1.641-.527 2.288.011.647.539.673 1.406.055 1.939"></path><path clip-path="url(#aD)" fill="#0B0D0D" d="M1294.519 221.575c-.614.53-1.634.524-2.276-.011-.645-.536-.669-1.399-.055-1.929.613-.529 1.633-.524 2.276.012s.668 1.398.055 1.928"></path><path clip-path="url(#aD)" fill="#0C0D0E" d="M1294.512 221.57c-.61.527-1.624.522-2.265-.011-.64-.533-.664-1.392-.054-1.918s1.624-.522 2.265.011c.64.533.663 1.391.054 1.918"></path><path clip-path="url(#aD)" fill="#0C0D0E" d="M1294.505 221.565c-.607.523-1.615.519-2.253-.011-.637-.53-.66-1.385-.054-1.909.607-.524 1.615-.519 2.253.011.636.531.66 1.386.054 1.909"></path><path clip-path="url(#aD)" fill="#0C0D0E" d="M1294.498 221.561c-.603.521-1.606.516-2.24-.011-.633-.527-.656-1.376-.053-1.897.604-.521 1.606-.517 2.241.011.633.526.657 1.376.052 1.897"></path><path clip-path="url(#aD)" fill="#0D0E0F" d="M1294.492 221.555c-.601.518-1.598.513-2.228-.011-.631-.524-.653-1.37-.053-1.887.6-.518 1.598-.513 2.228.011.63.524.654 1.369.053 1.887"></path><path clip-path="url(#aD)" fill="#0D0E0F" d="M1294.485 221.549c-.597.515-1.589.511-2.215-.011s-.65-1.362-.053-1.877c.598-.515 1.589-.51 2.215.011.629.522.651 1.362.053 1.877"></path><path clip-path="url(#aD)" fill="#0E0E10" d="M1294.479 221.544c-.594.513-1.58.508-2.203-.011-.623-.519-.647-1.354-.053-1.867.594-.513 1.58-.508 2.203.011.625.52.648 1.355.053 1.867"></path><path clip-path="url(#aD)" fill="#0E0E10" d="M1294.474 221.54c-.59.51-1.572.505-2.191-.011-.619-.516-.643-1.347-.052-1.856.591-.509 1.571-.505 2.191.011.619.515.643 1.346.052 1.856"></path><path clip-path="url(#aD)" fill="#0E0F10" d="M1294.468 221.535c-.587.507-1.563.501-2.18-.011s-.639-1.339-.052-1.846c.588-.507 1.563-.502 2.18.011.616.512.64 1.338.052 1.846"></path><path clip-path="url(#aD)" fill="#0F0F11" d="M1294.461 221.529c-.584.504-1.555.499-2.166-.011-.613-.51-.637-1.332-.053-1.836.585-.504 1.555-.499 2.167.011.613.511.636 1.332.052 1.836"></path><path clip-path="url(#aD)" fill="#101011" d="M1294.455 221.523c-.581.501-1.545.497-2.156-.011-.607-.507-.631-1.324-.05-1.826.581-.501 1.545-.496 2.154.011s.634 1.325.052 1.826"></path><path clip-path="url(#aD)" fill="#101013" d="M1294.449 221.519c-.578.499-1.537.494-2.143-.01-.606-.505-.629-1.318-.052-1.816.577-.499 1.537-.494 2.144.01.606.505.628 1.318.051 1.816"></path><path clip-path="url(#aD)" fill="#101013" d="M1294.443 221.514c-.574.496-1.528.491-2.131-.011-.603-.501-.625-1.309-.051-1.805s1.528-.491 2.131.011c.603.501.626 1.309.051 1.805"></path><path clip-path="url(#aD)" fill="#101013" d="M1294.438 221.509c-.571.493-1.52.488-2.119-.011-.6-.498-.621-1.302-.051-1.794.571-.493 1.52-.488 2.119.01.599.499.622 1.302.051 1.795"></path><path clip-path="url(#aD)" fill="#111114" d="M1294.431 221.503c-.568.49-1.511.486-2.107-.01-.595-.496-.618-1.295-.05-1.785s1.512-.485 2.106.01c.597.496.619 1.295.051 1.785"></path><path clip-path="url(#aD)" fill="#111114" d="M1294.425 221.498c-.565.487-1.503.481-2.095-.01-.593-.493-.615-1.288-.051-1.775.564-.487 1.503-.482 2.096.011.592.493.614 1.287.05 1.774"></path><path clip-path="url(#aD)" fill="#131116" d="M1294.419 221.493c-.562.484-1.494.48-2.083-.01s-.61-1.28-.049-1.764c.562-.485 1.494-.48 2.082.01.589.49.611 1.28.05 1.764"></path><path clip-path="url(#aD)" fill="#121215" d="M1294.413 221.488c-.559.481-1.486.477-2.07-.01-.586-.487-.607-1.273-.05-1.754.559-.481 1.484-.477 2.07.01.585.488.608 1.273.05 1.754"></path><path clip-path="url(#aD)" fill="#121215" d="M1294.406 221.483c-.555.479-1.477.474-2.059-.01-.582-.484-.604-1.265-.049-1.744.555-.478 1.477-.474 2.059.011.581.484.604 1.264.049 1.743"></path><path clip-path="url(#aD)" fill="#111217" d="M1294.4 221.478c-.552.476-1.469.471-2.047-.01-.578-.481-.601-1.257-.049-1.733.552-.476 1.468-.471 2.047.01.579.481.6 1.257.049 1.733"></path><path clip-path="url(#aD)" fill="#131316" d="M1294.395 221.472c-.549.473-1.459.468-2.035-.01-.574-.479-.596-1.25-.048-1.724.549-.473 1.459-.468 2.034.01.575.48.596 1.251.049 1.724"></path><path clip-path="url(#aD)" fill="#121318" d="M1294.387 221.467c-.545.47-1.449.466-2.022-.01-.571-.476-.592-1.242-.048-1.713.545-.47 1.45-.465 2.022.011.572.474.593 1.242.048 1.712"></path><path clip-path="url(#aD)" fill="#121318" d="M1294.381 221.462c-.542.467-1.441.463-2.01-.01s-.591-1.235-.048-1.703c.542-.467 1.44-.463 2.01.01.568.473.589 1.236.048 1.703"></path><path clip-path="url(#aD)" fill="#141518" d="M1294.374 221.457c-.538.464-1.433.46-1.997-.01-.566-.47-.587-1.228-.048-1.693.538-.464 1.433-.46 1.997.01.565.47.587 1.228.048 1.693"></path><path clip-path="url(#aD)" fill="#14151A" d="M1294.368 221.452c-.534.462-1.424.457-1.985-.01-.562-.467-.582-1.221-.047-1.682.536-.462 1.424-.458 1.986.01.561.467.582 1.22.046 1.682"></path><path clip-path="url(#aD)" fill="#14151A" d="M1294.362 221.446c-.532.459-1.415.455-1.974-.01-.558-.464-.578-1.212-.047-1.671.532-.459 1.416-.455 1.975.01.557.463.58 1.212.046 1.671"></path><path clip-path="url(#aD)" fill="#15151D" d="M1294.356 221.441c-.528.456-1.407.451-1.962-.01s-.575-1.206-.047-1.662c.529-.456 1.408-.451 1.963.01.554.461.576 1.206.046 1.662"></path><path clip-path="url(#aD)" fill="#16171D" d="M1294.35 221.436c-.525.454-1.398.449-1.949-.01-.551-.458-.572-1.198-.047-1.651.526-.453 1.398-.449 1.95.009.55.459.571 1.199.046 1.652"></path><path clip-path="url(#aD)" fill="#16171D" d="M1294.344 221.431c-.522.45-1.39.446-1.938-.01s-.568-1.191-.046-1.641 1.39-.446 1.937.01c.549.457.568 1.191.047 1.641"></path><path clip-path="url(#aD)" fill="#181A1F" d="M1294.338 221.426c-.519.447-1.381.443-1.925-.01s-.564-1.183-.046-1.631c.519-.447 1.381-.443 1.925.01.545.454.564 1.184.046 1.631"></path><path clip-path="url(#aD)" fill="#181A1F" d="M1294.332 221.421c-.516.444-1.373.44-1.913-.01-.541-.449-.562-1.175-.046-1.62s1.373-.44 1.913.009c.541.45.562 1.176.046 1.621"></path><path clip-path="url(#aD)" fill="#181A1F" d="M1294.325 221.415c-.513.442-1.363.438-1.901-.009-.537-.447-.558-1.169-.045-1.611.513-.441 1.363-.437 1.901.01.537.447.558 1.168.045 1.61"></path><path clip-path="url(#aD)" fill="#191921" d="M1294.319 221.41c-.51.439-1.355.436-1.89-.01-.533-.444-.554-1.16-.045-1.6.509-.438 1.355-.435 1.89.01s.554 1.161.045 1.6"></path><path clip-path="url(#aD)" fill="#1A1C21" d="M1294.313 221.405c-.506.437-1.346.433-1.877-.009-.53-.442-.55-1.154-.044-1.59s1.346-.432 1.876.009c.531.442.551 1.154.045 1.59"></path><path clip-path="url(#aD)" fill="#1A1C23" d="M1294.308 221.4c-.503.434-1.338.429-1.864-.009-.528-.439-.548-1.146-.045-1.58.503-.434 1.338-.43 1.864.009s.548 1.147.045 1.58"></path><path clip-path="url(#aD)" fill="#1C1C23" d="M1294.301 221.396c-.499.43-1.329.426-1.854-.009-.523-.437-.543-1.139-.043-1.569.5-.432 1.328-.428 1.853.009.523.434.544 1.137.044 1.569"></path><path clip-path="url(#aD)" fill="#1C1D24" d="M1294.295 221.39c-.496.428-1.32.424-1.841-.009-.521-.433-.54-1.131-.044-1.559.496-.428 1.32-.424 1.841.009.52.432.54 1.13.044 1.559"></path><path clip-path="url(#aD)" fill="#1C1D25" d="M1294.289 221.384c-.493.425-1.312.421-1.828-.009s-.537-1.124-.044-1.548c.493-.426 1.312-.421 1.829.009.517.431.535 1.123.043 1.548"></path><path clip-path="url(#aD)" fill="#1C1D25" d="M1294.283 221.379c-.49.422-1.304.418-1.816-.009-.514-.427-.533-1.116-.044-1.539.49-.422 1.304-.418 1.817.009.513.429.532 1.117.043 1.539"></path><path clip-path="url(#aD)" fill="#1D1E27" d="M1294.275 221.375c-.486.419-1.295.416-1.805-.009s-.529-1.108-.043-1.529c.486-.419 1.295-.416 1.805.009s.53 1.109.043 1.529"></path><path clip-path="url(#aD)" fill="#1D1E27" d="M1294.27 221.37c-.483.417-1.285.413-1.793-.009-.507-.421-.525-1.101-.042-1.518.482-.417 1.285-.413 1.792.009.506.421.525 1.101.043 1.518"></path><path clip-path="url(#aD)" fill="#1D1E27" d="M1294.263 221.363c-.479.415-1.276.411-1.779-.009-.503-.418-.522-1.093-.042-1.508.479-.413 1.276-.409 1.779.009.504.419.522 1.095.042 1.508"></path><path clip-path="url(#aD)" fill="#1F1E2A" d="M1294.257 221.358c-.477.412-1.268.408-1.768-.009-.499-.416-.519-1.086-.042-1.498.477-.411 1.269-.407 1.769.009.499.417.518 1.087.041 1.498"></path><path clip-path="url(#aD)" fill="#1F2028" d="M1294.251 221.354c-.474.409-1.259.405-1.756-.009-.496-.413-.515-1.078-.042-1.487.474-.409 1.26-.405 1.756.009.496.412.516 1.078.042 1.487"></path><path clip-path="url(#aD)" fill="#1E202B" d="M1294.244 221.349c-.47.405-1.25.401-1.743-.009-.493-.41-.512-1.071-.042-1.477.471-.405 1.251-.401 1.743.009.493.41.513 1.071.042 1.477"></path><path clip-path="url(#aD)" fill="#21202B" d="M1294.238 221.344c-.467.402-1.242.398-1.731-.009-.489-.408-.508-1.063-.042-1.466.468-.402 1.243-.399 1.731.008.491.407.509 1.064.042 1.467"></path><path clip-path="url(#aD)" fill="#21222B" d="M1294.232 221.338c-.463.399-1.233.396-1.72-.008-.485-.405-.505-1.058-.04-1.458.463-.399 1.233-.396 1.719.009.487.405.505 1.057.041 1.457"></path><path clip-path="url(#aD)" fill="#21222D" d="M1294.227 221.333c-.46.397-1.225.394-1.707-.008-.483-.402-.502-1.049-.041-1.447.46-.396 1.226-.393 1.707.009.483.401.501 1.049.041 1.446"></path><path clip-path="url(#aD)" fill="#21222D" d="M1294.22 221.328c-.457.395-1.216.391-1.695-.008-.479-.399-.497-1.042-.04-1.436.457-.395 1.216-.391 1.695.008.479.399.497 1.041.04 1.436"></path><path clip-path="url(#aD)" fill="#23252F" d="M1294.214 221.323c-.454.392-1.207.388-1.683-.008-.477-.396-.494-1.035-.041-1.426.454-.392 1.208-.388 1.683.009.476.395.495 1.033.041 1.425"></path><path clip-path="url(#aD)" fill="#23252F" d="M1294.208 221.318c-.45.389-1.198.385-1.671-.008-.473-.394-.49-1.027-.04-1.416s1.199-.385 1.671.008c.473.394.49 1.027.04 1.416"></path><path clip-path="url(#aD)" fill="#25252F" d="M1294.202 221.312c-.447.385-1.19.382-1.659-.007-.469-.391-.486-1.02-.039-1.405s1.19-.382 1.658.008c.469.39.487 1.019.04 1.404"></path><path clip-path="url(#aD)" fill="#252631" d="M1294.195 221.307c-.444.383-1.181.38-1.646-.008s-.483-1.012-.039-1.396c.444-.382 1.181-.378 1.646.009.465.387.484 1.012.039 1.395"></path><path clip-path="url(#aD)" fill="#252631" d="M1294.189 221.302c-.44.38-1.173.377-1.635-.008s-.479-1.005-.039-1.384c.441-.381 1.173-.377 1.635.008s.479 1.004.039 1.384"></path><path clip-path="url(#aD)" fill="#252631" d="M1294.184 221.297c-.438.378-1.164.374-1.622-.008-.46-.382-.477-.997-.039-1.375.438-.376 1.164-.374 1.623.008.458.382.475.997.038 1.375"></path><path clip-path="url(#aD)" fill="#272734" d="M1294.178 221.292c-.435.375-1.155.371-1.61-.008-.455-.379-.474-.99-.039-1.364.435-.375 1.156-.372 1.61.007.455.38.472.99.039 1.365"></path><path clip-path="url(#aD)" fill="#282933" d="M1294.172 221.286c-.432.373-1.147.37-1.599-.007-.452-.376-.47-.982-.038-1.354.431-.372 1.146-.368 1.599.008.451.376.468.982.038 1.353"></path><path clip-path="url(#aD)" fill="#2A2A36" d="M1294.163 221.281c-.427.369-1.137.365-1.586-.008-.448-.373-.465-.976-.038-1.344.429-.369 1.139-.365 1.587.008.448.373.465.975.037 1.344"></path><path clip-path="url(#aD)" fill="#292C37" d="M1294.157 221.276c-.424.365-1.129.362-1.574-.008-.445-.37-.462-.967-.036-1.333.423-.367 1.128-.363 1.573.007.445.371.462.968.037 1.334"></path><path clip-path="url(#aD)" fill="#292C37" d="M1294.151 221.271c-.421.363-1.121.36-1.563-.008-.44-.368-.458-.96-.036-1.323.421-.364 1.12-.36 1.563.008.442.367.458.959.036 1.323"></path><path clip-path="url(#aD)" fill="#2A2B37" d="M1294.146 221.266c-.417.361-1.112.357-1.55-.008s-.455-.952-.036-1.313c.417-.36 1.111-.357 1.55.008.437.365.453.952.036 1.313"></path><path clip-path="url(#aD)" fill="#2B2C39" d="M1294.139 221.26c-.414.359-1.104.355-1.537-.007-.435-.362-.451-.944-.037-1.302.415-.357 1.104-.354 1.538.007.433.363.451.945.036 1.302"></path><path clip-path="url(#aD)" fill="#2C2E3B" d="M1294.133 221.256c-.411.355-1.094.352-1.525-.008-.432-.358-.448-.937-.037-1.292.412-.354 1.095-.352 1.527.008.429.359.447.937.035 1.292"></path><path clip-path="url(#aD)" fill="#2C2E3B" d="M1294.127 221.25c-.408.352-1.086.349-1.514-.008-.428-.355-.444-.929-.037-1.282.41-.352 1.088-.348 1.516.008.427.356.443.93.035 1.282"></path><path clip-path="url(#aD)" fill="#2E2E3B" d="M1294.121 221.245c-.404.349-1.077.346-1.502-.007-.424-.354-.44-.923-.035-1.272s1.077-.346 1.502.007c.424.354.439.923.035 1.272"></path><path clip-path="url(#aD)" fill="#2E303D" d="M1294.114 221.24c-.401.346-1.068.343-1.489-.008-.421-.35-.438-.915-.035-1.261.401-.346 1.068-.343 1.489.008.421.35.437.916.035 1.261"></path><path clip-path="url(#aD)" fill="#2E303D" d="M1294.108 221.235c-.398.343-1.06.34-1.478-.008-.418-.347-.433-.907-.035-1.251.398-.343 1.06-.34 1.477.008.419.348.435.908.036 1.251"></path><path clip-path="url(#aD)" fill="#30303F" d="M1294.103 221.229c-.395.341-1.051.338-1.465-.007-.415-.345-.43-.9-.035-1.242.396-.341 1.052-.337 1.465.007.414.346.43.902.035 1.242"></path><path clip-path="url(#aD)" fill="#30323F" d="M1294.097 221.225c-.392.338-1.043.334-1.453-.007-.411-.342-.427-.894-.035-1.231.392-.338 1.043-.334 1.454.008.411.34.425.892.034 1.23"></path><path clip-path="url(#aD)" fill="#30323F" d="M1294.09 221.22c-.389.335-1.034.332-1.44-.007-.407-.339-.423-.885-.034-1.22.388-.335 1.033-.332 1.44.007s.423.885.034 1.22"></path><path clip-path="url(#aD)" fill="#303242" d="M1294.084 221.214c-.386.332-1.025.329-1.43-.007-.403-.336-.418-.878-.033-1.21s1.024-.329 1.429.007c.403.337.42.879.034 1.21"></path><path clip-path="url(#aD)" fill="#323242" d="M1294.078 221.209c-.382.329-1.018.326-1.418-.007-.4-.334-.415-.871-.032-1.2.38-.33 1.016-.327 1.416.006.4.335.415.871.034 1.201"></path><path clip-path="url(#aD)" fill="#313444" d="M1294.072 221.205c-.379.327-1.008.323-1.404-.007-.397-.331-.413-.863-.034-1.19s1.008-.324 1.404.007c.398.33.412.862.034 1.19"></path><path clip-path="url(#aD)" fill="#313444" d="M1294.066 221.199c-.376.324-.999.321-1.393-.007-.394-.327-.409-.855-.033-1.18.375-.324.998-.32 1.393.007.393.328.408.856.033 1.18"></path><path clip-path="url(#aD)" fill="#343343" d="M1294.059 221.193c-.371.321-.989.318-1.38-.007-.39-.325-.405-.849-.033-1.169.373-.322.99-.318 1.381.006.39.326.405.85.032 1.17"></path><path clip-path="url(#aD)" fill="#333545" d="M1294.053 221.188c-.368.318-.981.315-1.368-.007s-.401-.841-.032-1.159c.368-.318.981-.315 1.368.007s.401.842.032 1.159"></path><path clip-path="url(#aD)" fill="#333545" d="M1294.047 221.184c-.367.315-.974.312-1.356-.007-.384-.319-.398-.833-.033-1.148.365-.316.973-.313 1.356.006s.398.834.033 1.149"></path><path clip-path="url(#aD)" fill="#353548" d="M1294.04 221.178c-.362.313-.964.31-1.344-.007-.38-.316-.395-.826-.032-1.138s.964-.31 1.345.007c.38.316.394.826.031 1.138"></path><path clip-path="url(#aD)" fill="#363848" d="M1294.033 221.173c-.358.31-.955.307-1.332-.007-.376-.313-.391-.818-.031-1.128.359-.309.955-.306 1.332.007.376.313.391.818.031 1.128"></path><path clip-path="url(#aD)" fill="#363848" d="M1294.027 221.168c-.355.307-.947.304-1.32-.007s-.387-.812-.031-1.117c.357-.308.947-.305 1.32.006.373.311.387.811.031 1.118"></path><path clip-path="url(#aD)" fill="#37384B" d="M1294.021 221.163c-.353.304-.938.301-1.308-.006-.369-.308-.383-.804-.031-1.108.353-.304.938-.301 1.309.007.369.307.384.802.03 1.107"></path><path clip-path="url(#aD)" fill="#383A4B" d="M1294.016 221.158c-.351.301-.93.298-1.296-.007-.367-.304-.381-.796-.032-1.097.35-.301.93-.298 1.297.007.365.304.378.795.031 1.097"></path><path clip-path="url(#aD)" fill="#383A4B" d="M1294.01 221.153c-.346.298-.92.296-1.285-.007-.362-.301-.376-.788-.029-1.086.346-.299.92-.296 1.283.006.363.302.375.788.031 1.087"></path><path clip-path="url(#aD)" fill="#383A4C" d="M1294.003 221.147c-.343.296-.912.293-1.271-.006-.359-.299-.372-.781-.03-1.078.344-.295.912-.292 1.271.007.359.3.373.782.03 1.077"></path><path clip-path="url(#aD)" fill="#3A3A4C" d="M1293.997 221.142c-.339.293-.903.29-1.259-.006-.356-.296-.37-.774-.03-1.067.339-.292.903-.289 1.259.007.356.296.37.773.03 1.066"></path><path clip-path="url(#aD)" fill="#3B3C50" d="M1293.991 221.137c-.336.291-.895.288-1.247-.006-.353-.293-.366-.766-.03-1.057.337-.29.895-.287 1.247.006.353.294.366.767.03 1.057"></path><path clip-path="url(#aD)" fill="#3C3C4F" d="M1293.985 221.132c-.333.287-.886.284-1.235-.006s-.362-.759-.029-1.046c.333-.288.886-.285 1.234.006.35.29.363.759.03 1.046"></path><path clip-path="url(#aD)" fill="#3C3E4F" d="M1293.979 221.127c-.33.284-.878.281-1.223-.006-.346-.288-.359-.751-.03-1.036.33-.284.878-.282 1.224.006.345.288.359.752.029 1.036"></path><path clip-path="url(#aD)" fill="#3D3E51" d="M1293.973 221.121c-.326.281-.869.279-1.212-.006-.342-.285-.354-.745-.028-1.026s.869-.279 1.211.006c.341.286.355.745.029 1.026"></path><path clip-path="url(#aD)" fill="#3D3E54" d="M1293.967 221.116c-.323.279-.861.276-1.2-.006s-.352-.737-.028-1.016c.324-.278.859-.275 1.2.006.336.283.349.738.028 1.016"></path><path clip-path="url(#aD)" fill="#3F3E54" d="M1293.961 221.111c-.32.276-.852.273-1.188-.006s-.348-.73-.028-1.005c.32-.276.852-.273 1.186.006.337.279.349.729.03 1.005"></path><path clip-path="url(#aD)" fill="#404154" d="M1293.953 221.106c-.316.273-.842.27-1.174-.006s-.345-.721-.028-.995c.317-.273.843-.271 1.175.006s.344.722.027.995"></path><path clip-path="url(#aD)" fill="#414156" d="M1293.947 221.101c-.313.271-.834.268-1.161-.006-.329-.273-.343-.714-.029-.985s.835-.268 1.163.006c.329.274.341.715.027.985"></path><path clip-path="url(#aD)" fill="#414156" d="M1293.941 221.096c-.31.267-.824.265-1.149-.006-.325-.271-.338-.707-.028-.974.311-.268.825-.266 1.15.006.326.271.338.707.027.974"></path><path clip-path="url(#aD)" fill="#41445A" d="M1293.935 221.09c-.307.264-.816.262-1.138-.006-.323-.267-.334-.698-.029-.964.309-.264.818-.261 1.14.006.321.269.333.7.027.964"></path><path clip-path="url(#aD)" fill="#41445A" d="M1293.928 221.085c-.303.261-.807.259-1.126-.006-.317-.264-.33-.691-.026-.954.304-.261.808-.258 1.127.006.318.265.328.692.025.954"></path><path clip-path="url(#aD)" fill="#444459" d="M1293.922 221.08c-.3.259-.799.257-1.114-.006-.313-.261-.325-.684-.026-.943.301-.259.8-.256 1.114.006.314.261.327.684.026.943"></path><path clip-path="url(#aD)" fill="#44465C" d="M1293.916 221.075c-.297.257-.79.254-1.102-.006-.312-.258-.323-.677-.026-.932.296-.256.79-.254 1.102.005s.323.677.026.933"></path><path clip-path="url(#aD)" fill="#46465B" d="M1293.91 221.07c-.294.253-.782.25-1.089-.005-.309-.257-.32-.67-.027-.923.294-.253.782-.251 1.091.005.307.256.318.67.025.923"></path><path clip-path="url(#aD)" fill="#46465F" d="M1293.904 221.065c-.291.25-.773.249-1.079-.005-.305-.254-.315-.663-.025-.914s.773-.249 1.079.005c.304.255.315.664.025.914"></path><path clip-path="url(#aD)" fill="#46495E" d="M1293.897 221.06c-.287.247-.765.245-1.065-.005-.301-.251-.313-.655-.025-.903.288-.249.765-.246 1.066.005.3.25.312.655.024.903"></path><path clip-path="url(#aD)" fill="#46495E" d="M1293.892 221.055c-.284.244-.755.242-1.054-.005-.298-.249-.309-.648-.024-.893.284-.246.755-.243 1.052.005.298.247.31.647.026.893"></path><path clip-path="url(#aD)" fill="#484960" d="M1293.886 221.05c-.281.242-.747.239-1.042-.005-.295-.246-.306-.64-.025-.882.281-.242.747-.24 1.042.005.294.245.305.639.025.882"></path><path clip-path="url(#aD)" fill="#484960" d="M1293.88 221.044c-.277.24-.738.237-1.03-.005-.291-.243-.301-.632-.024-.872.278-.239.738-.237 1.029.005.291.244.302.633.025.872"></path><path clip-path="url(#aD)" fill="#494B61" d="M1293.873 221.04c-.274.237-.729.235-1.017-.005-.288-.24-.299-.625-.025-.862.274-.236.73-.234 1.018.005.288.239.298.625.024.862"></path><path clip-path="url(#aD)" fill="#484A63" d="M1293.867 221.034c-.271.233-.721.231-1.005-.005-.284-.237-.296-.618-.025-.852.271-.233.722-.231 1.006.005.284.236.296.618.024.852"></path><path clip-path="url(#aD)" fill="#4A4B63" d="M1293.861 221.029c-.268.23-.713.229-.993-.005-.28-.233-.291-.61-.024-.841.269-.231.713-.229.993.005.281.233.292.61.024.841"></path><path clip-path="url(#aD)" fill="#4B4D65" d="M1293.854 221.023c-.264.228-.703.226-.98-.005s-.287-.602-.023-.831c.265-.228.703-.226.98.005s.287.603.023.831"></path><path clip-path="url(#aD)" fill="#4D4D65" d="M1293.849 221.019c-.262.226-.695.224-.969-.005-.274-.228-.284-.595-.023-.82.261-.226.694-.224.969.004.273.228.283.595.023.821"></path><path clip-path="url(#aD)" fill="#4D4D65" d="M1293.842 221.014c-.257.223-.686.221-.956-.005-.271-.225-.281-.587-.023-.81.259-.223.687-.221.957.005.27.224.28.587.022.81"></path><path clip-path="url(#aD)" fill="#4C5068" d="M1293.835 221.008c-.254.22-.677.218-.944-.005-.267-.222-.277-.581-.022-.799.256-.22.678-.217.945.004.266.222.276.58.021.8"></path><path clip-path="url(#aD)" fill="#4C5068" d="M1293.83 221.003c-.251.217-.669.215-.932-.005-.265-.219-.273-.573-.023-.79.253-.216.669-.214.934.004.263.22.273.574.021.791"></path><path clip-path="url(#aD)" fill="#4F506C" d="M1293.823 220.998c-.248.213-.659.211-.92-.005-.261-.215-.271-.565-.022-.779.249-.214.66-.212.921.005.259.216.27.565.021.779"></path><path clip-path="url(#aD)" fill="#4F506C" d="M1293.817 220.993c-.244.212-.65.21-.908-.004-.257-.213-.267-.559-.021-.769.244-.212.65-.21.907.004s.268.558.022.769"></path><path clip-path="url(#aD)" fill="#4F526B" d="M1293.812 220.988c-.241.209-.643.207-.896-.004s-.263-.551-.021-.759c.241-.209.642-.207.896.004.252.21.262.55.021.759"></path><path clip-path="url(#aD)" fill="#51526E" d="M1293.804 220.982c-.238.206-.634.204-.884-.004-.25-.209-.259-.543-.021-.75.239-.205.635-.203.885.005.248.208.259.543.02.749"></path><path clip-path="url(#aD)" fill="#52546D" d="M1293.799 220.977c-.235.203-.625.201-.873-.004-.245-.206-.255-.536-.02-.739.234-.203.625-.201.872.004.246.206.255.536.021.739"></path><path clip-path="url(#aD)" fill="#515471" d="M1293.792 220.972c-.231.2-.616.198-.859-.004-.243-.203-.253-.528-.021-.729.231-.2.616-.197.859.004.244.203.252.529.021.729"></path><path clip-path="url(#aD)" fill="#54546F" d="M1293.786 220.967c-.229.197-.608.195-.848-.004-.239-.2-.249-.521-.021-.718.229-.197.607-.195.849.005.24.198.249.521.02.717"></path><path clip-path="url(#aD)" fill="#54546F" d="M1293.779 220.962a.666.666 0 01-.835-.004c-.236-.197-.245-.513-.02-.708.225-.195.599-.193.835.004s.246.514.02.708"></path><path clip-path="url(#aD)" fill="#545773" d="M1293.773 220.956a.66.66 0 01-.824-.004c-.232-.194-.241-.506-.02-.698a.66.66 0 01.824.004c.233.194.242.506.02.698"></path><path clip-path="url(#aD)" fill="#565773" d="M1293.768 220.951a.651.651 0 01-.812-.004c-.229-.191-.238-.499-.019-.687a.648.648 0 01.811.004c.229.191.238.498.02.687"></path><path clip-path="url(#aD)" fill="#565776" d="M1293.762 220.946a.64.64 0 01-.799-.004c-.228-.188-.235-.491-.02-.677a.64.64 0 01.799.004c.227.188.235.491.02.677"></path><path clip-path="url(#aD)" fill="#565976" d="M1293.755 220.941c-.212.183-.564.181-.788-.004-.221-.185-.23-.484-.019-.667a.63.63 0 01.787.004c.223.185.232.484.02.667"></path><path clip-path="url(#aD)" fill="#565976" d="M1293.749 220.936a.62.62 0 01-.775-.004c-.219-.182-.228-.476-.019-.656a.618.618 0 01.775.004c.219.182.227.476.019.656"></path><path clip-path="url(#aD)" fill="#585978" d="M1293.743 220.93a.61.61 0 01-.763-.004c-.216-.179-.225-.468-.018-.646.204-.177.546-.176.762.004s.224.469.019.646"></path><path clip-path="url(#aD)" fill="#585C77" d="M1293.736 220.925a.599.599 0 01-.75-.004c-.213-.177-.221-.461-.018-.636.202-.174.537-.173.75.004s.22.461.018.636"></path><path clip-path="url(#aD)" fill="#5A5C7B" d="M1293.73 220.92a.591.591 0 01-.739-.004c-.208-.174-.216-.454-.017-.625s.529-.17.738.004c.21.174.218.454.018.625"></path><path clip-path="url(#aD)" fill="#5A5C7B" d="M1293.725 220.915c-.196.169-.521.167-.727-.004s-.215-.446-.018-.615a.58.58 0 01.726.004c.206.171.214.446.019.615"></path><path clip-path="url(#aD)" fill="#5A5D7A" d="M1293.718 220.91a.573.573 0 01-.714-.003c-.202-.169-.21-.439-.018-.605a.572.572 0 01.715.003c.202.168.209.439.017.605"></path><path clip-path="url(#aD)" fill="#5A5E7E" d="M1293.712 220.904a.56.56 0 01-.701-.003c-.199-.166-.207-.432-.018-.595s.503-.162.702.004c.2.165.206.431.017.594"></path><path clip-path="url(#aD)" fill="#5C5E7D" d="M1293.705 220.899a.552.552 0 01-.69-.004c-.194-.162-.202-.423-.017-.584a.552.552 0 01.69.004c.197.162.203.423.017.584"></path><path clip-path="url(#aD)" fill="#5C5E7D" d="M1293.698 220.895a.543.543 0 01-.678-.003c-.191-.16-.198-.417-.016-.575a.543.543 0 01.678.003c.192.16.199.416.016.575"></path><path clip-path="url(#aD)" fill="#5D617F" d="M1293.692 220.89a.534.534 0 01-.666-.003c-.188-.157-.195-.41-.016-.564a.534.534 0 01.666.003c.188.156.195.408.016.564"></path><path clip-path="url(#aD)" fill="#5D617F" d="M1293.687 220.885a.525.525 0 01-.654-.003c-.185-.154-.191-.402-.015-.554a.522.522 0 01.653.004c.185.152.191.4.016.553"></path><path clip-path="url(#aD)" fill="#5F6182" d="M1293.681 220.879a.514.514 0 01-.642-.003c-.182-.151-.188-.395-.016-.543a.516.516 0 01.643.003c.181.151.188.394.015.543"></path><path clip-path="url(#aD)" fill="#606383" d="M1293.674 220.874c-.17.146-.451.145-.629-.003s-.186-.387-.016-.534a.505.505 0 01.63.003c.178.148.185.388.015.534"></path><path clip-path="url(#aD)" fill="#636382" d="M1293.668 220.869a.496.496 0 01-.618-.003c-.174-.145-.181-.38-.015-.523a.492.492 0 01.617.003c.176.145.182.379.016.523"></path><path clip-path="url(#aD)" fill="#616385" d="M1293.662 220.864c-.163.141-.435.139-.605-.003s-.178-.372-.014-.513a.484.484 0 01.605.003c.171.142.177.372.014.513"></path><path clip-path="url(#aD)" fill="#626585" d="M1293.656 220.858a.473.473 0 01-.594-.003c-.168-.139-.174-.364-.014-.503a.478.478 0 01.594.003c.169.141.174.366.014.503"></path><path clip-path="url(#aD)" fill="#616589" d="M1293.649 220.854a.466.466 0 01-.582-.003c-.164-.137-.17-.356-.013-.492a.463.463 0 01.58.003c.166.136.173.357.015.492"></path><path clip-path="url(#aD)" fill="#646588" d="M1293.644 220.848a.456.456 0 01-.569-.003c-.162-.134-.168-.35-.014-.482a.454.454 0 01.568.003c.161.134.167.35.015.482"></path><path clip-path="url(#aD)" fill="#646588" d="M1293.638 220.843a.447.447 0 01-.557-.003c-.158-.131-.163-.342-.013-.471a.445.445 0 01.556.002c.157.131.163.343.014.472"></path><path clip-path="url(#aD)" fill="#66688A" d="M1293.631 220.838a.435.435 0 01-.544-.003c-.154-.128-.16-.335-.013-.461a.435.435 0 01.544.003c.154.128.16.334.013.461"></path><path clip-path="url(#aD)" fill="#66688A" d="M1293.625 220.833a.426.426 0 01-.532-.003c-.151-.125-.157-.327-.013-.451a.424.424 0 01.532.003c.151.125.157.326.013.451"></path><path clip-path="url(#aD)" fill="#676A8E" d="M1293.619 220.828a.417.417 0 01-.521-.003c-.146-.123-.152-.319-.012-.44a.415.415 0 01.521.002c.147.122.152.32.012.441"></path><path clip-path="url(#aD)" fill="#676A8E" d="M1293.612 220.822a.406.406 0 01-.509-.002c-.144-.12-.148-.313-.012-.431s.365-.117.509.003c.144.119.15.312.012.43"></path><path clip-path="url(#aD)" fill="#696A8D" d="M1293.606 220.817a.396.396 0 01-.495-.003c-.141-.116-.146-.305-.013-.42s.356-.114.496.003c.142.116.147.305.012.42"></path><path clip-path="url(#aD)" fill="#686A91" d="M1293.601 220.812a.39.39 0 01-.485-.002c-.136-.114-.142-.298-.01-.411a.386.386 0 01.483.002c.138.115.141.299.012.411"></path><path clip-path="url(#aD)" fill="#6A6D91" d="M1293.594 220.807a.377.377 0 01-.472-.002c-.134-.111-.139-.291-.011-.401a.379.379 0 01.472.003c.133.111.138.291.011.4"></path><path clip-path="url(#aD)" fill="#6B6D94" d="M1293.588 220.802c-.124.107-.33.106-.46-.002s-.136-.283-.011-.391a.37.37 0 01.46.003c.13.109.135.283.011.39"></path><path clip-path="url(#aD)" fill="#6B6D94" d="M1293.581 220.796a.358.358 0 01-.448-.002c-.126-.105-.131-.275-.01-.379a.358.358 0 01.448.002c.126.104.131.274.01.379"></path><path clip-path="url(#aD)" fill="#6C7094" d="M1293.575 220.791a.349.349 0 01-.437-.002c-.123-.103-.127-.269-.01-.37a.346.346 0 01.436.003c.124.103.128.267.011.369"></path><path clip-path="url(#aD)" fill="#6F7097" d="M1293.568 220.786a.338.338 0 01-.424-.002c-.12-.101-.124-.261-.01-.359a.34.34 0 01.424.002c.121.1.125.261.01.359"></path><path clip-path="url(#aD)" fill="#6F7097" d="M1293.563 220.781a.33.33 0 01-.411-.002c-.118-.098-.122-.253-.011-.349a.332.332 0 01.412.002c.116.098.12.254.01.349"></path><path clip-path="url(#aD)" fill="#6E7397" d="M1293.557 220.776a.319.319 0 01-.399-.002c-.112-.095-.117-.246-.009-.339a.318.318 0 01.399.003c.112.094.117.246.009.338"></path><path clip-path="url(#aD)" fill="#71739A" d="M1293.551 220.771a.311.311 0 01-.388-.002c-.109-.092-.113-.238-.009-.328a.309.309 0 01.388.002c.109.091.113.238.009.328"></path><path clip-path="url(#aD)" fill="#71739A" d="M1293.544 220.765a.3.3 0 01-.375-.002c-.106-.088-.11-.23-.009-.318a.302.302 0 01.375.002c.106.089.11.231.009.318"></path><path clip-path="url(#aD)" fill="#71759C" d="M1293.538 220.76a.293.293 0 01-.364-.002c-.103-.085-.106-.223-.008-.307.098-.084.261-.084.363.001s.106.224.009.308"></path><path clip-path="url(#aD)" fill="#73759C" d="M1293.532 220.755a.283.283 0 01-.353-.002c-.098-.083-.102-.216-.008-.297a.281.281 0 01.352.002c.099.083.103.216.009.297"></path><path clip-path="url(#aD)" fill="#73759C" d="M1293.525 220.75a.268.268 0 01-.338-.002c-.096-.08-.1-.208-.009-.288a.273.273 0 01.339.002c.096.08.1.21.008.288"></path><path clip-path="url(#aD)" fill="#73769F" d="M1293.521 220.745a.26.26 0 01-.327-.002c-.093-.076-.097-.201-.008-.277a.263.263 0 01.326.002c.092.078.095.201.009.277"></path><path clip-path="url(#aD)" fill="#7678A0" d="M1293.514 220.74a.249.249 0 01-.314-.002c-.09-.073-.093-.192-.008-.266a.249.249 0 01.314.002c.089.074.092.193.008.266"></path><path clip-path="url(#aD)" fill="#7678A2" d="M1293.508 220.734a.242.242 0 01-.304-.002c-.085-.07-.089-.186-.007-.255a.24.24 0 01.302.001c.087.072.09.186.009.256"></path><path clip-path="url(#aD)" fill="#767BA2" d="M1293.501 220.729a.234.234 0 01-.29-.001c-.082-.068-.085-.179-.007-.247a.234.234 0 01.29.001c.083.07.086.18.007.247"></path><path clip-path="url(#aD)" fill="#767BA2" d="M1293.495 220.725a.225.225 0 01-.278-.001c-.079-.065-.081-.172-.007-.237a.224.224 0 01.278.002c.08.066.082.171.007.236"></path><path clip-path="url(#aD)" fill="#787BA5" d="M1293.488 220.72a.212.212 0 01-.266-.001c-.075-.063-.078-.164-.007-.226a.214.214 0 01.267.001c.077.063.079.164.006.226"></path><path clip-path="url(#aD)" fill="#787BA5" d="M1293.482 220.715a.203.203 0 01-.254-.001c-.072-.06-.075-.157-.006-.216a.202.202 0 01.254.001c.072.06.075.156.006.216"></path><path clip-path="url(#aD)" fill="#787DA8" d="M1293.476 220.708a.191.191 0 01-.241-.001c-.068-.058-.072-.149-.006-.206a.191.191 0 01.241.002c.068.058.071.149.006.205"></path><path clip-path="url(#aD)" fill="#7B7DA8" d="M1293.47 220.704a.184.184 0 01-.23-.001c-.064-.055-.066-.141-.005-.195a.18.18 0 01.229.001c.065.054.067.141.006.195"></path><path clip-path="url(#aD)" fill="#7B7DA8" d="M1293.463 220.699a.174.174 0 01-.218-.001c-.062-.052-.063-.134-.005-.185s.156-.05.218.001c.062.051.064.134.005.185"></path><path clip-path="url(#aD)" fill="#7A7EAB" d="M1293.457 220.694a.167.167 0 01-.206-.001c-.059-.049-.061-.127-.005-.175a.168.168 0 01.206.001c.058.048.061.127.005.175"></path><path clip-path="url(#aD)" fill="#7E80AA" d="M1293.451 220.688a.154.154 0 01-.193-.001c-.055-.045-.057-.119-.006-.164a.158.158 0 01.194.001c.055.046.057.12.005.164"></path><path clip-path="url(#aD)" fill="#7D80AE" d="M1293.445 220.683a.144.144 0 01-.181-.001c-.053-.042-.054-.111-.005-.154a.146.146 0 01.182.001c.051.042.053.111.004.154"></path><path clip-path="url(#aD)" fill="#7E82AD" d="M1293.439 220.678a.135.135 0 01-.17-.001c-.048-.04-.05-.104-.004-.143a.135.135 0 01.17 0c.048.04.049.104.004.144"></path><path clip-path="url(#aD)" fill="#7E82AD" d="M1293.433 220.673l-.158-.001-.004-.133.158.001z"></path><path clip-path="url(#aD)" fill="#7F82B0" d="M1293.427 220.667h-.146l-.004-.123h.147z"></path><path clip-path="url(#aD)" fill="#7F82B0" d="M1293.421 220.663l-.134-.001-.003-.113h.133z"></path><path clip-path="url(#aD)" fill="#8285B3" d="M1293.414 220.657l-.121-.001-.003-.102.121.001z"></path><path clip-path="url(#aD)" fill="#8285B3" d="M1293.298 220.56h.108v.092h-.108z"></path><path clip-path="url(#aD)" fill="#8285B3" d="M1293.304 220.565h.098v.082h-.098z"></path><path clip-path="url(#aD)" fill="#8187B5" d="M1293.311 220.569h.084v.072h-.084z"></path><path clip-path="url(#aD)" fill="#8487B5" d="M1293.316 220.575h.072v.062h-.072z"></path><path clip-path="url(#aD)" fill="#8487B5" d="M1293.322 220.58h.061v.051h-.061z"></path><path clip-path="url(#aD)" fill="#878AB8" d="M1293.329 220.584h.048v.042h-.048z"></path><path clip-path="url(#aD)" fill="#878AB8" d="M1293.334 220.59h.036v.031h-.036z"></path><path clip-path="url(#aD)" fill="#868ABC" d="M1293.34 220.595h.024v.021h-.024z"></path><path clip-path="url(#aD)" fill="#878DBB" d="M1293.347 220.6h.012v.01h-.012z"></path></g></g></g></g></g></svg>