<svg xmlns:xlink="http://www.w3.org/1999/xlink" xmlns="http://www.w3.org/2000/svg" width="128" height="166" viewBox="0 0 128 166" fill="none"><g clip-path="url(#clip0)"><path d="M11.0393 122.524L64.8735 149.918L116.663 122.524V15.4009H11.0393V122.524Z" fill="white"></path><path d="M117.754 15.8096L9.9491 124.432L65.8276 152.099L117.754 125.522V15.8096Z" fill="#F2F3F2"></path><path d="M7.49585 51.1087V124.841L9.4039 125.795L63.238 153.189L64.8735 154.007L66.509 153.189L118.435 125.795L120.343 124.841V11.8574H7.49585V51.1087ZM11.0394 122.797V15.4009H116.8V122.797L64.8735 150.191L11.0394 122.797Z" fill="#DCDEDC"></path><path d="M63.9196 17.1727C64.4647 17.1727 65.0099 17.1727 65.555 17.309L63.9196 20.4436C61.4664 20.3073 59.2857 22.2154 59.1494 24.6686C59.0132 27.1218 60.9212 29.3024 63.3744 29.4387H63.9196C65.0099 29.4387 66.1002 29.0298 66.9179 28.3484L68.6897 31.3467C67.3268 32.3008 65.6913 32.8459 63.9196 32.8459C59.5583 32.9822 55.8785 29.7113 55.7422 25.35C55.6059 20.9888 58.8769 17.309 63.2381 17.1727H63.9196ZM69.5074 23.8509L71.5518 27.2581L69.5074 30.529L67.5994 27.2581H63.647L65.6913 23.8509H69.5074ZM66.2365 22.6243C66.2365 22.0791 66.3728 21.5339 66.6453 21.1251C66.9179 20.7162 67.4631 20.3073 67.8719 20.0348L68.1445 19.8985C68.6897 19.6259 68.826 19.4896 68.826 19.217C68.826 18.9445 68.4171 18.6719 68.1445 18.6719C67.5994 18.6719 67.1905 18.9445 66.9179 19.4896L66.2365 18.8082C66.3728 18.5356 66.6453 18.263 66.9179 17.9904C67.3268 17.7178 67.7357 17.7178 68.1445 17.7178C68.5534 17.7178 69.0985 17.8541 69.3711 18.1267C69.6437 18.3993 69.9163 18.8082 69.9163 19.217C69.9163 19.8985 69.5074 20.4436 68.6897 20.7162L68.2808 20.9888C67.8719 21.2614 67.5994 21.3977 67.4631 21.8065H69.9163V22.7605L66.2365 22.6243ZM63.9196 39.6604L76.867 32.3008V11.8574H50.8358V32.1645L63.9196 39.6604Z" fill="#FF492C"></path><path d="M31.7553 66.9179V54.9244C31.7553 54.7881 31.8916 54.6519 32.0279 54.6519H35.1626C35.2988 54.6519 35.4351 54.7881 35.4351 54.9244V66.9179C35.4351 68.6896 36.6617 70.0525 38.5698 70.0525C40.4778 70.0525 41.7044 68.8259 41.7044 66.9179V54.9244C41.7044 54.7881 41.8407 54.6519 41.977 54.6519H45.1117C45.2479 54.6519 45.3842 54.7881 45.3842 54.9244V66.9179C45.3842 70.734 42.6585 73.1872 38.5698 73.1872C34.4811 73.1872 31.7553 70.5977 31.7553 66.9179ZM47.7011 69.2348V68.9622C47.7011 68.8259 47.8374 68.6896 47.9737 68.6896H50.8358C50.9721 68.6896 51.1084 68.8259 51.1084 68.9622C51.1084 69.7799 52.0624 70.3251 53.4253 70.3251C54.6519 70.3251 55.4696 69.7799 55.4696 69.0985C55.4696 68.0082 53.4253 68.0082 51.5172 67.3267C49.7455 66.7816 47.8374 65.8276 47.8374 63.5106C47.8374 60.9212 50.0181 59.2857 53.4253 59.2857C56.8325 59.2857 59.0131 61.0574 59.0131 63.5106C59.0131 63.6469 58.8768 63.7832 58.7406 63.7832H55.8785C55.7422 63.7832 55.6059 63.6469 55.6059 63.5106C55.6059 62.6929 54.7882 62.1478 53.4253 62.1478C52.335 62.1478 51.5172 62.5566 51.5172 63.3744C51.5172 64.4647 53.289 64.4647 55.3333 65.1461C57.3777 65.6913 59.422 66.6453 59.422 69.0985C59.422 71.688 57.1051 73.1872 53.6979 73.1872C50.0181 73.1872 47.7011 71.5517 47.7011 69.2348ZM73.4598 67.0542C73.4598 67.3267 73.3235 67.3267 73.0509 67.3267H64.8736C64.7373 67.3267 64.7373 67.3267 64.7373 67.463C64.7373 67.8719 64.8736 68.1445 65.0098 68.5533C65.4187 69.5074 66.2365 70.0525 67.7356 70.0525C68.9622 70.0525 69.78 69.5074 70.4614 68.6896C70.5977 68.5533 70.734 68.417 70.8703 68.6896L72.7783 70.5977C72.9146 70.734 72.9146 70.8702 72.7783 71.0065C71.5517 72.5057 69.6437 73.3235 67.4631 73.3235C64.4647 73.3235 62.4204 71.8243 61.4663 69.3711C61.0575 68.4171 60.9212 67.463 60.9212 66.1001C60.9212 65.1461 61.0575 64.1921 61.33 63.3744C62.1478 60.9212 64.1921 59.2857 67.0542 59.2857C70.5977 59.2857 72.7783 61.6026 73.1872 64.8735C73.4598 65.555 73.4598 66.2364 73.4598 67.0542ZM65.0098 63.9195C64.8736 64.1921 64.8736 64.4647 64.8736 64.7372C64.8736 64.8735 64.8736 64.8735 65.0098 64.8735H69.5074C69.6437 64.8735 69.6437 64.8735 69.6437 64.7372C69.6437 64.4647 69.5074 64.1921 69.5074 64.0558C69.2348 62.9655 68.4171 62.4203 67.1905 62.4203C66.1002 62.4203 65.4187 62.9655 65.0098 63.9195ZM84.0903 59.6946C84.2266 59.8308 84.2266 59.9671 84.2266 60.1034L83.6814 63.1018C83.6814 63.3744 83.5452 63.3744 83.2726 63.2381C82.8637 63.1018 82.3186 63.1018 81.7734 63.1018C80.5468 63.2381 79.4565 64.0558 79.4565 65.4187V72.642C79.4565 72.7783 79.3202 72.9146 79.1839 72.9146H76.0493C75.913 72.9146 75.7767 72.7783 75.7767 72.642V59.8308C75.7767 59.6946 75.913 59.5583 76.0493 59.5583H79.1839C79.3202 59.5583 79.4565 59.6946 79.4565 59.8308V60.7849C79.4565 60.9212 79.5928 60.9212 79.5928 60.9212C80.2742 59.9671 81.2282 59.2857 82.4548 59.2857C83.2726 59.2857 83.6814 59.422 84.0903 59.6946ZM85.1806 69.2348V68.9622C85.1806 68.8259 85.3169 68.6896 85.4532 68.6896H88.3153C88.4516 68.6896 88.5879 68.8259 88.5879 68.9622C88.5879 69.7799 89.5419 70.3251 90.9048 70.3251C92.1314 70.3251 92.9491 69.7799 92.9491 69.0985C92.9491 68.0082 90.9048 68.0082 88.9967 67.3267C87.225 66.7816 85.3169 65.8276 85.3169 63.5106C85.3169 60.9212 87.4975 59.2857 90.9048 59.2857C94.312 59.2857 96.4926 61.0574 96.4926 63.5106C96.4926 63.6469 96.3563 63.7832 96.22 63.7832H93.358C93.2217 63.7832 93.0854 63.6469 93.0854 63.5106C93.0854 62.6929 92.2676 62.1478 90.9048 62.1478C89.8144 62.1478 88.9967 62.5566 88.9967 63.3744C88.9967 64.4647 90.7685 64.4647 92.8128 65.1461C94.8571 65.6913 96.9015 66.6453 96.9015 69.0985C96.9015 71.688 94.5846 73.1872 91.1773 73.1872C87.4975 73.1872 85.1806 71.5517 85.1806 69.2348ZM19.8982 94.7208V77.0033C19.8982 76.867 20.0345 76.7307 20.1708 76.7307H23.3054C23.4417 76.7307 23.578 76.867 23.578 77.0033V91.7225C23.578 91.8588 23.578 91.8588 23.7143 91.8588H32.3005C32.4368 91.8588 32.5731 91.995 32.5731 92.1313V94.7208C32.5731 94.8571 32.4368 94.9934 32.3005 94.9934H20.1708C20.0345 94.9934 19.8982 94.8571 19.8982 94.7208ZM34.7537 90.9047C34.4811 90.087 34.3448 89.133 34.3448 88.179C34.3448 87.2249 34.4811 86.1346 34.7537 85.4532C35.5714 82.8637 37.7521 81.3645 40.7504 81.3645C43.6125 81.3645 45.7931 83 46.6108 85.4532C46.8834 86.2709 47.0197 87.2249 47.0197 88.179C47.0197 89.133 46.8834 90.087 46.6108 90.7684C45.7931 93.4942 43.6125 95.1297 40.7504 95.1297C37.7521 95.266 35.4351 93.6305 34.7537 90.9047ZM43.0673 90.087C43.2036 89.5418 43.3399 88.8604 43.3399 88.3152C43.3399 87.6338 43.2036 86.9524 43.0673 86.4072C42.6585 85.1806 41.8407 84.4992 40.7504 84.4992C39.5238 84.4992 38.7061 85.1806 38.4335 86.4072C38.1609 86.8161 38.1609 87.4975 38.1609 88.3152C38.1609 88.9967 38.1609 89.6781 38.2972 90.087C38.7061 91.3136 39.5238 91.995 40.7504 91.995C41.8407 92.1313 42.6585 91.3136 43.0673 90.087ZM52.0624 94.7208L47.8374 81.7734C47.7011 81.5008 47.8374 81.3645 48.11 81.3645H51.5172C51.6535 81.3645 51.7898 81.5008 51.9261 81.6371L54.1067 89.5418C54.1067 89.6781 54.243 89.6781 54.243 89.5418L56.4236 81.6371C56.4236 81.5008 56.5599 81.3645 56.8325 81.3645H60.2397C60.5123 81.3645 60.6486 81.5008 60.5123 81.7734L56.2874 94.5845C56.2874 94.7208 56.1511 94.8571 55.8785 94.8571H52.4713C52.1987 94.9934 52.0624 94.9934 52.0624 94.7208ZM73.5961 89.133C73.5961 89.4056 73.4598 89.4056 73.1872 89.4056H65.0098C64.8736 89.4056 64.8736 89.4056 64.8736 89.5418C64.8736 89.9507 65.0098 90.2233 65.1461 90.6322C65.555 91.5862 66.3727 92.1313 67.8719 92.1313C69.0985 92.1313 69.9163 91.5862 70.5977 90.7684C70.734 90.6322 70.8703 90.4959 71.0066 90.7684L72.9146 92.6765C73.0509 92.8128 73.0509 92.9491 72.9146 93.0854C71.688 94.5845 69.78 95.4023 67.5993 95.4023C64.601 95.4023 62.5567 93.9031 61.6026 91.4499C61.1938 90.4959 61.0575 89.5418 61.0575 88.179C61.0575 87.2249 61.1938 86.2709 61.4663 85.4532C62.2841 83 64.3284 81.3645 67.1905 81.3645C70.734 81.3645 72.9146 83.6814 73.3235 86.9524C73.5961 87.6338 73.5961 88.3152 73.5961 89.133ZM65.1461 85.9983C65.0098 86.2709 65.0098 86.5435 65.0098 86.8161C65.0098 86.9524 65.0098 86.9524 65.1461 86.9524H69.6437C69.78 86.9524 69.78 86.9524 69.78 86.8161C69.78 86.5435 69.6437 86.2709 69.6437 86.1346C69.3711 85.0443 68.5534 84.4992 67.3268 84.4992C66.1002 84.4992 65.4187 85.0443 65.1461 85.9983ZM81.2282 88.9967V77.0033C81.2282 76.867 81.3645 76.7307 81.5008 76.7307H84.6355C84.7718 76.7307 84.908 76.867 84.908 77.0033V88.9967C84.908 90.7685 86.1347 92.1313 88.0427 92.1313C89.9507 92.1313 91.1773 90.9047 91.1773 88.9967V77.0033C91.1773 76.867 91.3136 76.7307 91.4499 76.7307H94.5846C94.7209 76.7307 94.8571 76.867 94.8571 77.0033V88.9967C94.8571 92.8128 92.1314 95.266 88.0427 95.266C83.954 95.266 81.2282 92.6765 81.2282 88.9967ZM97.1741 91.3136V91.041C97.1741 90.9047 97.3103 90.7684 97.4466 90.7684H100.309C100.445 90.7684 100.581 90.9047 100.581 91.041C100.581 91.8588 101.535 92.4039 102.898 92.4039C104.125 92.4039 104.943 91.8588 104.943 91.1773C104.943 90.087 102.898 90.087 100.99 89.4056C99.2184 88.8604 97.3103 87.9064 97.3103 85.5895C97.3103 83 99.491 81.3645 102.898 81.3645C106.305 81.3645 108.486 83.1363 108.486 85.5895C108.486 85.7258 108.35 85.862 108.213 85.862H105.351C105.215 85.862 105.079 85.7258 105.079 85.5895C105.079 84.7717 104.261 84.2266 102.898 84.2266C101.808 84.2266 100.99 84.6354 100.99 85.4532C100.99 86.5435 102.762 86.5435 104.806 87.2249C106.851 87.7701 108.895 88.7241 108.895 91.1773C108.895 93.7668 106.578 95.266 103.171 95.266C99.491 95.266 97.1741 93.6305 97.1741 91.3136Z" fill="#252530"></path><path d="M26.3037 110.667H53.5615V111.757H26.3037V110.667ZM75.0952 110.667H102.353V111.757H75.0952V110.667Z" fill="#DCDEDC"></path><path d="M57.7865 109.44L62.0115 108.759L64.1921 104.534L66.2364 108.622L70.734 109.44L67.5993 112.575L68.2807 117.072L64.1921 115.164L60.1034 117.072L60.6486 112.575L57.7865 109.44Z" fill="#DCDEDC"></path></g><defs><clipPath id="clip0"><rect width="127.839" height="166" fill="white"></rect></clipPath></defs></svg>