<svg xmlns="http://www.w3.org/2000/svg" width="130" height="32" viewBox="0 0 130 32" fill="none"><path d="M42.0684 16.1905C42.0684 9.97533 46.5904 5.19611 52.977 5.19611C59.3636 5.19611 63.8856 9.99676 63.8856 16.1905C63.8856 22.4056 59.3636 27.1848 52.977 27.1848C46.5904 27.1848 42.0684 22.4056 42.0684 16.1905ZM60.8638 16.1905C60.8638 11.6041 57.7562 7.85361 52.977 7.85361C48.1978 7.85361 45.0902 11.6041 45.0902 16.1905C45.0902 20.7768 48.1978 24.5273 52.977 24.5273C57.7562 24.5273 60.8638 20.7768 60.8638 16.1905Z" fill="black"></path><path d="M82.5311 10.2539C81.3524 8.71082 79.4021 7.85356 77.4733 7.85356C72.7798 7.85356 69.6722 11.6041 69.6722 16.3619C69.6722 20.7553 72.6083 24.5273 77.4733 24.5273C79.8736 24.5273 81.6953 23.4557 82.9383 21.7197L85.3387 23.52C84.7171 24.3772 82.2097 27.1848 77.409 27.1848C70.7652 27.1848 66.6504 21.634 66.6504 16.3619C66.6504 9.84669 71.1081 5.17462 77.559 5.17462C80.3022 5.17462 83.2169 6.20334 84.8886 8.43221L82.5311 10.2539Z" fill="black"></path><path d="M88.7676 5.73187H91.5965V14.4331H102.441V5.73187H105.291V26.6704H102.441V17.0906H91.5965V26.6704H88.7676V5.73187Z" fill="black"></path><path d="M117.229 5.73187H119.801L128.759 26.6704H125.437L123.337 21.5055H113.393L111.314 26.6704H107.992L117.229 5.73187ZM122.308 18.998L118.408 9.39666H118.344L114.379 18.998H122.308Z" fill="black"></path><path d="M15.3008 12.9114C15.3008 11.3041 16.6081 10.0182 18.194 10.0182C19.8014 10.0182 21.0873 11.3255 21.0873 12.9114C21.0873 14.5188 19.8014 15.8047 18.194 15.8047V15.6118V15.4403C19.5871 15.4403 20.7229 14.3045 20.7229 12.9114C20.7229 11.5184 19.5871 10.3825 18.194 10.3825C16.801 10.3825 15.6651 11.5184 15.6651 12.9114C15.6651 14.3045 16.801 15.4403 18.194 15.4403V15.6118V15.8047C16.6081 15.8261 15.3008 14.5188 15.3008 12.9114Z" fill="black"></path><path d="M12.9863 12.9114C12.9863 10.0396 15.3224 7.70355 18.1942 7.70355C21.066 7.70355 23.402 10.0396 23.402 12.9114C23.402 15.7832 21.066 18.0978 18.1942 18.1193V17.9478V17.7549C20.8517 17.7549 23.0377 15.5903 23.0377 12.9114C23.0377 10.2325 20.8731 8.06789 18.1942 8.06789C15.5152 8.06789 13.3721 10.2325 13.3507 12.9114C13.3507 15.5689 15.5152 17.7335 18.1942 17.7549V17.9478V18.1193C15.3224 18.1193 12.9863 15.7832 12.9863 12.9114Z" fill="black"></path><path d="M10.4785 12.9114C10.4785 8.64658 13.929 5.19611 18.1939 5.19611C22.4587 5.19611 25.9092 8.64658 25.9092 12.9114C25.9092 17.1763 22.4587 20.6268 18.1939 20.6268V20.4339V20.2624C22.2444 20.2624 25.5234 16.9834 25.5234 12.9114C25.5234 8.86089 22.2444 5.58187 18.1939 5.56044C14.1433 5.56044 10.8429 8.86089 10.8429 12.9114C10.8429 16.962 14.1219 20.241 18.1939 20.2624V20.4339V20.6268C13.929 20.6268 10.4785 17.1763 10.4785 12.9114Z" fill="black"></path><path d="M8.07812 12.9114C8.07812 7.31776 12.6002 2.79572 18.1938 2.79572C23.7874 2.79572 28.3095 7.31776 28.3095 12.9114C28.3095 18.505 23.7874 23.027 18.1938 23.027V22.8342V22.6627C23.5731 22.6413 27.9451 18.2907 27.9451 12.9114C27.9451 7.53208 23.5731 3.16005 18.1938 3.16005C12.8145 3.16005 8.46389 7.53208 8.44246 12.9114C8.44246 18.2907 12.7931 22.6413 18.1938 22.6627V22.8342V23.027C12.6002 23.027 8.07812 18.505 8.07812 12.9114Z" fill="black"></path><path d="M5.41992 12.9114C5.41992 5.86045 11.1421 0.138245 18.1931 0.138245C25.2441 0.138245 30.9663 5.86045 30.9663 12.9114C30.9663 19.9624 25.2441 25.6846 18.1931 25.6846V25.4917V25.3202C25.0512 25.2988 30.5805 19.7695 30.6019 12.9328C30.5805 6.07477 25.0512 0.545444 18.1931 0.524012C11.335 0.545444 5.80569 6.07477 5.78426 12.9328C5.78426 19.7909 11.335 25.3202 18.1931 25.3202V25.5131V25.706C11.1421 25.6846 5.41992 19.9624 5.41992 12.9114Z" fill="black"></path><path d="M18.3643 0.331116H18V10.211H18.3643V0.331116Z" fill="black"></path><path d="M9.16992 4.14591L9.4271 3.88873L16.3923 10.8754L16.1351 11.1326L9.16992 4.14591Z" fill="black"></path><path d="M15.4718 12.7399H5.61328V13.1043H15.4718V12.7399Z" fill="black"></path><path d="M9.16992 21.6769L16.1351 14.7117L16.3923 14.9689L9.4271 21.9341L9.16992 21.6769Z" fill="black"></path><path d="M18.3643 15.6332H18V25.5131H18.3643V15.6332Z" fill="black"></path><path d="M19.9727 14.9689L20.2513 14.7117L27.2165 21.6769L26.9593 21.9341L19.9727 14.9689Z" fill="black"></path><path d="M30.7959 12.7399H20.916V13.1043H30.7959V12.7399Z" fill="black"></path><path d="M19.9727 10.8754L26.9593 3.88873L27.2165 4.14591L20.2513 11.1326L19.9727 10.8754Z" fill="black"></path><path d="M16.2439 13.7472C16.3511 13.7258 16.3297 13.833 16.3725 13.8973C16.3725 13.8973 16.394 13.8973 16.4154 13.8973C16.5868 13.7258 16.694 13.5115 16.7369 13.2543C16.7369 13.2329 16.7797 13.2115 16.7797 13.2115C16.7583 13.1043 16.6297 13.0614 16.5868 12.9757C16.5225 13.1472 16.3511 12.9971 16.2225 13.0829C16.2225 13.0829 16.2011 13.1257 16.2439 13.1472C16.2868 13.1686 16.3511 13.1472 16.3725 13.19C16.394 13.2329 16.394 13.3186 16.3511 13.3615C16.3511 13.3829 16.3082 13.3829 16.3082 13.3615C16.2439 13.2329 16.1368 13.2543 16.0082 13.2543C16.0511 13.2972 15.9653 13.2758 15.9868 13.3186C15.8153 13.2758 15.6653 13.34 15.5153 13.3615C15.4724 13.3615 15.4081 13.34 15.3652 13.2757C15.3009 13.34 15.2367 13.4472 15.1509 13.4258C15.1295 13.4043 15.0652 13.34 15.1081 13.3186C15.1938 13.2543 15.2795 13.19 15.3224 13.1043C15.3652 13.04 15.3224 12.9543 15.3652 12.89C15.4081 12.7828 15.4938 12.7185 15.5796 12.7185C15.6867 12.7185 15.8582 12.8043 15.9439 12.6971C15.9653 12.6757 16.0296 12.7614 16.0725 12.8043C16.0939 12.8257 16.0725 12.8471 16.0511 12.8471C15.9868 12.9114 15.901 12.9114 15.8582 12.9971C15.8367 13.0614 15.8582 13.1043 15.9225 13.1257C16.0082 13.1686 16.0296 13.0614 16.0511 12.9971C16.0939 12.9543 16.1368 12.9971 16.1796 12.9971C16.1796 12.9757 16.1796 12.9543 16.1796 12.9543C16.2654 12.9328 16.3725 12.9328 16.4582 12.9328C16.5654 12.9328 16.5011 12.7185 16.5011 12.5685C16.5011 12.5471 16.5011 12.5042 16.5011 12.4614C16.5011 12.4399 16.5011 12.4185 16.5225 12.4185C16.544 12.3542 16.694 12.3328 16.7154 12.3971C16.7154 12.4185 16.7154 12.4399 16.7369 12.4828C16.7369 12.5256 16.7583 12.5471 16.8012 12.5256C16.8226 12.5256 16.8226 12.5042 16.8226 12.4828C16.844 12.4399 16.8226 12.3756 16.8654 12.3542C16.9083 12.3113 16.9726 12.4185 17.0369 12.4185C17.1012 12.4399 17.1869 12.4399 17.2298 12.3971C17.2726 12.3756 17.2726 12.3113 17.2298 12.247C17.2084 12.2256 17.1655 12.2042 17.1655 12.2256C17.1012 12.2899 17.0155 12.2685 16.9512 12.2685C16.8869 12.2685 16.8654 12.1827 16.8012 12.1613C16.7369 12.1184 16.6726 12.2042 16.6083 12.1827C16.544 12.1399 16.5011 12.097 16.544 12.0327C16.5654 12.0113 16.6083 11.9684 16.6511 11.947C16.7369 11.9041 16.8226 11.9041 16.8654 11.8398C16.9083 11.7755 16.9297 11.7112 16.9297 11.6255C16.9297 11.5827 16.9726 11.5827 16.994 11.5827C17.1012 11.5398 17.1869 11.5612 17.2726 11.5398C17.3798 11.4969 17.4441 11.4112 17.5298 11.3469C17.5727 11.3255 17.6156 11.2826 17.6798 11.2826C17.7013 11.2826 17.7227 11.2183 17.7227 11.2183C17.7441 11.0683 17.7013 10.9183 17.7227 10.7468C17.7441 10.704 17.8084 10.6825 17.7656 10.6182C17.7656 10.5968 17.6798 10.6397 17.6798 10.6182C17.637 10.5754 17.6156 10.5325 17.6584 10.4896C17.7013 10.4468 17.787 10.4897 17.8084 10.4254C17.8727 10.3396 17.8299 10.211 17.7441 10.1682C17.6584 10.1253 17.5727 10.211 17.4655 10.1896C17.487 10.2325 17.4227 10.2325 17.4012 10.2325C17.2726 10.2753 17.2726 10.1253 17.2941 10.0396C17.2941 10.0182 17.3155 10.0182 17.3155 10.0182C17.3369 10.0182 17.3584 9.9753 17.3584 9.93243H17.2726C17.1655 9.99673 17.1226 10.1039 17.0155 10.1682C16.994 10.1682 16.994 10.211 17.0155 10.211C17.0155 10.2325 17.0369 10.2539 17.0583 10.2325C17.0583 10.2968 17.0798 10.4039 16.9726 10.3825C16.9512 10.3825 16.9512 10.3396 16.9512 10.3396C16.9297 10.3182 16.844 10.2968 16.844 10.3396C16.8226 10.4254 16.994 10.4468 16.9512 10.5325C16.8869 10.6397 16.7369 10.6611 16.6083 10.704C16.3511 10.8111 16.0939 10.704 15.8153 10.7468C15.6653 10.7683 15.5153 10.7468 15.3652 10.704C15.2581 10.6825 15.2367 10.7683 15.1938 10.854C15.1938 10.8326 15.1938 10.8111 15.1724 10.8326C15.1724 10.7683 15.1938 10.7254 15.1938 10.6825C15.1938 10.6397 15.1081 10.6397 15.1081 10.5968C14.9366 10.2539 14.4866 10.3182 14.1651 10.3611C14.1008 10.3611 14.0794 10.4254 14.0365 10.4682C13.9722 10.5325 13.8865 10.4682 13.8007 10.5111C13.7793 10.5325 13.7579 10.5754 13.7365 10.5968C13.6293 10.6182 13.5221 10.5111 13.4578 10.5754C13.3935 10.6182 13.3293 10.6182 13.265 10.6611C13.2435 10.6825 13.2435 10.7254 13.2435 10.7683C13.2435 10.7897 13.2007 10.7897 13.1792 10.7897C13.0935 10.8111 12.9435 10.7683 12.9435 10.8969H12.9649C13.0078 11.004 12.9435 11.1326 12.8578 11.154C12.7506 11.1969 12.622 11.1755 12.5149 11.2398C12.472 11.2612 12.3863 11.304 12.3648 11.3683C12.1934 11.6898 12.0219 12.0113 12.0005 12.3756V12.4185C12.0005 12.4399 12.0434 12.4614 12.0434 12.4614C11.8719 12.8471 11.7648 13.04 11.5504 13.3829C11.4647 13.5329 11.3576 13.8758 11.5076 14.0044C11.5719 14.0687 11.4647 14.2187 11.3576 14.2187C11.229 14.2187 11.0361 14.1973 10.9932 14.0473C10.9718 13.983 10.8646 13.9616 10.7789 13.9616L10.7146 13.9401C10.6075 13.9401 10.5003 13.9187 10.4146 13.9616C10.2646 14.0044 10.2431 14.1759 10.1788 14.3045C10.136 14.4116 9.94308 14.3902 9.90022 14.4973C9.87878 14.5402 9.92165 14.6259 9.87878 14.6902C9.85735 14.7331 9.79306 14.7331 9.77163 14.776C9.77163 14.7974 9.7502 14.8403 9.72877 14.8617C9.6859 15.0117 9.66447 15.1403 9.70733 15.2689C9.70733 15.3117 9.70733 15.3546 9.72877 15.376C9.77163 15.5261 9.72876 15.6546 9.64304 15.7832C9.53588 15.9118 9.36443 15.9118 9.21441 15.9761C9.15011 15.9976 9.06439 15.9333 8.97866 15.9547C8.80721 15.9761 8.61433 15.9118 8.44288 15.9547C8.44288 15.9547 8.40001 15.9761 8.37858 15.9976C8.29286 16.019 8.27142 15.9333 8.20713 15.8904C8.16427 15.8261 8.14283 15.7404 8.09997 15.7189C7.99281 15.6761 7.86423 15.7404 7.7785 15.8261C7.82136 15.8261 7.7785 15.869 7.82136 15.869C7.71421 15.869 7.62848 15.9761 7.52132 16.019C7.41416 16.0833 7.3713 15.8904 7.3713 15.7618C7.3713 15.6975 7.26414 15.6547 7.17842 15.6975C7.15699 15.7189 7.13556 15.7189 7.13556 15.7618C7.11412 15.7618 7.09269 15.7189 7.07126 15.7618C6.98554 15.8475 7.13556 15.8475 7.17842 15.8904C7.19985 15.9118 7.17842 15.9547 7.13556 15.9761C7.09269 15.9976 7.0284 15.9547 7.0284 15.9761C7.00697 16.0404 6.9641 16.0619 6.92124 16.0404C6.92124 16.0619 6.92124 16.0618 6.92124 16.0833C6.92124 16.1047 6.94267 16.1047 6.94267 16.1047C6.89981 16.1261 6.85695 16.1476 6.83551 16.1261C6.79265 16.1047 6.81408 16.0404 6.79265 15.9976C6.77122 15.9976 6.74979 15.9976 6.74979 16.019C6.72836 16.1047 6.74979 16.1261 6.66406 16.1476C6.68549 16.169 6.64263 16.2333 6.68549 16.2547C6.72836 16.2762 6.79265 16.2333 6.83551 16.2547C6.89981 16.319 6.89981 16.4262 6.92124 16.5333L6.89981 16.5548C6.92124 16.5976 6.92124 16.7477 6.85695 16.6834C6.77122 16.6191 6.87838 16.4905 6.81408 16.4048C6.79265 16.3833 6.74979 16.4048 6.70693 16.4048C6.77122 16.5333 6.64263 16.6834 6.77122 16.8119C6.81408 16.8762 6.6212 16.9405 6.70693 17.0263C6.74979 17.0477 6.81408 17.0906 6.87838 17.112C6.89981 17.112 6.87838 17.0263 6.87838 17.0263C6.87838 16.9834 6.98553 16.962 7.00697 17.0048C7.0284 17.0263 7.0284 17.0691 7.0284 17.112C6.98553 17.0906 6.94267 17.112 6.89981 17.1334C6.94267 17.2191 6.87838 17.2834 6.87838 17.3692C6.87838 17.3906 6.89981 17.412 6.89981 17.4335C6.92124 17.4978 7.0284 17.4335 7.07126 17.4978C7.09269 17.5406 7.0284 17.5835 7.04983 17.6478C7.07126 17.6906 7.13555 17.6692 7.15699 17.6906C7.19985 17.7121 7.17842 17.7764 7.17842 17.8192C7.22128 17.8192 7.28558 17.8621 7.26414 17.905C7.30701 17.9264 7.32844 17.8621 7.30701 17.8192C7.41416 17.8192 7.3713 17.7121 7.39273 17.6478C7.34987 17.6692 7.34987 17.6049 7.30701 17.6264C7.28558 17.5621 7.30701 17.4978 7.28558 17.4549C7.26414 17.3906 7.17842 17.3906 7.15699 17.3049C7.24271 17.3263 7.28558 17.3049 7.32844 17.2192C7.34987 17.1763 7.41416 17.2406 7.4356 17.2834C7.45703 17.3049 7.4356 17.3049 7.4356 17.3263C7.49989 17.3049 7.49989 17.3692 7.52132 17.3906C7.58562 17.4335 7.58562 17.4978 7.64991 17.5192C7.75707 17.5406 7.84279 17.5406 7.92852 17.5192C7.92852 17.4763 7.92852 17.4335 7.94995 17.412C7.99281 17.3692 8.01425 17.4549 8.07854 17.4549C8.05711 17.5406 8.09997 17.6263 8.1857 17.6692C8.20713 17.6692 8.22856 17.6692 8.24999 17.6692C8.27142 17.6906 8.29285 17.7549 8.33572 17.7549C8.35715 17.7549 8.40001 17.7335 8.42144 17.7549C8.46431 17.7549 8.46431 17.7978 8.48574 17.8621L8.50717 17.8835C8.5929 17.8621 8.70005 17.8835 8.72148 17.9693C8.76435 18.0764 8.85007 18.1621 8.89294 18.2693C8.91437 18.3336 9.00009 18.355 9.02153 18.3979C9.02153 18.4408 9.04296 18.4622 9.06439 18.4622C9.12868 18.5265 9.21441 18.5479 9.30013 18.5693C9.32157 18.5693 9.38586 18.5265 9.42872 18.4836C9.45016 18.4836 9.49302 18.505 9.49302 18.505C9.57874 18.6336 9.60018 18.8265 9.72877 18.8908C9.79306 18.9337 9.81449 19.0194 9.87878 19.0408C9.92165 19.0623 9.96451 18.998 10.0074 19.0408C10.0288 19.0623 10.0502 19.1266 10.0717 19.1266C10.1574 19.1694 10.2431 19.2337 10.2646 19.3409C10.2646 19.3623 10.286 19.3837 10.3074 19.3837C10.3931 19.3837 10.4574 19.3409 10.5217 19.3837C10.586 19.448 10.6718 19.4695 10.7146 19.5338C10.736 19.5552 10.7789 19.5766 10.8003 19.5552C10.8218 19.5338 10.8218 19.4695 10.8218 19.448C10.8432 19.4052 10.9075 19.4052 10.9504 19.4052C11.0147 19.3837 11.0147 19.2766 11.0789 19.2766C11.1861 19.2551 11.229 19.3837 11.3147 19.448L11.3576 19.4695C11.4433 19.5123 11.4004 19.6838 11.529 19.7052C11.6576 19.7052 11.7219 19.8338 11.8505 19.8338C11.9362 19.8552 12.0219 19.8767 12.0862 19.941C12.1077 19.9624 12.1505 19.9624 12.1934 19.941C12.2362 19.9195 12.2791 19.8981 12.322 19.8767C12.4291 19.8124 12.5792 19.7909 12.7077 19.7266C12.7292 19.7052 12.7506 19.6623 12.7935 19.6623C12.9863 19.5766 13.2007 19.7266 13.3935 19.6409C13.4364 19.6195 13.5007 19.6195 13.565 19.5766C13.6936 19.4909 13.715 19.3409 13.6722 19.1909C13.5864 18.9765 13.5221 18.7622 13.3721 18.5908C13.3078 18.4836 13.2007 18.4407 13.1149 18.355C13.0935 18.3336 13.0292 18.3336 12.9863 18.3122C12.9006 18.2693 12.9221 18.1836 12.9435 18.1193C12.9435 18.0978 12.8578 18.0978 12.8363 18.055C12.8149 18.0121 12.8363 17.9478 12.8363 17.905C12.8363 17.8835 12.8149 17.8621 12.7935 17.8621C12.6863 17.8407 12.5792 17.7978 12.472 17.7978C12.4291 17.7978 12.4077 17.7764 12.3648 17.7549C12.3434 17.7335 12.3648 17.7121 12.3863 17.6906C12.4506 17.6263 12.5363 17.6049 12.622 17.5621C12.6006 17.5192 12.5792 17.4549 12.622 17.4549C12.6649 17.412 12.6434 17.3263 12.6434 17.2834C12.6434 17.262 12.622 17.2406 12.5792 17.2406C12.5792 17.1334 12.6434 17.0477 12.5792 16.962C12.5149 16.8762 12.4291 16.8334 12.4077 16.7048C12.4077 16.6834 12.3434 16.6619 12.3434 16.6405C12.3434 16.5119 12.3863 16.3619 12.3648 16.2333C12.3434 16.169 12.2791 16.1047 12.322 16.0833C12.3434 16.0618 12.3863 16.0404 12.4291 16.019C12.5149 15.9976 12.5577 15.9118 12.4934 15.869C12.4506 15.8047 12.3648 15.869 12.3005 15.8475C12.2791 15.8475 12.2577 15.8261 12.2577 15.7832C12.2362 15.7404 12.3005 15.6332 12.2362 15.6118C12.1934 15.5904 12.1505 15.5689 12.1291 15.5261C12.0862 15.4618 12.1291 15.3975 12.172 15.3332C12.1505 15.3332 12.1505 15.2903 12.1291 15.3117C12.1077 15.2474 12.172 15.1617 12.1505 15.0974C12.1291 15.0331 12.0862 14.9688 12.0005 14.9903V15.0117C11.9576 15.0546 11.9148 15.0546 11.8719 15.0331C11.8719 15.0117 11.8719 14.9903 11.8719 14.9474C11.8933 14.9045 11.9576 14.926 12.0005 14.9045C12.0648 14.8403 12.0005 14.7545 11.9791 14.7331C11.8933 14.6474 11.8505 14.5831 11.8719 14.4545C11.7648 14.4545 11.5933 14.4331 11.6147 14.283C11.6147 14.1544 11.5933 14.0259 11.5504 13.8973C11.529 13.8115 11.529 13.7044 11.5933 13.6401C11.6147 13.6187 11.6362 13.5758 11.6576 13.5758C11.7862 13.5544 11.9576 13.5758 12.0434 13.4472C12.0862 13.3615 11.9791 13.2115 12.0648 13.1472C12.1934 13.04 12.4077 13.1043 12.5792 13.0186C12.622 12.9757 12.622 12.9114 12.6006 12.8471C12.5792 12.7828 12.5363 12.7185 12.4934 12.6542C12.4291 12.5685 12.3005 12.6114 12.2577 12.5256C12.2362 12.4828 12.2362 12.4185 12.2577 12.3756C12.2791 12.3113 12.3434 12.247 12.4077 12.2042C12.5577 12.1399 12.7077 12.1827 12.8363 12.2685C12.8792 12.2899 12.9221 12.3328 12.9435 12.3756C12.9649 12.3971 12.9649 12.4185 12.9649 12.4399C13.0078 12.6114 13.0721 12.8043 13.0078 12.9543C12.9863 13.0186 12.9221 13.04 12.9221 13.1257C12.9649 13.0829 12.9863 13.1472 12.9863 13.1686C13.0078 13.2757 13.0935 13.4472 12.9863 13.5115C12.8578 13.5972 12.8792 13.4901 12.7292 13.5115C12.6649 13.5115 12.622 13.5115 12.622 13.5544C12.622 13.5972 12.6863 13.6615 12.7077 13.683C13.0078 13.7687 13.1792 13.7901 13.5007 13.833C13.565 13.8544 13.6293 13.9401 13.6936 13.9401C13.7579 13.9401 13.8222 13.983 13.8865 13.8973C13.9079 13.8758 13.9722 13.8973 13.9722 13.9187C13.9936 13.983 14.0151 13.983 14.0579 14.0044C14.1651 14.0473 14.1222 14.3045 14.2508 14.2187C14.3151 14.1759 14.3794 14.2187 14.4651 14.1973C14.3794 14.3045 14.4223 14.4116 14.508 14.4973C14.5723 14.5831 14.658 14.6045 14.7437 14.6902C14.808 14.7545 14.8938 14.7331 14.8938 14.6474C14.9152 14.5402 14.808 14.4331 14.9366 14.3473C15.0652 14.5188 14.8938 14.7331 15.0223 14.9045C15.0223 14.926 15.0438 14.926 15.0438 14.9474C15.1081 15.0117 15.1509 15.0974 15.2367 15.0974C15.2795 15.076 15.3224 15.0117 15.3438 14.9474C15.3438 14.926 15.3438 14.9045 15.3652 14.9045C15.3652 14.8403 15.4081 14.8188 15.4081 14.7545C15.4295 14.6688 15.5367 14.6259 15.5153 14.5188C15.5153 14.4973 15.5153 14.4545 15.5153 14.4331C15.5153 14.3259 15.6653 14.2402 15.7724 14.2616C15.8153 14.2616 15.7724 14.2402 15.8153 14.2187C15.8582 14.1759 15.8582 14.0687 15.901 14.0044C15.9439 13.9616 15.9868 13.8973 16.0082 13.8544C16.0296 13.833 16.0725 13.7901 16.0511 13.7472C16.2011 13.8115 16.2011 13.7472 16.2439 13.7472Z" fill="black"></path><path d="M12.5996 13.5329C12.5568 13.4901 12.5139 13.5329 12.4711 13.5544C12.4282 13.5758 12.4282 13.6401 12.4496 13.6615C12.4711 13.7044 12.4925 13.7472 12.4925 13.7901C12.4925 13.8758 12.4711 13.9616 12.4925 14.0473C12.5139 14.1116 12.5996 14.2402 12.6425 14.1544C12.6854 14.0687 12.7711 13.9401 12.7068 13.8115C12.6854 13.7258 12.7068 13.5758 12.5996 13.5329Z" fill="black"></path><path d="M12.4277 14.283C12.4492 14.3259 12.4492 14.3259 12.4706 14.3687C12.492 14.433 12.6206 14.4116 12.642 14.3687C12.642 14.3473 12.642 14.283 12.5992 14.2616C12.5778 14.2187 12.5135 14.2401 12.492 14.2187C12.4706 14.2187 12.4492 14.1759 12.4277 14.1973C12.4277 14.2187 12.4277 14.2616 12.4277 14.283Z" fill="black"></path><path d="M12.6418 14.6259C12.6418 14.4759 12.5132 14.4545 12.4489 14.5402C12.3418 14.6259 12.4704 14.7974 12.5561 14.9259C12.5561 14.9474 12.5775 14.9902 12.5989 15.0331C12.6418 15.076 12.7275 15.0545 12.749 15.0117C12.7704 14.9688 12.7918 14.9474 12.8133 14.9045C12.8347 14.7974 12.7704 14.6259 12.6418 14.6259Z" fill="black"></path><path d="M12.3847 13.9401C12.3847 13.9187 12.3419 13.9187 12.3419 13.9187C12.299 13.9401 12.2776 13.983 12.2776 14.0259C12.2561 14.0901 12.2776 14.1544 12.3419 14.2187C12.3633 14.2402 12.4062 14.2187 12.4062 14.1759C12.4276 14.0901 12.3847 14.0044 12.3847 13.9401Z" fill="black"></path><path d="M12.7503 14.4759C12.7717 14.4544 12.8146 14.433 12.7932 14.3902C12.836 14.3902 12.8575 14.3901 12.8789 14.3473C12.9003 14.3258 12.8575 14.3044 12.8575 14.283C12.7932 14.2616 12.7289 14.3473 12.686 14.3902C12.6431 14.4116 12.7074 14.4759 12.7503 14.4759Z" fill="black"></path><path d="M12.6426 15.2475C12.6426 15.3118 12.6426 15.3546 12.6854 15.3761C12.7069 15.3761 12.7497 15.3975 12.7497 15.3546C12.7497 15.3118 12.7926 15.2689 12.7497 15.2475H12.7283C12.7069 15.2046 12.6854 15.2689 12.6426 15.2475Z" fill="black"></path><path d="M12.8786 15.8904C12.9001 15.8475 12.9429 15.7832 12.8572 15.7404C12.8358 15.7404 12.7929 15.7404 12.7715 15.7404C12.7929 15.8047 12.8358 15.8689 12.8786 15.8904Z" fill="black"></path><path d="M7.35006 18.055C7.32863 18.055 7.32863 18.1407 7.35006 18.1622C7.37149 18.1836 7.43578 18.1836 7.47864 18.1836C7.45721 18.1193 7.45721 17.9907 7.35006 18.055Z" fill="black"></path><path d="M7.92757 18.6336C7.8847 18.7193 7.99186 18.8265 8.12045 18.8265C8.12045 18.7836 8.14189 18.7194 8.12045 18.6979C8.05616 18.6336 7.949 18.5693 7.92757 18.6336Z" fill="black"></path><path d="M8.18562 18.9764C8.16419 19.1479 8.22848 19.2551 8.39993 19.2765C8.39993 19.0836 8.33564 18.9979 8.18562 18.9764Z" fill="black"></path><path d="M16.9511 14.5188C17.1011 14.4759 17.2725 14.4331 17.444 14.4331C17.8298 14.4116 17.8083 13.9401 18.0012 13.6187C18.0441 13.5544 17.9798 13.3829 17.9155 13.2972C17.7869 13.0829 17.3797 13.3186 17.294 13.1043C17.2297 12.9757 17.5726 13.1686 17.594 12.9972C17.594 12.9543 17.5726 12.8686 17.5297 12.8686C17.4868 12.8257 17.3797 12.8257 17.3368 12.8686C17.1225 13.04 17.1011 13.3401 16.9939 13.533C16.7796 13.9187 16.3938 14.1759 16.1795 14.6045C16.1581 14.6688 16.201 14.7117 16.2438 14.7331C16.5224 14.8403 16.7153 14.5617 16.9511 14.5188Z" fill="black"></path><path d="M18.5146 13.5758C18.4503 13.5972 18.4075 13.6187 18.3646 13.6401C18.3432 13.7044 18.3217 13.7901 18.3646 13.833C18.386 13.8544 18.4717 13.8544 18.4932 13.833C18.536 13.7901 18.4718 13.7258 18.4289 13.7044C18.4718 13.683 18.5146 13.6401 18.5146 13.5758Z" fill="black"></path><path d="M17.3572 14.8831C17.4858 15.0331 17.7858 14.9903 17.7644 14.8402C17.7216 14.7117 17.5287 14.6474 17.3786 14.6902C17.2715 14.7331 17.5287 14.8402 17.3572 14.8831Z" fill="black"></path><path d="M17.7653 16.019C17.8939 15.9547 17.8296 15.8475 17.851 15.7404C17.7224 15.7832 17.6582 15.8904 17.6367 16.019C17.6582 16.019 17.701 16.0404 17.7653 16.019Z" fill="black"></path><path d="M19.3294 13.7258C19.3508 13.7258 19.3508 13.6187 19.3294 13.5972C19.308 13.5758 19.2437 13.5972 19.2008 13.5972C19.1365 13.5758 19.1365 13.5329 19.1151 13.4686C19.1151 13.3829 19.0508 13.3401 19.0508 13.2543C18.9651 13.2972 18.9651 13.4044 18.9865 13.4472C19.0937 13.5544 19.158 13.7687 19.3294 13.7258Z" fill="black"></path><path d="M17.2515 12.6328C17.1872 12.5899 17.1443 12.6328 17.1872 12.6971C17.2086 12.7185 17.2729 12.6971 17.3158 12.6971C17.2943 12.6971 17.2943 12.6542 17.2515 12.6328Z" fill="black"></path><path d="M7.00549 15.9761C7.02692 15.9547 6.98406 15.9118 6.96263 15.8904C6.91976 15.8475 6.8769 15.8904 6.85547 15.8475C6.85547 15.8904 6.85547 15.9118 6.8769 15.9547C6.8769 15.9976 6.96263 16.019 7.00549 15.9761Z" fill="black"></path><path d="M7.6055 15.9761C7.66979 15.9547 7.75552 15.9119 7.71266 15.8261H7.69122C7.58407 15.7618 7.47691 15.7833 7.49834 15.9119C7.47691 15.9547 7.54121 16.019 7.6055 15.9761Z" fill="black"></path><path d="M17.5076 9.86818C17.5291 9.80388 17.6362 9.80389 17.6148 9.71815C17.6148 9.69672 17.5505 9.69672 17.5076 9.69672C17.4648 9.69672 17.4862 9.76102 17.4862 9.80388C17.4648 9.80388 17.4434 9.80389 17.4434 9.82532C17.4434 9.86819 17.4862 9.88962 17.5076 9.86818Z" fill="black"></path><path d="M17.8093 9.76186C17.8309 9.74027 17.8741 9.69708 17.8309 9.67549C17.7878 9.6323 17.723 9.6323 17.723 9.65389C17.6798 9.69708 17.7446 9.80505 17.8093 9.76186Z" fill="black"></path><path d="M16.8655 12.0541C16.8226 12.1613 17.0155 12.2685 17.1013 12.2256C17.1655 12.1827 17.1441 12.0541 17.0584 12.0113C17.0155 11.9898 16.8869 12.0113 16.8655 12.0541Z" fill="black"></path><path d="M17.0795 12.74C17.1223 12.6971 17.0795 12.6542 17.0366 12.6328C16.9938 12.6114 16.9295 12.6114 16.8866 12.6328C16.8652 12.6328 16.8652 12.6328 16.8437 12.6114C16.8223 12.6543 16.8652 12.6757 16.8866 12.6757C16.9723 12.6757 17.0152 12.7614 17.0795 12.74Z" fill="black"></path><path d="M16.7997 12.9114C16.7569 12.9329 16.7569 13.04 16.7997 13.0829C16.864 13.1043 16.9283 13.1043 16.9497 13.0186C16.9712 12.9543 17.014 12.89 16.9497 12.8471C16.9069 12.8043 16.864 12.8686 16.7997 12.9114Z" fill="black"></path><path d="M16.629 12.6757C16.629 12.7614 16.5861 12.8471 16.6076 12.9328C16.629 12.9757 16.6933 12.9757 16.6933 12.9328C16.7147 12.8471 16.6933 12.7828 16.7576 12.74C16.7362 12.74 16.7147 12.6971 16.7147 12.7614C16.7147 12.74 16.7362 12.7185 16.7147 12.7185C16.6933 12.6542 16.6719 12.6757 16.629 12.6757Z" fill="black"></path><path d="M23.2951 18.8052V18.7836C23.2951 18.8052 23.2735 18.8052 23.252 18.8052C23.2735 18.8052 23.2951 18.8052 23.2951 18.8052Z" fill="black"></path><path d="M18.2589 15.4832C18.216 15.5046 18.2375 15.4617 18.216 15.4403C18.1946 15.4189 18.1517 15.4189 18.1517 15.3546C18.1303 15.2903 18.066 15.3975 18.0017 15.3975C18.0017 15.3975 17.9803 15.4189 17.9803 15.4403C18.0446 15.526 17.9589 15.5475 17.916 15.5903C17.8946 15.6546 17.9803 15.6546 18.0017 15.7189C18.0232 15.7832 17.9589 15.8475 17.9589 15.9332C17.9374 15.9547 17.916 15.9761 17.8731 16.0404C17.8731 16.0404 17.8303 16.1047 17.8517 16.1476C17.916 16.2118 18.0017 16.0833 18.066 16.0618C18.1303 16.0618 18.1303 16.0618 18.1732 16.019C18.2375 15.9761 18.3018 15.9547 18.3232 15.8904C18.3232 15.8689 18.216 15.8475 18.1946 15.8475C18.2375 15.7189 18.1732 15.6975 18.1946 15.5475L18.2589 15.4832Z" fill="black"></path><path d="M18.7733 17.1335H18.8162C18.8591 17.0906 18.8805 17.0263 18.8376 16.9834C18.8162 16.9406 18.7305 16.9406 18.7305 17.0049C18.7305 17.0477 18.7519 17.0906 18.7733 17.1335Z" fill="black"></path><path d="M18.8579 16.8772C18.9011 16.8772 18.8795 16.8124 18.8579 16.7692C18.8363 16.7476 18.7931 16.7476 18.7931 16.7476C18.7499 16.834 18.7715 16.8988 18.8579 16.8772Z" fill="black"></path><path d="M19.3719 17.1334C19.3505 17.1334 19.3505 17.112 19.3505 17.112C19.3076 17.112 19.2648 17.0906 19.2005 17.0906C19.179 17.0906 19.1576 17.0906 19.1147 17.0906C19.1147 17.1334 19.0933 17.1977 19.1362 17.2192C19.2219 17.2192 19.3076 17.2192 19.3719 17.1334Z" fill="black"></path><path d="M20.2512 17.0691C20.2726 17.0691 20.2512 16.9834 20.2297 16.9834C20.144 16.962 20.0797 17.0477 19.994 17.0263C19.994 17.0477 19.994 17.0691 19.9726 17.0906H19.9297C20.0368 17.1977 20.1654 17.0906 20.2512 17.0691Z" fill="black"></path><path d="M20.5938 16.7477C20.6366 16.8763 20.7866 16.812 20.7866 16.7262C20.7866 16.6619 20.7009 16.6619 20.658 16.7048C20.658 16.6834 20.6795 16.6834 20.6795 16.6619C20.658 16.7048 20.5938 16.7048 20.5938 16.7477Z" fill="black"></path><path d="M24.7517 13.983C24.7089 14.0473 24.8589 14.0687 24.9232 14.0902C25.0089 14.1116 25.1375 14.1116 25.1589 14.0259C25.2018 13.8973 25.0518 13.7687 24.9017 13.7687C24.7732 13.7901 24.7732 13.8973 24.7517 13.983Z" fill="black"></path><path d="M24.7735 18.4193C24.7306 18.3979 24.6449 18.3979 24.6449 18.4193C24.5377 18.848 24.1519 19.448 24.6234 19.7266C24.8378 19.8552 25.0949 19.598 25.1164 19.4695C25.2021 19.1266 25.1592 18.6122 24.7735 18.4193Z" fill="black"></path><path d="M23.4442 16.5119C23.3799 16.5548 23.3585 16.7048 23.4656 16.7048C23.5085 16.7048 23.5514 16.6834 23.5942 16.6405C23.6371 16.5977 23.6157 16.5334 23.5728 16.5334C23.5514 16.5119 23.4871 16.4905 23.4442 16.5119Z" fill="black"></path><path d="M23.7664 20.9268C23.7236 20.9911 23.745 21.0983 23.8093 21.1411C23.8093 21.0768 23.9165 20.9911 23.8307 20.9268C23.8093 20.8839 23.7879 20.9054 23.7664 20.9268Z" fill="black"></path><path d="M25.7587 10.7683C25.6944 10.7683 25.673 10.7897 25.6515 10.8112C25.6301 10.8755 25.6515 10.9398 25.6301 11.0041C25.4801 11.3898 25.0514 11.7327 25.2443 12.1828C25.2443 12.1828 25.2657 12.1828 25.2872 12.1828C25.4158 12.0971 25.4801 11.9899 25.5444 11.8613C25.673 11.6041 25.7801 11.3255 25.8658 11.0255C25.9087 10.8969 25.8873 10.7683 25.7587 10.7683Z" fill="black"></path><path d="M25.0293 12.3114C24.9864 12.3757 25.0721 12.4185 25.115 12.3971C25.1579 12.3757 25.2007 12.2899 25.1579 12.2685C25.115 12.2471 25.0507 12.2471 25.0293 12.3114Z" fill="black"></path><path d="M20.6146 9.63239C20.5718 9.48237 20.4432 9.6324 20.336 9.61097C20.2932 9.61097 20.2717 9.54667 20.2503 9.54667C20.2074 9.54667 20.1646 9.5681 20.1431 9.58953C20.0788 9.6324 20.1217 9.73956 20.186 9.71813C20.2289 9.71813 20.2717 9.6324 20.2932 9.69669C20.336 9.78242 20.3146 9.93244 20.4432 9.88958C20.5289 9.86814 20.5718 9.80385 20.6789 9.80385C20.7646 9.80385 20.7861 9.69669 20.7646 9.63239C20.8504 9.63239 20.979 9.54667 21.0433 9.63239C21.0647 9.65382 21.0861 9.71812 21.1075 9.76098C21.129 9.82528 21.1933 9.84671 21.279 9.84671C21.3647 9.82528 21.4505 9.82528 21.5147 9.76098C21.579 9.67526 21.579 9.58953 21.4933 9.52523C21.4505 9.5038 21.4076 9.52524 21.3647 9.50381C21.3004 9.46094 21.2361 9.39665 21.1718 9.37522C20.9147 9.28949 20.7646 9.5038 20.6146 9.63239Z" fill="black"></path><path d="M19.736 9.76099C19.8217 9.73956 19.9075 9.73956 19.9932 9.76099V9.73956C19.9932 9.58953 19.8432 9.61097 19.7574 9.67526V9.6967C19.736 9.71813 19.6931 9.6967 19.6717 9.6967C19.6503 9.73956 19.6931 9.78242 19.736 9.76099Z" fill="black"></path><path d="M20.0583 10.3396C20.1441 10.211 20.2941 10.1467 20.4227 10.0825C20.4227 10.0825 20.4227 10.061 20.4227 10.0396C20.4227 10.0396 20.4227 10.061 20.4012 10.0825C20.3798 10.0182 20.3155 9.9753 20.2726 9.93243C20.2726 9.99673 20.2083 10.0396 20.1655 10.061C20.1012 10.1039 19.994 10.1682 19.9726 10.2539C19.9512 10.3182 19.9297 10.4039 19.994 10.4682C20.0155 10.4468 20.0369 10.3611 20.0583 10.3396Z" fill="black"></path><path d="M18.73 9.48258C18.73 9.52578 18.7084 9.56897 18.7732 9.59057C18.838 9.61217 18.838 9.50418 18.8164 9.48258C18.7732 9.46098 18.73 9.43938 18.73 9.48258Z" fill="black"></path><path d="M15.6209 7.5107C15.7281 7.55357 15.8567 7.55357 15.9424 7.575C15.9638 7.575 16.0281 7.51071 15.9853 7.46784C15.921 7.42498 15.8353 7.46784 15.771 7.38211L15.7281 7.36068C15.6424 7.33925 15.6209 7.42498 15.5566 7.46784C15.5566 7.48928 15.6209 7.5107 15.6209 7.5107Z" fill="black"></path><path d="M23.5304 8.94661C23.4875 8.98947 23.4232 8.96803 23.3589 8.98947C23.3161 9.0109 23.3375 9.07519 23.3375 9.09662C23.4018 9.20378 23.4875 9.13949 23.5733 9.11806C23.5518 9.16092 23.5947 9.13949 23.6161 9.16092C23.659 9.18235 23.6804 9.07519 23.7233 9.11806V9.18235C23.659 9.22522 23.659 9.28951 23.6161 9.31094C23.5733 9.33237 23.509 9.33237 23.4875 9.26808H23.4447H23.4661C23.4447 9.31094 23.4661 9.39666 23.4447 9.4181C23.3375 9.50382 23.1018 9.58955 23.2089 9.71814C23.2947 9.8253 23.4661 9.80386 23.6161 9.78243C23.6376 9.78243 23.659 9.761 23.6376 9.73957C23.6161 9.58955 23.7018 9.58955 23.7876 9.50383C23.8304 9.48239 23.7661 9.43953 23.7233 9.39667C23.6804 9.37524 23.7233 9.28951 23.7661 9.28951C23.8304 9.28951 23.8304 9.22521 23.8733 9.24665V9.16092C23.959 9.18235 24.0233 9.11806 24.0019 9.03233C23.9805 8.92517 23.8947 8.86088 23.9162 8.75373C23.9162 8.71086 23.959 8.68943 24.0019 8.66799C24.0233 8.66799 24.0448 8.62513 24.0233 8.6037C24.0019 8.58227 23.9805 8.6037 23.9805 8.6037C23.9805 8.64657 23.9376 8.62514 23.9376 8.64657C23.8519 8.668 23.7661 8.64656 23.6804 8.68943C23.5518 8.75372 23.5947 8.88231 23.5304 8.94661Z" fill="black"></path><path d="M22.6094 9.82532C22.6094 9.93246 22.738 9.8896 22.7808 9.84675C22.738 9.86817 22.7594 9.80389 22.738 9.80389C22.7165 9.80389 22.6737 9.82532 22.6094 9.82532Z" fill="black"></path><path d="M23.9165 9.63243C23.8522 9.71817 24.0237 9.71817 24.088 9.6753C24.088 9.6753 24.088 9.6753 24.088 9.65387C24.088 9.63243 24.088 9.63244 24.0665 9.611C24.0022 9.58957 23.938 9.58957 23.9165 9.63243Z" fill="black"></path><path d="M24.1743 9.20381C24.1527 9.18222 24.1095 9.20381 24.0879 9.20381C24.1311 9.22541 24.1311 9.29021 24.1959 9.29021C24.1959 9.26861 24.1959 9.26861 24.1959 9.24701C24.1743 9.22541 24.1959 9.20381 24.1743 9.20381Z" fill="black"></path><path d="M22.244 5.68903C22.3297 5.73189 22.3726 5.79619 22.394 5.88191C22.4369 5.96764 22.3726 6.09623 22.4154 6.18196C22.4369 6.22482 22.4583 6.24625 22.4797 6.26768C22.5226 6.31055 22.4797 6.39627 22.5012 6.46056C22.5226 6.58915 22.544 6.69631 22.5655 6.8249C22.6083 6.80347 22.6083 6.88919 22.6726 6.86776C22.6726 6.93206 22.694 6.99635 22.7155 7.06064C22.7369 7.12494 22.8226 7.10351 22.8869 7.14638C22.9727 7.25353 23.0584 7.38212 23.1655 7.44642C23.2084 7.46785 23.2513 7.46784 23.2727 7.51071C23.2727 7.53214 23.2727 7.55357 23.2941 7.55357C23.4656 7.59644 23.6799 7.66073 23.5942 7.87505C23.6585 7.83218 23.7442 7.78932 23.7656 7.72502C23.8085 7.59643 23.8299 7.46785 23.7656 7.33926C23.7228 7.27496 23.637 7.25353 23.6156 7.1678C23.5942 7.12494 23.6156 7.06065 23.6156 7.03922C23.6156 6.97492 23.5299 6.99635 23.5084 6.95349C23.4656 6.86776 23.4441 6.71774 23.6156 6.73917C23.6156 6.73917 23.5942 6.69631 23.5942 6.67488C23.5513 6.67488 23.487 6.67488 23.4441 6.67488C23.4013 6.67488 23.4013 6.61059 23.4013 6.58915C23.3799 6.50343 23.4227 6.37484 23.3584 6.31054C23.2727 6.26768 23.187 6.24625 23.1227 6.20338C23.0584 6.16052 23.0155 6.11766 22.9512 6.0748C22.9084 6.05337 22.8441 6.11766 22.8012 6.0748C22.6726 5.92478 22.5655 5.75332 22.4369 5.56044C22.394 5.49614 22.2868 5.49615 22.2011 5.51758C22.1797 5.51758 22.2011 5.56044 22.1797 5.56044C22.2011 5.56044 22.2011 5.56044 22.2225 5.56044C22.2654 5.64616 22.244 5.68903 22.244 5.68903Z" fill="black"></path><path d="M21.4509 5.98907C21.3866 6.07479 21.4081 6.18195 21.4724 6.20339C21.5581 6.24625 21.6867 6.24625 21.7938 6.22482C21.8581 6.22482 21.8796 6.16052 21.9224 6.09623C21.9867 6.0105 22.1367 6.05336 22.2439 6.0105C22.2225 6.0748 22.2868 6.07479 22.3082 6.09623C22.3082 6.03193 22.3082 5.92477 22.2439 5.88191C22.1367 5.81761 22.1367 5.73189 22.0939 5.64616C22.0724 5.62473 22.0296 5.66759 22.0296 5.68902C22.0296 5.83904 21.901 5.81762 21.7938 5.86048V5.90334C21.7938 5.90334 21.7724 5.90334 21.751 5.90334C21.7295 5.88191 21.7295 5.88191 21.7295 5.83905C21.6652 5.83905 21.601 5.83904 21.5795 5.88191C21.5367 5.92477 21.4724 5.92477 21.4509 5.98907Z" fill="black"></path><path d="M19.3941 2.58142C19.3083 2.40996 19.1583 2.23851 19.2012 2.00276C19.4798 2.08849 19.7155 2.04562 19.9941 1.9599C20.187 1.8956 20.4228 2.00276 20.6156 1.87417C20.6371 1.85274 20.6156 1.78844 20.6156 1.72415C20.3799 1.8313 20.2084 1.53126 19.9941 1.65985C19.737 1.80988 19.4583 1.87417 19.1797 1.93846C18.9654 1.98133 18.4296 1.95989 18.4082 2.25994C18.7082 2.25994 19.0083 2.28138 19.2012 2.53856C19.2226 2.60285 19.3298 2.58142 19.3941 2.58142Z" fill="black"></path><path d="M20.293 3.86731C20.3787 3.9959 20.5073 4.03876 20.6359 4.08162C20.6573 4.01733 20.6144 3.97447 20.5716 3.93161C20.4859 3.86731 20.4001 3.86731 20.293 3.86731Z" fill="black"></path><path d="M20.0804 4.29599C20.0372 4.31758 20.0804 4.38237 20.1236 4.42556C20.1452 4.38237 20.21 4.25279 20.0804 4.29599Z" fill="black"></path><path d="M19.8864 4.03877C19.9078 4.03877 19.9293 4.03877 19.9293 4.03877C19.9293 4.03877 19.9293 4.01733 19.9293 3.9959C19.9293 3.88874 19.8221 3.86731 19.7578 3.86731C19.7578 3.88874 19.7578 3.93161 19.7578 3.93161C19.8007 3.97447 19.8221 4.01733 19.8864 4.03877Z" fill="black"></path><path d="M20.6577 5.04609C20.6577 5.04609 20.7006 5.06753 20.7006 5.04609C20.722 5.02466 20.7434 5.00323 20.722 4.96036V4.9818C20.7006 4.96036 20.7434 4.89607 20.7006 4.87463C20.6791 4.87463 20.6577 4.87463 20.6577 4.87463C20.6149 4.9175 20.6577 4.98179 20.6577 5.04609Z" fill="black"></path><path d="M20.9375 5.0461C20.9375 5.08929 20.9375 5.11089 20.9591 5.15408C20.9807 5.15408 21.0023 5.15408 21.0023 5.13248C20.9807 5.11089 20.9807 5.08929 20.9807 5.0677C21.0023 5.00291 20.9375 5.0677 20.9375 5.0461Z" fill="black"></path><path d="M20.8301 5.26035C20.8516 5.30321 20.873 5.26035 20.8944 5.19606C20.8944 5.19606 20.8944 5.19606 20.8944 5.17463C20.8944 5.17463 20.9159 5.17463 20.9159 5.19606L20.8944 5.17463C20.8516 5.13177 20.7873 5.08891 20.7444 5.13177C20.7015 5.19606 20.8087 5.19606 20.8301 5.26035Z" fill="black"></path><path d="M20.936 5.28174C20.9575 5.30317 20.8932 5.28175 20.9146 5.30318C20.9575 5.38889 21.0646 5.41032 21.1075 5.38889C21.1504 5.36746 21.1718 5.30317 21.1504 5.28174C21.1075 5.23888 21.0218 5.28174 20.9575 5.28174H20.936Z" fill="black"></path><path d="M21.3443 5.47468C21.3871 5.45325 21.3443 5.43182 21.3443 5.41039C21.3228 5.36753 21.3014 5.32466 21.2585 5.34609C21.2371 5.36752 21.1942 5.43182 21.2371 5.47468C21.2585 5.47468 21.3014 5.49611 21.3443 5.47468Z" fill="black"></path><path d="M21.4728 5.71045C21.4942 5.73188 21.5371 5.68902 21.5585 5.66758V5.62472C21.58 5.62472 21.58 5.62472 21.58 5.60329C21.6014 5.58186 21.58 5.539 21.5585 5.51756C21.5371 5.51756 21.4942 5.539 21.4728 5.51756C21.4728 5.51756 21.4728 5.51756 21.4728 5.49613C21.4514 5.4747 21.4085 5.45327 21.3871 5.4747C21.3442 5.51756 21.3442 5.56043 21.3656 5.60329C21.3871 5.64616 21.4299 5.68902 21.4728 5.71045Z" fill="black"></path><path d="M21.2368 5.90332C21.2582 5.90332 21.2797 5.88189 21.2797 5.86046C21.2797 5.8176 21.2797 5.79617 21.2797 5.75331C21.2797 5.73187 21.2582 5.73187 21.2368 5.73187C21.2154 5.7533 21.2154 5.79616 21.194 5.79616C21.1725 5.86046 21.194 5.90332 21.2368 5.90332Z" fill="black"></path><path d="M21.0016 1.57417C21.0016 1.57417 20.9802 1.57417 21.0016 1.57417C20.9802 1.55274 21.0016 1.53131 21.0016 1.53131C20.9587 1.48844 20.8944 1.50987 20.8516 1.50987C20.8944 1.57417 20.9373 1.61704 21.0016 1.57417Z" fill="black"></path><path d="M23.9379 3.71727C23.9808 3.76014 24.088 3.69584 24.1308 3.76013C24.1737 3.803 24.2166 3.91016 24.3023 3.91016C24.3666 3.91016 24.388 3.88872 24.4094 3.84586C24.4309 3.69584 24.3666 3.54582 24.238 3.48153C24.1094 3.43866 23.9594 3.43866 23.8308 3.43866C23.7451 3.43866 23.7451 3.54582 23.7879 3.58868C23.8094 3.61011 23.8736 3.65298 23.9379 3.71727Z" fill="black"></path><path d="M27.4955 8.21792C27.4098 8.11076 27.3883 7.96074 27.324 7.87502C27.2598 7.78929 27.1312 7.76786 27.0454 7.68213C27.024 7.63927 27.0883 7.53211 27.024 7.48925C26.9811 7.46781 26.9597 7.44638 26.9383 7.40352C26.8954 7.27493 26.8311 7.21064 26.724 7.14635C26.7454 6.99633 26.6168 6.93203 26.4882 6.88917C26.4882 6.88917 26.5097 6.84631 26.5097 6.82488C26.5097 6.76058 26.4239 6.73915 26.3811 6.73915C26.3596 6.71772 26.3382 6.73915 26.3168 6.71772C26.2525 6.63199 26.1453 6.5677 26.1239 6.48197C26.081 6.35338 25.9524 6.28909 25.8453 6.20336C25.8024 6.18193 25.7595 6.07478 25.7595 6.07478C25.6738 6.07478 25.5881 6.07477 25.5667 5.98905C25.5452 5.83903 25.4166 5.73188 25.3095 5.64615C25.138 5.51756 25.2881 5.26038 25.2238 5.0675C25.2023 4.98177 25.1166 4.98177 25.0523 4.98177C25.0309 4.98177 25.0094 4.96034 24.988 4.93891C24.9237 4.81032 24.9666 4.68174 24.9023 4.57458C24.7737 4.40313 24.6451 4.27454 24.5165 4.10309C24.4308 4.01736 24.3236 4.03879 24.2379 4.01736C24.2165 4.01736 24.195 3.99593 24.1736 3.9745C24.1522 3.95306 24.1308 3.9102 24.1093 3.86734C24.045 3.78161 23.9379 3.73875 23.8307 3.69589C23.6593 3.61016 23.4664 3.65302 23.2735 3.63159C23.1235 3.63159 22.952 3.67446 22.8449 3.76018C22.7163 3.86734 22.5663 3.9102 22.3948 3.95306C22.3305 3.97449 22.4162 4.03879 22.3948 4.10309C22.3519 4.16738 22.2662 4.23167 22.3091 4.29597C22.3305 4.29597 22.2662 4.29597 22.2876 4.3174C22.3091 4.36026 22.3948 4.3174 22.4377 4.3174C22.502 4.3174 22.5234 4.40313 22.5448 4.42456C22.6305 4.51028 22.6948 4.57458 22.7377 4.68174C22.7591 4.70317 22.6948 4.78889 22.7163 4.81032C22.802 4.91748 22.802 5.00321 22.802 5.11036C22.802 5.15323 22.9092 5.11036 22.9306 5.13179C23.0592 5.19608 23.102 5.38897 23.0592 5.51756C23.0377 5.58185 23.0377 5.68901 23.0806 5.77473C23.1449 5.90332 23.1663 6.0962 23.2949 6.20336C23.3164 6.1605 23.3592 6.09621 23.3806 6.11764C23.4878 6.13907 23.4878 6.05334 23.5521 6.01048C23.7664 5.88189 23.9379 6.13907 23.9807 6.31052C24.045 6.46054 23.9807 6.67486 24.045 6.82488C24.1093 6.9749 24.195 7.10348 24.3451 7.16777C24.3665 7.18921 24.3879 7.27494 24.4094 7.33923C24.4308 7.38209 24.4522 7.42495 24.5165 7.38209C24.5594 7.36066 24.5379 7.29637 24.6022 7.25351C24.6451 7.23207 24.688 7.27493 24.7308 7.29636C24.8594 7.46782 24.9023 7.81072 25.1595 7.78929C25.1595 7.83215 25.1809 7.85358 25.2023 7.87502C25.2666 7.89645 25.3095 7.81072 25.3309 7.87502C25.3738 7.93931 25.3952 8.0036 25.4595 8.04646C25.5452 8.0679 25.6524 8.04647 25.7381 8.0679C25.8024 8.08933 25.8453 8.15363 25.8881 8.21792C25.9096 8.26078 25.9524 8.30364 25.9739 8.3465C26.1453 8.51795 26.231 8.79656 26.4454 8.92515C26.5097 8.96802 26.5739 9.05374 26.6811 9.03231C26.7025 9.03231 26.6811 8.98944 26.724 8.98944C26.8097 8.98944 26.874 8.90372 26.8954 8.86086C26.9597 8.77514 27.0669 8.68941 27.174 8.62511V8.58225C27.2598 8.51795 27.3669 8.49653 27.4312 8.43223C27.5812 8.36794 27.5384 8.26078 27.4955 8.21792Z" fill="black"></path><path d="M24.0234 7.81073C24.045 7.81073 24.0666 7.83232 24.0882 7.83232C24.1098 7.83232 24.1314 7.83232 24.1314 7.83232L24.0234 7.81073Z" fill="black"></path><path d="M23.8516 8.30359C23.8944 8.36788 23.9587 8.36788 24.023 8.41075C24.0873 8.45361 24.1087 8.53933 24.173 8.5822C24.3016 8.64649 24.2373 8.45361 24.3016 8.38931C24.3231 8.36788 24.3873 8.38931 24.4088 8.36788C24.4731 8.26072 24.3873 8.13213 24.3016 8.04641C24.2373 7.98211 24.173 7.87495 24.0659 7.83209C24.023 7.81066 23.9587 7.81066 23.9373 7.87496C23.8944 7.96068 23.9373 8.06784 23.8944 8.15357C23.8944 8.19643 23.8516 8.26073 23.8516 8.30359Z" fill="black"></path><path d="M24.5149 8.71085C24.4721 8.86087 24.4935 9.03232 24.4721 9.2252C24.4506 9.31092 24.3221 9.28949 24.2792 9.37522C24.2578 9.41808 24.2363 9.48237 24.2363 9.54667C24.2578 9.65382 24.3863 9.65383 24.4721 9.69669C24.6864 9.80384 24.8793 9.95386 25.0079 10.1682C25.0507 10.2325 25.0722 10.3396 25.1364 10.4039C25.2007 10.4682 25.3079 10.4682 25.3293 10.5754C25.3293 10.6182 25.4151 10.6397 25.4579 10.6182C25.5651 10.5325 25.5651 10.3611 25.4793 10.2539C25.4365 10.211 25.3722 10.1467 25.3722 10.0824C25.3722 9.8467 25.2865 9.63239 25.1579 9.41808C25.0722 9.31092 24.9436 9.24663 24.8578 9.13947C24.8578 9.11804 24.815 9.07518 24.8364 9.05375C24.8578 8.98946 24.9221 8.96802 24.9436 8.90373C24.965 8.77514 24.815 8.73228 24.7935 8.62512C24.7935 8.62512 24.7507 8.62512 24.7293 8.62512L24.7935 8.64656C24.6864 8.56083 24.5578 8.60369 24.5149 8.71085Z" fill="black"></path><path d="M25.7589 9.86813C25.7374 9.80383 25.7589 9.71811 25.7589 9.65381C25.7589 9.52522 25.6088 9.5038 25.5017 9.5038C25.4588 9.5038 25.3945 9.48236 25.3945 9.54666C25.3945 9.58952 25.3945 9.65382 25.416 9.71811C25.6088 9.95386 25.6088 10.2753 25.6946 10.5539C25.716 10.6611 25.9089 10.5754 25.9517 10.4468C25.9732 10.3825 25.9732 10.3182 25.9732 10.2753C25.9518 10.211 25.8875 10.1682 25.866 10.1039C25.8232 10.0181 25.7803 9.95385 25.7589 9.86813Z" fill="black"></path><path d="M25.4595 9.13947C25.3738 9.20376 25.5024 9.28949 25.4809 9.37521H25.5238C25.5881 9.39665 25.5881 9.33235 25.5881 9.31092C25.4809 9.31092 25.5024 9.20376 25.5024 9.13947C25.4809 9.13947 25.4595 9.11804 25.4595 9.13947Z" fill="black"></path><path d="M25.3952 8.88231C25.3952 8.81801 25.3952 8.77515 25.331 8.75372C25.3095 8.83945 25.2238 8.81802 25.1809 8.86088C25.1166 8.90374 25.1809 8.98946 25.2452 9.01089C25.2667 9.01089 25.2667 9.03233 25.2667 9.03233C25.3952 9.07519 25.481 8.98947 25.4381 8.86088C25.4595 8.88231 25.4167 8.88231 25.3952 8.88231Z" fill="black"></path><path d="M24.9652 8.47506C25.0724 8.53936 24.9652 8.64652 25.0509 8.68938C25.1152 8.73224 25.2224 8.75367 25.2867 8.68938C25.3295 8.64652 25.2867 8.58222 25.2009 8.56079C25.1581 8.56079 25.1581 8.4965 25.1795 8.4322C25.1581 8.4322 25.1367 8.41077 25.1152 8.41077C25.0295 8.34648 25.2009 8.30361 25.1366 8.23932C25.1152 8.21789 25.1367 8.19646 25.1152 8.19646C25.0938 8.17503 25.0509 8.19645 25.0295 8.23932C25.0081 8.28218 25.0509 8.32504 25.0295 8.36791C25.0295 8.41077 24.9223 8.45363 24.9652 8.47506Z" fill="black"></path><path d="M24.9239 7.93935C24.881 7.91792 24.7953 7.96078 24.7525 7.87506C24.7525 7.87506 24.7096 7.87506 24.6882 7.87506C24.6667 7.87506 24.6667 7.89649 24.6667 7.89649C24.6453 7.93935 24.6024 7.96078 24.6453 8.00364C24.6882 8.04651 24.7096 8.06794 24.731 8.1108C24.7525 8.17509 24.8382 8.11079 24.8596 8.15365C24.881 8.19651 24.9239 8.21795 24.9453 8.19652C24.9882 8.17509 24.9453 8.11079 24.9668 8.06793C24.9453 8.08936 24.9453 8.02507 24.9239 8.0465C24.9453 8.00364 24.9668 7.96078 24.9239 7.93935Z" fill="black"></path><path d="M18.7718 11.947H18.8147C18.8147 11.9256 18.8147 11.9041 18.8361 11.8827C18.8576 11.8398 18.8361 11.8184 18.8147 11.797C18.7933 11.7541 18.729 11.797 18.7504 11.8613H18.7933C18.7504 11.8827 18.7504 11.9041 18.7718 11.947Z" fill="black"></path><path d="M25.5439 10.854C25.4368 10.8111 25.3296 10.8754 25.2224 10.9397C25.0081 11.0468 24.9867 11.3255 24.8581 11.4755C24.7724 11.5826 24.6652 11.6255 24.5366 11.6255C24.5152 11.6255 24.4723 11.6041 24.4723 11.5612C24.4723 11.4969 24.4509 11.4326 24.4938 11.3898C24.5366 11.3683 24.5795 11.3255 24.6224 11.2826C24.6866 11.1969 24.6438 11.0897 24.6009 11.004C24.5581 10.8111 24.3437 10.7039 24.1723 10.7254C24.0008 10.7682 23.8723 10.9611 23.7865 11.1111H23.7437C23.6794 11.0254 23.5722 10.9826 23.5293 10.8968C23.5079 10.8968 23.5079 10.8754 23.5293 10.854C23.5936 10.8968 23.6579 11.004 23.7437 10.9611C23.8294 10.9183 23.7651 10.8111 23.7008 10.7897C23.6365 10.7682 23.5722 10.7039 23.5079 10.7039C23.4436 10.7039 23.3793 10.6182 23.3579 10.5539C23.3365 10.4468 23.315 10.3182 23.2293 10.2967C23.1436 10.2539 23.0579 10.2539 22.9507 10.1896C22.9078 10.1682 22.865 10.211 22.8221 10.1896C22.8435 10.1682 22.8221 10.1039 22.8435 10.1039C22.9507 10.0824 23.1007 10.0824 23.015 9.97527C22.9936 9.91098 22.9293 9.84668 22.8435 9.91098C22.8221 9.91098 22.7792 9.91097 22.7792 9.95384C22.7578 9.97527 22.7578 9.9967 22.7578 10.0181C22.7364 10.061 22.8007 10.1467 22.7578 10.1896C22.6935 10.2324 22.5864 10.2324 22.5006 10.2967C22.5006 10.2967 22.4578 10.2967 22.4363 10.2967C22.3506 10.2753 22.2435 10.1896 22.2006 10.211C22.1577 10.2753 22.1363 10.361 22.072 10.4039C22.0077 10.4253 21.9434 10.4253 21.8791 10.4682C21.772 10.5111 21.8363 10.6396 21.8791 10.7468C21.9006 10.7682 21.8791 10.8325 21.8577 10.854C21.7934 10.8968 21.772 10.8111 21.7505 10.7682C21.7291 10.6825 21.6862 10.5754 21.6862 10.4682C21.6862 10.361 21.8148 10.2967 21.8363 10.211C21.8577 10.1467 21.8791 10.0824 21.8363 10.0181C21.7934 9.95384 21.7077 9.91098 21.6434 9.93241C21.4719 9.97527 21.4076 10.2967 21.2147 10.211C21.129 10.1682 21.0433 10.0824 20.9361 10.0181C20.8718 9.97527 20.8075 9.93241 20.7647 9.9967C20.6361 10.1039 20.4646 10.1467 20.3361 10.211C20.2075 10.2753 20.1003 10.4039 20.036 10.5539C19.9503 10.7254 19.6502 10.8111 19.5431 10.6182C19.5002 10.5111 19.3931 10.4468 19.2859 10.4468C19.1788 10.4682 19.1573 10.5968 19.0502 10.6182C18.9644 10.6396 18.9216 10.5968 18.8787 10.5539C18.8787 10.5325 18.8787 10.5111 18.8787 10.5111C19.0287 10.3825 19.1788 10.2967 19.3716 10.2325C19.4574 10.1896 19.4788 10.1039 19.4359 10.0181C19.4359 9.9967 19.4359 9.97527 19.4145 9.95384C19.4145 9.91097 19.3931 9.84668 19.3931 9.84668C19.1573 9.86811 18.9644 10.0181 18.8573 10.2325C18.8358 10.2539 18.8358 10.2967 18.8144 10.2967C18.6644 10.2753 18.5144 10.361 18.4072 10.2753C18.3858 10.2539 18.3429 10.1039 18.3215 10.1039C18.2572 10.1682 18.2358 10.2324 18.1715 10.3182C18.15 10.3396 18.1286 10.361 18.0857 10.4039C18 10.5325 18.1715 10.6611 18.1286 10.7682C18.1072 10.8111 17.9572 10.8111 17.8929 10.854C17.85 10.854 17.85 10.9397 17.85 10.9826C17.85 11.0254 17.8929 11.0254 17.9357 11.0468C18.0215 11.1326 18.0215 11.2612 18.1286 11.3255C18.2572 11.3898 18.4072 11.3469 18.5787 11.3898C18.6858 11.4112 18.7501 11.4755 18.793 11.5826C18.8144 11.6469 18.9001 11.6684 18.9001 11.7541C18.9001 11.797 18.943 11.8184 18.9859 11.8398C19.0287 11.8612 19.093 11.797 19.1359 11.8398C19.2002 11.8612 19.1788 11.947 19.2002 11.9898C19.2216 12.097 19.1788 12.2041 19.2859 12.3113C19.3288 12.3542 19.243 12.4613 19.2002 12.5042C19.1788 12.5256 19.1145 12.5256 19.093 12.5471C19.0716 12.6328 19.093 12.7185 19.1359 12.8042C19.1788 12.8471 19.2216 12.8042 19.243 12.8257C19.3288 12.9328 19.3502 13.04 19.4145 13.1257C19.4359 13.1686 19.4788 13.2114 19.5217 13.2329C19.4788 13.2329 19.4574 13.2972 19.4788 13.3186C19.5002 13.34 19.5645 13.3829 19.6074 13.34C19.6502 13.2972 19.7145 13.2757 19.7788 13.2329C19.8217 13.19 19.8646 13.2114 19.9074 13.19C19.9503 13.2329 19.9717 13.2972 19.9503 13.34C19.8646 13.4257 19.7145 13.3615 19.6288 13.4257C19.5645 13.4472 19.5002 13.4472 19.4574 13.49C19.4359 13.5329 19.4574 13.5972 19.5217 13.5972C19.7145 13.6401 19.5645 13.9401 19.4574 14.0901C19.4359 14.1116 19.4574 14.1758 19.4574 14.2401C19.4574 14.2616 19.4145 14.283 19.3931 14.283C19.2002 14.3044 19.0073 14.2401 18.8144 14.3044C18.7501 14.3259 18.7287 14.4116 18.6858 14.4759H18.7287C18.6858 14.4759 18.6858 14.5402 18.6644 14.5616C18.643 14.583 18.6644 14.6688 18.643 14.6902C18.4715 14.8831 18.4501 15.1188 18.4072 15.3331C18.4072 15.3974 18.4929 15.4403 18.5358 15.4403C18.5787 15.4403 18.643 15.3974 18.6858 15.3974C18.7716 15.3974 18.7501 15.5475 18.793 15.6118C18.8358 15.6761 18.9644 15.6975 18.9644 15.5903C18.9859 15.5046 18.9859 15.4189 19.0073 15.3546C19.0287 15.2689 18.943 15.1831 18.9216 15.0974C18.9001 15.0117 18.943 14.9474 18.9859 14.8831C19.0287 14.8617 19.0716 14.8831 19.093 14.9474C19.1145 14.9902 19.1145 15.0545 19.1359 15.1188C19.1573 15.1831 19.1145 15.2474 19.1359 15.2903C19.1788 15.3332 19.1788 15.3974 19.1788 15.4403C19.1788 15.4617 19.1359 15.4832 19.1359 15.526C19.1145 15.5903 19.1573 15.6761 19.093 15.6975C19.0287 15.7404 19.0502 15.8261 18.9644 15.8261C18.8144 15.8261 18.6215 15.7618 18.6644 15.5903C18.6001 15.5903 18.5358 15.5903 18.5144 15.6332C18.4715 15.6975 18.5144 15.8046 18.4715 15.8689C18.4072 15.9332 18.3858 16.019 18.3215 16.0833C18.3001 16.1047 18.3429 16.1047 18.3215 16.1476C18.2358 16.2547 18.15 16.2761 18.0429 16.3619C18.0429 16.3619 18.0429 16.3619 18.0429 16.3833C17.9786 16.4262 17.8714 16.3619 17.85 16.4262C17.8071 16.5119 17.9357 16.5762 17.9786 16.6405C18 16.7048 18 16.7691 17.9143 16.7691C17.8071 16.7905 17.7 16.7691 17.5714 16.7691C17.5714 16.8119 17.55 16.7905 17.55 16.8119C17.5285 16.9191 17.55 17.0048 17.4642 17.0905C17.4214 17.1548 17.4857 17.2406 17.5285 17.2834C17.5714 17.3477 17.5928 17.4334 17.6571 17.4549C17.7 17.4549 17.7428 17.5192 17.7857 17.4977C17.8929 17.4763 17.9572 17.4334 18 17.3263C18.0215 17.262 18.1072 17.3263 18.1929 17.3263C18.2143 17.3263 18.2572 17.3048 18.2572 17.2834C18.3001 17.2191 18.2572 17.1334 18.2786 17.0905C18.3858 16.9834 18.4929 16.8762 18.643 16.7905C18.6858 16.7476 18.7501 16.7048 18.8358 16.7262C18.8787 16.7476 18.9216 16.7691 18.9859 16.7905C19.0287 16.8119 19.093 16.8548 19.1359 16.8762C19.1573 16.8977 19.2002 16.8976 19.2216 16.9191C19.3073 16.9619 19.3716 17.0691 19.4788 17.1334C19.5002 17.1334 19.4788 17.0905 19.5217 17.112C19.5217 17.0262 19.5002 16.9405 19.4574 16.8762C19.3931 16.7905 19.3073 16.7476 19.2216 16.6833C19.2002 16.6619 19.2002 16.5976 19.243 16.5547C19.243 16.5333 19.2859 16.5333 19.2859 16.5547C19.3502 16.5976 19.3931 16.5976 19.4574 16.6405C19.5645 16.6833 19.5431 16.8548 19.6502 16.9191C19.7145 16.9405 19.736 17.0262 19.8003 17.0477C19.886 17.0691 20.0146 17.0477 20.0574 16.9405C20.1003 16.8762 20.036 16.8548 19.9931 16.8119C19.9074 16.7476 20.036 16.7262 20.0789 16.6619C20.1432 16.5762 20.0789 16.5119 20.0789 16.4262C20.0789 16.3833 20.1003 16.3619 20.1217 16.3619C20.1217 16.3619 20.1217 16.3404 20.1432 16.3404C20.186 16.2333 20.1432 16.1261 20.186 16.0404C20.2075 16.019 20.2289 16.019 20.2289 16.0404C20.2503 16.0833 20.3146 16.1261 20.3575 16.1047C20.4432 16.0833 20.5075 16.0404 20.5504 15.9761C20.6147 15.8904 20.7647 15.9332 20.8075 16.019C20.829 16.0833 20.8075 16.169 20.7433 16.1904C20.5718 16.2118 20.4218 16.2976 20.2932 16.3833C20.2718 16.4047 20.2503 16.4047 20.2503 16.4262C20.186 16.469 20.1432 16.5333 20.186 16.6405C20.186 16.6833 20.1432 16.7262 20.1003 16.7691C20.1646 16.7905 20.1646 16.8762 20.2289 16.8977C20.3361 16.9191 20.4432 16.9191 20.5289 16.8548C20.5504 16.8119 20.5718 16.7691 20.5504 16.7048C20.6147 16.7048 20.679 16.6405 20.7433 16.619C20.8933 16.5976 20.979 16.7691 20.9361 16.8977C20.9361 16.9191 20.8933 16.9191 20.8718 16.9405C20.7861 17.0691 20.7433 17.1977 20.6147 17.2406C20.4218 17.3477 20.186 17.3049 20.0146 17.412C19.9503 17.4549 19.9289 17.562 19.8217 17.6049C19.736 17.6263 19.6288 17.6692 19.5431 17.6049V17.6263C19.5431 17.6906 19.3502 17.6478 19.243 17.6049C19.2216 17.6049 19.2216 17.4977 19.1788 17.4763C19.1359 17.4549 19.0716 17.4763 19.0716 17.4549C19.0502 17.4334 19.0716 17.3906 19.0502 17.3691C18.8144 17.3263 18.6001 17.3906 18.3858 17.3691C18.3215 17.3691 18.3429 17.4549 18.2786 17.4763C18.2358 17.4977 18.1929 17.5406 18.15 17.562C18.0643 17.6049 17.9572 17.6692 17.85 17.6263C17.7428 17.6692 17.6571 17.6692 17.5714 17.6906C17.4214 17.712 17.3356 17.8406 17.2285 17.9264C17.1428 17.9907 17.0356 17.9907 16.9284 17.9907C16.907 17.9907 16.907 18.0335 16.8856 18.0335C16.7356 18.0764 16.5855 18.2693 16.4998 18.4407C16.4784 18.4836 16.4998 18.5479 16.4784 18.5907C16.3927 18.7193 16.3498 18.8479 16.2426 18.9551C16.2212 18.9765 16.2212 18.9979 16.2426 19.0194C16.3712 19.1908 16.5212 19.298 16.6498 19.4909C16.6713 19.5337 16.7356 19.5337 16.757 19.5766C16.7999 19.6838 16.8856 19.7909 16.9284 19.8981C17.0142 20.0481 17.2285 20.0909 17.3999 20.0481C17.4642 20.0267 17.55 20.0909 17.6143 20.1124C17.8286 20.1338 18.0429 20.1767 18.2358 20.0695C18.5358 20.1552 18.8358 20.0267 19.093 20.1552C19.1359 20.1767 19.1359 20.2624 19.1788 20.3267C19.243 20.4339 19.3073 20.5624 19.4359 20.6482C19.5217 20.7125 19.6502 20.7553 19.7788 20.7768C19.8217 20.7768 19.8217 20.8625 19.8431 20.9053C19.886 20.9482 19.8646 21.0339 19.9074 21.0768C19.9717 21.1411 20.036 21.184 20.0146 21.2697C20.0146 21.3768 19.886 21.4626 19.9717 21.6126C19.9931 21.6554 19.9717 21.7197 19.9931 21.7626C20.1646 21.9341 20.3146 22.0841 20.5075 22.2341C20.5289 22.2555 20.5718 22.277 20.5504 22.3198C20.6361 22.3413 20.6361 22.427 20.7004 22.4698C20.7433 22.5127 20.7218 22.5984 20.7647 22.6413C20.829 22.727 20.9147 22.8127 20.979 22.877C21.0862 22.9628 21.2147 22.9413 21.3433 22.9628C21.3648 22.9842 21.4076 23.0056 21.4505 23.0056C21.5576 23.0485 21.6862 23.0485 21.7934 22.9842C21.8363 22.9413 21.9006 22.8556 21.9434 22.8127C22.0291 22.7485 22.1792 22.7485 22.2863 22.727C22.3078 22.727 22.3506 22.7056 22.3506 22.6842C22.372 22.6199 22.4363 22.577 22.4149 22.5127C22.5006 22.5127 22.5649 22.4698 22.6507 22.427C22.8007 22.3627 22.9078 22.2127 23.0364 22.0841C23.165 21.9555 23.4008 22.0198 23.4651 21.8698C23.5508 21.7197 23.4436 21.5269 23.5079 21.3768C23.5508 21.2911 23.5936 21.2054 23.5936 21.1197C23.6151 20.9696 23.6151 20.8196 23.5936 20.691C23.5936 20.6053 23.5079 20.5196 23.5079 20.4339C23.5079 20.3696 23.6151 20.3696 23.6365 20.3267C23.6794 20.2195 23.7437 20.0909 23.808 19.9838C23.808 19.9624 23.8508 19.9409 23.8937 19.9195C23.958 19.8766 23.8937 19.8123 23.9151 19.7695C23.8723 19.748 23.8508 19.7052 23.8294 19.6838C23.7008 19.5123 23.5936 19.3408 23.4008 19.2551C23.3579 19.2337 23.3365 19.1908 23.315 19.148C23.2936 19.1265 23.315 19.0837 23.2936 19.0622C23.2507 19.0194 23.2722 18.9765 23.2507 18.9336H23.2936C23.2722 18.9336 23.2722 18.9122 23.2722 18.9122C23.315 18.8051 23.3793 18.6765 23.4651 18.6122C23.4865 18.5907 23.5722 18.5907 23.5722 18.5479C23.5936 18.4407 23.5936 18.3336 23.5508 18.2478C23.4651 18.1192 23.5508 17.9907 23.5293 17.8621C23.5079 17.6263 23.5079 17.412 23.4008 17.1977C23.3793 17.1334 23.315 17.0905 23.2293 17.112C23.1864 17.112 23.1864 17.1763 23.165 17.1977C23.1436 17.2406 23.1221 17.2834 23.1221 17.3477C23.0793 17.4334 22.9721 17.4549 22.9507 17.5406C22.9293 17.5835 22.9293 17.6478 22.9078 17.6692C22.865 17.712 22.8435 17.7763 22.7792 17.7763C22.6935 17.7978 22.6078 17.8192 22.5221 17.8406C22.4363 17.8621 22.3292 17.8621 22.2435 17.8406C21.7505 17.6906 21.3219 17.5192 20.829 17.3691C20.829 17.3691 20.829 17.3477 20.829 17.3263C20.9147 17.2834 21.0004 17.3477 21.0647 17.3263C21.129 17.3263 21.0433 17.2406 21.0862 17.2406C21.1933 17.262 21.279 17.3263 21.3648 17.3691C21.5791 17.4334 21.772 17.4549 21.9863 17.5192C22.1577 17.562 22.2649 17.6692 22.4363 17.712C22.5649 17.7549 22.6721 17.6478 22.7792 17.6049C22.7792 17.6049 22.7792 17.562 22.7792 17.5406C22.8221 17.4549 22.9078 17.412 22.9507 17.3263C22.9721 17.262 22.9293 17.1763 22.9721 17.112C22.9936 17.0905 23.0364 17.0477 23.0579 17.0048C23.0793 16.8977 23.0579 16.7905 23.0579 16.6833C23.1221 16.6833 23.165 16.619 23.1436 16.5976C23.1221 16.5762 23.1221 16.5547 23.1221 16.5333C23.1221 16.469 23.1221 16.4047 23.1436 16.3404C23.1864 16.1904 23.1221 16.0404 23.0579 15.8904C23.015 15.8261 22.9293 15.8046 22.865 15.8261C22.8435 15.8475 22.8221 15.8904 22.8221 15.8904C22.7364 15.8904 22.6721 15.9332 22.6292 15.9547C22.5649 15.9975 22.5649 16.1261 22.5221 16.169C22.4363 16.2547 22.3292 16.319 22.222 16.3833C22.1363 16.4262 22.0291 16.3833 22.0077 16.319C21.922 16.1261 22.2006 16.1475 22.3506 16.1261C22.372 16.1047 22.3935 16.0833 22.4149 16.0618C22.4578 15.9761 22.4792 15.8904 22.5435 15.8475C22.5864 15.8261 22.6507 15.8261 22.6935 15.8261C22.7364 15.8475 22.7792 15.7618 22.8435 15.7403C22.8864 15.7189 22.8864 15.6546 22.8864 15.5903C22.9078 15.5046 23.015 15.4617 23.0364 15.3974C23.1221 15.2474 23.1221 15.0117 23.2507 14.8831C23.3365 14.8188 23.2936 14.9902 23.315 15.0331C23.3579 15.0974 23.5079 15.0974 23.5722 15.0331C23.6151 14.9902 23.5722 14.8831 23.6365 14.8402C23.6794 14.8402 23.7222 14.8402 23.7437 14.8402C23.808 14.8831 23.8723 14.9474 23.9365 14.9045C23.9794 14.8831 24.0223 14.8188 24.0651 14.7974C24.1294 14.7759 24.2152 14.7974 24.2794 14.7545C24.4509 14.6688 24.8367 14.7974 24.8152 14.6259C24.7724 14.3473 24.5581 14.1116 24.3009 14.0044C24.108 13.8972 24.1723 13.6401 24.0008 13.4686C23.958 13.4472 23.9794 13.3615 23.9365 13.3186C23.9151 13.2972 23.8937 13.2972 23.8723 13.2757C23.8508 13.2543 23.808 13.2329 23.808 13.2114C23.8294 13.0614 23.7651 12.9328 23.8508 12.8042C23.8937 12.7399 23.9794 12.7185 24.0223 12.6756C24.0866 12.6113 24.1937 12.5899 24.1937 12.5042C24.1937 12.397 24.1937 12.2684 24.2152 12.1613C24.2152 12.1184 24.3009 12.0756 24.3437 12.0756C24.5366 12.0756 24.7724 12.1399 24.9653 12.0113C25.0081 11.9684 25.0296 11.9041 25.051 11.8612C25.201 11.6469 25.4153 11.4755 25.4153 11.1969C25.4153 11.154 25.501 11.1326 25.501 11.0897C25.5653 10.8968 25.5653 10.854 25.5439 10.854ZM21.6005 15.5475C21.6005 15.5689 21.6005 15.5903 21.6005 15.5903C21.5576 15.6332 21.4934 15.6118 21.4719 15.5475C21.4505 15.5046 21.4076 15.4403 21.3648 15.3974C21.3219 15.3974 21.2576 15.3974 21.2362 15.4403C21.1933 15.3974 21.129 15.4403 21.0862 15.4189C21.1076 15.3331 21.0219 15.3332 20.979 15.2689C20.9361 15.226 20.9361 15.1188 21.0219 15.0974C21.0862 15.076 21.129 15.1188 21.1505 15.1831C21.1505 15.1617 21.129 15.1617 21.129 15.1617C21.129 15.1831 21.1076 15.2046 21.129 15.226C21.1719 15.2689 21.2362 15.2046 21.3005 15.2474C21.3648 15.2903 21.4719 15.226 21.5362 15.2689C21.5362 15.2689 21.5362 15.3117 21.5576 15.3117C21.6434 15.3117 21.6862 15.3974 21.6648 15.4617C21.6434 15.526 21.6219 15.5475 21.6005 15.5475Z" fill="black"></path><path d="M13.543 30.6781C14.6574 29.0065 18.0436 27.2491 21.3655 27.2491C24.7088 27.2491 28.3093 29.1779 29.7237 28.1492C29.7237 28.1492 28.2664 29.4137 25.3303 29.4137C22.3942 29.4137 21.2797 27.9349 19.2223 27.9349C17.1863 27.9349 15.0217 29.5851 14.1216 30.9782L13.543 30.6781Z" fill="black"></path><path d="M24.0449 27.0133C24.0449 27.0133 25.0093 26.4347 25.5237 25.3631C26.038 24.2915 27.3668 22.5984 28.717 21.5483C28.717 21.5483 27.1954 26.3275 25.6523 26.5418C25.6523 26.5418 25.3951 26.6918 25.8452 26.6061C26.2952 26.5418 28.2669 25.7917 28.9742 25.6846C29.6814 25.556 31.3959 25.1702 31.8674 24.7201C32.2532 24.3344 32.5318 24.3987 32.5318 24.3987C32.5318 24.3987 30.603 27.592 27.1525 27.592C27.1739 27.5491 25.4594 27.4205 24.0449 27.0133Z" fill="black"></path><path d="M28.1367 25.3417C28.1367 25.3417 28.5011 24.7845 28.5868 23.82C28.6511 22.877 29.2297 20.691 30.9014 18.2907C30.9014 18.2907 31.1371 22.0627 29.2512 24.3773C29.2512 24.3773 29.144 24.6987 29.3797 24.463C29.6155 24.2272 30.8157 22.7913 33.366 21.0554C33.366 21.0554 34.6948 19.9624 34.7805 19.598C34.759 19.6409 33.7303 24.9773 28.1367 25.3417Z" fill="black"></path><path d="M31.3748 21.784C31.3748 21.784 31.5249 21.184 31.5249 20.6696C31.5249 20.1553 31.3105 18.3979 31.3105 17.6263C31.3105 16.8334 31.3963 15.3975 31.9749 14.4116C31.9749 14.4116 31.9749 15.2903 32.1678 15.6761C32.3607 16.0618 32.575 17.6049 32.575 17.7978C32.575 17.9907 32.5321 19.3194 32.1892 20.0052C32.1892 20.0052 32.4464 19.8766 32.7036 19.3623C32.9822 18.8479 33.6252 17.905 34.6324 16.8977C35.6183 15.8904 35.8326 14.9903 35.8326 14.9903C35.8326 14.9903 36.0684 16.7262 34.7825 18.5693C33.4966 20.4339 32.9608 20.1124 32.2535 20.8625C32.275 20.8411 31.4606 21.8269 31.3748 21.784Z" fill="black"></path><path d="M33.3881 17.562C33.3881 17.562 33.3452 16.4905 33.1523 16.1476C32.938 15.8047 31.8021 13.7044 32.0379 11.004C32.0379 11.004 32.2308 10.8326 32.5951 11.8827C32.9594 12.9328 33.4738 13.2329 33.6452 14.283C33.8167 15.3332 33.8167 15.7618 33.8167 15.7618C33.8167 15.7618 33.9453 15.9118 33.9453 15.7832C33.9453 15.6546 34.0739 14.2616 34.6525 12.9757C35.2312 11.6898 36.0027 10.4682 35.9384 9.61096C35.9384 9.61096 36.2813 9.63239 36.217 11.0254C36.1527 12.4185 35.7884 14.8188 33.3881 17.562Z" fill="black"></path><path d="M34.0312 13.3186C34.0312 13.3186 33.6025 12.3542 33.3239 12.0327C33.0239 11.7327 31.0093 8.77512 30.8379 7.44637C30.8379 7.44637 31.0093 7.36065 31.2022 7.68212C31.3951 8.02502 32.381 8.98944 32.531 9.13946C32.7024 9.28948 33.7311 10.3825 33.8169 11.5398C33.8169 11.5398 33.924 11.6684 33.7097 9.71811C33.5168 7.78927 34.3527 6.52481 33.6668 5.1532C33.6668 5.1532 34.6098 5.30322 35.1242 9.28948C35.1242 9.28948 35.1028 10.704 34.3741 12.4185C34.3955 12.4185 34.1383 13.3186 34.0312 13.3186Z" fill="black"></path><path d="M33.2807 8.94658C33.2807 8.94658 32.5306 8.17504 31.909 7.8107C31.309 7.44637 29.4016 5.5604 29.0801 4.10306C29.0801 4.10306 29.2087 3.93161 29.8087 4.746C30.2802 5.36752 30.7517 5.06748 32.1448 6.82486C32.1448 6.82486 32.3377 7.21062 32.4448 7.18919C32.5306 7.16776 32.402 6.78199 32.402 6.78199C32.402 6.78199 32.1234 5.68899 32.1019 5.30322C32.0805 4.91746 31.5233 2.86003 31.3304 2.58142C31.3304 2.58142 33.1949 3.653 33.4735 6.6534C33.4735 6.63197 33.3878 8.81799 33.2807 8.94658Z" fill="black"></path><path d="M31.6734 5.73192C31.6734 5.73192 31.802 3.09584 28.3301 1.76709C28.3301 1.76709 29.5302 4.23171 30.4304 4.81036C31.3519 5.38901 31.6734 5.73192 31.6734 5.73192Z" fill="black"></path><path d="M22.8448 30.6781C21.7304 29.0065 18.3442 27.2491 15.0223 27.2491C11.7005 27.2491 8.07854 29.1779 6.66406 28.1492C6.66406 28.1492 8.1214 29.4137 11.0575 29.4137C13.9936 29.4137 15.1081 27.9349 17.1655 27.9349C19.2015 27.9349 21.3661 29.5851 22.2662 30.9782L22.8448 30.6781Z" fill="black"></path><path d="M12.3423 27.0133C12.3423 27.0133 11.3779 26.4347 10.8636 25.3631C10.3492 24.2915 9.02046 22.5984 7.67027 21.5483C7.67027 21.5483 9.17048 26.3275 10.735 26.5418C10.735 26.5418 10.9707 26.6918 10.5421 26.6061C10.092 26.5418 8.0989 25.7917 7.4131 25.6846C6.70586 25.556 4.96991 25.1702 4.51984 24.7201C4.13408 24.3344 3.85547 24.3987 3.85547 24.3987C3.85547 24.3987 5.7843 27.592 9.23477 27.592C9.23477 27.5491 10.9279 27.4205 12.3423 27.0133Z" fill="black"></path><path d="M8.2496 25.3417C8.2496 25.3417 7.88527 24.7845 7.82097 23.82C7.75668 22.877 7.1566 20.691 5.50637 18.2907C5.50637 18.2907 5.27063 22.0627 7.13517 24.3773C7.13517 24.3773 7.26375 24.6987 7.02801 24.463C6.79226 24.2272 5.5921 22.7913 3.04175 21.0554C3.04175 21.0554 1.713 19.9624 1.62727 19.598C1.60584 19.6409 2.65598 24.9773 8.2496 25.3417Z" fill="black"></path><path d="M5.01373 21.784C5.01373 21.784 4.86371 21.184 4.86371 20.6696C4.86371 20.1553 5.07802 18.3979 5.07802 17.6263C5.07802 16.8334 5.01373 15.3975 4.39222 14.4116C4.39222 14.4116 4.39222 15.2903 4.19933 15.6761C4.00645 16.0618 3.79213 17.6049 3.79213 17.7978C3.79213 17.9907 3.835 19.3194 4.1779 20.0052C4.1779 20.0052 3.94216 19.8766 3.66355 19.3623C3.40637 18.8479 2.74199 17.905 1.75614 16.8977C0.770294 15.8904 0.534547 14.9903 0.534547 14.9903C0.534547 14.9903 0.298801 16.7262 1.58469 18.5693C2.87058 20.4339 3.40637 20.1124 4.11361 20.8625C4.11361 20.8411 4.928 21.8269 5.01373 21.784Z" fill="black"></path><path d="M2.99863 17.562C2.99863 17.562 3.04149 16.4905 3.23437 16.1476C3.42726 15.8047 4.60599 13.7044 4.34881 11.004C4.34881 11.004 4.15593 10.8326 3.79159 11.8827C3.42726 12.9328 2.9129 13.2329 2.74145 14.283C2.57 15.3332 2.57 15.7618 2.57 15.7618C2.57 15.7618 2.44141 15.9118 2.44141 15.7832C2.44141 15.6546 2.31282 14.2616 1.73417 12.9757C1.15552 11.6898 0.362554 10.4682 0.44828 9.61096C0.44828 9.61096 0.105376 9.63239 0.148239 11.0254C0.233965 12.4185 0.598301 14.8188 2.99863 17.562Z" fill="black"></path><path d="M2.35668 13.3186C2.35668 13.3186 2.76388 12.3542 3.06392 12.0327C3.36396 11.7327 5.35709 8.77512 5.54997 7.44637C5.54997 7.44637 5.37852 7.36065 5.18564 7.68212C4.99275 8.02502 4.02834 8.98944 3.85688 9.13946C3.68543 9.28948 2.67815 10.3825 2.57099 11.5398C2.57099 11.5398 2.48527 11.6684 2.67815 9.71811C2.87103 7.78927 2.05664 6.52481 2.72101 5.1532C2.72101 5.1532 1.77803 5.30322 1.26367 9.28948C1.26367 9.28948 1.2851 10.704 2.01377 12.4185C1.99234 12.4185 2.24952 13.3186 2.35668 13.3186Z" fill="black"></path><path d="M3.08356 8.94658C3.08356 8.94658 3.83366 8.17504 4.45518 7.8107C5.05526 7.44637 6.96266 5.5604 7.30557 4.10306C7.30557 4.10306 7.17698 3.93161 6.57689 4.746C6.1054 5.36752 5.63391 5.06748 4.24086 6.82486C4.24086 6.82486 4.04798 7.21062 3.94082 7.18919C3.83366 7.16776 3.98368 6.78199 3.98368 6.78199C3.98368 6.78199 4.26229 5.68899 4.26229 5.30322C4.28372 4.91746 4.84094 2.86003 5.05526 2.58142C5.05526 2.58142 3.16929 3.653 2.91211 6.6534C2.93354 6.63197 2.99784 8.81799 3.08356 8.94658Z" fill="black"></path><path d="M4.71351 5.73192C4.71351 5.73192 4.58492 3.09584 8.03539 1.76709C8.03539 1.76709 6.83523 4.23171 5.9351 4.81036C5.03498 5.38901 4.71351 5.73192 4.71351 5.73192Z" fill="black"></path></svg>