<svg xmlns="http://www.w3.org/2000/svg" width="325" height="80" viewBox="0 0 325 80" fill="none"><path d="M105.17 40.4749C105.17 24.9374 116.475 12.9899 132.443 12.9899C148.408 12.9899 159.713 24.9899 159.713 40.4774C159.713 56.0149 148.408 67.9624 132.443 67.9624C116.475 67.9624 105.168 56.0124 105.168 40.4774L105.17 40.4749ZM152.158 40.4749C152.158 29.0099 144.39 19.6349 132.443 19.6349C120.493 19.6349 112.725 29.0099 112.725 40.4774C112.725 51.9424 120.493 61.3174 132.44 61.3174C144.39 61.3174 152.158 51.9424 152.158 40.4749ZM206.328 25.6349C203.38 21.7774 198.505 19.6349 193.683 19.6349C181.95 19.6349 174.183 29.0099 174.183 40.9049C174.183 51.8874 181.52 61.3174 193.683 61.3174C199.683 61.3174 204.238 58.6399 207.345 54.2999L213.345 58.7999C211.795 60.9424 205.525 67.9624 193.523 67.9624C176.913 67.9624 166.625 54.0849 166.625 40.9049C166.625 24.6174 177.77 12.9374 193.898 12.9374C200.755 12.9374 208.043 15.5074 212.223 21.0799L206.328 25.6349V25.6349ZM221.92 14.3299H228.993V36.0824H256.103V14.3299H263.228V66.6749H256.103V42.7249H228.993V66.6749H221.918V14.3299H221.92ZM293.073 14.3299H299.5L321.898 66.6749H313.593L308.343 53.7624H283.48L278.285 66.6749H269.98L293.073 14.3299V14.3299ZM305.77 47.4949L296.018 23.4924H295.858L285.945 47.4949H305.77ZM38.2502 32.2774C38.2516 30.3596 39.014 28.5208 40.3701 27.1647C41.7261 25.8086 43.565 25.0462 45.4827 25.0449C47.4009 25.0455 49.2404 25.8077 50.597 27.1638C51.9537 28.52 52.7164 30.3592 52.7177 32.2774C52.722 33.2285 52.5379 34.171 52.176 35.0506C51.8141 35.9302 51.2816 36.7293 50.6091 37.402C49.9367 38.0747 49.1377 38.6075 48.2583 38.9697C47.3788 39.3319 46.4364 39.5164 45.4852 39.5124V38.5999C47.1611 38.5966 48.7673 37.9294 49.9523 36.7444C51.1373 35.5594 51.8044 33.9532 51.8077 32.2774C51.8038 30.6016 51.136 28.9956 49.9505 27.8111C48.7651 26.6266 47.1586 25.96 45.4827 25.9574C43.8078 25.9613 42.2026 26.6285 41.0182 27.8128C39.8338 28.9972 39.1667 30.6024 39.1627 32.2774C39.1654 33.9536 39.8323 35.5605 41.0173 36.746C42.2024 37.9316 43.809 38.5991 45.4852 38.6024V39.5124C41.5202 39.5649 38.2502 36.2974 38.2502 32.2774V32.2774Z" fill="white"></path><path d="M32.4649 32.2774C32.4695 28.8259 33.8428 25.5172 36.2836 23.0769C38.7244 20.6365 42.0334 19.2639 45.4849 19.2599C48.9353 19.2645 52.243 20.6372 54.6828 23.077C57.1226 25.5168 58.4953 28.8245 58.4999 32.2749C58.4999 39.4549 52.6624 45.2424 45.4824 45.2949V44.3849C48.6921 44.3789 51.7686 43.1011 54.038 40.8312C56.3074 38.5614 57.5846 35.4846 57.5899 32.2749C57.5912 30.6845 57.2789 29.1095 56.671 27.64C56.063 26.1704 55.1712 24.8352 54.0466 23.7107C52.9221 22.5861 51.5868 21.6943 50.1173 21.0863C48.6478 20.4783 47.0728 20.1661 45.4824 20.1674C38.7824 20.1674 33.4274 25.5799 33.3724 32.2749C33.3724 38.9199 38.7849 44.3299 45.4824 44.3849V45.2949C42.0305 45.2909 38.7211 43.9179 36.2803 41.477C33.8394 39.0362 32.4664 35.7268 32.4624 32.2749L32.4649 32.2774Z" fill="white"></path><path d="M26.1973 32.2774C26.1957 29.744 26.6935 27.2352 27.6622 24.8944C28.6309 22.5536 30.0515 20.4267 31.8428 18.6354C33.6342 16.844 35.7611 15.4234 38.1019 14.4547C40.4427 13.486 42.9515 12.9882 45.4848 12.9899C48.0182 12.9882 50.527 13.486 52.8678 14.4547C55.2086 15.4234 57.3355 16.844 59.1268 18.6354C60.9182 20.4267 62.3388 22.5536 63.3075 24.8944C64.2762 27.2352 64.774 29.744 64.7723 32.2774C64.7743 34.8109 64.2768 37.32 63.3082 39.6611C62.3397 42.0022 60.9191 44.1294 59.1277 45.921C57.3363 47.7126 55.2093 49.1334 52.8684 50.1023C50.5274 51.0712 48.0184 51.569 45.4848 51.5674V50.6549C55.6098 50.6549 63.8098 42.4574 63.8098 32.2799C63.8098 22.1524 55.6098 13.9549 45.4848 13.8999C35.3598 13.8999 27.1073 22.1499 27.1073 32.2774C27.1073 42.4049 35.3048 50.6024 45.4823 50.6549V51.5674C42.9488 51.569 40.4398 51.0712 38.0988 50.1023C35.7578 49.1334 33.6308 47.7126 31.8395 45.921C30.0481 44.1294 28.6275 42.0022 27.6589 39.6611C26.6904 37.32 26.1929 34.8109 26.1948 32.2774H26.1973Z" fill="white"></path><path d="M20.1953 32.2776C20.1927 28.9561 20.845 25.6666 22.1149 22.5974C23.3847 19.5282 25.2473 16.7395 27.596 14.3908C29.9447 12.0421 32.7334 10.1795 35.8026 8.90966C38.8718 7.63978 42.1613 6.98749 45.4828 6.99012C48.8046 6.98684 52.0944 7.63855 55.164 8.90799C58.2336 10.1774 61.0228 12.0397 63.372 14.3881C65.7212 16.7366 67.5842 19.5253 68.8546 22.5945C70.1249 25.6638 70.7776 28.9534 70.7753 32.2751C70.7783 35.5971 70.1262 38.887 68.8563 41.9567C67.5864 45.0263 65.7236 47.8155 63.3746 50.1645C61.0257 52.5134 58.2365 54.3762 55.1669 55.6461C52.0972 56.916 48.8073 57.5681 45.4853 57.5651V56.6551C58.9353 56.6001 69.8653 45.7251 69.8653 32.2751C69.8653 18.8276 58.9353 7.90012 45.4853 7.90012C32.0378 7.89762 21.1603 18.8276 21.1078 32.2751C21.1078 45.7251 31.9828 56.6001 45.4853 56.6551V57.5651C42.1636 57.5681 38.8738 56.916 35.8043 55.6463C32.7348 54.3766 29.9458 52.5141 27.5969 50.1653C25.2479 47.8166 23.3851 45.0278 22.1151 41.9584C20.8451 38.8891 20.1927 35.5994 20.1953 32.2776V32.2776Z" fill="white"></path><path d="M13.5498 32.2776C13.5498 14.6526 27.8573 0.345093 45.4848 0.345093C63.1098 0.345093 77.4173 14.6501 77.4173 32.2776C77.4173 49.9051 63.1098 64.2126 45.4848 64.2126V63.3001C62.6298 63.2476 76.4523 49.4251 76.5048 32.3326C76.4909 24.1096 73.2184 16.2274 67.4041 10.4126C61.5898 4.59782 53.7078 1.32463 45.4848 1.31009C37.261 1.32331 29.3777 4.59591 23.5623 10.4108C17.7469 16.2257 14.4737 24.1087 14.4598 32.3326C14.4598 49.4776 28.3373 63.3001 45.4848 63.3001V64.2651C27.8573 64.2126 13.5498 49.9051 13.5498 32.2776Z" fill="white"></path><path d="M45.9125 0.827637H45V25.5276H45.91V0.827637H45.9125ZM22.925 10.3651L23.57 9.72264L40.9825 27.1876L40.34 27.8326L22.9275 10.3651H22.925ZM38.68 31.8501H14.0325V32.7601H38.68V31.8501V31.8501ZM22.925 54.1926L40.34 36.7801L40.9825 37.4226L23.57 54.8351L22.9275 54.1926H22.925ZM45.9125 39.0826H45V63.7826H45.91V39.0826H45.9125ZM49.93 37.4226L50.6275 36.7801L68.04 54.1926L67.3975 54.8351L49.93 37.4226V37.4226ZM76.9875 31.8501H52.2875V32.7601H76.9875V31.8501ZM49.93 27.1876L67.4 9.72514L68.0425 10.3676L50.63 27.8351L49.9325 27.1901L49.93 27.1876Z" fill="white"></path><path d="M40.6077 34.3675C40.8777 34.315 40.8227 34.5825 40.9302 34.7425H41.0377C41.4652 34.315 41.7352 33.7775 41.8402 33.135C41.8402 33.0825 41.9477 33.0275 41.9477 33.0275C41.8952 32.76 41.5727 32.6525 41.4652 32.44C41.3052 32.8675 40.8777 32.4925 40.5552 32.7075C40.5552 32.7075 40.5027 32.815 40.6077 32.8675C40.7152 32.9225 40.8777 32.8675 40.9302 32.975C40.9827 33.0825 40.9827 33.2975 40.8777 33.4025C40.8777 33.4575 40.7702 33.4575 40.7702 33.4025C40.6077 33.0825 40.3402 33.135 40.0202 33.135C40.1277 33.2425 39.9127 33.19 39.9652 33.2975C39.5377 33.19 39.1627 33.35 38.7877 33.4025C38.7126 33.3999 38.6394 33.3793 38.574 33.3423C38.5087 33.3053 38.4534 33.253 38.4127 33.19C38.2502 33.35 38.0902 33.6175 37.8752 33.565C37.8227 33.51 37.6627 33.35 37.7702 33.2975C37.9827 33.135 38.1977 32.975 38.3052 32.76C38.4127 32.6 38.3052 32.385 38.4127 32.225C38.5202 31.9575 38.7327 31.7975 38.9477 31.7975C39.2152 31.7975 39.6452 32.01 39.8577 31.7425C39.9127 31.69 40.0727 31.9025 40.1802 32.01C40.2327 32.065 40.1802 32.1175 40.1277 32.1175C39.9652 32.2775 39.7527 32.2775 39.6452 32.4925C39.5902 32.6525 39.6452 32.76 39.8052 32.815C40.0202 32.9225 40.0727 32.6525 40.1277 32.4925C40.2327 32.385 40.3402 32.4925 40.4477 32.4925V32.385C40.6627 32.3325 40.9302 32.3325 41.1452 32.3325C41.4127 32.3325 41.2527 31.7975 41.2527 31.4225V31.1525C41.2527 31.1 41.2527 31.045 41.3052 31.045C41.3602 30.885 41.7352 30.8325 41.7877 30.995C41.7877 31.045 41.7877 31.1 41.8402 31.2075C41.8402 31.315 41.8952 31.3675 42.0027 31.315C42.0552 31.315 42.0552 31.26 42.0552 31.2075C42.1077 31.1 42.0552 30.94 42.1627 30.885C42.2702 30.7775 42.4302 31.0475 42.5902 31.0475C42.7527 31.0975 42.9652 31.0975 43.0727 30.9925C43.1802 30.94 43.1802 30.7775 43.0727 30.6175C43.0202 30.565 42.9127 30.51 42.9127 30.565C42.7527 30.725 42.5377 30.67 42.3777 30.67C42.2152 30.67 42.1627 30.4575 42.0027 30.4025C41.8402 30.295 41.6802 30.51 41.5202 30.4575C41.3602 30.35 41.2527 30.2425 41.3602 30.0825C41.4383 29.998 41.5284 29.9256 41.6277 29.8675C41.8402 29.76 42.0552 29.76 42.1627 29.6C42.2709 29.4429 42.3269 29.2557 42.3227 29.065C42.3227 28.9575 42.4302 28.9575 42.4852 28.9575C42.7527 28.85 42.9652 28.9025 43.1802 28.85C43.4477 28.7425 43.6102 28.5275 43.8227 28.3675C43.9302 28.315 44.0377 28.2075 44.1977 28.2075C44.2527 28.2075 44.3052 28.045 44.3052 28.045C44.3602 27.67 44.2527 27.295 44.3052 26.8675C44.3602 26.76 44.5202 26.705 44.4127 26.545C44.4127 26.4925 44.1977 26.6 44.1977 26.545C44.0927 26.4375 44.0377 26.3325 44.1452 26.225C44.2527 26.1175 44.4652 26.225 44.5202 26.0625C44.6802 25.85 44.5727 25.5275 44.3602 25.42C44.1452 25.3125 43.9302 25.5275 43.6627 25.475C43.7152 25.5825 43.5552 25.5825 43.5027 25.5825C43.1802 25.6875 43.1802 25.3125 43.2352 25.1C43.2352 25.045 43.2877 25.045 43.2877 25.045C43.3402 25.045 43.3952 24.9375 43.3952 24.83H43.1802C42.9127 24.9925 42.8052 25.26 42.5377 25.42C42.4852 25.42 42.4852 25.5275 42.5377 25.5275C42.5377 25.58 42.5902 25.635 42.6452 25.58C42.6452 25.7425 42.6977 26.01 42.4302 25.955C42.3777 25.955 42.3777 25.85 42.3777 25.85C42.3227 25.795 42.1077 25.7425 42.1077 25.85C42.0577 26.0625 42.4827 26.1175 42.3777 26.3325C42.2152 26.6 41.8402 26.6525 41.5202 26.76C40.8777 27.0275 40.2327 26.76 39.5377 26.8675C39.1627 26.92 38.7877 26.8675 38.4127 26.76C38.1452 26.705 38.0902 26.92 37.9827 27.135C37.9827 27.0825 37.9827 27.0275 37.9302 27.0825C37.9302 26.92 37.9827 26.8125 37.9827 26.7075C37.9827 26.6 37.7702 26.6 37.7702 26.4925C37.3402 25.635 36.2152 25.795 35.4127 25.9025C35.2502 25.9025 35.1977 26.0625 35.0902 26.17C34.9302 26.3325 34.7152 26.17 34.5002 26.2775C34.4477 26.3325 34.3927 26.4375 34.3402 26.4925C34.0727 26.545 33.8052 26.2775 33.6427 26.4375C33.4827 26.545 33.3227 26.545 33.1602 26.6525C33.1077 26.705 33.1077 26.8125 33.1077 26.92C33.1077 26.975 33.0002 26.975 32.9477 26.975C32.7327 27.0275 32.3577 26.92 32.3577 27.2425H32.4102C32.5177 27.51 32.3577 27.8325 32.1427 27.885C31.8752 27.9925 31.5527 27.9375 31.2852 28.1C31.1802 28.1525 30.9652 28.26 30.9102 28.42C30.4827 29.225 30.0527 30.0275 30.0002 30.94V31.0475C30.0002 31.0975 30.1077 31.1525 30.1077 31.1525C29.7615 31.9536 29.3492 32.7246 28.8752 33.4575C28.6602 33.8325 28.3927 34.69 28.7677 35.01C28.9277 35.1725 28.6602 35.5475 28.3927 35.5475C28.0727 35.5475 27.5902 35.4925 27.4827 35.1175C27.4277 34.9575 27.1602 34.905 26.9452 34.905L26.7852 34.85C26.5177 34.85 26.2502 34.7975 26.0352 34.905C25.6602 35.01 25.6077 35.44 25.4452 35.7625C25.3377 36.03 24.8577 35.975 24.7502 36.2425C24.6952 36.35 24.8027 36.565 24.6952 36.725C24.6427 36.8325 24.4827 36.8325 24.4277 36.94C24.4144 37.0209 24.3769 37.0958 24.3202 37.155C24.2127 37.53 24.1602 37.85 24.2677 38.1725C24.2677 38.28 24.2677 38.3875 24.3202 38.44C24.4277 38.815 24.3202 39.1375 24.1077 39.4575C23.8377 39.78 23.4077 39.78 23.0327 39.94C22.8752 39.995 22.6577 39.8325 22.4452 39.8875C22.0177 39.94 21.5352 39.78 21.1052 39.8875C21.1052 39.8875 21.0002 39.94 20.9452 39.995C20.7302 40.0475 20.6777 39.8325 20.5177 39.725C20.4102 39.565 20.3552 39.35 20.2477 39.2975C19.9802 39.19 19.6602 39.35 19.4452 39.565C19.5527 39.565 19.4452 39.6725 19.5527 39.6725C19.2852 39.6725 19.0702 39.94 18.8027 40.0475C18.5352 40.2075 18.4277 39.725 18.4277 39.405C18.4277 39.2425 18.1602 39.1375 17.9452 39.2425C17.8927 39.2975 17.8377 39.2975 17.8377 39.405C17.7852 39.405 17.7302 39.2975 17.6777 39.405C17.4627 39.6175 17.8377 39.6175 17.9452 39.725C17.9977 39.78 17.9452 39.8875 17.8377 39.94C17.7302 39.995 17.5702 39.8875 17.5702 39.94C17.5152 40.1 17.4102 40.155 17.3027 40.1V40.2075C17.3027 40.2625 17.3552 40.2625 17.3552 40.2625C17.2477 40.315 17.1402 40.37 17.0877 40.315C16.9802 40.2625 17.0352 40.1 16.9802 39.995C16.9277 39.995 16.8727 39.995 16.8727 40.0475C16.8202 40.2625 16.8727 40.315 16.6602 40.37C16.7127 40.4225 16.6052 40.5825 16.7127 40.6375C16.8202 40.69 16.9802 40.5825 17.0877 40.6375C17.2477 40.7975 17.2477 41.065 17.3027 41.3325L17.2477 41.3875C17.3027 41.495 17.3027 41.87 17.1402 41.7075C16.9277 41.5475 17.1952 41.2275 17.0352 41.0125C16.9802 40.9575 16.8727 41.0125 16.7652 41.0125C16.9277 41.3325 16.6052 41.7075 16.9277 42.03C17.0352 42.19 16.5527 42.35 16.7652 42.565C16.8727 42.62 17.0352 42.7275 17.1952 42.78C17.2477 42.78 17.1952 42.565 17.1952 42.565C17.1952 42.4575 17.4627 42.405 17.5152 42.5125C17.5702 42.565 17.5702 42.6725 17.5702 42.78C17.4627 42.7275 17.3552 42.78 17.2477 42.8325C17.3552 43.0475 17.1952 43.2075 17.1952 43.4225C17.1952 43.4775 17.2477 43.53 17.2477 43.5825C17.3027 43.745 17.5702 43.5825 17.6777 43.745C17.7302 43.8525 17.5702 43.9575 17.6227 44.12C17.6777 44.2275 17.8377 44.1725 17.8902 44.2275C17.9977 44.28 17.9452 44.44 17.9452 44.5475C18.0527 44.5475 18.2127 44.655 18.1602 44.7625C18.2677 44.815 18.3202 44.655 18.2677 44.5475C18.5352 44.5475 18.4277 44.28 18.4802 44.12C18.3727 44.1725 18.3727 44.0125 18.2677 44.065C18.2127 43.905 18.2677 43.745 18.2127 43.6375C18.1602 43.4775 17.9452 43.4775 17.8927 43.2625C18.1052 43.315 18.2127 43.2625 18.3202 43.0475C18.3727 42.94 18.5352 43.1025 18.5877 43.2075C18.6427 43.2625 18.5877 43.2625 18.5877 43.315C18.7477 43.2625 18.7477 43.4225 18.8027 43.4775C18.9627 43.585 18.9627 43.745 19.1227 43.7975C19.352 43.8513 19.5908 43.8513 19.8202 43.7975C19.8202 43.69 19.8202 43.585 19.8727 43.53C19.9802 43.4225 20.0352 43.6375 20.1952 43.6375C20.1427 43.8525 20.2477 44.065 20.4627 44.1725H20.6227C20.6777 44.2275 20.7302 44.3875 20.8377 44.3875C20.8927 44.3875 21.0002 44.335 21.0527 44.3875C21.1602 44.3875 21.1602 44.495 21.2127 44.655L21.2677 44.71C21.4802 44.655 21.7502 44.71 21.8027 44.9225C21.9102 45.19 22.1252 45.405 22.2302 45.6725C22.2852 45.835 22.5002 45.8875 22.5527 45.995C22.5527 46.1025 22.6052 46.155 22.6602 46.155C22.8202 46.315 23.0352 46.37 23.2502 46.4225C23.3027 46.4225 23.4627 46.315 23.5702 46.21C23.6252 46.21 23.7327 46.2625 23.7327 46.2625C23.9452 46.585 24.0002 47.0675 24.3202 47.2275C24.4827 47.335 24.5352 47.5475 24.6952 47.6025C24.8027 47.655 24.9102 47.495 25.0177 47.6025C25.0702 47.655 25.1252 47.8175 25.1777 47.8175C25.3927 47.9225 25.6077 48.085 25.6602 48.3525C25.6602 48.405 25.7152 48.46 25.7677 48.46C25.9827 48.46 26.1427 48.3525 26.3027 48.46C26.4627 48.62 26.6777 48.6725 26.7852 48.835C26.8402 48.8875 26.9452 48.9425 27.0002 48.8875C27.0527 48.835 27.0527 48.675 27.0527 48.62C27.1077 48.5125 27.2677 48.5125 27.3752 48.5125C27.5352 48.46 27.5352 48.1925 27.6977 48.1925C27.9652 48.1375 28.0727 48.46 28.2852 48.62L28.3927 48.6725C28.6077 48.78 28.5002 49.21 28.8202 49.2625C29.1452 49.2625 29.3027 49.585 29.6252 49.585C29.8428 49.6177 30.0471 49.7103 30.2152 49.8525C30.2677 49.905 30.3752 49.905 30.4827 49.8525L30.8052 49.6925C31.0727 49.53 31.4477 49.4775 31.7677 49.3175C31.8227 49.2625 31.8752 49.155 31.9827 49.155C32.4652 48.9425 33.0002 49.3175 33.4827 49.1025C33.5902 49.05 33.7502 49.05 33.9102 48.9425C34.2352 48.7275 34.2852 48.3525 34.1802 47.9775C33.9652 47.4425 33.8052 46.905 33.4302 46.4775C33.2677 46.21 33.0002 46.1025 32.7852 45.8875C32.7327 45.835 32.5727 45.835 32.4652 45.78C32.2502 45.6725 32.3052 45.46 32.3577 45.2975C32.3577 45.245 32.1427 45.245 32.0902 45.1375C32.0352 45.03 32.0902 44.87 32.0902 44.7625C32.0884 44.7345 32.0765 44.7082 32.0567 44.6884C32.0369 44.6686 32.0106 44.6567 31.9827 44.655C31.7152 44.6025 31.4477 44.495 31.1802 44.495C31.0727 44.495 31.0177 44.44 30.9102 44.3875C30.8577 44.335 30.9102 44.28 30.9652 44.2275C31.1252 44.065 31.3402 44.0125 31.5552 43.905C31.5002 43.7975 31.4477 43.6375 31.5552 43.6375C31.6602 43.53 31.6077 43.315 31.6077 43.2075C31.6077 43.155 31.5527 43.1025 31.4477 43.1025C31.4477 42.8325 31.6077 42.62 31.4477 42.405C31.2852 42.19 31.0727 42.0825 31.0177 41.7625C31.0177 41.7075 30.8577 41.655 30.8577 41.6025C30.8577 41.2775 30.9652 40.9025 30.9102 40.5825C30.8577 40.4225 30.6977 40.2625 30.8027 40.2075C30.8854 40.1427 30.9761 40.0889 31.0727 40.0475C31.2852 39.995 31.3927 39.78 31.2327 39.6725C31.1252 39.5125 30.9102 39.6725 30.7502 39.62C30.6977 39.62 30.6427 39.565 30.6427 39.4575C30.5902 39.35 30.7502 39.0825 30.5902 39.03C30.4827 38.975 30.3752 38.9225 30.3227 38.815C30.2152 38.655 30.3227 38.495 30.4302 38.3325C30.3752 38.3325 30.3752 38.225 30.3227 38.28C30.2677 38.1175 30.4302 37.905 30.3752 37.7425C30.3227 37.5825 30.2152 37.4225 30.0002 37.475V37.53C29.8927 37.6375 29.7852 37.6375 29.6777 37.5825V37.3675C29.7327 37.2625 29.8927 37.315 30.0002 37.2625C30.1602 37.1 30.0002 36.8875 29.9477 36.8325C29.7327 36.6175 29.6252 36.4575 29.6777 36.135C29.4102 36.135 28.9827 36.085 29.0352 35.7075C29.0345 35.3792 28.9805 35.0533 28.8752 34.7425C28.8202 34.53 28.8202 34.26 28.9827 34.1C29.0352 34.0475 29.0902 33.94 29.1427 33.94C29.4652 33.885 29.8927 33.94 30.1077 33.6175C30.2152 33.405 29.9477 33.0275 30.1602 32.8675C30.4827 32.6 31.0177 32.76 31.4477 32.5475C31.5527 32.44 31.5527 32.2775 31.5002 32.1175C31.4477 31.9575 31.3402 31.7975 31.2327 31.635C31.0727 31.4225 30.7502 31.5275 30.6427 31.315C30.6162 31.256 30.6025 31.1921 30.6025 31.1275C30.6025 31.0628 30.6162 30.9989 30.6427 30.94C30.7206 30.7616 30.8516 30.6115 31.0177 30.51C31.3927 30.35 31.7677 30.4575 32.0902 30.67C32.2044 30.731 32.2976 30.8251 32.3577 30.94C32.4102 30.9925 32.4102 31.0475 32.4102 31.1C32.5177 31.5275 32.6802 32.01 32.5177 32.385C32.4652 32.5475 32.3052 32.6 32.3052 32.815C32.4102 32.7075 32.4652 32.8675 32.4652 32.9225C32.5177 33.19 32.7327 33.6175 32.4652 33.7775C32.1427 33.9925 32.1977 33.7275 31.8227 33.7775C31.6602 33.7775 31.5552 33.7775 31.5552 33.885C31.5552 33.9925 31.7152 34.1525 31.7677 34.2075C32.5177 34.4225 32.9477 34.475 33.7502 34.5825C33.9127 34.635 34.0727 34.85 34.2327 34.85C34.3927 34.85 34.5552 34.9575 34.7152 34.7425C34.7677 34.69 34.9302 34.7425 34.9302 34.7975C34.9827 34.9575 35.0377 34.9575 35.1427 35.01C35.4127 35.1175 35.3052 35.76 35.6252 35.5475C35.7877 35.44 35.9477 35.5475 36.1627 35.4925C35.9477 35.7625 36.0552 36.03 36.2702 36.2425C36.4302 36.4575 36.6452 36.51 36.8577 36.725C37.0177 36.8875 37.2327 36.8325 37.2327 36.6175C37.2877 36.35 37.0177 36.0825 37.3402 35.8675C37.6627 36.2975 37.2327 36.8325 37.5552 37.2625C37.5552 37.315 37.6077 37.315 37.6077 37.3675C37.7702 37.53 37.8752 37.7425 38.0902 37.7425C38.1977 37.69 38.3052 37.53 38.3577 37.3675C38.3577 37.315 38.3577 37.2625 38.4127 37.2625C38.4127 37.1 38.5202 37.0475 38.5202 36.8875C38.5727 36.6725 38.8402 36.5625 38.7877 36.2975V36.0825C38.7877 35.815 39.1627 35.6 39.4302 35.655C39.5377 35.655 39.4302 35.6 39.5377 35.5475C39.6452 35.44 39.6452 35.1725 39.7502 35.01C39.8576 34.8985 39.9486 34.7722 40.0202 34.635C40.0727 34.5825 40.1802 34.475 40.1277 34.3675C40.5027 34.53 40.5027 34.3675 40.6077 34.3675V34.3675Z" fill="white"></path><path d="M31.5001 33.8325C31.3926 33.725 31.2851 33.8325 31.1801 33.885C31.0726 33.94 31.0726 34.1 31.1251 34.1525C31.1857 34.251 31.2225 34.3623 31.2326 34.4775C31.2326 34.69 31.1801 34.9025 31.2326 35.1175C31.2851 35.28 31.5001 35.6 31.6076 35.385C31.7151 35.1725 31.9301 34.85 31.7676 34.53C31.7151 34.315 31.7676 33.94 31.5001 33.83V33.8325ZM31.0726 35.7075L31.1801 35.9225C31.2326 36.0825 31.5551 36.03 31.6076 35.9225C31.6076 35.8675 31.6076 35.7075 31.5001 35.655C31.4476 35.5475 31.2851 35.6 31.2326 35.5475C31.1801 35.5475 31.1251 35.44 31.0726 35.4925V35.7075V35.7075ZM31.6076 36.565C31.6076 36.19 31.2851 36.1375 31.1251 36.35C30.8576 36.565 31.1776 36.9925 31.3926 37.315C31.3926 37.3675 31.4451 37.475 31.5001 37.5825C31.6076 37.69 31.8226 37.6375 31.8751 37.53C31.9276 37.4225 31.9826 37.3675 32.0351 37.2625C32.0901 36.9925 31.9276 36.5625 31.6076 36.5625V36.565ZM30.9651 34.85C30.9651 34.7975 30.8576 34.7975 30.8576 34.7975C30.8082 34.8223 30.7667 34.8606 30.738 34.9079C30.7093 34.9552 30.6944 35.0096 30.6951 35.065C30.6451 35.225 30.6951 35.385 30.8576 35.5475C30.9101 35.6 31.0176 35.5475 31.0176 35.44C31.0726 35.225 30.9651 35.01 30.9651 34.85V34.85ZM31.8751 36.19C31.9276 36.135 32.0351 36.0825 31.9826 35.975C32.0901 35.975 32.1426 35.975 32.1951 35.8675C32.2501 35.815 32.1426 35.76 32.1426 35.7075C31.9826 35.655 31.8201 35.8675 31.7151 35.975C31.6076 36.03 31.7676 36.19 31.8751 36.19ZM31.6076 38.1175C31.6076 38.28 31.6076 38.3875 31.7151 38.4425C31.7676 38.4425 31.8751 38.4925 31.8751 38.3875C31.8751 38.28 31.9826 38.1725 31.8751 38.1175H31.8226C31.7676 38.0125 31.7151 38.1725 31.6076 38.1175V38.1175ZM32.1976 39.725C32.2501 39.6175 32.3576 39.4575 32.1426 39.35H31.9301C31.9801 39.5125 32.0901 39.6725 32.1976 39.725V39.725ZM18.3751 45.1375C18.3201 45.1375 18.3201 45.3525 18.3751 45.405C18.4251 45.46 18.5876 45.46 18.6951 45.46C18.6401 45.2975 18.6401 44.9775 18.3726 45.1375H18.3751ZM19.8201 46.585C19.7126 46.7975 19.9801 47.065 20.3026 47.065C20.3026 46.96 20.3551 46.7975 20.3026 46.745C20.1426 46.585 19.8726 46.4225 19.8201 46.585V46.585ZM20.4626 47.4425C20.4101 47.8675 20.5701 48.1375 20.9976 48.1925C20.9976 47.71 20.8376 47.4925 20.4626 47.4425ZM42.3751 36.2975C42.7501 36.19 43.1801 36.0825 43.6101 36.0825C44.5726 36.03 44.5201 34.85 45.0026 34.0475C45.1101 33.885 44.9476 33.4575 44.7876 33.2425C44.4651 32.7075 43.4476 33.2975 43.2351 32.76C43.0726 32.44 43.9301 32.9225 43.9851 32.4925C43.9851 32.385 43.9301 32.17 43.8226 32.17C43.7151 32.065 43.4476 32.065 43.3401 32.17C42.8051 32.6 42.7526 33.35 42.4826 33.8325C41.9476 34.7975 40.9826 35.44 40.4476 36.5125C40.3951 36.6725 40.5026 36.78 40.6076 36.8325C41.3051 37.1 41.7876 36.405 42.3776 36.2975H42.3751ZM46.2876 33.94C46.1586 33.9833 46.0332 34.0368 45.9126 34.1C45.8601 34.26 45.8051 34.475 45.9126 34.5825C45.9676 34.635 46.1801 34.635 46.2351 34.5825C46.3426 34.475 46.1801 34.315 46.0726 34.26C46.1351 34.2325 46.1885 34.1878 46.2266 34.1312C46.2647 34.0745 46.2858 34.0082 46.2876 33.94V33.94ZM43.3951 37.2075C43.7151 37.5825 44.4651 37.475 44.4126 37.1C44.3051 36.78 43.8226 36.6175 43.4476 36.725C43.1801 36.8325 43.8226 37.1 43.3951 37.2075ZM44.4126 40.0475C44.7326 39.8875 44.5726 39.62 44.6251 39.35C44.3051 39.4575 44.1451 39.725 44.0901 40.0475C44.1451 40.0475 44.2526 40.1 44.4126 40.0475V40.0475ZM48.3251 34.315C48.3751 34.315 48.3751 34.0475 48.3251 33.9925C48.2701 33.94 48.1101 33.9925 48.0001 33.9925C47.8426 33.94 47.8426 33.8325 47.7876 33.6725C47.7876 33.4575 47.6276 33.35 47.6276 33.135C47.4126 33.2425 47.4126 33.51 47.4676 33.6175C47.7351 33.885 47.8951 34.4225 48.3226 34.315H48.3251ZM43.1251 31.5825C42.9651 31.475 42.8576 31.5825 42.9651 31.7425C43.0201 31.7975 43.1801 31.7425 43.2876 31.7425C43.2326 31.7425 43.2326 31.635 43.1251 31.5825ZM17.5151 39.94C17.5701 39.8875 17.4626 39.78 17.4101 39.725C17.3026 39.6175 17.1951 39.725 17.1401 39.6175C17.1401 39.725 17.1401 39.78 17.1951 39.8875C17.1951 39.995 17.4101 40.0475 17.5151 39.94V39.94ZM19.0151 39.94C19.1776 39.8875 19.3901 39.78 19.2851 39.565H19.2301C18.9626 39.405 18.6951 39.4575 18.7476 39.78C18.6951 39.8875 18.8551 40.0475 19.0151 39.94ZM43.7701 24.67C43.8251 24.51 44.0926 24.51 44.0376 24.295C44.0376 24.2425 43.8776 24.2425 43.7701 24.2425C43.6626 24.2425 43.7176 24.4025 43.7176 24.51C43.6626 24.51 43.6101 24.51 43.6101 24.5625C43.6101 24.67 43.7176 24.725 43.7701 24.67V24.67ZM44.5201 24.405C44.5751 24.35 44.6826 24.2425 44.5751 24.1875C44.4676 24.08 44.3051 24.08 44.3051 24.135C44.1976 24.2425 44.3601 24.5125 44.5201 24.405V24.405ZM42.1626 30.135C42.0551 30.4025 42.5376 30.67 42.7526 30.565C42.9126 30.4575 42.8601 30.135 42.6451 30.0275C42.5376 29.975 42.2176 30.0275 42.1626 30.135ZM42.6976 31.85C42.8051 31.7425 42.6976 31.635 42.5901 31.5825C42.5312 31.556 42.4673 31.5423 42.4026 31.5423C42.338 31.5423 42.2741 31.556 42.2151 31.5825C42.1626 31.5825 42.1626 31.5825 42.1076 31.5275C42.0551 31.635 42.1626 31.69 42.2151 31.69C42.4301 31.69 42.5376 31.9025 42.6976 31.85V31.85ZM42.0001 32.2775C41.8951 32.3325 41.8951 32.6 42.0001 32.7075C42.1626 32.76 42.3251 32.76 42.3751 32.5475C42.4301 32.385 42.5376 32.225 42.3751 32.1175C42.2701 32.01 42.1626 32.1725 42.0001 32.2775ZM41.5726 31.69C41.5726 31.9025 41.4651 32.1175 41.5201 32.3325C41.5726 32.44 41.7326 32.44 41.7326 32.3325C41.7876 32.1175 41.7326 31.9575 41.8951 31.85C41.8401 31.85 41.7876 31.7425 41.7876 31.9025C41.7876 31.85 41.8401 31.7975 41.7876 31.7975C41.7326 31.635 41.6801 31.69 41.5726 31.69V31.69ZM58.2376 47.0125V46.96C58.2376 47.0125 58.1826 47.0125 58.1276 47.0125H58.2376ZM45.6451 38.7075C45.5376 38.7625 45.5926 38.655 45.5376 38.6C45.4851 38.5475 45.3776 38.5475 45.3776 38.3875C45.3226 38.225 45.1626 38.4925 45.0026 38.4925C45.0026 38.4925 44.9476 38.5475 44.9476 38.6C45.1101 38.815 44.8951 38.8675 44.7876 38.975C44.7351 39.1375 44.9476 39.1375 45.0026 39.2975C45.0551 39.4575 44.8951 39.62 44.8951 39.8325C44.8426 39.8875 44.7876 39.94 44.6801 40.1C44.6801 40.1 44.5726 40.2625 44.6276 40.37C44.7876 40.53 45.0026 40.2075 45.1626 40.155C45.3226 40.155 45.3226 40.155 45.4301 40.0475C45.5901 39.94 45.7526 39.8875 45.8051 39.725C45.8051 39.6725 45.5376 39.6175 45.4851 39.6175C45.5926 39.2975 45.4301 39.2425 45.4851 38.8675L45.6451 38.7075V38.7075ZM46.9301 42.8325H47.0376C47.1451 42.7275 47.1976 42.565 47.0926 42.4575C47.0376 42.35 46.8251 42.35 46.8251 42.5125C46.8251 42.62 46.8751 42.7275 46.9301 42.8325ZM47.1451 42.1925C47.2526 42.1925 47.2001 42.03 47.1451 41.9225C47.0926 41.87 46.9851 41.87 46.9851 41.87C46.8751 42.085 46.9301 42.245 47.1451 42.195V42.1925ZM48.4301 42.8325C48.3776 42.8325 48.3776 42.78 48.3776 42.78C48.2701 42.78 48.1626 42.7275 48.0026 42.7275H47.7876C47.7876 42.8325 47.7326 42.995 47.8401 43.0475C48.0551 43.0475 48.2701 43.0475 48.4301 42.8325V42.8325ZM50.6276 42.675C50.6826 42.675 50.6276 42.4575 50.5751 42.4575C50.3601 42.405 50.2001 42.62 49.9851 42.565C49.9851 42.62 49.9851 42.6725 49.9326 42.7275H49.8251C50.0926 42.995 50.4126 42.7275 50.6276 42.6725V42.675ZM51.4851 41.87C51.5926 42.19 51.9676 42.03 51.9676 41.815C51.9676 41.655 51.7526 41.655 51.6451 41.7625C51.6451 41.7075 51.6976 41.7075 51.6976 41.655C51.6451 41.7625 51.4851 41.7625 51.4851 41.87ZM61.8776 34.9575C61.7701 35.1175 62.1451 35.1725 62.3076 35.225C62.5201 35.28 62.8426 35.28 62.8951 35.065C63.0026 34.7425 62.6276 34.4225 62.2526 34.4225C61.9326 34.475 61.9326 34.7425 61.8776 34.9575ZM61.9326 46.05C61.8251 45.995 61.6101 45.995 61.6101 46.05C61.3426 47.12 60.3801 48.62 61.5576 49.3175C62.0926 49.6375 62.7351 48.995 62.7901 48.6725C63.0051 47.8175 62.8976 46.53 61.9326 46.0475V46.05ZM58.6101 41.28C58.4501 41.3875 58.3976 41.7625 58.6651 41.7625C58.7726 41.7625 58.8776 41.7075 58.9851 41.6025C59.0926 41.495 59.0401 41.3325 58.9326 41.3325C58.8776 41.28 58.7176 41.225 58.6101 41.28V41.28ZM59.4151 52.3175C59.3654 52.4046 59.3488 52.5068 59.3686 52.6051C59.3884 52.7035 59.4431 52.7914 59.5226 52.8525C59.5226 52.6925 59.7901 52.4775 59.5751 52.3175C59.5226 52.21 59.4676 52.2625 59.4151 52.3175ZM64.4001 26.92C64.2376 26.92 64.1826 26.975 64.1301 27.0275C64.0776 27.1875 64.1301 27.35 64.0776 27.51C63.7026 28.475 62.6276 29.3325 63.1126 30.4575H63.2201C63.5054 30.2546 63.728 29.9757 63.8626 29.6525C64.1944 28.9822 64.4631 28.2825 64.6651 27.5625C64.7726 27.2425 64.7201 26.92 64.3976 26.92H64.4001ZM62.5751 30.7775C62.4676 30.94 62.6826 31.045 62.7901 30.9925C62.8976 30.94 63.0051 30.725 62.8976 30.67C62.7901 30.62 62.6301 30.62 62.5751 30.7775V30.7775ZM51.5401 24.08C51.4326 23.705 51.1101 24.08 50.8426 24.0275C50.7351 24.0275 50.6826 23.8675 50.6276 23.8675C50.5287 23.8691 50.4337 23.9064 50.3601 23.9725C50.2001 24.08 50.3076 24.3475 50.4676 24.2975C50.5751 24.2975 50.6826 24.08 50.7351 24.2425C50.8426 24.455 50.7901 24.83 51.1101 24.725C51.3251 24.67 51.4326 24.51 51.7001 24.51C51.9151 24.51 51.9676 24.2425 51.9151 24.08C52.1276 24.08 52.4501 23.8675 52.6101 24.08C52.6651 24.135 52.7176 24.295 52.7701 24.4025C52.8251 24.5625 52.9851 24.6175 53.2001 24.6175C53.4151 24.5625 53.6276 24.5625 53.7901 24.4025C53.9501 24.1875 53.9501 23.975 53.7351 23.8125C53.6276 23.76 53.5226 23.8125 53.4151 23.76C53.2526 23.6525 53.0926 23.4925 52.9326 23.4375C52.2901 23.2225 51.9151 23.76 51.5401 24.08V24.08ZM49.3401 24.4025C49.5518 24.3486 49.7735 24.3486 49.9851 24.4025V24.35C49.9851 23.975 49.6101 24.0275 49.3951 24.1875V24.2425C49.3426 24.295 49.2351 24.2425 49.1801 24.2425C49.1676 24.2648 49.1627 24.2907 49.1662 24.3161C49.1697 24.3415 49.1814 24.365 49.1995 24.3831C49.2176 24.4013 49.2412 24.413 49.2666 24.4165C49.292 24.4199 49.3178 24.415 49.3401 24.4025V24.4025ZM50.1451 25.85C50.3601 25.5275 50.7351 25.3675 51.0576 25.205V25.1C51.0576 25.1 51.0576 25.1525 51.0026 25.2075C50.9501 25.045 50.7901 24.9375 50.6826 24.8325C50.6826 24.9925 50.5201 25.1 50.4151 25.1525C50.2526 25.26 49.9851 25.42 49.9326 25.635C49.8776 25.795 49.8251 26.01 49.9851 26.17C50.0376 26.1175 50.0926 25.9025 50.1451 25.85V25.85ZM46.8226 23.7075C46.8226 23.815 46.7676 23.9225 46.9301 23.9775C47.0926 24.03 47.0926 23.76 47.0376 23.7075C46.9301 23.6525 46.8226 23.5975 46.8226 23.7075ZM39.0551 18.775C39.3226 18.885 39.6451 18.885 39.8576 18.9375C39.9126 18.9375 40.0726 18.7775 39.9651 18.67C39.8051 18.5625 39.5901 18.67 39.4301 18.455L39.3226 18.4025C39.1076 18.3475 39.0551 18.5625 38.8951 18.67C38.8951 18.7225 39.0551 18.7775 39.0551 18.7775V18.775ZM58.8251 22.3675C58.7176 22.4725 58.5576 22.42 58.3951 22.4725C58.2901 22.5275 58.3426 22.6875 58.3426 22.7425C58.5026 23.01 58.7176 22.8475 58.9326 22.795C58.8776 22.9025 58.9851 22.8475 59.0401 22.9025C59.1476 22.955 59.2001 22.6875 59.3076 22.795V22.955C59.1476 23.0625 59.1476 23.2225 59.0401 23.2775C58.9326 23.33 58.7726 23.33 58.7176 23.17H58.6101H58.6651C58.6101 23.2775 58.6651 23.4925 58.6101 23.545C58.3426 23.76 57.7526 23.975 58.0201 24.295C58.2351 24.5625 58.6651 24.51 59.0401 24.455C59.0926 24.455 59.1476 24.4025 59.0926 24.35C59.0401 23.975 59.2526 23.975 59.4676 23.76C59.5751 23.705 59.4151 23.6 59.3076 23.4925C59.2001 23.4375 59.3076 23.225 59.4151 23.225C59.5751 23.225 59.5751 23.0625 59.6826 23.1175V22.9C59.8951 22.9525 60.0576 22.7925 60.0026 22.5775C59.9501 22.31 59.7351 22.15 59.7901 21.8825C59.7901 21.775 59.8976 21.72 60.0026 21.6675C60.0576 21.6675 60.1101 21.56 60.0576 21.5075C60.0026 21.4525 59.9501 21.5075 59.9501 21.5075C59.9501 21.615 59.8426 21.56 59.8426 21.615C59.6276 21.6675 59.4151 21.615 59.2001 21.72C58.8776 21.8825 58.9851 22.2025 58.8251 22.365V22.3675ZM56.5201 24.5625C56.5201 24.83 56.8426 24.725 56.9501 24.6175C56.8426 24.67 56.8951 24.51 56.8426 24.51C56.7901 24.51 56.6826 24.5625 56.5201 24.5625V24.5625ZM59.7901 24.08C59.6301 24.295 60.0576 24.295 60.2176 24.1875V24.135C60.2176 24.08 60.2176 24.08 60.1651 24.0275C60.0051 23.975 59.8451 23.975 59.7901 24.08ZM60.4351 23.01C60.3801 22.955 60.2726 23.01 60.2176 23.01C60.3276 23.0625 60.3276 23.225 60.4876 23.225V23.1175C60.4351 23.0625 60.4876 23.01 60.4351 23.01V23.01ZM55.6101 14.2225C55.7058 14.2682 55.7896 14.3357 55.8547 14.4194C55.9198 14.5032 55.9644 14.6009 55.9851 14.705C56.0926 14.92 55.9326 15.24 56.0376 15.455C56.0786 15.5358 56.1336 15.6086 56.2001 15.67C56.3076 15.7775 56.2001 15.99 56.2526 16.1525C56.3076 16.4725 56.3601 16.74 56.4126 17.0625C56.5201 17.0075 56.5201 17.2225 56.6826 17.17C56.6826 17.33 56.7351 17.49 56.7901 17.6525C56.8401 17.8125 57.0576 17.76 57.2151 17.865C57.4326 18.135 57.6451 18.455 57.9151 18.615C58.0201 18.67 58.1276 18.67 58.1826 18.7775C58.1826 18.83 58.1826 18.885 58.2351 18.885C58.6651 18.99 59.2001 19.1525 58.9851 19.6875C59.1451 19.58 59.3601 19.4725 59.4151 19.3125C59.5226 18.99 59.5751 18.67 59.4151 18.3475C59.3076 18.1875 59.0926 18.135 59.0401 17.92C58.9851 17.8125 59.0401 17.6525 59.0401 17.5975C59.0401 17.4375 58.8251 17.49 58.7701 17.3825C58.6651 17.17 58.6101 16.795 59.0401 16.8475C59.0401 16.8475 58.9851 16.74 58.9851 16.6875H58.6101C58.5026 16.6875 58.5026 16.5275 58.5026 16.4725C58.4501 16.2575 58.5576 15.9375 58.3951 15.7775C58.1826 15.67 57.9676 15.615 57.8076 15.5075C57.6451 15.4025 57.5376 15.295 57.3776 15.1875C57.2701 15.1325 57.1101 15.295 57.0026 15.1875C56.6826 14.8125 56.4151 14.3825 56.0926 13.9C55.9851 13.74 55.7176 13.74 55.5026 13.795C55.4501 13.795 55.5026 13.9 55.4501 13.9H55.5576C55.6626 14.115 55.6101 14.2225 55.6101 14.2225V14.2225Z" fill="white"></path><path d="M53.6248 14.9751C53.4673 15.1876 53.5198 15.4551 53.6798 15.5076C53.9362 15.6077 54.2171 15.6269 54.4848 15.5626C54.6448 15.5626 54.6998 15.4026 54.8048 15.2401C54.9673 15.0276 55.3423 15.1326 55.6098 15.0276C55.5573 15.1876 55.7173 15.1876 55.7698 15.2401C55.7698 15.0801 55.7698 14.8126 55.6098 14.7051C55.3423 14.5451 55.3423 14.3301 55.2348 14.1151C55.1798 14.0626 55.0748 14.1701 55.0748 14.2226C55.0748 14.5976 54.7523 14.5451 54.4848 14.6501V14.7576H54.3773C54.3248 14.7051 54.3248 14.7051 54.3248 14.5976C54.1623 14.5976 54.0023 14.5976 53.9498 14.7051C53.8423 14.8126 53.6798 14.8126 53.6248 14.9726V14.9751ZM48.4848 6.45255C48.2698 6.02505 47.8948 5.59755 48.0023 5.00755C48.6998 5.22255 49.2873 5.11505 49.9848 4.90005C50.4673 4.74005 51.0573 5.00755 51.5398 4.68505C51.5923 4.63255 51.5398 4.47005 51.5398 4.31005C50.9498 4.57755 50.5198 3.82755 49.9848 4.15005C49.3423 4.52505 48.6448 4.68505 47.9498 4.84505C47.4123 4.95255 46.0748 4.90005 46.0198 5.65005C46.7698 5.65005 47.5198 5.70255 48.0023 6.34755C48.0573 6.50755 48.3248 6.45255 48.4848 6.45255ZM50.7348 9.66755C50.9498 9.99005 51.2698 10.0976 51.5923 10.2051C51.6448 10.0426 51.5373 9.93505 51.4323 9.83005C51.2173 9.66755 51.0023 9.66755 50.7323 9.66755H50.7348ZM50.1998 10.7401C50.0923 10.7951 50.1998 10.9551 50.3073 11.0651C50.3623 10.9551 50.5223 10.6326 50.1998 10.7401ZM49.7148 10.0976H49.8223V9.99005C49.8223 9.72255 49.5548 9.66755 49.3948 9.66755V9.83005C49.5023 9.93505 49.5548 10.0426 49.7148 10.0976ZM51.6448 12.6151C51.6448 12.6151 51.7523 12.6701 51.7523 12.6151C51.8048 12.5626 51.8598 12.5076 51.8048 12.4001V12.4551C51.7548 12.4001 51.8598 12.2401 51.7548 12.1876H51.6448C51.5373 12.2951 51.6448 12.4551 51.6448 12.6151ZM52.3398 12.6151C52.3398 12.7226 52.3398 12.7776 52.3948 12.8851C52.4498 12.8851 52.5023 12.8851 52.5023 12.8326C52.4498 12.7776 52.4498 12.7226 52.4498 12.6701C52.5023 12.5076 52.3398 12.6701 52.3398 12.6151V12.6151ZM52.0748 13.1501C52.1273 13.2576 52.1823 13.1501 52.2348 12.9901V12.9376C52.2348 12.9376 52.2873 12.9376 52.2873 12.9901L52.2348 12.9376C52.1273 12.8301 51.9673 12.7226 51.8598 12.8301C51.7523 12.9901 52.0198 12.9901 52.0748 13.1501ZM52.3398 13.2051C52.3948 13.2576 52.2348 13.2051 52.2898 13.2576C52.3948 13.4726 52.6648 13.5251 52.7698 13.4726C52.8773 13.4176 52.9298 13.2576 52.8773 13.2051C52.7698 13.0976 52.5548 13.2051 52.3948 13.2051H52.3423H52.3398ZM53.3598 13.6876C53.4673 13.6326 53.3598 13.5801 53.3598 13.5251C53.3048 13.4201 53.2523 13.3126 53.1448 13.3651C53.0923 13.4201 52.9848 13.5801 53.0923 13.6876C53.1448 13.6876 53.2523 13.7401 53.3598 13.6876V13.6876ZM53.6823 14.2751C53.7348 14.3301 53.8423 14.2226 53.8948 14.1701V14.0626C53.9498 14.0626 53.9498 14.0626 53.9498 14.0076C54.0023 13.9551 53.9498 13.8476 53.8973 13.7951C53.8423 13.7951 53.7348 13.8476 53.6823 13.7951V13.7401C53.6273 13.6876 53.5223 13.6326 53.4673 13.6876C53.3598 13.7951 53.3598 13.9001 53.4148 14.0076C53.4753 14.1214 53.5685 14.2145 53.6823 14.2751V14.2751ZM53.0923 14.7576C53.1448 14.7576 53.1998 14.7051 53.1998 14.6501V14.3826C53.1998 14.3301 53.1448 14.3301 53.0923 14.3301C53.0373 14.3826 53.0373 14.4901 52.9848 14.4901C52.9323 14.6501 52.9848 14.7576 53.0923 14.7576ZM52.5023 3.93505C52.5023 3.93505 52.4498 3.93505 52.5023 3.93505C52.4498 3.88255 52.5023 3.82755 52.5023 3.82755C52.3948 3.72005 52.2348 3.77505 52.1273 3.77505C52.2348 3.93505 52.3423 4.04255 52.5023 3.93505V3.93505ZM59.8448 9.29255C59.9498 9.40005 60.2198 9.24005 60.3248 9.40005C60.4323 9.50755 60.5398 9.77505 60.7548 9.77505C60.9148 9.77505 60.9673 9.72255 61.0223 9.61505C61.0748 9.24005 60.9148 8.86505 60.5948 8.70505C60.2698 8.59755 59.8948 8.59755 59.5748 8.59755C59.3623 8.59755 59.3623 8.86505 59.4673 8.97255C59.5223 9.02505 59.6823 9.13255 59.8423 9.29255H59.8448ZM68.7348 20.5451C68.5223 20.2776 68.4673 19.9026 68.3098 19.6876C68.1473 19.4726 67.8248 19.4201 67.6098 19.2051C67.5573 19.0976 67.7173 18.8301 67.5573 18.7226C67.4616 18.6811 67.3849 18.6053 67.3423 18.5101C67.3008 18.3722 67.2321 18.2441 67.1402 18.1333C67.0483 18.0225 66.9351 17.9313 66.8073 17.8651C66.8598 17.4901 66.5398 17.3301 66.2173 17.2226C66.2173 17.2226 66.2723 17.1151 66.2723 17.0626C66.2723 16.9026 66.0573 16.8476 65.9498 16.8476C65.8973 16.7951 65.8423 16.8476 65.7898 16.7951C65.6298 16.5801 65.3598 16.4201 65.3073 16.2051C65.1998 15.8826 64.8773 15.7226 64.6098 15.5076C64.5023 15.4551 64.3973 15.1876 64.3973 15.1876C64.1823 15.1876 63.9673 15.1876 63.9148 14.9726C63.8598 14.5976 63.5398 14.3301 63.2698 14.1151C62.8448 13.7951 63.2198 13.1501 63.0573 12.6676C63.0023 12.4551 62.7898 12.4551 62.6273 12.4551C62.5748 12.4551 62.5223 12.4001 62.4673 12.3476C62.3073 12.0251 62.4148 11.7051 62.2523 11.4376C61.9323 11.0076 61.6098 10.6876 61.2873 10.2576C61.0748 10.0426 60.8073 10.0976 60.5923 10.0426C60.5398 10.0426 60.4848 9.99005 60.4323 9.93505C60.3773 9.88255 60.3248 9.77505 60.2698 9.66755C60.1098 9.45505 59.8423 9.34755 59.5748 9.24005C59.1448 9.02505 58.6623 9.13255 58.1823 9.08005C57.7991 9.0702 57.4227 9.18225 57.1073 9.40005C56.7873 9.66755 56.4123 9.77505 55.9823 9.88255C55.8223 9.93505 56.0373 10.0976 55.9823 10.2576C55.8773 10.4176 55.6623 10.5801 55.7698 10.7401C55.8223 10.7401 55.6623 10.7401 55.7173 10.7926C55.7698 10.9001 55.9848 10.7926 56.0923 10.7926C56.2523 10.7926 56.3048 11.0076 56.3598 11.0626C56.5748 11.2751 56.7348 11.4376 56.8423 11.7051C56.8948 11.7576 56.7348 11.9726 56.7873 12.0251C57.0023 12.2926 57.0023 12.5076 57.0023 12.7751C57.0023 12.8826 57.2698 12.7751 57.3248 12.8301C57.6448 12.9901 57.7523 13.4726 57.6448 13.7951C57.5848 14.0088 57.6043 14.2371 57.6998 14.4376C57.8598 14.7576 57.9123 15.2401 58.2348 15.5076C58.2873 15.4001 58.3948 15.2401 58.4498 15.2951C58.7173 15.3476 58.7173 15.1326 58.8773 15.0251C59.4123 14.7051 59.8423 15.3501 59.9498 15.7751C60.1098 16.1501 59.9498 16.6876 60.1098 17.0626C60.2698 17.4376 60.4848 17.7576 60.8598 17.9201C60.9123 17.9726 60.9673 18.1876 61.0198 18.3476C61.0748 18.4551 61.1273 18.5626 61.2873 18.4551C61.3948 18.4026 61.3423 18.2401 61.5023 18.1326C61.6098 18.0826 61.7173 18.1876 61.8248 18.2401C62.1448 18.6701 62.2523 19.5276 62.8948 19.4726C62.8948 19.5801 62.9498 19.6351 63.0023 19.6876C63.1648 19.7401 63.2698 19.5276 63.3248 19.6876C63.4323 19.8476 63.4848 20.0101 63.6473 20.1151C63.8598 20.1701 64.1273 20.1151 64.3423 20.1701C64.5023 20.2226 64.6098 20.3851 64.7173 20.5451C64.7723 20.6526 64.8773 20.7601 64.9323 20.8651C65.3598 21.2951 65.5748 21.9901 66.1098 22.3151C66.2723 22.4201 66.4323 22.6351 66.6998 22.5801C66.7548 22.5801 66.6998 22.4726 66.8073 22.4726C67.0223 22.4726 67.1823 22.2601 67.2348 22.1526C67.4299 21.9155 67.6661 21.7156 67.9323 21.5626V21.4551C68.1473 21.2951 68.4148 21.2426 68.5748 21.0801C68.9498 20.9201 68.8423 20.6526 68.7348 20.5451V20.5451ZM60.0573 19.5251C60.1098 19.5251 60.1648 19.5801 60.2198 19.5801H60.3273L60.0573 19.5276V19.5251ZM59.6273 20.7601C59.7348 20.9201 59.8948 20.9201 60.0573 21.0276C60.2173 21.1351 60.2698 21.3476 60.4323 21.4551C60.7523 21.6176 60.5923 21.1351 60.7523 20.9726C60.8073 20.9201 60.9673 20.9726 61.0198 20.9201C61.1823 20.6526 60.9673 20.3301 60.7523 20.1151C60.5923 19.9551 60.4323 19.6876 60.1623 19.5801C60.0548 19.5276 59.8948 19.5276 59.8423 19.6876C59.7348 19.9026 59.8423 20.1701 59.7348 20.3851C59.7348 20.4901 59.6273 20.6526 59.6273 20.7601ZM61.2898 21.7751C61.1823 22.1501 61.2373 22.5801 61.1823 23.0626C61.1298 23.2776 60.8073 23.2251 60.6998 23.4376C60.6325 23.5711 60.5957 23.718 60.5923 23.8676C60.6473 24.1351 60.9673 24.1351 61.1823 24.2426C61.7173 24.5101 62.1998 24.8851 62.5223 25.4201C62.6298 25.5826 62.6823 25.8501 62.8423 26.0101C63.0048 26.1701 63.2723 26.1701 63.3248 26.4376C63.3248 26.5451 63.5398 26.6001 63.6473 26.5451C63.9148 26.3326 63.9148 25.9026 63.6998 25.6351C63.5923 25.5276 63.4323 25.3676 63.4323 25.2076C63.4323 24.6176 63.2173 24.0826 62.8973 23.5451C62.6823 23.2776 62.3623 23.1176 62.1473 22.8476C62.1473 22.7976 62.0398 22.6876 62.0923 22.6351C62.1473 22.4726 62.3073 22.4201 62.3623 22.2601C62.4148 21.9376 62.0398 21.8301 61.9873 21.5626H61.8248L61.9848 21.6176C61.7173 21.4026 61.3973 21.5101 61.2898 21.7776V21.7751ZM64.3973 24.6701C64.3423 24.5101 64.3973 24.2951 64.3973 24.1351C64.3973 23.8126 64.0223 23.7601 63.7548 23.7601C63.6473 23.7601 63.4873 23.7051 63.4873 23.8676C63.4873 23.9751 63.4873 24.1351 63.5398 24.2951C64.0223 24.8851 64.0223 25.6876 64.2373 26.3851C64.2898 26.6526 64.7723 26.4376 64.8798 26.1176C64.9323 25.9576 64.9323 25.7951 64.9323 25.6876C64.8798 25.5276 64.7198 25.4201 64.6648 25.2601C64.5573 25.0451 64.4498 24.8851 64.3973 24.6701V24.6701ZM63.6473 22.8501C63.4323 23.0101 63.7523 23.2251 63.6998 23.4376H63.8073C63.9673 23.4926 63.9673 23.3301 63.9673 23.2776C63.6998 23.2776 63.7523 23.0101 63.7523 22.8476C63.6998 22.8476 63.6448 22.7951 63.6448 22.8476L63.6473 22.8501ZM63.4848 22.2051C63.4848 22.0451 63.4848 21.9376 63.3248 21.8851C63.2723 22.0976 63.0573 22.0451 62.9498 22.1526C62.7898 22.2601 62.9498 22.4726 63.1098 22.5276C63.1648 22.5276 63.1648 22.5801 63.1648 22.5801C63.4848 22.6876 63.6998 22.4726 63.5923 22.1526C63.6473 22.2051 63.5398 22.2051 63.4848 22.2051V22.2051ZM62.4148 21.1876C62.6823 21.3476 62.4148 21.6176 62.6298 21.7226C62.7898 21.8301 63.0573 21.8851 63.2198 21.7226C63.3273 21.6176 63.2198 21.4551 63.0048 21.4026C62.8973 21.4026 62.8973 21.2401 62.9498 21.0801C62.8998 21.0801 62.8448 21.0276 62.7898 21.0276C62.5773 20.8651 63.0048 20.7601 62.8448 20.5976C62.7898 20.5451 62.8448 20.4901 62.7898 20.4901C62.7373 20.4376 62.6298 20.4901 62.5773 20.5976C62.5223 20.7051 62.6273 20.8126 62.5773 20.9201C62.5773 21.0276 62.3073 21.1351 62.4148 21.1876V21.1876ZM62.3073 19.8501C62.1998 19.7951 61.9848 19.9001 61.8798 19.6876H61.7173C61.6648 19.6876 61.6648 19.7401 61.6648 19.7401C61.6098 19.8476 61.5048 19.9026 61.6098 20.0101C61.6973 20.0852 61.7702 20.1759 61.8248 20.2776C61.8773 20.4376 62.0923 20.2776 62.1473 20.3851C62.1998 20.4901 62.3073 20.5451 62.3598 20.4901C62.4673 20.4401 62.3598 20.2776 62.4148 20.1701C62.3598 20.2226 62.3598 20.0626 62.3073 20.1151C62.3598 20.0101 62.4148 19.9026 62.3073 19.8476V19.8501ZM46.9298 29.8676H47.0373C47.0373 29.8151 47.0373 29.7601 47.0923 29.7076C47.1448 29.6001 47.0923 29.5451 47.0373 29.4926C46.9848 29.3851 46.8248 29.4926 46.8773 29.6526H46.9848C46.8773 29.7076 46.8773 29.7601 46.9298 29.8676Z" fill="white"></path><path d="M63.8599 27.1351C63.5924 27.0276 63.3249 27.1876 63.0574 27.3501C62.5224 27.6176 62.4674 28.3151 62.1474 28.6901C62.0532 28.8126 61.9309 28.9107 61.7908 28.9759C61.6506 29.0412 61.4969 29.0718 61.3424 29.0651C61.2899 29.0651 61.1824 29.0101 61.1824 28.9026C61.1824 28.7426 61.1274 28.5826 61.2349 28.4751C61.3551 28.4024 61.4638 28.3122 61.5574 28.2076C61.7174 27.9926 61.6099 27.7251 61.5024 27.5101C61.3949 27.0276 60.8599 26.7601 60.4324 26.8126C60.0024 26.9201 59.6824 27.4026 59.4674 27.7776H59.3599C59.1999 27.5626 58.9324 27.4576 58.8249 27.2426C58.7699 27.2426 58.7699 27.1876 58.8249 27.1351C58.9849 27.2426 59.1449 27.5101 59.3599 27.4026C59.5749 27.2951 59.4149 27.0276 59.2524 26.9751C59.0924 26.9201 58.9324 26.7601 58.7699 26.7601C58.6099 26.7601 58.4499 26.5451 58.3949 26.3851C58.3424 26.1176 58.2874 25.7951 58.0749 25.7426C57.8599 25.6351 57.6449 25.6351 57.3774 25.4751C57.2699 25.4201 57.1649 25.5276 57.0574 25.4751C57.1099 25.4201 57.0574 25.2601 57.1099 25.2601C57.3774 25.2076 57.7524 25.2076 57.5374 24.9376C57.4849 24.7776 57.3249 24.6176 57.1099 24.7776C57.0574 24.7776 56.9499 24.7776 56.9499 24.8851C56.8949 24.9376 56.8949 24.9926 56.8949 25.0451C56.8424 25.1526 57.0024 25.3676 56.8949 25.4751C56.7349 25.5826 56.4674 25.5826 56.2524 25.7426H56.0924C55.8774 25.6876 55.6099 25.4751 55.5024 25.5276C55.3949 25.6876 55.3424 25.9026 55.1824 26.0101C55.0199 26.0626 54.8574 26.0626 54.6999 26.1701C54.4324 26.2776 54.5924 26.6001 54.6999 26.8676C54.7524 26.9201 54.6999 27.0826 54.6449 27.1351C54.4849 27.2426 54.4324 27.0276 54.3774 26.9201C54.3249 26.7051 54.2174 26.4376 54.2174 26.1701C54.2174 25.9026 54.5374 25.7426 54.5924 25.5276C54.6449 25.3676 54.6999 25.2051 54.5924 25.0451C54.4849 24.8851 54.2699 24.7776 54.1099 24.8301C53.6799 24.9376 53.5199 25.7426 53.0374 25.5276C52.8249 25.4201 52.6099 25.2051 52.3424 25.0451C52.1799 24.9376 52.0199 24.8301 51.9124 24.9926C51.5924 25.2601 51.1624 25.3676 50.8424 25.5276C50.5012 25.7186 50.2364 26.0215 50.0924 26.3851C49.8774 26.8126 49.1274 27.0276 48.8599 26.5451C48.8066 26.4181 48.7169 26.3097 48.6021 26.2337C48.4874 26.1576 48.3526 26.1172 48.2149 26.1176C47.9474 26.1701 47.8949 26.4926 47.6274 26.5451C47.4124 26.6001 47.3049 26.4926 47.1974 26.3851V26.2776C47.5567 25.9644 47.9761 25.7279 48.4299 25.5826C48.6449 25.4751 48.6974 25.2576 48.5899 25.0451C48.5899 24.9926 48.5899 24.9376 48.5374 24.8851C48.5311 24.7941 48.5134 24.7042 48.4849 24.6176C48.1972 24.6489 47.9226 24.7543 47.6877 24.9234C47.4529 25.0926 47.2659 25.3196 47.1449 25.5826C47.0899 25.6326 47.0899 25.7426 47.0374 25.7426C46.6624 25.6876 46.2874 25.9026 46.0199 25.6876C45.9649 25.6351 45.8574 25.2601 45.8049 25.2601C45.6449 25.4201 45.5899 25.5826 45.4299 25.7951L45.2149 26.0101C45.0024 26.3326 45.4299 26.6526 45.3224 26.9201C45.2699 27.0276 44.8949 27.0276 44.7324 27.1351C44.6249 27.1351 44.6249 27.3501 44.6249 27.4576C44.6249 27.5626 44.7324 27.5626 44.8399 27.6176C45.0549 27.8326 45.0549 28.1526 45.3224 28.3126C45.6449 28.4751 46.0199 28.3676 46.4474 28.4751C46.7149 28.5276 46.8774 28.6876 46.9849 28.9576C47.0349 29.1176 47.2524 29.1701 47.2524 29.3851C47.2524 29.4926 47.3599 29.5451 47.4649 29.6001C47.5724 29.6526 47.7324 29.4926 47.8399 29.6001C48.0024 29.6526 47.9474 29.8676 48.0024 29.9751C48.0549 30.2426 47.9474 30.5101 48.2149 30.7776C48.3224 30.8851 48.1074 31.1526 48.0024 31.2601C47.9474 31.3151 47.7874 31.3151 47.7324 31.3676C47.6889 31.5877 47.7271 31.8161 47.8399 32.0101C47.9474 32.1176 48.0549 32.0101 48.1099 32.0651C48.3224 32.3326 48.3774 32.6001 48.5374 32.8151C48.5978 32.929 48.691 33.0221 48.8049 33.0826C48.6974 33.0826 48.6449 33.2426 48.6974 33.2976C48.7524 33.3501 48.9124 33.4576 49.0199 33.3501C49.1274 33.2426 49.2874 33.1901 49.4474 33.0826C49.5549 32.9751 49.6624 33.0276 49.7699 32.9751C49.8774 33.0826 49.9299 33.2426 49.8774 33.3501C49.6624 33.5651 49.2874 33.4026 49.0724 33.5651C48.9124 33.6176 48.7524 33.6176 48.6449 33.7251C48.5899 33.8326 48.6449 33.9926 48.8049 33.9926C49.2874 34.1001 48.9124 34.8501 48.6449 35.2251C48.5899 35.2801 48.6449 35.4401 48.6449 35.6001C48.6449 35.6551 48.5374 35.7076 48.4849 35.7076C48.0024 35.7626 47.5199 35.6001 47.0349 35.7626C46.8774 35.8126 46.8224 36.0301 46.7149 36.1876H46.8224C46.7149 36.1876 46.7149 36.3501 46.6624 36.4051C46.6099 36.4576 46.6624 36.6726 46.6099 36.7251C46.1799 37.2076 46.1274 37.7976 46.0199 38.3326C46.0199 38.4951 46.2324 38.6001 46.3399 38.6001C46.4474 38.6001 46.6074 38.4951 46.7149 38.4951C46.9299 38.4951 46.8774 38.8701 46.9849 39.0301C47.0899 39.1901 47.4099 39.2426 47.4099 38.9751C47.4649 38.7626 47.4649 38.5476 47.5199 38.3876C47.5724 38.1726 47.3599 37.9576 47.3049 37.7426C47.2524 37.5301 47.3574 37.3676 47.4649 37.2076C47.5724 37.1551 47.6799 37.2076 47.7324 37.3676C47.7874 37.4751 47.7874 37.6376 47.8399 37.7976C47.8949 37.9576 47.7874 38.1201 47.8399 38.2251C47.9474 38.3326 47.9474 38.4951 47.9474 38.6001C47.9474 38.6551 47.8399 38.7076 47.8399 38.8151C47.7874 38.9751 47.8949 39.1901 47.7324 39.2426C47.5724 39.3501 47.6274 39.5676 47.4124 39.5676C47.0374 39.5676 46.5549 39.4051 46.6624 38.9751C46.5024 38.9751 46.3399 38.9751 46.2874 39.0826C46.1799 39.2451 46.2874 39.5126 46.1799 39.6726C46.0199 39.8326 45.9649 40.0476 45.8049 40.2076C45.7524 40.2626 45.8574 40.2626 45.8049 40.3701C45.5899 40.6376 45.3774 40.6901 45.1074 40.9051V40.9576C44.9474 41.0651 44.6799 40.9051 44.6274 41.0651C44.5199 41.2801 44.8399 41.4401 44.9474 41.6026C44.9999 41.7626 44.9999 41.9226 44.7874 41.9226C44.5199 41.9776 44.2524 41.9226 43.9299 41.9226C43.9299 42.0301 43.8749 41.9776 43.8749 42.0301C43.8224 42.2976 43.8749 42.5126 43.6624 42.7276C43.5549 42.8876 43.7149 43.1026 43.8224 43.2076C43.9299 43.3701 43.9824 43.5826 44.1449 43.6376C44.2524 43.6376 44.3574 43.7976 44.4649 43.7451C44.7324 43.6901 44.8949 43.5826 44.9999 43.3151C45.0549 43.1551 45.2699 43.3151 45.4824 43.3151C45.5374 43.3151 45.6449 43.2626 45.6449 43.2076C45.7524 43.0476 45.6449 42.8326 45.6974 42.7276C45.9649 42.4576 46.2324 42.1901 46.6074 41.9776C46.7149 41.8701 46.8774 41.7626 47.0899 41.8151C47.1974 41.8701 47.3049 41.9226 47.4649 41.9776C47.5724 42.0301 47.7324 42.1376 47.8399 42.1901C47.8949 42.2451 48.0024 42.2451 48.0549 42.2976C48.2699 42.4051 48.4299 42.6726 48.6974 42.8326C48.7524 42.8326 48.6974 42.7276 48.8049 42.7801C48.8097 42.5721 48.7541 42.3671 48.6449 42.1901C48.4849 41.9776 48.2699 41.8701 48.0549 41.7076C48.0024 41.6551 48.0024 41.4951 48.1074 41.3876C48.1074 41.3326 48.2149 41.3326 48.2149 41.3876C48.3774 41.4951 48.4849 41.4951 48.6449 41.6001C48.9124 41.7076 48.8599 42.1376 49.1274 42.3001C49.2874 42.3501 49.3399 42.5651 49.5024 42.6201C49.7174 42.6726 50.0374 42.6201 50.1449 42.3526C50.2524 42.1901 50.0924 42.1376 49.9849 42.0301C49.7699 41.8701 50.0924 41.8151 50.1974 41.6551C50.3599 41.4401 50.1974 41.2801 50.1974 41.0651C50.1974 40.9576 50.2524 40.9051 50.3049 40.9051C50.3049 40.9051 50.3049 40.8526 50.3599 40.8526C50.4674 40.5826 50.3599 40.3151 50.4674 40.1026C50.5199 40.0476 50.5724 40.0476 50.5724 40.1026C50.6274 40.2076 50.7874 40.3151 50.8949 40.2626C51.0912 40.2211 51.2641 40.1056 51.3774 39.9401C51.5374 39.7251 51.9124 39.8326 52.0199 40.0476C52.0724 40.2076 52.0199 40.4226 51.8599 40.4751C51.4526 40.5465 51.0674 40.7117 50.7349 40.9576C50.6799 41.0126 50.6274 41.0126 50.6274 41.0651C50.4649 41.1726 50.3599 41.3326 50.4649 41.6026C50.4649 41.7076 50.3599 41.8151 50.2524 41.9226C50.4124 41.9776 50.4124 42.1901 50.5724 42.2451C50.8424 42.2976 51.1099 42.2976 51.3224 42.1376C51.3774 42.0301 51.4299 41.9226 51.3774 41.7626C51.5374 41.7626 51.6974 41.6026 51.8599 41.5476C52.2349 41.4951 52.4499 41.9226 52.3424 42.2451C52.3424 42.2976 52.2349 42.2976 52.1799 42.3526C51.9674 42.6726 51.8599 42.9951 51.5374 43.1026C51.0549 43.3701 50.4674 43.2626 50.0374 43.5301C49.8774 43.6376 49.8224 43.9051 49.5549 44.0126C49.3424 44.0651 49.0724 44.1726 48.8599 44.0126V44.0651C48.8599 44.2276 48.3774 44.1201 48.1099 44.0126C48.0549 44.0126 48.0549 43.7451 47.9474 43.6901C47.8399 43.6376 47.6799 43.6901 47.6799 43.6376C47.6274 43.5851 47.6799 43.4776 47.6274 43.4226C47.0374 43.3151 46.5024 43.4776 45.9649 43.4226C45.8049 43.4226 45.8574 43.6376 45.6974 43.6901C45.5899 43.7451 45.4824 43.8526 45.3774 43.9051C45.1624 44.0126 44.8949 44.1726 44.6274 44.0651C44.3574 44.1726 44.1449 44.1726 43.9274 44.2276C43.5524 44.2801 43.3399 44.6026 43.0724 44.8151C42.8574 44.9776 42.5899 44.9776 42.3224 44.9776C42.2699 44.9776 42.2699 45.0851 42.2149 45.0851C41.8399 45.1901 41.4649 45.6726 41.2499 46.1026C41.1974 46.2101 41.2499 46.3701 41.1974 46.4776C40.9824 46.7976 40.8749 47.1201 40.6074 47.3876C40.5549 47.4426 40.5549 47.4951 40.6074 47.5476C40.9299 47.9776 41.3049 48.2451 41.6249 48.7276C41.6799 48.8351 41.8399 48.8351 41.8949 48.9426C41.9999 49.2101 42.2149 49.4776 42.3199 49.7451C42.5374 50.1201 43.0724 50.2276 43.4999 50.1201C43.6624 50.0676 43.8749 50.2276 44.0374 50.2801C44.5724 50.3351 45.1074 50.4426 45.5899 50.1751C46.3399 50.3876 47.0899 50.0676 47.7324 50.3876C47.8399 50.4426 47.8399 50.6551 47.9474 50.8176C48.1099 51.0851 48.2699 51.4051 48.5899 51.6201C48.8477 51.791 49.1409 51.9013 49.4474 51.9426C49.5549 51.9426 49.5549 52.1551 49.6099 52.2626C49.7174 52.3701 49.6624 52.5851 49.7699 52.6926C49.9299 52.8526 50.0899 52.9601 50.0374 53.1751C50.0374 53.4426 49.7174 53.6576 49.9299 54.0326C49.9849 54.1401 49.9299 54.3001 49.9849 54.4076C50.4124 54.8351 50.7874 55.2101 51.2699 55.5851C51.3224 55.6401 51.4299 55.6926 51.3774 55.8001C51.5924 55.8526 51.5924 56.0676 51.7524 56.1751C51.8599 56.2826 51.8049 56.4976 51.9124 56.6026C52.0724 56.8176 52.2874 57.0326 52.4499 57.1926C52.7174 57.4076 53.0374 57.3526 53.3599 57.4076C53.4331 57.4746 53.5282 57.5128 53.6274 57.5151C53.765 57.5724 53.9139 57.5972 54.0626 57.5877C54.2113 57.5781 54.3558 57.5345 54.4849 57.4601C54.5924 57.3526 54.7524 57.1401 54.8599 57.0326C55.0749 56.8726 55.4499 56.8726 55.7174 56.8176C55.7699 56.8176 55.8774 56.7651 55.8774 56.7101C55.9299 56.5501 56.0924 56.4426 56.0374 56.2826C56.2524 56.2826 56.4124 56.1751 56.6274 56.0676C57.0024 55.9076 57.2699 55.5326 57.5924 55.2101C57.9149 54.8901 58.5024 55.0501 58.6624 54.6751C58.8774 54.3001 58.6124 53.8176 58.7699 53.4426C58.8889 53.2472 58.9623 53.0276 58.9849 52.8001C59.04 52.4447 59.04 52.0829 58.9849 51.7276C58.9849 51.5126 58.7699 51.3001 58.7699 51.0851C58.7699 50.9251 59.0399 50.9251 59.0924 50.8176C59.2135 50.5215 59.3564 50.2349 59.5199 49.9601C59.5199 49.9051 59.6274 49.8526 59.7349 49.7976C59.8974 49.6926 59.7349 49.5301 59.7899 49.4226C59.6824 49.3726 59.6274 49.2626 59.5749 49.2101C59.2524 48.7801 58.9849 48.3526 58.5024 48.1376C58.3949 48.0851 58.3424 47.9776 58.2899 47.8701C58.2349 47.8176 58.2899 47.7101 58.2349 47.6551C58.1274 47.5476 58.1824 47.4426 58.1274 47.3351H58.2349C58.1824 47.3351 58.1824 47.2801 58.1824 47.2801C58.2899 47.0126 58.4499 46.6926 58.6624 46.5301C58.7174 46.4776 58.9324 46.4776 58.9324 46.3701C58.9966 46.1208 58.9772 45.8573 58.8774 45.6201C58.6649 45.2976 58.8774 44.9776 58.8249 44.6551C58.7699 44.0651 58.7699 43.5301 58.5024 42.9951C58.4499 42.8326 58.2899 42.7276 58.0749 42.7801C57.9674 42.7801 57.9674 42.9401 57.9149 42.9951C57.8469 43.1085 57.8098 43.2378 57.8074 43.3701C57.6999 43.5826 57.4324 43.6376 57.3774 43.8526C57.3249 43.9601 57.3249 44.1201 57.2699 44.1726C57.1624 44.2801 57.1099 44.4401 56.9499 44.4401L56.3074 44.6026C56.0772 44.6566 55.8376 44.6566 55.6074 44.6026C54.3774 44.2276 53.3074 43.7976 52.0749 43.4226V43.3151C52.2874 43.2076 52.4999 43.3701 52.6624 43.3151C52.8224 43.3151 52.6099 43.1026 52.7174 43.1026C52.9849 43.1551 53.1974 43.3151 53.4124 43.4226C53.9499 43.5826 54.4324 43.6376 54.9674 43.7976C55.3949 43.9051 55.6624 44.1726 56.0924 44.2801C56.4124 44.3876 56.6824 44.1201 56.9499 44.0126V43.8526C57.0574 43.6376 57.2699 43.5301 57.3774 43.3151C57.4324 43.1551 57.3249 42.9401 57.4324 42.7801C57.516 42.7018 57.5876 42.6117 57.6449 42.5126C57.6999 42.2451 57.6449 41.9776 57.6449 41.7076C57.8074 41.7076 57.9149 41.5476 57.8599 41.4951C57.8074 41.4401 57.8074 41.3876 57.8074 41.3326C57.8074 41.1726 57.8074 41.0126 57.8599 40.8501C57.9674 40.4751 57.8074 40.1001 57.6449 39.7251C57.5918 39.6514 57.5169 39.5963 57.4308 39.5675C57.3446 39.5388 57.2516 39.538 57.1649 39.5651C57.1225 39.6136 57.0863 39.6674 57.0574 39.7251C56.8424 39.7251 56.6824 39.8326 56.5749 39.8876C56.4124 39.9951 56.4124 40.3151 56.3074 40.4226C56.0924 40.6376 55.8249 40.7976 55.5574 40.9576C55.3424 41.0651 55.0749 40.9576 55.0199 40.7976C54.8074 40.3151 55.5024 40.3701 55.8774 40.3151L56.0374 40.1551C56.1449 39.9401 56.1999 39.7251 56.3599 39.6176C56.4674 39.5676 56.6274 39.5676 56.7349 39.5676C56.8424 39.6176 56.9499 39.4051 57.1099 39.3501C57.2174 39.2976 57.2174 39.1376 57.2174 38.9751C57.2699 38.7626 57.5374 38.6551 57.5924 38.4951C57.8074 38.1201 57.8074 37.5301 58.1274 37.2076C58.3424 37.0476 58.2349 37.4751 58.2874 37.5826C58.3949 37.7426 58.7699 37.7426 58.9324 37.5826C59.0399 37.4751 58.9324 37.2076 59.0924 37.1001H59.3599C59.5199 37.2076 59.6824 37.3676 59.8424 37.2626C59.9499 37.2076 60.0574 37.0476 60.1649 36.9926C60.3249 36.9401 60.5399 36.9926 60.6999 36.8851C61.1274 36.6726 62.0924 36.9926 62.0399 36.5651C61.9324 35.8676 61.3949 35.2801 60.7524 35.0101C60.2724 34.7426 60.4324 34.1001 60.0024 33.6726C59.8949 33.6176 59.9499 33.4051 59.8424 33.2976C59.7899 33.2426 59.7349 33.2426 59.6824 33.1901C59.6274 33.1351 59.5199 33.0826 59.5199 33.0276C59.5749 32.6526 59.4149 32.3326 59.6274 32.0101C59.7349 31.8501 59.9499 31.7976 60.0574 31.6901C60.2174 31.5276 60.4849 31.4751 60.4849 31.2601C60.4849 30.9926 60.4849 30.6701 60.5399 30.4026C60.5399 30.2951 60.7524 30.1901 60.8599 30.1901C61.3424 30.1901 61.9324 30.3501 62.4149 30.0276C62.5224 29.9201 62.5749 29.7601 62.6274 29.6526C63.0024 29.1176 63.5399 28.6876 63.5399 27.9926C63.5399 27.8851 63.7524 27.8326 63.7524 27.7251C63.9149 27.2426 63.9149 27.1351 63.8599 27.1351V27.1351ZM54.0024 38.8701V38.9751C53.8949 39.0826 53.7349 39.0301 53.6799 38.8676C53.609 38.7305 53.5189 38.6042 53.4124 38.4926C53.3049 38.4926 53.1449 38.4926 53.0924 38.6001C52.9849 38.4951 52.8249 38.6001 52.7174 38.5476C52.7699 38.3326 52.5549 38.3326 52.4499 38.1726C52.3424 38.0651 52.3424 37.7976 52.5549 37.7426C52.7174 37.6901 52.8249 37.7976 52.8774 37.9576C52.8774 37.9051 52.8249 37.9051 52.8249 37.9051C52.8249 37.9576 52.7699 38.0126 52.8249 38.0651C52.9299 38.1726 53.0924 38.0126 53.2524 38.1176C53.4124 38.2251 53.6799 38.0651 53.8424 38.1726C53.8424 38.1726 53.8424 38.2801 53.8949 38.2801C54.1099 38.2801 54.2174 38.4951 54.1624 38.6551C54.1099 38.8151 54.0549 38.8676 54.0024 38.8676V38.8701ZM33.8574 76.6951C36.6424 72.5151 45.1074 68.1226 53.4149 68.1226C61.7724 68.1226 70.7724 72.9451 74.3099 70.3726C74.3099 70.3726 70.6649 73.5351 63.3249 73.5351C55.9849 73.5351 53.1999 69.8351 48.0549 69.8351C42.9649 69.8351 37.5549 73.9626 35.3049 77.4451L33.8574 76.6951V76.6951ZM60.1099 67.5326C60.1099 67.5326 62.5224 66.0876 63.8099 63.4076C65.0949 60.7276 68.4149 56.4951 71.7899 53.8701C71.7899 53.8701 67.9874 65.8201 64.1299 66.3551C64.1299 66.3551 63.4874 66.7301 64.6124 66.5151C65.7374 66.3551 70.6649 64.4801 72.4349 64.2126C74.2024 63.8901 78.4874 62.9251 79.6674 61.8001C80.6324 60.8351 81.3274 60.9976 81.3274 60.9976C81.3274 60.9976 76.5074 68.9801 67.8799 68.9801C67.9324 68.8726 63.6474 68.5526 60.1099 67.5326V67.5326Z" fill="white"></path><path d="M70.345 63.3551C70.345 63.3551 71.255 61.9626 71.47 59.5501C71.63 57.1926 73.0775 51.7276 77.255 45.7251C77.255 45.7251 77.845 55.1576 73.13 60.9426C73.13 60.9426 72.8625 61.7476 73.4525 61.1576C74.04 60.5676 77.0425 56.9776 83.4175 52.6376C83.4175 52.6376 86.74 49.9051 86.955 48.9951C86.9 49.1026 84.33 62.4451 70.345 63.3551V63.3551Z" fill="white"></path><path d="M78.4349 54.4599C78.4349 54.4599 78.8099 52.9599 78.8099 51.6749C78.8099 50.3874 78.2749 45.9949 78.2749 44.0649C78.2749 42.0824 78.4874 38.4924 79.9349 36.0299C79.9349 36.0299 79.9349 38.2249 80.4174 39.1899C80.8999 40.1549 81.4349 44.0124 81.4349 44.4949C81.4349 44.9774 81.3274 48.2999 80.4699 50.0124C80.4699 50.0124 81.1124 49.6924 81.7574 48.4049C82.4524 47.1199 84.0599 44.7624 86.5774 42.2449C89.0424 39.7249 89.5774 37.4749 89.5774 37.4749C89.5774 37.4749 90.1674 41.8149 86.9524 46.4249C83.7399 51.0849 82.3999 50.2799 80.6324 52.1574C80.6849 52.1024 78.6499 54.5674 78.4324 54.4599H78.4349Z" fill="white"></path><path d="M83.4725 43.905C83.4725 43.905 83.365 41.225 82.8825 40.37C82.345 39.5125 79.5075 34.26 80.095 27.51C80.095 27.51 80.5775 27.0825 81.49 29.7075C82.4 32.3325 83.685 33.0825 84.115 35.7075C84.5425 38.3325 84.5425 39.405 84.5425 39.405C84.5425 39.405 84.865 39.78 84.865 39.4575C84.865 39.1375 85.185 35.655 86.6325 32.44C88.08 29.225 90.0075 26.17 89.8475 24.0275C89.8475 24.0275 90.705 24.08 90.545 27.5625C90.3825 31.045 89.47 37.0475 83.47 43.905H83.4725Z" fill="white"></path><path d="M85.0797 33.2974C85.0797 33.2974 84.0072 30.8849 83.3097 30.0824C82.5597 29.3324 77.5247 21.9374 77.0947 18.6149C77.0947 18.6149 77.5247 18.4024 78.0072 19.2049C78.4897 20.0624 80.9522 22.4724 81.3297 22.8474C81.7547 23.2224 84.3297 25.9574 84.5422 28.8474C84.5422 28.8474 84.8122 29.1724 84.2747 24.2974C83.7922 19.4724 85.8822 16.3124 84.1672 12.8824C84.1672 12.8824 86.5247 13.2574 87.8122 23.2224C87.8122 23.2224 87.7572 26.7599 85.9372 31.0474C85.9897 31.0474 85.3472 33.2974 85.0797 33.2974V33.2974Z" fill="white"></path><path d="M83.2027 22.3676C83.2027 22.3676 81.3277 20.4376 79.7752 19.5276C78.2752 18.6151 73.5052 13.9026 72.7002 10.2576C72.7002 10.2576 73.0252 9.83014 74.5252 11.8651C75.7002 13.4176 76.8802 12.6676 80.3627 17.0626C80.3627 17.0626 80.8452 18.0276 81.1127 17.9726C81.3277 17.9201 81.0077 16.9551 81.0077 16.9551C81.0077 16.9551 80.3077 14.2226 80.2577 13.2576C80.2027 12.2926 78.8077 7.15014 78.3277 6.45264C78.3277 6.45264 82.9877 9.13263 83.6852 16.6326C83.6852 16.5801 83.4702 22.0451 83.2027 22.3676Z" fill="white"></path><path d="M79.1851 14.3299C79.1851 14.3299 79.5051 7.73986 70.8276 4.41736C70.8276 4.41736 73.8276 10.5799 76.0776 12.0249C78.3801 13.4724 79.1851 14.3299 79.1851 14.3299ZM57.1101 76.6949C54.3251 72.5149 45.8601 68.1224 37.5551 68.1224C29.2501 68.1224 20.1951 72.9449 16.6601 70.3724C16.6601 70.3724 20.3026 73.5349 27.6426 73.5349C34.9826 73.5349 37.7676 69.8349 42.9126 69.8349C48.0026 69.8349 53.4126 73.9624 55.6626 77.4449L57.1126 76.6949H57.1101ZM30.8576 67.5324C30.8576 67.5324 28.4451 66.0874 27.1601 63.4074C25.8751 60.7274 22.5526 56.4949 19.1776 53.8699C19.1776 53.8699 22.9276 65.8199 26.8376 66.3549C26.8376 66.3549 27.4276 66.7299 26.3576 66.5149C25.2326 66.3549 20.2476 64.4799 18.5326 64.2124C16.7651 63.8899 12.4251 62.9249 11.3001 61.7999C10.3376 60.8349 9.64014 60.9974 9.64014 60.9974C9.64014 60.9974 14.4626 68.9799 23.0901 68.9799C23.0901 68.8724 27.3201 68.5524 30.8576 67.5324V67.5324Z" fill="white"></path><path d="M20.625 63.3551C20.625 63.3551 19.7125 61.9626 19.55 59.5501C19.39 57.1926 17.89 51.7276 13.765 45.7251C13.765 45.7251 13.175 55.1576 17.8375 60.9426C17.8375 60.9426 18.1575 61.7476 17.57 61.1576C16.98 60.5676 13.98 56.9776 7.60249 52.6376C7.60249 52.6376 4.28249 49.9051 4.06749 48.9951C4.01249 49.1026 6.63749 62.4451 20.6225 63.3551H20.625Z" fill="white"></path><path d="M12.5323 54.4599C12.5323 54.4599 12.1573 52.9599 12.1573 51.6749C12.1573 50.3874 12.6948 45.9949 12.6948 44.0649C12.6948 42.0824 12.5323 38.4924 10.9798 36.0299C10.9798 36.0299 10.9798 38.2249 10.4973 39.1899C10.0148 40.1549 9.47977 44.0124 9.47977 44.4949C9.47977 44.9774 9.58727 48.2999 10.4423 50.0124C10.4423 50.0124 9.85477 49.6924 9.15727 48.4049C8.51477 47.1199 6.85477 44.7624 4.38977 42.2449C1.92477 39.7249 1.33477 37.4749 1.33477 37.4749C1.33477 37.4749 0.744766 41.8149 3.95977 46.4249C7.17477 51.0849 8.51477 50.2799 10.2848 52.1574C10.2848 52.1024 12.3198 54.5674 12.5348 54.4599H12.5323Z" fill="white"></path><path d="M7.49742 43.905C7.49742 43.905 7.60242 41.225 8.08492 40.37C8.56742 39.5125 11.5149 34.26 10.8724 27.51C10.8724 27.51 10.3899 27.0825 9.47992 29.7075C8.56742 32.3325 7.27992 33.0825 6.85492 35.7075C6.42492 38.3325 6.42492 39.405 6.42492 39.405C6.42492 39.405 6.10242 39.78 6.10242 39.4575C6.10242 39.1375 5.78242 35.655 4.33492 32.44C2.88992 29.225 0.90742 26.17 1.11992 24.025C1.11992 24.025 0.26242 24.0775 0.36992 27.56C0.58492 31.0425 1.49492 37.045 7.49492 43.9025L7.49742 43.905Z" fill="white"></path><path d="M5.88997 33.2974C5.88997 33.2974 6.90747 30.8849 7.65747 30.0824C8.40747 29.3324 13.39 21.9374 13.8725 18.6149C13.8725 18.6149 13.445 18.4024 12.9625 19.2049C12.48 20.0624 10.0675 22.4724 9.63747 22.8474C9.21247 23.2224 6.69247 25.9574 6.42497 28.8474C6.42497 28.8474 6.20997 29.1724 6.69247 24.2974C7.17497 19.4724 5.13997 16.3124 6.79997 12.8824C6.79997 12.8824 4.44247 13.2574 3.15747 23.2224C3.15747 23.2224 3.20997 26.7599 5.03247 31.0474C4.97747 31.0474 5.62247 33.2974 5.88997 33.2974Z" fill="white"></path><path d="M7.71271 22.3676C7.71271 22.3676 9.58771 20.4376 11.1402 19.5276C12.6402 18.6151 17.4102 13.9026 18.2652 10.2576C18.2652 10.2576 17.9452 9.83014 16.4452 11.8651C15.2652 13.4176 14.0877 12.6676 10.6052 17.0626C10.6052 17.0626 10.1227 18.0276 9.85521 17.9726C9.58771 17.9201 9.96271 16.9551 9.96271 16.9551C9.96271 16.9551 10.6577 14.2226 10.6577 13.2576C10.7127 12.2926 12.1052 7.15014 12.6402 6.45264C12.6402 6.45264 7.92521 9.13263 7.28271 16.6326C7.33771 16.5801 7.49771 22.0451 7.71271 22.3676V22.3676Z" fill="white"></path><path d="M11.7823 14.3299C11.7823 14.3299 11.4598 7.73986 20.0873 4.41736C20.0873 4.41736 17.0873 10.5799 14.8373 12.0249C12.5873 13.4724 11.7823 14.3299 11.7823 14.3299V14.3299Z" fill="white"></path></svg>