<svg xmlns="http://www.w3.org/2000/svg" width="518" height="80" viewBox="0 0 518 80" fill="none"><g clip-path="url(#clip0)"><path d="M162.641 0.734982C152.264 3.41423 145.547 11.1878 145.019 21.1123C144.679 27.6784 146.528 32.6218 150.83 36.584C154.755 40.1691 158.604 41.7917 170.83 45.037C182.906 48.2445 186.453 51.2634 185.925 57.9049C185.396 64.5464 179.057 69.037 170.226 69.037C162.302 68.9993 154.679 64.2823 153.774 58.8106L153.509 57.3389H148.151H142.755L143.094 59.8294C143.736 64.6596 145.962 68.6596 150.075 72.3955C157.547 79.2634 169.698 81.6408 180.264 78.2823C190.981 74.886 197.887 65.2257 196.793 55.1125C195.698 44.9615 189.208 38.886 175.472 35.2633C163.358 32.0557 159.396 30.4708 157.396 28.018C155.132 25.2633 155.019 20.3954 157.17 16.735C159.736 12.3576 166.264 9.86706 172.755 10.8105C176.491 11.3765 178.792 12.3576 180.981 14.3954C182.943 16.2067 184.906 19.8671 184.906 21.7161C184.906 22.4331 185.132 22.9991 185.472 23.1501C185.774 23.2633 188.189 23.301 190.83 23.2633L195.66 23.1878L195.585 21.2633C195.396 16.8482 191.849 9.90479 187.925 6.24442C185.208 3.75385 180.491 1.30102 176.792 0.546302C172.981 -0.24615 166.151 -0.170678 162.641 0.734982Z" fill="white"></path><path d="M0 39.9802V79.2255H5.28302H10.566V45.2633V11.3009L29.7359 11.3764L48.8679 11.4896V22.999V34.5084L34.9434 34.6216L21.0189 34.6971L21.2453 40.6595C21.3962 45.2255 21.6604 47.4142 22.3774 50.1689C25.7736 63.301 35.8868 73.7916 48.6792 77.4519C51.7358 78.3199 53.1321 78.584 57.6604 79.0368L59.6226 79.2633V73.7538V68.2821H58.3019C54.4906 68.2821 48.4151 66.3199 44.6038 63.9048C38.8302 60.2067 33.5472 52.6595 32.6038 46.8482L32.3396 45.2633H46H59.6226V22.999V0.734863H29.8113H0V39.9802Z" fill="white"></path><path d="M78.1135 39.9808V79.226H104.151H130.189V73.7543V68.2826H109.434H88.6795V56.7732V45.2638H107.17H125.661V39.9808V34.6976L107.283 34.6221L88.8682 34.5089V22.9995V11.4901L110.189 11.3769L131.51 11.3014V6.01837V0.735352H104.83H78.1135V39.9808Z" fill="white"></path><path d="M212.453 39.9802V79.2633L217.849 79.1501L223.208 79.0368L223.321 39.867L223.396 0.734863H217.925H212.453V39.9802Z" fill="white"></path><path d="M241.585 39.8674L241.698 79.0373L255.66 78.9995C269.396 78.9618 269.698 78.9618 273.245 78.0184C280.528 76.0561 286 73.075 291.019 68.358C294.642 64.924 297.057 61.6033 299.434 56.7731C302.528 50.4335 303.17 47.5656 303.208 39.792C303.208 32.207 302.604 29.3013 299.66 23.1881C294.642 12.6598 286.151 5.5277 274.528 1.98053L271.132 0.961661L256.302 0.810717L241.51 0.69751L241.585 39.8674ZM268.151 11.7164C279.434 13.2636 288.755 21.5654 291.774 32.6975C292.83 36.6975 292.83 42.8108 291.774 46.8108C289.623 54.8863 284.113 61.6788 276.83 65.2259C271.774 67.7165 270.264 67.9807 260.868 68.1693L252.453 68.358V39.8297V11.3013H258.83C262.34 11.3013 266.528 11.49 268.151 11.7164Z" fill="white"></path><path d="M316.603 39.9808V79.226H342.641H368.679V73.7543V68.2826H347.924H327.169V56.7732V45.2638H345.66H364.151V39.9808V34.6976L345.773 34.6221L327.358 34.5089L327.245 22.8863L327.169 11.3014H348.49H369.811V6.01837V0.735352H343.207H316.603V39.9808Z" fill="white"></path><path d="M384.528 39.9802V79.2633L389.924 79.1501L395.283 79.0368V49.6784C395.283 33.565 395.321 20.3575 395.396 20.3575C395.471 20.3575 409.736 41.867 427.509 68.7727L434.453 79.2633L439.773 79.1501L445.094 79.0368L445.207 39.867L445.283 0.734863H439.811H434.339L434.264 30.0556L434.151 59.3765L428.075 50.1689C424.754 45.0746 416.037 31.8669 408.717 20.8103L395.396 0.734863H389.962H384.528V39.9802Z" fill="white"></path><path d="M459.622 6.01787V11.3009H471.32H483.019V45.2633V79.2633L488.415 79.1501L493.773 79.0368L493.886 45.1878L493.962 11.3009L505.585 11.2254L517.169 11.1122L517.283 5.90466L517.396 0.734863H488.49H459.622V6.01787Z" fill="white"></path></g><defs><clipPath id="clip0"><rect width="517.736" height="80" fill="white"></rect></clipPath></defs></svg>