<svg xmlns="http://www.w3.org/2000/svg" width="452" height="80" viewBox="0 0 452 80" fill="none"><g clip-path="url(#clip0)"><path d="M160.533 79.9991C144.21 79.9991 129.058 75.0629 118.944 65.9084C111.302 58.9922 107.63 49.5978 107.63 39.9288C107.63 30.3776 111.461 20.9184 118.943 14.0386C128.336 5.40615 144.92 0 160.533 0C177.813 0 191.642 4.38878 202.215 14.0624C209.737 20.9457 213.373 30.363 213.373 39.9297C213.373 49.2028 209.514 59.078 202.215 65.9084C192.37 75.1222 176.899 79.9991 160.533 79.9991V69.4477C169.198 69.4477 177.235 66.4312 182.847 60.7997C188.42 55.2066 191.018 48.3315 191.018 39.9288C191.018 31.8794 188.217 24.3537 182.847 19.016C177.31 13.5158 169.081 10.4209 160.533 10.4209C151.96 10.4209 143.726 13.4839 138.184 19.016C132.844 24.3518 130.035 31.8995 130.035 39.9288C130.035 47.9336 132.876 55.4767 138.184 60.8006C143.731 66.3647 151.936 69.4486 160.533 69.4486V80V79.9991ZM41.2265 0.038322C32.4948 0.038322 22.5749 1.68526 14.1463 5.48096C6.36739 8.98105 1.8436e-06 14.6418 1.8436e-06 24.026C-0.00361754 32.478 5.3232 37.4279 5.17843 37.291C7.44416 39.3942 11.0916 42.9754 20.6278 45.0786C24.8896 46.0184 34.0013 47.4618 43.0751 48.418C52.0819 49.3762 60.9457 50.2867 64.5561 51.2083C67.4245 51.9446 72.2427 52.9475 72.2427 58.3983C72.2427 63.8271 67.1666 65.4842 66.2844 65.8436C65.403 66.195 59.3134 69.0125 48.3666 69.0125C40.2846 69.0125 30.5683 66.5617 27.0268 65.2844C22.9442 63.819 18.6615 61.8809 14.6666 56.9603C13.6731 55.7404 12.1059 52.3853 12.1059 49.0632H2.19878V77.0565H13.2107V73.2745C13.2107 72.8438 13.7446 71.0728 15.5932 71.915C17.8933 72.9688 24.6452 75.6797 31.7048 77.166C37.4932 78.3868 41.2256 79.2618 48.4218 79.2618C60.1631 79.2618 66.4708 77.333 70.8312 76.0775C74.9391 74.8913 80.0154 72.7617 84.1387 69.446C86.3719 67.653 91.2689 63.0571 91.2689 54.7148C91.2689 46.7073 87.0071 41.7373 85.5078 40.2254C83.4656 38.1652 80.9708 36.5683 78.3713 35.3374C76.1064 34.2626 72.5322 32.9716 69.6079 32.2499C63.9318 30.8447 51.0974 29.1111 44.9599 28.4632C38.5238 27.7853 27.3589 26.8529 22.8998 25.4613C21.5479 25.0389 18.7918 23.715 18.7918 20.4886C18.7918 18.1939 20.0522 16.2485 22.5432 14.6764C26.4974 12.1782 34.4846 10.6252 42.81 10.6252C52.6529 10.5888 60.9882 12.858 66.2907 15.2485C68.094 16.0605 70.2041 17.2267 71.8799 18.6063C73.771 20.1611 76.4259 23.392 77.3859 27.8985H86.2805V3.53111H76.3489V6.36328C76.3489 7.27754 75.4124 8.46552 73.6416 7.48375C69.197 5.13242 56.6306 0.0593079 41.2246 0.038322H41.2265ZM258.872 4.46634L307.319 48.555L306.822 18.8709C306.773 14.9784 306.061 13.3534 301.887 13.3534H292.778V4.47365H334.201V13.3534H325.316C321.057 13.3534 320.789 14.7266 320.737 18.8709L321.489 75.5903H307.302L251.501 25.37L251.512 61.0114C251.561 64.8856 251.741 66.7104 255.7 66.7104H265.649V75.5865H224.966V66.7114H234.477C238.03 66.7114 237.889 63.2962 237.889 60.8097V19.2085C237.889 16.5231 237.514 13.3598 231.937 13.3598H224.22V4.46634H258.872ZM381.537 66.6941C381.926 66.6941 383.653 66.6439 383.989 66.5407C384.944 66.2397 385.594 65.5517 385.895 64.8345C386.02 64.5333 386.085 63.2013 386.085 62.912L386.091 48.8789C386.091 48.5412 386.068 48.3953 385.498 47.6435C384.874 46.8223 360.122 18.5369 358.99 17.2915C357.583 15.7449 355.112 13.3543 351.358 13.3543H342.751V4.4709H391.33V13.3434H385.473C384.119 13.3434 383.219 14.639 384.377 16.0789C384.377 16.0789 400.72 35.7937 400.875 35.9998C401.028 36.2097 401.158 36.2599 401.365 36.0684C401.57 35.8722 418.119 16.2595 418.249 16.1043C419.037 15.1536 418.504 13.3534 416.806 13.3534H410.799V4.4709H450.612V13.3534H441.718C438.491 13.3534 437.178 13.9556 434.75 16.723C433.641 17.9895 408.624 46.7831 407.944 47.5631C407.588 47.971 407.617 48.5395 407.617 48.877V62.9084C407.617 63.1931 407.682 64.5271 407.807 64.8264C408.11 65.5471 408.761 66.2351 409.718 66.5326C410.052 66.6366 411.757 66.6877 412.144 66.6877H421.242V75.5693H372.915V66.6867L381.539 66.6941H381.537Z" fill="white"></path></g><defs><clipPath id="clip0"><rect width="451.765" height="80" fill="white"></rect></clipPath></defs></svg>