<svg xmlns="http://www.w3.org/2000/svg" width="375" height="321" fill="none"><path fill="url(#paint0_linear)" d="M0 0h375v319H0z"></path><path opacity=".5" fill-rule="evenodd" clip-rule="evenodd" d="M471.015 175.836c0 22.552-18.283 40.835-40.835 40.835H318.287c-22.552 0-40.835-18.283-40.835-40.835 0-22.553 18.283-40.836 40.835-40.836h111.892c22.553 0 40.836 18.283 40.836 40.836z" fill="url(#paint1_linear)"></path><rect x="-154" y="94.432" width="398.145" height="113.573" rx="56.787" fill="url(#paint2_linear)"></rect><rect width="398.145" height="113.573" rx="56.787" transform="matrix(-1 0 0 1 574.145 207.057)" fill="url(#paint3_linear)"></rect><rect x="-63" y="176.103" width="160.151" height="63.805" rx="31.903" fill="url(#paint4_linear)"></rect><defs><linearGradient id="paint0_linear" x1="187.5" y1="0" x2="187.5" y2="319" gradientUnits="userSpaceOnUse"><stop stop-color="#CCC" stop-opacity=".2"></stop><stop offset="1" stop-color="#fff" stop-opacity="0"></stop></linearGradient><linearGradient id="paint1_linear" x1="683.235" y1="175.917" x2="277.047" y2="175.836" gradientUnits="userSpaceOnUse"><stop stop-color="#DBD6D8"></stop><stop offset="1" stop-color="#DBD6D8" stop-opacity="0"></stop></linearGradient><linearGradient id="paint2_linear" x1="-590.521" y1="151.105" x2="244.978" y2="151.353" gradientUnits="userSpaceOnUse"><stop stop-color="#DBD6D8"></stop><stop offset="1" stop-color="#DBD6D8" stop-opacity="0"></stop></linearGradient><linearGradient id="paint3_linear" x1="-436.521" y1="56.673" x2="398.978" y2="56.921" gradientUnits="userSpaceOnUse"><stop stop-color="#DBD6D8"></stop><stop offset="1" stop-color="#DBD6D8" stop-opacity="0"></stop></linearGradient><linearGradient id="paint4_linear" x1="-238.588" y1="207.941" x2="97.487" y2="208.013" gradientUnits="userSpaceOnUse"><stop stop-color="#DBD6D8"></stop><stop offset="1" stop-color="#DBD6D8" stop-opacity="0"></stop></linearGradient></defs></svg>