<svg xmlns="http://www.w3.org/2000/svg" width="3000" height="500" viewBox="-700 0 3000 500"><linearGradient id="a" gradientUnits="userSpaceOnUse" x1="799.919" y1="138.691" x2="799.919" y2="638.692" gradientTransform="translate(.08 -138.691)"><stop offset="0" stop-color="#ccc" stop-opacity=".2"></stop><stop offset="1" stop-color="#fff" stop-opacity="0"></stop></linearGradient><path fill="url(#a)" d="M-700 0h3000v500H-700z"></path><linearGradient id="b" gradientUnits="userSpaceOnUse" x1="-860.223" y1="375.395" x2="449.225" y2="375.784" gradientTransform="translate(.08 -138.691)"><stop offset="0" stop-color="#dbd6d8"></stop><stop offset="1" stop-color="#dbd6d8" stop-opacity="0"></stop></linearGradient><path fill="url(#b)" d="M-87 148h446c49.153 0 89 39.848 89 89 0 49.153-39.847 89-89 89H-87c-49.153 0-89-39.847-89-89 0-49.154 39.847-89 89-89z"></path><linearGradient id="c" gradientUnits="userSpaceOnUse" x1="201.273" y1="468.867" x2="294.298" y2="468.517" gradientTransform="translate(.08 -138.691)"><stop offset="0" stop-color="#ff8c8f"></stop><stop offset="1" stop-color="#425cb4"></stop></linearGradient><circle opacity=".5" fill="none" stroke="url(#c)" stroke-width="2" cx="248" cy="330" r="45"></circle><linearGradient id="d" gradientUnits="userSpaceOnUse" x1="1304.266" y1="359.867" x2="1397.298" y2="359.517" gradientTransform="translate(.08 -138.691)"><stop offset="0" stop-color="#ff8c8f"></stop><stop offset="1" stop-color="#425cb4"></stop></linearGradient><circle opacity=".5" fill="none" stroke="url(#d)" stroke-width="2" cx="1351" cy="221" r="45"></circle><circle fill="none" stroke="#FFF" stroke-width="2" cx="1300" cy="658" r="45"></circle><linearGradient id="e" gradientUnits="userSpaceOnUse" x1="1325.937" y1="227.395" x2="2635.387" y2="227.784" gradientTransform="matrix(-1 0 0 1 3942.078 58.309)"><stop offset="0" stop-color="#dbd6d8"></stop><stop offset="1" stop-color="#dbd6d8" stop-opacity="0"></stop></linearGradient><path fill="url(#e)" d="M1843 197h-446c-49.153 0-89 39.848-89 89 0 49.153 39.847 89 89 89h446c49.153 0 89-39.847 89-89 0-49.154-39.847-89-89-89z"></path><linearGradient id="f" gradientUnits="userSpaceOnUse" x1="1734.888" y1="188.607" x2="2261.606" y2="188.719" gradientTransform="matrix(-1 0 0 1 3747.078 9.309)"><stop offset="0" stop-color="#dbd6d8"></stop><stop offset="1" stop-color="#dbd6d8" stop-opacity="0"></stop></linearGradient><path fill="url(#f)" d="M1687 148h-151c-27.614 0-50 22.387-50 50 0 27.614 22.386 50 50 50h151c27.614 0 50-22.386 50-50 0-27.615-22.386-50-50-50z"></path><linearGradient id="g" gradientUnits="userSpaceOnUse" x1="-330.272" y1="464.607" x2="196.446" y2="464.719" gradientTransform="translate(.08 -138.691)"><stop offset="0" stop-color="#dbd6d8"></stop><stop offset="1" stop-color="#dbd6d8" stop-opacity="0"></stop></linearGradient><path fill="url(#g)" d="M-5 276h151c27.614 0 50 22.387 50 50 0 27.614-22.386 50-50 50H-5c-27.614 0-50-22.386-50-50 0-27.615 22.386-50 50-50z"></path><linearGradient id="h" gradientUnits="userSpaceOnUse" x1="855.582" y1="481.072" x2="1298.359" y2="481.227" gradientTransform="translate(.08 -138.691)"><stop offset="0" stop-color="#dbd6d8"></stop><stop offset="1" stop-color="#dbd6d8" stop-opacity="0"></stop></linearGradient><path opacity=".4" fill="url(#h)" d="M1112.5 317h160c14.083 0 25.5 11.417 25.5 25.5 0 14.084-11.417 25.5-25.5 25.5h-160c-14.083 0-25.5-11.416-25.5-25.5 0-14.083 11.417-25.5 25.5-25.5z"></path></svg>