<?xml version="1.0" encoding="UTF-8"?> <svg xmlns="http://www.w3.org/2000/svg" xmlns:xlink="http://www.w3.org/1999/xlink" id="Layer_1" data-name="Layer 1" viewBox="0 0 385 250"><defs><style>.cls-1{fill:#f64044;}.cls-2,.cls-5{fill:#f8f8fa;}.cls-2,.cls-3{opacity:0.1;}.cls-16,.cls-4,.cls-6,.cls-9{fill:none;stroke-miterlimit:10;}.cls-4{stroke:#f8f8fa;stroke-dasharray:6 6;}.cls-6{stroke:#293252;}.cls-7{fill:#f3f3f3;}.cls-10,.cls-8{fill:#cdcfd6;}.cls-8{opacity:0.5;}.cls-9{stroke:#414d75;opacity:0.2;}.cls-11{fill:url(#linear-gradient);}.cls-12{fill:url(#linear-gradient-2);}.cls-13{fill:url(#linear-gradient-3);}.cls-14{fill:url(#linear-gradient-4);}.cls-15{fill:url(#linear-gradient-5);}.cls-16{stroke:#f3f3f3;stroke-linecap:round;}</style><linearGradient id="linear-gradient" x1="315.11" y1="127.34" x2="334.22" y2="127.34" gradientUnits="userSpaceOnUse"><stop offset="0" stop-color="#283150"></stop><stop offset="1" stop-color="#2e3a5c"></stop></linearGradient><linearGradient id="linear-gradient-2" x1="184" y1="223.26" x2="194.24" y2="223.26" gradientUnits="userSpaceOnUse"><stop offset="0" stop-color="#8dd2df"></stop><stop offset="1" stop-color="#1cc5dc"></stop></linearGradient><linearGradient id="linear-gradient-3" x1="91.09" y1="32.18" x2="101.34" y2="32.18" xlink:href="#linear-gradient"></linearGradient><linearGradient id="linear-gradient-4" x1="199.31" y1="81.6" x2="217.69" y2="81.6" xlink:href="#linear-gradient-2"></linearGradient><linearGradient id="linear-gradient-5" x1="208.09" y1="141.51" x2="226.47" y2="141.51" xlink:href="#linear-gradient"></linearGradient></defs><rect class="cls-1" x="0.43" y="-0.55" width="385" height="250"></rect><rect class="cls-2" x="79.19" y="11.22" width="226.47" height="226.47" rx="113.24"></rect><rect class="cls-2" x="96.52" y="28.55" width="191.8" height="191.8" rx="95.9"></rect><g class="cls-3"><rect class="cls-4" x="60.54" y="-7.43" width="263.76" height="263.76" rx="131.88"></rect></g><circle class="cls-5" cx="356.17" cy="44.31" r="1"></circle><circle class="cls-5" cx="357.17" cy="177.98" r="1"></circle><circle class="cls-5" cx="101.34" cy="198.46" r="1"></circle><circle class="cls-5" cx="192.42" cy="14.22" r="1"></circle><polygon class="cls-5" points="38.72 34.74 34.83 35.8 33.77 39.69 32.7 35.8 28.82 34.74 32.7 33.68 33.77 29.8 34.83 33.68 38.72 34.74"></polygon><polygon class="cls-5" points="41.93 217.26 38.04 218.32 36.98 222.21 35.92 218.32 32.03 217.26 35.92 216.19 36.98 212.31 38.04 216.19 41.93 217.26"></polygon><polygon class="cls-5" points="340.96 222.21 337.07 223.27 336.01 227.16 334.95 223.27 331.06 222.21 334.95 221.15 336.01 217.26 337.07 221.15 340.96 222.21"></polygon><circle class="cls-6" cx="384.83" cy="89.05" r="15.77"></circle><circle class="cls-6" cx="24.81" cy="177.98" r="15.77"></circle><circle class="cls-6" cx="41.93" cy="71.65" r="9.95"></circle><circle class="cls-6" cx="294.26" cy="208.86" r="9.95"></circle><circle class="cls-6" cx="325.62" cy="32.18" r="9.95"></circle><rect class="cls-7" x="118.14" y="49.9" width="148.56" height="148.56" rx="74.28"></rect><path class="cls-8" d="M241.56,68.49a73.92,73.92,0,0,1,10.81,38.61h0a74.28,74.28,0,0,1-74.28,74.28h0A74,74,0,0,1,129,162.79a74.24,74.24,0,0,0,63.47,35.67h0a74.28,74.28,0,0,0,74.28-74.28h0A74.1,74.1,0,0,0,241.56,68.49Z"></path><line class="cls-9" x1="192.42" y1="49.9" x2="192.42" y2="198.46"></line><line class="cls-9" x1="118.14" y1="124.18" x2="266.7" y2="124.18"></line><ellipse class="cls-9" cx="192.42" cy="124.19" rx="42.34" ry="74.27"></ellipse><ellipse class="cls-9" cx="192.42" cy="124.19" rx="74.27" ry="38.42"></ellipse><rect class="cls-7" x="269.64" y="19.41" width="20.37" height="20.37" rx="5.02"></rect><circle class="cls-10" cx="279.83" cy="26.18" r="2.51"></circle><path class="cls-1" d="M279.83,29.62a5.12,5.12,0,0,0-5.12,5.12H285A5.12,5.12,0,0,0,279.83,29.62Z"></path><rect class="cls-7" x="36.98" y="103.61" width="41.17" height="41.17" rx="5.02"></rect><circle class="cls-10" cx="57.57" cy="117.3" r="5.06"></circle><path class="cls-1" d="M57.57,124.26a10.35,10.35,0,0,0-10.35,10.35h20.7A10.35,10.35,0,0,0,57.57,124.26Z"></path><rect class="cls-7" x="305.66" y="103.49" width="38.01" height="38.01" rx="5.02"></rect><circle class="cls-10" cx="324.67" cy="116.14" r="4.68"></circle><path class="cls-11" d="M324.67,122.57a9.55,9.55,0,0,0-9.56,9.55h19.11A9.54,9.54,0,0,0,324.67,122.57Z"></path><rect class="cls-7" x="178.94" y="210.48" width="20.37" height="20.37" rx="5.02"></rect><circle class="cls-10" cx="189.12" cy="217.26" r="2.51"></circle><path class="cls-12" d="M189.12,220.7a5.12,5.12,0,0,0-5.12,5.12h10.24A5.12,5.12,0,0,0,189.12,220.7Z"></path><rect class="cls-7" x="86.03" y="19.41" width="20.37" height="20.37" rx="5.02"></rect><circle class="cls-10" cx="96.21" cy="26.18" r="2.51"></circle><path class="cls-13" d="M96.21,29.62a5.13,5.13,0,0,0-5.12,5.12h10.25A5.13,5.13,0,0,0,96.21,29.62Z"></path><circle class="cls-7" cx="284.95" cy="102.43" r="2.5"></circle><path class="cls-1" d="M161.75,107c0,5.08-9.19,15.42-9.19,15.42s-9.2-10.34-9.2-15.42a9.2,9.2,0,0,1,18.39,0Z"></path><circle class="cls-7" cx="152.56" cy="106.65" r="2.79"></circle><path class="cls-14" d="M217.69,78.49c0,5.08-9.19,15.41-9.19,15.41s-9.19-10.33-9.19-15.41a9.19,9.19,0,0,1,18.38,0Z"></path><circle class="cls-7" cx="208.5" cy="78.19" r="2.79"></circle><path class="cls-15" d="M226.47,138.4c0,5.07-9.19,15.41-9.19,15.41s-9.19-10.34-9.19-15.41a9.19,9.19,0,0,1,18.38,0Z"></path><circle class="cls-7" cx="217.28" cy="138.1" r="2.79"></circle><line class="cls-16" x1="111.05" y1="124.18" x2="85.03" y2="124.18"></line><line class="cls-16" x1="269.64" y1="41.64" x2="252.64" y2="59.38"></line><line class="cls-16" x1="301.11" y1="124.18" x2="273.33" y2="124.18"></line><line class="cls-16" x1="189.12" y1="206.78" x2="189.12" y2="201.68"></line><line class="cls-16" x1="106.4" y1="42.14" x2="136.14" y2="68.49"></line></svg> 