<?xml version="1.0" encoding="UTF-8"?> <svg xmlns="http://www.w3.org/2000/svg" xmlns:xlink="http://www.w3.org/1999/xlink" id="Layer_1" data-name="Layer 1" viewBox="0 0 385 250"><defs><style>.cls-1{fill:url(#linear-gradient);}.cls-2{fill:#f64044;}.cls-3{fill:#1bc3da;}.cls-4{fill:#fff;}.cls-14,.cls-5,.cls-7{stroke:#fff;stroke-miterlimit:10;}.cls-5{stroke-width:2px;fill:url(#linear-gradient-2);}.cls-6{fill:url(#linear-gradient-3);}.cls-7{stroke-width:12px;fill:url(#linear-gradient-4);}.cls-8{fill:url(#linear-gradient-5);}.cls-9{fill:url(#linear-gradient-6);}.cls-10{fill:url(#linear-gradient-7);}.cls-11{fill:url(#linear-gradient-8);}.cls-12{fill:url(#linear-gradient-9);}.cls-13{fill:url(#linear-gradient-10);}.cls-14{fill:none;stroke-dasharray:6;}.cls-15{fill:#f8f8fa;}</style><linearGradient id="linear-gradient" x1="-0.08" y1="125" x2="384.92" y2="125" gradientUnits="userSpaceOnUse"><stop offset="0" stop-color="#283150"></stop><stop offset="1" stop-color="#2e3a5c"></stop></linearGradient><linearGradient id="linear-gradient-2" x1="65.76" y1="174.63" x2="132.8" y2="174.63" xlink:href="#linear-gradient"></linearGradient><linearGradient id="linear-gradient-3" x1="87.91" y1="173.79" x2="110.83" y2="173.79" gradientUnits="userSpaceOnUse"><stop offset="0" stop-color="#8dd2df"></stop><stop offset="1" stop-color="#1cc5dc"></stop></linearGradient><linearGradient id="linear-gradient-4" x1="121.43" y1="53.02" x2="200.99" y2="53.02" xlink:href="#linear-gradient"></linearGradient><linearGradient id="linear-gradient-5" x1="149.49" y1="118.39" x2="172.39" y2="118.39" xlink:href="#linear-gradient"></linearGradient><linearGradient id="linear-gradient-6" x1="153.43" y1="135.78" x2="168.45" y2="135.78" xlink:href="#linear-gradient"></linearGradient><linearGradient id="linear-gradient-7" x1="192.16" y1="176.36" x2="201.68" y2="176.36" xlink:href="#linear-gradient"></linearGradient><linearGradient id="linear-gradient-8" x1="203.47" y1="176.36" x2="212.99" y2="176.36" xlink:href="#linear-gradient"></linearGradient><linearGradient id="linear-gradient-9" x1="214.77" y1="176.36" x2="224.3" y2="176.36" xlink:href="#linear-gradient"></linearGradient><linearGradient id="linear-gradient-10" x1="226.08" y1="176.36" x2="235.6" y2="176.36" xlink:href="#linear-gradient"></linearGradient></defs><rect class="cls-1" x="-0.08" width="385" height="250"></rect><rect class="cls-2" x="247.26" y="87.53" width="40.34" height="40.34" rx="7.02"></rect><rect class="cls-3" x="98.89" y="79.89" width="124.11" height="94.74" rx="13.33"></rect><path class="cls-4" d="M278.26,100.81H256.6a1.5,1.5,0,0,1,0-3h21.66a1.5,1.5,0,0,1,0,3Z"></path><path class="cls-4" d="M267.43,110.22a32.76,32.76,0,0,1-11.34-2,1.49,1.49,0,1,1,1-2.8,30,30,0,0,0,20.62,0,1.49,1.49,0,0,1,1,2.8A32.81,32.81,0,0,1,267.43,110.22Z"></path><path class="cls-4" d="M267.43,120.1a18.83,18.83,0,0,1-11.76-4.53,1.5,1.5,0,1,1,1.87-2.34c6.47,5.16,13.31,5.16,19.79,0a1.49,1.49,0,0,1,1.86,2.34A18.81,18.81,0,0,1,267.43,120.1Z"></path><rect class="cls-4" x="168.85" y="151.95" width="161.23" height="45.35" rx="22.68"></rect><circle class="cls-4" cx="99.28" cy="173.54" r="22.15"></circle><path class="cls-5" d="M130.93,146.09h-.18a41.25,41.25,0,0,1-30.14-13.16,1.93,1.93,0,0,0-2.66,0,41.25,41.25,0,0,1-30.14,13.16h-.18A1.88,1.88,0,0,0,65.76,148v20.18a49.75,49.75,0,0,0,22,41.34l10.4,7a1.92,1.92,0,0,0,1.07.36,1.56,1.56,0,0,0,1.07-.36l10.4-7a49.75,49.75,0,0,0,22.05-41.34V147.87A1.93,1.93,0,0,0,130.93,146.09ZM99.28,193a19.2,19.2,0,1,1,19.2-19.2A19.23,19.23,0,0,1,99.28,193Z"></path><path class="cls-6" d="M104.88,165.65l-8.27,9.07-2.93-3.2a3.33,3.33,0,1,0-4.89,4.53l5.42,5.87a3.43,3.43,0,0,0,5,0L110,170.18a3.36,3.36,0,0,0-.18-4.71A3.58,3.58,0,0,0,104.88,165.65Z"></path><path class="cls-7" d="M121.43,79.89v-14a39.78,39.78,0,0,1,39.78-39.78h0A39.78,39.78,0,0,1,201,65.93v14"></path><circle class="cls-8" cx="160.94" cy="118.39" r="11.45"></circle><polygon class="cls-9" points="168.45 147.84 153.43 147.84 156.72 123.72 165.17 123.72 168.45 147.84"></polygon><path class="cls-10" d="M195.55,176.92l-3.39-1,.61-1.87,3.36,1.3-.17-3.83h2l-.17,3.89,3.3-1.28.6,1.92-3.44,1,2.22,3-1.61,1.18-2-3.2-2,3.1-1.62-1.14Z"></path><path class="cls-11" d="M206.86,176.92l-3.39-1,.61-1.87,3.35,1.3-.16-3.83h2l-.17,3.89,3.3-1.28.6,1.92-3.45,1,2.23,3-1.61,1.18-2-3.2-2,3.1-1.62-1.14Z"></path><path class="cls-12" d="M218.16,176.92l-3.39-1,.62-1.87,3.35,1.3-.17-3.83h2l-.16,3.89,3.3-1.28.6,1.92-3.45,1,2.22,3-1.61,1.18-2-3.2-2,3.1-1.63-1.14Z"></path><path class="cls-13" d="M229.47,176.92l-3.39-1,.61-1.87,3.36,1.3-.17-3.83h2l-.17,3.89,3.3-1.28.6,1.92-3.44,1,2.22,3-1.61,1.18-2-3.2-2,3.1-1.62-1.14Z"></path><line class="cls-14" x1="267.43" y1="151.38" x2="267.43" y2="127.87"></line><line class="cls-14" x1="247.26" y1="107.76" x2="222.99" y2="107.76"></line><polyline class="cls-14" points="266.35 197.31 266.35 214.59 121.43 214.59 121.43 199.8"></polyline><circle class="cls-15" cx="44.55" cy="214.59" r="1"></circle><circle class="cls-15" cx="266.35" cy="45.9" r="1"></circle><circle class="cls-15" cx="51.85" cy="112.56" r="2.35"></circle><circle class="cls-15" cx="347.17" cy="110.22" r="2.35"></circle><polygon class="cls-15" points="359.53 221.81 355.64 222.87 354.58 226.76 353.52 222.87 349.63 221.81 353.52 220.75 354.58 216.86 355.64 220.75 359.53 221.81"></polygon><polygon class="cls-15" points="49.5 45.9 45.61 46.96 44.55 50.84 43.49 46.96 39.6 45.9 43.49 44.84 44.55 40.95 45.61 44.84 49.5 45.9"></polygon></svg> 