<?xml version="1.0" encoding="UTF-8"?> <svg xmlns="http://www.w3.org/2000/svg" xmlns:xlink="http://www.w3.org/1999/xlink" id="Layer_1" data-name="Layer 1" viewBox="0 0 385 250"><defs><style>.cls-1{fill:url(#linear-gradient);}.cls-11,.cls-2,.cls-6,.cls-9{fill:none;stroke-miterlimit:10;}.cls-2,.cls-6{stroke:#f8f8fa;}.cls-2,.cls-5{opacity:0.1;}.cls-3,.cls-8{opacity:0.2;}.cls-3{fill:url(#linear-gradient-2);}.cls-4{fill:url(#linear-gradient-3);}.cls-6{stroke-dasharray:6 6;}.cls-13,.cls-7,.cls-8{fill:#f8f8fa;}.cls-9{stroke:#fff;}.cls-10{fill:#fff;fill-rule:evenodd;}.cls-11{stroke:#f64044;}.cls-12{fill:url(#linear-gradient-4);}.cls-13{font-size:9.97px;font-family:MyriadPro-Regular, Myriad Pro;}.cls-14{fill:url(#linear-gradient-5);}.cls-15{fill:#f64044;}</style><linearGradient id="linear-gradient" x1="192.5" y1="250" x2="192.5" gradientUnits="userSpaceOnUse"><stop offset="0" stop-color="#283150"></stop><stop offset="1" stop-color="#2e3a5c"></stop></linearGradient><linearGradient id="linear-gradient-2" x1="114.45" y1="125" x2="270.55" y2="125" gradientUnits="userSpaceOnUse"><stop offset="0" stop-color="#8dd2df"></stop><stop offset="1" stop-color="#1cc5dc"></stop></linearGradient><linearGradient id="linear-gradient-3" x1="123.09" y1="125" x2="261.91" y2="125" xlink:href="#linear-gradient-2"></linearGradient><linearGradient id="linear-gradient-4" x1="43.07" y1="120.02" x2="76.86" y2="120.02" xlink:href="#linear-gradient-2"></linearGradient><linearGradient id="linear-gradient-5" x1="306.04" y1="125.15" x2="342.51" y2="125.15" xlink:href="#linear-gradient"></linearGradient></defs><rect class="cls-1" width="385" height="250"></rect><rect class="cls-2" x="210.91" y="16.96" width="47.8" height="47.8"></rect><rect class="cls-2" x="109.37" y="173.21" width="33.01" height="33.01"></rect><rect class="cls-2" x="364" y="197.05" width="33.01" height="33.01"></rect><rect class="cls-2" x="-16.51" y="156.7" width="33.01" height="33.01"></rect><rect class="cls-3" x="114.45" y="46.95" width="156.09" height="156.09" rx="44"></rect><rect class="cls-4" x="123.09" y="55.59" width="138.82" height="138.82" rx="37.09"></rect><g class="cls-5"><rect class="cls-6" x="60.11" y="-5.27" width="263.76" height="263.76" rx="131.88"></rect></g><circle class="cls-7" cx="368.81" cy="15.96" r="1"></circle><circle class="cls-7" cx="363" cy="178.7" r="1"></circle><circle class="cls-7" cx="33.59" cy="210.21" r="1"></circle><circle class="cls-7" cx="39.55" cy="31.62" r="1"></circle><circle class="cls-7" cx="75.82" cy="62.89" r="2.35"></circle><circle class="cls-7" cx="77.45" cy="192.06" r="2.35"></circle><circle class="cls-8" cx="96.41" cy="72.43" r="1"></circle><circle class="cls-8" cx="188.15" cy="27.88" r="1"></circle><circle class="cls-8" cx="192.33" cy="224.54" r="1"></circle><circle class="cls-8" cx="95.42" cy="173.21" r="1"></circle><polygon class="cls-7" points="344.05 216.16 340.16 217.22 339.1 221.11 338.04 217.22 334.15 216.16 338.04 215.1 339.1 211.21 340.16 215.1 344.05 216.16"></polygon><polygon class="cls-7" points="355.05 55.59 351.16 56.65 350.1 60.54 349.04 56.65 345.15 55.59 349.04 54.53 350.1 50.64 351.16 54.53 355.05 55.59"></polygon><circle class="cls-7" cx="290.38" cy="38.58" r="15.77"></circle><circle class="cls-7" cx="290.24" cy="211.21" r="15.77"></circle><circle class="cls-9" cx="100.64" cy="223.54" r="9.98"></circle><circle class="cls-9" cx="102.4" cy="28.88" r="5.99"></circle><path class="cls-10" d="M217.7,78.79H167.3a21,21,0,0,0-21,21V150.2a21,21,0,0,0,21,21h50.4a21,21,0,0,0,21-21V99.8A21,21,0,0,0,217.7,78.79Zm-13.62,24.87a4.17,4.17,0,1,1-4.17,4.17A4.17,4.17,0,0,1,204.08,103.66Zm0,11.78a4.17,4.17,0,1,1-4.17,4.17A4.17,4.17,0,0,1,204.08,115.44Zm-11.76-11.78a4.17,4.17,0,1,1-4.17,4.17A4.16,4.16,0,0,1,192.32,103.66Zm0,11.78a4.17,4.17,0,1,1-4.17,4.17A4.16,4.16,0,0,1,192.32,115.44Zm-11.75-11.78a4.17,4.17,0,1,1-4.17,4.17A4.16,4.16,0,0,1,180.57,103.66Zm0,11.78a4.17,4.17,0,1,1-4.17,4.17A4.16,4.16,0,0,1,180.57,115.44Zm-11.3,44a8,8,0,1,1,8-8A8,8,0,0,1,169.27,159.48Zm46.09.36a8,8,0,1,1,8-8A8,8,0,0,1,215.36,159.84Zm14-64.86-8.25,30.71A17.7,17.7,0,0,1,203.49,139h-5.44a9.62,9.62,0,0,1-5.48-2,.49.49,0,0,0-.64,0,9.62,9.62,0,0,1-5.48,2h-6c-8.22,0-14.45-4.68-16.94-12.52l-7-22a1.38,1.38,0,0,1,.21-1.27,1.4,1.4,0,0,1,1.15-.59h1.34a7.39,7.39,0,0,1,7,5.17L171.42,124a11,11,0,0,0,10.45,7.33h2a5.93,5.93,0,0,0,4.39-2,2.42,2.42,0,0,1,1.77-.78h4.49a2.31,2.31,0,0,1,1.68.72,6,6,0,0,0,4.44,2.06h1.9a11,11,0,0,0,10.58-7.79l6.68-24.86A7.43,7.43,0,0,1,227,93.19h1.17a.72.72,0,0,1,.33.06A1.46,1.46,0,0,1,229.37,95Z"></path><path class="cls-10" d="M169.27,148.65a2.86,2.86,0,1,0,2.86,2.86A2.86,2.86,0,0,0,169.27,148.65Z"></path><path class="cls-10" d="M215.36,149a2.87,2.87,0,1,0,2.86,2.87A2.86,2.86,0,0,0,215.36,149Z"></path><circle class="cls-7" cx="60.11" cy="125" r="33.49"></circle><circle class="cls-7" cx="323.87" cy="125" r="33.49"></circle><rect class="cls-11" x="40.49" y="107.86" width="39.24" height="28.05" rx="2.35"></rect><line class="cls-11" x1="52.19" y1="142.14" x2="68.03" y2="142.14"></line><line class="cls-11" x1="60.11" y1="142.14" x2="60.11" y2="135.91"></line><line class="cls-11" x1="40.49" y1="131.51" x2="79.73" y2="131.51"></line><rect class="cls-12" x="43.07" y="113.96" width="33.78" height="12.11" rx="6.05"></rect><text class="cls-13" transform="translate(51.27 123.58)">BUY</text><path class="cls-14" d="M324.28,106.91a18.24,18.24,0,1,0,18.23,18.24A18.26,18.26,0,0,0,324.28,106.91Zm-16.39,18.24a16.35,16.35,0,0,1,1.41-6.68l7.83,21.43A16.39,16.39,0,0,1,307.89,125.15Zm16.39,16.39a16.1,16.1,0,0,1-4.63-.67l4.92-14.29,5,13.81a1.51,1.51,0,0,0,.11.22A16.31,16.31,0,0,1,324.28,141.54Zm2.26-24.08c1,0,1.88-.16,1.88-.16a.68.68,0,0,0-.11-1.35s-2.65.21-4.37.21-4.32-.21-4.32-.21a.68.68,0,0,0-.1,1.35s.84.11,1.72.16l2.55,7-3.59,10.76-6-17.76c1,0,1.88-.16,1.88-.16A.68.68,0,0,0,316,116s-2.66.21-4.37.21l-1.06,0a16.38,16.38,0,0,1,24.77-3.08l-.21,0a2.84,2.84,0,0,0-2.75,2.91c0,1.35.77,2.5,1.61,3.85a8.65,8.65,0,0,1,1.35,4.52,19.82,19.82,0,0,1-1.25,5.3l-1.64,5.46Zm12.13-.18a16.42,16.42,0,0,1-6.15,22l5-14.48a15.6,15.6,0,0,0,1.25-5.87A12.63,12.63,0,0,0,338.67,117.28Z"></path><rect class="cls-11" x="282.98" y="32.35" width="15.63" height="15.48"></rect><polyline class="cls-11" points="287.2 34.19 287.2 28.03 294.51 28.03 294.51 34.19"></polyline><circle class="cls-15" cx="287.16" cy="35.12" r="1.09"></circle><circle class="cls-15" cx="294.51" cy="35.12" r="1.09"></circle><rect class="cls-11" x="281.92" y="202.84" width="6.76" height="6.76"></rect><rect class="cls-11" x="291.8" y="202.84" width="6.76" height="6.76"></rect><rect class="cls-11" x="281.92" y="212.82" width="6.76" height="6.76"></rect><rect class="cls-11" x="291.8" y="212.82" width="6.76" height="6.76"></rect></svg> 