<?xml version="1.0" encoding="UTF-8"?> <svg xmlns="http://www.w3.org/2000/svg" xmlns:xlink="http://www.w3.org/1999/xlink" id="Layer_1" data-name="Layer 1" viewBox="0 0 385 250"><defs><style>.cls-1{fill:url(#linear-gradient);}.cls-2{fill:#66c272;}.cls-16,.cls-3,.cls-6{fill:none;stroke-miterlimit:10;}.cls-3{stroke:#f8f8fa;stroke-dasharray:6;}.cls-3,.cls-5{opacity:0.2;}.cls-4,.cls-5{fill:#f8f8fa;}.cls-6{stroke:#fff;}.cls-7{fill:#f3f3f3;}.cls-8{fill:#414d75;}.cls-9{fill:#f64044;}.cls-10{fill:#2ec7dc;}.cls-11{fill:#fff;}.cls-12{fill:url(#linear-gradient-2);}.cls-13{fill:url(#linear-gradient-3);}.cls-14{fill:url(#linear-gradient-4);}.cls-15{fill:url(#linear-gradient-5);}.cls-16{stroke:#2ec7dc;}</style><linearGradient id="linear-gradient" y1="125" x2="385" y2="125" gradientUnits="userSpaceOnUse"><stop offset="0" stop-color="#283150"></stop><stop offset="1" stop-color="#2e3a5c"></stop></linearGradient><linearGradient id="linear-gradient-2" x1="319.18" y1="119.19" x2="330.54" y2="119.19" xlink:href="#linear-gradient"></linearGradient><linearGradient id="linear-gradient-3" x1="333.52" y1="119.51" x2="361.29" y2="119.51" xlink:href="#linear-gradient"></linearGradient><linearGradient id="linear-gradient-4" x1="333.52" y1="143.21" x2="358.3" y2="143.21" xlink:href="#linear-gradient"></linearGradient><linearGradient id="linear-gradient-5" x1="25.99" y1="130.94" x2="76.38" y2="130.94" gradientUnits="userSpaceOnUse"><stop offset="0" stop-color="#8dd2df"></stop><stop offset="1" stop-color="#1cc5dc"></stop></linearGradient></defs><rect class="cls-1" width="385" height="250"></rect><rect class="cls-2" x="193.22" width="191.78" height="250"></rect><circle class="cls-3" cx="193.98" cy="129.28" r="139.95"></circle><circle class="cls-4" cx="44.5" cy="221.35" r="1"></circle><circle class="cls-4" cx="215.55" cy="29.21" r="1"></circle><circle class="cls-4" cx="356.29" cy="210.96" r="1"></circle><circle class="cls-5" cx="214.55" cy="199.65" r="1"></circle><polygon class="cls-4" points="162.14 220.35 158.25 221.41 157.19 225.3 156.13 221.41 152.25 220.35 156.13 219.29 157.19 215.41 158.25 219.29 162.14 220.35"></polygon><polygon class="cls-4" points="356.29 37.41 352.4 38.47 351.34 42.36 350.28 38.47 346.39 37.41 350.28 36.35 351.34 32.46 352.4 36.35 356.29 37.41"></polygon><polygon class="cls-4" points="37.12 39.41 33.23 40.47 32.17 44.36 31.11 40.47 27.22 39.41 31.11 38.35 32.17 34.46 33.23 38.35 37.12 39.41"></polygon><circle class="cls-6" cx="87.73" cy="38.41" r="15.77"></circle><circle class="cls-6" cx="307.22" cy="210.96" r="15.77"></circle><rect class="cls-7" x="112.54" y="70.22" width="159.92" height="109.55" rx="10"></rect><path class="cls-8" d="M263.93,70.22H121.07a8.53,8.53,0,0,0-8.53,8.53v4.73H272.46V78.75A8.53,8.53,0,0,0,263.93,70.22Z"></path><circle class="cls-9" cx="122.57" cy="77.51" r="1"></circle><circle class="cls-7" cx="130.21" cy="77.51" r="1"></circle><circle class="cls-10" cx="137.85" cy="77.51" r="1"></circle><path class="cls-9" d="M217.17,110.87H167.83a3.41,3.41,0,0,1,0-6.82h49.34a3.41,3.41,0,1,1,0,6.82Z"></path><path class="cls-9" d="M192.5,132.32a75,75,0,0,1-25.85-4.59,3.41,3.41,0,1,1,2.35-6.4,68.3,68.3,0,0,0,47,0,3.41,3.41,0,1,1,2.35,6.4A75,75,0,0,1,192.5,132.32Z"></path><path class="cls-9" d="M192.5,154.84c-9.08,0-18.16-3.44-26.8-10.32a3.41,3.41,0,0,1,4.25-5.34c14.75,11.75,30.35,11.75,45.1,0a3.41,3.41,0,0,1,4.25,5.34C210.66,151.4,201.58,154.84,192.5,154.84Z"></path><circle class="cls-11" cx="331.87" cy="129.28" r="44.69"></circle><path class="cls-7" d="M333.52,125.37v-24a26.22,26.22,0,0,0-24.69,26.18c0,13,10.35,25.41,24.69,26.18V125.37Z"></path><circle class="cls-11" cx="322.51" cy="119.92" r="9.36"></circle><circle class="cls-12" cx="324.86" cy="119.19" r="5.68"></circle><circle class="cls-11" cx="326.36" cy="118.15" r="3.01"></circle><path class="cls-13" d="M335.06,101.32c-.52,0-1,0-1.54.05v24l5.09-4.49a3.77,3.77,0,0,1,4.2-.53l7.94,4a3.85,3.85,0,0,1,1.56,1.46l6.93,11.86a23.48,23.48,0,0,0,2.05-10.14A26.23,26.23,0,0,0,335.06,101.32Z"></path><path class="cls-9" d="M294.64,129.09c0,20.1,17.41,36.39,38.88,36.39V153.73a26.22,26.22,0,0,1,0-52.36V92.69C312.05,92.69,294.64,109,294.64,129.09Z"></path><path class="cls-14" d="M333.52,132.65v21.08c.51,0,1,.05,1.54.05a26.22,26.22,0,0,0,23.24-14.09l-6.48-.73Z"></path><circle class="cls-11" cx="52.85" cy="129.28" r="44.69"></circle><path class="cls-15" d="M63.4,154.27c.7,1.55.6,3.9,1.63,5.14a1.89,1.89,0,0,0,.27.2c6-.36,6.31-7.18,3.41-10.36a4.84,4.84,0,0,0-5.5-.76c-11.9,5.11-23.28,1.85-30.16-5.21a23.4,23.4,0,0,1-6.87-13.76c-2-16.65,11.69-27.14,21.07-28.29a25.56,25.56,0,0,1,21.57,7.35c5.8,5.72,8.87,14.37,7,24.26-.85,4.56-3.57,10.22-9.63,10.22a9.16,9.16,0,0,1-6.58-2.85,8.91,8.91,0,0,1-2.77-5.88c-.57-9,11-11.44,10.23-20.46a6.8,6.8,0,0,0-1.95-4.18c-3.53-3.34-10.56-4.64-17-3.32-7.92,1.61-15.53,8.8-16.85,17.45a24.67,24.67,0,0,0,6.62,20.35c4.62,4.56,11.29,7.08,19.54,5.21,2.65-.62,4.66-3.1,9-2.41a6.21,6.21,0,0,1,3.7,1.93c3.48,3.23,2.92,10.07-1.57,11.61-2.35.81-6.6.17-8.47-1.88l0-.06a2.14,2.14,0,0,1-.65-.53,3.67,3.67,0,0,1-1.1-3.08c.13-1.86,1.31-3.29,2.64-3.21a2,2,0,0,1,1.4.77A3.23,3.23,0,0,1,63.4,154.27Z"></path><path class="cls-6" d="M194.75,60.61a68.71,68.71,0,0,1,.73,137.31"></path><path class="cls-16" d="M189.79,197.93a68.7,68.7,0,0,1,1-137.33"></path><circle class="cls-10" cx="123.8" cy="130.94" r="9.77"></circle><rect class="cls-11" x="121.97" y="125.4" width="3.66" height="11.08" rx="1.83"></rect><rect class="cls-11" x="121.97" y="125.4" width="3.66" height="11.08" rx="1.83" transform="translate(-7.14 254.74) rotate(-90)"></rect><line class="cls-16" x1="114.02" y1="130.94" x2="97.54" y2="130.94"></line><line class="cls-6" x1="287.46" y1="130.94" x2="270.98" y2="130.94"></line><circle class="cls-2" cx="261.2" cy="130.94" r="9.77"></circle><rect class="cls-11" x="259.38" y="125.4" width="3.66" height="11.08" rx="1.83"></rect><rect class="cls-11" x="259.38" y="125.4" width="3.66" height="11.08" rx="1.83" transform="translate(130.26 392.14) rotate(-90)"></rect></svg> 