<?xml version="1.0" encoding="UTF-8"?> <svg xmlns="http://www.w3.org/2000/svg" width="132" height="25" fill="none"><path d="M2.518 5.544a1.523 1.523 0 010-3.044h17.975a1.523 1.523 0 010 3.044H2.518zm16.935 12.353a1.518 1.518 0 012.08 2.21c-1.406 1.32-2.995 2.37-4.707 3.085a13.794 13.794 0 01-5.32 1.075 13.8 13.8 0 01-5.321-1.075c-1.713-.715-3.301-1.766-4.707-3.085a1.518 1.518 0 012.08-2.21c1.14 1.07 2.42 1.919 3.792 2.49 1.301.542 2.7.837 4.155.837a10.77 10.77 0 004.156-.837c1.372-.571 2.652-1.42 3.792-2.49zm.397-7.758a1.517 1.517 0 011.285 2.746 20.773 20.773 0 01-4.584 1.506c-1.6.334-3.3.514-5.046.514a24.82 24.82 0 01-5.046-.514 20.832 20.832 0 01-4.583-1.506 1.517 1.517 0 01-.731-2.015 1.517 1.517 0 012.015-.731c1.165.546 2.487.983 3.917 1.28 1.376.287 2.867.443 4.428.443a21.75 21.75 0 004.428-.443 17.806 17.806 0 003.917-1.28z" fill="#FB4247"></path><path d="M42.876 9.851a9.244 9.244 0 00-2.118-.935 7.591 7.591 0 00-2.206-.35c-.818 0-1.476.15-1.972.452-.497.302-.745.765-.745 1.388 0 .623.277 1.096.832 1.417.555.322 1.398.648 2.527.98 1.072.31 1.948.623 2.63.934a4.67 4.67 0 011.739 1.373c.477.604.715 1.403.715 2.396 0 1.46-.55 2.571-1.65 3.33-1.1.76-2.47 1.14-4.105 1.14a10.26 10.26 0 01-3.346-.555c-1.08-.37-1.992-.896-2.732-1.578l1.023-1.986c.642.584 1.436 1.052 2.381 1.402.945.35 1.865.526 2.761.526.896 0 1.617-.166 2.162-.497.546-.33.818-.837.818-1.519 0-.701-.287-1.227-.862-1.578-.574-.35-1.446-.701-2.614-1.051-1.033-.293-1.875-.59-2.528-.892a4.487 4.487 0 01-1.665-1.329c-.458-.584-.687-1.344-.687-2.28 0-1.44.526-2.521 1.578-3.242 1.051-.72 2.366-1.081 3.944-1.081.935 0 1.855.131 2.761.394.906.263 1.69.619 2.352 1.066l-.993 2.075zm18.349-.088c.506-1.11 1.227-1.952 2.162-2.527.935-.574 2.045-.872 3.33-.891v2.63c-1.577-.059-2.853.35-3.827 1.227-.974.876-1.529 2.055-1.665 3.535v8.152h-2.718V6.433h2.718v3.33zm49.378-3.33h2.717v15.456h-2.717V6.433zm1.344-6.166c.486 0 .891.166 1.212.498.321.33.482.75.482 1.256s-.161.925-.482 1.256c-.321.331-.726.497-1.212.497-.487 0-.892-.166-1.213-.497-.321-.33-.482-.75-.482-1.256 0-.507.161-.926.482-1.256.321-.332.726-.498 1.213-.498zm17.501 10.285c-1.227-1.188-2.698-1.782-4.412-1.782-1.013 0-1.913.224-2.702.672a4.774 4.774 0 00-1.856 1.9c-.448.817-.672 1.762-.672 2.833 0 1.071.219 2.016.658 2.835a4.831 4.831 0 001.811 1.913c.77.458 1.651.687 2.644.687.994 0 1.89-.166 2.688-.497a5.116 5.116 0 001.987-1.431l1.549 1.577c-.702.877-1.593 1.549-2.674 2.016-1.081.468-2.303.702-3.666.702-1.5 0-2.835-.332-4.003-.994a7.02 7.02 0 01-2.732-2.761c-.653-1.179-.979-2.527-.979-4.047 0-1.52.326-2.873.979-4.061a6.996 6.996 0 012.732-2.776c1.168-.662 2.503-.993 4.003-.993 1.305 0 2.478.2 3.52.599 1.042.4 1.914.979 2.615 1.739l-1.49 1.87zM55.206 20.866c-1.188.76-2.376 1.14-3.565 1.14-1.246 0-2.254-.429-3.024-1.286s-1.154-2.094-1.154-3.71V2.81h2.718v4.149h4.762v2.074H50.18v7.48c0 1.987.642 2.98 1.928 2.98.72 0 1.51-.243 2.366-.73l.73 2.103zM84.044 6.433v15.456h-2.718v-3.01c-.584 1.013-1.363 1.792-2.337 2.338-.974.545-2.113.818-3.419.818-1.46 0-2.75-.336-3.871-1.008-1.12-.672-1.991-1.607-2.615-2.805-.623-1.198-.935-2.566-.935-4.105 0-1.52.312-2.869.935-4.047a6.847 6.847 0 012.63-2.761c1.13-.662 2.415-.993 3.856-.993 1.306 0 2.445.268 3.419.803.974.536 1.753 1.31 2.337 2.323v-3.01h2.718zm-7.918 13.264c1.441 0 2.634-.452 3.58-1.358.943-.906 1.484-2.09 1.62-3.55V13.62c-.136-1.46-.677-2.649-1.62-3.564-.946-.916-2.139-1.373-3.58-1.373-1.013 0-1.914.238-2.703.715a5.03 5.03 0 00-1.855 1.973c-.448.837-.672 1.782-.672 2.834s.224 1.996.672 2.834a4.926 4.926 0 001.855 1.957c.789.468 1.69.701 2.703.701zm20.54 1.17c-1.188.759-2.377 1.139-3.564 1.139-1.247 0-2.255-.429-3.025-1.286s-1.154-2.094-1.154-3.71V2.81h2.717v4.149h4.763v2.074H91.64v7.48c0 1.987.643 2.98 1.929 2.98.72 0 1.51-.243 2.366-.73l.73 2.103zm10.635 0c-1.188.759-2.376 1.139-3.564 1.139-1.247 0-2.255-.429-3.025-1.286-.769-.857-1.154-2.094-1.154-3.71V2.81h2.718v4.149h4.762v2.074h-4.762v7.48c0 1.987.642 2.98 1.928 2.98.721 0 1.51-.243 2.366-.73l.731 2.103z" fill="#000"></path></svg> 