<svg width="358" height="358" viewBox="0 0 358 358" fill="none" xmlns="http://www.w3.org/2000/svg">
<path fill-rule="evenodd" clip-rule="evenodd" d="M0 0H358V358H0V0Z" fill="#FB4247"/>
<path d="M97.6949 108.084C90.0961 108.084 83.9297 101.915 83.9297 94.3168C83.9297 86.7182 90.0961 80.5517 97.6949 80.5517H260.291C267.89 80.5517 274.056 86.7182 274.056 94.3168C274.056 101.915 267.89 108.084 260.291 108.084H97.6949ZM250.881 219.828C256.398 214.635 265.092 214.897 270.285 220.413C275.476 225.93 275.216 234.624 269.699 239.817C256.985 251.751 242.611 261.256 227.121 267.716C211.968 274.026 195.762 277.452 178.993 277.452C162.224 277.452 146.018 274.026 130.865 267.716C115.375 261.256 101.001 251.751 88.2865 239.817C82.7698 234.624 82.5102 225.93 87.7012 220.413C92.8941 214.897 101.588 214.635 107.105 219.828C117.414 229.507 128.991 237.182 141.401 242.352C153.174 247.253 165.822 249.918 178.993 249.918C192.164 249.918 204.812 247.253 216.585 242.352C228.995 237.182 240.572 229.507 250.881 219.828ZM254.479 149.642C261.331 146.435 269.504 149.404 272.712 156.254C275.921 163.105 272.95 171.278 266.1 174.487C253.602 180.351 239.608 185.002 224.638 188.113C210.168 191.125 194.786 192.763 178.993 192.763C163.2 192.763 147.818 191.125 133.348 188.113C118.378 185.002 104.373 180.339 91.8862 174.487C85.0359 171.278 82.0645 163.105 85.274 156.254C88.4817 149.404 96.6548 146.435 103.507 149.642C114.041 154.584 125.998 158.542 138.94 161.229C151.384 163.821 164.87 165.229 178.993 165.229C193.116 165.229 206.602 163.821 219.046 161.229C231.988 158.542 243.954 154.574 254.479 149.642Z" fill="white"/>
</svg>
